<?xml version="1.0" encoding="utf-8"?>
<!-- Generator: Adobe Illustrator 25.4.1, SVG Export Plug-In . SVG Version: 6.00 Build 0)  -->
<svg version="1.1" id="Capa_1" xmlns="http://www.w3.org/2000/svg" xmlns:xlink="http://www.w3.org/1999/xlink" x="0px" y="0px"
	 viewBox="0 0 444 496" style="enable-background:new 0 0 444 496;" xml:space="preserve">
<style type="text/css">
	.st0{fill:#DB6464;}
	.st1{fill:#FFFFFF;}
	.st2{fill:#023055;}
	.st3{fill:#AD1457;}
	.st4{fill:#12263F;}
</style>
<g id="Grupo_120662" transform="translate(-430 49)">
	<g id="Capa_2_00000001643874176177706500000000799988707537678478_" transform="translate(1017.297 871.713)">
		<g id="Grupo_120661" transform="translate(0 0)">
			<path id="Trazado_143635" class="st0" d="M-412.4-823.3L-568.9-550c-20.9,36.5,5.4,81.9,47.5,81.9h313c42,0,68.4-45.4,47.5-81.9
				l-156.5-273.3C-338.5-860-391.4-860-412.4-823.3z"/>
			<path id="Trazado_143636" class="st1" d="M-412.4-823.3l-1.5-0.9l-156.5,273.3c-4.9,8.5-7.5,18.2-7.5,28
				c0.1,14.7,5.8,28.8,15.9,39.4c10.6,11.1,25.3,17.3,40.7,17.2h313c15.4,0.1,30.1-6.1,40.7-17.2c10.2-10.6,15.9-24.7,15.9-39.4
				c0-9.8-2.6-19.5-7.5-28l-156.5-273.3c-5.1-8.9-12.5-16.3-21.4-21.3c-17.2-9.5-38-9.5-55.2,0c-9,5-16.4,12.4-21.4,21.3
				L-412.4-823.3l1.5,0.9c4.7-8.4,11.7-15.3,20.1-20c16.1-8.9,35.6-8.9,51.8,0c8.4,4.7,15.3,11.6,20.1,20l156.5,273.2
				c4.6,8,7.1,17,7.1,26.2c-0.1,13.8-5.4,27-14.9,36.9c-9.9,10.4-23.7,16.2-38.1,16.1h-313c-14.4,0.1-28.2-5.7-38.1-16.1
				c-9.5-9.9-14.9-23.1-14.9-36.9c0-9.2,2.5-18.2,7.1-26.2l156.5-273.3L-412.4-823.3z"/>
			<path id="Trazado_143637" class="st1" d="M-426.7-625.8h1.8c13.7,0,24.9,11.2,24.8,24.9c0,13.7-11.2,24.9-24.9,24.8
				c-13.7,0-24.9-11.2-24.8-24.9c0-13.7,11.1-24.8,24.8-24.8h-3.5c0,35.1,28.5,63.5,63.5,63.5c35.1,0,63.5-28.5,63.5-63.5
				c0-35.1-28.5-63.5-63.5-63.5c-35.1,0-63.5,28.4-63.5,63.5v0H-426.7z"/>
			<path id="Trazado_143638" class="st2" d="M-160.9-550l-156.5-273.3c-21-36.7-74-36.7-95,0l-65,113.5c-2.7,4.1-5.1,8.3-7.2,12.7
				c-0.5,1.1-1,2.2-1.5,3.4l-0.4,0.9c-0.5,1.2-1,2.5-1.5,3.8l-0.4,1c-0.5,1.3-0.9,2.5-1.3,3.8c-0.1,0.3-0.2,0.7-0.3,1
				c-0.4,1.3-0.8,2.7-1.1,4c-0.1,0.2-0.1,0.5-0.2,0.7c-0.3,1.4-0.7,2.7-0.9,4.1l-0.1,0.5c-0.3,1.5-0.6,2.9-0.8,4.4
				c0,0.3-0.1,0.5-0.1,0.8c-0.2,1.4-0.4,2.9-0.6,4.4l-0.1,0.8c-0.2,1.5-0.3,3-0.3,4.5v0.6c-0.1,1.6-0.1,3.2-0.1,4.8s0,3.2,0.1,4.9
				v0.6c0.1,1.5,0.2,3,0.3,4.5c0,0.3,0,0.6,0.1,0.9c0.1,1.4,0.3,2.8,0.5,4.2c0.1,0.4,0.1,0.7,0.2,1.1c0.2,1.3,0.4,2.6,0.7,4
				c0.1,0.4,0.2,0.8,0.3,1.2c0.2,1.1,0.5,2.3,0.8,3.4c0.1,0.6,0.3,1.1,0.4,1.7c0.3,0.9,0.5,1.8,0.8,2.7c0.2,0.7,0.4,1.5,0.7,2.2
				c0.2,0.7,0.6,1.7,0.9,2.5c0.2,0.6,0.4,1.2,0.7,1.9c0.4,1,0.7,1.9,1.1,2.9c0.3,0.7,0.6,1.3,0.8,2c0.4,0.9,0.8,1.8,1.2,2.7l0,0
				c23.9,50.8,84.5,72.6,135.3,48.7c11.4-5.4,21.8-12.8,30.5-22c15-15.8-23.3-70-22.9-104.8c6.3,9.2,38.8,14.1,55,36.7
				c15.5,21.6,15.1,60.9,15.1,72.5c0,61.3-48.6,111.1-108.6,111.1h172C-166.4-468.1-140-513.5-160.9-550z"/>
			<path id="Trazado_143639" class="st1" d="M-160.9-550l1.5-0.9l-156.5-273.3c-5.1-8.9-12.5-16.3-21.4-21.3
				c-17.2-9.5-38-9.5-55.2,0c-9,5-16.4,12.4-21.4,21.3l-65,113.4l1.5,0.9l-1.4-1c-2.8,4.1-5.2,8.5-7.3,13c-0.5,1.1-1.1,2.3-1.6,3.4
				l-0.4,0.9c-0.5,1.3-1,2.5-1.5,3.8c-0.1,0.3-0.3,0.7-0.4,1.1c-0.5,1.3-0.9,2.6-1.3,3.9c-0.1,0.3-0.2,0.7-0.3,1
				c-0.4,1.4-0.8,2.7-1.2,4.1c-0.1,0.3-0.1,0.5-0.2,0.7c-0.3,1.4-0.7,2.8-1,4.2c0,0.2-0.1,0.3-0.1,0.5c-0.3,1.5-0.6,3-0.8,4.5
				c0,0.3-0.1,0.5-0.1,0.8c-0.2,1.5-0.4,3-0.6,4.5l-0.1,0.9c-0.2,1.5-0.3,3-0.4,4.6l0,0v0.6c-0.1,1.6-0.1,3.3-0.1,4.9
				s0.1,3.3,0.1,4.9v0.6c0.1,1.5,0.2,3.1,0.3,4.5c0,0.3,0,0.6,0.1,0.9c0.2,1.4,0.3,2.9,0.5,4.3c0.1,0.4,0.1,0.8,0.2,1.1
				c0.2,1.4,0.5,2.7,0.7,4c0.1,0.4,0.2,0.9,0.3,1.3l0,0c0.2,1.2,0.5,2.3,0.8,3.5c0.1,0.6,0.3,1.2,0.5,1.7c0.3,0.9,0.5,1.9,0.8,2.8
				c0.2,0.7,0.5,1.5,0.7,2.2c0.2,0.7,0.6,1.7,0.9,2.5c0.2,0.6,0.4,1.3,0.7,1.9c0.4,1,0.8,2,1.1,2.9c0.3,0.7,0.6,1.3,0.9,2
				c0.4,0.9,0.8,1.8,1.2,2.7l3.4,7.2v-7.9h-1.8l-1.6,0.8c24.3,51.7,86,73.9,137.7,49.5c11.6-5.5,22.1-13,30.9-22.4
				c1.4-1.5,2.5-3.3,3.1-5.3c0.6-2.1,0.9-4.3,0.9-6.5c0-5.9-1.7-12.9-4.2-20.5c-3.8-11.4-9.3-24.4-14-37.2
				c-4.6-12.8-8.3-25.4-8.3-35.9v-0.5h-1.8l-1.5,1c1.1,1.5,2.4,2.7,4,3.8c3.5,2.2,7.1,4.1,10.8,5.7c6.3,2.9,13.9,6.1,21,10.4
				s14.1,9.7,19.2,16.8c7.1,9.8,10.8,23.7,12.7,36.9c1.5,10.7,2.1,21.6,2,32.4v2.2c0.1,28.9-11.1,56.7-31.3,77.3
				c-19.8,20.4-47.1,32-75.5,32v3.5h172c15.4,0.1,30.1-6.1,40.7-17.2c10.2-10.6,15.9-24.7,15.9-39.4c0-9.8-2.6-19.5-7.5-28
				L-160.9-550l-1.5,0.9c4.6,8,7.1,17,7.1,26.2c-0.1,13.8-5.4,27-14.9,36.9c-9.9,10.4-23.7,16.2-38.1,16.1h-172v3.5
				c29.4,0,57.6-11.9,78.1-33c20.8-21.3,32.4-50,32.3-79.8v-2.2c0.1-11-0.6-22-2.1-32.9c-2-13.5-5.7-27.8-13.4-38.4
				c-8.4-11.7-20.9-18.7-31.9-23.9c-5.5-2.6-10.7-4.8-14.8-6.9c-1.8-0.9-3.6-1.9-5.3-3c-1.2-0.8-2.2-1.7-3.1-2.9l-3.1-4.5l-0.1,5.4
				v0.6c0,7.5,1.7,15.8,4.2,24.2c3.8,12.7,9.4,26,14,38.2c2.3,6.1,4.4,11.9,5.9,17.2c1.4,4.5,2.2,9.2,2.4,13.9
				c0,1.8-0.2,3.7-0.7,5.4c-0.4,1.5-1.2,2.8-2.3,4c-38,40-101.2,41.7-141.2,3.7c-9-8.6-16.4-18.7-21.6-30l-3.4-7.1v7.9h1.8l1.6-0.8
				c-0.4-0.9-0.8-1.8-1.2-2.7c-0.3-0.6-0.6-1.3-0.8-2c-0.4-0.9-0.8-1.9-1.1-2.8c-0.2-0.6-0.4-1.2-0.7-1.8c-0.3-0.8-0.6-1.6-0.8-2.5
				c-0.2-0.7-0.4-1.4-0.7-2.1c-0.3-0.9-0.5-1.8-0.8-2.7c-0.2-0.6-0.3-1.1-0.4-1.7c-0.3-1.1-0.5-2.2-0.8-3.3l0,0
				c-0.1-0.4-0.2-0.8-0.3-1.2c-0.3-1.3-0.5-2.6-0.7-3.9c-0.1-0.4-0.1-0.7-0.2-1.1c-0.2-1.4-0.4-2.7-0.5-4.1c0-0.3-0.1-0.6-0.1-0.9
				c-0.1-1.5-0.3-2.9-0.3-4.4v-0.6c-0.1-1.6-0.1-3.2-0.1-4.8c0-1.6,0-3.2,0.1-4.7v-0.6l0,0c0.1-1.5,0.2-3,0.3-4.4l0.1-0.8
				c0.2-1.4,0.3-2.9,0.6-4.3c0-0.3,0.1-0.5,0.1-0.8c0.2-1.5,0.5-2.9,0.8-4.3c0-0.2,0.1-0.3,0.1-0.5c0.3-1.3,0.6-2.7,0.9-4
				c0.1-0.3,0.1-0.5,0.2-0.7c0.4-1.3,0.7-2.7,1.1-4c0.1-0.3,0.2-0.7,0.3-1c0.4-1.3,0.8-2.5,1.3-3.8c0.1-0.3,0.2-0.7,0.4-1
				c0.5-1.2,1-2.5,1.5-3.7l0.4-0.8c0.5-1.1,1-2.2,1.5-3.3c2.1-4.3,4.4-8.5,7.1-12.5v0l65-113.5c4.7-8.4,11.7-15.3,20.1-20
				c16.1-8.9,35.6-8.9,51.8,0c8.4,4.7,15.3,11.6,20.1,20l156.5,273.4L-160.9-550z"/>
			<path id="Trazado_143640" class="st3" d="M-275.4-550.7c-12.3,47.6-54.6,82.6-105,82.6h172c42,0,68.4-45.4,47.5-81.9l-71.7-125.2
				l-9.1-14.8c-18.4-29.8-50.9-48-86-48c-39,0-74,21.4-89.6,54.5c-7.8,16.5-8.3,40,4.7,40s57.6-44.3,69.1-40
				c41.9,15.4,71.7,56.4,71.7,104.5C-271.8-569.6-273-560-275.4-550.7"/>
			<path id="Trazado_143641" class="st1" d="M-277.1-551.2c-5.9,23-19.1,43.4-37.6,58.2c-18.6,15-41.8,23.1-65.7,23.1v3.5h172
				c15.4,0.1,30.1-6.1,40.7-17.2c10.2-10.6,15.9-24.7,15.9-39.4c0-9.8-2.6-19.5-7.5-28l-71.8-125.3l-9-14.8l0,0
				c-18.7-30.4-51.8-48.8-87.5-48.8c-39.6,0-75.3,21.8-91.2,55.4c-3.6,7.7-5.5,16-5.7,24.4c0,4.8,0.8,9.1,2.6,12.5
				c0.9,1.6,2.1,3,3.7,4c1.7,1,3.6,1.6,5.5,1.5c2.3-0.2,4.6-0.8,6.6-1.9c5.3-2.7,10.3-5.9,15.1-9.4c8.4-6,17.8-13.3,26.2-19.1
				c3.7-2.6,7.5-5,11.5-7.2c1.5-0.8,3-1.5,4.6-2c1.1-0.4,2.2-0.6,3.3-0.7c0.4,0,0.8,0,1.2,0.2c41.1,15.2,70.6,55.5,70.6,102.8
				C-273.6-569.7-274.8-560.3-277.1-551.2l3.4,0.9c2.4-9.4,3.6-19.2,3.6-28.9c0-48.8-30.4-90.5-72.9-106.2c-0.8-0.3-1.6-0.4-2.4-0.4
				c-2.5,0.1-4.9,0.8-7.1,1.9c-5.5,2.7-10.7,5.8-15.6,9.4c-8.6,6-18,13.3-26.2,19.1c-3.6,2.6-7.3,5-11.2,7.2c-1.4,0.8-2.8,1.4-4.3,2
				c-1,0.4-2,0.6-3,0.7c-1.3,0-2.6-0.3-3.7-1c-1.7-1.2-2.9-2.9-3.5-5c-0.9-2.8-1.3-5.7-1.2-8.6c0.2-7.9,2-15.8,5.4-22.9
				c15.3-32.3,49.7-53.4,88-53.4c34.4,0,66.4,17.8,84.5,47.2l0,0l9.1,14.8l71.8,125.2c4.6,8,7.1,17,7.1,26.2
				c-0.1,13.8-5.4,27-14.9,36.9c-9.9,10.4-23.7,16.2-38.1,16.1h-172v3.5c24.7,0,48.7-8.4,67.9-23.9c19.1-15.3,32.8-36.4,38.9-60.1
				L-277.1-551.2L-277.1-551.2z"/>
			<circle id="Elipse_4827" class="st1" cx="-364.9" cy="-625.8" r="61.8"/>
			<path id="Trazado_143642" class="st1" d="M-426.7-625.8h1.8c13.7,0,24.9,11.2,24.8,24.9c0,13.7-11.2,24.9-24.9,24.8
				c-13.7,0-24.9-11.2-24.8-24.9c0-13.7,11.1-24.8,24.8-24.8h-3.5c0,35.1,28.5,63.5,63.5,63.5c35.1,0,63.5-28.5,63.5-63.5
				c0-35.1-28.5-63.5-63.5-63.5c-35.1,0-63.5,28.4-63.5,63.5v0H-426.7z"/>
			<g id="Grupo_120653" transform="translate(144.054)">
				<path id="Trazado_143643" class="st4" d="M-566.3-913.4h-4.9v13.5h-2v-13.5h-4.8v-1.6h11.7V-913.4z"/>
				<path id="Trazado_143644" class="st4" d="M-559.7-909.5c-0.3-0.1-0.6-0.1-0.9-0.1c-1.1-0.1-2.2,0.5-2.6,1.6v8h-1.9v-11.2h1.9
					v1.3c0.5-1,1.6-1.6,2.7-1.5c0.3,0,0.6,0,0.8,0.1L-559.7-909.5z"/>
				<path id="Trazado_143645" class="st4" d="M-557.9-914.1c0-0.3,0.1-0.6,0.3-0.8c0.5-0.4,1.2-0.4,1.7,0c0.2,0.2,0.3,0.5,0.3,0.8
					c0,0.3-0.1,0.6-0.3,0.8c-0.5,0.4-1.2,0.4-1.7,0C-557.8-913.6-557.9-913.8-557.9-914.1z M-555.8-899.9h-1.9v-11.2h1.9
					L-555.8-899.9z"/>
				<path id="Trazado_143646" class="st4" d="M-545.9-900c-0.1-0.4-0.2-0.8-0.3-1.2c-0.8,0.9-2,1.4-3.2,1.4c-1,0-2-0.3-2.7-0.9
					c-0.7-0.6-1.1-1.5-1.1-2.4c0-1.1,0.5-2.1,1.3-2.7c1.1-0.7,2.4-1,3.8-1h1.9v-0.9c0-0.6-0.2-1.2-0.6-1.6c-0.5-0.4-1.1-0.7-1.8-0.6
					c-0.6,0-1.2,0.2-1.7,0.5c-0.4,0.3-0.7,0.7-0.7,1.2h-1.9c0-0.6,0.2-1.2,0.6-1.6c0.4-0.5,1-1,1.6-1.2c0.7-0.3,1.5-0.5,2.2-0.5
					c1.1-0.1,2.2,0.3,3,1c0.8,0.7,1.2,1.7,1.1,2.7v5.2c0,0.8,0.1,1.7,0.4,2.5v0.2L-545.9-900z M-549-901.4c0.6,0,1.2-0.2,1.7-0.5
					c0.5-0.3,0.9-0.7,1.2-1.2v-2.3h-1.5c-2.4,0-3.5,0.7-3.5,2.1c0,0.5,0.2,1.1,0.6,1.4C-550.1-901.6-549.6-901.4-549-901.4
					L-549-901.4z M-547.2-915.9h2.3l-2.8,3h-1.5L-547.2-915.9z"/>
				<path id="Trazado_143647" class="st4" d="M-539.4-911.2l0.1,1.4c0.8-1.1,2-1.7,3.4-1.6c2.4,0,3.6,1.3,3.6,4v7.4h-1.9v-7.4
					c0.1-0.7-0.1-1.3-0.6-1.8c-0.5-0.4-1.1-0.6-1.7-0.6c-0.6,0-1.2,0.2-1.6,0.5c-0.5,0.3-0.8,0.8-1.1,1.3v8h-1.9v-11.2L-539.4-911.2
					z"/>
				<path id="Trazado_143648" class="st4" d="M-530-905.7c-0.1-1.5,0.3-3,1.2-4.2c1.4-1.8,4.1-2.1,5.9-0.6c0.2,0.2,0.4,0.3,0.5,0.5
					l0.1-1.2h1.8v10.9c0.1,1.3-0.4,2.5-1.3,3.4c-0.9,0.9-2.2,1.3-3.5,1.3c-0.8,0-1.6-0.2-2.4-0.5c-0.7-0.3-1.4-0.8-1.8-1.4l1-1.1
					c0.7,1,1.8,1.5,3,1.5c0.8,0,1.6-0.2,2.2-0.8c0.6-0.6,0.8-1.4,0.8-2.2v-1c-0.8,0.9-1.9,1.4-3.1,1.3c-1.3,0-2.4-0.6-3.2-1.6
					C-529.7-902.6-530.1-904.1-530-905.7z M-528.1-905.5c-0.1,1.1,0.2,2.1,0.8,3c0.5,0.7,1.3,1.1,2.2,1.1c1.1,0,2.2-0.6,2.7-1.6
					v-5.1c-0.5-1-1.5-1.6-2.6-1.6c-0.9,0-1.7,0.4-2.2,1.1C-527.9-907.7-528.1-906.6-528.1-905.5z"/>
				<path id="Trazado_143649" class="st4" d="M-510.7-901.1c-0.8,0.9-2,1.4-3.3,1.3c-1,0.1-2-0.3-2.7-1c-0.7-0.9-1-2-0.9-3.1v-7.3
					h1.9v7.2c0,1.7,0.7,2.5,2.1,2.5c1.2,0.1,2.4-0.5,2.9-1.6v-8.1h1.9v11.2h-1.8L-510.7-901.1z"/>
				<path id="Trazado_143650" class="st4" d="M-503.8-900h-1.9v-15.9h1.9V-900z"/>
				<path id="Trazado_143651" class="st4" d="M-501.3-905.7c0-1,0.2-2,0.6-3c0.4-0.8,1-1.5,1.8-2c0.8-0.5,1.7-0.7,2.6-0.7
					c1.4,0,2.8,0.5,3.7,1.6c1,1.2,1.5,2.7,1.4,4.2v0.1c0,1-0.2,2-0.6,2.9c-0.4,0.8-1,1.5-1.8,2c-0.8,0.5-1.8,0.7-2.7,0.7
					c-1.4,0.1-2.8-0.5-3.7-1.6c-1-1.2-1.5-2.7-1.4-4.2L-501.3-905.7z M-499.3-905.5c0,1.1,0.3,2.1,0.9,3c1,1.3,2.8,1.5,4.1,0.5
					c0.2-0.2,0.4-0.3,0.5-0.5c0.6-0.9,0.9-2.1,0.9-3.2c0-1.1-0.3-2.1-0.9-3c-1-1.3-2.8-1.5-4.1-0.5c-0.2,0.2-0.4,0.3-0.5,0.5
					C-499.1-907.7-499.4-906.6-499.3-905.5L-499.3-905.5z"/>
				<path id="Trazado_143652" class="st4" d="M-483.9-905.7c-0.1-1.5,0.4-2.9,1.2-4.1c1.4-1.8,4.1-2.1,5.9-0.7
					c0.2,0.1,0.3,0.3,0.5,0.4v-5.8h1.9v15.9h-1.8l-0.1-1.2c-0.8,0.9-2,1.5-3.2,1.4c-1.3,0-2.4-0.6-3.2-1.6c-0.9-1.2-1.3-2.7-1.2-4.2
					L-483.9-905.7z M-481.9-905.5c-0.1,1.1,0.2,2.1,0.8,3c0.5,0.7,1.3,1.1,2.2,1.1c1.1,0.1,2.2-0.6,2.7-1.6v-5.2
					c-0.5-1-1.5-1.6-2.6-1.6c-0.9,0-1.7,0.4-2.2,1.1C-481.8-907.7-482-906.6-481.9-905.5z"/>
				<path id="Trazado_143653" class="st4" d="M-466.8-899.8c-1.4,0.1-2.7-0.5-3.7-1.5c-1-1.1-1.5-2.5-1.4-4v-0.4c0-1,0.2-2.1,0.6-3
					c0.4-0.8,1-1.5,1.8-2.1c0.7-0.5,1.6-0.7,2.5-0.7c1.3-0.1,2.6,0.5,3.4,1.4c0.9,1.2,1.3,2.6,1.2,4.1v0.8h-7.6c0,1,0.3,2,1,2.7
					c0.6,0.7,1.5,1,2.4,1c0.6,0,1.2-0.1,1.7-0.4c0.5-0.3,0.9-0.7,1.2-1.1l1.2,0.9C-463.4-900.5-465.1-899.6-466.8-899.8z
					 M-467-909.8c-0.7,0-1.5,0.3-2,0.8c-0.6,0.7-0.9,1.5-1,2.4h5.6v-0.1c0-0.8-0.3-1.6-0.8-2.3C-465.6-909.5-466.3-909.8-467-909.8
					L-467-909.8z"/>
				<path id="Trazado_143654" class="st4" d="M-452.8-900h-1.9v-15.9h1.9L-452.8-900z"/>
				<path id="Trazado_143655" class="st4" d="M-442.8-900c-0.1-0.4-0.2-0.8-0.3-1.2c-0.8,0.9-2,1.4-3.2,1.4c-1,0-2-0.3-2.7-0.9
					c-0.7-0.6-1.1-1.5-1.1-2.4c0-1.1,0.5-2.1,1.3-2.7c1.1-0.7,2.4-1,3.7-1h1.9v-0.9c0-0.6-0.2-1.2-0.6-1.6c-0.5-0.4-1.1-0.7-1.8-0.6
					c-0.6,0-1.2,0.2-1.7,0.5c-0.4,0.3-0.7,0.7-0.7,1.2h-1.9c0-0.6,0.2-1.2,0.6-1.6c0.4-0.5,1-1,1.6-1.2c0.7-0.3,1.5-0.5,2.3-0.5
					c1.1-0.1,2.2,0.3,3,1c0.8,0.7,1.2,1.7,1.1,2.7v5.2c0,0.8,0.1,1.7,0.4,2.5v0.2L-442.8-900z M-446-901.4c0.6,0,1.2-0.2,1.7-0.5
					c0.5-0.3,0.9-0.7,1.2-1.2v-2.3h-1.5c-2.3,0-3.5,0.7-3.5,2.1c0,0.5,0.2,1.1,0.6,1.4C-447.1-901.6-446.6-901.4-446-901.4
					L-446-901.4z"/>
			</g>
			<g id="Grupo_120654" transform="translate(139.345 25.479)">
				<path id="Trazado_143656" class="st4" d="M-572.6-909.5c-0.3,0-0.6-0.1-0.9-0.1c-1.1-0.1-2.2,0.6-2.6,1.6v8h-1.9v-11.2h1.9v1.3
					c0.6-1,1.6-1.5,2.7-1.5c0.3,0,0.6,0,0.9,0.1L-572.6-909.5z"/>
				<path id="Trazado_143657" class="st4" d="M-566.4-899.8c-1.4,0.1-2.7-0.5-3.7-1.5c-1-1.1-1.5-2.5-1.4-4v-0.4c0-1,0.2-2,0.6-3
					c0.4-0.8,1-1.6,1.8-2.1c0.7-0.5,1.6-0.7,2.5-0.7c1.3-0.1,2.5,0.5,3.4,1.4c0.9,1.2,1.3,2.7,1.2,4.1v0.8h-7.6c0,1,0.3,2,1,2.7
					c0.6,0.7,1.5,1,2.4,1c0.6,0,1.2-0.1,1.7-0.4c0.5-0.3,0.9-0.7,1.2-1.1l1.2,0.9C-563.1-900.5-564.7-899.6-566.4-899.8z
					 M-566.6-909.8c-0.7,0-1.5,0.3-2,0.9c-0.6,0.7-0.9,1.5-1,2.4h5.6v-0.2c0-0.8-0.3-1.6-0.8-2.3
					C-565.2-909.5-565.9-909.8-566.6-909.8z"/>
				<path id="Trazado_143658" class="st4" d="M-553.3-902.9c0-0.5-0.2-0.9-0.6-1.2c-0.6-0.4-1.3-0.6-2-0.7c-0.8-0.2-1.6-0.4-2.3-0.8
					c-0.5-0.2-0.9-0.6-1.3-1c-0.3-0.4-0.4-0.9-0.4-1.4c0-0.9,0.4-1.8,1.2-2.3c0.9-0.6,1.9-1,3-0.9c1.1-0.1,2.2,0.3,3.1,1
					c0.8,0.6,1.2,1.5,1.2,2.5h-1.9c0-0.5-0.3-1-0.7-1.4c-0.5-0.4-1.1-0.6-1.7-0.6c-0.6,0-1.2,0.1-1.6,0.5c-0.4,0.3-0.6,0.7-0.6,1.2
					c0,0.4,0.2,0.8,0.5,1c0.6,0.3,1.3,0.6,2,0.7c0.8,0.2,1.6,0.4,2.3,0.8c0.5,0.2,1,0.6,1.3,1.1c0.3,0.5,0.4,1,0.4,1.5
					c0,1-0.4,1.9-1.2,2.4c-0.9,0.6-2,1-3.1,0.9c-0.8,0-1.6-0.1-2.4-0.5c-0.7-0.3-1.2-0.8-1.6-1.3c-0.4-0.5-0.6-1.2-0.6-1.8h1.9
					c0,0.6,0.3,1.2,0.8,1.5c0.6,0.4,1.2,0.6,1.9,0.6c0.6,0,1.2-0.1,1.7-0.4C-553.5-901.9-553.2-902.4-553.3-902.9z"/>
				<path id="Trazado_143659" class="st4" d="M-539.4-905.5c0.1,1.5-0.3,2.9-1.2,4.1c-0.7,1-1.9,1.6-3.2,1.6
					c-1.2,0.1-2.4-0.4-3.2-1.3v5.4h-1.9v-15.5h1.8l0.1,1.2c0.8-1,2-1.5,3.3-1.4c1.3,0,2.4,0.5,3.2,1.5c0.8,1.2,1.3,2.7,1.2,4.2
					V-905.5z M-541.3-905.7c0.1-1.1-0.2-2.1-0.8-3c-0.5-0.7-1.3-1.1-2.2-1.1c-1.1,0-2.1,0.6-2.6,1.5v5.4c0.5,1,1.5,1.6,2.6,1.5
					c0.9,0,1.7-0.4,2.2-1.1C-541.5-903.4-541.2-904.5-541.3-905.7L-541.3-905.7z"/>
				<path id="Trazado_143660" class="st4" d="M-537.5-905.7c0-1,0.2-2,0.7-3c1.3-2.5,4.3-3.4,6.8-2.1c0.5,0.3,0.9,0.6,1.3,1
					c1,1.2,1.5,2.7,1.4,4.2v0.1c0,1-0.2,2-0.6,2.9c-0.4,0.8-1,1.5-1.8,2c-0.8,0.5-1.8,0.8-2.7,0.7c-1.4,0.1-2.8-0.5-3.7-1.6
					c-1-1.2-1.5-2.7-1.4-4.2L-537.5-905.7z M-535.5-905.5c-0.1,1.1,0.2,2.1,0.9,3c1,1.3,2.8,1.5,4.1,0.5c0.2-0.1,0.4-0.3,0.5-0.5
					c0.6-0.9,1-2.1,0.9-3.2c0-1.1-0.3-2.1-0.9-3c-0.5-0.7-1.4-1.2-2.3-1.1c-0.9,0-1.8,0.4-2.3,1.1
					C-535.3-907.7-535.6-906.6-535.5-905.5L-535.5-905.5z"/>
				<path id="Trazado_143661" class="st4" d="M-523-911.2l0.1,1.4c0.8-1,2-1.6,3.3-1.6c2.4,0,3.6,1.3,3.6,4v7.4h-1.9v-7.4
					c0-0.7-0.2-1.3-0.6-1.8c-0.5-0.4-1.1-0.6-1.7-0.6c-0.6,0-1.2,0.2-1.6,0.5c-0.5,0.3-0.8,0.8-1.1,1.3v8h-1.9v-11.2L-523-911.2z"/>
				<path id="Trazado_143662" class="st4" d="M-506.6-902.9c0-0.5-0.2-0.9-0.6-1.2c-0.6-0.4-1.3-0.6-2-0.7c-0.8-0.2-1.6-0.4-2.3-0.8
					c-0.5-0.2-0.9-0.6-1.3-1c-0.3-0.4-0.4-0.9-0.4-1.4c0-0.9,0.4-1.8,1.2-2.3c0.9-0.6,1.9-1,3-0.9c1.1-0.1,2.2,0.3,3.1,1
					c0.8,0.6,1.2,1.5,1.2,2.5h-1.9c0-0.5-0.3-1-0.7-1.4c-0.5-0.4-1.1-0.6-1.7-0.6c-0.6,0-1.2,0.1-1.6,0.5c-0.4,0.3-0.6,0.7-0.6,1.2
					c0,0.4,0.2,0.8,0.5,1c0.6,0.3,1.3,0.6,2,0.7c0.8,0.2,1.6,0.4,2.3,0.8c0.5,0.2,1,0.6,1.3,1.1c0.3,0.5,0.4,1,0.4,1.5
					c0,1-0.4,1.9-1.2,2.4c-0.9,0.6-2,1-3.1,0.9c-0.8,0-1.6-0.1-2.4-0.5c-0.7-0.3-1.2-0.8-1.6-1.3c-0.4-0.5-0.6-1.2-0.6-1.8h1.9
					c0,0.6,0.3,1.2,0.8,1.5c0.6,0.4,1.2,0.6,1.9,0.6c0.6,0,1.2-0.1,1.7-0.4C-506.8-901.9-506.6-902.4-506.6-902.9z"/>
				<path id="Trazado_143663" class="st4" d="M-495.2-900c-0.1-0.4-0.2-0.8-0.3-1.2c-0.8,0.9-2,1.4-3.2,1.4c-1,0-2-0.3-2.7-0.9
					c-0.7-0.6-1.1-1.5-1.1-2.4c0-1.1,0.5-2.1,1.3-2.7c1.1-0.7,2.4-1,3.7-1h1.9v-0.9c0-0.6-0.2-1.2-0.6-1.6c-0.5-0.4-1.1-0.7-1.8-0.6
					c-0.6,0-1.2,0.2-1.7,0.5c-0.4,0.3-0.7,0.7-0.7,1.3h-1.9c0-0.6,0.2-1.2,0.6-1.6c0.4-0.5,1-1,1.6-1.2c0.7-0.3,1.5-0.5,2.3-0.5
					c1.1-0.1,2.2,0.3,3,1c0.7,0.7,1.2,1.7,1.1,2.7v5.2c0,0.8,0.1,1.7,0.4,2.5v0.2L-495.2-900z M-498.4-901.4c0.6,0,1.2-0.2,1.7-0.5
					c0.5-0.3,0.9-0.7,1.2-1.2v-2.3h-1.5c-2.4,0-3.5,0.7-3.5,2.1c0,0.5,0.2,1.1,0.6,1.4C-499.5-901.6-499-901.4-498.4-901.4
					L-498.4-901.4z"/>
				<path id="Trazado_143664" class="st4" d="M-481.1-905.5c0.1,1.5-0.3,2.9-1.2,4.1c-0.7,1-1.9,1.6-3.2,1.6
					c-1.3,0.1-2.5-0.5-3.3-1.5l-0.1,1.3h-1.8v-15.9h1.9v5.9c0.8-1,2-1.5,3.2-1.4c1.3,0,2.5,0.5,3.2,1.5c0.8,1.2,1.3,2.7,1.2,4.2
					L-481.1-905.5z M-483.1-905.7c0.1-1.1-0.2-2.1-0.8-3c-0.5-0.7-1.3-1.1-2.2-1.1c-1.2,0-2.3,0.7-2.7,1.8v4.8
					c0.4,1.1,1.5,1.8,2.7,1.8c0.9,0,1.7-0.4,2.2-1.1C-483.2-903.4-483-904.5-483.1-905.7z"/>
				<path id="Trazado_143665" class="st4" d="M-478.7-914.2c0-0.3,0.1-0.6,0.3-0.8c0.2-0.2,0.5-0.3,0.8-0.3c0.3,0,0.6,0.1,0.9,0.3
					c0.2,0.2,0.3,0.5,0.3,0.8c0,0.3-0.1,0.6-0.3,0.8c-0.2,0.2-0.5,0.3-0.9,0.3c-0.6,0.1-1.1-0.4-1.1-0.9c0,0,0,0,0,0
					C-478.7-914-478.7-914.1-478.7-914.2z M-476.7-900h-1.9v-11.2h1.9V-900z"/>
				<path id="Trazado_143666" class="st4" d="M-471.5-900h-1.9v-15.9h1.9V-900z"/>
				<path id="Trazado_143667" class="st4" d="M-468.4-914.2c0-0.3,0.1-0.6,0.3-0.8c0.5-0.4,1.2-0.4,1.7,0c0.2,0.2,0.3,0.5,0.3,0.8
					c0,0.3-0.1,0.6-0.3,0.8c-0.5,0.4-1.2,0.4-1.7,0C-468.3-913.6-468.4-913.9-468.4-914.2z M-466.3-900h-1.9v-11.2h1.9L-466.3-900z"
					/>
				<path id="Trazado_143668" class="st4" d="M-463.7-905.7c-0.1-1.5,0.4-2.9,1.2-4.2c1.4-1.8,4.1-2.1,5.9-0.6
					c0.2,0.1,0.3,0.3,0.5,0.4v-5.8h1.9v15.9h-1.8l-0.1-1.2c-0.8,0.9-2,1.5-3.2,1.4c-1.3,0-2.4-0.6-3.2-1.6c-0.9-1.2-1.3-2.7-1.2-4.2
					L-463.7-905.7z M-461.8-905.5c-0.1,1.1,0.2,2.1,0.8,3c0.5,0.7,1.3,1.1,2.2,1.1c1.1,0.1,2.2-0.6,2.7-1.6v-5.2
					c-0.5-1-1.5-1.6-2.6-1.6c-0.9,0-1.7,0.4-2.2,1.1C-461.6-907.7-461.9-906.6-461.8-905.5L-461.8-905.5z"/>
				<path id="Trazado_143669" class="st4" d="M-444.4-900c-0.1-0.4-0.2-0.8-0.3-1.2c-0.8,0.9-2,1.4-3.2,1.4c-1,0-2-0.3-2.7-0.9
					c-0.7-0.6-1.1-1.5-1.1-2.4c0-1.1,0.5-2.1,1.3-2.7c1.1-0.7,2.4-1,3.8-1h1.9v-0.9c0-0.6-0.2-1.2-0.6-1.6c-0.5-0.4-1.1-0.7-1.8-0.6
					c-0.6,0-1.2,0.2-1.7,0.5c-0.4,0.3-0.7,0.7-0.7,1.3h-1.9c0-0.6,0.2-1.2,0.6-1.6c0.4-0.6,1-1,1.7-1.2c0.7-0.3,1.5-0.5,2.2-0.5
					c1.1-0.1,2.2,0.3,3,1c0.7,0.7,1.2,1.7,1.1,2.7v5.2c0,0.8,0.1,1.7,0.4,2.5v0.2L-444.4-900z M-447.6-901.4c0.6,0,1.2-0.2,1.7-0.5
					c0.5-0.3,0.9-0.7,1.2-1.2v-2.3h-1.5c-2.4,0-3.5,0.7-3.5,2.1c0,0.5,0.2,1.1,0.6,1.4C-448.7-901.6-448.1-901.4-447.6-901.4
					L-447.6-901.4z"/>
				<path id="Trazado_143670" class="st4" d="M-440.2-905.7c-0.1-1.5,0.4-3,1.2-4.2c1.4-1.8,4.1-2.1,5.9-0.7
					c0.2,0.1,0.3,0.3,0.5,0.4v-5.8h1.9v15.9h-1.8l-0.1-1.2c-0.8,0.9-2,1.5-3.2,1.4c-1.3,0-2.4-0.6-3.2-1.6c-0.9-1.2-1.3-2.7-1.2-4.2
					L-440.2-905.7z M-438.3-905.5c-0.1,1.1,0.2,2.1,0.8,3c0.5,0.7,1.3,1.1,2.2,1.1c1.1,0.1,2.2-0.6,2.7-1.6v-5.2
					c-0.5-1-1.5-1.6-2.6-1.6c-0.9,0-1.7,0.4-2.2,1.1C-438.1-907.7-438.4-906.6-438.3-905.5L-438.3-905.5z"/>
			</g>
			<g id="Grupo_120655" transform="translate(182.097 467.24)">
				<path id="Trazado_143671" class="st4" d="M-568.2-904.7h-6.3l-1.4,4h-2.1l5.8-15.1h1.7l5.8,15.1h-2L-568.2-904.7z M-573.9-906.4
					h5.1l-2.6-7.1L-573.9-906.4z"/>
				<path id="Trazado_143672" class="st4" d="M-558.5-902.1c0.7,0,1.3-0.2,1.8-0.6c0.5-0.4,0.8-0.9,0.8-1.6h1.8
					c0,0.7-0.3,1.3-0.7,1.8c-0.4,0.6-1,1.1-1.6,1.4c-0.7,0.3-1.4,0.5-2.2,0.5c-1.4,0.1-2.7-0.5-3.6-1.5c-1-1.2-1.4-2.7-1.4-4.2v-0.3
					c0-1,0.2-2,0.6-2.9c0.4-0.8,1-1.5,1.7-2c0.8-0.5,1.7-0.7,2.7-0.7c1.2,0,2.3,0.4,3.1,1.1c0.8,0.7,1.3,1.8,1.3,2.9h-1.8
					c0-0.7-0.3-1.3-0.8-1.8c-0.5-0.5-1.1-0.7-1.8-0.7c-0.9,0-1.8,0.4-2.3,1.1c-0.6,0.9-0.9,2-0.8,3v0.4c-0.1,1.1,0.2,2.1,0.8,3
					C-560.2-902.5-559.4-902.1-558.5-902.1z"/>
				<path id="Trazado_143673" class="st4" d="M-549.3-914.7v2.7h2.1v1.5h-2.1v7c0,0.4,0.1,0.7,0.3,1c0.3,0.2,0.6,0.4,1,0.3
					c0.3,0,0.6,0,0.9-0.1v1.5c-0.5,0.1-1,0.2-1.5,0.2c-0.7,0.1-1.4-0.2-1.9-0.8c-0.5-0.6-0.7-1.4-0.7-2.2v-7h-2v-1.5h2v-2.7
					L-549.3-914.7z"/>
				<path id="Trazado_143674" class="st4" d="M-538-901.9c-0.8,0.9-2.1,1.4-3.3,1.3c-1,0.1-2-0.3-2.7-1c-0.7-0.9-1-2-0.9-3.1v-7.3
					h1.9v7.2c0,1.7,0.7,2.5,2.1,2.5c1.2,0.1,2.4-0.5,2.9-1.6v-8.1h1.8v11.2h-1.8V-901.9z"/>
				<path id="Trazado_143675" class="st4" d="M-526.3-900.8c-0.2-0.4-0.2-0.8-0.3-1.2c-0.8,0.9-2,1.4-3.2,1.4c-1,0-2-0.3-2.7-0.9
					c-0.7-0.6-1.1-1.5-1.1-2.4c0-1.1,0.5-2.1,1.3-2.7c1.1-0.7,2.4-1,3.8-1h1.9v-0.9c0-0.6-0.2-1.2-0.6-1.6c-0.5-0.4-1.2-0.6-1.8-0.6
					c-0.6,0-1.2,0.2-1.7,0.5c-0.4,0.3-0.7,0.7-0.7,1.3h-1.9c0-0.6,0.2-1.2,0.6-1.6c0.4-0.5,1-1,1.6-1.2c0.7-0.3,1.5-0.5,2.2-0.5
					c1.1-0.1,2.2,0.3,3,1c0.8,0.7,1.2,1.7,1.1,2.7v5.2c0,0.8,0.1,1.7,0.4,2.5v0.2L-526.3-900.8z M-529.5-902.2
					c0.6,0,1.2-0.2,1.7-0.5c0.5-0.3,0.9-0.7,1.2-1.2v-2.3h-1.5c-2.4,0-3.5,0.7-3.5,2.1c0,0.5,0.2,1.1,0.6,1.4
					C-530.6-902.4-530.1-902.2-529.5-902.2L-529.5-902.2z"/>
				<path id="Trazado_143676" class="st4" d="M-516.3-910.3c-0.3,0-0.6-0.1-0.9-0.1c-1.1-0.1-2.2,0.6-2.6,1.6v8h-2V-912h1.9v1.3
					c0.6-1,1.6-1.5,2.7-1.5c0.3,0,0.6,0,0.9,0.1L-516.3-910.3z"/>
			</g>
			<g id="Grupo_120656" transform="translate(178.626 147.922)">
				<path id="Trazado_143677" class="st1" d="M-576-906.7v5.9h-2v-15.1h5.6c1.4-0.1,2.8,0.4,3.9,1.3c0.9,0.9,1.5,2.1,1.4,3.4
					c0.1,1.3-0.4,2.5-1.4,3.4c-1.1,0.9-2.5,1.3-3.9,1.2L-576-906.7z M-576-908.3h3.6c0.9,0.1,1.7-0.2,2.4-0.8
					c0.6-0.6,0.9-1.4,0.9-2.2c0-0.8-0.3-1.6-0.9-2.2c-0.6-0.6-1.5-0.9-2.3-0.8h-3.7L-576-908.3z"/>
				<path id="Trazado_143678" class="st1" d="M-560.4-900.6c-1.4,0.1-2.7-0.5-3.7-1.5c-1-1.1-1.5-2.5-1.4-4v-0.4c0-1,0.2-2.1,0.6-3
					c0.4-0.8,1-1.5,1.8-2.1c0.7-0.5,1.6-0.7,2.5-0.7c1.3-0.1,2.6,0.5,3.4,1.4c0.9,1.2,1.3,2.6,1.2,4.1v0.8h-7.6c0,1,0.3,2,1,2.7
					c0.6,0.7,1.5,1,2.4,1c0.6,0,1.2-0.1,1.7-0.4c0.5-0.3,0.9-0.7,1.2-1.1l1.2,0.9C-557.1-901.3-558.7-900.5-560.4-900.6z
					 M-560.6-910.6c-0.7,0-1.5,0.3-2,0.8c-0.6,0.7-0.9,1.5-1,2.4h5.6v-0.1c0-0.8-0.3-1.6-0.8-2.3
					C-559.2-910.4-559.9-910.7-560.6-910.6L-560.6-910.6z"/>
				<path id="Trazado_143679" class="st1" d="M-548.4-910.3c-0.3-0.1-0.6-0.1-0.9-0.1c-1.1-0.1-2.2,0.6-2.6,1.6v8h-1.9V-912h1.9v1.3
					c0.6-1,1.6-1.5,2.7-1.5c0.3,0,0.6,0,0.8,0.1L-548.4-910.3z"/>
				<path id="Trazado_143680" class="st1" d="M-540.1-903.8c0-0.5-0.2-0.9-0.6-1.2c-0.6-0.4-1.3-0.6-2-0.7c-0.8-0.1-1.6-0.4-2.3-0.7
					c-0.5-0.2-0.9-0.6-1.2-1c-0.3-0.4-0.4-0.9-0.4-1.4c0-0.9,0.4-1.8,1.2-2.3c0.8-0.7,1.9-1,3-1c1.1,0,2.2,0.3,3.1,1
					c0.8,0.6,1.2,1.5,1.2,2.5h-1.9c0-0.5-0.3-1-0.7-1.4c-0.5-0.4-1.1-0.6-1.7-0.6c-0.6,0-1.2,0.1-1.6,0.5c-0.4,0.3-0.6,0.7-0.6,1.2
					c0,0.4,0.2,0.8,0.6,1c0.6,0.3,1.3,0.6,2,0.7c0.8,0.2,1.6,0.4,2.3,0.8c0.5,0.2,1,0.6,1.3,1.1c0.3,0.5,0.5,1,0.4,1.5
					c0,1-0.4,1.9-1.2,2.4c-0.9,0.6-2,0.9-3.1,0.9c-0.8,0-1.6-0.1-2.4-0.5c-0.7-0.3-1.2-0.7-1.6-1.3c-0.4-0.5-0.6-1.2-0.6-1.9h1.9
					c0,0.6,0.3,1.2,0.8,1.5c0.6,0.4,1.2,0.6,1.9,0.6c0.6,0,1.2-0.1,1.7-0.4C-540.3-902.8-540.1-903.3-540.1-903.8z"/>
				<path id="Trazado_143681" class="st1" d="M-536.2-906.5c0-1,0.2-2,0.7-3c0.4-0.8,1-1.5,1.8-2c0.8-0.5,1.7-0.7,2.6-0.7
					c1.4,0,2.8,0.5,3.7,1.6c1,1.2,1.5,2.7,1.4,4.2v0.1c0,1-0.2,2-0.6,2.9c-0.4,0.8-1,1.5-1.8,2c-0.8,0.5-1.8,0.7-2.7,0.7
					c-1.4,0-2.8-0.5-3.7-1.6c-1-1.2-1.5-2.7-1.4-4.2L-536.2-906.5z M-534.2-906.3c0,1.1,0.3,2.1,0.9,3c1,1.3,2.8,1.5,4.1,0.5
					c0.2-0.2,0.4-0.3,0.5-0.5c0.6-0.9,0.9-2.1,0.9-3.2c0-1.1-0.3-2.1-0.9-3c-0.5-0.7-1.4-1.2-2.3-1.1c-0.9,0-1.8,0.4-2.3,1.1
					C-534-908.5-534.3-907.4-534.2-906.3L-534.2-906.3z"/>
				<path id="Trazado_143682" class="st1" d="M-521.7-912l0.1,1.4c0.8-1,2-1.6,3.4-1.6c2.4,0,3.6,1.3,3.6,4v7.4h-1.9v-7.4
					c0.1-0.7-0.1-1.3-0.6-1.8c-0.5-0.4-1.1-0.6-1.7-0.6c-0.6,0-1.2,0.2-1.6,0.5c-0.5,0.3-0.8,0.8-1.1,1.3v8h-1.9V-912H-521.7z"/>
				<path id="Trazado_143683" class="st1" d="M-504.9-900.8c-0.1-0.4-0.2-0.8-0.3-1.2c-0.8,0.9-2,1.4-3.2,1.4c-1,0-2-0.3-2.7-0.9
					c-0.7-0.6-1.1-1.5-1.1-2.4c0-1.1,0.5-2.1,1.3-2.7c1.1-0.7,2.4-1,3.8-1h1.9v-0.9c0-0.6-0.2-1.2-0.6-1.6c-0.5-0.4-1.1-0.7-1.8-0.6
					c-0.6,0-1.2,0.2-1.7,0.5c-0.4,0.3-0.7,0.7-0.7,1.3h-1.9c0-0.6,0.2-1.2,0.6-1.6c0.4-0.5,1-1,1.6-1.2c0.7-0.3,1.5-0.5,2.2-0.5
					c1.1-0.1,2.2,0.3,3,1c0.8,0.7,1.2,1.7,1.1,2.7v5.2c0,0.8,0.1,1.7,0.4,2.5v0.2L-504.9-900.8z M-508.1-902.2
					c0.6,0,1.2-0.2,1.7-0.5c0.5-0.3,0.9-0.7,1.2-1.2v-2.3h-1.5c-2.3,0-3.5,0.7-3.5,2.1c0,0.5,0.2,1.1,0.6,1.4
					C-509.2-902.4-508.7-902.2-508.1-902.2L-508.1-902.2z"/>
			</g>
			<g id="Grupo_120657" transform="translate(54.718 417.077)">
				<path id="Trazado_143684" class="st1" d="M-576-906.7v5.9h-2v-15.1h5.6c1.4-0.1,2.8,0.4,3.9,1.3c1.8,1.9,1.8,4.9,0,6.7
					c-1.1,0.9-2.5,1.3-3.9,1.2L-576-906.7z M-576-908.3h3.6c0.9,0.1,1.7-0.2,2.4-0.8c0.6-0.6,0.9-1.4,0.9-2.2c0-0.8-0.3-1.6-0.9-2.2
					c-0.6-0.6-1.5-0.9-2.3-0.8h-3.7L-576-908.3z"/>
				<path id="Trazado_143685" class="st1" d="M-559.5-910.3c-0.3,0-0.6-0.1-0.9-0.1c-1.1-0.1-2.2,0.6-2.6,1.6v8h-1.9V-912h1.9v1.3
					c0.6-1,1.6-1.5,2.7-1.5c0.3,0,0.6,0,0.9,0.1L-559.5-910.3z"/>
				<path id="Trazado_143686" class="st1" d="M-558.5-906.5c0-1,0.2-2,0.6-3c1.3-2.5,4.3-3.4,6.8-2.1c0.5,0.3,0.9,0.6,1.3,1
					c1,1.2,1.5,2.7,1.4,4.2v0.1c0,1-0.2,2-0.6,2.9c-0.4,0.8-1,1.5-1.8,2c-0.8,0.5-1.8,0.8-2.7,0.7c-1.4,0-2.8-0.5-3.7-1.6
					c-1-1.2-1.5-2.7-1.4-4.2L-558.5-906.5z M-556.5-906.3c0,1.1,0.3,2.1,0.9,3c1,1.3,2.8,1.5,4.1,0.5c0.2-0.2,0.4-0.3,0.5-0.5
					c0.6-0.9,0.9-2.1,0.9-3.2c0-1.1-0.3-2.1-0.9-3c-0.5-0.7-1.4-1.2-2.3-1.1c-0.9,0-1.8,0.4-2.3,1.1
					C-556.3-908.5-556.6-907.4-556.5-906.3L-556.5-906.3z"/>
				<path id="Trazado_143687" class="st1" d="M-542.3-903.6l2.6-8.4h2.1l-4.5,12.9c-0.7,1.9-1.8,2.8-3.3,2.8h-0.4l-0.7-0.1v-1.6h0.5
					c0.5,0,1.1-0.1,1.5-0.4c0.4-0.4,0.8-0.9,0.9-1.4l0.4-1.1l-4-11.1h2.1L-542.3-903.6z"/>
				<path id="Trazado_143688" class="st1" d="M-531.4-900.6c-1.4,0-2.7-0.5-3.7-1.5c-1-1.1-1.5-2.5-1.4-4v-0.3c0-1,0.2-2,0.6-3
					c0.4-0.8,1-1.5,1.8-2.1c0.7-0.5,1.6-0.7,2.5-0.7c1.3-0.1,2.6,0.5,3.4,1.4c0.9,1.2,1.3,2.7,1.2,4.1v0.8h-7.6c0,1,0.3,2,1,2.7
					c0.6,0.7,1.5,1,2.4,1c0.6,0,1.2-0.1,1.7-0.4c0.5-0.3,0.9-0.7,1.2-1.1l1.2,0.9C-528.1-901.3-529.7-900.5-531.4-900.6z
					 M-531.7-910.6c-0.7,0-1.5,0.3-1.9,0.9c-0.6,0.7-0.9,1.5-1,2.4h5.6v-0.1c0-0.8-0.3-1.6-0.8-2.3
					C-530.2-910.4-530.9-910.7-531.7-910.6L-531.7-910.6z"/>
				<path id="Trazado_143689" class="st1" d="M-520.3-902.1c0.7,0,1.3-0.2,1.8-0.6c0.5-0.4,0.8-0.9,0.8-1.6h1.8
					c0,0.7-0.3,1.3-0.7,1.8c-0.4,0.6-1,1.1-1.6,1.4c-1.9,1-4.3,0.6-5.8-1c-1-1.2-1.4-2.7-1.4-4.2v-0.3c0-1,0.2-2,0.6-2.9
					c0.4-0.8,1-1.5,1.7-2c0.8-0.5,1.7-0.7,2.7-0.7c1.2,0,2.3,0.4,3.1,1.1c0.8,0.8,1.3,1.8,1.3,2.9h-1.8c0-0.7-0.3-1.3-0.8-1.8
					c-0.5-0.5-1.1-0.7-1.8-0.7c-0.9,0-1.7,0.4-2.3,1.1c-0.6,0.9-0.9,2-0.8,3v0.4c-0.1,1.1,0.2,2.1,0.8,3
					C-522-902.5-521.2-902.1-520.3-902.1z"/>
				<path id="Trazado_143690" class="st1" d="M-511.1-914.7v2.7h2.1v1.5h-2.1v7c0,0.4,0.1,0.7,0.3,1c0.3,0.3,0.6,0.4,1,0.3
					c0.3,0,0.6-0.1,0.9-0.1v1.5c-0.5,0.1-1,0.2-1.5,0.2c-0.7,0-1.4-0.2-1.9-0.8c-0.5-0.6-0.7-1.4-0.7-2.2v-7h-2v-1.5h2v-2.7
					L-511.1-914.7z"/>
				<path id="Trazado_143691" class="st1" d="M-507.5-906.5c0-1,0.2-2,0.7-3c1.3-2.5,4.3-3.4,6.8-2.1c0.5,0.3,0.9,0.6,1.3,1
					c1,1.2,1.5,2.7,1.4,4.2v0.1c0,1-0.2,2-0.6,2.9c-0.4,0.8-1,1.5-1.8,2c-0.8,0.5-1.8,0.8-2.7,0.7c-1.4,0-2.8-0.5-3.7-1.6
					c-1-1.2-1.5-2.7-1.4-4.2L-507.5-906.5z M-505.5-906.3c-0.1,1.1,0.3,2.1,0.9,3c1,1.3,2.8,1.5,4.1,0.5c0.2-0.2,0.4-0.3,0.5-0.5
					c0.6-0.9,0.9-2.1,0.9-3.2c0-1.1-0.3-2.1-0.9-3c-0.5-0.7-1.4-1.2-2.3-1.1c-0.9,0-1.8,0.4-2.3,1.1
					C-505.3-908.5-505.6-907.4-505.5-906.3L-505.5-906.3z"/>
			</g>
			<g id="Grupo_120658" transform="translate(301.53 416.255)">
				<path id="Trazado_143692" class="st1" d="M-572.6-906.7c-1.4-0.3-2.6-0.9-3.7-1.8c-0.8-0.7-1.2-1.6-1.2-2.6
					c0-1.2,0.5-2.2,1.4-2.9c1.1-0.8,2.4-1.2,3.7-1.2c1,0,1.9,0.2,2.8,0.6c0.8,0.4,1.4,0.9,1.9,1.7c0.4,0.7,0.7,1.5,0.7,2.3h-2
					c0-0.8-0.3-1.6-0.9-2.2c-0.7-0.6-1.6-0.8-2.5-0.8c-0.8-0.1-1.6,0.2-2.3,0.7c-0.6,0.4-0.9,1.1-0.8,1.8c0,0.6,0.3,1.2,0.8,1.6
					c0.8,0.6,1.7,1,2.7,1.2c1,0.3,2,0.7,2.9,1.2c0.6,0.4,1.2,0.9,1.6,1.5c0.4,0.6,0.5,1.3,0.5,2c0,1.2-0.5,2.3-1.4,2.9
					c-1.1,0.8-2.5,1.2-3.8,1.1c-1,0-2-0.2-2.9-0.6c-0.8-0.3-1.6-0.9-2.1-1.6c-0.5-0.7-0.7-1.5-0.7-2.4h2c0,0.8,0.3,1.6,1,2.2
					c0.8,0.6,1.7,0.8,2.7,0.8c0.9,0.1,1.7-0.2,2.4-0.6c0.6-0.4,0.9-1.1,0.8-1.8c0-0.7-0.3-1.3-0.8-1.7
					C-570.7-906-571.6-906.4-572.6-906.7z"/>
				<path id="Trazado_143693" class="st1" d="M-564.7-914.2c0-0.3,0.1-0.6,0.3-0.8c0.5-0.4,1.2-0.4,1.7,0c0.4,0.5,0.3,1.2-0.2,1.6
					c-0.4,0.3-1.1,0.3-1.5-0.1C-564.6-913.6-564.7-913.9-564.7-914.2z M-562.7-900h-1.9v-11.2h1.9V-900z"/>
				<path id="Trazado_143694" class="st1" d="M-557-913.9v2.7h2.1v1.5h-2.1v7c0,0.4,0.1,0.7,0.3,1c0.2,0.3,0.6,0.4,0.9,0.3
					c0.3,0,0.6-0.1,0.9-0.1v1.5c-0.5,0.1-1,0.2-1.5,0.2c-0.7,0-1.4-0.2-1.9-0.8c-0.5-0.6-0.7-1.4-0.7-2.2v-7h-2v-1.5h2.1v-2.7
					L-557-913.9z"/>
				<path id="Trazado_143695" class="st1" d="M-545.7-901.1c-0.8,0.9-2,1.4-3.3,1.3c-1,0.1-2-0.3-2.7-1c-0.7-0.9-1-2-0.9-3.1v-7.3
					h1.9v7.2c0,1.7,0.7,2.5,2.1,2.5c1.2,0.1,2.4-0.5,2.9-1.6v-8.1h1.9v11.2h-1.8L-545.7-901.1z"/>
				<path id="Trazado_143696" class="st1" d="M-534-900c-0.1-0.4-0.2-0.8-0.3-1.2c-0.8,0.9-2,1.4-3.2,1.4c-1,0-2-0.3-2.7-0.9
					c-0.7-0.6-1.1-1.5-1.1-2.4c0-1.1,0.5-2.1,1.3-2.7c1.1-0.7,2.4-1.1,3.7-1h1.9v-0.9c0-0.6-0.2-1.2-0.6-1.6
					c-0.5-0.4-1.1-0.7-1.8-0.6c-0.6,0-1.2,0.2-1.7,0.5c-0.4,0.3-0.7,0.7-0.7,1.3h-1.9c0-0.6,0.2-1.2,0.6-1.6c0.4-0.5,1-1,1.6-1.2
					c0.7-0.3,1.5-0.5,2.3-0.5c1.1-0.1,2.2,0.3,3,1c0.8,0.7,1.2,1.7,1.1,2.7v5.2c0,0.8,0.1,1.7,0.4,2.4v0.2L-534-900z M-537.2-901.4
					c0.6,0,1.2-0.2,1.7-0.5c0.5-0.3,0.9-0.7,1.2-1.2v-2.3h-1.5c-2.3,0-3.5,0.7-3.5,2.1c0,0.5,0.2,1.1,0.6,1.4
					C-538.3-901.6-537.8-901.4-537.2-901.4L-537.2-901.4z"/>
				<path id="Trazado_143697" class="st1" d="M-524.9-901.3c0.7,0,1.3-0.2,1.8-0.6c0.5-0.4,0.8-0.9,0.9-1.6h1.8
					c0,0.7-0.3,1.3-0.7,1.8c-0.4,0.6-1,1.1-1.6,1.4c-1.9,1-4.3,0.6-5.8-1c-1-1.2-1.4-2.7-1.4-4.2v-0.3c0-1,0.2-2,0.6-2.9
					c0.4-0.8,1-1.5,1.7-2c0.8-0.5,1.7-0.7,2.7-0.7c1.2,0,2.3,0.4,3.1,1.1c0.8,0.8,1.3,1.8,1.3,2.9h-1.8c0-0.7-0.3-1.3-0.8-1.8
					c-0.5-0.5-1.1-0.7-1.8-0.7c-0.9,0-1.7,0.4-2.3,1.1c-0.6,0.9-0.9,2-0.8,3v0.4c-0.1,1.1,0.2,2.1,0.8,3
					C-526.6-901.7-525.8-901.3-524.9-901.3z"/>
				<path id="Trazado_143698" class="st1" d="M-518.3-914.2c0-0.3,0.1-0.6,0.3-0.8c0.5-0.4,1.2-0.4,1.7,0c0.4,0.4,0.4,1.1,0,1.6
					c-0.4,0.5-1.1,0.5-1.6,0.1C-518.2-913.5-518.3-913.8-518.3-914.2L-518.3-914.2z M-516.2-900h-1.9v-11.2h1.9V-900z"/>
				<path id="Trazado_143699" class="st1" d="M-513.7-905.7c0-1,0.2-2,0.6-3c1.3-2.5,4.3-3.4,6.8-2.1c0.5,0.3,0.9,0.6,1.3,1
					c1,1.2,1.5,2.7,1.4,4.2v0.1c0,1-0.2,2-0.6,2.9c-0.4,0.8-1,1.5-1.8,2c-0.8,0.5-1.8,0.8-2.7,0.7c-1.4,0-2.8-0.5-3.7-1.6
					c-1-1.2-1.5-2.7-1.4-4.2L-513.7-905.7z M-511.7-905.5c0,1.1,0.3,2.1,0.9,3c1,1.3,2.8,1.5,4.1,0.5c0.2-0.2,0.4-0.3,0.5-0.5
					c0.6-0.9,1-2.1,0.9-3.2c0-1.1-0.3-2.1-0.9-3c-0.5-0.7-1.4-1.2-2.3-1.1c-0.9,0-1.8,0.4-2.3,1.1
					C-511.5-907.7-511.8-906.6-511.7-905.5L-511.7-905.5z M-507.7-915.9h2.3l-2.8,3.1h-1.5L-507.7-915.9z"/>
				<path id="Trazado_143700" class="st1" d="M-499.2-911.2l0.1,1.4c0.8-1,2-1.6,3.4-1.6c2.4,0,3.6,1.3,3.6,4v7.4h-1.9v-7.4
					c0-0.7-0.1-1.3-0.6-1.8c-0.5-0.4-1.1-0.6-1.7-0.6c-0.6,0-1.2,0.2-1.6,0.5c-0.5,0.3-0.9,0.8-1.1,1.3v8h-1.9v-11.2H-499.2z"/>
			</g>
			<g id="Grupo_120659" transform="translate(36.036 197.037)">
				<path id="Trazado_143701" class="st4" d="M-569.1-859.9l5.1,3l-1,1.7l-13-7.7l2.8-4.8c0.6-1.3,1.7-2.2,3-2.7
					c1.2-0.4,2.5-0.2,3.6,0.5c1.1,0.6,2,1.6,2.2,2.9c0.2,1.4-0.2,2.8-1,4L-569.1-859.9z M-570.5-860.7l1.8-3.1
					c0.5-0.7,0.7-1.6,0.6-2.5c-0.2-0.8-0.7-1.5-1.4-1.8c-0.7-0.4-1.5-0.6-2.3-0.4c-0.8,0.3-1.5,0.8-1.9,1.6l-1.9,3.2L-570.5-860.7z"
					/>
				<path id="Trazado_143702" class="st4" d="M-555.9-870.2c-0.7,1.2-1.8,2.1-3.2,2.4c-1.4,0.3-2.9,0-4.2-0.8l-0.3-0.2
					c-0.9-0.5-1.7-1.2-2.3-2.1c-0.5-0.8-0.8-1.7-0.9-2.6c-0.1-0.9,0.2-1.8,0.6-2.5c0.6-1.2,1.7-2,3-2.2c1.5-0.1,2.9,0.2,4.2,1
					l0.7,0.4l-3.8,6.5c0.8,0.5,1.8,0.7,2.8,0.5c0.9-0.2,1.6-0.7,2.1-1.5c0.3-0.5,0.5-1.1,0.5-1.7c0-0.6-0.1-1.1-0.3-1.6l1.4-0.6
					C-554.9-873.5-554.9-871.7-555.9-870.2z M-564.7-875.1c-0.4,0.6-0.5,1.4-0.3,2.1c0.3,0.8,0.8,1.5,1.5,2l2.8-4.8l-0.1-0.1
					c-0.7-0.4-1.5-0.6-2.3-0.5C-563.7-876.2-564.3-875.8-564.7-875.1L-564.7-875.1z"/>
				<path id="Trazado_143703" class="st4" d="M-561.5-883.3l1.2,0.7c-0.5-1.2-0.4-2.6,0.3-3.7c1.2-2,3-2.4,5.3-1.1l6.4,3.8l-1,1.7
					l-6.4-3.8c-0.5-0.4-1.2-0.5-1.8-0.4c-0.6,0.2-1.1,0.6-1.4,1.2c-0.3,0.5-0.5,1.1-0.4,1.7c0.1,0.6,0.3,1.1,0.6,1.6l6.9,4l-1,1.7
					l-9.7-5.7L-561.5-883.3z"/>
				<path id="Trazado_143704" class="st4" d="M-546-893.2c-0.4-0.3-0.9-0.3-1.4-0.1c-0.6,0.4-1.2,0.8-1.7,1.4
					c-0.5,0.6-1.1,1.2-1.8,1.6c-0.5,0.3-1,0.5-1.5,0.6c-0.5,0-1-0.1-1.4-0.4c-0.8-0.5-1.3-1.3-1.4-2.2c-0.1-1.1,0.1-2.2,0.7-3.1
					c0.5-1,1.4-1.8,2.4-2.2c0.9-0.4,1.9-0.3,2.8,0.3l-1,1.7c-0.5-0.3-1-0.3-1.5-0.1c-0.6,0.2-1.1,0.6-1.3,1.2
					c-0.3,0.5-0.5,1.1-0.4,1.6c0,0.5,0.3,0.9,0.7,1.1c0.4,0.2,0.8,0.3,1.2,0.1c0.6-0.4,1.2-0.8,1.6-1.4c0.5-0.6,1.1-1.2,1.8-1.6
					c0.5-0.3,1-0.5,1.6-0.6c0.5,0,1.1,0.1,1.5,0.4c0.8,0.5,1.4,1.3,1.5,2.3c0.1,1.1-0.2,2.2-0.8,3.1c-0.4,0.7-1,1.3-1.6,1.8
					c-0.6,0.4-1.3,0.7-2,0.7c-0.7,0.1-1.3-0.1-1.9-0.4l1-1.7c0.5,0.3,1.2,0.3,1.7,0.1c0.6-0.3,1.1-0.8,1.4-1.4
					c0.3-0.5,0.5-1.1,0.5-1.7C-545.4-892.6-545.6-893-546-893.2z"/>
				<path id="Trazado_143705" class="st4" d="M-537.7-901.5c-0.4-0.1-0.8-0.2-1.1-0.4c0.4,1.2,0.2,2.4-0.4,3.5
					c-0.5,0.9-1.3,1.5-2.2,1.9c-0.9,0.3-1.8,0.2-2.6-0.3c-0.9-0.5-1.6-1.5-1.7-2.5c0-1.3,0.3-2.6,1.1-3.7l0.9-1.6l-0.8-0.4
					c-0.5-0.3-1.1-0.4-1.7-0.3c-0.6,0.2-1.1,0.6-1.4,1.2c-0.3,0.5-0.5,1.1-0.4,1.7c0,0.5,0.3,1,0.7,1.2l-1,1.6
					c-0.5-0.3-0.9-0.8-1.1-1.3c-0.2-0.6-0.3-1.3-0.2-2c0.1-0.8,0.3-1.5,0.7-2.2c0.5-1,1.4-1.7,2.4-2.1c1-0.3,2-0.2,2.9,0.4l4.4,2.6
					c0.7,0.4,1.5,0.8,2.3,0.9l0.1,0.1L-537.7-901.5z M-540.6-899.5c0.3-0.5,0.5-1.1,0.5-1.7c0-0.6-0.1-1.1-0.5-1.6l-2-1.2l-0.8,1.3
					c-1.2,2-1.2,3.4,0,4.1c0.4,0.3,1,0.4,1.5,0.2C-541.3-898.6-540.8-899-540.6-899.5L-540.6-899.5z"/>
				<path id="Trazado_143706" class="st4" d="M-540.8-915c-0.2,0.2-0.4,0.5-0.5,0.8c-0.6,0.9-0.6,2.1,0.1,3l6.9,4l-1,1.7l-9.7-5.7
					l0.9-1.6l1.1,0.6c-0.5-1-0.5-2.1,0.1-3.1c0.1-0.3,0.3-0.5,0.6-0.7L-540.8-915z"/>
			</g>
			<g id="Grupo_120660" transform="translate(356.081 220.161)">
				<path id="Trazado_143707" class="st4" d="M-571.2-908.8c-0.4-1.3-0.6-2.7-0.4-4.1c0.2-1,0.8-1.9,1.6-2.4c1-0.6,2.2-0.7,3.3-0.3
					c1.2,0.5,2.3,1.4,2.9,2.5c0.5,0.8,0.8,1.7,0.9,2.7c0.1,0.8-0.1,1.7-0.4,2.5c-0.4,0.7-0.9,1.4-1.6,1.8l-1-1.7
					c0.7-0.4,1.2-1.1,1.4-1.9c0.1-0.9-0.1-1.8-0.6-2.5c-0.4-0.7-1-1.3-1.8-1.6c-0.7-0.2-1.4-0.2-2,0.2c-0.5,0.3-0.8,0.9-0.9,1.5
					c-0.1,1,0.1,2,0.4,2.9c0.3,1,0.5,2.1,0.6,3.1c0,0.7-0.1,1.5-0.4,2.1c-0.3,0.6-0.8,1.1-1.4,1.5c-1,0.6-2.2,0.8-3.3,0.3
					c-1.3-0.5-2.3-1.5-2.9-2.7c-0.5-0.8-0.9-1.8-1-2.8c-0.1-0.9,0-1.8,0.3-2.6c0.3-0.8,0.9-1.4,1.6-1.9l1,1.7
					c-0.7,0.4-1.2,1.2-1.3,2c-0.1,1,0.2,1.9,0.7,2.7c0.4,0.8,1,1.4,1.8,1.7c0.6,0.3,1.4,0.2,1.9-0.2c0.6-0.3,1-0.9,1.1-1.6
					C-570.7-906.8-570.9-907.8-571.2-908.8z"/>
				<path id="Trazado_143708" class="st4" d="M-570.5-894.5c-0.8-1.2-1-2.6-0.7-4c0.4-1.4,1.4-2.6,2.7-3.3l0.3-0.2
					c0.9-0.6,1.9-0.9,2.9-1c0.9-0.1,1.9,0,2.7,0.4c0.8,0.4,1.5,1,1.9,1.7c0.7,1.1,0.9,2.4,0.6,3.6c-0.6,1.4-1.6,2.5-2.9,3.2
					l-0.7,0.4l-4-6.5c-0.9,0.5-1.5,1.3-1.8,2.2c-0.3,0.9-0.1,1.8,0.4,2.5c0.3,0.5,0.7,1,1.3,1.2c0.5,0.3,1,0.4,1.6,0.5l-0.1,1.5
					C-568.2-892.1-569.7-893-570.5-894.5z M-562.1-900c-0.4-0.6-1-1.1-1.7-1.2c-0.9-0.1-1.8,0-2.5,0.4l2.9,4.8l0.1-0.1
					c0.7-0.4,1.2-1.1,1.5-1.9C-561.6-898.7-561.7-899.4-562.1-900z"/>
				<path id="Trazado_143709" class="st4" d="M-556.4-893.4l-1.2,0.8c1.3,0.1,2.5,0.9,3.1,2c1.2,2,0.7,3.7-1.5,5.2l-6.3,3.9l-1-1.6
					l6.3-3.9c0.6-0.3,1-0.8,1.2-1.4c0.1-0.6,0-1.3-0.4-1.8c-0.3-0.5-0.7-0.9-1.3-1.1c-0.5-0.2-1.1-0.3-1.7-0.3l-6.8,4.2l-1-1.6
					l9.6-5.9L-556.4-893.4z"/>
				<path id="Trazado_143710" class="st4" d="M-547.5-884.1l-2.3,1.4l1.1,1.8l-1.3,0.8l-1.1-1.8l-5.9,3.6c-0.3,0.2-0.6,0.4-0.7,0.8
					c-0.1,0.3,0,0.7,0.2,1c0.2,0.3,0.4,0.5,0.6,0.7l-1.3,0.8c-0.3-0.3-0.7-0.7-0.9-1.1c-0.4-0.6-0.6-1.4-0.4-2.1
					c0.3-0.7,0.8-1.3,1.5-1.7l5.9-3.6l-1.1-1.7l1.3-0.8l1.1,1.7l2.3-1.4L-547.5-884.1z"/>
				<path id="Trazado_143711" class="st4" d="M-556.1-871.4l-1-1.6l9.6-5.9l1,1.6L-556.1-871.4z M-545.1-880.6
					c0.2-0.2,0.5-0.2,0.8-0.2c0.3,0.1,0.6,0.3,0.7,0.6c0.2,0.3,0.2,0.6,0.2,0.9c-0.1,0.3-0.3,0.5-0.5,0.7c-0.2,0.2-0.5,0.2-0.8,0.2
					c-0.3-0.1-0.6-0.3-0.7-0.6c-0.3-0.5-0.2-1.1,0.2-1.4c0,0,0,0,0,0C-545.1-880.5-545.1-880.5-545.1-880.6L-545.1-880.6z"/>
				<path id="Trazado_143712" class="st4" d="M-543.5-869.1c-0.1-0.3-0.3-0.6-0.4-0.8c-0.5-1-1.6-1.5-2.7-1.3l-6.8,4.2l-1-1.6
					l9.6-5.9l1,1.6l-1.1,0.7c1.1-0.1,2.2,0.5,2.7,1.5c0.2,0.2,0.3,0.5,0.3,0.8L-543.5-869.1z"/>
			</g>
			<path id="Trazado_143713" class="st4" d="M-362-622.9h-6.6l-2.6,14.7h-8.1l7-40.2h13.3c4.5,0,7.9,1.1,10.3,3.2
				c2.4,2.1,3.5,5,3.2,8.8c-0.4,5.5-3.3,9.4-8.8,11.5l5.7,16.4v0.4h-8.6L-362-622.9z M-367.4-629.7l6,0.1c1.9,0,3.8-0.6,5.3-1.7
				c1.4-1.1,2.3-2.7,2.5-4.5c0.3-1.5,0-3-0.9-4.2c-1-1.1-2.5-1.7-4-1.6h-6.9L-367.4-629.7z"/>
			<path id="Trazado_143714" class="st1" d="M-355.8-827.1c0-3.5-2.8-6.3-6.3-6.3s-6.3,2.8-6.3,6.3c0,3.5,2.8,6.3,6.3,6.3l0,0
				C-358.7-820.8-355.8-823.6-355.8-827.1z M-362.2-822.9c-2.3,0-4.2-1.9-4.2-4.2c0-2.3,1.9-4.2,4.2-4.2c2.3,0,4.2,1.9,4.2,4.2l0,0
				C-358-824.8-359.8-822.9-362.2-822.9L-362.2-822.9z"/>
			<path id="Trazado_143715" class="st1" d="M-352.7-807.2v-4.2c0-5.2-4.2-9.5-9.4-9.5c-5.2,0-9.5,4.2-9.5,9.4c0,0,0,0,0,0v4.2
				c0,0.6,0.5,1,1,1l0,0h16.8C-353.1-806.1-352.7-806.6-352.7-807.2C-352.7-807.2-352.7-807.2-352.7-807.2z M-354.8-808.2h-14.7
				v-3.2c0-4.1,3.3-7.4,7.4-7.4c4.1,0,7.4,3.3,7.4,7.4L-354.8-808.2z"/>
			<path id="Trazado_143716" class="st1" d="M-381.5-792.2l5.1,2.5v5.6c0,0.6,0.5,1.1,1,1.1c0,0,0,0,0,0h11.1c0.6,0,1.1-0.5,1.1-1
				c0,0,0,0,0,0v-13.4c0-3.3-2.4-6.1-5.6-6.6c-0.1,0-4.1-0.3-6-2.2l-2.9-2.9c-0.8-0.8-1.9-1.2-3-1.2v-8.4c0-2.3-1.9-4.2-4.2-4.2
				c-2.3,0-4.2,1.9-4.2,4.2v14.3C-389-799.3-386.1-794.5-381.5-792.2z M-386.9-818.7c-0.1-1.2,0.7-2.2,1.9-2.3
				c1.2-0.1,2.2,0.7,2.3,1.9c0,0.1,0,0.1,0,0.2c0,0.1,0,0.2,0,0.3v9c-2,1.1-2.7,3.7-1.6,5.7c0.2,0.3,0.4,0.6,0.7,0.9l5.4,5.4
				c0.4,0.4,1.1,0.4,1.5,0c0.4-0.4,0.4-1.1,0-1.5l-5.4-5.4c-0.8-0.8-0.8-2.2,0-3c0.2-0.2,0.5-0.4,0.8-0.5l0,0
				c0.8-0.3,1.6-0.1,2.2,0.5l2.9,2.9c2,2,4.8,2.5,7.2,2.8l0,0c2.2,0.3,3.8,2.2,3.7,4.5v12.3h-9v-5.2c0-0.4-0.2-0.7-0.6-0.9l-5.6-2.8
				c-3.9-1.9-6.4-6-6.4-10.3L-386.9-818.7z"/>
			<path id="Trazado_143717" class="st1" d="M-340.8-795.8c0.6,0,1.1,0.5,1.1,1s-0.5,1.1-1,1.1c-0.6,0-1.1-0.5-1.1-1c0,0,0,0,0,0v0
				C-341.9-795.3-341.4-795.8-340.8-795.8z"/>
			<path id="Trazado_143718" class="st1" d="M-339.4-822.9c-2.3,0-4.2,1.9-4.2,4.2v8.4c-1.1,0-2.2,0.4-3,1.2l-2.9,2.9
				c-1.7,1.7-4.4,2-6,2.2c-3.3,0.5-5.7,3.3-5.6,6.6v13.4c0,0.6,0.5,1,1,1l0,0h11.1c0.6,0,1.1-0.5,1.1-1v-5.7l3.4-1.7
				c0.5-0.2,0.8-0.8,0.6-1.3c-0.2-0.5-0.8-0.8-1.3-0.7c-0.1,0-0.2,0.1-0.3,0.1l-4,2c-0.3,0.2-0.6,0.5-0.6,0.9v5.3h-9v-12.3
				c-0.1-2.2,1.5-4.1,3.7-4.5l0,0c2.4-0.3,5.3-0.9,7.2-2.8l2.9-2.9c0.6-0.6,1.4-0.8,2.2-0.5l0,0c1.1,0.4,1.7,1.6,1.3,2.7
				c-0.1,0.3-0.3,0.6-0.5,0.8l-5.4,5.4c-0.4,0.4-0.4,1.1,0,1.5c0.4,0.4,1.1,0.4,1.5,0l5.4-5.4c1.6-1.6,1.6-4.3,0-5.9
				c-0.3-0.3-0.6-0.5-0.9-0.7v-9c-0.1-1.2,0.7-2.2,1.9-2.3c1.2-0.1,2.2,0.7,2.3,1.9c0,0.1,0,0.1,0,0.2c0,0.1,0,0.2,0,0.3v14.3
				c0,1.9-0.5,3.8-1.4,5.5c-0.4,0.5-0.3,1.1,0.2,1.5c0.5,0.4,1.1,0.3,1.5-0.2c0.1-0.1,0.1-0.2,0.2-0.3c1.1-2,1.7-4.2,1.7-6.5v-14.3
				C-335.3-821-337.1-822.9-339.4-822.9z"/>
			<path id="Trazado_143719" class="st1" d="M-506.8-531c0.3,0.2,0.6,0.4,1,0.6c0.4,0.2,1.1,0.5,1.1,0.8c0.1,0.3,0,0.6-0.1,0.9
				c-0.1,0.3-0.3,0.5-0.4,0.8c-0.3,0.6-0.9,1.6-0.1,2.3c0.3,0.3,0.6,0.5,0.9,0.7c-0.2,0.4-0.3,0.9-0.3,1.3c0,0.4,0.2,0.7,0.5,0.9
				c0.2,0.1,0.4,0.3,0.6,0.4c0.5,0.3,0.8,0.5,0.8,0.8c0,0.4,0,0.7-0.1,1.1c-0.1,0.2-0.1,0.5-0.1,0.7c-0.1,0.8,0,1.7,0.3,2.5
				c0.5,1.8,2.2,2.8,4,2.4c2.6-0.6,5.2-1.4,7.8-2.3c2.1,1.2,3.4,4.9,3.7,6.3c0.1,0.4,0.5,0.7,0.9,0.7l23.1-0.1
				c0.3,0,0.6-0.1,0.8-0.4c0.2-0.2,0.2-0.5,0.1-0.8c-0.2-0.6-0.5-1.2-0.9-1.8c-0.2-0.3-0.4-0.7-0.6-1c-0.4-0.8-0.8-1.7-1-2.6
				c-0.5-1.8-0.9-3.6-1.1-5.4c0-0.3-0.2-0.6-0.5-0.8c-0.3-0.1-0.6-0.1-0.9,0.1c-0.3,0.2-0.4,0.6-0.3,0.9c0.2,1.9,0.6,3.8,1.1,5.7
				c0.3,1,0.7,2,1.1,2.9c0.2,0.4,0.4,0.8,0.7,1.2l0.1,0.1l-20.9,0.1c-0.6-2.2-1.7-4.2-3.2-5.9l0.8-0.3l1.3-0.5
				c3.9-1.2,5.9-3,5.9-5.4c0-0.2-0.1-0.5-0.3-0.7c-0.2-0.2-0.4-0.3-0.7-0.2c-0.5,0-0.9,0.4-0.9,0.9c0,0.9-0.8,2.3-4.6,3.5l-1.4,0.5
				l-2.5,0.9l0,0c-2.6,0.9-5.2,1.7-7.9,2.4c-0.9,0.2-1.7-0.4-1.9-1.2c-0.2-0.5-0.3-1.1-0.2-1.6c0-0.2,0.1-0.4,0.1-0.6
				c0.2-0.6,0.2-1.3,0.1-2c-0.3-0.8-0.9-1.5-1.7-1.9l-0.2-0.1c0.1-0.2,0.2-0.4,0.4-0.6c0.3-0.4,0.3-0.9-0.1-1.3c0,0,0,0,0,0
				c0,0,0,0-0.1,0c-0.2-0.2-0.8-0.6-1.1-0.9l0.1-0.2c0.1-0.3,0.3-0.6,0.5-0.9c0.3-0.6,0.4-1.4,0.2-2.1c-0.2-1.1-1.3-1.7-2.1-2.1
				c-0.3-0.1-0.5-0.3-0.8-0.4c-0.2-0.1-0.4-0.3-0.6-0.5c0-0.1,0.2-0.5,0.9-1.3c1.7-2.1,3.1-4.4,4.2-6.9c0.2-0.4,0.3-0.8,0.4-1.2
				c-0.1-0.9-0.6-1.8-1.3-2.3c-0.4-0.3-0.7-0.7-0.8-1c0-0.2,0.1-0.4,0.1-0.6c0.2-0.4,0.3-0.8,0.5-1.2c0.4-0.8,0.7-1.6,0.9-2.4
				l0.1-0.4c0.2-0.9,0.5-1.8,0.8-2.7c0.7-2,1.9-3.9,3.3-5.4c1.8-1.9,4.5-3.2,8.3-3.9c2.8-0.6,5.7-1,8.6-1.2c1.5-0.1,2.9,0,4.3,0.2
				c0.5,0.1,1-0.3,1-0.8c0.1-0.5-0.2-0.9-0.7-1c-1.6-0.3-3.2-0.4-4.8-0.3c-3,0.2-6,0.6-8.9,1.3c-4.2,0.8-7.2,2.3-9.2,4.5
				c-1.6,1.7-2.9,3.8-3.7,6c-0.3,1-0.6,1.9-0.8,2.9l-0.1,0.4c-0.2,0.7-0.5,1.4-0.8,2.1c-0.2,0.4-0.4,0.8-0.5,1.3
				c-0.2,0.5-0.3,1-0.2,1.5c0.2,0.8,0.7,1.6,1.3,2.1c0.5,0.4,0.8,0.7,0.8,1c0,0.1-0.1,0.3-0.2,0.4c-1.1,2.3-2.5,4.5-4,6.6
				c-0.8,0.7-1.2,1.7-1.2,2.7C-507.9-532-507.5-531.4-506.8-531z"/>
			<path id="Trazado_143720" class="st1" d="M-497.9-549l0.1-0.4c0.2-0.8,0.4-1.5,0.6-2.3c0.6-1.5,1.4-3,2.5-4.1
				c1.2-1.1,2.7-1.9,4.2-2.3c0.5-0.1,0.8-0.7,0.6-1.2c-0.1-0.5-0.7-0.8-1.2-0.6l0,0c-1.9,0.5-3.6,1.5-5,2.9c-1.3,1.4-2.3,3-2.9,4.8
				c-0.3,0.8-0.5,1.6-0.7,2.4l-0.1,0.4c-0.1,0.5,0.2,1,0.6,1.1c0,0,0,0,0,0l0,0h0.2C-498.4-548.4-498-548.6-497.9-549z"/>
			<circle id="Elipse_4828" class="st1" cx="-499.9" cy="-546.1" r="0.9"/>
			<path id="Trazado_143721" class="st1" d="M-483.3-546.8c-0.1,3.1,1,6.2,3.1,8.6c0.7,0.7,1.4,1.3,2.1,1.8c1.3,1,2.6,2,3,3.4
				c-1.1,0.4-1.7,1.4-1.7,2.6v1.8c0,1.2,0.7,2.2,1.8,2.6v0.2c0,2,1.7,3.7,3.7,3.6c2,0,3.6-1.6,3.6-3.6v-0.2c1.1-0.4,1.8-1.4,1.8-2.6
				v-1.8c0-1.1-0.7-2.1-1.8-2.6c0.3-1.4,1.6-2.4,3-3.4c0.8-0.5,1.5-1.1,2.1-1.8c2.1-2.4,3.2-5.4,3.1-8.6c0-6.6-5.4-12-12-12
				S-483.4-553.4-483.3-546.8L-483.3-546.8L-483.3-546.8z M-474.1-545.2h-0.9c-0.5,0-0.9-0.4-0.9-0.9s0.4-0.9,0.9-0.9
				c0.5,0,0.9,0.4,0.9,0.9l0,0V-545.2z M-470.4-533.2h-1.8v-10.1h1.8L-470.4-533.2z M-471.3-523.9c-1,0-1.8-0.8-1.8-1.8c0,0,0,0,0,0
				h3.7C-469.4-524.8-470.3-523.9-471.3-523.9L-471.3-523.9L-471.3-523.9z M-467.6-528.6c0,0.5-0.4,0.9-0.9,0.9h-5.5
				c-0.5,0-0.9-0.4-0.9-0.9v-1.8c0-0.5,0.4-0.9,0.9-0.9h5.5c0.5,0,0.9,0.4,0.9,0.9V-528.6z M-461.2-546.8c0.1,2.7-0.9,5.3-2.6,7.3
				c-0.6,0.6-1.2,1.1-1.9,1.6c-1.1,0.8-2,1.7-2.9,2.7v-8.2h0.9c1.5,0,2.8-1.2,2.8-2.8s-1.2-2.8-2.8-2.8s-2.8,1.2-2.8,2.8l0,0l0,0
				v0.9h-1.8v-0.9c0-1.5-1.2-2.8-2.8-2.8s-2.8,1.2-2.8,2.8c0,1.5,1.2,2.8,2.8,2.8l0,0h0.9v8.2c-0.8-1-1.8-2-2.9-2.7
				c-0.7-0.5-1.3-1-1.9-1.6c-1.8-2-2.7-4.6-2.6-7.3c-0.1-5.6,4.3-10.2,9.9-10.4c5.6-0.1,10.2,4.3,10.4,9.9
				C-461.2-547-461.2-546.9-461.2-546.8L-461.2-546.8z M-468.6-545.2v-0.9c0-0.5,0.4-0.9,0.9-0.9c0.5,0,0.9,0.4,0.9,0.9
				s-0.4,0.9-0.9,0.9h0H-468.6z"/>
			<path id="Trazado_143722" class="st1" d="M-456.6-546.1h2.8c0.5,0,0.9-0.4,0.9-0.9s-0.4-0.9-0.9-0.9h-2.8c-0.5,0-0.9,0.4-0.9,0.9
				S-457.1-546.1-456.6-546.1L-456.6-546.1z"/>
			<path id="Trazado_143723" class="st1" d="M-460.9-556.5c0.2,0,0.5-0.1,0.7-0.3l2-2c0.4-0.3,0.4-0.9,0.1-1.3
				c-0.3-0.4-0.9-0.4-1.3-0.1c0,0-0.1,0.1-0.1,0.1l-2,2c-0.4,0.3-0.4,0.9-0.1,1.3C-461.4-556.6-461.2-556.5-460.9-556.5
				L-460.9-556.5z"/>
			<path id="Trazado_143724" class="st1" d="M-471.3-560.8c0.5,0,0.9-0.4,0.9-0.9v-2.8c0-0.5-0.4-0.9-0.9-0.9s-0.9,0.4-0.9,0.9v2.8
				C-472.2-561.2-471.8-560.8-471.3-560.8C-471.3-560.8-471.3-560.8-471.3-560.8z"/>
			<path id="Trazado_143725" class="st1" d="M-481.1-556.8c0.4-0.3,0.4-0.9,0-1.3c0,0,0,0,0,0l0,0l-2-2c-0.3-0.4-0.9-0.4-1.3-0.1
				s-0.4,0.9-0.1,1.3c0,0,0.1,0.1,0.1,0.1l2,2C-482-556.4-481.5-556.4-481.1-556.8L-481.1-556.8z"/>
			<path id="Trazado_143726" class="st1" d="M-488.8-547.9c-0.5,0-0.9,0.4-0.9,0.9c0,0.5,0.4,0.9,0.9,0.9h2.8c0.5,0,0.9-0.4,0.9-0.9
				c0-0.5-0.4-0.9-0.9-0.9H-488.8z"/>
			<path id="Trazado_143727" class="st1" d="M-260.5-548.4c-0.2,0-0.5-0.1-0.7-0.2c-0.5-0.4-0.7-1.1-0.3-1.6c0,0,0,0,0,0v0
				c3.6-5.5,10.1-8.8,17.4-8.8c0.7,0.1,1.1,0.6,1.1,1.3c-0.1,0.6-0.5,1-1.1,1.1c-6.4,0-12.2,2.9-15.4,7.7
				C-259.7-548.6-260.1-548.4-260.5-548.4z"/>
			<path id="Trazado_143728" class="st1" d="M-232.4-507.3c-1.1,0-2.2-0.3-3.2-0.9c-5.9-3.8-19.2-13.9-22.3-21.2
				c-3.9-9.3-2.3-17.5,4.1-21.9c6.2-4.3,15.4-3.7,21.4,1.3c5.9-5,15.1-5.6,21.4-1.3c6.4,4.4,7.9,12.6,4.1,21.9
				c-3,7.4-16.3,17.5-22.3,21.2C-230.2-507.7-231.3-507.3-232.4-507.3z M-244.1-551.9c-2.9,0-5.8,0.8-8.3,2.5
				c-5.5,3.8-6.7,10.7-3.2,19c2.6,6.2,14.2,15.7,21.3,20.2c1.2,0.7,2.7,0.7,3.9,0c7.1-4.5,18.8-14,21.3-20.2
				c3.5-8.3,2.3-15.3-3.2-19c-5.6-3.9-14.1-3.1-19.2,1.8l-0.8,0.8l-0.8-0.8C-236.2-550.4-240.1-551.9-244.1-551.9z"/>
		</g>
	</g>
</g>
</svg>
