<svg xmlns="http://www.w3.org/2000/svg" width="286.534" height="306.504" viewBox="0 0 286.534 306.504">
  <g id="Grupo_122146" data-name="Grupo 122146" transform="translate(-305.733 -2265)">
    <g id="Grupo_122145" data-name="Grupo 122145" transform="translate(425.428 2288.625)" opacity="0.376">
      <g id="Grupo_122123" data-name="Grupo 122123" transform="translate(0 0)">
        <g id="Grupo_122122" data-name="Grupo 122122">
          <path id="Trazado_144268" data-name="Trazado 144268" d="M160.955,237.4s13.793,2.411,4.951,32.494-15.99,45.5-15.99,45.5-1.286,6.839,4.265,6.82,17.008-4.124,20.633,1.992c3.759,6.341.022,13.693-8.945,21.214s-28.008,24.713-29.723,26.275c-1.685,1.533-3.038,4.857.745,5.451s30.872-1.631,31.158,11.286-28.136,29.761-31.209,31.661-3.6,3.454-2.988,5.221,9.647.163,17.377-.155,16.75.672,16.292,8.137-15.717,25.841-58.792,38.4L88.387,476.2,74,461.006c-28.812-34.395-31.268-58.151-27.5-64.611s11.817-2.263,18.065,2.3,12.862,10.924,14.353,9.8,1.917-2.712.421-6-15.742-33.1-8.32-43.672,28.7,6.344,32.172,7.956,4.2-1.905,3.651-4.115c-.558-2.252-6.814-27.133-10.083-38.371s-2.283-19.425,4.368-22.6c6.415-3.066,13.652,6.719,18.253,9.822s7.338-3.294,7.338-3.294,2.637-16.785,12.025-46.7,22.483-24.04,22.483-24.04" transform="translate(-45.133 -237.003)" fill="#023055"/>
        </g>
      </g>
      <g id="Grupo_122126" data-name="Grupo 122126" transform="translate(42.662 27.354)">
        <g id="Grupo_122125" data-name="Grupo 122125">
          <g id="Grupo_122124" data-name="Grupo 122124">
            <path id="Trazado_144269" data-name="Trazado 144269" d="M61.694,472.885c6.807-22,18.252-61.3,28.251-95s19.075-64.167,25.772-86.2l7.956-26.084,2.16-7.093c.233-.794.416-1.409.545-1.851.119-.417.165-.637.165-.637s-.088.206-.229.617q-.216.656-.607,1.832c-.528,1.639-1.293,4.013-2.275,7.057-1.969,6.131-4.754,15.023-8.153,26.025-6.809,22-15.958,52.467-25.955,86.148s-21.373,73.014-28.07,95.046" transform="translate(-61.255 -256.026)" fill="#023055"/>
          </g>
        </g>
      </g>
      <g id="Grupo_122129" data-name="Grupo 122129" transform="translate(81.622 93.587)">
        <g id="Grupo_122128" data-name="Grupo 122128" transform="translate(0)">
          <g id="Grupo_122127" data-name="Grupo 122127">
            <path id="Trazado_144270" data-name="Trazado 144270" d="M89.389,302.092a6.731,6.731,0,0,0-1.352.666c-.853.462-2.063,1.165-3.552,2.049-2.974,1.771-7.018,4.325-11.431,7.223l-11.27,7.46-3.427,2.237a6.792,6.792,0,0,0-1.228.871,6.707,6.707,0,0,0,1.357-.656c.851-.464,2.063-1.168,3.543-2.068,2.956-1.8,6.967-4.407,11.378-7.3,4.36-2.84,8.3-5.409,11.318-7.375,1.365-.881,2.516-1.623,3.441-2.222A6.814,6.814,0,0,0,89.389,302.092Z" transform="translate(-57.128 -302.088)" fill="#023055"/>
          </g>
        </g>
      </g>
      <g id="Grupo_122132" data-name="Grupo 122132" transform="translate(57.549 75.096)">
        <g id="Grupo_122131" data-name="Grupo 122131" transform="translate(0)">
          <g id="Grupo_122130" data-name="Grupo 122130">
            <path id="Trazado_144271" data-name="Trazado 144271" d="M103.135,327.186c.154-.092-4.742-8.662-10.934-19.143s-11.338-18.9-11.492-18.814,4.741,8.661,10.934,19.143S102.981,327.276,103.135,327.186Z" transform="translate(-80.706 -289.228)" fill="#023055"/>
          </g>
        </g>
      </g>
      <g id="Grupo_122135" data-name="Grupo 122135" transform="translate(39.645 137.645)">
        <g id="Grupo_122134" data-name="Grupo 122134" transform="translate(0)">
          <g id="Grupo_122133" data-name="Grupo 122133">
            <path id="Trazado_144272" data-name="Trazado 144272" d="M117.074,360.56a7.027,7.027,0,0,0-1.068-1.107l-3.048-2.861c-2.57-2.419-6.105-5.775-9.87-9.621s-7.069-7.43-9.433-10.05l-2.805-3.1a7.093,7.093,0,0,0-1.084-1.09,6.955,6.955,0,0,0,.893,1.252c.608.779,1.508,1.891,2.652,3.24,2.281,2.7,5.532,6.354,9.316,10.2s7.371,7.169,10.024,9.506c1.332,1.162,2.42,2.091,3.189,2.711A6.993,6.993,0,0,0,117.074,360.56Z" transform="translate(-89.763 -332.728)" fill="#023055"/>
          </g>
        </g>
      </g>
      <g id="Grupo_122138" data-name="Grupo 122138" transform="translate(66.956 154.614)">
        <g id="Grupo_122137" data-name="Grupo 122137">
          <g id="Grupo_122136" data-name="Grupo 122136">
            <path id="Trazado_144273" data-name="Trazado 144273" d="M100.284,344.539a5.992,5.992,0,0,0-1.393.288c-1.015.275-2.262.613-3.731,1.012-3.142.881-7.47,2.144-12.24,3.575s-9.078,2.764-12.186,3.757l-3.671,1.211a6,6,0,0,0-1.321.528,6,6,0,0,0,1.393-.288l3.731-1.012c3.142-.881,7.47-2.144,12.241-3.576s9.076-2.762,12.185-3.756l3.671-1.211A6,6,0,0,0,100.284,344.539Z" transform="translate(-65.741 -344.529)" fill="#023055"/>
          </g>
        </g>
      </g>
      <g id="Grupo_122141" data-name="Grupo 122141" transform="translate(51.485 202.358)">
        <g id="Grupo_122140" data-name="Grupo 122140">
          <g id="Grupo_122139" data-name="Grupo 122139">
            <path id="Trazado_144274" data-name="Trazado 144274" d="M114.045,377.74a9.816,9.816,0,0,0-1.78.384l-4.785,1.281c-4.035,1.107-9.594,2.682-15.724,4.458s-11.672,3.421-15.672,4.642l-4.729,1.477a9.7,9.7,0,0,0-1.708.627,9.738,9.738,0,0,0,1.779-.385l4.787-1.28c4.033-1.107,9.594-2.682,15.725-4.459s11.669-3.419,15.669-4.64l4.729-1.477A9.755,9.755,0,0,0,114.045,377.74Z" transform="translate(-69.646 -377.733)" fill="#023055"/>
          </g>
        </g>
      </g>
      <g id="Grupo_122144" data-name="Grupo 122144" transform="translate(18.772 178.375)">
        <g id="Grupo_122143" data-name="Grupo 122143" transform="translate(0)">
          <g id="Grupo_122142" data-name="Grupo 122142">
            <path id="Trazado_144275" data-name="Trazado 144275" d="M133.532,397.305a11.225,11.225,0,0,0-1.319-1.437l-3.734-3.767c-3.149-3.184-7.482-7.6-12.127-12.606s-8.747-9.641-11.686-13.02c-1.413-1.622-2.587-2.968-3.484-4a11.283,11.283,0,0,0-1.336-1.421,11.31,11.31,0,0,0,1.14,1.582c.768.991,1.9,2.407,3.33,4.134,2.854,3.458,6.9,8.153,11.562,13.164s9.045,9.388,12.28,12.491c1.622,1.549,2.946,2.788,3.881,3.624A11.287,11.287,0,0,0,133.532,397.305Z" transform="translate(-99.844 -361.054)" fill="#023055"/>
          </g>
        </g>
      </g>
    </g>
    <g id="Grupo_122121" data-name="Grupo 122121" transform="translate(305.733 2265)">
      <g id="Grupo_121971" data-name="Grupo 121971" transform="translate(41.004 0)">
        <g id="Grupo_121797" data-name="Grupo 121797" transform="translate(0 53.414)">
          <g id="Grupo_121796" data-name="Grupo 121796" transform="translate(0)">
            <path id="Trazado_144187" data-name="Trazado 144187" d="M306.668,188.078a12.929,12.929,0,0,0-6.6-6.2,8.714,8.714,0,0,0-8.71,1.311,6.619,6.619,0,0,0-1.31,8.368,9.127,9.127,0,1,0,3.734,16.22,6.811,6.811,0,0,0,10.88,4.022c4.6-3.606,3.548-11.987,8.668-14.81" transform="translate(-279.192 -181.268)" fill="#263238"/>
          </g>
        </g>
        <g id="Grupo_121798" data-name="Grupo 121798" transform="translate(21.085 55.4)">
          <path id="Trazado_144188" data-name="Trazado 144188" d="M292.248,201.6a17.972,17.972,0,0,1-4.77-15.155,3.755,3.755,0,0,0-.044-2.224c-.582-1.208-2.449-1.24-3.459-.357a5.618,5.618,0,0,0-1.515,3.629,23.941,23.941,0,0,0,1.042,10.564,10.693,10.693,0,0,0,1.981,3.75,5.132,5.132,0,0,0,3.707,1.853,2.977,2.977,0,0,0,3.058-2.06" transform="translate(-282.272 -183.254)" fill="#e8505b"/>
        </g>
        <g id="Grupo_121929" data-name="Grupo 121929" transform="translate(18.307)">
          <g id="Grupo_121928" data-name="Grupo 121928">
            <g id="Grupo_121927" data-name="Grupo 121927">
              <g id="Grupo_121804" data-name="Grupo 121804" transform="translate(15.834)">
                <g id="Grupo_121803" data-name="Grupo 121803">
                  <g id="Grupo_121802" data-name="Grupo 121802">
                    <g id="Grupo_121801" data-name="Grupo 121801">
                      <g id="Grupo_121800" data-name="Grupo 121800">
                        <g id="Grupo_121799" data-name="Grupo 121799">
                          <path id="Trazado_144189" data-name="Trazado 144189" d="M202.634,149.089c1.911-5.3,10.969-9.842,15.941-12.484,7.435-3.952,14.173-2.884,18.212.984,7.744-6.07,17.861-11.807,27.292-9s16.822,12.8,14.767,22.422c-1.211,5.669-5.332,10.653-5.295,16.449.026,3.952,2,7.583,3.542,11.219s2.688,7.852,1.082,11.462c-1.494,3.36-5.013,5.369-6.975,8.479-1.6,2.533-2.051,5.6-3.113,8.4-3.935,10.379-16.523,15.849-27.4,13.64s-19.709-10.745-24.548-20.734-6.172-21.314-6.4-32.411" transform="translate(-202.634 -127.854)" fill="#263238"/>
                        </g>
                      </g>
                    </g>
                  </g>
                </g>
              </g>
              <g id="Grupo_121849" data-name="Grupo 121849" transform="translate(23.375 18.912)">
                <g id="Grupo_121848" data-name="Grupo 121848" transform="translate(0)">
                  <g id="Grupo_121827" data-name="Grupo 121827" transform="translate(0)">
                    <g id="Grupo_121826" data-name="Grupo 121826" transform="translate(0)">
                      <g id="Grupo_121825" data-name="Grupo 121825" transform="translate(0)">
                        <g id="Grupo_121814" data-name="Grupo 121814" transform="translate(0)">
                          <g id="Grupo_121813" data-name="Grupo 121813" transform="translate(0)">
                            <g id="Grupo_121812" data-name="Grupo 121812" transform="translate(0)">
                              <g id="Grupo_121811" data-name="Grupo 121811" transform="translate(0)">
                                <g id="Grupo_121810" data-name="Grupo 121810" transform="translate(0)">
                                  <g id="Grupo_121809" data-name="Grupo 121809" transform="translate(0)">
                                    <g id="Grupo_121808" data-name="Grupo 121808" transform="translate(0)">
                                      <g id="Grupo_121807" data-name="Grupo 121807" transform="translate(0)">
                                        <g id="Grupo_121806" data-name="Grupo 121806" transform="translate(0)">
                                          <g id="Grupo_121805" data-name="Grupo 121805" transform="translate(0)">
                                            <path id="Trazado_144190" data-name="Trazado 144190" d="M249.8,146.935A17.961,17.961,0,0,1,270.131,163c1.172,12.118,2.167,27.349.994,36.585-2.29,18.024-15.966,20.735-15.966,20.735s.112,6.695.262,14.515a19.438,19.438,0,0,1-18.293,19.779h0a19.437,19.437,0,0,1-20.575-19.5l.379-78.163" transform="translate(-216.553 -146.765)" fill="#ffbe9d"/>
                                          </g>
                                        </g>
                                      </g>
                                    </g>
                                  </g>
                                </g>
                              </g>
                            </g>
                          </g>
                        </g>
                        <g id="Grupo_121824" data-name="Grupo 121824" transform="translate(14.279 67.663)">
                          <g id="Grupo_121823" data-name="Grupo 121823">
                            <g id="Grupo_121822" data-name="Grupo 121822">
                              <g id="Grupo_121821" data-name="Grupo 121821">
                                <g id="Grupo_121820" data-name="Grupo 121820">
                                  <g id="Grupo_121819" data-name="Grupo 121819">
                                    <g id="Grupo_121818" data-name="Grupo 121818">
                                      <g id="Grupo_121817" data-name="Grupo 121817">
                                        <g id="Grupo_121816" data-name="Grupo 121816">
                                          <g id="Grupo_121815" data-name="Grupo 121815">
                                            <path id="Trazado_144191" data-name="Trazado 144191" d="M257.313,220.321a47.577,47.577,0,0,1-24.327-5.893s6.487,12.549,24.385,10.311Z" transform="translate(-232.986 -214.428)" fill="#eb996e"/>
                                          </g>
                                        </g>
                                      </g>
                                    </g>
                                  </g>
                                </g>
                              </g>
                            </g>
                          </g>
                        </g>
                      </g>
                    </g>
                  </g>
                  <g id="Grupo_121837" data-name="Grupo 121837" transform="translate(16.124 16.36)">
                    <g id="Grupo_121836" data-name="Grupo 121836" transform="translate(0)">
                      <g id="Grupo_121835" data-name="Grupo 121835" transform="translate(0)">
                        <g id="Grupo_121834" data-name="Grupo 121834" transform="translate(0)">
                          <g id="Grupo_121833" data-name="Grupo 121833" transform="translate(0)">
                            <g id="Grupo_121832" data-name="Grupo 121832" transform="translate(0)">
                              <g id="Grupo_121831" data-name="Grupo 121831" transform="translate(0)">
                                <g id="Grupo_121830" data-name="Grupo 121830" transform="translate(0)">
                                  <g id="Grupo_121829" data-name="Grupo 121829" transform="translate(0)">
                                    <g id="Grupo_121828" data-name="Grupo 121828" transform="translate(0)">
                                      <path id="Trazado_144192" data-name="Trazado 144192" d="M255.516,164.838c-.223.68-2.7.438-5.6.879-2.9.382-5.218,1.305-5.621.713-.182-.283.207-.928,1.133-1.61a9.85,9.85,0,0,1,8.548-1.213C255.058,164,255.611,164.515,255.516,164.838Z" transform="translate(-244.255 -163.126)" fill="#263238"/>
                                    </g>
                                  </g>
                                </g>
                              </g>
                            </g>
                          </g>
                        </g>
                      </g>
                    </g>
                  </g>
                  <g id="Grupo_121847" data-name="Grupo 121847" transform="translate(41.788 17.005)">
                    <g id="Grupo_121846" data-name="Grupo 121846" transform="translate(0)">
                      <g id="Grupo_121845" data-name="Grupo 121845" transform="translate(0)">
                        <g id="Grupo_121844" data-name="Grupo 121844" transform="translate(0)">
                          <g id="Grupo_121843" data-name="Grupo 121843" transform="translate(0)">
                            <g id="Grupo_121842" data-name="Grupo 121842" transform="translate(0)">
                              <g id="Grupo_121841" data-name="Grupo 121841" transform="translate(0)">
                                <g id="Grupo_121840" data-name="Grupo 121840" transform="translate(0)">
                                  <g id="Grupo_121839" data-name="Grupo 121839" transform="translate(0)">
                                    <g id="Grupo_121838" data-name="Grupo 121838" transform="translate(0)">
                                      <path id="Trazado_144193" data-name="Trazado 144193" d="M229.8,166.2c-.418.576-2.141.045-4.192.082-2.053-.035-3.775.495-4.194-.08-.183-.28.072-.852.815-1.407a6.069,6.069,0,0,1,6.756,0C229.733,165.351,229.989,165.923,229.8,166.2Z" transform="translate(-221.362 -163.77)" fill="#263238"/>
                                    </g>
                                  </g>
                                </g>
                              </g>
                            </g>
                          </g>
                        </g>
                      </g>
                    </g>
                  </g>
                </g>
              </g>
              <g id="Grupo_121855" data-name="Grupo 121855" transform="translate(50.096 56.521)">
                <g id="Grupo_121854" data-name="Grupo 121854" transform="translate(0)">
                  <g id="Grupo_121853" data-name="Grupo 121853" transform="translate(0)">
                    <g id="Grupo_121852" data-name="Grupo 121852" transform="translate(0)">
                      <g id="Grupo_121851" data-name="Grupo 121851" transform="translate(0)">
                        <g id="Grupo_121850" data-name="Grupo 121850" transform="translate(0)">
                          <path id="Trazado_144194" data-name="Trazado 144194" d="M244.929,185.053a.656.656,0,1,1-.634-.678A.657.657,0,0,1,244.929,185.053Z" transform="translate(-243.617 -184.375)" fill="#eb996e"/>
                        </g>
                      </g>
                    </g>
                  </g>
                </g>
              </g>
              <g id="Grupo_121861" data-name="Grupo 121861" transform="translate(68.747 53.929)">
                <g id="Grupo_121860" data-name="Grupo 121860" transform="translate(0)">
                  <g id="Grupo_121859" data-name="Grupo 121859" transform="translate(0)">
                    <g id="Grupo_121858" data-name="Grupo 121858" transform="translate(0)">
                      <g id="Grupo_121857" data-name="Grupo 121857" transform="translate(0)">
                        <g id="Grupo_121856" data-name="Grupo 121856" transform="translate(0)">
                          <path id="Trazado_144195" data-name="Trazado 144195" d="M226.278,182.461a.656.656,0,1,1-.634-.678A.657.657,0,0,1,226.278,182.461Z" transform="translate(-224.966 -181.783)" fill="#eb996e"/>
                        </g>
                      </g>
                    </g>
                  </g>
                </g>
              </g>
              <g id="Grupo_121867" data-name="Grupo 121867" transform="translate(72.311 55.757)">
                <g id="Grupo_121866" data-name="Grupo 121866" transform="translate(0)">
                  <g id="Grupo_121865" data-name="Grupo 121865" transform="translate(0)">
                    <g id="Grupo_121864" data-name="Grupo 121864" transform="translate(0)">
                      <g id="Grupo_121863" data-name="Grupo 121863" transform="translate(0)">
                        <g id="Grupo_121862" data-name="Grupo 121862" transform="translate(0)">
                          <path id="Trazado_144196" data-name="Trazado 144196" d="M222.714,184.289a.656.656,0,1,1-.634-.678A.656.656,0,0,1,222.714,184.289Z" transform="translate(-221.402 -183.611)" fill="#eb996e"/>
                        </g>
                      </g>
                    </g>
                  </g>
                </g>
              </g>
              <g id="Grupo_121873" data-name="Grupo 121873" transform="translate(73.506 53.052)">
                <g id="Grupo_121872" data-name="Grupo 121872" transform="translate(0)">
                  <g id="Grupo_121871" data-name="Grupo 121871" transform="translate(0)">
                    <g id="Grupo_121870" data-name="Grupo 121870" transform="translate(0)">
                      <g id="Grupo_121869" data-name="Grupo 121869" transform="translate(0)">
                        <g id="Grupo_121868" data-name="Grupo 121868" transform="translate(0)">
                          <path id="Trazado_144197" data-name="Trazado 144197" d="M221.519,181.584a.656.656,0,1,1-.634-.678A.656.656,0,0,1,221.519,181.584Z" transform="translate(-220.208 -180.906)" fill="#eb996e"/>
                        </g>
                      </g>
                    </g>
                  </g>
                </g>
              </g>
              <g id="Grupo_121879" data-name="Grupo 121879" transform="translate(46.999 59.318)">
                <g id="Grupo_121878" data-name="Grupo 121878" transform="translate(0)">
                  <g id="Grupo_121877" data-name="Grupo 121877" transform="translate(0)">
                    <g id="Grupo_121876" data-name="Grupo 121876" transform="translate(0)">
                      <g id="Grupo_121875" data-name="Grupo 121875" transform="translate(0)">
                        <g id="Grupo_121874" data-name="Grupo 121874" transform="translate(0)">
                          <path id="Trazado_144198" data-name="Trazado 144198" d="M248.026,187.85a.656.656,0,1,1-.634-.678A.657.657,0,0,1,248.026,187.85Z" transform="translate(-246.714 -187.172)" fill="#eb996e"/>
                        </g>
                      </g>
                    </g>
                  </g>
                </g>
              </g>
              <g id="Grupo_121885" data-name="Grupo 121885" transform="translate(44.629 56.598)">
                <g id="Grupo_121884" data-name="Grupo 121884" transform="translate(0)">
                  <g id="Grupo_121883" data-name="Grupo 121883" transform="translate(0)">
                    <g id="Grupo_121882" data-name="Grupo 121882" transform="translate(0)">
                      <g id="Grupo_121881" data-name="Grupo 121881" transform="translate(0)">
                        <g id="Grupo_121880" data-name="Grupo 121880" transform="translate(0)">
                          <path id="Trazado_144199" data-name="Trazado 144199" d="M250.4,185.13a.656.656,0,1,1-.634-.678A.656.656,0,0,1,250.4,185.13Z" transform="translate(-249.085 -184.452)" fill="#eb996e"/>
                        </g>
                      </g>
                    </g>
                  </g>
                </g>
              </g>
              <g id="Grupo_121891" data-name="Grupo 121891" transform="translate(5.39 10.517)">
                <g id="Grupo_121890" data-name="Grupo 121890" transform="translate(0)">
                  <g id="Grupo_121889" data-name="Grupo 121889" transform="translate(0)">
                    <g id="Grupo_121888" data-name="Grupo 121888" transform="translate(0)">
                      <g id="Grupo_121887" data-name="Grupo 121887" transform="translate(0)">
                        <g id="Grupo_121886" data-name="Grupo 121886" transform="translate(0)">
                          <path id="Trazado_144200" data-name="Trazado 144200" d="M288.66,144.119a38.288,38.288,0,0,1-26.919,30.561c4.2,6.508,1.019,18.516.8,28.623-.208,9.4-.3,12.08-6.547,16.664-5.068,1.045-7.509-12.828-11.117-16.8s-7.026-8.836-6.57-14.183c.212-2.5,1.271-4.867,1.492-7.366.244-2.773-.553-5.517-.954-8.271-1.775-12.189,4.941-25.008,15.706-30.993s24.837-5.083,35.089,1.745" transform="translate(-238.262 -138.37)" fill="#263238"/>
                        </g>
                      </g>
                    </g>
                  </g>
                </g>
              </g>
              <g id="Grupo_121898" data-name="Grupo 121898" transform="translate(6.005 15.02)">
                <g id="Grupo_121897" data-name="Grupo 121897" transform="translate(0)">
                  <g id="Grupo_121896" data-name="Grupo 121896" transform="translate(0)">
                    <g id="Grupo_121895" data-name="Grupo 121895" transform="translate(0)">
                      <g id="Grupo_121894" data-name="Grupo 121894" transform="translate(0)">
                        <g id="Grupo_121893" data-name="Grupo 121893" transform="translate(0)">
                          <g id="Grupo_121892" data-name="Grupo 121892" transform="translate(0)">
                            <path id="Trazado_144201" data-name="Trazado 144201" d="M241.846,180.286a4.089,4.089,0,0,1-.432-.519,5.161,5.161,0,0,1-.771-1.776,10.375,10.375,0,0,1,1.272-6.908,13.708,13.708,0,0,1,2.986-3.908,27.314,27.314,0,0,1,4.418-3.512,22.792,22.792,0,0,1,5.669-2.607c2.071-.629,4.258-1.1,6.488-1.582s4.406-.955,6.451-1.6a39.748,39.748,0,0,0,5.74-2.268,42.031,42.031,0,0,0,8.735-5.719,42.645,42.645,0,0,0,4.972-5.009c.546-.633.939-1.149,1.211-1.5a4.147,4.147,0,0,1,.435-.513,4.066,4.066,0,0,1-.368.563c-.252.362-.625.9-1.154,1.546a39.251,39.251,0,0,1-4.907,5.128,41.2,41.2,0,0,1-8.758,5.839,39.347,39.347,0,0,1-5.787,2.312c-2.064.653-4.252,1.132-6.483,1.614s-4.407.949-6.459,1.565a22.644,22.644,0,0,0-5.583,2.543,27.288,27.288,0,0,0-4.383,3.437,13.543,13.543,0,0,0-2.966,3.8,10.388,10.388,0,0,0-1.372,6.74A6.229,6.229,0,0,0,241.846,180.286Z" transform="translate(-240.464 -142.874)" fill="#455a64"/>
                          </g>
                        </g>
                      </g>
                    </g>
                  </g>
                </g>
              </g>
              <g id="Grupo_121905" data-name="Grupo 121905" transform="translate(5.414 15.02)">
                <g id="Grupo_121904" data-name="Grupo 121904" transform="translate(0)">
                  <g id="Grupo_121903" data-name="Grupo 121903" transform="translate(0)">
                    <g id="Grupo_121902" data-name="Grupo 121902" transform="translate(0)">
                      <g id="Grupo_121901" data-name="Grupo 121901" transform="translate(0)">
                        <g id="Grupo_121900" data-name="Grupo 121900" transform="translate(0)">
                          <g id="Grupo_121899" data-name="Grupo 121899" transform="translate(0)">
                            <path id="Trazado_144202" data-name="Trazado 144202" d="M289.611,142.874a3.1,3.1,0,0,1-.385.439c-.26.282-.659.681-1.178,1.191a49.3,49.3,0,0,1-4.692,4,31.736,31.736,0,0,1-7.982,4.462A30.3,30.3,0,0,1,270.1,154.2c-1.85.305-3.775.53-5.744.76a63.989,63.989,0,0,0-10.959,1.925,23.94,23.94,0,0,0-8.023,4.1,15.538,15.538,0,0,0-3.958,4.6,14.154,14.154,0,0,0-.708,1.506,3.243,3.243,0,0,1-.243.532,3.073,3.073,0,0,1,.165-.561,11.359,11.359,0,0,1,.644-1.552,15.1,15.1,0,0,1,3.917-4.749,23.778,23.778,0,0,1,8.1-4.232,62.157,62.157,0,0,1,11.022-1.971c1.969-.23,3.889-.452,5.728-.75a30.372,30.372,0,0,0,5.21-1.2,32.3,32.3,0,0,0,7.936-4.338,57.332,57.332,0,0,0,4.755-3.879l1.23-1.133A3.015,3.015,0,0,1,289.611,142.874Z" transform="translate(-240.464 -142.873)" fill="#455a64"/>
                          </g>
                        </g>
                      </g>
                    </g>
                  </g>
                </g>
              </g>
              <g id="Grupo_121912" data-name="Grupo 121912" transform="translate(54.342 0.056)">
                <g id="Grupo_121911" data-name="Grupo 121911" transform="translate(0)">
                  <g id="Grupo_121910" data-name="Grupo 121910" transform="translate(0)">
                    <g id="Grupo_121909" data-name="Grupo 121909" transform="translate(0)">
                      <g id="Grupo_121908" data-name="Grupo 121908" transform="translate(0)">
                        <g id="Grupo_121907" data-name="Grupo 121907" transform="translate(0)">
                          <g id="Grupo_121906" data-name="Grupo 121906" transform="translate(0)">
                            <path id="Trazado_144203" data-name="Trazado 144203" d="M240.684,127.933c.006.092-1.545.092-3.953.648a17.515,17.515,0,0,0-1.939.552c-.7.2-1.406.518-2.16.825a23.983,23.983,0,0,0-8.446,6.264,22.911,22.911,0,0,0-1.417,1.827,17.928,17.928,0,0,0-1.091,1.7c-1.231,2.143-1.681,3.627-1.768,3.594a5.452,5.452,0,0,1,.308-1.038,8.862,8.862,0,0,1,.467-1.183,14.712,14.712,0,0,1,.74-1.515,16.541,16.541,0,0,1,1.063-1.747,21.755,21.755,0,0,1,1.41-1.88,23.109,23.109,0,0,1,8.582-6.365,21.863,21.863,0,0,1,2.208-.8,16.538,16.538,0,0,1,1.981-.511,14.874,14.874,0,0,1,1.664-.268,8.884,8.884,0,0,1,1.268-.1A5.326,5.326,0,0,1,240.684,127.933Z" transform="translate(-219.906 -127.91)" fill="#455a64"/>
                          </g>
                        </g>
                      </g>
                    </g>
                  </g>
                </g>
              </g>
              <g id="Grupo_121919" data-name="Grupo 121919" transform="translate(55.973 14.698)">
                <g id="Grupo_121918" data-name="Grupo 121918" transform="translate(0)">
                  <g id="Grupo_121917" data-name="Grupo 121917" transform="translate(0)">
                    <g id="Grupo_121916" data-name="Grupo 121916" transform="translate(0)">
                      <g id="Grupo_121915" data-name="Grupo 121915" transform="translate(0)">
                        <g id="Grupo_121914" data-name="Grupo 121914" transform="translate(0)">
                          <g id="Grupo_121913" data-name="Grupo 121913" transform="translate(0)">
                            <path id="Trazado_144204" data-name="Trazado 144204" d="M234.891,196.5a.7.7,0,0,1,.124-.155l.39-.426c.342-.374.856-.92,1.447-1.677a9.721,9.721,0,0,0,1.688-3.019,5.453,5.453,0,0,0,.235-2.118,5.961,5.961,0,0,0-.735-2.273,40.1,40.1,0,0,0-3.388-4.474,25.47,25.47,0,0,1-4.907-12.647,52.535,52.535,0,0,1,.064-7.7,26.814,26.814,0,0,0-.444-7.586,15.171,15.171,0,0,0-3.213-6.22,15.335,15.335,0,0,0-5.013-3.9,14.552,14.552,0,0,0-5.361-1.425,15.923,15.923,0,0,0-7.887,1.46,17.043,17.043,0,0,0-1.93,1.076l-.481.319a.787.787,0,0,1-.172.1,11.314,11.314,0,0,1,2.514-1.637,15.721,15.721,0,0,1,7.976-1.606,14.733,14.733,0,0,1,5.488,1.407,15.851,15.851,0,0,1,8.47,10.335,26.976,26.976,0,0,1,.464,7.7,53.109,53.109,0,0,0-.075,7.645,25.349,25.349,0,0,0,4.781,12.483,38.981,38.981,0,0,1,3.371,4.54,6.235,6.235,0,0,1,.739,2.387,5.667,5.667,0,0,1-.277,2.211,9.686,9.686,0,0,1-1.782,3.049,20.267,20.267,0,0,1-1.512,1.635l-.42.4A.745.745,0,0,1,234.891,196.5Z" transform="translate(-205.308 -142.551)" fill="#455a64"/>
                          </g>
                        </g>
                      </g>
                    </g>
                  </g>
                </g>
              </g>
              <g id="Grupo_121926" data-name="Grupo 121926" transform="translate(0 12.4)">
                <g id="Grupo_121925" data-name="Grupo 121925" transform="translate(0)">
                  <g id="Grupo_121924" data-name="Grupo 121924" transform="translate(0)">
                    <g id="Grupo_121923" data-name="Grupo 121923" transform="translate(0)">
                      <g id="Grupo_121922" data-name="Grupo 121922" transform="translate(0)">
                        <g id="Grupo_121921" data-name="Grupo 121921" transform="translate(0)">
                          <g id="Grupo_121920" data-name="Grupo 121920" transform="translate(0)">
                            <path id="Trazado_144205" data-name="Trazado 144205" d="M250.7,181.325a.833.833,0,0,1-.19-.093l-.539-.308a14.467,14.467,0,0,1-1.917-1.418,16.551,16.551,0,0,1-4.835-7.237,16.444,16.444,0,0,1,6.172-18.474,23.027,23.027,0,0,1,7.527-3.377,41.669,41.669,0,0,1,8.163-1.21c2.659-.163,5.224-.194,7.66-.283a65.917,65.917,0,0,0,6.889-.541,30.889,30.889,0,0,0,5.84-1.375,20.651,20.651,0,0,0,7.453-4.352,17.955,17.955,0,0,0,1.587-1.755l.377-.489a.822.822,0,0,1,.14-.159,12.243,12.243,0,0,1-1.993,2.517,20.232,20.232,0,0,1-7.468,4.512,30.75,30.75,0,0,1-5.887,1.439,65.085,65.085,0,0,1-6.923.582c-4.868.224-10.293.083-15.733,1.511a22.772,22.772,0,0,0-7.4,3.308,15.86,15.86,0,0,0-4.963,5.616,16.062,16.062,0,0,0-1.165,12.44,16.729,16.729,0,0,0,4.664,7.208,16.928,16.928,0,0,0,1.856,1.468l.515.341A.807.807,0,0,1,250.7,181.325Z" transform="translate(-242.409 -140.254)" fill="#263238"/>
                          </g>
                        </g>
                      </g>
                    </g>
                  </g>
                </g>
              </g>
            </g>
          </g>
        </g>
        <g id="Grupo_121938" data-name="Grupo 121938" transform="translate(82.833 47.035)">
          <g id="Grupo_121937" data-name="Grupo 121937" transform="translate(0)">
            <g id="Grupo_121936" data-name="Grupo 121936" transform="translate(0)">
              <g id="Grupo_121935" data-name="Grupo 121935" transform="translate(0)">
                <g id="Grupo_121934" data-name="Grupo 121934" transform="translate(0)">
                  <g id="Grupo_121933" data-name="Grupo 121933" transform="translate(0)">
                    <g id="Grupo_121932" data-name="Grupo 121932" transform="translate(0)">
                      <g id="Grupo_121931" data-name="Grupo 121931" transform="translate(0)">
                        <g id="Grupo_121930" data-name="Grupo 121930" transform="translate(0)">
                          <path id="Trazado_144206" data-name="Trazado 144206" d="M230.465,177.211c-.278.305-2.041-.946-4.507-.891-2.465.02-4.251,1.324-4.524,1.027-.134-.13.144-.676.922-1.265a6.288,6.288,0,0,1,3.614-1.193,6.038,6.038,0,0,1,3.6,1.083C230.335,176.539,230.6,177.074,230.465,177.211Z" transform="translate(-221.402 -174.888)" fill="#263238"/>
                        </g>
                      </g>
                    </g>
                  </g>
                </g>
              </g>
            </g>
          </g>
        </g>
        <g id="Grupo_121947" data-name="Grupo 121947" transform="translate(57.635 47.44)">
          <g id="Grupo_121946" data-name="Grupo 121946">
            <g id="Grupo_121945" data-name="Grupo 121945">
              <g id="Grupo_121944" data-name="Grupo 121944">
                <g id="Grupo_121943" data-name="Grupo 121943">
                  <g id="Grupo_121942" data-name="Grupo 121942">
                    <g id="Grupo_121941" data-name="Grupo 121941">
                      <g id="Grupo_121940" data-name="Grupo 121940">
                        <g id="Grupo_121939" data-name="Grupo 121939">
                          <path id="Trazado_144207" data-name="Trazado 144207" d="M255.664,177.616c-.278.3-2.043-.946-4.507-.891-2.465.02-4.251,1.324-4.525,1.027-.133-.131.143-.676.923-1.266a6.288,6.288,0,0,1,3.613-1.192,6.048,6.048,0,0,1,3.6,1.082C255.532,176.944,255.8,177.479,255.664,177.616Z" transform="translate(-246.6 -175.293)" fill="#263238"/>
                        </g>
                      </g>
                    </g>
                  </g>
                </g>
              </g>
            </g>
          </g>
        </g>
        <g id="Grupo_121955" data-name="Grupo 121955" transform="translate(74.454 44.116)">
          <g id="Grupo_121954" data-name="Grupo 121954" transform="translate(0)">
            <g id="Grupo_121953" data-name="Grupo 121953" transform="translate(0)">
              <g id="Grupo_121952" data-name="Grupo 121952" transform="translate(0)">
                <g id="Grupo_121951" data-name="Grupo 121951" transform="translate(0)">
                  <g id="Grupo_121950" data-name="Grupo 121950" transform="translate(0)">
                    <g id="Grupo_121949" data-name="Grupo 121949" transform="translate(0)">
                      <g id="Grupo_121948" data-name="Grupo 121948" transform="translate(0)">
                        <path id="Trazado_144208" data-name="Trazado 144208" d="M232.628,192.5c-.014-.14,1.515-.435,3.993-.8.629-.077,1.222-.214,1.32-.646a3.215,3.215,0,0,0-.457-1.859q-.933-2.27-1.958-4.76c-2.722-6.779-4.7-12.357-4.432-12.465s2.7,5.3,5.425,12.079q.984,2.508,1.879,4.79a3.643,3.643,0,0,1,.376,2.466,1.583,1.583,0,0,1-1.017.942,4.3,4.3,0,0,1-1.067.169C234.192,192.6,232.641,192.643,232.628,192.5Z" transform="translate(-231.069 -171.969)" fill="#263238"/>
                      </g>
                    </g>
                  </g>
                </g>
              </g>
            </g>
          </g>
        </g>
        <g id="Grupo_121962" data-name="Grupo 121962" transform="translate(67.758 69.007)">
          <g id="Grupo_121961" data-name="Grupo 121961" transform="translate(0)">
            <g id="Grupo_121960" data-name="Grupo 121960" transform="translate(0)">
              <g id="Grupo_121959" data-name="Grupo 121959" transform="translate(0)">
                <g id="Grupo_121958" data-name="Grupo 121958" transform="translate(0)">
                  <g id="Grupo_121957" data-name="Grupo 121957" transform="translate(0)">
                    <g id="Grupo_121956" data-name="Grupo 121956" transform="translate(0)">
                      <path id="Trazado_144209" data-name="Trazado 144209" d="M245.319,198.469A4.445,4.445,0,0,0,241.3,196.9a4.06,4.06,0,0,0-2.773,1.558,2.573,2.573,0,0,0-.137,2.945,2.985,2.985,0,0,0,3.25.754,9.362,9.362,0,0,0,3.116-1.945,2.719,2.719,0,0,0,.69-.743.826.826,0,0,0-.022-.918" transform="translate(-237.989 -196.861)" fill="#eb996e"/>
                    </g>
                  </g>
                </g>
              </g>
            </g>
          </g>
        </g>
        <g id="Grupo_121970" data-name="Grupo 121970" transform="translate(68.411 66.499)">
          <g id="Grupo_121969" data-name="Grupo 121969" transform="translate(0)">
            <g id="Grupo_121968" data-name="Grupo 121968" transform="translate(0)">
              <g id="Grupo_121967" data-name="Grupo 121967" transform="translate(0)">
                <g id="Grupo_121966" data-name="Grupo 121966" transform="translate(0)">
                  <g id="Grupo_121965" data-name="Grupo 121965" transform="translate(0)">
                    <g id="Grupo_121964" data-name="Grupo 121964" transform="translate(0)">
                      <g id="Grupo_121963" data-name="Grupo 121963" transform="translate(0)">
                        <path id="Trazado_144210" data-name="Trazado 144210" d="M236.928,194.353c.4-.031.459,2.646,2.788,4.5s5.174,1.5,5.2,1.878c.04.167-.626.533-1.83.589a6.665,6.665,0,0,1-4.339-1.416,5.81,5.81,0,0,1-2.167-3.779C236.46,195.01,236.745,194.341,236.928,194.353Z" transform="translate(-236.553 -194.353)" fill="#263238"/>
                      </g>
                    </g>
                  </g>
                </g>
              </g>
            </g>
          </g>
        </g>
      </g>
      <g id="Grupo_122043" data-name="Grupo 122043" transform="translate(0 210.25)">
        <g id="Grupo_121972" data-name="Grupo 121972">
          <path id="Trazado_144211" data-name="Trazado 144211" d="M198.433,361.721l27.365,9.31,2.207,6.846s76.354-27.486,81.772-30.376,33.325-9.3,42.542,13.649c7.751,19.3-7.645,38.645-32.207,49.481s-72.24,15.532-72.24,15.532l-31.371,5.43-69.393.9a69.24,69.24,0,0,1-53.43-24.17c-10.94-12.742-22.237-27.18-24.382-34.7C65.127,358.99,68.9,340.027,90.713,338.2s57.177,23.092,57.177,23.092l13.434-3.677Z" transform="translate(-67.803 -338.104)" fill="#263238"/>
        </g>
        <g id="Grupo_121974" data-name="Grupo 121974" transform="translate(132.527 14.225)">
          <g id="Grupo_121973" data-name="Grupo 121973">
            <path id="Trazado_144212" data-name="Trazado 144212" d="M112.117,406.233a2.728,2.728,0,0,0-.107-.474,2.128,2.128,0,0,1,.161-1.363c.519-1.148,2.252-2.177,4.568-2.77l.011,0,.007,0c4.712-1.909,11.8-4.882,20.2-9.048,8.409-4.132,18.128-9.4,28.535-15,7.53-4.031,14.71-7.858,21.365-11.084s12.715-6,17.919-8.044c1.3-.518,2.525-1.037,3.7-1.484l3.342-1.217,2.908-1.064,2.475-.8,3.424-1.12.887-.3a1.487,1.487,0,0,0,.3-.121,1.43,1.43,0,0,0-.312.069l-.9.255-3.456,1.028-2.492.763-2.926,1.024-3.362,1.182c-1.184.436-2.418.944-3.722,1.452-5.232,2.007-11.318,4.75-17.993,7.955s-13.87,7.024-21.4,11.056c-10.411,5.6-20.109,10.889-28.487,15.059-8.362,4.2-15.414,7.235-20.09,9.219l.018-.006c-2.356.642-4.109,1.721-4.63,2.956a2.144,2.144,0,0,0-.108,1.431A2.789,2.789,0,0,0,112.117,406.233Z" transform="translate(-111.87 -352.329)" fill="#455a64"/>
          </g>
        </g>
        <g id="Grupo_121976" data-name="Grupo 121976" transform="translate(30.639 4.886)">
          <g id="Grupo_121975" data-name="Grupo 121975">
            <path id="Trazado_144213" data-name="Trazado 144213" d="M225.941,343a1.486,1.486,0,0,0,.31.058l.909.116a22.276,22.276,0,0,1,3.463.572,39.674,39.674,0,0,1,11.862,4.952,60.7,60.7,0,0,1,7.295,5.124,77.589,77.589,0,0,1,7.525,6.935,232.747,232.747,0,0,0,16.782,16.525c3.132,2.77,6.278,5.382,9.47,7.708a40.571,40.571,0,0,0,9.9,5.632,63.4,63.4,0,0,0,10.1,2.031,52.948,52.948,0,0,1,8.71,1.86,25.817,25.817,0,0,1,6.6,3.142,11.507,11.507,0,0,1,3.731,3.99,9.02,9.02,0,0,1,.994,3.321c.027.4.021.706.034.912a.157.157,0,1,0,.053,0c.005-.206.028-.515.017-.92a8.7,8.7,0,0,0-.919-3.407,11.546,11.546,0,0,0-3.743-4.134,25.684,25.684,0,0,0-6.653-3.254,52.474,52.474,0,0,0-8.762-1.938,63.856,63.856,0,0,1-10.013-2.06,40.394,40.394,0,0,1-9.747-5.589c-3.17-2.317-6.3-4.922-9.426-7.685-6.228-5.546-11.876-11.149-16.779-16.465a76.827,76.827,0,0,0-7.6-6.942,59.856,59.856,0,0,0-7.378-5.1,38.7,38.7,0,0,0-12.007-4.835,19.913,19.913,0,0,0-3.5-.477l-.915-.066A1.428,1.428,0,0,0,225.941,343Z" transform="translate(-225.941 -342.99)" fill="#455a64"/>
          </g>
        </g>
        <g id="Grupo_121978" data-name="Grupo 121978" transform="translate(120.756 26.563)">
          <g id="Grupo_121977" data-name="Grupo 121977" transform="translate(0)">
            <path id="Trazado_144214" data-name="Trazado 144214" d="M232.213,398.011a6.7,6.7,0,0,0,.455-1.283,12.752,12.752,0,0,0,.361-1.556,18.45,18.45,0,0,0,.316-2.093,42.883,42.883,0,0,0,.234-5.5,61.727,61.727,0,0,0-.551-6.713,50.1,50.1,0,0,0-2.988-11.849c-.334-.711-.6-1.371-.9-1.917s-.564-1.017-.816-1.377a6.681,6.681,0,0,0-.863-1.056,6.981,6.981,0,0,0,.692,1.164c.222.37.44.858.727,1.4s.514,1.213.822,1.923a56.271,56.271,0,0,1,2.815,11.782c.344,2.348.482,4.6.586,6.656a49.031,49.031,0,0,1-.12,5.449C232.739,396.143,232.113,397.981,232.213,398.011Z" transform="translate(-227.455 -364.667)" fill="#455a64"/>
          </g>
        </g>
        <g id="Grupo_122036" data-name="Grupo 122036" transform="translate(76.97 65.167)">
          <g id="Grupo_122032" data-name="Grupo 122032" transform="translate(0)">
            <g id="Grupo_121983" data-name="Grupo 121983" transform="translate(0 2.962)">
              <g id="Grupo_121982" data-name="Grupo 121982" transform="translate(0)">
                <g id="Grupo_121981" data-name="Grupo 121981" transform="translate(0)">
                  <g id="Grupo_121980" data-name="Grupo 121980" transform="translate(0)">
                    <g id="Grupo_121979" data-name="Grupo 121979" transform="translate(0)">
                      <path id="Trazado_144215" data-name="Trazado 144215" d="M267.588,406.233s-51.673,13.046-53.75,13.725c-3.118,1.019-2.856,12.364,1.962,12.3,2.279-.032,39.411,2.279,44.114,2.092s17.453-4.893,17.453-4.893l-7.78-18.476Z" transform="translate(-211.784 -406.233)" fill="#ad1457"/>
                    </g>
                  </g>
                </g>
              </g>
            </g>
            <g id="Grupo_121989" data-name="Grupo 121989" transform="translate(28.297 11.679)">
              <g id="Grupo_121988" data-name="Grupo 121988" transform="translate(0)">
                <g id="Grupo_121987" data-name="Grupo 121987" transform="translate(0)">
                  <g id="Grupo_121986" data-name="Grupo 121986" transform="translate(0)">
                    <g id="Grupo_121985" data-name="Grupo 121985" transform="translate(0)">
                      <g id="Grupo_121984" data-name="Grupo 121984" transform="translate(0)">
                        <path id="Trazado_144216" data-name="Trazado 144216" d="M248.954,425.341c-.259.03-.545-2.7-2.138-5.565-1.552-2.894-3.689-4.607-3.524-4.809.1-.2,2.612,1.309,4.278,4.4C249.266,422.435,249.169,425.368,248.954,425.341Z" transform="translate(-243.283 -414.95)" fill="#263238"/>
                      </g>
                    </g>
                  </g>
                </g>
              </g>
            </g>
            <g id="Grupo_121995" data-name="Grupo 121995" transform="translate(34.649 9.839)">
              <g id="Grupo_121994" data-name="Grupo 121994" transform="translate(0)">
                <g id="Grupo_121993" data-name="Grupo 121993" transform="translate(0)">
                  <g id="Grupo_121992" data-name="Grupo 121992" transform="translate(0)">
                    <g id="Grupo_121991" data-name="Grupo 121991" transform="translate(0)">
                      <g id="Grupo_121990" data-name="Grupo 121990" transform="translate(0)">
                        <path id="Trazado_144217" data-name="Trazado 144217" d="M242.628,423.035c-.253.038-.718-2.4-2.024-5.115-1.28-2.727-2.878-4.628-2.689-4.8.145-.166,2.113,1.559,3.465,4.43C242.752,420.411,242.847,423.026,242.628,423.035Z" transform="translate(-237.9 -413.11)" fill="#263238"/>
                      </g>
                    </g>
                  </g>
                </g>
              </g>
            </g>
            <g id="Grupo_122001" data-name="Grupo 122001" transform="translate(40.651 8.199)">
              <g id="Grupo_122000" data-name="Grupo 122000" transform="translate(0)">
                <g id="Grupo_121999" data-name="Grupo 121999" transform="translate(0)">
                  <g id="Grupo_121998" data-name="Grupo 121998" transform="translate(0)">
                    <g id="Grupo_121997" data-name="Grupo 121997" transform="translate(0)">
                      <g id="Grupo_121996" data-name="Grupo 121996" transform="translate(0)">
                        <path id="Trazado_144218" data-name="Trazado 144218" d="M236.33,421.8c-.258-.021,0-2.582-1.077-5.452-1.027-2.889-2.872-4.682-2.688-4.865.107-.193,2.374,1.446,3.5,4.571C237.214,419.167,236.537,421.882,236.33,421.8Z" transform="translate(-232.552 -411.471)" fill="#263238"/>
                      </g>
                    </g>
                  </g>
                </g>
              </g>
            </g>
            <g id="Grupo_122007" data-name="Grupo 122007" transform="translate(43.2)">
              <g id="Grupo_122006" data-name="Grupo 122006" transform="translate(0)">
                <g id="Grupo_122005" data-name="Grupo 122005" transform="translate(0)">
                  <g id="Grupo_122004" data-name="Grupo 122004" transform="translate(0)">
                    <g id="Grupo_122003" data-name="Grupo 122003" transform="translate(0)">
                      <g id="Grupo_122002" data-name="Grupo 122002" transform="translate(0)">
                        <path id="Trazado_144219" data-name="Trazado 144219" d="M229.889,415.15a9.081,9.081,0,0,1-.465-3.833,18.027,18.027,0,0,1,.616-4.176,17.561,17.561,0,0,1,.818-2.366,2.87,2.87,0,0,1,.851-1.24,1.369,1.369,0,0,1,1.761.127,2.267,2.267,0,0,1,.652,1.468,10.055,10.055,0,0,1,.036,1.358,11.4,11.4,0,0,1-.374,2.507,15.263,15.263,0,0,1-1.67,3.889,10.339,10.339,0,0,1-2.377,3.039c-.115-.084.772-1.261,1.845-3.332a16.9,16.9,0,0,0,1.433-3.787,11.294,11.294,0,0,0,.3-2.341c-.005-.789.029-1.776-.424-2.165a.5.5,0,0,0-.678-.073,2.157,2.157,0,0,0-.583.885,18.9,18.9,0,0,0-.83,2.248,20.648,20.648,0,0,0-.77,3.994C229.828,413.674,230.029,415.133,229.889,415.15Z" transform="translate(-229.42 -403.271)" fill="#263238"/>
                      </g>
                    </g>
                  </g>
                </g>
              </g>
            </g>
            <g id="Grupo_122013" data-name="Grupo 122013" transform="translate(43.744 10.897)">
              <g id="Grupo_122012" data-name="Grupo 122012" transform="translate(0)">
                <g id="Grupo_122011" data-name="Grupo 122011" transform="translate(0)">
                  <g id="Grupo_122010" data-name="Grupo 122010" transform="translate(0)">
                    <g id="Grupo_122009" data-name="Grupo 122009" transform="translate(0)">
                      <g id="Grupo_122008" data-name="Grupo 122008" transform="translate(0)">
                        <path id="Trazado_144220" data-name="Trazado 144220" d="M223.406,414.629a7.206,7.206,0,0,1,3.325-.459,14.928,14.928,0,0,1,3.633.529,8.027,8.027,0,0,1,2.081.821,2.168,2.168,0,0,1,1.107,2.373,2.566,2.566,0,0,1-1.892,1.791,4.692,4.692,0,0,1-2.3-.059,8.833,8.833,0,0,1-3.3-1.716,9.016,9.016,0,0,1-2.334-2.4,22.647,22.647,0,0,1,2.693,1.915,9.124,9.124,0,0,0,3.119,1.435,4.064,4.064,0,0,0,1.9.017,1.742,1.742,0,0,0,1.278-1.193,1.324,1.324,0,0,0-.73-1.45,7.766,7.766,0,0,0-1.847-.768,17.22,17.22,0,0,0-3.446-.683C224.689,414.591,223.425,414.768,223.406,414.629Z" transform="translate(-223.406 -414.168)" fill="#263238"/>
                      </g>
                    </g>
                  </g>
                </g>
              </g>
            </g>
            <g id="Grupo_122019" data-name="Grupo 122019" transform="translate(22.723 13.687)">
              <g id="Grupo_122018" data-name="Grupo 122018" transform="translate(0)">
                <g id="Grupo_122017" data-name="Grupo 122017" transform="translate(0)">
                  <g id="Grupo_122016" data-name="Grupo 122016" transform="translate(0)">
                    <g id="Grupo_122015" data-name="Grupo 122015" transform="translate(0)">
                      <g id="Grupo_122014" data-name="Grupo 122014" transform="translate(0)">
                        <path id="Trazado_144221" data-name="Trazado 144221" d="M254.2,425.712c-.254-.035.048-2.224-.907-4.655-.907-2.45-2.59-3.882-2.423-4.077.089-.207,2.209,1.058,3.226,3.771C255.143,423.451,254.4,425.807,254.2,425.712Z" transform="translate(-250.858 -416.958)" fill="#263238"/>
                      </g>
                    </g>
                  </g>
                </g>
              </g>
            </g>
            <g id="Grupo_122025" data-name="Grupo 122025" transform="translate(6.672 25.609)">
              <g id="Grupo_122024" data-name="Grupo 122024" transform="translate(0)">
                <g id="Grupo_122023" data-name="Grupo 122023" transform="translate(0)">
                  <g id="Grupo_122022" data-name="Grupo 122022" transform="translate(0)">
                    <g id="Grupo_122021" data-name="Grupo 122021" transform="translate(0)">
                      <g id="Grupo_122020" data-name="Grupo 122020" transform="translate(0)">
                        <path id="Trazado_144222" data-name="Trazado 144222" d="M270.695,428.895a10.627,10.627,0,0,1-2.007.89,44.182,44.182,0,0,1-5.755,1.641,81.544,81.544,0,0,1-19.647,1.413c-7.694-.259-14.62-.767-19.645-1.082l-5.943-.451a10.711,10.711,0,0,1-2.173-.282,10.723,10.723,0,0,1,2.191-.052l5.957.178,19.636.83a91.881,91.881,0,0,0,19.5-1.15C267.744,429.933,270.639,428.735,270.695,428.895Z" transform="translate(-215.525 -428.88)" fill="#263238"/>
                      </g>
                    </g>
                  </g>
                </g>
              </g>
            </g>
            <g id="Grupo_122031" data-name="Grupo 122031" transform="translate(38.3 22.196)">
              <g id="Grupo_122030" data-name="Grupo 122030" transform="translate(0)">
                <g id="Grupo_122029" data-name="Grupo 122029" transform="translate(0)">
                  <g id="Grupo_122028" data-name="Grupo 122028" transform="translate(0)">
                    <g id="Grupo_122027" data-name="Grupo 122027" transform="translate(0)">
                      <g id="Grupo_122026" data-name="Grupo 122026" transform="translate(0)">
                        <path id="Trazado_144223" data-name="Trazado 144223" d="M239.065,430.1c-.072.117-1.459-.736-3.808-1.83a17.889,17.889,0,0,0-9.68-1.836c-3.884.505-6.686,3.042-8.513,4.806a30.124,30.124,0,0,1-3.028,2.955,15.953,15.953,0,0,1,2.591-3.378,20.419,20.419,0,0,1,3.477-3.106,12.217,12.217,0,0,1,5.357-2.129,16.987,16.987,0,0,1,10.065,2.143A13.63,13.63,0,0,1,239.065,430.1Z" transform="translate(-214.031 -425.467)" fill="#263238"/>
                      </g>
                    </g>
                  </g>
                </g>
              </g>
            </g>
          </g>
          <g id="Grupo_122035" data-name="Grupo 122035" transform="translate(9.71 15.133)">
            <g id="Grupo_122034" data-name="Grupo 122034" transform="translate(0)">
              <g id="Grupo_122033" data-name="Grupo 122033" transform="translate(0)">
                <path id="Trazado_144224" data-name="Trazado 144224" d="M265.578,431.152c-.091-.065.362-.734.794-1.924a9.4,9.4,0,0,0-1.489-9.238c-.785-.994-1.425-1.487-1.359-1.577.042-.068.8.288,1.732,1.253a8.759,8.759,0,0,1,1.572,9.752C266.249,430.627,265.639,431.2,265.578,431.152Z" transform="translate(-263.519 -418.405)" fill="#263238"/>
              </g>
            </g>
          </g>
        </g>
        <g id="Grupo_122038" data-name="Grupo 122038" transform="translate(11.224 47.199)">
          <g id="Grupo_122037" data-name="Grupo 122037" transform="translate(0)">
            <path id="Trazado_144225" data-name="Trazado 144225" d="M276.072,385.3a4.941,4.941,0,0,0,.455.7l1.39,1.94c.618.831,1.335,1.88,2.249,3.034l3.2,3.851c1.192,1.421,2.633,2.857,4.109,4.463,1.5,1.581,3.246,3.133,5.007,4.84a112.719,112.719,0,0,0,12.642,9.726,105.879,105.879,0,0,0,13.968,7.707,91.949,91.949,0,0,0,12.234,4.474c1.783.513,3.428.861,4.861,1.2,1.452.254,2.7.5,3.724.645l2.375.253a5.018,5.018,0,0,0,.831.052,5.1,5.1,0,0,0-.819-.157l-2.356-.348c-1.017-.179-2.254-.45-3.693-.73-1.422-.364-3.053-.736-4.821-1.269a96.345,96.345,0,0,1-12.138-4.557,109.207,109.207,0,0,1-13.88-7.7,116.792,116.792,0,0,1-12.608-9.648c-1.762-1.69-3.509-3.224-5.019-4.786-1.483-1.587-2.935-3-4.14-4.4l-3.246-3.79c-.934-1.133-1.672-2.162-2.314-2.974l-1.467-1.879A5.078,5.078,0,0,0,276.072,385.3Z" transform="translate(-276.071 -385.304)" fill="#455a64"/>
          </g>
        </g>
        <g id="Grupo_122040" data-name="Grupo 122040" transform="translate(143.123 42.72)">
          <g id="Grupo_122039" data-name="Grupo 122039" transform="translate(0)">
            <path id="Trazado_144226" data-name="Trazado 144226" d="M192.122,399.9c.073.045.886-1.247,2.336-3.232a61.338,61.338,0,0,1,13.52-13.506c1.986-1.449,3.278-2.26,3.234-2.333a4.342,4.342,0,0,0-.963.48c-.606.333-1.457.861-2.483,1.552a51.438,51.438,0,0,0-13.609,13.6c-.691,1.025-1.22,1.876-1.554,2.481A4.294,4.294,0,0,0,192.122,399.9Z" transform="translate(-192.119 -380.825)" fill="#455a64"/>
          </g>
        </g>
        <g id="Grupo_122042" data-name="Grupo 122042" transform="translate(80.707 33.177)">
          <g id="Grupo_122041" data-name="Grupo 122041" transform="translate(0)">
            <path id="Trazado_144227" data-name="Trazado 144227" d="M257.567,371.285c-.046.075,1.132.816,2.906,2.18a43.575,43.575,0,0,1,11.392,13.08c1.107,1.945,1.68,3.213,1.76,3.177a3.536,3.536,0,0,0-.312-.93,25.794,25.794,0,0,0-1.125-2.423,37.578,37.578,0,0,0-11.5-13.2,26.053,26.053,0,0,0-2.246-1.447A3.542,3.542,0,0,0,257.567,371.285Z" transform="translate(-257.565 -371.281)" fill="#455a64"/>
          </g>
        </g>
      </g>
      <g id="Grupo_122104" data-name="Grupo 122104" transform="translate(27.481 94.954)">
        <g id="Grupo_122044" data-name="Grupo 122044" transform="translate(0 7.109)">
          <path id="Trazado_144228" data-name="Trazado 144228" d="M214.088,355.45c-13.936-11.153-40.151-16.469-40.151-16.469s1.47-50.879,5.446-74.256q.144-.852.309-1.675c3.585-18.025,19.565-28.894,37.768-31.42l12.34-1.713,36.442,1.321,22.239,6.734s26.268,5.916,30.333,42.846c3.985,36.214,8.7,66.13,7.967,76.786-.516,7.521-7.469,12.884-11.322,13.764-3.49.8-7.92,1.544-11.689-.735a19.094,19.094,0,0,1,2.45,6.991H283.976l-17.434-15.33-15.931,11.423L229.269,364.7l-14.653-10.007m75.485-.735c-.01-.046-.024-.092-.033-.139-2.485-12.264-2.785-15.871-2.785-15.871s13.1-1.651,11-19.085l-2.036-15.091-13.075,43.935S286.22,350.2,290.1,353.957Z" transform="translate(-173.937 -229.917)" fill="#db6464"/>
        </g>
        <g id="Grupo_122046" data-name="Grupo 122046" transform="translate(43.983 101.03)" opacity="0.2">
          <g id="Grupo_122045" data-name="Grupo 122045" transform="translate(0)">
            <path id="Trazado_144229" data-name="Trazado 144229" d="M238.924,337.071l-4.077-10.287c4.505-1.924,6.111-1.993,10.976-2.581a52.826,52.826,0,0,1,37.05,9.658l-2.688,7.736.035.012-.044.015h0l-.09.031a13.417,13.417,0,0,1-6.145.066,11.064,11.064,0,0,0-5.192-.443c-2.232.555-3.825,2.484-5.829,3.612a9.1,9.1,0,0,1-11.979-3.441c-.925-1.7-1.78-4.057-3.714-4.018a4.125,4.125,0,0,0-2.464,1.308l-6.917,6.07c-2.772,2.433-5.549,4.869-8.516,7.06-3.484,2.572-7.5,4.875-11.829,4.744a4.516,4.516,0,0,1-4.523-4.283Z" transform="translate(-212.976 -323.838)"/>
          </g>
        </g>
        <g id="Grupo_122047" data-name="Grupo 122047" transform="translate(55.201)">
          <path id="Trazado_144230" data-name="Trazado 144230" d="M270.968,230.025l.64,10.5a25.351,25.351,0,0,1-1.639,10.638l-12.822,33.391s1.968-19.488-6.264-26.683S232.33,251.4,232.19,240.282c-.023-1.851.043-13.968.043-13.968l17.7-3.506Z" transform="translate(-232.185 -222.808)" fill="#ffbe9d"/>
        </g>
        <g id="Grupo_122049" data-name="Grupo 122049" transform="translate(28.454 12.671)">
          <g id="Grupo_122048" data-name="Grupo 122048" transform="translate(0)">
            <path id="Trazado_144231" data-name="Trazado 144231" d="M286.351,235.481a4.257,4.257,0,0,0,.669.371,16.906,16.906,0,0,1,1.884,1.091,19.419,19.419,0,0,1,5.448,5.771,23.91,23.91,0,0,1,3.532,11.166,55.166,55.166,0,0,1-.33,7c-.231,2.435-.469,4.954-.714,7.535-1.049,10.324-2.171,19.652-3.056,26.393-.438,3.371-.831,6.093-1.111,7.973-.134.9-.242,1.621-.323,2.166a4.309,4.309,0,0,0-.087.76,4.177,4.177,0,0,0,.191-.742c.107-.489.242-1.215.419-2.15.341-1.872.791-4.59,1.276-7.957.979-6.733,2.159-16.059,3.21-26.39.26-2.583.5-5.1.7-7.545a54.156,54.156,0,0,0,.3-7.076,23.978,23.978,0,0,0-3.7-11.336,18.925,18.925,0,0,0-5.648-5.742,13.678,13.678,0,0,0-1.95-1.017A4.105,4.105,0,0,0,286.351,235.481Z" transform="translate(-286.351 -235.479)" fill="#263238"/>
          </g>
        </g>
        <g id="Grupo_122051" data-name="Grupo 122051" transform="translate(30.331 87.587)">
          <g id="Grupo_122050" data-name="Grupo 122050" transform="translate(0)">
            <path id="Trazado_144232" data-name="Trazado 144232" d="M259.42,358.034a.741.741,0,0,0,.2-.069l.569-.245c.5-.221,1.239-.548,2.17-1.019,1.879-.914,4.559-2.339,7.875-4.17,6.631-3.666,15.781-9,26.1-15.241l.188-.114-.086-.2-3.713-8.9c-1.256-3.062-2.468-6.064-3.6-8.981-.564-1.459-1.109-2.9-1.612-4.315-.251-.709-.494-1.413-.711-2.112-.108-.35-.21-.7-.3-1.045-.043-.173-.08-.345-.107-.513a2.12,2.12,0,0,1-.024-.236c0-.04.005-.056,0-.086,0,0,0,.008-.005.009s-.045.068-.085.064l-.177-.452c-4.468,1.986-8.448,4.146-11.983,6.089s-6.629,3.687-9.222,5.073-4.672,2.438-6.105,3.14l-1.644.8a3.788,3.788,0,0,0-.557.3,3.613,3.613,0,0,0,.59-.224c.382-.163.951-.4,1.678-.729,1.456-.658,3.563-1.667,6.177-3.021s5.733-3.056,9.279-4.977,7.531-4.046,11.982-6l-.176-.452a.4.4,0,0,0-.18.157.9.9,0,0,0-.05.137,1.363,1.363,0,0,0-.013.184,2.561,2.561,0,0,0,.028.3c.031.191.07.375.114.556.089.362.191.719.3,1.074.218.711.459,1.42.709,2.134.5,1.426,1.045,2.869,1.607,4.332,1.127,2.925,2.338,5.93,3.6,8.994l3.723,8.9.1-.319c-10.3,6.259-19.42,11.645-26,15.387-3.291,1.868-5.943,3.338-7.793,4.3-.917.5-1.641.849-2.127,1.1l-.55.287A.708.708,0,0,0,259.42,358.034Z" transform="translate(-256.604 -310.395)" fill="#263238"/>
          </g>
        </g>
        <g id="Grupo_122053" data-name="Grupo 122053" transform="translate(122.73 43.463)">
          <g id="Grupo_122052" data-name="Grupo 122052" transform="translate(0)">
            <path id="Trazado_144233" data-name="Trazado 144233" d="M201.824,303.771a8.2,8.2,0,0,0,.357-1.44c.2-.933.447-2.293.708-3.98a109.041,109.041,0,0,0,.758-26.609c-.165-1.7-.332-3.07-.48-4.013a7.989,7.989,0,0,0-.275-1.458,8.228,8.228,0,0,0,.074,1.481c.086.949.2,2.322.314,4.02.238,3.394.427,8.094.282,13.284s-.607,9.869-1.038,13.245c-.214,1.687-.4,3.053-.543,3.995A7.978,7.978,0,0,0,201.824,303.771Z" transform="translate(-201.814 -266.271)" fill="#263238"/>
          </g>
        </g>
        <g id="Grupo_122055" data-name="Grupo 122055" transform="translate(124.887 89.343)">
          <g id="Grupo_122054" data-name="Grupo 122054" transform="translate(0)">
            <path id="Trazado_144234" data-name="Trazado 144234" d="M176.722,312.152a8.94,8.94,0,0,0,.939,1.257l2.7,3.311c2.348,2.855,5.483,6.667,8.948,10.882,3.448,4.231,6.566,8.059,8.9,10.924,1.1,1.339,2.012,2.45,2.712,3.3A8.949,8.949,0,0,0,201.967,343a9.151,9.151,0,0,0-.888-1.294c-.6-.813-1.48-1.976-2.582-3.4-2.2-2.856-5.3-6.765-8.786-11.026s-6.705-8.065-9.069-10.79c-1.182-1.363-2.148-2.457-2.827-3.2A9.046,9.046,0,0,0,176.722,312.152Z" transform="translate(-176.72 -312.151)" fill="#263238"/>
          </g>
        </g>
        <g id="Grupo_122057" data-name="Grupo 122057" transform="translate(114.828 121.713)">
          <g id="Grupo_122056" data-name="Grupo 122056" transform="translate(0)">
            <path id="Trazado_144235" data-name="Trazado 144235" d="M195.453,344.521a5.8,5.8,0,0,0,.046,1.261,12.673,12.673,0,0,0,.174,1.469c.095.569.174,1.224.355,1.929a31.479,31.479,0,0,0,1.5,4.885,32.964,32.964,0,0,0,6.711,10.5,31.525,31.525,0,0,0,3.8,3.41c.563.461,1.125.807,1.6,1.133a12.881,12.881,0,0,0,1.26.775,5.858,5.858,0,0,0,1.125.571c.054-.089-1.517-.963-3.759-2.768a35.119,35.119,0,0,1-3.68-3.449,34.87,34.87,0,0,1-6.618-10.355,35.091,35.091,0,0,1-1.583-4.789C195.69,346.3,195.557,344.51,195.453,344.521Z" transform="translate(-195.435 -344.521)" fill="#263238"/>
          </g>
        </g>
        <g id="Grupo_122059" data-name="Grupo 122059" transform="translate(49.002 5.916)">
          <g id="Grupo_122058" data-name="Grupo 122058" transform="translate(0)">
            <path id="Trazado_144236" data-name="Trazado 144236" d="M250.755,228.724a4.424,4.424,0,0,0-.372.686c-.219.462-.577,1.13-.956,2.026a37.813,37.813,0,0,0-2.272,7.914,39.218,39.218,0,0,0-.1,12.2A38.74,38.74,0,0,0,252,265.643c.495.765.971,1.535,1.467,2.272.537.709,1.064,1.407,1.578,2.087l.135.179.2-.123a14.412,14.412,0,0,1,12.36-1.108,14.991,14.991,0,0,1,4.7,2.888,14.812,14.812,0,0,1,5.192,10.185c.154,1.624.113,2.526.165,2.526a3.34,3.34,0,0,0,.05-.654,17.658,17.658,0,0,0-.03-1.889,15.381,15.381,0,0,0-1.978-6.7,15.944,15.944,0,0,0-3.13-3.776,15.234,15.234,0,0,0-4.8-3.01,14.807,14.807,0,0,0-12.792,1.1l.335.056-1.551-2.059c-.489-.727-.957-1.486-1.445-2.24a38.8,38.8,0,0,1-4.911-13.893,39.828,39.828,0,0,1-.015-12.075,40.7,40.7,0,0,1,2.1-7.9c.348-.9.675-1.58.863-2.055A4.459,4.459,0,0,0,250.755,228.724Z" transform="translate(-246.629 -228.724)" fill="#263238"/>
          </g>
        </g>
        <g id="Grupo_122061" data-name="Grupo 122061" transform="translate(82.227 7.87)">
          <g id="Grupo_122060" data-name="Grupo 122060" transform="translate(0)">
            <path id="Trazado_144237" data-name="Trazado 144237" d="M221.249,280.061a3.154,3.154,0,0,0,.321-.566l.827-1.668c.71-1.451,1.7-3.57,3.038-6.122a39.442,39.442,0,0,1,5.628-8.335,18.057,18.057,0,0,1,4.652-3.592,15.394,15.394,0,0,1,6.065-1.592c.861-.017,1.718.045,2.52.06l.329.006-.047-.3a71.27,71.27,0,0,0-2.812-11.216,85.775,85.775,0,0,0-3.4-8.7,46.094,46.094,0,0,0-2.948-5.511,16.35,16.35,0,0,0-.961-1.392,2.6,2.6,0,0,0-.374-.454c-.044.032.442.678,1.17,1.947a54.463,54.463,0,0,1,2.79,5.555c1.06,2.413,2.2,5.354,3.283,8.7a73.673,73.673,0,0,1,2.742,11.146l.282-.3c-.825-.018-1.706-.082-2.593-.063a15.788,15.788,0,0,0-6.277,1.659,18.352,18.352,0,0,0-4.768,3.717,38.476,38.476,0,0,0-5.6,8.493c-1.3,2.586-2.241,4.73-2.895,6.207l-.738,1.708A3.068,3.068,0,0,0,221.249,280.061Z" transform="translate(-221.247 -230.678)" fill="#263238"/>
          </g>
        </g>
        <g id="Grupo_122063" data-name="Grupo 122063" transform="translate(46.815 20.587)" opacity="0.2">
          <g id="Grupo_122062" data-name="Grupo 122062" transform="translate(0)">
            <path id="Trazado_144238" data-name="Trazado 144238" d="M280.019,283.88c-1.117-3.509-2.514-4.758-4.432-6.59a9.848,9.848,0,0,0-7.127-3.007c-2.221.125-4.3,1.257-6.529,1.3-2.587.051-4.98-1.378-6.937-3.071a25.232,25.232,0,0,1-6.071-29.119,39.537,39.537,0,0,0,8.695,26.491,15.137,15.137,0,0,1,15.332.36,15.639,15.639,0,0,1,7.069,13.634" transform="translate(-246.661 -243.395)"/>
          </g>
        </g>
        <g id="Grupo_122065" data-name="Grupo 122065" transform="translate(18.654 81.913)">
          <g id="Grupo_122064" data-name="Grupo 122064" transform="translate(0)">
            <path id="Trazado_144239" data-name="Trazado 144239" d="M308.186,304.721a7.386,7.386,0,0,0-.268,1.39c-.142,1-.323,2.279-.54,3.813-.434,3.223-1,7.68-1.587,12.606-.11.93-.219,1.843-.322,2.716l.2-.221a28.59,28.59,0,0,0-10,4.264,24.751,24.751,0,0,0-2.551,1.973,5,5,0,0,0-.826.83c.057.067,1.272-1.062,3.564-2.518a30.3,30.3,0,0,1,9.922-4.045l.18-.038.022-.183c.105-.873.216-1.786.328-2.716.59-4.926,1.1-9.39,1.435-12.624.151-1.542.277-2.829.376-3.833A7.343,7.343,0,0,0,308.186,304.721Z" transform="translate(-292.291 -304.721)" fill="#263238"/>
          </g>
        </g>
        <g id="Grupo_122067" data-name="Grupo 122067" transform="translate(65.921 114.987)">
          <g id="Grupo_122066" data-name="Grupo 122066" transform="translate(0)">
            <path id="Trazado_144240" data-name="Trazado 144240" d="M214.749,350.056a2.113,2.113,0,0,0,.518.166l1.512.377c1.319.3,3.242.675,5.642,1a71.039,71.039,0,0,0,18.874-.1,69.692,69.692,0,0,0,10.182-2.2c1.53-.482,2.985-.9,4.317-1.466a6.978,6.978,0,0,0,3.124-2.5,9.882,9.882,0,0,0,1.346-3.011,18.214,18.214,0,0,0,.484-2.427c.092-.671.138-1.2.165-1.55a2.178,2.178,0,0,0,.011-.545c-.042-.005-.137.738-.376,2.063a20.635,20.635,0,0,1-.563,2.378,9.824,9.824,0,0,1-1.368,2.88,6.644,6.644,0,0,1-2.994,2.317c-1.29.53-2.764.938-4.281,1.4a73.081,73.081,0,0,1-10.119,2.143,75.9,75.9,0,0,1-18.758.256c-2.393-.276-4.318-.6-5.646-.833l-1.529-.28A2.186,2.186,0,0,0,214.749,350.056Z" transform="translate(-214.749 -337.795)" fill="#263238"/>
          </g>
        </g>
        <g id="Grupo_122069" data-name="Grupo 122069" transform="translate(86.803 128.835)">
          <g id="Grupo_122068" data-name="Grupo 122068" transform="translate(0)">
            <path id="Trazado_144241" data-name="Trazado 144241" d="M233.276,351.656c-.025.089.69.289,1.7.878a9.772,9.772,0,0,1,4.712,7.364c.113,1.161-.006,1.893.086,1.908a4.1,4.1,0,0,0,.281-1.931,9.023,9.023,0,0,0-4.9-7.665A4.1,4.1,0,0,0,233.276,351.656Z" transform="translate(-233.276 -351.643)" fill="#263238"/>
          </g>
        </g>
        <g id="Grupo_122071" data-name="Grupo 122071" transform="translate(80.253 60.859)">
          <g id="Grupo_122070" data-name="Grupo 122070" transform="translate(0)">
            <path id="Trazado_144242" data-name="Trazado 144242" d="M240.981,283.667a3.632,3.632,0,0,0-.117.7c-.059.51-.137,1.175-.234,2-.183,1.742-.422,4.265-.637,7.39-.448,6.247-.783,14.9-.549,24.464.111,4.78.345,9.33.65,13.461a54.785,54.785,0,0,0,1.649,10.894,22.2,22.2,0,0,0,3.081,6.756A14.759,14.759,0,0,0,246.1,350.9a3.492,3.492,0,0,0,.5.495c.046-.041-.642-.731-1.609-2.18a23.214,23.214,0,0,1-2.894-6.739,56.824,56.824,0,0,1-1.525-10.831c-.279-4.126-.5-8.668-.609-13.439-.233-9.541.044-18.184.4-24.429.168-3.124.351-5.649.471-7.4.056-.831.1-1.5.137-2.011A3.6,3.6,0,0,0,240.981,283.667Z" transform="translate(-239.367 -283.667)" fill="#263238"/>
          </g>
        </g>
        <g id="Grupo_122073" data-name="Grupo 122073" transform="translate(127.167 55.441)">
          <g id="Grupo_122072" data-name="Grupo 122072" transform="translate(0)">
            <path id="Trazado_144243" data-name="Trazado 144243" d="M182.874,278.3a68.553,68.553,0,0,0,8.387.921,68.589,68.589,0,0,0,8.428.4,68.633,68.633,0,0,0-8.388-.922A68.433,68.433,0,0,0,182.874,278.3Z" transform="translate(-182.874 -278.249)" fill="#fff"/>
          </g>
        </g>
        <g id="Grupo_122075" data-name="Grupo 122075" transform="translate(82.257 67.323)">
          <g id="Grupo_122074" data-name="Grupo 122074" transform="translate(0)">
            <path id="Trazado_144244" data-name="Trazado 144244" d="M203.334,296a10.222,10.222,0,0,0,1.634.31c1.057.177,2.6.352,4.509.495s4.194.21,6.729.158a71.042,71.042,0,0,0,16.3-2.318c2.449-.656,4.626-1.35,6.419-2.027s3.226-1.267,4.192-1.731a10.121,10.121,0,0,0,1.482-.754,10.1,10.1,0,0,0-1.562.567c-.987.406-2.434.949-4.236,1.571s-3.975,1.283-6.414,1.91c-2.446.6-5.161,1.163-8.038,1.581-2.879.4-5.641.617-8.158.721-2.517.078-4.788.057-6.692-.046s-3.445-.214-4.506-.328A10.09,10.09,0,0,0,203.334,296Z" transform="translate(-203.334 -290.132)" fill="#fff"/>
          </g>
        </g>
        <g id="Grupo_122077" data-name="Grupo 122077" transform="translate(40.143 58.168)">
          <g id="Grupo_122076" data-name="Grupo 122076" transform="translate(0)">
            <path id="Trazado_144245" data-name="Trazado 144245" d="M245.565,280.979a10.3,10.3,0,0,0,1.43.9c.933.561,2.324,1.3,4.075,2.157s3.881,1.777,6.291,2.687a74.605,74.605,0,0,0,16.238,4.051c2.557.328,4.871.521,6.818.582s3.523.068,4.61.011a10.456,10.456,0,0,0,1.686-.126,10.583,10.583,0,0,0-1.688-.077c-1.085-.005-2.656-.059-4.59-.175s-4.233-.338-6.77-.69c-2.533-.378-5.3-.893-8.173-1.6-2.866-.724-5.553-1.57-7.966-2.426-2.4-.881-4.541-1.757-6.3-2.571s-3.174-1.5-4.134-2A10.568,10.568,0,0,0,245.565,280.979Z" transform="translate(-245.565 -280.977)" fill="#fff"/>
          </g>
        </g>
        <g id="Grupo_122079" data-name="Grupo 122079" transform="translate(6.704 37.361)">
          <g id="Grupo_122078" data-name="Grupo 122078" transform="translate(0)">
            <path id="Trazado_144246" data-name="Trazado 144246" d="M287.833,260.221a6.606,6.606,0,0,0,1.328.151c.855.056,2.091.164,3.612.332a72.2,72.2,0,0,1,22.909,6.427c1.386.648,2.5,1.2,3.257,1.6a6.562,6.562,0,0,0,1.212.561,6.6,6.6,0,0,0-1.114-.739c-.731-.452-1.822-1.055-3.2-1.749a63.094,63.094,0,0,0-23.034-6.462c-1.534-.121-2.778-.174-3.639-.168A6.53,6.53,0,0,0,287.833,260.221Z" transform="translate(-287.833 -260.169)" fill="#fff"/>
          </g>
        </g>
        <g id="Grupo_122081" data-name="Grupo 122081" transform="translate(2.126 78.342)">
          <g id="Grupo_122080" data-name="Grupo 122080" transform="translate(0)">
            <path id="Trazado_144247" data-name="Trazado 144247" d="M291.775,302.152a6.438,6.438,0,0,0,1.31-.063c.837-.08,2.05-.177,3.549-.271a87.3,87.3,0,0,1,23.332,1.624c1.471.3,2.659.565,3.476.761a6.343,6.343,0,0,0,1.288.243,6.357,6.357,0,0,0-1.235-.439c-.8-.256-1.983-.576-3.451-.924A73.6,73.6,0,0,0,296.6,301.45c-1.5.142-2.713.3-3.545.438A6.258,6.258,0,0,0,291.775,302.152Z" transform="translate(-291.775 -301.15)" fill="#fff"/>
          </g>
        </g>
        <g id="Grupo_122083" data-name="Grupo 122083" transform="translate(31.32 102.519)">
          <g id="Grupo_122082" data-name="Grupo 122082" transform="translate(0)">
            <path id="Trazado_144248" data-name="Trazado 144248" d="M295.293,351.733c.087-.029-.39-1.461-.9-3.83a42.418,42.418,0,0,1,.165-18.763c.556-2.36,1.057-3.783.971-3.813a4.119,4.119,0,0,0-.436.969,26.8,26.8,0,0,0-.892,2.754,37.548,37.548,0,0,0-.167,18.937,26.965,26.965,0,0,0,.843,2.769A4.169,4.169,0,0,0,295.293,351.733Z" transform="translate(-292.9 -325.327)" fill="#fff"/>
          </g>
        </g>
        <g id="Grupo_122085" data-name="Grupo 122085" transform="translate(129.974 93.972)">
          <g id="Grupo_122084" data-name="Grupo 122084">
            <path id="Trazado_144249" data-name="Trazado 144249" d="M177.544,316.915a21.876,21.876,0,0,0,2.885.239,62.965,62.965,0,0,1,13.665,2.45,21.619,21.619,0,0,0,2.788.778,12.693,12.693,0,0,0-2.676-1.128,45.487,45.487,0,0,0-13.761-2.468A12.63,12.63,0,0,0,177.544,316.915Z" transform="translate(-177.544 -316.78)" fill="#fff"/>
          </g>
        </g>
        <g id="Grupo_122087" data-name="Grupo 122087" transform="translate(122.966 109.676)">
          <g id="Grupo_122086" data-name="Grupo 122086" transform="translate(0)">
            <path id="Trazado_144250" data-name="Trazado 144250" d="M184.4,358.9a1.078,1.078,0,0,0,.381.029,10.55,10.55,0,0,0,1.091-.035,18.02,18.02,0,0,0,3.946-.755,19.658,19.658,0,0,0,14.019-20.325,18.058,18.058,0,0,0-.7-3.957,10.6,10.6,0,0,0-.355-1.032c-.09-.233-.146-.351-.163-.345a30.063,30.063,0,0,1,.846,5.353,19.844,19.844,0,0,1-13.764,19.956A30.261,30.261,0,0,1,184.4,358.9Z" transform="translate(-184.4 -332.484)" fill="#fff"/>
          </g>
        </g>
        <g id="Grupo_122089" data-name="Grupo 122089" transform="translate(100.226 137.856)">
          <g id="Grupo_122088" data-name="Grupo 122088" transform="translate(0)">
            <path id="Trazado_144251" data-name="Trazado 144251" d="M207.692,365.471a91.726,91.726,0,0,0,9.533-2.144,91.506,91.506,0,0,0,9.4-2.65,92.079,92.079,0,0,0-9.533,2.145A91.843,91.843,0,0,0,207.692,365.471Z" transform="translate(-207.692 -360.664)" fill="#fff"/>
          </g>
        </g>
        <g id="Grupo_122091" data-name="Grupo 122091" transform="translate(46.811 132.793)">
          <g id="Grupo_122090" data-name="Grupo 122090" transform="translate(0)">
            <path id="Trazado_144252" data-name="Trazado 144252" d="M244.471,355.605a7.751,7.751,0,0,0,1.285.71c.841.43,2.078,1.01,3.624,1.69a108.345,108.345,0,0,0,25.243,7.515c1.666.277,3.019.468,3.958.567a7.835,7.835,0,0,0,1.464.11,7.961,7.961,0,0,0-1.435-.31c-.928-.161-2.269-.407-3.921-.729-3.3-.641-7.845-1.662-12.769-3.125s-9.28-3.1-12.4-4.367c-1.559-.634-2.817-1.162-3.682-1.535A8.027,8.027,0,0,0,244.471,355.605Z" transform="translate(-244.471 -355.602)" fill="#fff"/>
          </g>
        </g>
        <g id="Grupo_122093" data-name="Grupo 122093" transform="translate(82.293 104.103)">
          <g id="Grupo_122092" data-name="Grupo 122092" transform="translate(0)">
            <path id="Trazado_144253" data-name="Trazado 144253" d="M214.12,327.119a5.415,5.415,0,0,0,1.156.366c.752.208,1.854.456,3.225.712a58.417,58.417,0,0,0,21.695-.142c1.368-.274,2.467-.535,3.216-.754a5.374,5.374,0,0,0,1.151-.381,5.453,5.453,0,0,0-1.2.184c-.761.157-1.866.363-3.234.589a68.129,68.129,0,0,1-21.569.14c-1.371-.208-2.479-.4-3.242-.546A5.454,5.454,0,0,0,214.12,327.119Z" transform="translate(-214.12 -326.911)" fill="#fff"/>
          </g>
        </g>
        <g id="Grupo_122095" data-name="Grupo 122095" transform="translate(66.575 104.452)">
          <g id="Grupo_122094" data-name="Grupo 122094" transform="translate(0)">
            <path id="Trazado_144254" data-name="Trazado 144254" d="M246.965,327.276a5.948,5.948,0,0,0,1.837.779,21.156,21.156,0,0,0,9.547.7,6,6,0,0,0,1.931-.5,55.9,55.9,0,0,1-6.707.184A55.729,55.729,0,0,1,246.965,327.276Z" transform="translate(-246.965 -327.26)" fill="#fff"/>
          </g>
        </g>
        <g id="Grupo_122097" data-name="Grupo 122097" transform="translate(101.3 18.479)">
          <g id="Grupo_122096" data-name="Grupo 122096" transform="translate(0)">
            <path id="Trazado_144255" data-name="Trazado 144255" d="M201.131,241.314c-.007.083,1.427.239,3.72.622a66.336,66.336,0,0,1,17.284,5.353c2.108.979,3.379,1.661,3.42,1.589a3.841,3.841,0,0,0-.838-.578c-.555-.346-1.381-.808-2.421-1.343a53.784,53.784,0,0,0-17.391-5.385c-1.16-.147-2.1-.233-2.756-.26A3.807,3.807,0,0,0,201.131,241.314Z" transform="translate(-201.131 -241.287)" fill="#fff"/>
          </g>
        </g>
        <g id="Grupo_122099" data-name="Grupo 122099" transform="translate(94.532 22.497)">
          <g id="Grupo_122098" data-name="Grupo 122098" transform="translate(0)">
            <path id="Trazado_144256" data-name="Trazado 144256" d="M227.978,245.305a35.958,35.958,0,0,0,4.335,11.5c.135-.066-.986-2.578-2.176-5.749S228.124,245.265,227.978,245.305Z" transform="translate(-227.96 -245.305)" fill="#fff"/>
          </g>
        </g>
        <g id="Grupo_122101" data-name="Grupo 122101" transform="translate(63.121 29.823)">
          <g id="Grupo_122100" data-name="Grupo 122100" transform="translate(0)">
            <path id="Trazado_144257" data-name="Trazado 144257" d="M261.93,252.631c-.151.034.528,3.364.979,7.519s.526,7.551.68,7.551a8.482,8.482,0,0,0,.145-2.23,51.322,51.322,0,0,0-1.178-10.694A8.587,8.587,0,0,0,261.93,252.631Z" transform="translate(-261.909 -252.631)" fill="#fff"/>
          </g>
        </g>
        <g id="Grupo_122103" data-name="Grupo 122103" transform="translate(51.157 23.176)">
          <g id="Grupo_122102" data-name="Grupo 122102" transform="translate(0)">
            <path id="Trazado_144258" data-name="Trazado 144258" d="M271.491,252.993c.15.043.7-1.721,1.863-3.644,1.149-1.933,2.448-3.247,2.339-3.359a10.85,10.85,0,0,0-4.2,7Z" transform="translate(-271.465 -245.984)" fill="#fff"/>
          </g>
        </g>
      </g>
      <g id="Grupo_122120" data-name="Grupo 122120" transform="translate(88.048 152.09)">
        <g id="Grupo_122105" data-name="Grupo 122105" transform="translate(54.194 18.215)">
          <path id="Trazado_144259" data-name="Trazado 144259" d="M211.424,317.987a26.723,26.723,0,0,1,.1-9.851,17.816,17.816,0,0,0,.466-5.942c-.282-1.967-2.007-4.107-3.993-4.034l-3.6,14.193Z" transform="translate(-204.404 -298.158)" fill="#ffbe9d"/>
        </g>
        <g id="Grupo_122110" data-name="Grupo 122110" transform="translate(23.783)">
          <g id="Grupo_122106" data-name="Grupo 122106" transform="translate(0)">
            <path id="Trazado_144260" data-name="Trazado 144260" d="M242.423,284.308l-12.7,50.167-24.817-2.6,9.548-49.756a2.687,2.687,0,0,1,2.76-2.178l22.721,1.018A2.687,2.687,0,0,1,242.423,284.308Z" transform="translate(-204.909 -279.943)" fill="#263238"/>
          </g>
          <g id="Grupo_122108" data-name="Grupo 122108" transform="translate(8.953 2.435)">
            <g id="Grupo_122107" data-name="Grupo 122107" transform="translate(0)">
              <path id="Trazado_144261" data-name="Trazado 144261" d="M204.916,296.243a8.66,8.66,0,0,0,.442-1.473c.263-1.05.605-2.415,1.016-4.059.418-1.748.9-3.787,1.442-6.035a6.982,6.982,0,0,1,.215-.817,1.605,1.605,0,0,1,.468-.62,1.571,1.571,0,0,1,.72-.328,4.421,4.421,0,0,1,.887,0l3.93.155c5.388.2,10.266.36,13.8.447l4.184.076a8.71,8.71,0,0,0,1.536-.043,8.619,8.619,0,0,0-1.528-.159l-4.178-.242c-3.528-.181-8.4-.395-13.791-.6l-3.931-.144a4.8,4.8,0,0,0-1,.016,2.094,2.094,0,0,0-1.549,1.258,7.038,7.038,0,0,0-.231.9c-.5,2.257-.947,4.3-1.333,6.06-.346,1.658-.633,3.036-.854,4.1A8.683,8.683,0,0,0,204.916,296.243Z" transform="translate(-204.909 -282.378)" fill="#455a64"/>
            </g>
          </g>
          <g id="Grupo_122109" data-name="Grupo 122109" transform="translate(22.598 5.078)">
            <path id="Trazado_144262" data-name="Trazado 144262" d="M217.55,285.777a1.234,1.234,0,0,1,1.517-.675,1.22,1.22,0,0,1,.841,1.027,1.392,1.392,0,0,1-.739,1.235,1.269,1.269,0,0,1-1.41-.2A1.166,1.166,0,0,1,217.55,285.777Z" transform="translate(-217.407 -285.021)" fill="#fafafa"/>
          </g>
        </g>
        <g id="Grupo_122111" data-name="Grupo 122111" transform="translate(27.7 20.543)">
          <path id="Trazado_144263" data-name="Trazado 144263" d="M217.573,301.083c.566.171,13.44,7.539,13.44,7.539l6.556,7.542s2.294,4.3,0,10.754-5.676,8.61-13.327,10.153l-14.208-2.881-10-6.228,2.951-11.309,9.833,7.867,5.573.983.919-1.8-8.031-4.624-12.556-10.619,3.934-4.261,11.636,7.539,9.947,4.917-1.424-4.1-11.537-9.343S210.526,298.952,217.573,301.083Z" transform="translate(-198.725 -300.486)" fill="#ffbe9d"/>
        </g>
        <g id="Grupo_122119" data-name="Grupo 122119" transform="translate(0 10.677)">
          <g id="Grupo_122112" data-name="Grupo 122112" transform="translate(0 0.229)">
            <path id="Trazado_144264" data-name="Trazado 144264" d="M259.382,294.085s-2.673-1.688-7.317,0-10.574,4.287-10.574,4.287l-8.844,2.114,1.126-2.114s8.583,1.248,8.443-5.037h-5.207l-4.362-2.486L223.5,299.01l-4.081,10.272-5.629,4.293,6.858,17.529,14.531-2.4,12.383,1.267,6.484-4.784.973-6.4,6.4-5.979s.914-3.1-1.9-3.518-9.916,6.04-9.916,6.04l-6.829-.13s-1.125-1.126-.14-1.689,21.529-9.571,22.514-11.751,1.97-3.586,0-4.29-5.347.282-5.347.282S260.876,294.634,259.382,294.085Z" transform="translate(-213.791 -290.849)" fill="#ffbe9d"/>
          </g>
          <g id="Grupo_122114" data-name="Grupo 122114" transform="translate(28.428 7.032)">
            <g id="Grupo_122113" data-name="Grupo 122113" transform="translate(0)">
              <path id="Trazado_144265" data-name="Trazado 144265" d="M219.786,305.712a94.253,94.253,0,0,0,9.143-3.789,94.5,94.5,0,0,0,8.931-4.264,94.373,94.373,0,0,0-9.143,3.789A93.908,93.908,0,0,0,219.786,305.712Z" transform="translate(-219.785 -297.652)" fill="#eb996e"/>
            </g>
          </g>
          <g id="Grupo_122116" data-name="Grupo 122116" transform="translate(23.675 22.118)">
            <g id="Grupo_122115" data-name="Grupo 122115">
              <path id="Trazado_144266" data-name="Trazado 144266" d="M219.242,321.6a4.165,4.165,0,0,0,1.01.375c.661.2,1.621.49,2.834.757a19.123,19.123,0,0,0,4.347.493,12.778,12.778,0,0,0,5.235-1.2,22.631,22.631,0,0,0,7.509-6.1c.8-.943,1.417-1.735,1.833-2.287a4.319,4.319,0,0,0,.6-.893c-.063-.052-1.054,1.115-2.71,2.936a24.21,24.21,0,0,1-7.45,5.865,12.766,12.766,0,0,1-5.03,1.2,20.737,20.737,0,0,1-4.264-.375C220.745,321.907,219.263,321.51,219.242,321.6Z" transform="translate(-219.242 -312.738)" fill="#eb996e"/>
            </g>
          </g>
          <g id="Grupo_122118" data-name="Grupo 122118" transform="translate(0)">
            <g id="Grupo_122117" data-name="Grupo 122117" transform="translate(0)">
              <path id="Trazado_144267" data-name="Trazado 144267" d="M213.536,313.575s.134-.081.381-.259l1.1-.8,4.211-3.153.021-.016.011-.025c1.076-2.673,2.468-6.127,4.13-10.253l-.04.057,9.171-8.134-.216.023,4.356,2.5.045.026h.053l5.206.011-.209-.205a4.861,4.861,0,0,1-.609,2.506,4.438,4.438,0,0,1-2,1.694,11.245,11.245,0,0,1-5.587.606l-.162-.017-.073.136-1.129,2.113-.242.454.5-.119,8.847-2.1.02-.005.021-.009c2.745-1.188,5.595-2.375,8.539-3.513a21,21,0,0,1,4.518-1.389,7.708,7.708,0,0,1,4.6.61l.04.021.009,0c.464.163.645.775.623,1.4a7,7,0,0,1-.356,1.928l-.148.458.464-.126a14.872,14.872,0,0,1,2.97-.5,4.471,4.471,0,0,1,2.84.551,1.013,1.013,0,0,1,.269,1.18,9.323,9.323,0,0,1-.581,1.441,4.683,4.683,0,0,1-.737,1.318,9.176,9.176,0,0,1-1.254.941,122.181,122.181,0,0,1-11.427,5.956l-5.684,2.655-2.8,1.292-.7.329a1.385,1.385,0,0,0-.7.58,1.1,1.1,0,0,0,.043.949,2.657,2.657,0,0,0,.483.691l.068.072.106,0,6.828.124.1,0,.075-.066a41.591,41.591,0,0,1,6.688-5.005c1.164-.621,2.46-1.3,3.626-.826a1.8,1.8,0,0,1,1.148,1.252,3.678,3.678,0,0,1-.03,1.811l.063-.1-6.392,5.99-.054.05-.011.073q-.5,3.319-.96,6.406l.078-.13-6.472,4.8.124-.034-12.387-1.223-.019,0-.017,0-10.751,1.843-2.8.5-.714.137a1.3,1.3,0,0,0-.239.058,1.223,1.223,0,0,0,.245-.022l.72-.1,2.816-.43,10.772-1.717h-.036l12.378,1.309.069.007.056-.041,6.5-4.768.066-.048.012-.082.987-6.4-.065.123,6.413-5.968.048-.045.014-.057a4.108,4.108,0,0,0,.038-2.061,2.52,2.52,0,0,0-.511-.959,2.366,2.366,0,0,0-.912-.6,3.155,3.155,0,0,0-2.122-.013,10.436,10.436,0,0,0-1.9.857,41.863,41.863,0,0,0-6.79,5.056l.17-.064-6.828-.136.173.074c-.3-.308-.573-.8-.428-1.062.127-.258.73-.447,1.157-.671l2.8-1.288,5.691-2.652a121.746,121.746,0,0,0,11.491-5.987,9.654,9.654,0,0,0,1.334-1.006,2.05,2.05,0,0,0,.5-.74l.341-.728a9.735,9.735,0,0,0,.614-1.532,2.1,2.1,0,0,0,.058-.9,1.305,1.305,0,0,0-.5-.809,4.9,4.9,0,0,0-3.2-.666,15.275,15.275,0,0,0-3.085.527l.317.332a7.453,7.453,0,0,0,.383-2.089,2.782,2.782,0,0,0-.165-1.076,1.4,1.4,0,0,0-.8-.819l.048.024a8.138,8.138,0,0,0-4.944-.679,21.34,21.34,0,0,0-4.628,1.424c-2.953,1.146-5.8,2.339-8.553,3.536l.041-.014-8.842,2.126.259.334,1.123-2.116-.235.119a11.657,11.657,0,0,0,5.832-.658,4.87,4.87,0,0,0,2.193-1.874,5.254,5.254,0,0,0,.66-2.736l.011-.206h-.221l-5.206.011.1.026-4.368-2.476-.118-.066-.1.089-9.122,8.189-.027.024-.012.033c-1.622,4.141-2.981,7.609-4.032,10.291l.032-.041-4.156,3.228-1.064.842C213.649,313.467,213.536,313.575,213.536,313.575Z" transform="translate(-213.536 -290.62)" fill="#eb996e"/>
            </g>
          </g>
        </g>
      </g>
    </g>
  </g>
</svg>
