<svg xmlns="http://www.w3.org/2000/svg" xmlns:xlink="http://www.w3.org/1999/xlink" width="303.816" height="334.25" viewBox="0 0 303.816 334.25">
  <defs>
    <linearGradient id="linear-gradient" x1="0.5" y1="0.292" x2="0.459" y2="-0.435" gradientUnits="objectBoundingBox">
      <stop offset="0" stop-color="#ad1457" stop-opacity="0"/>
      <stop offset="1" stop-color="#023055"/>
    </linearGradient>
  </defs>
  <g id="Grupo_121087" data-name="Grupo 121087" transform="translate(-202.255 -4236.139)">
    <g id="Grupo_120598" data-name="Grupo 120598" transform="translate(202.255 4236.139)">
      <g id="Grupo_120606" data-name="Grupo 120606" transform="translate(0 0)">
        <path id="Trazado_143447" data-name="Trazado 143447" d="M547.878,169.1a48.864,48.864,0,0,1,23.015,29.73c5.983,21.429,24.3,77.24,24.3,77.24s10.469,12.314,11.591,21.435-1.122,31.18-4.487,35.293a9.484,9.484,0,0,1-8.165,3.431l-44.062-4.179L532.721,215.87Z" transform="translate(-303.262 -9.866)" fill="#023055"/>
        <path id="Trazado_143448" data-name="Trazado 143448" d="M609.919,173.411s-31.507,9.883-39.358,18.481l25.8,120.016-.411,37.867H745.318c0-1.869,1.341-125.73,1.341-125.73l8.972-48.6-53.091-9.348-10.469-8.225L633,160.86l-8.972,8.972Z" transform="translate(-511.016 -16.206)" fill="#023055"/>
        <g id="Grupo_78406" data-name="Grupo 78406" transform="translate(85.037 258.938)" opacity="0.3">
          <path id="Trazado_143449" data-name="Trazado 143449" d="M680.235,235.216c-.46-1.017-1.119-2.117-2.212-2.344-1.8-.371-3,1.755-3.615,3.489a157.746,157.746,0,0,1-19.622,38.313L654.4,293.1c8.708-7.327,17.3-15.176,22.846-25.112S684.922,245.587,680.235,235.216Z" transform="translate(-654.402 -232.83)" fill="#101010"/>
        </g>
        <path id="Trazado_143450" data-name="Trazado 143450" d="M735.158,179.616s-10.382,14.152-14.692,23.391-40.03,86.835-42.186,94.84-7.7,33.256,8.622,39.107h33.564l33.688-68.122,1.723-79.067Z" transform="translate(-675.613 -3.93)" fill="#023055"/>
        <g id="Grupo_78407" data-name="Grupo 78407" transform="translate(6.124 278.388)">
          <path id="Trazado_143451" data-name="Trazado 143451" d="M737.75,250.689c-.044.05-.748-.66-2.293-1.539a25.738,25.738,0,0,0-7.045-2.552,33.8,33.8,0,0,0-5.135-.721,20.4,20.4,0,0,0-5.887.383,21.945,21.945,0,0,0-11.3,7.093,30.612,30.612,0,0,0-6.4,11.895,59.325,59.325,0,0,0-2.018,10.98c-.314,3.174-.432,5.759-.541,7.544-.053.834-.1,1.514-.13,2.056a3.1,3.1,0,0,1-.087.715,3.041,3.041,0,0,1-.042-.72c0-.541,0-1.223.008-2.06.033-1.788.081-4.38.338-7.575a56.762,56.762,0,0,1,1.9-11.108,30.685,30.685,0,0,1,6.485-12.154,22.294,22.294,0,0,1,11.652-7.245,20.676,20.676,0,0,1,6.053-.338,33.313,33.313,0,0,1,5.2.81,24.218,24.218,0,0,1,7.07,2.782,12.175,12.175,0,0,1,1.666,1.234A2.966,2.966,0,0,1,737.75,250.689Z" transform="translate(-696.873 -245.263)"/>
        </g>
        <g id="Grupo_78408" data-name="Grupo 78408" transform="translate(31.086 269.988)">
          <path id="Trazado_143452" data-name="Trazado 143452" d="M691.125,240.156a3.941,3.941,0,0,1,1.128-.181,19.5,19.5,0,0,1,3.113-.042,25.878,25.878,0,0,1,4.579.676,27.282,27.282,0,0,1,10.183,4.858,25.87,25.87,0,0,1,3.407,3.132,19.477,19.477,0,0,1,1.926,2.447,3.861,3.861,0,0,1,.568.99c-.1.07-1.009-1.274-2.826-3.123a29.37,29.37,0,0,0-3.432-2.969,29.222,29.222,0,0,0-9.972-4.758,29.414,29.414,0,0,0-4.47-.8C692.751,240.139,691.133,240.278,691.125,240.156Z" transform="translate(-691.125 -239.893)"/>
        </g>
        <g id="Grupo_78409" data-name="Grupo 78409" transform="translate(22.752 265.213)">
          <path id="Trazado_143453" data-name="Trazado 143453" d="M726.331,238.146a7.189,7.189,0,0,1-1.554-.119c-.989-.127-2.427-.272-4.2-.4a71.608,71.608,0,0,0-27.452,3.285c-1.7.546-3.059,1.026-3.991,1.383a7.248,7.248,0,0,1-1.48.482,7.22,7.22,0,0,1,1.384-.715c.906-.43,2.251-.978,3.939-1.583a63.472,63.472,0,0,1,27.64-3.306c1.784.191,3.22.405,4.2.61A7.208,7.208,0,0,1,726.331,238.146Z" transform="translate(-687.65 -236.841)"/>
        </g>
        <g id="Grupo_78410" data-name="Grupo 78410" transform="translate(113.008 153.624)">
          <path id="Trazado_143454" data-name="Trazado 143454" d="M670.566,212.112a2.142,2.142,0,0,1-.341-.4c-.239-.322-.543-.726-.915-1.228-.823-1.139-1.959-2.711-3.375-4.673l-11.691-16.5.523-.074c-1.81,5.311-3.8,11.17-5.906,17.338l-.133.391-.338-.217-.7-.449a35.815,35.815,0,0,1-7.309-6.17,43.553,43.553,0,0,1-5.217-7.215,60.229,60.229,0,0,1-5.742-13.883,94.123,94.123,0,0,1-2.175-9.888c-.2-1.126-.352-2.026-.469-2.7-.056-.308-.12-.537-.158-.692a.766.766,0,0,1-.078-.23c.138-.058.5,1.242.953,3.58.482,2.337,1.155,5.726,2.366,9.808a61.59,61.59,0,0,0,5.817,13.71,43.563,43.563,0,0,0,5.174,7.09,35.565,35.565,0,0,0,7.186,6.051l.682.44-.471.172,5.956-17.32.191-.552.332.479c4.673,6.76,8.649,12.508,11.5,16.629,1.359,2,2.448,3.608,3.238,4.77l.839,1.28A2.186,2.186,0,0,1,670.566,212.112Z" transform="translate(-626.543 -165.515)"/>
        </g>
        <g id="Grupo_78411" data-name="Grupo 78411" transform="translate(195.594 257.513)" opacity="0.3">
          <path id="Trazado_143455" data-name="Trazado 143455" d="M577.288,231.919a67.853,67.853,0,0,0,8.63,40.25c6.953,12.087,17.136,22.862,29.824,28.644.41-12.317-.182-26.826.228-39.143Z" transform="translate(-576.962 -231.919)" fill="#101010"/>
        </g>
        <g id="Grupo_78417" data-name="Grupo 78417" transform="translate(191.645 211.905)">
          <path id="Trazado_143456" data-name="Trazado 143456" d="M569.893,232.16s-5.426,1.505-1.356,12.621,5.426,10.445,8.138,20.844,5.878,19.888,10.624,25.765,22.381,17.86,22.381,17.86l15.825-14.921s-2.608-11.12-1.982-18.672,2.209-26.091,1.982-29.256-3.617-10.851-3.617-10.851v-5.258l-8.138-25.035s-4.521-2.035-6.1,5.2l-2.713-7.677s-4.3-.687-5.427,8.129.9,21.025.9,21.025l-2.261,15.373-3.39,10.4-2.94.452s-4.423-1.208-6.846-9.534S576,230.352,569.893,232.16Z" transform="translate(-567.024 -202.767)" fill="#ffbe9d"/>
          <g id="Grupo_78412" data-name="Grupo 78412" transform="translate(35.554 37.196)">
            <path id="Trazado_143457" data-name="Trazado 143457" d="M588.037,258.062a2.574,2.574,0,0,1-.073-.57l-.114-1.657c-.081-1.516-.194-3.614-.333-6.227-.244-5.4-.583-12.91-.978-21.679l.07.183a3.17,3.17,0,0,0-3.2-.834,4.665,4.665,0,0,0-2.933,2.15c-1.383,2.225-1.458,5.122-1.891,7.919-.857,6.336-1.674,12.37-2.419,17.87-.377,2.746-.774,5.36-1.309,7.779a50.982,50.982,0,0,1-1.962,6.594,55.21,55.21,0,0,0-1.7,5.369,16.452,16.452,0,0,0-.51,4.187,13.036,13.036,0,0,0,.626,3.545,5.218,5.218,0,0,1-.38-.867,9.849,9.849,0,0,1-.5-2.669,16.021,16.021,0,0,1,.412-4.277,51.946,51.946,0,0,1,1.622-5.436,52.031,52.031,0,0,0,1.869-6.558c.509-2.4.884-5,1.244-7.746.729-5.5,1.529-11.537,2.369-17.874.2-1.414.352-2.81.6-4.2a11.022,11.022,0,0,1,1.4-3.975,5.308,5.308,0,0,1,3.328-2.416,3.781,3.781,0,0,1,3.808,1.051l.067.081,0,.1c.3,8.772.56,16.288.745,21.688.069,2.614.122,4.715.161,6.233.008.679.013,1.228.017,1.66A2.457,2.457,0,0,1,588.037,258.062Z" transform="translate(-570.407 -226.542)" fill="#eb996e"/>
          </g>
          <g id="Grupo_78413" data-name="Grupo 78413" transform="translate(41.264 18.636)">
            <path id="Trazado_143458" data-name="Trazado 143458" d="M573.306,236.27a6.519,6.519,0,0,1-.666-1.416,35.828,35.828,0,0,1-1.325-4.052,40.837,40.837,0,0,1-1.137-6.228,18.17,18.17,0,0,1-.067-3.777,8.07,8.07,0,0,1,1.366-3.875,5.521,5.521,0,0,1,2.893-2.171l.244-.072.124.219c2.292,4.044,4.282,7.613,5.682,10.18q.965,1.8,1.621,3.034a5.088,5.088,0,0,1,.519,1.139,5.249,5.249,0,0,1-.715-1.026q-.725-1.195-1.788-2.94c-1.5-2.513-3.556-6.04-5.872-10.072l.366.147A4.939,4.939,0,0,0,572,217.295a7.539,7.539,0,0,0-1.264,3.573,18.287,18.287,0,0,0,.031,3.648,45.97,45.97,0,0,0,.987,6.177c.4,1.738.823,3.123,1.119,4.077A8.265,8.265,0,0,1,573.306,236.27Z" transform="translate(-570.038 -214.679)" fill="#eb996e"/>
          </g>
          <g id="Grupo_78414" data-name="Grupo 78414" transform="translate(40.083 5.682)">
            <path id="Trazado_143459" data-name="Trazado 143459" d="M578.367,242.978a6.3,6.3,0,0,1-.146-1.441c-.044-1.067-.1-2.381-.161-3.935-.106-3.325-.208-7.915-.282-12.987-.037-5.066-.236-9.673.2-13.012a19.935,19.935,0,0,1,.848-3.872,4.906,4.906,0,0,1,.58-1.333,36.84,36.84,0,0,0-.975,5.254c-.314,3.284-.047,7.88-.008,12.954.072,5.072.1,9.664.092,12.988-.017,1.555-.033,2.871-.045,3.938A6.193,6.193,0,0,1,578.367,242.978Z" transform="translate(-577.701 -206.399)" fill="#eb996e"/>
          </g>
          <g id="Grupo_78415" data-name="Grupo 78415" transform="translate(27.364 58.345)">
            <path id="Trazado_143460" data-name="Trazado 143460" d="M582.831,265.664c-.092-.077.9-1.242,2.121-3.356a27.767,27.767,0,0,0,1.841-3.86,27.63,27.63,0,0,0,1.849-10.243,27.866,27.866,0,0,0-.374-4.26c-.409-2.408-.929-3.847-.817-3.885a3.4,3.4,0,0,1,.451.978,18,18,0,0,1,.814,2.822,24.21,24.21,0,0,1,.523,4.334,25.757,25.757,0,0,1-1.891,10.473,24.209,24.209,0,0,1-2,3.877,17.9,17.9,0,0,1-1.749,2.359C583.133,265.421,582.864,265.692,582.831,265.664Z" transform="translate(-582.825 -240.061)" fill="#eb996e"/>
          </g>
          <path id="Trazado_143461" data-name="Trazado 143461" d="M549.211,251.454l13.733,4.767s13.112-6.782,22.156,0,16.9,24.656,14.41,31.89c0,0-6.241,7.705-10.989,8.836s-23.2-3.34-30.883-4.956c-7.7-1.622-20.919-10.224-20.919-10.224Z" transform="translate(-494.063 -175.284)" fill="#ffbe9d"/>
          <g id="Grupo_78416" data-name="Grupo 78416" transform="translate(56.086 65.425)">
            <path id="Trazado_143462" data-name="Trazado 143462" d="M568.644,275.564a4.442,4.442,0,0,1-.147-1.216c-.055-.931-.12-2.034-.2-3.318-.145-2.8-.335-6.676-.391-10.964a108.76,108.76,0,0,1,.316-10.981c.12-1.4.275-2.533.415-3.307a4.484,4.484,0,0,1,.285-1.192c.1.016-.113,1.735-.244,4.531s-.191,6.665-.127,10.942c.078,4.191.149,7.982.2,10.958.016,1.4.013,2.541-.009,3.328A4.5,4.5,0,0,1,568.644,275.564Z" transform="translate(-567.893 -244.586)" fill="#eb996e"/>
          </g>
        </g>
        <g id="Grupo_78418" data-name="Grupo 78418" transform="translate(256.367 282.522)">
          <path id="Trazado_143463" data-name="Trazado 143463" d="M576.542,257.686a43.384,43.384,0,0,0-4.567-4.118,25.126,25.126,0,0,0-27.838-1.535,43.632,43.632,0,0,0-4.992,3.59,6.965,6.965,0,0,1,1.133-1.225,22.365,22.365,0,0,1,3.625-2.758,24.686,24.686,0,0,1,28.348,1.563,22.517,22.517,0,0,1,3.3,3.138A6.933,6.933,0,0,1,576.542,257.686Z" transform="translate(-539.144 -247.905)"/>
        </g>
        <g id="Grupo_78419" data-name="Grupo 78419" transform="translate(252.216 275.645)">
          <path id="Trazado_143464" data-name="Trazado 143464" d="M580.057,248.717a26.941,26.941,0,0,0-5.713-3.151,25.274,25.274,0,0,0-15.462-.465,35.924,35.924,0,0,0-7.995,3.328,37.944,37.944,0,0,0-5.792,4.093c-1.543,1.314-2.721,2.462-3.529,3.262a10.251,10.251,0,0,1-1.292,1.211,8.658,8.658,0,0,1,1.111-1.385,43.111,43.111,0,0,1,3.411-3.432,35.428,35.428,0,0,1,5.793-4.263,34.834,34.834,0,0,1,8.12-3.434,24.8,24.8,0,0,1,15.8.66,18.242,18.242,0,0,1,4.227,2.386,11.787,11.787,0,0,1,1,.854C579.963,248.586,580.071,248.7,580.057,248.717Z" transform="translate(-540.272 -243.509)"/>
        </g>
        <g id="Grupo_78420" data-name="Grupo 78420" transform="translate(249.602 268.741)">
          <path id="Trazado_143465" data-name="Trazado 143465" d="M582.712,241.283c-.035.128-2.434-.605-6.422-1.145a51.4,51.4,0,0,0-7.04-.447,51.241,51.241,0,0,0-16.937,2.98,51.812,51.812,0,0,0-6.464,2.824c-3.564,1.868-5.57,3.378-5.646,3.27a9.277,9.277,0,0,1,1.375-1.1,19.475,19.475,0,0,1,1.705-1.166c.685-.424,1.446-.943,2.35-1.406a46.456,46.456,0,0,1,6.479-2.98A48.45,48.45,0,0,1,569.25,239.1a46.634,46.634,0,0,1,7.106.59c1.008.127,1.9.355,2.688.521a19.1,19.1,0,0,1,2,.513A9.184,9.184,0,0,1,582.712,241.283Z" transform="translate(-540.201 -239.096)"/>
        </g>
        <g id="Grupo_78421" data-name="Grupo 78421" transform="translate(153.105 149.479)">
          <path id="Trazado_143466" data-name="Trazado 143466" d="M640.512,162.865a11.471,11.471,0,0,1,.953,3.652,35.675,35.675,0,0,1-.523,10.653,63.045,63.045,0,0,1-1.774,7.425,56.239,56.239,0,0,1-3.606,8.25c-2.958,5.7-6.68,11.923-10.992,18.556l-.5.776v-.928c-.006-4.384-.012-8.985-.02-13.761l.482.23c-3.691,2.98-7.578,6.119-11.582,9.349l.1-.147a121.867,121.867,0,0,0-5.152,27.841c-1.134,15.094-.221,29.531.491,42.627.61,13.115,1.011,24.925,1.419,34.843.393,9.917.751,17.94,1.051,23.481.161,2.746.288,4.889.377,6.378.047.706.083,1.256.109,1.658.022.374.016.566.016.566s-.039-.189-.081-.562c-.042-.4-.1-.948-.174-1.654-.138-1.455-.316-3.6-.5-6.374-.375-5.538-.8-13.561-1.256-23.477s-.97-21.728-1.557-34.832c-.743-13.087-1.679-27.554-.541-42.706a121.766,121.766,0,0,1,5.2-27.984l.028-.088.074-.059c4.01-3.224,7.9-6.353,11.6-9.326l.483-.388,0,.62c-.008,4.776-.014,9.378-.02,13.761l-.505-.152c8.52-13.215,15.449-24.7,16.516-33.985a36.657,36.657,0,0,0,.669-10.574,17.955,17.955,0,0,0-.51-2.749C640.593,163.186,640.512,162.865,640.512,162.865Z" transform="translate(-606.719 -162.865)" fill="#0a0a0a"/>
        </g>
        <path id="Trazado_143467" data-name="Trazado 143467" d="M623.5,265.132l-.443-.016a3.5,3.5,0,1,0,.443.016Z" transform="translate(-458.845 44.333)" fill="#fff"/>
        <g id="Grupo_78422" data-name="Grupo 78422" transform="translate(160.811 211.905)">
          <path id="Trazado_143468" data-name="Trazado 143468" d="M623.5,234.578l-.443-.016a3.5,3.5,0,1,0,.443.016Z" transform="translate(-619.656 -184.819)" fill="#fff"/>
          <path id="Trazado_143469" data-name="Trazado 143469" d="M623.033,209.76a3.5,3.5,0,0,0,.465-6.979l-.443-.014a3.5,3.5,0,0,0-.022,6.993Z" transform="translate(-619.656 -202.767)" fill="#fff"/>
        </g>
        <g id="Grupo_78423" data-name="Grupo 78423" transform="translate(94.438)">
          <path id="Trazado_143470" data-name="Trazado 143470" d="M612.364,160.789c-4.348-4.814-8.735-9.679-11.9-15.34s-5.06-12.267-4.01-18.667c.613-3.744,2.2-7.309,2.456-11.1.347-5.208-1.841-10.649,0-15.532,2.886-7.632,13.159-8.81,19.385-14.08,4.85-4.105,7.212-10.771,12.546-14.223,4.66-3.016,10.648-2.951,16.144-2.173s11.026,2.165,16.529,1.425c3.922-.527,7.616-2.114,11.457-3.065s8.127-1.2,11.549.785,5.343,6.846,3.1,10.105c6.377-2.94,14.475,2.031,16.219,8.83s-1.748,14.148-7.15,18.631-12.389,6.571-19.289,7.871c-19.531,3.681-40.717,1.6-57.549-8.966" transform="translate(-596.159 -67.32)" fill="#263238"/>
        </g>
        <g id="Grupo_78529" data-name="Grupo 78529" transform="translate(107.539 15.339)">
          <g id="Grupo_78528" data-name="Grupo 78528" transform="translate(0)">
            <g id="Grupo_78527" data-name="Grupo 78527">
              <g id="Grupo_78446" data-name="Grupo 78446">
                <g id="Grupo_78445" data-name="Grupo 78445">
                  <g id="Grupo_78444" data-name="Grupo 78444">
                    <g id="Grupo_78433" data-name="Grupo 78433">
                      <g id="Grupo_78432" data-name="Grupo 78432">
                        <g id="Grupo_78431" data-name="Grupo 78431">
                          <g id="Grupo_78430" data-name="Grupo 78430">
                            <g id="Grupo_78429" data-name="Grupo 78429">
                              <g id="Grupo_78428" data-name="Grupo 78428">
                                <g id="Grupo_78427" data-name="Grupo 78427">
                                  <g id="Grupo_78426" data-name="Grupo 78426">
                                    <g id="Grupo_78425" data-name="Grupo 78425">
                                      <g id="Grupo_78424" data-name="Grupo 78424">
                                        <path id="Trazado_143471" data-name="Trazado 143471" d="M670.255,220.918c-.953-7.394-1.733-13.561-1.782-14.327,0,0,24.708-5.552,23.347-30.536-.659-12.073-4.038-36.831-7.355-59.192A46.6,46.6,0,0,0,635.244,77.23l-2.409.161c-25.869,3.254-37.558,27.042-33.589,52.814L613.2,216.613s5.956,19.115,18.7,22.424l16.08,22.97,2.658-9.888,11.984-10.435a47.128,47.128,0,0,0,5.909-8.8C671.114,228.132,670.569,223.239,670.255,220.918Z" transform="translate(-598.487 -77.125)" fill="#ffbe9d"/>
                                      </g>
                                    </g>
                                  </g>
                                </g>
                              </g>
                            </g>
                          </g>
                        </g>
                      </g>
                    </g>
                    <g id="Grupo_78443" data-name="Grupo 78443" transform="translate(36.841 122.03)">
                      <g id="Grupo_78442" data-name="Grupo 78442">
                        <g id="Grupo_78441" data-name="Grupo 78441">
                          <g id="Grupo_78440" data-name="Grupo 78440">
                            <g id="Grupo_78439" data-name="Grupo 78439">
                              <g id="Grupo_78438" data-name="Grupo 78438">
                                <g id="Grupo_78437" data-name="Grupo 78437">
                                  <g id="Grupo_78436" data-name="Grupo 78436">
                                    <g id="Grupo_78435" data-name="Grupo 78435">
                                      <g id="Grupo_78434" data-name="Grupo 78434">
                                        <path id="Trazado_143472" data-name="Trazado 143472" d="M646.282,162.2s-15.69,2.339-33.162-7.073c0,0,8.894,17.452,33.654,13.537Z" transform="translate(-613.12 -155.125)" fill="#eb996e"/>
                                      </g>
                                    </g>
                                  </g>
                                </g>
                              </g>
                            </g>
                          </g>
                        </g>
                      </g>
                    </g>
                  </g>
                </g>
              </g>
              <g id="Grupo_78526" data-name="Grupo 78526" transform="translate(26.365 37.792)">
                <g id="Grupo_78525" data-name="Grupo 78525">
                  <g id="Grupo_78504" data-name="Grupo 78504" transform="translate(3.305 11.253)">
                    <g id="Grupo_78503" data-name="Grupo 78503" transform="translate(0)">
                      <g id="Grupo_78502" data-name="Grupo 78502">
                        <g id="Grupo_78468" data-name="Grupo 78468" transform="translate(37.66)">
                          <g id="Grupo_78456" data-name="Grupo 78456" transform="translate(3.514 9.162)">
                            <g id="Grupo_78455" data-name="Grupo 78455">
                              <g id="Grupo_78454" data-name="Grupo 78454">
                                <g id="Grupo_78453" data-name="Grupo 78453">
                                  <g id="Grupo_78452" data-name="Grupo 78452">
                                    <g id="Grupo_78451" data-name="Grupo 78451">
                                      <g id="Grupo_78450" data-name="Grupo 78450">
                                        <g id="Grupo_78449" data-name="Grupo 78449">
                                          <g id="Grupo_78448" data-name="Grupo 78448">
                                            <g id="Grupo_78447" data-name="Grupo 78447">
                                              <path id="Trazado_143473" data-name="Trazado 143473" d="M615.448,117.329a3.571,3.571,0,0,1-3.2,3.825,3.416,3.416,0,0,1-3.889-2.968,3.574,3.574,0,0,1,3.193-3.828A3.42,3.42,0,0,1,615.448,117.329Z" transform="translate(-608.344 -114.33)" fill="#263238"/>
                                            </g>
                                          </g>
                                        </g>
                                      </g>
                                    </g>
                                  </g>
                                </g>
                              </g>
                            </g>
                          </g>
                          <g id="Grupo_78467" data-name="Grupo 78467">
                            <g id="Grupo_78466" data-name="Grupo 78466">
                              <g id="Grupo_78465" data-name="Grupo 78465">
                                <g id="Grupo_78464" data-name="Grupo 78464">
                                  <g id="Grupo_78463" data-name="Grupo 78463">
                                    <g id="Grupo_78462" data-name="Grupo 78462">
                                      <g id="Grupo_78461" data-name="Grupo 78461">
                                        <g id="Grupo_78460" data-name="Grupo 78460">
                                          <g id="Grupo_78459" data-name="Grupo 78459">
                                            <g id="Grupo_78458" data-name="Grupo 78458">
                                              <g id="Grupo_78457" data-name="Grupo 78457">
                                                <path id="Trazado_143474" data-name="Trazado 143474" d="M620.2,111.777c-.411.494-3.246-1.324-7.082-1.056-3.835.211-6.518,2.372-6.965,1.931-.217-.194.175-1.064,1.342-2.039a9.8,9.8,0,0,1,5.538-2.12,9.412,9.412,0,0,1,5.674,1.421C619.948,110.739,620.405,111.554,620.2,111.777Z" transform="translate(-606.097 -108.474)" fill="#263238"/>
                                              </g>
                                            </g>
                                          </g>
                                        </g>
                                      </g>
                                    </g>
                                  </g>
                                </g>
                              </g>
                            </g>
                          </g>
                        </g>
                        <g id="Grupo_78490" data-name="Grupo 78490" transform="translate(0 3.237)">
                          <g id="Grupo_78478" data-name="Grupo 78478" transform="translate(4.937 8.516)">
                            <g id="Grupo_78477" data-name="Grupo 78477">
                              <g id="Grupo_78476" data-name="Grupo 78476">
                                <g id="Grupo_78475" data-name="Grupo 78475">
                                  <g id="Grupo_78474" data-name="Grupo 78474">
                                    <g id="Grupo_78473" data-name="Grupo 78473">
                                      <g id="Grupo_78472" data-name="Grupo 78472">
                                        <g id="Grupo_78471" data-name="Grupo 78471">
                                          <g id="Grupo_78470" data-name="Grupo 78470">
                                            <g id="Grupo_78469" data-name="Grupo 78469">
                                              <path id="Trazado_143475" data-name="Trazado 143475" d="M638.611,118.985a3.57,3.57,0,0,1-3.2,3.825,3.415,3.415,0,0,1-3.889-2.968,3.574,3.574,0,0,1,3.193-3.828A3.418,3.418,0,0,1,638.611,118.985Z" transform="translate(-631.508 -115.986)" fill="#263238"/>
                                            </g>
                                          </g>
                                        </g>
                                      </g>
                                    </g>
                                  </g>
                                </g>
                              </g>
                            </g>
                          </g>
                          <g id="Grupo_78489" data-name="Grupo 78489">
                            <g id="Grupo_78488" data-name="Grupo 78488">
                              <g id="Grupo_78487" data-name="Grupo 78487">
                                <g id="Grupo_78486" data-name="Grupo 78486">
                                  <g id="Grupo_78485" data-name="Grupo 78485">
                                    <g id="Grupo_78484" data-name="Grupo 78484">
                                      <g id="Grupo_78483" data-name="Grupo 78483">
                                        <g id="Grupo_78482" data-name="Grupo 78482">
                                          <g id="Grupo_78481" data-name="Grupo 78481">
                                            <g id="Grupo_78480" data-name="Grupo 78480">
                                              <g id="Grupo_78479" data-name="Grupo 78479">
                                                <path id="Trazado_143476" data-name="Trazado 143476" d="M644.275,113.847c-.411.494-3.25-1.324-7.083-1.058-3.834.213-6.518,2.373-6.965,1.932-.217-.194.172-1.062,1.342-2.039a9.8,9.8,0,0,1,5.537-2.121,9.427,9.427,0,0,1,5.676,1.422C644.018,112.81,644.476,113.625,644.275,113.847Z" transform="translate(-630.17 -110.543)" fill="#263238"/>
                                              </g>
                                            </g>
                                          </g>
                                        </g>
                                      </g>
                                    </g>
                                  </g>
                                </g>
                              </g>
                            </g>
                          </g>
                        </g>
                        <g id="Grupo_78501" data-name="Grupo 78501" transform="translate(26.003 2.211)">
                          <g id="Grupo_78500" data-name="Grupo 78500">
                            <g id="Grupo_78499" data-name="Grupo 78499">
                              <g id="Grupo_78498" data-name="Grupo 78498">
                                <g id="Grupo_78497" data-name="Grupo 78497">
                                  <g id="Grupo_78496" data-name="Grupo 78496">
                                    <g id="Grupo_78495" data-name="Grupo 78495">
                                      <g id="Grupo_78494" data-name="Grupo 78494">
                                        <g id="Grupo_78493" data-name="Grupo 78493">
                                          <g id="Grupo_78492" data-name="Grupo 78492">
                                            <g id="Grupo_78491" data-name="Grupo 78491">
                                              <path id="Trazado_143477" data-name="Trazado 143477" d="M617.877,141.735c-.033-.217,2.325-.789,6.155-1.541.973-.167,1.888-.424,2.009-1.1.183-.723-.3-1.752-.849-2.86q-1.619-3.464-3.395-7.265c-4.734-10.351-8.229-18.888-7.812-19.076s4.595,8.051,9.328,18.4q1.715,3.83,3.277,7.317c.444,1.089,1.167,2.309.765,3.811a2.46,2.46,0,0,1-1.515,1.539,6.588,6.588,0,0,1-1.649.343C620.318,141.773,617.907,141.951,617.877,141.735Z" transform="translate(-613.951 -109.887)" fill="#263238"/>
                                            </g>
                                          </g>
                                        </g>
                                      </g>
                                    </g>
                                  </g>
                                </g>
                              </g>
                            </g>
                          </g>
                        </g>
                      </g>
                    </g>
                  </g>
                  <g id="Grupo_78514" data-name="Grupo 78514" transform="translate(0 0.277)">
                    <g id="Grupo_78513" data-name="Grupo 78513">
                      <g id="Grupo_78512" data-name="Grupo 78512">
                        <g id="Grupo_78511" data-name="Grupo 78511">
                          <g id="Grupo_78510" data-name="Grupo 78510">
                            <g id="Grupo_78509" data-name="Grupo 78509">
                              <g id="Grupo_78508" data-name="Grupo 78508">
                                <g id="Grupo_78507" data-name="Grupo 78507">
                                  <g id="Grupo_78506" data-name="Grupo 78506">
                                    <g id="Grupo_78505" data-name="Grupo 78505">
                                      <path id="Trazado_143478" data-name="Trazado 143478" d="M647.6,103.875c-.31,1.069-4.172.831-8.638,1.674-4.481.754-8.023,2.314-8.681,1.419-.3-.43.271-1.453,1.671-2.561a15.28,15.28,0,0,1,13.193-2.356C646.837,102.6,647.724,103.37,647.6,103.875Z" transform="translate(-630.2 -101.458)" fill="#263238"/>
                                    </g>
                                  </g>
                                </g>
                              </g>
                            </g>
                          </g>
                        </g>
                      </g>
                    </g>
                  </g>
                  <g id="Grupo_78524" data-name="Grupo 78524" transform="translate(39.805)">
                    <g id="Grupo_78523" data-name="Grupo 78523">
                      <g id="Grupo_78522" data-name="Grupo 78522">
                        <g id="Grupo_78521" data-name="Grupo 78521">
                          <g id="Grupo_78520" data-name="Grupo 78520">
                            <g id="Grupo_78519" data-name="Grupo 78519">
                              <g id="Grupo_78518" data-name="Grupo 78518">
                                <g id="Grupo_78517" data-name="Grupo 78517">
                                  <g id="Grupo_78516" data-name="Grupo 78516">
                                    <g id="Grupo_78515" data-name="Grupo 78515">
                                      <path id="Trazado_143479" data-name="Trazado 143479" d="M620.564,104.829c-.617.917-3.32.189-6.5.358-3.187.059-5.829.978-6.51.108-.3-.424.063-1.325,1.184-2.228a9.428,9.428,0,0,1,10.483-.375C620.4,103.512,620.835,104.385,620.564,104.829Z" transform="translate(-607.454 -101.281)" fill="#263238"/>
                                    </g>
                                  </g>
                                </g>
                              </g>
                            </g>
                          </g>
                        </g>
                      </g>
                    </g>
                  </g>
                </g>
              </g>
            </g>
          </g>
        </g>
        <g id="Grupo_78551" data-name="Grupo 78551" transform="translate(95.649 86.306)">
          <g id="Grupo_78539" data-name="Grupo 78539" transform="translate(0 0)">
            <g id="Grupo_78538" data-name="Grupo 78538">
              <g id="Grupo_78537" data-name="Grupo 78537">
                <g id="Grupo_78536" data-name="Grupo 78536">
                  <g id="Grupo_78535" data-name="Grupo 78535">
                    <g id="Grupo_78534" data-name="Grupo 78534">
                      <g id="Grupo_78533" data-name="Grupo 78533">
                        <g id="Grupo_78532" data-name="Grupo 78532">
                          <g id="Grupo_78531" data-name="Grupo 78531">
                            <g id="Grupo_78530" data-name="Grupo 78530">
                              <path id="Trazado_143480" data-name="Trazado 143480" d="M668.763,122.946c-.438-.156-17.491-3.925-15.8,13.1s20.143,11.479,20.124,10.987S668.763,122.946,668.763,122.946Z" transform="translate(-652.841 -122.486)" fill="#ffbe9d"/>
                            </g>
                          </g>
                        </g>
                      </g>
                    </g>
                  </g>
                </g>
              </g>
            </g>
          </g>
          <g id="Grupo_78550" data-name="Grupo 78550" transform="translate(4.411 5.791)">
            <g id="Grupo_78549" data-name="Grupo 78549">
              <g id="Grupo_78548" data-name="Grupo 78548">
                <g id="Grupo_78547" data-name="Grupo 78547">
                  <g id="Grupo_78546" data-name="Grupo 78546">
                    <g id="Grupo_78545" data-name="Grupo 78545">
                      <g id="Grupo_78544" data-name="Grupo 78544">
                        <g id="Grupo_78543" data-name="Grupo 78543">
                          <g id="Grupo_78542" data-name="Grupo 78542">
                            <g id="Grupo_78541" data-name="Grupo 78541">
                              <g id="Grupo_78540" data-name="Grupo 78540">
                                <path id="Trazado_143481" data-name="Trazado 143481" d="M665.935,139.357c-.08-.047-.277.236-.756.516a2.973,2.973,0,0,1-2.212.264c-1.865-.482-3.662-3.187-4.049-6.249a9.836,9.836,0,0,1,.41-4.33,3.445,3.445,0,0,1,2.005-2.5,1.517,1.517,0,0,1,1.831.64c.275.455.2.8.294.824.053.039.338-.321.131-1.011a1.913,1.913,0,0,0-.776-1,2.259,2.259,0,0,0-1.684-.271,4.188,4.188,0,0,0-2.838,2.947,10.144,10.144,0,0,0-.558,4.848c.449,3.422,2.525,6.458,5.056,6.926a3.189,3.189,0,0,0,2.669-.72C665.944,139.771,666,139.382,665.935,139.357Z" transform="translate(-657.652 -126.187)" fill="#eb996e"/>
                              </g>
                            </g>
                          </g>
                        </g>
                      </g>
                    </g>
                  </g>
                </g>
              </g>
            </g>
          </g>
        </g>
        <g id="Grupo_78554" data-name="Grupo 78554" transform="translate(104.777 11)">
          <g id="Grupo_78553" data-name="Grupo 78553" transform="translate(0)">
            <g id="Grupo_78552" data-name="Grupo 78552">
              <path id="Trazado_143482" data-name="Trazado 143482" d="M691.511,95.162c-1.17,6.779-14.919,12.99-26.318,12.658-10.51-.307-15.7-5.521-23.336-9.227-4.833-2.345-4.833-2.345-11.391-1.28-5.3.862-8.055,7.118-11.033,11.591,5.671,12.363,3.379,26.74.976,40.129-.266,1.48-.6,3.077-1.724,4.071-1.915,1.688-5.019.676-6.9-1.047-3.015-2.76-4.387-6.852-5.376-10.818a70.387,70.387,0,0,1-1.686-27.693,47.9,47.9,0,0,1,11.521-25c7.855-8.583,19.339-13.53,30.958-14.127a55.73,55.73,0,0,1,33.021,9.374c4.514,2.957,8.736,6.615,11.288,11.372" transform="translate(-604.025 -74.351)" fill="#263238"/>
            </g>
          </g>
        </g>
        <path id="Trazado_143483" data-name="Trazado 143483" d="M631.968,137.367q-4.342-2.023-8.68-4.049a2.939,2.939,0,0,0-1.58-.4,2.522,2.522,0,0,0-1.5,1.02,8.075,8.075,0,0,0-.962,8.871,6.783,6.783,0,0,0,8.146,2.994c3.077-1.273,4.573-4.847,4.813-8.168Z" transform="translate(-462.32 -30.297)" fill="#eb996e"/>
        <g id="Grupo_78555" data-name="Grupo 78555" transform="translate(154.964 101.504)">
          <path id="Trazado_143484" data-name="Trazado 143484" d="M628.879,146.82c.024.074-.4.324-1.27.505a7.527,7.527,0,0,1-3.734-.275,7.79,7.79,0,0,1-4.31-3.581,8,8,0,0,1-.529-6.846,8.362,8.362,0,0,1,2.013-3.037,7.746,7.746,0,0,1,1.408-1.064,2.292,2.292,0,0,1,1-.319,2.247,2.247,0,0,1,1.008.2,12.434,12.434,0,0,1,1.353.767l1.183.727,2.114,1.322c2.575,1.633,4.122,2.722,4.032,2.876s-1.8-.654-4.492-2.087l-2.192-1.186-1.217-.67a13.535,13.535,0,0,0-1.226-.646.918.918,0,0,0-.95.091,6.755,6.755,0,0,0-1.14.9,7.344,7.344,0,0,0-1.688,2.588,7.009,7.009,0,0,0,.366,5.814,7.158,7.158,0,0,0,3.587,3.3,8.47,8.47,0,0,0,3.361.629C628.383,146.806,628.851,146.725,628.879,146.82Z" transform="translate(-618.502 -132.2)" fill="#263238"/>
        </g>
        <g id="Grupo_78556" data-name="Grupo 78556" transform="translate(126.71 58.93)">
          <path id="Trazado_143485" data-name="Trazado 143485" d="M658.863,123.03a30.631,30.631,0,0,0-.677-4.312,17.722,17.722,0,0,0-6.485-9.643,17.5,17.5,0,0,0-16.579-2.469,17.544,17.544,0,0,0-8.11,6.1,17.4,17.4,0,0,0,0,20.65,17.55,17.55,0,0,0,8.112,6.1,17.636,17.636,0,0,0,23.064-12.112,30.631,30.631,0,0,0,.677-4.312.9.9,0,0,1,.019.288l-.011.85a7.966,7.966,0,0,1-.108,1.377,12.5,12.5,0,0,1-.333,1.859,16.816,16.816,0,0,1-1.924,4.8,17.956,17.956,0,0,1-12.093,8.559,18.086,18.086,0,0,1-9.493-.749,18.083,18.083,0,0,1-8.419-6.286,17.977,17.977,0,0,1,0-21.4,18.078,18.078,0,0,1,8.417-6.285,18.082,18.082,0,0,1,9.492-.749,17.964,17.964,0,0,1,12.1,8.559,16.8,16.8,0,0,1,1.924,4.8,12.465,12.465,0,0,1,.333,1.859,7.967,7.967,0,0,1,.108,1.377c0,.34.008.618.011.85A.9.9,0,0,1,658.863,123.03Z" transform="translate(-622.971 -104.987)" fill="#263238"/>
        </g>
        <g id="Grupo_78557" data-name="Grupo 78557" transform="translate(170.093 57.715)">
          <path id="Trazado_143486" data-name="Trazado 143486" d="M630.805,121.8a30.836,30.836,0,0,0-.665-4.2,17.265,17.265,0,0,0-6.319-9.393,17.053,17.053,0,0,0-16.149-2.4,17.085,17.085,0,0,0-7.9,5.94,16.951,16.951,0,0,0,0,20.111,17.069,17.069,0,0,0,7.9,5.942A17.181,17.181,0,0,0,630.142,126a30.922,30.922,0,0,0,.663-4.2,7.142,7.142,0,0,1,.009,1.109,8.2,8.2,0,0,1-.1,1.341,12.224,12.224,0,0,1-.326,1.812,17.442,17.442,0,0,1-13.661,13.024,17.611,17.611,0,0,1-9.252-.729,17.626,17.626,0,0,1-8.209-6.127,17.528,17.528,0,0,1,0-20.861,17.621,17.621,0,0,1,8.207-6.125,17.608,17.608,0,0,1,9.251-.731,17.445,17.445,0,0,1,13.663,13.024,12.009,12.009,0,0,1,.324,1.812,8.063,8.063,0,0,1,.106,1.342A7.126,7.126,0,0,1,630.805,121.8Z" transform="translate(-595.822 -104.211)" fill="#263238"/>
        </g>
        <g id="Grupo_78558" data-name="Grupo 78558" transform="translate(161.748 69.419)">
          <path id="Trazado_143487" data-name="Trazado 143487" d="M626.653,113.654c-.07.072-.48-.274-1.234-.63a7.1,7.1,0,0,0-3.124-.685,7.029,7.029,0,0,0-3.1.793c-.738.385-1.132.749-1.206.681-.059-.049.228-.544.968-1.07a6.018,6.018,0,0,1,3.323-1.05,6.089,6.089,0,0,1,3.359.932C626.4,113.121,626.709,113.6,626.653,113.654Z" transform="translate(-617.984 -111.691)" fill="#263238"/>
        </g>
        <g id="Grupo_78559" data-name="Grupo 78559" transform="translate(112.173 74.441)">
          <path id="Trazado_143488" data-name="Trazado 143488" d="M660.964,114.907c.106.142-3.375,2.921-7.772,6.2s-8.052,5.831-8.159,5.688,3.372-2.921,7.772-6.206S660.856,114.765,660.964,114.907Z" transform="translate(-645.031 -114.901)" fill="#263238"/>
        </g>
        <g id="Grupo_78560" data-name="Grupo 78560" transform="translate(113.155 155.167)" opacity="0.3">
          <path id="Trazado_143489" data-name="Trazado 143489" d="M636.724,166.5C635,183.333,641.4,201.1,654.9,211.3c1.059.8,2.389,1.594,3.638,1.142a3.988,3.988,0,0,0,1.884-1.943,32.871,32.871,0,0,0,4.025-21.626c-2.138,5.629-3.974,11.155-6.131,17.044C646.55,198.772,639.219,183.585,636.724,166.5Z" transform="translate(-636.448 -166.501)" fill="#021321"/>
        </g>
        <path id="Trazado_143490" data-name="Trazado 143490" d="M606.413,205.327l9.9-3.617,1.641,16.754s10.69-19.482,15.113-28.372,2.148-24.576,2.148-24.576,1.583,13.664-9.129,31.094l-8.085,13.142V195.991Z" transform="translate(-447.279 -11.89)" fill="#021321"/>
        <g id="Grupo_78561" data-name="Grupo 78561" transform="translate(8.957 276.535)" opacity="0.3">
          <path id="Trazado_143491" data-name="Trazado 143491" d="M728.418,246.134c-4.418-2.085-9.5-2.365-14.354-1.8-5.125.6-10.269,2.165-14.286,5.405s-6.74,8.347-6.239,13.483l.5.07c3.454-9.354,10.33-16.163,19.2-16.986s17.517,3.123,23.6,9.622C736.243,251.077,732.835,248.219,728.418,246.134Z" transform="translate(-693.48 -244.078)"/>
        </g>
        <g id="Grupo_78562" data-name="Grupo 78562" transform="translate(257.739 281.162)" opacity="0.3">
          <path id="Trazado_143492" data-name="Trazado 143492" d="M572.511,254.03a22.7,22.7,0,0,0-12.8-6.591,28.751,28.751,0,0,0-23.871,6.91l1.891-1.535a30.11,30.11,0,0,1,15.9-4.32,23.02,23.02,0,0,1,15.154,6.053c3.7,3.53,5.929,8.293,8.053,12.946A16.23,16.23,0,0,0,572.511,254.03Z" transform="translate(-535.845 -247.035)"/>
        </g>
        <g id="Grupo_78563" data-name="Grupo 78563" transform="translate(230.54 176.499)">
          <path id="Trazado_143493" data-name="Trazado 143493" d="M571.508,213.981a6.029,6.029,0,0,1,.444-1.353l1.408-3.606c1.2-3.038,2.846-7.239,4.584-11.909s3.237-8.927,4.315-12.012q.763-2.157,1.289-3.648a6.068,6.068,0,0,1,.549-1.316,6.005,6.005,0,0,1-.308,1.391c-.238.884-.612,2.154-1.1,3.717-.969,3.124-2.4,7.413-4.143,12.093s-3.457,8.861-4.767,11.859c-.654,1.5-1.2,2.705-1.6,3.529A6.143,6.143,0,0,1,571.508,213.981Z" transform="translate(-571.502 -180.136)"/>
        </g>
        <g id="Grupo_78564" data-name="Grupo 78564" transform="translate(68.782 185.068)">
          <path id="Trazado_143494" data-name="Trazado 143494" d="M684.89,212.106c-.173.036-1.522-5.867-3.01-13.181s-2.552-13.276-2.376-13.312,1.522,5.865,3.01,13.182S685.066,212.07,684.89,212.106Z" transform="translate(-679.485 -185.613)"/>
        </g>
        <g id="Grupo_78571" data-name="Grupo 78571" transform="translate(13.689 204.551)">
          <g id="Grupo_78569" data-name="Grupo 78569" transform="translate(0)">
            <path id="Trazado_143495" data-name="Trazado 143495" d="M661.466,278.853c.391.2-4.543-38.647-4.543-38.647s3.115-29.481,4.865-30.844l.045-10.4s4.822-2.921,6.116,1.794c0,0,4.274-3.713,5.022,5.124s.9,17.868.9,17.868l9.515,23.793,1.568.792s2.043-18.639,3.232-21.382,2-9.414,6.514-8.414,4.887,4.733,4.075,10.815-1.82,12.359-1.444,16.286,2.161,12.572,1.611,19.44-4.308,14.115-8.257,19.2S679.2,299.887,675.1,303.057C673.671,304.164,661.466,278.853,661.466,278.853Z" transform="translate(-603.308 -198.066)" fill="#ffbe9d"/>
            <g id="Grupo_78565" data-name="Grupo 78565" transform="translate(58.694 11.8)">
              <path id="Trazado_143496" data-name="Trazado 143496" d="M680.225,242.983a8.245,8.245,0,0,1,.027-1.663c.081-1.192.186-2.705.31-4.512.291-3.808.735-9.065,1.267-14.866.274-2.894.535-5.651.774-8.178a14.629,14.629,0,0,0,.044-3.508,4.973,4.973,0,0,0-1.186-2.68,5.341,5.341,0,0,0-3.885-1.705,10.149,10.149,0,0,0-1.619.207c-.009-.02.122-.089.385-.2a4.27,4.27,0,0,1,1.225-.255,5.461,5.461,0,0,1,4.227,1.646,5.389,5.389,0,0,1,1.381,2.908,14.666,14.666,0,0,1,.02,3.644c-.224,2.528-.468,5.288-.724,8.182-.532,5.8-1.048,11.051-1.455,14.85l-.515,4.493A8.1,8.1,0,0,1,680.225,242.983Z" transform="translate(-675.957 -205.609)" fill="#eb996e"/>
            </g>
            <g id="Grupo_78566" data-name="Grupo 78566" transform="translate(62.609 33.285)">
              <path id="Trazado_143497" data-name="Trazado 143497" d="M680.118,219.344a13.364,13.364,0,0,0-1.685,3.066c-.766,2.026-1.043,5.069-1.582,8.386-.513,3.321-1.012,6.322-1.407,8.489a19.589,19.589,0,0,1-.768,3.487,19.358,19.358,0,0,1,.318-3.556c.277-2.186.706-5.2,1.219-8.519.538-3.3.884-6.369,1.794-8.453a8.033,8.033,0,0,1,1.375-2.265C679.8,219.508,680.1,219.32,680.118,219.344Z" transform="translate(-674.648 -219.342)" fill="#eb996e"/>
            </g>
            <g id="Grupo_78567" data-name="Grupo 78567" transform="translate(64.559 2.177)">
              <path id="Trazado_143498" data-name="Trazado 143498" d="M675.219,199.458a4.789,4.789,0,0,1,.332,1.222c.174.795.39,1.949.626,3.382.474,2.866.994,6.851,1.322,11.274s.4,8.442.349,11.347c-.023,1.452-.067,2.627-.122,3.437a4.73,4.73,0,0,1-.149,1.258,41.366,41.366,0,0,1-.186-4.693c-.069-2.9-.213-6.895-.537-11.3s-.771-8.381-1.13-11.255A41.26,41.26,0,0,1,675.219,199.458Z" transform="translate(-675.199 -199.458)" fill="#eb996e"/>
            </g>
            <g id="Grupo_78568" data-name="Grupo 78568" transform="translate(86.298 36.846)">
              <path id="Trazado_143499" data-name="Trazado 143499" d="M665.071,223.369c.094.147-1.391.837-3.2.272-1.821-.543-2.668-1.943-2.508-2.014.142-.124,1.1.929,2.7,1.4C663.643,223.528,665.021,223.187,665.071,223.369Z" transform="translate(-659.34 -221.618)" fill="#eb996e"/>
            </g>
            <path id="Trazado_143500" data-name="Trazado 143500" d="M729.1,246.616l-25.138,10.565H688.989S674.174,261.8,671.9,275.69s-2.6,21.034,3.906,22.751,24.908,1.909,34.024-1.117,33-22.3,33-22.3l2.3-13.939Z" transform="translate(-670.41 -170.661)" fill="#ffbe9d"/>
          </g>
          <g id="Grupo_78570" data-name="Grupo 78570" transform="translate(57.02 68.485)">
            <path id="Trazado_143501" data-name="Trazado 143501" d="M684.445,264.659c-.033.03-.285-.2-.715-.656a15.534,15.534,0,0,1-1.633-2.078,28.383,28.383,0,0,1-3.511-7.951,47.012,47.012,0,0,1-1.549-8.542,15.856,15.856,0,0,1-.1-3.592,26.064,26.064,0,0,1,.551,3.539,63.6,63.6,0,0,0,1.716,8.418,33.182,33.182,0,0,0,3.276,7.883C683.612,263.559,684.534,264.578,684.445,264.659Z" transform="translate(-676.883 -241.841)" fill="#eb996e"/>
          </g>
        </g>
        <g id="Grupo_78572" data-name="Grupo 78572" transform="translate(77.839 265.824)">
          <path id="Trazado_143502" data-name="Trazado 143502" d="M679.936,271.668a25.884,25.884,0,0,0,1.432-5.388,17.363,17.363,0,0,0-3.376-12.616c-1.527-2.14-3.245-4-4.692-5.806a26.969,26.969,0,0,1-3.4-5.138,13.49,13.49,0,0,1-1.259-3.964,4.531,4.531,0,0,1-.042-1.524,17.127,17.127,0,0,0,1.71,5.282,28.816,28.816,0,0,0,3.45,4.967c1.46,1.765,3.2,3.622,4.759,5.809a18.112,18.112,0,0,1,3.135,6.878,17.487,17.487,0,0,1,.166,6.173,15.892,15.892,0,0,1-1.151,3.994,8.608,8.608,0,0,1-.507,1.008C680.033,271.566,679.957,271.677,679.936,271.668Z" transform="translate(-668.561 -237.232)" fill="#eb996e"/>
        </g>
      </g>
    </g>
    <path id="Unión_4" data-name="Unión 4" d="M11.455.181C6.706,1.311.466,9.017.466,9.017c-2.486,7.234,5.368,25.109,14.41,31.89s22.157,0,22.157,0l12.161,4.222c-.007,2.594-.061,4.911-.154,6.76-.131,2.793-.346,4.512-.244,4.531-.7,8.526-1.533,19.431-1.364,21.79.225,3.165,3.617,10.852,3.617,10.852v5.258l8.139,25.035a3.818,3.818,0,0,0,2.8-.007c-.045,4.155-.071,6.565-.071,6.565l-8.972,48.6,53.091,9.348,10.47,8.224,59.073-2.991,8.972-8.972,14.107-3.578s31.507-9.883,39.358-18.481l-10.542-49.043c1.426-9.124,2.782-21.961,2.782-21.961s-2.064-16.241-3.416-27.666c-.019-.59-.063-1.359-.142-2.272-.114-1.206-.285-2.666-.57-4.277l24.188-10.166h14.977s14.816-4.623,17.094-18.51,2.6-21.034-3.907-22.751C275.546.644,270.2.181,264.385.181c-7.1,0-14.92.691-19.931,2.354C236.4,5.209,216.823,20.56,212.369,24.1l.26-23.921H63.256c0,.393-.059,6.182-.153,15.081C61.611,14.3,49.551,6.657,42.338,5.137,35.5,3.7,20.137,0,13.489,0A9.159,9.159,0,0,0,11.455.181Z" transform="translate(499.814 4569.888) rotate(180)" stroke="rgba(0,0,0,0)" stroke-miterlimit="10" stroke-width="1" fill="url(#linear-gradient)"/>
  </g>
</svg>
