<svg xmlns="http://www.w3.org/2000/svg" xmlns:xlink="http://www.w3.org/1999/xlink" width="313" height="419" viewBox="0 0 313 419">
  <defs>
    <clipPath id="clip-path">
      <rect id="Rectángulo_34017" data-name="Rectángulo 34017" width="313" height="419" transform="translate(-24.215 0)" fill="#fff" stroke="#707070" stroke-width="1"/>
    </clipPath>
  </defs>
  <g id="Enmascarar_grupo_64" data-name="Enmascarar grupo 64" transform="translate(24.215)" clip-path="url(#clip-path)">
    <g id="Grupo_121228" data-name="Grupo 121228" transform="translate(-14.653 14.407)">
      <path id="Trazado_144049" data-name="Trazado 144049" d="M320.411,366.9c0,7.483,4.338,151.117,4.338,151.117l-61.16-.309L252.9,453.866l-2.814,63.839H191.418l6.37-157.658Z" transform="translate(-76.276 -24.827)" fill="#455a64"/>
      <g id="Grupo_121380" data-name="Grupo 121380" transform="translate(0 63.302)">
        <path id="Trazado_144050" data-name="Trazado 144050" d="M166.014,364.346l-31.237-46.574,23.176-18.822,39.181,36.341S214,240.732,230.615,235l-1.294,146.693h0A50.2,50.2,0,0,1,166.014,364.346Z" transform="translate(-102.063 -145.058)" fill="#263238"/>
        <g id="Grupo_121363" data-name="Grupo 121363">
          <g id="Grupo_121360" data-name="Grupo 121360">
            <path id="Trazado_144051" data-name="Trazado 144051" d="M112.3,173.195l6.643,90.659,108.822,208.6,62.908-36.438L183.43,232.15Z" transform="translate(-112.297 -173.195)" fill="#023055"/>
            <g id="Grupo_121359" data-name="Grupo 121359" transform="translate(0 0)" opacity="0.7">
              <path id="Trazado_144052" data-name="Trazado 144052" d="M184.5,232.54a6.4,6.4,0,0,1-9.3,1.825,16.177,16.177,0,0,1-25.867,16.447A18.873,18.873,0,0,1,118.9,263.175l-6.6-89.98Z" transform="translate(-112.297 -173.195)" fill="#fff"/>
            </g>
            <path id="Trazado_144053" data-name="Trazado 144053" d="M114.969,209.654s14.746,9.258,26.471-12.3L112.3,173.2Z" transform="translate(-112.297 -173.195)" fill="#023055"/>
          </g>
          <g id="Grupo_121361" data-name="Grupo 121361" transform="translate(36.779 77.935)">
            <path id="Trazado_144054" data-name="Trazado 144054" d="M240.234,431.031c-.186.095-23.322-45.564-51.668-101.966-28.356-56.423-51.183-102.223-51-102.316s23.318,45.552,51.672,101.976C217.589,385.128,240.422,430.938,240.234,431.031Z" transform="translate(-137.57 -226.749)" fill="#fff"/>
          </g>
          <g id="Grupo_121362" data-name="Grupo 121362" transform="translate(62.935 62.282)">
            <path id="Trazado_144055" data-name="Trazado 144055" d="M258.209,420.276c-.188.093-23.323-45.564-51.669-101.967-28.354-56.422-51.181-102.223-51-102.316s23.318,45.554,51.673,101.976C235.563,374.372,258.395,420.182,258.209,420.276Z" transform="translate(-155.543 -215.993)" fill="#fff"/>
          </g>
        </g>
        <g id="Grupo_121379" data-name="Grupo 121379" transform="translate(20.516 121.45)">
          <g id="Grupo_121366" data-name="Grupo 121366" transform="translate(0)">
            <g id="Grupo_121365" data-name="Grupo 121365">
              <g id="Grupo_121364" data-name="Grupo 121364">
                <path id="Trazado_144056" data-name="Trazado 144056" d="M143.535,256.651l-14.115,5.639L126.4,273.663l4.862,18.971,11.4,12.093,7.691-6.358.483-11.613.94-6.5s6.959-2.183,7.131-3.248-.863-4.635-1.931-4.807-8.366,2.545-8.366,2.545,8.64-6.838,8.4-7.937-1.17-3.907-2.893-4.219-15.664,6.258-15.664,6.258l-2.263,5.16-1.975-8.253S146.6,262.283,143.535,256.651Z" transform="translate(-126.395 -256.651)" fill="#b78876"/>
              </g>
            </g>
          </g>
          <g id="Grupo_121370" data-name="Grupo 121370" transform="translate(18.377 17.947)">
            <g id="Grupo_121369" data-name="Grupo 121369">
              <g id="Grupo_121368" data-name="Grupo 121368">
                <g id="Grupo_121367" data-name="Grupo 121367">
                  <path id="Trazado_144057" data-name="Trazado 144057" d="M139.561,277.7c-.083.026-.348-.489-.477-1.406a7.657,7.657,0,0,1,2.422-6.543c.7-.611,1.231-.831,1.278-.757.14.167-1.7,1.49-2.593,3.99C139.241,275.465,139.777,277.666,139.561,277.7Z" transform="translate(-139.023 -268.983)" fill="#aa6550"/>
                </g>
              </g>
            </g>
          </g>
          <g id="Grupo_121374" data-name="Grupo 121374" transform="translate(12.199 8.819)">
            <g id="Grupo_121373" data-name="Grupo 121373">
              <g id="Grupo_121372" data-name="Grupo 121372">
                <g id="Grupo_121371" data-name="Grupo 121371">
                  <path id="Trazado_144058" data-name="Trazado 144058" d="M134.787,278.094a30.922,30.922,0,0,0,.559-3.7,16.1,16.1,0,0,1,.71-4.1,6.044,6.044,0,0,1,1.3-2.186,6.454,6.454,0,0,1,2.307-1.451c3.376-1.224,6.415-2.215,8.64-2.934a19.447,19.447,0,0,1,3.645-1,19.312,19.312,0,0,1-3.475,1.49c-2.167.838-5.226,1.924-8.537,3.124a5.877,5.877,0,0,0-2.068,1.272,5.525,5.525,0,0,0-1.182,1.921,17.809,17.809,0,0,0-.828,3.922C135.583,276.8,134.882,278.154,134.787,278.094Z" transform="translate(-134.778 -262.711)" fill="#aa6550"/>
                </g>
              </g>
            </g>
          </g>
          <g id="Grupo_121378" data-name="Grupo 121378" transform="translate(8.843 16.204)">
            <g id="Grupo_121377" data-name="Grupo 121377" transform="translate(0)">
              <g id="Grupo_121376" data-name="Grupo 121376">
                <g id="Grupo_121375" data-name="Grupo 121375">
                  <path id="Trazado_144059" data-name="Trazado 144059" d="M132.6,273.233c-.2-.033-.157-1.279.09-2.782s.611-2.7.809-2.665.159,1.279-.09,2.782S132.8,273.267,132.6,273.233Z" transform="translate(-132.472 -267.786)" fill="#aa6550"/>
                </g>
              </g>
            </g>
          </g>
        </g>
      </g>
      <path id="Trazado_144060" data-name="Trazado 144060" d="M290.984,217.686l-12.375-4.207L232.362,224.1l-4.1,3.394L203.776,454.113c10.514,10.84,43.658,12.991,62.477,9.782Z" transform="translate(-70.65 -91.553)" fill="#db6464"/>
      <path id="Trazado_144061" data-name="Trazado 144061" d="M272.825,217.6l-5.951-2.975s-13.093,57.691-13.093,95.8-8.232,176.245-8.232,176.245l62.389-1.607v-152.6Z" transform="translate(-51.633 -91.033)" fill="#263238"/>
      <path id="Trazado_144062" data-name="Trazado 144062" d="M211.17,485.366l-23.636-6.923,8.247-111.687-1.564-80.962,12.38-45.123,29.34-18.128S212.786,471.91,211.17,485.366Z" transform="translate(-78.045 -87.427)" fill="#263238"/>
      <g id="Grupo_121436" data-name="Grupo 121436" transform="translate(136.667 0)">
        <g id="Grupo_121431" data-name="Grupo 121431" transform="translate(0)">
          <g id="Grupo_121429" data-name="Grupo 121429" transform="translate(6.122 22.363)">
            <g id="Grupo_121389" data-name="Grupo 121389" transform="translate(0)">
              <g id="Grupo_121388" data-name="Grupo 121388">
                <g id="Grupo_121387" data-name="Grupo 121387">
                  <g id="Grupo_121383" data-name="Grupo 121383">
                    <g id="Grupo_121382" data-name="Grupo 121382">
                      <g id="Grupo_121381" data-name="Grupo 121381">
                        <path id="Trazado_144063" data-name="Trazado 144063" d="M250.059,276.716h0a22.774,22.774,0,0,1-20.753-22.77l.076-20.264s-18.722-2.912-18.953-21.629,3.015-61.7,3.015-61.7h0a65.055,65.055,0,0,1,65.369,8.218l2.774,2.135L274.8,255.655A22.774,22.774,0,0,1,250.059,276.716Z" transform="translate(-210.416 -145.063)" fill="#b78876"/>
                      </g>
                    </g>
                  </g>
                  <g id="Grupo_121386" data-name="Grupo 121386" transform="translate(18.891 81.413)">
                    <g id="Grupo_121385" data-name="Grupo 121385">
                      <g id="Grupo_121384" data-name="Grupo 121384">
                        <path id="Trazado_144064" data-name="Trazado 144064" d="M223.441,207.941s11.83.963,24.4-6.934c0,0-5.769,13.471-24.447,11.785Z" transform="translate(-223.397 -201.007)" fill="#aa6550"/>
                      </g>
                    </g>
                  </g>
                </g>
              </g>
            </g>
            <g id="Grupo_121397" data-name="Grupo 121397" transform="translate(68.132 34.438)">
              <g id="Grupo_121392" data-name="Grupo 121392">
                <g id="Grupo_121391" data-name="Grupo 121391">
                  <g id="Grupo_121390" data-name="Grupo 121390">
                    <path id="Trazado_144065" data-name="Trazado 144065" d="M257.965,169.317c.319-.138,12.862-3.8,12.453,8.994s-13.173,9.747-13.183,9.379S257.965,169.317,257.965,169.317Z" transform="translate(-257.234 -168.728)" fill="#b78876"/>
                  </g>
                </g>
              </g>
              <g id="Grupo_121396" data-name="Grupo 121396" transform="translate(4.052 4.19)">
                <g id="Grupo_121395" data-name="Grupo 121395">
                  <g id="Grupo_121394" data-name="Grupo 121394">
                    <g id="Grupo_121393" data-name="Grupo 121393">
                      <path id="Trazado_144066" data-name="Trazado 144066" d="M260.031,181.656c.057-.038.218.164.589.349a2.232,2.232,0,0,0,1.665.087c1.368-.454,2.574-2.564,2.711-4.868a7.374,7.374,0,0,0-.523-3.212,2.578,2.578,0,0,0-1.623-1.765,1.135,1.135,0,0,0-1.334.569c-.183.352-.111.611-.179.63-.036.031-.268-.223-.148-.748a1.433,1.433,0,0,1,.53-.786,1.681,1.681,0,0,1,1.243-.287,3.136,3.136,0,0,1,2.266,2.059,7.566,7.566,0,0,1,.659,3.592c-.164,2.576-1.561,4.946-3.429,5.422a2.388,2.388,0,0,1-2.029-.4C260.044,181.967,259.986,181.677,260.031,181.656Z" transform="translate(-260.018 -171.607)" fill="#aa6550"/>
                    </g>
                  </g>
                </g>
              </g>
            </g>
            <g id="Grupo_121428" data-name="Grupo 121428" transform="translate(6.526 18.726)">
              <g id="Grupo_121427" data-name="Grupo 121427" transform="translate(0)">
                <g id="Grupo_121420" data-name="Grupo 121420" transform="translate(0 10.083)">
                  <g id="Grupo_121419" data-name="Grupo 121419">
                    <g id="Grupo_121418" data-name="Grupo 121418">
                      <g id="Grupo_121405" data-name="Grupo 121405" transform="translate(0)">
                        <g id="Grupo_121400" data-name="Grupo 121400" transform="translate(2.636 2.861)">
                          <g id="Grupo_121399" data-name="Grupo 121399">
                            <g id="Grupo_121398" data-name="Grupo 121398">
                              <path id="Trazado_144067" data-name="Trazado 144067" d="M216.714,169.243a2.672,2.672,0,0,0,2.577,2.7,2.558,2.558,0,0,0,2.756-2.41,2.676,2.676,0,0,0-2.576-2.7A2.559,2.559,0,0,0,216.714,169.243Z" transform="translate(-216.712 -166.826)" fill="#263238"/>
                            </g>
                          </g>
                        </g>
                        <g id="Grupo_121404" data-name="Grupo 121404" transform="translate(0)">
                          <g id="Grupo_121403" data-name="Grupo 121403">
                            <g id="Grupo_121402" data-name="Grupo 121402">
                              <g id="Grupo_121401" data-name="Grupo 121401">
                                <path id="Trazado_144068" data-name="Trazado 144068" d="M214.943,167.67c.33.348,2.356-1.151,5.233-1.142,2.873-.035,4.984,1.445,5.3,1.093.154-.156-.183-.784-1.1-1.454a7.335,7.335,0,0,0-4.239-1.307,7.049,7.049,0,0,0-4.166,1.345C215.079,166.883,214.78,167.513,214.943,167.67Z" transform="translate(-214.901 -164.86)" fill="#263238"/>
                              </g>
                            </g>
                          </g>
                        </g>
                      </g>
                      <g id="Grupo_121413" data-name="Grupo 121413" transform="translate(28.275 0.537)">
                        <g id="Grupo_121408" data-name="Grupo 121408" transform="translate(2.636 3.538)">
                          <g id="Grupo_121407" data-name="Grupo 121407">
                            <g id="Grupo_121406" data-name="Grupo 121406">
                              <path id="Trazado_144069" data-name="Trazado 144069" d="M236.144,170.076a2.673,2.673,0,0,0,2.577,2.7,2.558,2.558,0,0,0,2.756-2.41,2.674,2.674,0,0,0-2.576-2.7A2.557,2.557,0,0,0,236.144,170.076Z" transform="translate(-236.142 -167.66)" fill="#263238"/>
                            </g>
                          </g>
                        </g>
                        <g id="Grupo_121412" data-name="Grupo 121412">
                          <g id="Grupo_121411" data-name="Grupo 121411">
                            <g id="Grupo_121410" data-name="Grupo 121410">
                              <g id="Grupo_121409" data-name="Grupo 121409">
                                <path id="Trazado_144070" data-name="Trazado 144070" d="M234.372,168.038c.332.349,2.36-1.15,5.235-1.142,2.873-.033,4.984,1.447,5.3,1.094.153-.156-.182-.784-1.1-1.454a7.335,7.335,0,0,0-4.239-1.307,7.049,7.049,0,0,0-4.166,1.345C234.512,167.252,234.211,167.882,234.372,168.038Z" transform="translate(-234.33 -165.229)" fill="#263238"/>
                              </g>
                            </g>
                          </g>
                        </g>
                      </g>
                      <g id="Grupo_121417" data-name="Grupo 121417" transform="translate(10.549 0.71)">
                        <g id="Grupo_121416" data-name="Grupo 121416">
                          <g id="Grupo_121415" data-name="Grupo 121415">
                            <g id="Grupo_121414" data-name="Grupo 121414">
                              <path id="Trazado_144071" data-name="Trazado 144071" d="M229.479,189.318c.013-.164-1.775-.473-4.673-.844-.733-.076-1.429-.221-1.553-.723a3.737,3.737,0,0,1,.49-2.177l2.171-5.593c3.017-7.963,5.2-14.512,4.879-14.631s-3.028,6.24-6.045,14.2q-1.089,2.945-2.081,5.626a4.249,4.249,0,0,0-.38,2.883,1.841,1.841,0,0,0,1.206,1.074,4.977,4.977,0,0,0,1.249.173C227.658,189.468,229.467,189.481,229.479,189.318Z" transform="translate(-222.15 -165.348)" fill="#263238"/>
                            </g>
                          </g>
                        </g>
                      </g>
                    </g>
                  </g>
                </g>
                <g id="Grupo_121423" data-name="Grupo 121423" transform="translate(27.56)">
                  <g id="Grupo_121422" data-name="Grupo 121422">
                    <g id="Grupo_121421" data-name="Grupo 121421">
                      <path id="Trazado_144072" data-name="Trazado 144072" d="M233.854,160.088c.284.781,3.156.412,6.531.818,3.383.339,6.1,1.327,6.552.626.2-.335-.274-1.071-1.375-1.828a11.432,11.432,0,0,0-9.967-1.1C234.356,159.1,233.732,159.717,233.854,160.088Z" transform="translate(-233.839 -157.931)" fill="#263238"/>
                    </g>
                  </g>
                </g>
                <g id="Grupo_121426" data-name="Grupo 121426" transform="translate(1.025 1.588)">
                  <g id="Grupo_121425" data-name="Grupo 121425" transform="translate(0)">
                    <g id="Grupo_121424" data-name="Grupo 121424">
                      <path id="Trazado_144073" data-name="Trazado 144073" d="M215.679,162c.506.653,2.488-.025,4.871-.057,2.382-.115,4.4.439,4.865-.244.2-.332-.113-.987-1-1.605a7.055,7.055,0,0,0-7.844.243C215.733,161.01,215.456,161.683,215.679,162Z" transform="translate(-215.605 -159.023)" fill="#263238"/>
                    </g>
                  </g>
                </g>
              </g>
            </g>
          </g>
          <g id="Grupo_121430" data-name="Grupo 121430">
            <path id="Trazado_144074" data-name="Trazado 144074" d="M206.238,145.529a6.911,6.911,0,0,1,2.551-6.175,4.9,4.9,0,0,1,6.351.476,5.72,5.72,0,0,1,4.917-6.937c3.053-.194,5.657,2.113,8.606,2.922,2.878.789,5.969.106,8.74-1.01s5.358-2.654,8.163-3.679a23.937,23.937,0,0,1,30.616,14.055c4.094-1.279,8.745.8,11.27,4.267s3.171,8.023,2.669,12.282a39.013,39.013,0,0,1-2.139,8.4c0,.242.023.477.019.719-.194,10.293-1.356,22.38-5.748,22.447-7.653.118-5.83-14.3-5.83-14.3-9.394-3.629-5.894-17.7-8.243-19.838s-7.262-7.1-26.928,2.956c-7.636,3.9-17.789,3.781-23.332,2.523-.163-.035-.327-.06-.489-.1-.035-.009-.08-.015-.115-.023-.06-.016-.1-.049-.161-.065a17.748,17.748,0,0,1-5.044-2.141,9.962,9.962,0,0,1-4.156-4.62,5.457,5.457,0,0,1,1.073-5.859A12.008,12.008,0,0,1,206.238,145.529Z" transform="translate(-206.209 -129.696)" fill="#263238"/>
          </g>
        </g>
        <path id="Trazado_144075" data-name="Trazado 144075" d="M225.633,188.908a12.844,12.844,0,0,0,1.669,3.27,4.34,4.34,0,0,0,3.087,1.791,3.894,3.894,0,0,0,3.3-1.8,6.219,6.219,0,0,0,.92-3.749c-.054-1.182-.6-2.592-1.77-2.732a2.974,2.974,0,0,0-1.426.316q-3.087,1.253-6.175,2.5" transform="translate(-197.548 -104.208)" fill="#aa6550"/>
        <g id="Grupo_121432" data-name="Grupo 121432" transform="translate(26.513 80.837)">
          <path id="Trazado_144076" data-name="Trazado 144076" d="M228.466,194.188c.032-.194,1.387.357,3.293-.407a4.7,4.7,0,0,0,2.488-2.262,4.957,4.957,0,0,0,.081-4.04,4.393,4.393,0,0,0-.538-.923c-.244-.256-.2-.245-.466-.205-.252.067-.658.259-.99.389l-1.014.412c-1.321.536-2.518,1-3.528,1.38-2.023.755-3.3,1.153-3.363,1.013s1.113-.79,3.056-1.729c.972-.47,2.136-1.011,3.436-1.6l1-.448a11.1,11.1,0,0,1,1.128-.464,1.439,1.439,0,0,1,.915.026,1.7,1.7,0,0,1,.681.538,5.291,5.291,0,0,1,.694,1.171,5.788,5.788,0,0,1-.188,4.939,5.278,5.278,0,0,1-3.135,2.534,4.986,4.986,0,0,1-2.675.1C228.73,194.457,228.441,194.249,228.466,194.188Z" transform="translate(-224.429 -185.244)" fill="#263238"/>
        </g>
        <g id="Grupo_121433" data-name="Grupo 121433" transform="translate(12.236 16.897)">
          <path id="Trazado_144077" data-name="Trazado 144077" d="M264.972,152.124a11.329,11.329,0,0,0,.01-2.266,8.843,8.843,0,0,0-2.927-5.256,11.91,11.91,0,0,0-8.427-2.784c-3.464.029-7.144,1.167-10.949,2.449-1.912.63-3.8,1.231-5.668,1.644a29.333,29.333,0,0,1-5.473.665,29.713,29.713,0,0,1-9.222-1.212,28.7,28.7,0,0,1-5.772-2.448c-.648-.358-1.128-.674-1.449-.895a2.377,2.377,0,0,1-.476-.357c.031-.048.715.4,2.027,1.062a31.773,31.773,0,0,0,5.777,2.263,30.319,30.319,0,0,0,9.1,1.078,29.412,29.412,0,0,0,5.371-.684c1.838-.413,3.7-1.011,5.613-1.642,3.8-1.279,7.557-2.432,11.117-2.433a12.2,12.2,0,0,1,8.7,3.005,8.85,8.85,0,0,1,2.874,5.518A5.17,5.17,0,0,1,264.972,152.124Z" transform="translate(-214.618 -141.307)" fill="#455a64"/>
        </g>
        <g id="Grupo_121434" data-name="Grupo 121434" transform="translate(65.49 22.833)">
          <path id="Trazado_144078" data-name="Trazado 144078" d="M262.866,181.9a1.589,1.589,0,0,1-.246-.394c-.15-.265-.345-.667-.582-1.193a24.043,24.043,0,0,1-1.49-4.652,25.644,25.644,0,0,1-.483-7.236,64.468,64.468,0,0,1,1.671-8.7,17.039,17.039,0,0,0,.017-8.6,8.694,8.694,0,0,0-1.794-3.261,6.567,6.567,0,0,0-2.689-1.764,6.139,6.139,0,0,0-4.619.118,8.988,8.988,0,0,0-1.438,1.007,3.582,3.582,0,0,1,1.339-1.2,6.217,6.217,0,0,1,4.843-.3,6.892,6.892,0,0,1,2.9,1.826,9.065,9.065,0,0,1,1.94,3.415,17.241,17.241,0,0,1,.038,8.867,69.25,69.25,0,0,0-1.7,8.625,26.561,26.561,0,0,0,.358,7.118,27.883,27.883,0,0,0,1.308,4.65A16.89,16.89,0,0,1,262.866,181.9Z" transform="translate(-251.212 -145.386)" fill="#455a64"/>
        </g>
        <g id="Grupo_121435" data-name="Grupo 121435" transform="translate(10.244 5.151)">
          <path id="Trazado_144079" data-name="Trazado 144079" d="M267.392,154.286a4,4,0,0,1,.007-.752c.02-.546.048-1.257.08-2.147a24.847,24.847,0,0,0-.864-7.774,13.741,13.741,0,0,0-2.5-4.721,9.663,9.663,0,0,0-5.019-3.317,12.68,12.68,0,0,0-6.7.275,31,31,0,0,0-6.7,3.036,55.222,55.222,0,0,1-6.642,3.417,20.281,20.281,0,0,1-6.846,1.375,21.645,21.645,0,0,1-6.269-.77,24.206,24.206,0,0,1-5.086-2.1,20.779,20.779,0,0,1-6.022-5.14,13.042,13.042,0,0,1-1.221-1.78,3.859,3.859,0,0,1-.362-.658,3.825,3.825,0,0,1,.456.6,16.364,16.364,0,0,0,1.294,1.7,21.561,21.561,0,0,0,6.045,4.935,24.36,24.36,0,0,0,5.016,2,21.393,21.393,0,0,0,6.135.7,19.994,19.994,0,0,0,6.661-1.368,56.05,56.05,0,0,0,6.571-3.4,31.143,31.143,0,0,1,6.822-3.075,13.124,13.124,0,0,1,6.978-.246,10.093,10.093,0,0,1,5.24,3.517,14,14,0,0,1,2.521,4.9,23.791,23.791,0,0,1,.706,7.893c-.055.936-.128,1.658-.185,2.148A3.791,3.791,0,0,1,267.392,154.286Z" transform="translate(-213.249 -133.236)" fill="#455a64"/>
        </g>
      </g>
      <path id="Trazado_144080" data-name="Trazado 144080" d="M272.507,216.665s44.634,14.283,47.609,22.02c2.232,5.8,25.684,76.2,30.744,122.083a33.7,33.7,0,0,1-30.512,37.1c-30.22,2.777-74.1,6.381-74.1,3.9V363.716l56.841-8.391-21.059-61.891Z" transform="translate(-51.315 -90.103)" fill="#263238"/>
      <g id="Grupo_121440" data-name="Grupo 121440" transform="translate(151.506 249.386)">
        <path id="Trazado_144081" data-name="Trazado 144081" d="M228.8,355.652c5.83,1.512,31.029,1.512,31.029,1.512v-29.89s-10.964-4.685-13.991-7.409-11.623-18.8-11.623-18.8a8.615,8.615,0,0,0-3.954,9.2c1.413,6.565,4.13,7.364,4.315,9.979,0,.028.226.672.23.7.586,3.644-2.895,6.853-2.895,6.853a12.7,12.7,0,0,0-3.826-1.957c-5.307-.627-11.6,3.175-11.6,5.3,0,0-.183,5.724,0,6.572s2.871,1.981,2.871,1.981-.85,3.819,0,5.517,3.677,2.97,3.677,2.97S225.517,354.8,228.8,355.652Z" transform="translate(-216.406 -301.065)" fill="#b78876"/>
        <g id="Grupo_121437" data-name="Grupo 121437" transform="translate(6.779 47.204)">
          <path id="Trazado_144082" data-name="Trazado 144082" d="M232.8,336.093c.01.195-2.759.4-6.073-.329-3.319-.717-5.748-2.062-5.657-2.235.09-.2,2.593.8,5.818,1.495C230.1,335.737,232.8,335.868,232.8,336.093Z" transform="translate(-221.064 -333.502)" fill="#aa6550"/>
        </g>
        <g id="Grupo_121438" data-name="Grupo 121438" transform="translate(3.61 39.017)">
          <path id="Trazado_144083" data-name="Trazado 144083" d="M232.309,329.7c.048.183-3.049.889-6.878.364-3.835-.5-6.636-1.994-6.543-2.158.087-.212,2.937.928,6.643,1.407C229.233,329.82,232.282,329.468,232.309,329.7Z" transform="translate(-218.886 -327.876)" fill="#aa6550"/>
        </g>
        <g id="Grupo_121439" data-name="Grupo 121439" transform="translate(0.986 15.17)">
          <path id="Trazado_144084" data-name="Trazado 144084" d="M232.26,311.49a11.411,11.411,0,0,1,2.026,3.7,13.677,13.677,0,0,1,.645,2.061,4.953,4.953,0,0,1-.026,2.557,7.569,7.569,0,0,1-3.608,4.414,9.393,9.393,0,0,1-2.782,1.1,16.882,16.882,0,0,1-2.726.281c-1.724.06-3.261.032-4.549.064-2.58.013-4.121.384-4.155.285s1.521-.669,4.13-.821c1.3-.1,2.844-.128,4.539-.227a17.288,17.288,0,0,0,2.6-.309,8.951,8.951,0,0,0,2.554-1.023,7.047,7.047,0,0,0,3.319-3.951,4.369,4.369,0,0,0,.082-2.244,14.766,14.766,0,0,0-.531-2C232.96,312.943,232.159,311.547,232.26,311.49Z" transform="translate(-217.083 -311.489)" fill="#aa6550"/>
        </g>
      </g>
      <g id="Grupo_121441" data-name="Grupo 121441" transform="translate(194.932 265.107)">
        <path id="Trazado_144085" data-name="Trazado 144085" d="M303.8,311.888a15.28,15.28,0,0,1-2.24.474l-6.147,1.052c-5.194.859-12.377,2-20.32,3.2s-15.146,2.235-20.366,2.924-8.475,1.033-8.478.84l2.247-.383,6.154-.988c5.332-.824,12.456-1.924,20.33-3.142,7.941-1.2,15.138-2.254,20.353-2.976l6.183-.815A11.709,11.709,0,0,1,303.8,311.888Z" transform="translate(-246.247 -311.868)" fill="#455a64"/>
      </g>
      <g id="Grupo_121442" data-name="Grupo 121442" transform="translate(250.738 257.915)">
        <path id="Trazado_144086" data-name="Trazado 144086" d="M310.471,308.5a26.1,26.1,0,0,1-4.481-.038c-2.762-.119-6.573-.338-10.78-.624a20.938,20.938,0,0,0-5.815.065,5.857,5.857,0,0,0-3.787,2.4,4.087,4.087,0,0,0-.534,2.98c.172.725.45,1.07.394,1.108-.025.026-.4-.259-.678-1.026a4.2,4.2,0,0,1,.355-3.333,6.265,6.265,0,0,1,4.091-2.813,20.082,20.082,0,0,1,6.026-.14c4.206.287,8.013.589,10.765.846A26.124,26.124,0,0,1,310.471,308.5Z" transform="translate(-284.595 -306.926)" fill="#455a64"/>
      </g>
      <g id="Grupo_121443" data-name="Grupo 121443" transform="translate(251.275 265.162)">
        <path id="Trazado_144087" data-name="Trazado 144087" d="M300.944,316.661c-.06.2-3.685-.694-8.1-2s-7.941-2.526-7.883-2.727,3.685.694,8.1,2S301,316.46,300.944,316.661Z" transform="translate(-284.964 -311.906)" fill="#455a64"/>
      </g>
      <g id="Grupo_121444" data-name="Grupo 121444" transform="translate(231.989 195.463)">
        <path id="Trazado_144088" data-name="Trazado 144088" d="M271.718,264.011c.2-.061,4.785,14.41,10.239,32.317s9.715,32.481,9.514,32.542-4.783-14.407-10.239-32.321S271.519,264.071,271.718,264.011Z" transform="translate(-271.711 -264.011)" fill="#455a64"/>
      </g>
      <g id="Grupo_121445" data-name="Grupo 121445" transform="translate(233.976 149.65)">
        <path id="Trazado_144089" data-name="Trazado 144089" d="M304.425,232.544c.031.144-2.614.54-6.591,2.078a39.247,39.247,0,0,0-22.711,22.869c-1.509,3.989-1.887,6.636-2.031,6.605a7.832,7.832,0,0,1,.217-1.858,33.21,33.21,0,0,1,1.311-4.93,37.635,37.635,0,0,1,23.028-23.188,33.158,33.158,0,0,1,4.92-1.346A7.805,7.805,0,0,1,304.425,232.544Z" transform="translate(-273.077 -232.53)" fill="#455a64"/>
      </g>
      <g id="Grupo_121446" data-name="Grupo 121446" transform="translate(116.633 180.709)">
        <path id="Trazado_144090" data-name="Trazado 144090" d="M192.58,253.873a5.161,5.161,0,0,1,.084,1.011c.025.739.058,1.7.1,2.9.054,2.608.127,6.231.217,10.67.111,9.088.26,21.5.428,35.2.08,13.713.153,26.123.205,35.212-.01,4.439-.017,8.062-.025,10.671l-.045,2.9a4.986,4.986,0,0,1-.067,1.011,5.154,5.154,0,0,1-.084-1.011c-.025-.739-.058-1.7-.1-2.9-.054-2.608-.127-6.23-.217-10.669-.111-9.09-.26-21.5-.428-35.213-.08-13.709-.153-26.117-.205-35.206.01-4.44.017-8.064.023-10.671.019-1.2.035-2.162.045-2.9A5.02,5.02,0,0,1,192.58,253.873Z" transform="translate(-192.443 -253.873)" fill="#455a64"/>
      </g>
      <g id="Grupo_121447" data-name="Grupo 121447" transform="translate(169.599 381.229)">
        <path id="Trazado_144091" data-name="Trazado 144091" d="M246.378,501.411a6.1,6.1,0,0,1-.3-1.09c-.18-.793-.421-1.844-.72-3.159-.613-2.748-1.449-6.732-2.44-11.664-1.986-9.864-4.526-23.533-6.95-38.694s-4.262-28.949-5.448-38.941c-.594-5-1.041-9.043-1.313-11.843l-.3-3.226a6.288,6.288,0,0,1-.052-1.131,6.5,6.5,0,0,1,.205,1.113q.166,1.207.441,3.209c.377,2.868.905,6.883,1.551,11.809,1.321,9.971,3.248,23.732,5.665,38.889s4.878,28.827,6.728,38.713l2.2,11.706q.362,1.991.579,3.187A6.444,6.444,0,0,1,246.378,501.411Z" transform="translate(-228.839 -391.663)" fill="#263238"/>
      </g>
      <g id="Grupo_121448" data-name="Grupo 121448" transform="translate(195.689 307.735)">
        <path id="Trazado_144092" data-name="Trazado 144092" d="M320.111,341.19c.015.208-16.395,1.46-36.645,2.794s-36.686,2.248-36.7,2.039,16.391-1.46,36.648-2.8S320.1,340.981,320.111,341.19Z" transform="translate(-246.767 -341.16)" fill="#455a64"/>
      </g>
    </g>
  </g>
</svg>
