<?xml version="1.0" encoding="utf-8"?>
<!-- Generator: Adobe Illustrator 25.4.1, SVG Export Plug-In . SVG Version: 6.00 Build 0)  -->
<svg version="1.1" id="Capa_1" xmlns="http://www.w3.org/2000/svg" xmlns:xlink="http://www.w3.org/1999/xlink" x="0px" y="0px"
	 viewBox="0 0 701.6 379" style="enable-background:new 0 0 701.6 379;" xml:space="preserve">
<style type="text/css">
	.st0{fill:url(#Unión_5_00000018201135592877338470000005933819748266285240_);}
	.st1{fill:url(#Unión_8_00000145751615750245483340000000578216135813702557_);}
	.st2{fill:url(#SVGID_1_);}
	.st3{fill:#FFFFFF;}
	.st4{fill:#AD1457;}
	.st5{enable-background:new    ;}
	.st6{fill:#023055;}
	.st7{fill:#DB6464;}
	.st8{fill:none;stroke:#DB6464;}
	.st9{fill:none;stroke:#023055;stroke-width:2;}
	.st10{fill:none;stroke:#DB6464;stroke-width:2;}
	.st11{fill:#12263F;}
	.st12{fill:none;}
</style>
<linearGradient id="Unión_5_00000036240361590678765170000009534175124306129284_" gradientUnits="userSpaceOnUse" x1="53.423" y1="609.1915" x2="53.423" y2="608.1915" gradientTransform="matrix(688 0 0 -136 -36401 82850.0391)">
	<stop  offset="0" style="stop-color:#DB6464"/>
	<stop  offset="1" style="stop-color:#AD1457"/>
</linearGradient>
<path id="Unión_5" style="fill:url(#Unión_5_00000036240361590678765170000009534175124306129284_);" d="M586,96H10V35h576V0
	l112,68l-112,68V96z"/>
<linearGradient id="Unión_8_00000064348461859751955270000001490415119295446458_" gradientUnits="userSpaceOnUse" x1="51.9316" y1="607.4659" x2="53.8286" y2="607.4659" gradientTransform="matrix(694.1519 0 0 -79 -36730.0469 48329.3086)">
	<stop  offset="0" style="stop-color:#AD1457"/>
	<stop  offset="1" style="stop-color:#023055"/>
</linearGradient>
<path id="Unión_8" style="fill:url(#Unión_8_00000064348461859751955270000001490415119295446458_);" d="M636.4,355.8H7v-35.4
	h629.4V300l64.7,39.5L636.4,379L636.4,355.8z"/>
<linearGradient id="SVGID_1_" gradientUnits="userSpaceOnUse" x1="54.3351" y1="607.906" x2="53.0111" y2="607.959" gradientTransform="matrix(505.0942 0 0 -93.8926 -26524.3008 57181.8828)">
	<stop  offset="0" style="stop-color:#AD1457"/>
	<stop  offset="1" style="stop-color:#023055"/>
</linearGradient>
<path class="st2" d="M620.5,148.7v-26.2v-2h-2H192.7V79.3h425.8h2v-2V54.8l77.3,46.9L620.5,148.7z"/>
<path class="st3" d="M622.5,145.2l71.5-43.4l-71.5-43.4v22.9H194.7v37.3h427.8V145.2 M618.5,152.3v-29.7H190.7V77.3h427.8v-26
	l83.2,50.5L618.5,152.3z"/>
<path class="st4" d="M627.3,176.5v-23v-1h-1H332.5v-36.1h293.8h1v-1V95.5L682,136L627.3,176.5z"/>
<path class="st3" d="M628.3,174.5l52-38.5l-52-38.5v19.9H333.5v34.1h294.8V174.5 M626.3,178.5v-25H331.5v-38.1h294.8V93.5l57.3,42.5
	L626.3,178.5z"/>
<g class="st5">
	<path class="st3" d="M232.7,344.4h5.6v2.1H230v-12.8h2.6V344.4z"/>
	<path class="st3" d="M242.3,346.5h-2.5V333h2.5V346.5z"/>
	<path class="st3" d="M248.8,346.7c-1.4,0-2.5-0.4-3.4-1.3s-1.3-2-1.3-3.4v-0.2c0-1,0.2-1.8,0.6-2.6s0.9-1.3,1.6-1.7
		s1.4-0.6,2.3-0.6c1.3,0,2.3,0.4,3.1,1.2s1.1,2,1.1,3.5v1h-6.1c0.1,0.6,0.3,1.1,0.7,1.5s0.9,0.6,1.6,0.6c1,0,1.7-0.4,2.3-1.1
		l1.2,1.4c-0.4,0.5-0.9,1-1.5,1.3C250.3,346.5,249.6,346.7,248.8,346.7z M248.5,338.9c-0.5,0-0.9,0.2-1.2,0.5
		c-0.3,0.3-0.5,0.8-0.6,1.5h3.5v-0.2c0-0.6-0.2-1-0.5-1.3C249.4,339,249,338.9,248.5,338.9z"/>
	<path class="st3" d="M253.8,341.7c0-1.5,0.3-2.6,1-3.5s1.6-1.3,2.8-1.3c1,0,1.9,0.4,2.4,1.1l0.1-0.9h2.3v9.2c0,0.8-0.2,1.6-0.6,2.2
		s-0.9,1.1-1.6,1.4s-1.5,0.5-2.4,0.5c-0.7,0-1.4-0.1-2-0.4s-1.2-0.6-1.5-1.1l1.1-1.5c0.6,0.7,1.4,1.1,2.3,1.1c0.7,0,1.2-0.2,1.6-0.5
		c0.4-0.4,0.6-0.9,0.6-1.5v-0.5c-0.6,0.7-1.4,1-2.3,1c-1.1,0-2.1-0.4-2.8-1.3s-1.1-2.1-1.1-3.6V341.7z M256.3,341.9
		c0,0.9,0.2,1.5,0.5,2c0.3,0.5,0.8,0.7,1.4,0.7c0.8,0,1.3-0.3,1.7-0.9v-4c-0.3-0.6-0.9-0.9-1.6-0.9c-0.6,0-1.1,0.2-1.4,0.7
		C256.5,340.1,256.3,340.9,256.3,341.9z"/>
	<path class="st3" d="M269.9,346.5c-0.1-0.2-0.2-0.5-0.3-0.9c-0.6,0.7-1.4,1-2.4,1c-0.9,0-1.7-0.3-2.3-0.8s-0.9-1.2-0.9-2
		c0-1,0.4-1.8,1.1-2.3s1.8-0.8,3.2-0.8h1.2v-0.5c0-0.4-0.1-0.8-0.3-1.1s-0.6-0.4-1.1-0.4c-0.4,0-0.8,0.1-1,0.3s-0.4,0.5-0.4,0.8
		h-2.5c0-0.6,0.2-1.1,0.5-1.5s0.8-0.8,1.4-1.1s1.3-0.4,2.1-0.4c1.2,0,2.1,0.3,2.8,0.9c0.7,0.6,1,1.4,1,2.5v4.1c0,0.9,0.1,1.6,0.4,2
		v0.1H269.9z M267.8,344.7c0.4,0,0.7-0.1,1-0.3c0.3-0.2,0.6-0.4,0.7-0.7v-1.6h-0.9c-1.3,0-1.9,0.4-2,1.3l0,0.1
		c0,0.3,0.1,0.6,0.3,0.8S267.4,344.7,267.8,344.7z"/>
	<path class="st3" d="M279.4,339.4c-0.3,0-0.7-0.1-0.9-0.1c-1,0-1.6,0.3-1.9,1v6.2h-2.5V337h2.4l0.1,1.1c0.5-0.9,1.2-1.3,2.1-1.3
		c0.3,0,0.5,0,0.8,0.1L279.4,339.4z"/>
	<path class="st3" d="M290.6,346.5c-0.1-0.2-0.2-0.5-0.3-0.9c-0.6,0.7-1.4,1-2.4,1c-0.9,0-1.7-0.3-2.3-0.8s-0.9-1.2-0.9-2
		c0-1,0.4-1.8,1.1-2.3s1.8-0.8,3.2-0.8h1.2v-0.5c0-0.4-0.1-0.8-0.3-1.1s-0.6-0.4-1.1-0.4c-0.4,0-0.8,0.1-1,0.3s-0.4,0.5-0.4,0.8
		h-2.5c0-0.6,0.2-1.1,0.5-1.5s0.8-0.8,1.4-1.1s1.3-0.4,2.1-0.4c1.2,0,2.1,0.3,2.8,0.9c0.7,0.6,1,1.4,1,2.5v4.1c0,0.9,0.1,1.6,0.4,2
		v0.1H290.6z M288.5,344.7c0.4,0,0.7-0.1,1-0.3c0.3-0.2,0.6-0.4,0.7-0.7v-1.6h-0.9c-1.3,0-1.9,0.4-2,1.3l0,0.1
		c0,0.3,0.1,0.6,0.3,0.8S288.1,344.7,288.5,344.7z"/>
	<path class="st3" d="M301.9,346.5h-2.5V333h2.5V346.5z"/>
	<path class="st3" d="M309.5,346.5c-0.1-0.2-0.2-0.5-0.3-0.9c-0.6,0.7-1.4,1-2.4,1c-0.9,0-1.7-0.3-2.3-0.8s-0.9-1.2-0.9-2
		c0-1,0.4-1.8,1.1-2.3s1.8-0.8,3.2-0.8h1.2v-0.5c0-0.4-0.1-0.8-0.3-1.1s-0.6-0.4-1.1-0.4c-0.4,0-0.8,0.1-1,0.3s-0.4,0.5-0.4,0.8
		h-2.5c0-0.6,0.2-1.1,0.5-1.5s0.8-0.8,1.4-1.1s1.3-0.4,2.1-0.4c1.2,0,2.1,0.3,2.8,0.9c0.7,0.6,1,1.4,1,2.5v4.1c0,0.9,0.1,1.6,0.4,2
		v0.1H309.5z M307.4,344.7c0.4,0,0.7-0.1,1-0.3c0.3-0.2,0.6-0.4,0.7-0.7v-1.6h-0.9c-1.3,0-1.9,0.4-2,1.3l0,0.1
		c0,0.3,0.1,0.6,0.3,0.8S307,344.7,307.4,344.7z"/>
	<path class="st3" d="M320.5,337l0.1,1.1c0.7-0.8,1.6-1.3,2.7-1.3c1,0,1.8,0.3,2.2,0.9s0.7,1.5,0.8,2.7v6.1h-2.5v-6.1
		c0-0.5-0.1-0.9-0.4-1.2c-0.2-0.2-0.6-0.4-1.2-0.4c-0.7,0-1.3,0.3-1.6,0.9v6.7h-2.5V337H320.5z"/>
	<path class="st3" d="M332.6,346.7c-1.4,0-2.5-0.4-3.4-1.3s-1.3-2-1.3-3.4v-0.2c0-1,0.2-1.8,0.6-2.6s0.9-1.3,1.6-1.7
		s1.4-0.6,2.3-0.6c1.3,0,2.3,0.4,3.1,1.2s1.1,2,1.1,3.5v1h-6.1c0.1,0.6,0.3,1.1,0.7,1.5s0.9,0.6,1.6,0.6c1,0,1.7-0.4,2.3-1.1
		l1.2,1.4c-0.4,0.5-0.9,1-1.5,1.3C334.1,346.5,333.4,346.7,332.6,346.7z M332.3,338.9c-0.5,0-0.9,0.2-1.2,0.5
		c-0.3,0.3-0.5,0.8-0.6,1.5h3.5v-0.2c0-0.6-0.2-1-0.5-1.3C333.3,339,332.8,338.9,332.3,338.9z"/>
	<path class="st3" d="M341.9,344.6c0.5,0,0.8-0.1,1.1-0.4s0.4-0.6,0.5-1h2.4c0,0.6-0.2,1.2-0.5,1.8c-0.3,0.5-0.8,1-1.4,1.2
		c-0.6,0.3-1.3,0.4-2,0.4c-1.4,0-2.4-0.4-3.2-1.3c-0.8-0.9-1.2-2.1-1.2-3.6v-0.2c0-1.5,0.4-2.6,1.2-3.5s1.8-1.3,3.2-1.3
		c1.2,0,2.1,0.3,2.9,1c0.7,0.7,1.1,1.6,1.1,2.7h-2.4c0-0.5-0.2-0.9-0.5-1.2s-0.7-0.5-1.2-0.5c-0.6,0-1,0.2-1.3,0.6
		c-0.3,0.4-0.5,1.1-0.5,2.1v0.3c0,1,0.1,1.7,0.4,2.1S341.3,344.6,341.9,344.6z"/>
	<path class="st3" d="M351.7,346.7c-1.4,0-2.5-0.4-3.4-1.3s-1.3-2-1.3-3.4v-0.2c0-1,0.2-1.8,0.6-2.6s0.9-1.3,1.6-1.7
		s1.4-0.6,2.3-0.6c1.3,0,2.3,0.4,3.1,1.2s1.1,2,1.1,3.5v1h-6.1c0.1,0.6,0.3,1.1,0.7,1.5s0.9,0.6,1.6,0.6c1,0,1.7-0.4,2.3-1.1
		l1.2,1.4c-0.4,0.5-0.9,1-1.5,1.3C353.2,346.5,352.5,346.7,351.7,346.7z M351.4,338.9c-0.5,0-0.9,0.2-1.2,0.5
		c-0.3,0.3-0.5,0.8-0.6,1.5h3.5v-0.2c0-0.6-0.2-1-0.5-1.3C352.4,339,352,338.9,351.4,338.9z"/>
	<path class="st3" d="M362.2,343.9c0-0.3-0.2-0.6-0.5-0.7s-0.8-0.3-1.5-0.5c-2.3-0.5-3.4-1.4-3.4-2.9c0-0.8,0.3-1.5,1-2.1
		c0.7-0.6,1.6-0.8,2.7-0.8c1.2,0,2.2,0.3,2.9,0.9s1.1,1.3,1.1,2.2h-2.5c0-0.4-0.1-0.7-0.4-0.9c-0.2-0.2-0.6-0.4-1.1-0.4
		c-0.4,0-0.8,0.1-1,0.3s-0.4,0.4-0.4,0.7c0,0.3,0.1,0.5,0.4,0.7c0.3,0.2,0.7,0.3,1.3,0.4s1.2,0.3,1.6,0.4c1.3,0.5,2,1.3,2,2.6
		c0,0.9-0.4,1.6-1.1,2.1c-0.7,0.5-1.7,0.8-2.9,0.8c-0.8,0-1.5-0.1-2.1-0.4c-0.6-0.3-1.1-0.7-1.5-1.2c-0.4-0.5-0.5-1-0.5-1.6h2.4
		c0,0.5,0.2,0.8,0.5,1s0.7,0.4,1.2,0.4c0.5,0,0.9-0.1,1.1-0.3C362.1,344.4,362.2,344.2,362.2,343.9z"/>
	<path class="st3" d="M366.3,334.5c0-0.4,0.1-0.7,0.4-0.9s0.6-0.4,1-0.4c0.4,0,0.8,0.1,1,0.4s0.4,0.6,0.4,0.9c0,0.4-0.1,0.7-0.4,0.9
		s-0.6,0.4-1,0.4s-0.8-0.1-1-0.4S366.3,334.9,366.3,334.5z M369,346.5h-2.5V337h2.5V346.5z"/>
	<path class="st3" d="M370.7,341.7c0-1.5,0.3-2.7,1-3.5s1.6-1.3,2.7-1.3c0.9,0,1.7,0.3,2.3,1V333h2.5v13.5H377l-0.1-1
		c-0.6,0.8-1.4,1.2-2.4,1.2c-1.1,0-2-0.4-2.7-1.3S370.7,343.2,370.7,341.7z M373.2,341.9c0,0.9,0.2,1.6,0.5,2.1s0.8,0.7,1.4,0.7
		c0.8,0,1.3-0.3,1.7-1v-3.8c-0.3-0.7-0.9-1-1.6-1C373.8,338.9,373.2,339.9,373.2,341.9z"/>
	<path class="st3" d="M386.7,346.5c-0.1-0.2-0.2-0.5-0.3-0.9c-0.6,0.7-1.4,1-2.4,1c-0.9,0-1.7-0.3-2.3-0.8s-0.9-1.2-0.9-2
		c0-1,0.4-1.8,1.1-2.3s1.8-0.8,3.2-0.8h1.2v-0.5c0-0.4-0.1-0.8-0.3-1.1s-0.6-0.4-1.1-0.4c-0.4,0-0.8,0.1-1,0.3s-0.4,0.5-0.4,0.8
		h-2.5c0-0.6,0.2-1.1,0.5-1.5s0.8-0.8,1.4-1.1s1.3-0.4,2.1-0.4c1.2,0,2.1,0.3,2.8,0.9c0.7,0.6,1,1.4,1,2.5v4.1c0,0.9,0.1,1.6,0.4,2
		v0.1H386.7z M384.6,344.7c0.4,0,0.7-0.1,1-0.3c0.3-0.2,0.6-0.4,0.7-0.7v-1.6h-0.9c-1.3,0-1.9,0.4-2,1.3l0,0.1
		c0,0.3,0.1,0.6,0.3,0.8S384.3,344.7,384.6,344.7z"/>
	<path class="st3" d="M390.5,341.7c0-1.5,0.3-2.7,1-3.5s1.6-1.3,2.7-1.3c0.9,0,1.7,0.3,2.3,1V333h2.5v13.5h-2.3l-0.1-1
		c-0.6,0.8-1.4,1.2-2.4,1.2c-1.1,0-2-0.4-2.7-1.3S390.5,343.2,390.5,341.7z M393,341.9c0,0.9,0.2,1.6,0.5,2.1s0.8,0.7,1.4,0.7
		c0.8,0,1.3-0.3,1.7-1v-3.8c-0.3-0.7-0.9-1-1.6-1C393.6,338.9,393,339.9,393,341.9z"/>
	<path class="st3" d="M405.1,341.7c0-1.5,0.3-2.7,1-3.5s1.6-1.3,2.7-1.3c0.9,0,1.7,0.3,2.3,1V333h2.5v13.5h-2.3l-0.1-1
		c-0.6,0.8-1.4,1.2-2.4,1.2c-1.1,0-2-0.4-2.7-1.3S405.1,343.2,405.1,341.7z M407.7,341.9c0,0.9,0.2,1.6,0.5,2.1s0.8,0.7,1.4,0.7
		c0.8,0,1.3-0.3,1.7-1v-3.8c-0.3-0.7-0.9-1-1.6-1C408.3,338.9,407.7,339.9,407.7,341.9z"/>
	<path class="st3" d="M420,346.7c-1.4,0-2.5-0.4-3.4-1.3s-1.3-2-1.3-3.4v-0.2c0-1,0.2-1.8,0.6-2.6s0.9-1.3,1.6-1.7s1.4-0.6,2.3-0.6
		c1.3,0,2.3,0.4,3.1,1.2s1.1,2,1.1,3.5v1h-6.1c0.1,0.6,0.3,1.1,0.7,1.5s0.9,0.6,1.6,0.6c1,0,1.7-0.4,2.3-1.1l1.2,1.4
		c-0.4,0.5-0.9,1-1.5,1.3C421.5,346.5,420.8,346.7,420,346.7z M419.7,338.9c-0.5,0-0.9,0.2-1.2,0.5c-0.3,0.3-0.5,0.8-0.6,1.5h3.5
		v-0.2c0-0.6-0.2-1-0.5-1.3C420.7,339,420.3,338.9,419.7,338.9z"/>
	<path class="st3" d="M428.1,346.5h-2.5V333h2.5V346.5z"/>
	<path class="st3" d="M438.6,344.6c0.5,0,0.8-0.1,1.1-0.4s0.4-0.6,0.5-1h2.4c0,0.6-0.2,1.2-0.5,1.8c-0.3,0.5-0.8,1-1.4,1.2
		c-0.6,0.3-1.3,0.4-2,0.4c-1.4,0-2.4-0.4-3.2-1.3c-0.8-0.9-1.2-2.1-1.2-3.6v-0.2c0-1.5,0.4-2.6,1.2-3.5s1.8-1.3,3.2-1.3
		c1.2,0,2.1,0.3,2.9,1c0.7,0.7,1.1,1.6,1.1,2.7h-2.4c0-0.5-0.2-0.9-0.5-1.2s-0.7-0.5-1.2-0.5c-0.6,0-1,0.2-1.3,0.6
		c-0.3,0.4-0.5,1.1-0.5,2.1v0.3c0,1,0.1,1.7,0.4,2.1S438,344.6,438.6,344.6z"/>
	<path class="st3" d="M446.7,346.5h-2.5V333h2.5V346.5z"/>
	<path class="st3" d="M448.8,334.5c0-0.4,0.1-0.7,0.4-0.9s0.6-0.4,1-0.4c0.4,0,0.8,0.1,1,0.4s0.4,0.6,0.4,0.9c0,0.4-0.1,0.7-0.4,0.9
		s-0.6,0.4-1,0.4s-0.8-0.1-1-0.4S448.8,334.9,448.8,334.5z M451.5,346.5h-2.5V337h2.5V346.5z"/>
	<path class="st3" d="M457.9,346.7c-1.4,0-2.5-0.4-3.4-1.3s-1.3-2-1.3-3.4v-0.2c0-1,0.2-1.8,0.6-2.6s0.9-1.3,1.6-1.7
		s1.4-0.6,2.3-0.6c1.3,0,2.3,0.4,3.1,1.2s1.1,2,1.1,3.5v1h-6.1c0.1,0.6,0.3,1.1,0.7,1.5s0.9,0.6,1.6,0.6c1,0,1.7-0.4,2.3-1.1
		l1.2,1.4c-0.4,0.5-0.9,1-1.5,1.3C459.5,346.5,458.7,346.7,457.9,346.7z M457.7,338.9c-0.5,0-0.9,0.2-1.2,0.5
		c-0.3,0.3-0.5,0.8-0.6,1.5h3.5v-0.2c0-0.6-0.2-1-0.5-1.3C458.6,339,458.2,338.9,457.7,338.9z"/>
	<path class="st3" d="M465.6,337l0.1,1.1c0.7-0.8,1.6-1.3,2.7-1.3c1,0,1.8,0.3,2.2,0.9s0.7,1.5,0.8,2.7v6.1h-2.5v-6.1
		c0-0.5-0.1-0.9-0.4-1.2c-0.2-0.2-0.6-0.4-1.2-0.4c-0.7,0-1.3,0.3-1.6,0.9v6.7h-2.5V337H465.6z"/>
	<path class="st3" d="M476.4,334.7v2.3h1.6v1.9h-1.6v4.7c0,0.4,0.1,0.6,0.2,0.8s0.4,0.2,0.8,0.2c0.3,0,0.5,0,0.7-0.1v1.9
		c-0.5,0.2-1,0.2-1.5,0.2c-1.8,0-2.7-0.9-2.7-2.7v-5.1h-1.4V337h1.4v-2.3H476.4z"/>
	<path class="st3" d="M483.8,346.7c-1.4,0-2.5-0.4-3.4-1.3s-1.3-2-1.3-3.4v-0.2c0-1,0.2-1.8,0.6-2.6s0.9-1.3,1.6-1.7
		s1.4-0.6,2.3-0.6c1.3,0,2.3,0.4,3.1,1.2s1.1,2,1.1,3.5v1h-6.1c0.1,0.6,0.3,1.1,0.7,1.5s0.9,0.6,1.6,0.6c1,0,1.7-0.4,2.3-1.1
		l1.2,1.4c-0.4,0.5-0.9,1-1.5,1.3C485.4,346.5,484.6,346.7,483.8,346.7z M483.5,338.9c-0.5,0-0.9,0.2-1.2,0.5
		c-0.3,0.3-0.5,0.8-0.6,1.5h3.5v-0.2c0-0.6-0.2-1-0.5-1.3C484.5,339,484.1,338.9,483.5,338.9z"/>
</g>
<g class="st5">
	<path class="st3" d="M212.6,105.6l2.9-9.6h2.9l-4.5,12.8h-2.8L206.8,96h2.9L212.6,105.6z"/>
	<path class="st3" d="M224.5,108.8c-0.1-0.2-0.2-0.5-0.3-0.9c-0.6,0.7-1.4,1-2.4,1c-0.9,0-1.7-0.3-2.3-0.8s-0.9-1.2-0.9-2
		c0-1,0.4-1.8,1.1-2.3s1.8-0.8,3.2-0.8h1.2v-0.5c0-0.4-0.1-0.8-0.3-1.1s-0.6-0.4-1.1-0.4c-0.4,0-0.8,0.1-1,0.3s-0.4,0.5-0.4,0.8
		h-2.5c0-0.6,0.2-1.1,0.5-1.5s0.8-0.8,1.4-1.1s1.3-0.4,2.1-0.4c1.2,0,2.1,0.3,2.8,0.9c0.7,0.6,1,1.4,1,2.5v4.1c0,0.9,0.1,1.6,0.4,2
		v0.1H224.5z M222.4,107c0.4,0,0.7-0.1,1-0.3c0.3-0.2,0.6-0.4,0.7-0.7v-1.6h-0.9c-1.3,0-1.9,0.4-2,1.3l0,0.1c0,0.3,0.1,0.6,0.3,0.8
		S222.1,107,222.4,107z"/>
	<path class="st3" d="M231.4,108.8h-2.5V95.3h2.5V108.8z"/>
	<path class="st3" d="M233.1,103.9c0-0.9,0.2-1.8,0.5-2.5s0.9-1.3,1.6-1.7s1.5-0.6,2.4-0.6c1.3,0,2.3,0.4,3.1,1.2s1.3,1.9,1.4,3.2
		l0,0.7c0,1.5-0.4,2.6-1.2,3.5s-1.9,1.3-3.3,1.3s-2.5-0.4-3.3-1.3s-1.2-2.1-1.2-3.6V103.9z M235.6,104.1c0,0.9,0.2,1.6,0.5,2.1
		c0.3,0.5,0.8,0.7,1.5,0.7c0.6,0,1.1-0.2,1.4-0.7c0.3-0.5,0.5-1.2,0.5-2.3c0-0.9-0.2-1.6-0.5-2.1s-0.8-0.7-1.5-0.7
		c-0.6,0-1.1,0.2-1.4,0.7C235.8,102.4,235.6,103.1,235.6,104.1z"/>
	<path class="st3" d="M249,101.7c-0.3,0-0.7-0.1-0.9-0.1c-1,0-1.6,0.3-1.9,1v6.2h-2.5v-9.5h2.4l0.1,1.1c0.5-0.9,1.2-1.3,2.1-1.3
		c0.3,0,0.5,0,0.8,0.1L249,101.7z"/>
</g>
<g class="st5">
	<path class="st3" d="M39.2,68.5c-0.1,1.4-0.6,2.5-1.5,3.3S35.5,73,34,73c-1.6,0-2.9-0.6-3.9-1.7s-1.4-2.6-1.4-4.5V66
		c0-1.2,0.2-2.3,0.7-3.3s1.1-1.7,1.9-2.2c0.8-0.5,1.7-0.8,2.8-0.8c1.5,0,2.7,0.4,3.6,1.2s1.4,1.9,1.6,3.3h-2.6
		c-0.1-0.8-0.3-1.4-0.7-1.8s-1-0.6-1.8-0.6c-0.9,0-1.5,0.3-2,0.9s-0.7,1.6-0.7,2.9v1c0,1.4,0.2,2.4,0.6,3s1.1,1,2,1
		c0.8,0,1.4-0.2,1.8-0.6s0.6-0.9,0.7-1.7H39.2z"/>
	<path class="st3" d="M46.1,65.7c-0.3,0-0.7-0.1-0.9-0.1c-1,0-1.6,0.3-1.9,1v6.2h-2.5v-9.5h2.4l0.1,1.1c0.5-0.9,1.2-1.3,2.1-1.3
		c0.3,0,0.5,0,0.8,0.1L46.1,65.7z"/>
	<path class="st3" d="M51.7,73c-1.4,0-2.5-0.4-3.4-1.3s-1.3-2-1.3-3.4V68c0-1,0.2-1.8,0.6-2.6s0.9-1.3,1.6-1.7s1.4-0.6,2.3-0.6
		c1.3,0,2.3,0.4,3.1,1.2s1.1,2,1.1,3.5v1h-6.1c0.1,0.6,0.3,1.1,0.7,1.5s0.9,0.6,1.6,0.6c1,0,1.7-0.4,2.3-1.1l1.2,1.4
		c-0.4,0.5-0.9,1-1.5,1.3C53.2,72.8,52.5,73,51.7,73z M51.4,65.2c-0.5,0-0.9,0.2-1.2,0.5c-0.3,0.3-0.5,0.8-0.6,1.5h3.5v-0.2
		c0-0.6-0.2-1-0.5-1.3C52.4,65.3,51.9,65.2,51.4,65.2z"/>
	<path class="st3" d="M62.6,72.8c-0.1-0.2-0.2-0.5-0.3-0.9c-0.6,0.7-1.4,1-2.4,1c-0.9,0-1.7-0.3-2.3-0.8s-0.9-1.2-0.9-2
		c0-1,0.4-1.8,1.1-2.3S59.6,67,61,67h1.2v-0.5c0-0.4-0.1-0.8-0.3-1.1S61.3,65,60.8,65c-0.4,0-0.8,0.1-1,0.3s-0.4,0.5-0.4,0.8h-2.5
		c0-0.6,0.2-1.1,0.5-1.5s0.8-0.8,1.4-1.1s1.3-0.4,2.1-0.4c1.2,0,2.1,0.3,2.8,0.9c0.7,0.6,1,1.4,1,2.5v4.1c0,0.9,0.1,1.6,0.4,2v0.1
		H62.6z M60.5,71c0.4,0,0.7-0.1,1-0.3c0.3-0.2,0.6-0.4,0.7-0.7v-1.6h-0.9c-1.3,0-1.9,0.4-2,1.3l0,0.1c0,0.3,0.1,0.6,0.3,0.8
		S60.1,71,60.5,71z"/>
	<path class="st3" d="M69.7,60.9v2.3h1.6v1.9h-1.6v4.7c0,0.4,0.1,0.6,0.2,0.8s0.4,0.2,0.8,0.2c0.3,0,0.5,0,0.7-0.1v1.9
		c-0.5,0.2-1,0.2-1.5,0.2c-1.8,0-2.7-0.9-2.7-2.7v-5.1h-1.4v-1.9h1.4v-2.3H69.7z"/>
	<path class="st3" d="M72.8,60.8c0-0.4,0.1-0.7,0.4-0.9s0.6-0.4,1-0.4c0.4,0,0.8,0.1,1,0.4s0.4,0.6,0.4,0.9c0,0.4-0.1,0.7-0.4,0.9
		s-0.6,0.4-1,0.4s-0.8-0.1-1-0.4S72.8,61.2,72.8,60.8z M75.5,72.8h-2.5v-9.5h2.5V72.8z"/>
	<path class="st3" d="M81.1,69.7l1.8-6.4h2.7l-3.2,9.5h-2.4l-3.2-9.5h2.7L81.1,69.7z"/>
	<path class="st3" d="M86.6,60.8c0-0.4,0.1-0.7,0.4-0.9s0.6-0.4,1-0.4c0.4,0,0.8,0.1,1,0.4s0.4,0.6,0.4,0.9c0,0.4-0.1,0.7-0.4,0.9
		s-0.6,0.4-1,0.4s-0.8-0.1-1-0.4S86.6,61.2,86.6,60.8z M89.3,72.8h-2.5v-9.5h2.5V72.8z"/>
	<path class="st3" d="M91,68c0-1.5,0.3-2.7,1-3.5s1.6-1.3,2.7-1.3c0.9,0,1.7,0.3,2.3,1v-4.9h2.5v13.5h-2.3l-0.1-1
		c-0.6,0.8-1.4,1.2-2.4,1.2c-1.1,0-2-0.4-2.7-1.3S91,69.5,91,68z M93.6,68.2c0,0.9,0.2,1.6,0.5,2.1s0.8,0.7,1.4,0.7
		c0.8,0,1.3-0.3,1.7-1v-3.8c-0.3-0.7-0.9-1-1.6-1C94.2,65.2,93.6,66.2,93.6,68.2z"/>
	<path class="st3" d="M107.1,72.8c-0.1-0.2-0.2-0.5-0.3-0.9c-0.6,0.7-1.4,1-2.4,1c-0.9,0-1.7-0.3-2.3-0.8s-0.9-1.2-0.9-2
		c0-1,0.4-1.8,1.1-2.3s1.8-0.8,3.2-0.8h1.2v-0.5c0-0.4-0.1-0.8-0.3-1.1s-0.6-0.4-1.1-0.4c-0.4,0-0.8,0.1-1,0.3s-0.4,0.5-0.4,0.8
		h-2.5c0-0.6,0.2-1.1,0.5-1.5s0.8-0.8,1.4-1.1s1.3-0.4,2.1-0.4c1.2,0,2.1,0.3,2.8,0.9c0.7,0.6,1,1.4,1,2.5v4.1c0,0.9,0.1,1.6,0.4,2
		v0.1H107.1z M105,71c0.4,0,0.7-0.1,1-0.3c0.3-0.2,0.6-0.4,0.7-0.7v-1.6h-0.9c-1.3,0-1.9,0.4-2,1.3l0,0.1c0,0.3,0.1,0.6,0.3,0.8
		S104.6,71,105,71z"/>
	<path class="st3" d="M110.8,68c0-1.5,0.3-2.7,1-3.5s1.6-1.3,2.7-1.3c0.9,0,1.7,0.3,2.3,1v-4.9h2.5v13.5h-2.3l-0.1-1
		c-0.6,0.8-1.4,1.2-2.4,1.2c-1.1,0-2-0.4-2.7-1.3S110.8,69.5,110.8,68z M113.4,68.2c0,0.9,0.2,1.6,0.5,2.1s0.8,0.7,1.4,0.7
		c0.8,0,1.3-0.3,1.7-1v-3.8c-0.3-0.7-0.9-1-1.6-1C114,65.2,113.4,66.2,113.4,68.2z"/>
</g>
<g class="st5">
	<path class="st3" d="M371.5,136.6h-5.1v5.2h-2.6V129h8.3v2.1h-5.7v3.3h5.1V136.6z"/>
	<path class="st3" d="M378.7,141.8c-0.1-0.2-0.2-0.5-0.3-0.9c-0.6,0.7-1.4,1-2.4,1c-0.9,0-1.7-0.3-2.3-0.8s-0.9-1.2-0.9-2
		c0-1,0.4-1.8,1.1-2.3s1.8-0.8,3.2-0.8h1.2v-0.5c0-0.4-0.1-0.8-0.3-1.1s-0.6-0.4-1.1-0.4c-0.4,0-0.8,0.1-1,0.3s-0.4,0.5-0.4,0.8
		h-2.5c0-0.6,0.2-1.1,0.5-1.5s0.8-0.8,1.4-1.1s1.3-0.4,2.1-0.4c1.2,0,2.1,0.3,2.8,0.9c0.7,0.6,1,1.4,1,2.5v4.1c0,0.9,0.1,1.6,0.4,2
		v0.1H378.7z M376.6,140c0.4,0,0.7-0.1,1-0.3c0.3-0.2,0.6-0.4,0.7-0.7v-1.6h-0.9c-1.3,0-1.9,0.4-2,1.3l0,0.1c0,0.3,0.1,0.6,0.3,0.8
		S376.3,140,376.6,140z"/>
	<path class="st3" d="M386.8,139.9c0.5,0,0.8-0.1,1.1-0.4s0.4-0.6,0.5-1h2.4c0,0.6-0.2,1.2-0.5,1.8c-0.3,0.5-0.8,1-1.4,1.2
		c-0.6,0.3-1.3,0.4-2,0.4c-1.4,0-2.4-0.4-3.2-1.3c-0.8-0.9-1.2-2.1-1.2-3.6v-0.2c0-1.5,0.4-2.6,1.2-3.5s1.8-1.3,3.2-1.3
		c1.2,0,2.1,0.3,2.9,1c0.7,0.7,1.1,1.6,1.1,2.7h-2.4c0-0.5-0.2-0.9-0.5-1.2s-0.7-0.5-1.2-0.5c-0.6,0-1,0.2-1.3,0.6
		c-0.3,0.4-0.5,1.1-0.5,2.1v0.3c0,1,0.1,1.7,0.4,2.1S386.2,139.9,386.8,139.9z"/>
	<path class="st3" d="M395.3,129.9v2.3h1.6v1.9h-1.6v4.7c0,0.4,0.1,0.6,0.2,0.8s0.4,0.2,0.8,0.2c0.3,0,0.5,0,0.7-0.1v1.9
		c-0.5,0.2-1,0.2-1.5,0.2c-1.8,0-2.7-0.9-2.7-2.7v-5.1h-1.4v-1.9h1.4v-2.3H395.3z"/>
	<path class="st3" d="M397.7,136.9c0-0.9,0.2-1.8,0.5-2.5s0.9-1.3,1.6-1.7s1.5-0.6,2.4-0.6c1.3,0,2.3,0.4,3.1,1.2s1.3,1.9,1.4,3.2
		l0,0.7c0,1.5-0.4,2.6-1.2,3.5s-1.9,1.3-3.3,1.3s-2.5-0.4-3.3-1.3s-1.2-2.1-1.2-3.6V136.9z M400.2,137.1c0,0.9,0.2,1.6,0.5,2.1
		c0.3,0.5,0.8,0.7,1.5,0.7c0.6,0,1.1-0.2,1.4-0.7c0.3-0.5,0.5-1.2,0.5-2.3c0-0.9-0.2-1.6-0.5-2.1s-0.8-0.7-1.5-0.7
		c-0.6,0-1.1,0.2-1.4,0.7C400.4,135.4,400.2,136.1,400.2,137.1z"/>
	<path class="st3" d="M413.6,134.7c-0.3,0-0.7-0.1-0.9-0.1c-1,0-1.6,0.3-1.9,1v6.2h-2.5v-9.5h2.4l0.1,1.1c0.5-0.9,1.2-1.3,2.1-1.3
		c0.3,0,0.5,0,0.8,0.1L413.6,134.7z"/>
	<path class="st3" d="M418.9,137c0-1.5,0.3-2.7,1-3.5s1.6-1.3,2.7-1.3c0.9,0,1.7,0.3,2.3,1v-4.9h2.5v13.5h-2.3l-0.1-1
		c-0.6,0.8-1.4,1.2-2.4,1.2c-1.1,0-2-0.4-2.7-1.3S418.9,138.5,418.9,137z M421.5,137.2c0,0.9,0.2,1.6,0.5,2.1s0.8,0.7,1.4,0.7
		c0.8,0,1.3-0.3,1.7-1v-3.8c-0.3-0.7-0.9-1-1.6-1C422.1,134.2,421.5,135.2,421.5,137.2z"/>
	<path class="st3" d="M429.4,129.8c0-0.4,0.1-0.7,0.4-0.9s0.6-0.4,1-0.4c0.4,0,0.8,0.1,1,0.4s0.4,0.6,0.4,0.9c0,0.4-0.1,0.7-0.4,0.9
		s-0.6,0.4-1,0.4s-0.8-0.1-1-0.4S429.4,130.2,429.4,129.8z M432.1,141.8h-2.5v-9.5h2.5V141.8z"/>
	<path class="st3" d="M434.9,141.8v-7.6h-1.4v-1.9h1.4v-0.8c0-1.1,0.3-1.9,0.9-2.5c0.6-0.6,1.5-0.9,2.6-0.9c0.4,0,0.8,0.1,1.3,0.2
		l0,2c-0.2-0.1-0.5-0.1-0.8-0.1c-1,0-1.4,0.4-1.4,1.3v0.8h1.9v1.9h-1.9v7.6H434.9z"/>
	<path class="st3" d="M445.1,142c-1.4,0-2.5-0.4-3.4-1.3s-1.3-2-1.3-3.4V137c0-1,0.2-1.8,0.6-2.6s0.9-1.3,1.6-1.7s1.4-0.6,2.3-0.6
		c1.3,0,2.3,0.4,3.1,1.2s1.1,2,1.1,3.5v1h-6.1c0.1,0.6,0.3,1.1,0.7,1.5s0.9,0.6,1.6,0.6c1,0,1.7-0.4,2.3-1.1l1.2,1.4
		c-0.4,0.5-0.9,1-1.5,1.3C446.6,141.8,445.8,142,445.1,142z M444.8,134.2c-0.5,0-0.9,0.2-1.2,0.5c-0.3,0.3-0.5,0.8-0.6,1.5h3.5v-0.2
		c0-0.6-0.2-1-0.5-1.3C445.7,134.3,445.3,134.2,444.8,134.2z"/>
	<path class="st3" d="M455.8,134.7c-0.3,0-0.7-0.1-0.9-0.1c-1,0-1.6,0.3-1.9,1v6.2h-2.5v-9.5h2.4l0.1,1.1c0.5-0.9,1.2-1.3,2.1-1.3
		c0.3,0,0.5,0,0.8,0.1L455.8,134.7z"/>
	<path class="st3" d="M461.4,142c-1.4,0-2.5-0.4-3.4-1.3s-1.3-2-1.3-3.4V137c0-1,0.2-1.8,0.6-2.6s0.9-1.3,1.6-1.7s1.4-0.6,2.3-0.6
		c1.3,0,2.3,0.4,3.1,1.2s1.1,2,1.1,3.5v1h-6.1c0.1,0.6,0.3,1.1,0.7,1.5s0.9,0.6,1.6,0.6c1,0,1.7-0.4,2.3-1.1l1.2,1.4
		c-0.4,0.5-0.9,1-1.5,1.3C462.9,141.8,462.1,142,461.4,142z M461.1,134.2c-0.5,0-0.9,0.2-1.2,0.5c-0.3,0.3-0.5,0.8-0.6,1.5h3.5v-0.2
		c0-0.6-0.2-1-0.5-1.3C462,134.3,461.6,134.2,461.1,134.2z"/>
	<path class="st3" d="M469,132.3l0.1,1.1c0.7-0.8,1.6-1.3,2.7-1.3c1,0,1.8,0.3,2.2,0.9s0.7,1.5,0.8,2.7v6.1h-2.5v-6.1
		c0-0.5-0.1-0.9-0.4-1.2c-0.2-0.2-0.6-0.4-1.2-0.4c-0.7,0-1.3,0.3-1.6,0.9v6.7h-2.5v-9.5H469z"/>
	<path class="st3" d="M480.7,139.9c0.5,0,0.8-0.1,1.1-0.4s0.4-0.6,0.5-1h2.4c0,0.6-0.2,1.2-0.5,1.8c-0.3,0.5-0.8,1-1.4,1.2
		c-0.6,0.3-1.3,0.4-2,0.4c-1.4,0-2.4-0.4-3.2-1.3c-0.8-0.9-1.2-2.1-1.2-3.6v-0.2c0-1.5,0.4-2.6,1.2-3.5s1.8-1.3,3.2-1.3
		c1.2,0,2.1,0.3,2.9,1c0.7,0.7,1.1,1.6,1.1,2.7h-2.4c0-0.5-0.2-0.9-0.5-1.2s-0.7-0.5-1.2-0.5c-0.6,0-1,0.2-1.3,0.6
		c-0.3,0.4-0.5,1.1-0.5,2.1v0.3c0,1,0.1,1.7,0.4,2.1S480.1,139.9,480.7,139.9z"/>
	<path class="st3" d="M486.2,129.8c0-0.4,0.1-0.7,0.4-0.9s0.6-0.4,1-0.4c0.4,0,0.8,0.1,1,0.4s0.4,0.6,0.4,0.9c0,0.4-0.1,0.7-0.4,0.9
		s-0.6,0.4-1,0.4s-0.8-0.1-1-0.4S486.2,130.2,486.2,129.8z M488.9,141.8h-2.5v-9.5h2.5V141.8z"/>
	<path class="st3" d="M496.5,141.8c-0.1-0.2-0.2-0.5-0.3-0.9c-0.6,0.7-1.4,1-2.4,1c-0.9,0-1.7-0.3-2.3-0.8s-0.9-1.2-0.9-2
		c0-1,0.4-1.8,1.1-2.3s1.8-0.8,3.2-0.8h1.2v-0.5c0-0.4-0.1-0.8-0.3-1.1s-0.6-0.4-1.1-0.4c-0.4,0-0.8,0.1-1,0.3s-0.4,0.5-0.4,0.8
		h-2.5c0-0.6,0.2-1.1,0.5-1.5s0.8-0.8,1.4-1.1s1.3-0.4,2.1-0.4c1.2,0,2.1,0.3,2.8,0.9c0.7,0.6,1,1.4,1,2.5v4.1c0,0.9,0.1,1.6,0.4,2
		v0.1H496.5z M494.4,140c0.4,0,0.7-0.1,1-0.3c0.3-0.2,0.6-0.4,0.7-0.7v-1.6h-0.9c-1.3,0-1.9,0.4-2,1.3l0,0.1c0,0.3,0.1,0.6,0.3,0.8
		S494,140,494.4,140z"/>
	<path class="st3" d="M500.2,137c0-1.5,0.3-2.7,1-3.5s1.6-1.3,2.7-1.3c0.9,0,1.7,0.3,2.3,1v-4.9h2.5v13.5h-2.3l-0.1-1
		c-0.6,0.8-1.4,1.2-2.4,1.2c-1.1,0-2-0.4-2.7-1.3S500.2,138.5,500.2,137z M502.7,137.2c0,0.9,0.2,1.6,0.5,2.1s0.8,0.7,1.4,0.7
		c0.8,0,1.3-0.3,1.7-1v-3.8c-0.3-0.7-0.9-1-1.6-1C503.4,134.2,502.7,135.2,502.7,137.2z"/>
	<path class="st3" d="M510.3,136.9c0-0.9,0.2-1.8,0.5-2.5s0.9-1.3,1.6-1.7s1.5-0.6,2.4-0.6c1.3,0,2.3,0.4,3.1,1.2s1.3,1.9,1.4,3.2
		l0,0.7c0,1.5-0.4,2.6-1.2,3.5s-1.9,1.3-3.3,1.3s-2.5-0.4-3.3-1.3s-1.2-2.1-1.2-3.6V136.9z M512.9,137.1c0,0.9,0.2,1.6,0.5,2.1
		c0.3,0.5,0.8,0.7,1.5,0.7c0.6,0,1.1-0.2,1.4-0.7c0.3-0.5,0.5-1.2,0.5-2.3c0-0.9-0.2-1.6-0.5-2.1s-0.8-0.7-1.5-0.7
		c-0.6,0-1.1,0.2-1.4,0.7C513.1,135.4,512.9,136.1,512.9,137.1z"/>
	<path class="st3" d="M526.3,134.7c-0.3,0-0.7-0.1-0.9-0.1c-1,0-1.6,0.3-1.9,1v6.2h-2.5v-9.5h2.4l0.1,1.1c0.5-0.9,1.2-1.3,2.1-1.3
		c0.3,0,0.5,0,0.8,0.1L526.3,134.7z"/>
</g>
<ellipse id="Elipse_4824" class="st6" cx="137" cy="64.3" rx="9" ry="8.5"/>
<circle class="st7" cx="282.5" cy="100.3" r="7.5"/>
<circle class="st8" cx="282.5" cy="100.3" r="7"/>
<circle id="Elipse_4826" class="st6" cx="543.5" cy="133.3" r="7.5"/>
<line id="Línea_159" class="st9" x1="137.5" y1="62.3" x2="137.5" y2="183.3"/>
<line id="Línea_160" class="st10" x1="282.5" y1="105.3" x2="282.5" y2="210.3"/>
<line id="Línea_161" class="st9" x1="543.5" y1="136.3" x2="543.5" y2="203.3"/>
<g class="st5">
	<path class="st11" d="M48,210.2c-0.1,1.2-0.6,2.1-1.3,2.8c-0.7,0.7-1.7,1-3,1c-1.3,0-2.4-0.5-3.2-1.4c-0.8-1-1.2-2.3-1.2-3.9v-1.1
		c0-1.1,0.2-2,0.6-2.8c0.4-0.8,0.9-1.4,1.6-1.8c0.7-0.4,1.5-0.6,2.4-0.6c1.2,0,2.2,0.3,2.9,1c0.7,0.7,1.2,1.6,1.3,2.8h-1.5
		c-0.1-0.9-0.4-1.6-0.8-2c-0.4-0.4-1-0.6-1.8-0.6c-1,0-1.7,0.4-2.3,1.1c-0.5,0.7-0.8,1.7-0.8,3v1.1c0,1.2,0.3,2.2,0.8,2.9
		s1.2,1.1,2.2,1.1c0.8,0,1.5-0.2,1.9-0.6s0.7-1,0.9-2H48z"/>
	<path class="st11" d="M49.4,209.5c0-0.8,0.2-1.6,0.5-2.2c0.3-0.7,0.8-1.2,1.4-1.5c0.6-0.4,1.2-0.5,2-0.5c1.2,0,2.1,0.4,2.8,1.2
		s1.1,1.9,1.1,3.2v0.1c0,0.8-0.2,1.6-0.5,2.2c-0.3,0.7-0.8,1.2-1.4,1.5s-1.3,0.5-2,0.5c-1.1,0-2.1-0.4-2.8-1.2s-1.1-1.9-1.1-3.2
		V209.5z M50.9,209.7c0,0.9,0.2,1.7,0.7,2.3c0.4,0.6,1,0.9,1.7,0.9c0.7,0,1.3-0.3,1.8-0.9c0.4-0.6,0.6-1.4,0.6-2.4
		c0-0.9-0.2-1.7-0.7-2.3c-0.4-0.6-1-0.9-1.8-0.9c-0.7,0-1.3,0.3-1.7,0.9S50.9,208.6,50.9,209.7z"/>
	<path class="st11" d="M60.3,205.3l0,0.9c0.6-0.7,1.5-1.1,2.5-1.1c1.2,0,2,0.5,2.4,1.4c0.3-0.4,0.6-0.7,1.1-1c0.5-0.2,1-0.4,1.6-0.4
		c1.9,0,2.8,1,2.8,2.9v5.7h-1.4v-5.6c0-0.6-0.1-1.1-0.4-1.4c-0.3-0.3-0.7-0.4-1.4-0.4c-0.5,0-1,0.2-1.3,0.5
		c-0.4,0.3-0.6,0.8-0.6,1.3v5.6h-1.5v-5.5c0-1.2-0.6-1.8-1.8-1.8c-0.9,0-1.6,0.4-1.9,1.2v6.2h-1.4v-8.5H60.3z"/>
	<path class="st11" d="M72.6,209.5c0-0.8,0.2-1.6,0.5-2.2c0.3-0.7,0.8-1.2,1.4-1.5c0.6-0.4,1.2-0.5,2-0.5c1.2,0,2.1,0.4,2.8,1.2
		s1.1,1.9,1.1,3.2v0.1c0,0.8-0.2,1.6-0.5,2.2c-0.3,0.7-0.8,1.2-1.4,1.5s-1.3,0.5-2,0.5c-1.1,0-2.1-0.4-2.8-1.2s-1.1-1.9-1.1-3.2
		V209.5z M74,209.7c0,0.9,0.2,1.7,0.7,2.3c0.4,0.6,1,0.9,1.7,0.9c0.7,0,1.3-0.3,1.8-0.9c0.4-0.6,0.6-1.4,0.6-2.4
		c0-0.9-0.2-1.7-0.7-2.3c-0.4-0.6-1-0.9-1.8-0.9c-0.7,0-1.3,0.3-1.7,0.9S74,208.6,74,209.7z"/>
	<path class="st11" d="M93.2,209.7c0,1.3-0.3,2.3-0.9,3.1c-0.6,0.8-1.4,1.2-2.4,1.2c-1,0-1.8-0.3-2.4-1v4.1H86v-11.7h1.3l0.1,0.9
		c0.6-0.7,1.4-1.1,2.5-1.1c1,0,1.8,0.4,2.4,1.1c0.6,0.8,0.9,1.8,0.9,3.2V209.7z M91.7,209.5c0-1-0.2-1.7-0.6-2.3s-1-0.8-1.7-0.8
		c-0.9,0-1.5,0.4-2,1.2v4c0.4,0.8,1.1,1.2,2,1.2c0.7,0,1.2-0.3,1.7-0.8C91.5,211.4,91.7,210.6,91.7,209.5z"/>
	<path class="st11" d="M100.2,213.8c-0.1-0.2-0.2-0.5-0.2-0.9c-0.7,0.7-1.5,1-2.4,1c-0.8,0-1.5-0.2-2.1-0.7
		c-0.5-0.5-0.8-1.1-0.8-1.8c0-0.9,0.3-1.6,1-2.1c0.7-0.5,1.6-0.7,2.8-0.7h1.4V208c0-0.5-0.2-0.9-0.5-1.2c-0.3-0.3-0.7-0.4-1.3-0.4
		c-0.5,0-0.9,0.1-1.3,0.4c-0.3,0.3-0.5,0.6-0.5,0.9h-1.5c0-0.4,0.1-0.8,0.4-1.2c0.3-0.4,0.7-0.7,1.2-0.9c0.5-0.2,1.1-0.3,1.7-0.3
		c1,0,1.7,0.2,2.3,0.7c0.6,0.5,0.8,1.2,0.9,2v3.9c0,0.8,0.1,1.4,0.3,1.9v0.1H100.2z M97.8,212.7c0.5,0,0.9-0.1,1.3-0.4
		s0.7-0.5,0.9-0.9v-1.7h-1.1c-1.8,0-2.7,0.5-2.7,1.6c0,0.5,0.2,0.8,0.5,1.1C97,212.6,97.3,212.7,97.8,212.7z"/>
	<path class="st11" d="M107.8,206.6c-0.2,0-0.5-0.1-0.7-0.1c-0.9,0-1.6,0.4-1.9,1.2v6h-1.4v-8.5h1.4l0,1c0.5-0.8,1.1-1.1,2-1.1
		c0.3,0,0.5,0,0.6,0.1V206.6z"/>
	<path class="st11" d="M111.5,203.3v2h1.6v1.1h-1.6v5.2c0,0.3,0.1,0.6,0.2,0.8c0.1,0.2,0.4,0.3,0.7,0.3c0.2,0,0.4,0,0.7-0.1v1.2
		c-0.4,0.1-0.8,0.2-1.1,0.2c-0.6,0-1.1-0.2-1.5-0.6s-0.5-0.9-0.5-1.7v-5.2h-1.5v-1.1h1.5v-2H111.5z"/>
	<path class="st11" d="M118.2,213.9c-1.1,0-2.1-0.4-2.8-1.1s-1.1-1.8-1.1-3v-0.3c0-0.8,0.2-1.6,0.5-2.2s0.8-1.2,1.3-1.5
		c0.6-0.4,1.2-0.6,1.9-0.6c1.1,0,2,0.4,2.6,1.1s0.9,1.8,0.9,3.1v0.6h-5.7c0,0.8,0.3,1.5,0.7,2c0.5,0.5,1.1,0.8,1.8,0.8
		c0.5,0,0.9-0.1,1.3-0.3c0.4-0.2,0.7-0.5,0.9-0.8l0.9,0.7C120.7,213.4,119.7,213.9,118.2,213.9z M118.1,206.4
		c-0.6,0-1.1,0.2-1.5,0.6c-0.4,0.4-0.6,1-0.7,1.8h4.2v-0.1c0-0.7-0.2-1.3-0.6-1.7C119.1,206.6,118.7,206.4,118.1,206.4z"/>
</g>
<g class="st5">
	<path class="st11" d="M24.3,237.8v-7.3H23v-1.1h1.3v-0.9c0-0.9,0.2-1.6,0.7-2.1s1.2-0.7,2.1-0.7c0.3,0,0.7,0,1,0.1l-0.1,1.2
		c-0.2,0-0.5-0.1-0.8-0.1c-0.5,0-0.8,0.1-1.1,0.4c-0.3,0.3-0.4,0.7-0.4,1.2v0.9h1.8v1.1h-1.8v7.3H24.3z"/>
	<path class="st11" d="M34.4,237c-0.6,0.7-1.4,1-2.5,1c-0.9,0-1.6-0.3-2.1-0.8c-0.5-0.5-0.7-1.3-0.7-2.3v-5.5h1.4v5.5
		c0,1.3,0.5,1.9,1.6,1.9c1.1,0,1.8-0.4,2.2-1.2v-6.1h1.4v8.5h-1.4L34.4,237z"/>
	<path class="st11" d="M39.3,229.3l0,1.1c0.6-0.8,1.5-1.2,2.5-1.2c1.8,0,2.7,1,2.7,3v5.6h-1.4v-5.6c0-0.6-0.1-1.1-0.4-1.4
		s-0.7-0.4-1.3-0.4c-0.5,0-0.9,0.1-1.2,0.4c-0.4,0.2-0.6,0.6-0.8,1v6H38v-8.5H39.3z"/>
	<path class="st11" d="M46.4,233.5c0-1.3,0.3-2.3,0.9-3.1c0.6-0.8,1.4-1.2,2.4-1.2c1,0,1.8,0.3,2.4,1v-4.4h1.4v12h-1.3l-0.1-0.9
		c-0.6,0.7-1.4,1.1-2.4,1.1c-1,0-1.8-0.4-2.4-1.2s-0.9-1.8-0.9-3.1V233.5z M47.9,233.7c0,1,0.2,1.7,0.6,2.2c0.4,0.5,0.9,0.8,1.6,0.8
		c0.9,0,1.6-0.4,2-1.2v-3.9c-0.4-0.8-1.1-1.2-2-1.2c-0.7,0-1.3,0.3-1.7,0.8C48.1,231.8,47.9,232.6,47.9,233.7z"/>
	<path class="st11" d="M61,237.8c-0.1-0.2-0.2-0.5-0.2-0.9c-0.7,0.7-1.5,1-2.4,1c-0.8,0-1.5-0.2-2.1-0.7c-0.5-0.5-0.8-1.1-0.8-1.8
		c0-0.9,0.3-1.6,1-2.1c0.7-0.5,1.6-0.7,2.8-0.7h1.4V232c0-0.5-0.2-0.9-0.5-1.2c-0.3-0.3-0.7-0.4-1.3-0.4c-0.5,0-0.9,0.1-1.3,0.4
		c-0.3,0.3-0.5,0.6-0.5,0.9h-1.5c0-0.4,0.1-0.8,0.4-1.2c0.3-0.4,0.7-0.7,1.2-0.9c0.5-0.2,1.1-0.3,1.7-0.3c1,0,1.7,0.2,2.3,0.7
		c0.6,0.5,0.8,1.2,0.9,2v3.9c0,0.8,0.1,1.4,0.3,1.9v0.1H61z M58.6,236.7c0.5,0,0.9-0.1,1.3-0.4s0.7-0.5,0.9-0.9v-1.7h-1.1
		c-1.8,0-2.7,0.5-2.7,1.6c0,0.5,0.2,0.8,0.5,1.1C57.8,236.6,58.2,236.7,58.6,236.7z"/>
	<path class="st11" d="M65.9,229.3l0,0.9c0.6-0.7,1.5-1.1,2.5-1.1c1.2,0,2,0.5,2.4,1.4c0.3-0.4,0.6-0.7,1.1-1c0.5-0.2,1-0.4,1.6-0.4
		c1.9,0,2.8,1,2.8,2.9v5.7h-1.4v-5.6c0-0.6-0.1-1.1-0.4-1.4c-0.3-0.3-0.7-0.4-1.4-0.4c-0.5,0-1,0.2-1.3,0.5
		c-0.4,0.3-0.6,0.8-0.6,1.3v5.6h-1.5v-5.5c0-1.2-0.6-1.8-1.8-1.8c-0.9,0-1.6,0.4-1.9,1.2v6.2h-1.4v-8.5H65.9z"/>
	<path class="st11" d="M82,237.9c-1.1,0-2.1-0.4-2.8-1.1s-1.1-1.8-1.1-3v-0.3c0-0.8,0.2-1.6,0.5-2.2s0.8-1.2,1.3-1.5
		c0.6-0.4,1.2-0.6,1.9-0.6c1.1,0,2,0.4,2.6,1.1s0.9,1.8,0.9,3.1v0.6h-5.7c0,0.8,0.3,1.5,0.7,2c0.5,0.5,1.1,0.8,1.8,0.8
		c0.5,0,0.9-0.1,1.3-0.3c0.4-0.2,0.7-0.5,0.9-0.8l0.9,0.7C84.5,237.4,83.5,237.9,82,237.9z M81.9,230.4c-0.6,0-1.1,0.2-1.5,0.6
		c-0.4,0.4-0.6,1-0.7,1.8h4.2v-0.1c0-0.7-0.2-1.3-0.6-1.7C83,230.6,82.5,230.4,81.9,230.4z"/>
	<path class="st11" d="M88.4,229.3l0,1.1c0.6-0.8,1.5-1.2,2.5-1.2c1.8,0,2.7,1,2.7,3v5.6h-1.4v-5.6c0-0.6-0.1-1.1-0.4-1.4
		s-0.7-0.4-1.3-0.4c-0.5,0-0.9,0.1-1.2,0.4c-0.4,0.2-0.6,0.6-0.8,1v6H87v-8.5H88.4z"/>
	<path class="st11" d="M97.8,227.3v2h1.6v1.1h-1.6v5.2c0,0.3,0.1,0.6,0.2,0.8c0.1,0.2,0.4,0.3,0.7,0.3c0.2,0,0.4,0,0.7-0.1v1.2
		c-0.4,0.1-0.8,0.2-1.1,0.2c-0.6,0-1.1-0.2-1.5-0.6s-0.5-0.9-0.5-1.7v-5.2h-1.5v-1.1h1.5v-2H97.8z"/>
	<path class="st11" d="M106.3,237.8c-0.1-0.2-0.2-0.5-0.2-0.9c-0.7,0.7-1.5,1-2.4,1c-0.8,0-1.5-0.2-2.1-0.7
		c-0.5-0.5-0.8-1.1-0.8-1.8c0-0.9,0.3-1.6,1-2.1c0.7-0.5,1.6-0.7,2.8-0.7h1.4V232c0-0.5-0.2-0.9-0.5-1.2c-0.3-0.3-0.7-0.4-1.3-0.4
		c-0.5,0-0.9,0.1-1.3,0.4c-0.3,0.3-0.5,0.6-0.5,0.9H101c0-0.4,0.1-0.8,0.4-1.2c0.3-0.4,0.7-0.7,1.2-0.9c0.5-0.2,1.1-0.3,1.7-0.3
		c1,0,1.7,0.2,2.3,0.7c0.6,0.5,0.8,1.2,0.9,2v3.9c0,0.8,0.1,1.4,0.3,1.9v0.1H106.3z M103.9,236.7c0.5,0,0.9-0.1,1.3-0.4
		s0.7-0.5,0.9-0.9v-1.7h-1.1c-1.8,0-2.7,0.5-2.7,1.6c0,0.5,0.2,0.8,0.5,1.1C103,236.6,103.4,236.7,103.9,236.7z"/>
	<path class="st11" d="M111.3,237.8h-1.4v-12h1.4V237.8z"/>
	<path class="st11" d="M117.3,233.5c0-1.3,0.3-2.3,0.9-3.1c0.6-0.8,1.4-1.2,2.4-1.2c1,0,1.8,0.3,2.4,1v-4.4h1.4v12h-1.3l-0.1-0.9
		c-0.6,0.7-1.4,1.1-2.4,1.1c-1,0-1.8-0.4-2.4-1.2s-0.9-1.8-0.9-3.1V233.5z M118.7,233.7c0,1,0.2,1.7,0.6,2.2
		c0.4,0.5,0.9,0.8,1.6,0.8c0.9,0,1.6-0.4,2-1.2v-3.9c-0.4-0.8-1.1-1.2-2-1.2c-0.7,0-1.3,0.3-1.7,0.8
		C118.9,231.8,118.7,232.6,118.7,233.7z"/>
	<path class="st11" d="M130.1,237.9c-1.1,0-2.1-0.4-2.8-1.1s-1.1-1.8-1.1-3v-0.3c0-0.8,0.2-1.6,0.5-2.2s0.8-1.2,1.3-1.5
		c0.6-0.4,1.2-0.6,1.9-0.6c1.1,0,2,0.4,2.6,1.1s0.9,1.8,0.9,3.1v0.6h-5.7c0,0.8,0.3,1.5,0.7,2c0.5,0.5,1.1,0.8,1.8,0.8
		c0.5,0,0.9-0.1,1.3-0.3c0.4-0.2,0.7-0.5,0.9-0.8l0.9,0.7C132.6,237.4,131.6,237.9,130.1,237.9z M130,230.4c-0.6,0-1.1,0.2-1.5,0.6
		c-0.4,0.4-0.6,1-0.7,1.8h4.2v-0.1c0-0.7-0.2-1.3-0.6-1.7C131.1,230.6,130.6,230.4,130,230.4z"/>
	<path class="st11" d="M136.7,237.8h-1.4v-12h1.4V237.8z"/>
</g>
<g class="st5">
	<path class="st7" d="M25.9,261.9c-1.2,0-2.2-0.4-3-1.1c-0.8-0.8-1.2-1.8-1.2-3v-0.2c0-0.8,0.2-1.6,0.5-2.3s0.8-1.2,1.4-1.5
		s1.3-0.5,2.1-0.5c1.2,0,2.1,0.4,2.7,1.1s1,1.8,1,3.1v0.9H24c0.1,0.6,0.3,1,0.7,1.3s0.8,0.5,1.4,0.5c0.9,0,1.5-0.3,2-0.9l1.1,1.2
		c-0.3,0.5-0.8,0.9-1.4,1.1S26.6,261.9,25.9,261.9z M25.6,255c-0.4,0-0.8,0.2-1.1,0.5c-0.3,0.3-0.5,0.7-0.5,1.3h3.1v-0.2
		c0-0.5-0.1-0.9-0.4-1.2C26.5,255.1,26.1,255,25.6,255z"/>
	<path class="st7" d="M32.8,253.3l0.1,0.9c0.6-0.7,1.4-1.1,2.4-1.1c1.1,0,1.8,0.4,2.2,1.3c0.6-0.9,1.4-1.3,2.5-1.3
		c0.9,0,1.6,0.3,2,0.8c0.4,0.5,0.7,1.3,0.7,2.4v5.4h-2.3v-5.4c0-0.5-0.1-0.8-0.3-1.1s-0.5-0.3-1-0.3c-0.7,0-1.1,0.3-1.4,1l0,5.8
		h-2.3v-5.4c0-0.5-0.1-0.8-0.3-1.1c-0.2-0.2-0.5-0.3-1-0.3c-0.6,0-1.1,0.3-1.4,0.8v6h-2.3v-8.5H32.8z"/>
	<path class="st7" d="M52.1,257.6c0,1.3-0.3,2.3-0.9,3.1c-0.6,0.8-1.4,1.2-2.4,1.2c-0.9,0-1.5-0.3-2.1-0.9v4h-2.3v-11.7h2.1l0.1,0.8
		c0.5-0.7,1.3-1,2.1-1c1,0,1.9,0.4,2.4,1.2s0.9,1.8,0.9,3.2V257.6z M49.9,257.5c0-0.8-0.1-1.4-0.4-1.8c-0.3-0.4-0.7-0.6-1.2-0.6
		c-0.7,0-1.2,0.3-1.5,0.8v3.5c0.3,0.6,0.8,0.8,1.5,0.8C49.3,260.1,49.9,259.2,49.9,257.5z"/>
	<path class="st7" d="M58.3,255.5c-0.3,0-0.6-0.1-0.8-0.1c-0.9,0-1.4,0.3-1.7,0.9v5.5h-2.3v-8.5h2.1l0.1,1c0.5-0.8,1.1-1.2,1.9-1.2
		c0.2,0,0.5,0,0.7,0.1L58.3,255.5z"/>
	<path class="st7" d="M63.2,261.9c-1.2,0-2.2-0.4-3-1.1c-0.8-0.8-1.2-1.8-1.2-3v-0.2c0-0.8,0.2-1.6,0.5-2.3s0.8-1.2,1.4-1.5
		s1.3-0.5,2.1-0.5c1.2,0,2.1,0.4,2.7,1.1s1,1.8,1,3.1v0.9h-5.4c0.1,0.6,0.3,1,0.7,1.3s0.8,0.5,1.4,0.5c0.9,0,1.5-0.3,2-0.9l1.1,1.2
		c-0.3,0.5-0.8,0.9-1.4,1.1S63.9,261.9,63.2,261.9z M63,255c-0.4,0-0.8,0.2-1.1,0.5c-0.3,0.3-0.5,0.7-0.5,1.3h3.1v-0.2
		c0-0.5-0.1-0.9-0.4-1.2C63.8,255.1,63.5,255,63,255z"/>
	<path class="st7" d="M70.1,253.3l0.1,1c0.6-0.8,1.4-1.1,2.4-1.1c0.9,0,1.6,0.3,2,0.8s0.7,1.3,0.7,2.4v5.5H73v-5.4
		c0-0.5-0.1-0.8-0.3-1c-0.2-0.2-0.6-0.3-1-0.3c-0.6,0-1.1,0.3-1.4,0.8v6h-2.3v-8.5H70.1z"/>
	<path class="st7" d="M76.6,257.5c0-1.3,0.3-2.4,0.9-3.1c0.6-0.8,1.4-1.2,2.4-1.2c0.8,0,1.5,0.3,2,0.9v-4.3h2.3v12h-2l-0.1-0.9
		c-0.6,0.7-1.3,1.1-2.2,1.1c-1,0-1.8-0.4-2.4-1.2S76.6,258.9,76.6,257.5z M78.9,257.7c0,0.8,0.1,1.4,0.4,1.8
		c0.3,0.4,0.7,0.6,1.2,0.6c0.7,0,1.2-0.3,1.5-0.9v-3.3c-0.3-0.6-0.8-0.9-1.5-0.9C79.4,255,78.9,255.9,78.9,257.7z"/>
	<path class="st7" d="M86,251.2c0-0.3,0.1-0.6,0.3-0.8s0.5-0.3,0.9-0.3c0.4,0,0.7,0.1,0.9,0.3c0.2,0.2,0.3,0.5,0.3,0.8
		c0,0.3-0.1,0.6-0.3,0.8c-0.2,0.2-0.5,0.3-0.9,0.3c-0.4,0-0.7-0.1-0.9-0.3C86.1,251.8,86,251.5,86,251.2z M88.4,261.8h-2.3v-8.5h2.3
		V261.8z"/>
	<path class="st7" d="M92.3,253.3l0.1,0.9c0.6-0.7,1.4-1.1,2.4-1.1c1.1,0,1.8,0.4,2.2,1.3c0.6-0.9,1.4-1.3,2.5-1.3
		c0.9,0,1.6,0.3,2,0.8c0.4,0.5,0.7,1.3,0.7,2.4v5.4h-2.3v-5.4c0-0.5-0.1-0.8-0.3-1.1s-0.5-0.3-1-0.3c-0.7,0-1.1,0.3-1.4,1l0,5.8
		h-2.3v-5.4c0-0.5-0.1-0.8-0.3-1.1c-0.2-0.2-0.5-0.3-1-0.3c-0.6,0-1.1,0.3-1.4,0.8v6h-2.3v-8.5H92.3z"/>
	<path class="st7" d="M104,251.2c0-0.3,0.1-0.6,0.3-0.8s0.5-0.3,0.9-0.3c0.4,0,0.7,0.1,0.9,0.3c0.2,0.2,0.3,0.5,0.3,0.8
		c0,0.3-0.1,0.6-0.3,0.8c-0.2,0.2-0.5,0.3-0.9,0.3c-0.4,0-0.7-0.1-0.9-0.3C104.2,251.8,104,251.5,104,251.2z M106.4,261.8h-2.3v-8.5
		h2.3V261.8z"/>
	<path class="st7" d="M112.2,261.9c-1.2,0-2.2-0.4-3-1.1c-0.8-0.8-1.2-1.8-1.2-3v-0.2c0-0.8,0.2-1.6,0.5-2.3s0.8-1.2,1.4-1.5
		s1.3-0.5,2.1-0.5c1.2,0,2.1,0.4,2.7,1.1s1,1.8,1,3.1v0.9h-5.4c0.1,0.6,0.3,1,0.7,1.3s0.8,0.5,1.4,0.5c0.9,0,1.5-0.3,2-0.9l1.1,1.2
		c-0.3,0.5-0.8,0.9-1.4,1.1S112.9,261.9,112.2,261.9z M111.9,255c-0.4,0-0.8,0.2-1.1,0.5c-0.3,0.3-0.5,0.7-0.5,1.3h3.1v-0.2
		c0-0.5-0.1-0.9-0.4-1.2C112.8,255.1,112.4,255,111.9,255z"/>
	<path class="st7" d="M119,253.3l0.1,1c0.6-0.8,1.4-1.1,2.4-1.1c0.9,0,1.6,0.3,2,0.8s0.7,1.3,0.7,2.4v5.5h-2.3v-5.4
		c0-0.5-0.1-0.8-0.3-1c-0.2-0.2-0.6-0.3-1-0.3c-0.6,0-1.1,0.3-1.4,0.8v6h-2.3v-8.5H119z"/>
	<path class="st7" d="M128.6,251.3v2.1h1.4v1.7h-1.4v4.2c0,0.3,0.1,0.5,0.2,0.7c0.1,0.1,0.3,0.2,0.7,0.2c0.2,0,0.5,0,0.7-0.1v1.7
		c-0.4,0.1-0.9,0.2-1.4,0.2c-1.6,0-2.4-0.8-2.4-2.4V255h-1.2v-1.7h1.2v-2.1H128.6z"/>
	<path class="st7" d="M130.7,257.5c0-0.8,0.2-1.6,0.5-2.2c0.3-0.7,0.8-1.2,1.4-1.5c0.6-0.4,1.3-0.5,2.1-0.5c1.1,0,2.1,0.3,2.8,1
		c0.7,0.7,1.1,1.6,1.2,2.8l0,0.6c0,1.3-0.4,2.3-1.1,3.1c-0.7,0.8-1.7,1.2-2.9,1.2s-2.2-0.4-2.9-1.2s-1.1-1.8-1.1-3.2V257.5z
		 M133,257.6c0,0.8,0.2,1.4,0.5,1.8c0.3,0.4,0.7,0.6,1.3,0.6c0.5,0,1-0.2,1.3-0.6c0.3-0.4,0.5-1.1,0.5-2c0-0.8-0.2-1.4-0.5-1.8
		c-0.3-0.4-0.7-0.6-1.3-0.6c-0.6,0-1,0.2-1.3,0.6C133.1,256.1,133,256.7,133,257.6z"/>
</g>
<g id="Rectángulo_33954" transform="translate(436 1181)">
	<rect x="-436" y="-998.2" class="st12" width="163" height="95"/>
	<rect x="-435" y="-997.2" class="st9" width="161" height="93"/>
</g>
<g class="st5">
	<path class="st11" d="M240.1,232.7c0,1.3-0.3,2.3-0.9,3.1c-0.6,0.8-1.4,1.2-2.4,1.2c-1,0-1.8-0.3-2.4-1v4.1H233v-11.7h1.3l0.1,0.9
		c0.6-0.7,1.4-1.1,2.5-1.1c1,0,1.8,0.4,2.4,1.1c0.6,0.8,0.9,1.8,0.9,3.2V232.7z M238.7,232.5c0-1-0.2-1.7-0.6-2.3s-1-0.8-1.7-0.8
		c-0.9,0-1.5,0.4-2,1.2v4c0.4,0.8,1.1,1.2,2,1.2c0.7,0,1.2-0.3,1.7-0.8C238.5,234.4,238.7,233.6,238.7,232.5z"/>
	<path class="st11" d="M247.2,236.8c-0.1-0.2-0.2-0.5-0.2-0.9c-0.7,0.7-1.5,1-2.4,1c-0.8,0-1.5-0.2-2.1-0.7
		c-0.5-0.5-0.8-1.1-0.8-1.8c0-0.9,0.3-1.6,1-2.1c0.7-0.5,1.6-0.7,2.8-0.7h1.4V231c0-0.5-0.2-0.9-0.5-1.2c-0.3-0.3-0.7-0.4-1.3-0.4
		c-0.5,0-0.9,0.1-1.3,0.4c-0.3,0.3-0.5,0.6-0.5,0.9h-1.5c0-0.4,0.1-0.8,0.4-1.2c0.3-0.4,0.7-0.7,1.2-0.9c0.5-0.2,1.1-0.3,1.7-0.3
		c1,0,1.7,0.2,2.3,0.7c0.6,0.5,0.8,1.2,0.9,2v3.9c0,0.8,0.1,1.4,0.3,1.9v0.1H247.2z M244.8,235.7c0.5,0,0.9-0.1,1.3-0.4
		s0.7-0.5,0.9-0.9v-1.7h-1.1c-1.8,0-2.7,0.5-2.7,1.6c0,0.5,0.2,0.8,0.5,1.1C243.9,235.6,244.3,235.7,244.8,235.7z"/>
	<path class="st11" d="M254.7,229.6c-0.2,0-0.5-0.1-0.7-0.1c-0.9,0-1.6,0.4-1.9,1.2v6h-1.4v-8.5h1.4l0,1c0.5-0.8,1.1-1.1,2-1.1
		c0.3,0,0.5,0,0.6,0.1V229.6z"/>
	<path class="st11" d="M261,236.8c-0.1-0.2-0.2-0.5-0.2-0.9c-0.7,0.7-1.5,1-2.4,1c-0.8,0-1.5-0.2-2.1-0.7c-0.5-0.5-0.8-1.1-0.8-1.8
		c0-0.9,0.3-1.6,1-2.1c0.7-0.5,1.6-0.7,2.8-0.7h1.4V231c0-0.5-0.2-0.9-0.5-1.2c-0.3-0.3-0.7-0.4-1.3-0.4c-0.5,0-0.9,0.1-1.3,0.4
		c-0.3,0.3-0.5,0.6-0.5,0.9h-1.5c0-0.4,0.1-0.8,0.4-1.2c0.3-0.4,0.7-0.7,1.2-0.9c0.5-0.2,1.1-0.3,1.7-0.3c1,0,1.7,0.2,2.3,0.7
		c0.6,0.5,0.8,1.2,0.9,2v3.9c0,0.8,0.1,1.4,0.3,1.9v0.1H261z M258.6,235.7c0.5,0,0.9-0.1,1.3-0.4s0.7-0.5,0.9-0.9v-1.7h-1.1
		c-1.8,0-2.7,0.5-2.7,1.6c0,0.5,0.2,0.8,0.5,1.1C257.7,235.6,258.1,235.7,258.6,235.7z"/>
	<path class="st11" d="M268.1,232.5c0-1.3,0.3-2.3,0.9-3.1c0.6-0.8,1.4-1.2,2.4-1.2c1,0,1.8,0.3,2.4,1v-4.4h1.4v12h-1.3l-0.1-0.9
		c-0.6,0.7-1.4,1.1-2.4,1.1c-1,0-1.8-0.4-2.4-1.2s-0.9-1.8-0.9-3.1V232.5z M269.5,232.7c0,1,0.2,1.7,0.6,2.2
		c0.4,0.5,0.9,0.8,1.6,0.8c0.9,0,1.6-0.4,2-1.2v-3.9c-0.4-0.8-1.1-1.2-2-1.2c-0.7,0-1.3,0.3-1.7,0.8
		C269.7,230.8,269.5,231.6,269.5,232.7z"/>
	<path class="st11" d="M282.6,236.8c-0.1-0.2-0.2-0.5-0.2-0.9c-0.7,0.7-1.5,1-2.4,1c-0.8,0-1.5-0.2-2.1-0.7
		c-0.5-0.5-0.8-1.1-0.8-1.8c0-0.9,0.3-1.6,1-2.1c0.7-0.5,1.6-0.7,2.8-0.7h1.4V231c0-0.5-0.2-0.9-0.5-1.2c-0.3-0.3-0.7-0.4-1.3-0.4
		c-0.5,0-0.9,0.1-1.3,0.4c-0.3,0.3-0.5,0.6-0.5,0.9h-1.5c0-0.4,0.1-0.8,0.4-1.2c0.3-0.4,0.7-0.7,1.2-0.9c0.5-0.2,1.1-0.3,1.7-0.3
		c1,0,1.7,0.2,2.3,0.7c0.6,0.5,0.8,1.2,0.9,2v3.9c0,0.8,0.1,1.4,0.3,1.9v0.1H282.6z M280.2,235.7c0.5,0,0.9-0.1,1.3-0.4
		s0.7-0.5,0.9-0.9v-1.7h-1.1c-1.8,0-2.7,0.5-2.7,1.6c0,0.5,0.2,0.8,0.5,1.1C279.4,235.6,279.8,235.7,280.2,235.7z"/>
	<path class="st11" d="M290.2,229.6c-0.2,0-0.5-0.1-0.7-0.1c-0.9,0-1.6,0.4-1.9,1.2v6h-1.4v-8.5h1.4l0,1c0.5-0.8,1.1-1.1,2-1.1
		c0.3,0,0.5,0,0.6,0.1V229.6z"/>
	<path class="st11" d="M298.3,234.8l2.1-6.5h1.5l-3,8.5h-1.1l-3.1-8.5h1.5L298.3,234.8z"/>
	<path class="st11" d="M308.4,236.8c-0.1-0.2-0.2-0.5-0.2-0.9c-0.7,0.7-1.5,1-2.4,1c-0.8,0-1.5-0.2-2.1-0.7
		c-0.5-0.5-0.8-1.1-0.8-1.8c0-0.9,0.3-1.6,1-2.1c0.7-0.5,1.6-0.7,2.8-0.7h1.4V231c0-0.5-0.2-0.9-0.5-1.2c-0.3-0.3-0.7-0.4-1.3-0.4
		c-0.5,0-0.9,0.1-1.3,0.4c-0.3,0.3-0.5,0.6-0.5,0.9h-1.5c0-0.4,0.1-0.8,0.4-1.2c0.3-0.4,0.7-0.7,1.2-0.9c0.5-0.2,1.1-0.3,1.7-0.3
		c1,0,1.7,0.2,2.3,0.7c0.6,0.5,0.8,1.2,0.9,2v3.9c0,0.8,0.1,1.4,0.3,1.9v0.1H308.4z M306,235.7c0.5,0,0.9-0.1,1.3-0.4
		s0.7-0.5,0.9-0.9v-1.7H307c-1.8,0-2.7,0.5-2.7,1.6c0,0.5,0.2,0.8,0.5,1.1C305.1,235.6,305.5,235.7,306,235.7z"/>
	<path class="st11" d="M313.4,236.8H312v-12h1.4V236.8z"/>
	<path class="st11" d="M315.3,232.5c0-0.8,0.2-1.6,0.5-2.2c0.3-0.7,0.8-1.2,1.4-1.5c0.6-0.4,1.2-0.5,2-0.5c1.2,0,2.1,0.4,2.8,1.2
		s1.1,1.9,1.1,3.2v0.1c0,0.8-0.2,1.6-0.5,2.2c-0.3,0.7-0.8,1.2-1.4,1.5s-1.3,0.5-2,0.5c-1.1,0-2.1-0.4-2.8-1.2s-1.1-1.9-1.1-3.2
		V232.5z M316.8,232.7c0,0.9,0.2,1.7,0.7,2.3c0.4,0.6,1,0.9,1.7,0.9c0.7,0,1.3-0.3,1.8-0.9c0.4-0.6,0.6-1.4,0.6-2.4
		c0-0.9-0.2-1.7-0.7-2.3c-0.4-0.6-1-0.9-1.8-0.9c-0.7,0-1.3,0.3-1.7,0.9S316.8,231.6,316.8,232.7z"/>
	<path class="st11" d="M328.9,229.6c-0.2,0-0.5-0.1-0.7-0.1c-0.9,0-1.6,0.4-1.9,1.2v6h-1.4v-8.5h1.4l0,1c0.5-0.8,1.1-1.1,2-1.1
		c0.3,0,0.5,0,0.6,0.1V229.6z"/>
</g>
<g class="st5">
	<path class="st11" d="M265.2,260.8c-0.1-0.2-0.2-0.5-0.2-0.9c-0.7,0.7-1.5,1-2.4,1c-0.8,0-1.5-0.2-2.1-0.7
		c-0.5-0.5-0.8-1.1-0.8-1.8c0-0.9,0.3-1.6,1-2.1c0.7-0.5,1.6-0.7,2.8-0.7h1.4V255c0-0.5-0.2-0.9-0.5-1.2c-0.3-0.3-0.7-0.4-1.3-0.4
		c-0.5,0-0.9,0.1-1.3,0.4c-0.3,0.3-0.5,0.6-0.5,0.9h-1.5c0-0.4,0.1-0.8,0.4-1.2c0.3-0.4,0.7-0.7,1.2-0.9c0.5-0.2,1.1-0.3,1.7-0.3
		c1,0,1.7,0.2,2.3,0.7c0.6,0.5,0.8,1.2,0.9,2v3.9c0,0.8,0.1,1.4,0.3,1.9v0.1H265.2z M262.8,259.7c0.5,0,0.9-0.1,1.3-0.4
		s0.7-0.5,0.9-0.9v-1.7h-1.1c-1.8,0-2.7,0.5-2.7,1.6c0,0.5,0.2,0.8,0.5,1.1C261.9,259.6,262.3,259.7,262.8,259.7z"/>
	<path class="st11" d="M277.8,260.8c-0.1-0.2-0.2-0.5-0.2-0.9c-0.7,0.7-1.5,1-2.4,1c-0.8,0-1.5-0.2-2.1-0.7
		c-0.5-0.5-0.8-1.1-0.8-1.8c0-0.9,0.3-1.6,1-2.1c0.7-0.5,1.6-0.7,2.8-0.7h1.4V255c0-0.5-0.2-0.9-0.5-1.2c-0.3-0.3-0.7-0.4-1.3-0.4
		c-0.5,0-0.9,0.1-1.3,0.4c-0.3,0.3-0.5,0.6-0.5,0.9h-1.5c0-0.4,0.1-0.8,0.4-1.2c0.3-0.4,0.7-0.7,1.2-0.9c0.5-0.2,1.1-0.3,1.7-0.3
		c1,0,1.7,0.2,2.3,0.7c0.6,0.5,0.8,1.2,0.9,2v3.9c0,0.8,0.1,1.4,0.3,1.9v0.1H277.8z M275.4,259.7c0.5,0,0.9-0.1,1.3-0.4
		s0.7-0.5,0.9-0.9v-1.7h-1.1c-1.8,0-2.7,0.5-2.7,1.6c0,0.5,0.2,0.8,0.5,1.1C274.6,259.6,274.9,259.7,275.4,259.7z"/>
	<path class="st11" d="M282.9,260.8h-1.4v-12h1.4V260.8z"/>
	<path class="st11" d="M284.8,256.5c0-1.3,0.3-2.4,0.9-3.1s1.4-1.2,2.4-1.2c1,0,1.8,0.4,2.4,1.1l0.1-0.9h1.3v8.3c0,1.1-0.3,2-1,2.6
		s-1.5,0.9-2.6,0.9c-0.6,0-1.2-0.1-1.8-0.4c-0.6-0.3-1-0.6-1.3-1.1l0.8-0.9c0.6,0.8,1.4,1.1,2.3,1.1c0.7,0,1.3-0.2,1.6-0.6
		c0.4-0.4,0.6-1,0.6-1.7v-0.7c-0.6,0.7-1.4,1-2.4,1c-1,0-1.8-0.4-2.4-1.2C285.1,259,284.8,257.9,284.8,256.5z M286.3,256.7
		c0,1,0.2,1.7,0.6,2.2s0.9,0.8,1.6,0.8c0.9,0,1.6-0.4,2-1.2v-3.9c-0.4-0.8-1.1-1.2-2-1.2c-0.7,0-1.3,0.3-1.6,0.8
		C286.5,254.8,286.3,255.6,286.3,256.7z"/>
	<path class="st11" d="M293.8,256.5c0-0.8,0.2-1.6,0.5-2.2c0.3-0.7,0.8-1.2,1.4-1.5c0.6-0.4,1.2-0.5,2-0.5c1.2,0,2.1,0.4,2.8,1.2
		s1.1,1.9,1.1,3.2v0.1c0,0.8-0.2,1.6-0.5,2.2c-0.3,0.7-0.8,1.2-1.4,1.5s-1.3,0.5-2,0.5c-1.1,0-2.1-0.4-2.8-1.2s-1.1-1.9-1.1-3.2
		V256.5z M295.2,256.7c0,0.9,0.2,1.7,0.7,2.3c0.4,0.6,1,0.9,1.7,0.9c0.7,0,1.3-0.3,1.8-0.9c0.4-0.6,0.6-1.4,0.6-2.4
		c0-0.9-0.2-1.7-0.7-2.3c-0.4-0.6-1-0.9-1.8-0.9c-0.7,0-1.3,0.3-1.7,0.9S295.2,255.6,295.2,256.7z"/>
</g>
<g id="Rectángulo_33954-2" transform="translate(436 1181)">
	<rect x="-220" y="-972.2" class="st12" width="133" height="69"/>
	<rect x="-219" y="-971.2" class="st10" width="131" height="67"/>
</g>
<g class="st5">
	<path class="st11" d="M478.7,231.7l2-6.3h1.5l-3.4,9.8c-0.5,1.4-1.4,2.1-2.5,2.1l-0.3,0l-0.5-0.1v-1.2l0.4,0c0.5,0,0.9-0.1,1.1-0.3
		s0.5-0.6,0.7-1.1l0.3-0.9l-3-8.4h1.6L478.7,231.7z"/>
	<path class="st11" d="M487.1,229.5c0-1.3,0.3-2.4,0.9-3.1s1.4-1.2,2.4-1.2c1,0,1.8,0.4,2.4,1.1l0.1-0.9h1.3v8.2c0,1.1-0.3,2-1,2.6
		s-1.5,0.9-2.6,0.9c-0.6,0-1.2-0.1-1.8-0.4s-1-0.6-1.3-1.1l0.8-0.9c0.6,0.8,1.4,1.1,2.3,1.1c0.7,0,1.3-0.2,1.6-0.6s0.6-1,0.6-1.7
		v-0.7c-0.6,0.7-1.4,1-2.4,1c-1,0-1.8-0.4-2.4-1.2S487.1,230.9,487.1,229.5z M488.6,229.7c0,1,0.2,1.7,0.6,2.2s0.9,0.8,1.6,0.8
		c0.9,0,1.6-0.4,2-1.2v-3.9c-0.4-0.8-1.1-1.2-2-1.2c-0.7,0-1.3,0.3-1.6,0.8S488.6,228.6,488.6,229.7z"/>
	<path class="st11" d="M500,233.9c-1.1,0-2.1-0.4-2.8-1.1s-1.1-1.8-1.1-3v-0.3c0-0.8,0.2-1.6,0.5-2.2s0.8-1.2,1.3-1.5
		s1.2-0.6,1.9-0.6c1.1,0,2,0.4,2.6,1.1s0.9,1.8,0.9,3.1v0.6h-5.7c0,0.8,0.3,1.5,0.7,2s1.1,0.8,1.8,0.8c0.5,0,0.9-0.1,1.3-0.3
		s0.7-0.5,0.9-0.8l0.9,0.7C502.4,233.4,501.4,233.9,500,233.9z M499.8,226.4c-0.6,0-1.1,0.2-1.5,0.6s-0.6,1-0.7,1.8h4.2v-0.1
		c0-0.7-0.2-1.3-0.6-1.7S500.4,226.4,499.8,226.4z"/>
	<path class="st11" d="M506.3,225.3l0,1.1c0.6-0.8,1.5-1.2,2.5-1.2c1.8,0,2.7,1,2.7,3v5.6h-1.4v-5.6c0-0.6-0.1-1.1-0.4-1.4
		s-0.7-0.4-1.3-0.4c-0.5,0-0.9,0.1-1.2,0.4s-0.6,0.6-0.8,1v6h-1.4v-8.5H506.3z"/>
	<path class="st11" d="M517.3,233.9c-1.1,0-2.1-0.4-2.8-1.1s-1.1-1.8-1.1-3v-0.3c0-0.8,0.2-1.6,0.5-2.2s0.8-1.2,1.3-1.5
		s1.2-0.6,1.9-0.6c1.1,0,2,0.4,2.6,1.1s0.9,1.8,0.9,3.1v0.6h-5.7c0,0.8,0.3,1.5,0.7,2s1.1,0.8,1.8,0.8c0.5,0,0.9-0.1,1.3-0.3
		s0.7-0.5,0.9-0.8l0.9,0.7C519.8,233.4,518.7,233.9,517.3,233.9z M517.1,226.4c-0.6,0-1.1,0.2-1.5,0.6s-0.6,1-0.7,1.8h4.2v-0.1
		c0-0.7-0.2-1.3-0.6-1.7S517.7,226.4,517.1,226.4z"/>
	<path class="st11" d="M526.3,226.6c-0.2,0-0.5-0.1-0.7-0.1c-0.9,0-1.6,0.4-1.9,1.2v6h-1.4v-8.5h1.4l0,1c0.5-0.8,1.1-1.1,2-1.1
		c0.3,0,0.5,0,0.6,0.1V226.6z"/>
	<path class="st11" d="M532.6,233.8c-0.1-0.2-0.2-0.5-0.2-0.9c-0.7,0.7-1.5,1-2.4,1c-0.8,0-1.5-0.2-2.1-0.7s-0.8-1.1-0.8-1.8
		c0-0.9,0.3-1.6,1-2.1s1.6-0.7,2.8-0.7h1.4V228c0-0.5-0.2-0.9-0.5-1.2s-0.7-0.4-1.3-0.4c-0.5,0-0.9,0.1-1.3,0.4s-0.5,0.6-0.5,0.9
		h-1.5c0-0.4,0.1-0.8,0.4-1.2s0.7-0.7,1.2-0.9s1.1-0.3,1.7-0.3c1,0,1.7,0.2,2.3,0.7s0.8,1.2,0.9,2v3.9c0,0.8,0.1,1.4,0.3,1.9v0.1
		H532.6z M530.2,232.7c0.5,0,0.9-0.1,1.3-0.4s0.7-0.5,0.9-0.9v-1.7h-1.1c-1.8,0-2.7,0.5-2.7,1.6c0,0.5,0.2,0.8,0.5,1.1
		S529.7,232.7,530.2,232.7z"/>
	<path class="st11" d="M540.1,226.6c-0.2,0-0.5-0.1-0.7-0.1c-0.9,0-1.6,0.4-1.9,1.2v6H536v-8.5h1.4l0,1c0.5-0.8,1.1-1.1,2-1.1
		c0.3,0,0.5,0,0.6,0.1V226.6z"/>
	<path class="st11" d="M550.6,233c-0.6,0.7-1.4,1-2.5,1c-0.9,0-1.6-0.3-2.1-0.8s-0.7-1.3-0.7-2.3v-5.5h1.4v5.5
		c0,1.3,0.5,1.9,1.6,1.9c1.1,0,1.8-0.4,2.2-1.2v-6.1h1.4v8.5h-1.4L550.6,233z"/>
	<path class="st11" d="M555.6,225.3l0,1.1c0.6-0.8,1.5-1.2,2.5-1.2c1.8,0,2.7,1,2.7,3v5.6h-1.4v-5.6c0-0.6-0.1-1.1-0.4-1.4
		s-0.7-0.4-1.3-0.4c-0.5,0-0.9,0.1-1.2,0.4s-0.6,0.6-0.8,1v6h-1.4v-8.5H555.6z"/>
	<path class="st11" d="M567.7,233.8v-7.3h-1.3v-1.1h1.3v-0.9c0-0.9,0.2-1.6,0.7-2.1s1.2-0.7,2.1-0.7c0.3,0,0.7,0,1,0.1l-0.1,1.2
		c-0.2,0-0.5-0.1-0.8-0.1c-0.5,0-0.8,0.1-1.1,0.4s-0.4,0.7-0.4,1.2v0.9h1.8v1.1h-1.8v7.3H567.7z"/>
	<path class="st11" d="M577.8,233.8c-0.1-0.2-0.2-0.5-0.2-0.9c-0.7,0.7-1.5,1-2.4,1c-0.8,0-1.5-0.2-2.1-0.7s-0.8-1.1-0.8-1.8
		c0-0.9,0.3-1.6,1-2.1s1.6-0.7,2.8-0.7h1.4V228c0-0.5-0.2-0.9-0.5-1.2s-0.7-0.4-1.3-0.4c-0.5,0-0.9,0.1-1.3,0.4s-0.5,0.6-0.5,0.9
		h-1.5c0-0.4,0.1-0.8,0.4-1.2s0.7-0.7,1.2-0.9s1.1-0.3,1.7-0.3c1,0,1.7,0.2,2.3,0.7s0.8,1.2,0.9,2v3.9c0,0.8,0.1,1.4,0.3,1.9v0.1
		H577.8z M575.4,232.7c0.5,0,0.9-0.1,1.3-0.4s0.7-0.5,0.9-0.9v-1.7h-1.1c-1.8,0-2.7,0.5-2.7,1.6c0,0.5,0.2,0.8,0.5,1.1
		S574.9,232.7,575.4,232.7z"/>
	<path class="st11" d="M584.7,232.8c0.5,0,1-0.2,1.4-0.5s0.6-0.7,0.6-1.2h1.4c0,0.5-0.2,0.9-0.5,1.4s-0.7,0.8-1.2,1
		s-1.1,0.4-1.6,0.4c-1.2,0-2.1-0.4-2.7-1.2s-1-1.8-1-3.2v-0.2c0-0.8,0.2-1.6,0.5-2.2s0.7-1.1,1.3-1.5s1.2-0.5,2-0.5
		c0.9,0,1.7,0.3,2.4,0.9s1,1.3,1,2.2h-1.4c0-0.5-0.2-1-0.6-1.3s-0.8-0.5-1.4-0.5c-0.7,0-1.3,0.3-1.7,0.8s-0.6,1.3-0.6,2.3v0.3
		c0,1,0.2,1.7,0.6,2.2S583.9,232.8,584.7,232.8z"/>
	<path class="st11" d="M591.6,223.3v2h1.6v1.1h-1.6v5.2c0,0.3,0.1,0.6,0.2,0.8c0.1,0.2,0.4,0.3,0.7,0.3c0.2,0,0.4,0,0.7-0.1v1.2
		c-0.4,0.1-0.8,0.2-1.1,0.2c-0.6,0-1.1-0.2-1.5-0.6s-0.5-0.9-0.5-1.7v-5.2h-1.5v-1.1h1.5v-2H591.6z"/>
	<path class="st11" d="M594.4,229.5c0-0.8,0.2-1.6,0.5-2.2s0.8-1.2,1.4-1.5s1.2-0.5,2-0.5c1.2,0,2.1,0.4,2.8,1.2s1.1,1.9,1.1,3.2
		v0.1c0,0.8-0.2,1.6-0.5,2.2s-0.8,1.2-1.4,1.5s-1.3,0.5-2,0.5c-1.1,0-2.1-0.4-2.8-1.2s-1.1-1.9-1.1-3.2V229.5z M595.8,229.7
		c0,0.9,0.2,1.7,0.7,2.3s1,0.9,1.7,0.9c0.7,0,1.3-0.3,1.8-0.9s0.6-1.4,0.6-2.4c0-0.9-0.2-1.7-0.7-2.3s-1-0.9-1.8-0.9
		c-0.7,0-1.3,0.3-1.7,0.9S595.8,228.6,595.8,229.7z"/>
	<path class="st11" d="M607.9,226.6c-0.2,0-0.5-0.1-0.7-0.1c-0.9,0-1.6,0.4-1.9,1.2v6h-1.4v-8.5h1.4l0,1c0.5-0.8,1.1-1.1,2-1.1
		c0.3,0,0.5,0,0.6,0.1V226.6z"/>
</g>
<g class="st5">
	<path class="st11" d="M495.2,253.5c0-1.3,0.3-2.3,0.9-3.1c0.6-0.8,1.4-1.2,2.4-1.2c1,0,1.8,0.3,2.4,1v-4.4h1.4v12H501l-0.1-0.9
		c-0.6,0.7-1.4,1.1-2.4,1.1c-1,0-1.8-0.4-2.4-1.2c-0.6-0.8-0.9-1.8-0.9-3.1V253.5z M496.6,253.7c0,1,0.2,1.7,0.6,2.2
		c0.4,0.5,0.9,0.8,1.6,0.8c0.9,0,1.6-0.4,2-1.2v-3.9c-0.4-0.8-1.1-1.2-2-1.2c-0.7,0-1.3,0.3-1.7,0.8
		C496.8,251.8,496.6,252.6,496.6,253.7z"/>
	<path class="st11" d="M504.6,247.1c0-0.2,0.1-0.4,0.2-0.6c0.1-0.2,0.4-0.2,0.6-0.2s0.5,0.1,0.6,0.2c0.1,0.2,0.2,0.4,0.2,0.6
		s-0.1,0.4-0.2,0.6c-0.1,0.2-0.4,0.2-0.6,0.2s-0.5-0.1-0.6-0.2C504.6,247.5,504.6,247.3,504.6,247.1z M506.1,257.8h-1.4v-8.5h1.4
		V257.8z"/>
	<path class="st11" d="M509.1,257.8v-7.3h-1.3v-1.1h1.3v-0.9c0-0.9,0.2-1.6,0.7-2.1s1.2-0.7,2.1-0.7c0.3,0,0.7,0,1,0.1l-0.1,1.2
		c-0.2,0-0.5-0.1-0.8-0.1c-0.5,0-0.8,0.1-1.1,0.4c-0.3,0.3-0.4,0.7-0.4,1.2v0.9h1.8v1.1h-1.8v7.3H509.1z"/>
	<path class="st11" d="M517.5,257.9c-1.1,0-2.1-0.4-2.8-1.1s-1.1-1.8-1.1-3v-0.3c0-0.8,0.2-1.6,0.5-2.2s0.8-1.2,1.3-1.5
		c0.6-0.4,1.2-0.6,1.9-0.6c1.1,0,2,0.4,2.6,1.1s0.9,1.8,0.9,3.1v0.6h-5.7c0,0.8,0.3,1.5,0.7,2c0.5,0.5,1.1,0.8,1.8,0.8
		c0.5,0,0.9-0.1,1.3-0.3c0.4-0.2,0.7-0.5,0.9-0.8l0.9,0.7C520,257.4,518.9,257.9,517.5,257.9z M517.3,250.4c-0.6,0-1.1,0.2-1.5,0.6
		c-0.4,0.4-0.6,1-0.7,1.8h4.2v-0.1c0-0.7-0.2-1.3-0.6-1.7C518.4,250.6,517.9,250.4,517.3,250.4z"/>
	<path class="st11" d="M526.5,250.6c-0.2,0-0.5-0.1-0.7-0.1c-0.9,0-1.6,0.4-1.9,1.2v6h-1.4v-8.5h1.4l0,1c0.5-0.8,1.1-1.1,2-1.1
		c0.3,0,0.5,0,0.6,0.1V250.6z"/>
	<path class="st11" d="M531.4,257.9c-1.1,0-2.1-0.4-2.8-1.1s-1.1-1.8-1.1-3v-0.3c0-0.8,0.2-1.6,0.5-2.2s0.8-1.2,1.3-1.5
		c0.6-0.4,1.2-0.6,1.9-0.6c1.1,0,2,0.4,2.6,1.1s0.9,1.8,0.9,3.1v0.6H529c0,0.8,0.3,1.5,0.7,2c0.5,0.5,1.1,0.8,1.8,0.8
		c0.5,0,0.9-0.1,1.3-0.3c0.4-0.2,0.7-0.5,0.9-0.8l0.9,0.7C533.9,257.4,532.8,257.9,531.4,257.9z M531.2,250.4
		c-0.6,0-1.1,0.2-1.5,0.6c-0.4,0.4-0.6,1-0.7,1.8h4.2v-0.1c0-0.7-0.2-1.3-0.6-1.7C532.3,250.6,531.8,250.4,531.2,250.4z"/>
	<path class="st11" d="M537.7,249.3l0,1.1c0.6-0.8,1.5-1.2,2.5-1.2c1.8,0,2.7,1,2.7,3v5.6h-1.4v-5.6c0-0.6-0.1-1.1-0.4-1.4
		s-0.7-0.4-1.3-0.4c-0.5,0-0.9,0.1-1.2,0.4c-0.4,0.2-0.6,0.6-0.8,1v6h-1.4v-8.5H537.7z"/>
	<path class="st11" d="M548.6,256.8c0.5,0,1-0.2,1.4-0.5c0.4-0.3,0.6-0.7,0.6-1.2h1.4c0,0.5-0.2,0.9-0.5,1.4c-0.3,0.4-0.7,0.8-1.2,1
		c-0.5,0.3-1.1,0.4-1.6,0.4c-1.2,0-2.1-0.4-2.7-1.2s-1-1.8-1-3.2v-0.2c0-0.8,0.2-1.6,0.5-2.2c0.3-0.6,0.7-1.1,1.3-1.5
		c0.6-0.4,1.2-0.5,2-0.5c0.9,0,1.7,0.3,2.4,0.9c0.6,0.6,1,1.3,1,2.2h-1.4c0-0.5-0.2-1-0.6-1.3c-0.4-0.4-0.8-0.5-1.4-0.5
		c-0.7,0-1.3,0.3-1.7,0.8c-0.4,0.5-0.6,1.3-0.6,2.3v0.3c0,1,0.2,1.7,0.6,2.2C547.3,256.5,547.8,256.8,548.6,256.8z"/>
	<path class="st11" d="M553.6,247.1c0-0.2,0.1-0.4,0.2-0.6c0.1-0.2,0.4-0.2,0.6-0.2s0.5,0.1,0.6,0.2c0.1,0.2,0.2,0.4,0.2,0.6
		s-0.1,0.4-0.2,0.6c-0.1,0.2-0.4,0.2-0.6,0.2s-0.5-0.1-0.6-0.2C553.6,247.5,553.6,247.3,553.6,247.1z M555.1,257.8h-1.4v-8.5h1.4
		V257.8z"/>
	<path class="st11" d="M562.7,257.8c-0.1-0.2-0.2-0.5-0.2-0.9c-0.7,0.7-1.5,1-2.4,1c-0.8,0-1.5-0.2-2.1-0.7
		c-0.5-0.5-0.8-1.1-0.8-1.8c0-0.9,0.3-1.6,1-2.1c0.7-0.5,1.6-0.7,2.8-0.7h1.4V252c0-0.5-0.2-0.9-0.5-1.2c-0.3-0.3-0.7-0.4-1.3-0.4
		c-0.5,0-0.9,0.1-1.3,0.4c-0.3,0.3-0.5,0.6-0.5,0.9h-1.5c0-0.4,0.1-0.8,0.4-1.2c0.3-0.4,0.7-0.7,1.2-0.9c0.5-0.2,1.1-0.3,1.7-0.3
		c1,0,1.7,0.2,2.3,0.7c0.6,0.5,0.8,1.2,0.9,2v3.9c0,0.8,0.1,1.4,0.3,1.9v0.1H562.7z M560.3,256.7c0.5,0,0.9-0.1,1.3-0.4
		s0.7-0.5,0.9-0.9v-1.7h-1.1c-1.8,0-2.7,0.5-2.7,1.6c0,0.5,0.2,0.8,0.5,1.1C559.4,256.6,559.8,256.7,560.3,256.7z"/>
	<path class="st11" d="M565.8,253.5c0-1.3,0.3-2.3,0.9-3.1c0.6-0.8,1.4-1.2,2.4-1.2c1,0,1.8,0.3,2.4,1v-4.4h1.4v12h-1.3l-0.1-0.9
		c-0.6,0.7-1.4,1.1-2.4,1.1c-1,0-1.8-0.4-2.4-1.2c-0.6-0.8-0.9-1.8-0.9-3.1V253.5z M567.2,253.7c0,1,0.2,1.7,0.6,2.2
		c0.4,0.5,0.9,0.8,1.6,0.8c0.9,0,1.6-0.4,2-1.2v-3.9c-0.4-0.8-1.1-1.2-2-1.2c-0.7,0-1.3,0.3-1.7,0.8
		C567.4,251.8,567.2,252.6,567.2,253.7z"/>
	<path class="st11" d="M574.8,253.5c0-0.8,0.2-1.6,0.5-2.2c0.3-0.7,0.8-1.2,1.4-1.5c0.6-0.4,1.2-0.5,2-0.5c1.2,0,2.1,0.4,2.8,1.2
		s1.1,1.9,1.1,3.2v0.1c0,0.8-0.2,1.6-0.5,2.2c-0.3,0.7-0.8,1.2-1.4,1.5s-1.3,0.5-2,0.5c-1.1,0-2.1-0.4-2.8-1.2
		c-0.7-0.8-1.1-1.9-1.1-3.2V253.5z M576.2,253.7c0,0.9,0.2,1.7,0.7,2.3c0.4,0.6,1,0.9,1.7,0.9c0.7,0,1.3-0.3,1.8-0.9
		c0.4-0.6,0.6-1.4,0.6-2.4c0-0.9-0.2-1.7-0.7-2.3c-0.4-0.6-1-0.9-1.8-0.9c-0.7,0-1.3,0.3-1.7,0.9S576.2,252.6,576.2,253.7z"/>
	<path class="st11" d="M588.4,250.6c-0.2,0-0.5-0.1-0.7-0.1c-0.9,0-1.6,0.4-1.9,1.2v6h-1.4v-8.5h1.4l0,1c0.5-0.8,1.1-1.1,2-1.1
		c0.3,0,0.5,0,0.6,0.1V250.6z"/>
</g>
<g id="Rectángulo_33954-3" transform="translate(436 1181)">
	<rect x="26" y="-978.2" class="st12" width="163" height="75"/>
	<rect x="27" y="-977.2" class="st9" width="161" height="73"/>
</g>
</svg>
