<svg xmlns="http://www.w3.org/2000/svg" width="190" height="155" viewBox="0 0 190 155">
  <g id="Grupo_130309" data-name="Grupo 130309" transform="translate(-600 -6472.001)">
    <g id="Grupo_126249" data-name="Grupo 126249" transform="translate(0 -3.999)">
      <rect id="Rectángulo_33968" data-name="Rectángulo 33968" width="190" height="155" transform="translate(600 6476)" fill="#f6f6f6"/>
      <g id="Grupo_126248" data-name="Grupo 126248" transform="translate(609.031 6460.541)">
        <g id="Grupo_126215" data-name="Grupo 126215" transform="translate(2.006 20.46)">
          <path id="Trazado_145507" data-name="Trazado 145507" d="M40.695,69.011l-25.8,11.121L52.81,168.09l127.414-54.923L166.609,81.583l-24.3-56.374Z" transform="translate(-10.406 -23.325)" fill="#8c8b8b" style="mix-blend-mode: multiply;isolation: isolate"/>
          <g id="Grupo_126214" data-name="Grupo 126214" transform="translate(0)">
            <rect id="Rectángulo_34291" data-name="Rectángulo 34291" width="138.747" height="95.782" transform="translate(0 54.923) rotate(-23.319)" fill="#fff"/>
            <path id="Trazado_145508" data-name="Trazado 145508" d="M147.341,156.043a70.67,70.67,0,0,1-17.794,15.279A64.342,64.342,0,0,1,86.5,179.458c-14.543-2.223-28.773-8.051-39.363-18.481-8.38-8.25-14.277-18.885-17.752-30.135l-25.8,11.122L41.5,229.92,168.911,175,155.3,143.414A59.173,59.173,0,0,1,147.341,156.043Z" transform="translate(-3.582 -87.04)" fill="#bababa"/>
            <g id="Grupo_126213" data-name="Grupo 126213" transform="translate(24.003 21.013)">
              <g id="Grupo_126207" data-name="Grupo 126207" transform="translate(31.524 57.631)">
                <rect id="Rectángulo_34292" data-name="Rectángulo 34292" width="1.511" height="27.677" transform="translate(0.001 10.957) rotate(-23.319)" fill="none" stroke="#0d2a34" stroke-miterlimit="10" stroke-width="0.71"/>
                <rect id="Rectángulo_34293" data-name="Rectángulo 34293" width="1.509" height="27.677" transform="translate(24.034 0.597) rotate(-23.309)" fill="none" stroke="#0d2a34" stroke-miterlimit="10" stroke-width="0.71"/>
                <rect id="Rectángulo_34294" data-name="Rectángulo 34294" width="27.677" height="1.509" transform="translate(10.36 34.988) rotate(-23.324)" fill="none" stroke="#0d2a34" stroke-miterlimit="10" stroke-width="0.71"/>
                <rect id="Rectángulo_34295" data-name="Rectángulo 34295" width="18.88" height="1.509" transform="translate(0 10.955) rotate(-23.308)" fill="none" stroke="#0d2a34" stroke-miterlimit="10" stroke-width="0.71"/>
                <path id="Trazado_145509" data-name="Trazado 145509" d="M188.712,230.917s2.1,4.949,9.043,2.566" transform="translate(-170.776 -226.048)" fill="none" stroke="#0d2a34" stroke-miterlimit="10" stroke-width="0.71"/>
              </g>
              <g id="Grupo_126208" data-name="Grupo 126208" transform="translate(41.285 10.358)">
                <rect id="Rectángulo_34296" data-name="Rectángulo 34296" width="1.51" height="27.676" transform="translate(0 10.958) rotate(-23.325)" fill="none" stroke="#0d2a34" stroke-miterlimit="10" stroke-width="0.71"/>
                <rect id="Rectángulo_34297" data-name="Rectángulo 34297" width="1.51" height="27.676" transform="translate(24.033 0.598) rotate(-23.306)" fill="none" stroke="#0d2a34" stroke-miterlimit="10" stroke-width="0.71"/>
                <rect id="Rectángulo_34298" data-name="Rectángulo 34298" width="27.676" height="1.511" transform="translate(0.001 10.956) rotate(-23.314)" fill="none" stroke="#0d2a34" stroke-miterlimit="10" stroke-width="0.71"/>
                <rect id="Rectángulo_34299" data-name="Rectángulo 34299" width="18.878" height="1.509" transform="translate(10.36 34.987) rotate(-23.319)" fill="none" stroke="#0d2a34" stroke-miterlimit="10" stroke-width="0.71"/>
                <path id="Trazado_145510" data-name="Trazado 145510" d="M237.383,156.18s-2.156-4.923,4.343-8.336" transform="translate(-209.687 -128.667)" fill="none" stroke="#0d2a34" stroke-miterlimit="10" stroke-width="0.71"/>
              </g>
              <g id="Grupo_126209" data-name="Grupo 126209" transform="translate(65.315 0)">
                <rect id="Rectángulo_34300" data-name="Rectángulo 34300" width="1.509" height="27.676" transform="translate(24.031 0.598) rotate(-23.314)" fill="none" stroke="#0d2a34" stroke-miterlimit="10" stroke-width="0.71"/>
                <rect id="Rectángulo_34301" data-name="Rectángulo 34301" width="27.677" height="1.511" transform="translate(0 10.958) rotate(-23.325)" fill="none" stroke="#0d2a34" stroke-miterlimit="10" stroke-width="0.71"/>
                <rect id="Rectángulo_34302" data-name="Rectángulo 34302" width="18.88" height="1.509" transform="translate(10.358 34.988) rotate(-23.324)" fill="none" stroke="#0d2a34" stroke-miterlimit="10" stroke-width="0.71"/>
                <path id="Trazado_145511" data-name="Trazado 145511" d="M297.94,130.075s-2.159-4.921,4.342-8.337" transform="translate(-270.245 -102.562)" fill="none" stroke="#0d2a34" stroke-miterlimit="10" stroke-width="0.71"/>
              </g>
              <g id="Grupo_126210" data-name="Grupo 126210" transform="translate(80.969 36.319)">
                <rect id="Rectángulo_34303" data-name="Rectángulo 34303" width="1.51" height="27.677" transform="translate(0 10.956) rotate(-23.32)" fill="none" stroke="#0d2a34" stroke-miterlimit="10" stroke-width="0.71"/>
                <rect id="Rectángulo_34304" data-name="Rectángulo 34304" width="1.509" height="27.677" transform="translate(24.03 0.597) rotate(-23.321)" fill="none" stroke="#0d2a34" stroke-miterlimit="10" stroke-width="0.71"/>
                <rect id="Rectángulo_34305" data-name="Rectángulo 34305" width="27.677" height="1.51" transform="translate(10.358 34.985) rotate(-23.321)" fill="none" stroke="#0d2a34" stroke-miterlimit="10" stroke-width="0.71"/>
                <rect id="Rectángulo_34306" data-name="Rectángulo 34306" width="18.88" height="1.509" transform="translate(0 10.955) rotate(-23.314)" fill="none" stroke="#0d2a34" stroke-miterlimit="10" stroke-width="0.71"/>
                <path id="Trazado_145512" data-name="Trazado 145512" d="M313.316,177.206s2.1,4.949,9.042,2.566" transform="translate(-295.38 -172.338)" fill="none" stroke="#0d2a34" stroke-miterlimit="10" stroke-width="0.71"/>
              </g>
              <rect id="Rectángulo_34307" data-name="Rectángulo 34307" width="26.166" height="1.51" transform="translate(67.299 81.662) rotate(-23.321)" fill="none" stroke="#0d2a34" stroke-miterlimit="10" stroke-width="0.71"/>
              <rect id="Rectángulo_34308" data-name="Rectángulo 34308" width="19.143" height="1.51" transform="matrix(0.918, -0.396, 0.396, 0.918, 55.556, 58.231)" fill="none" stroke="#0d2a34" stroke-miterlimit="10" stroke-width="0.71"/>
              <rect id="Rectángulo_34309" data-name="Rectángulo 34309" width="7.868" height="2.837" transform="matrix(0.918, -0.396, 0.396, 0.918, 80.2, 70.126)" fill="none" stroke="#0d2a34" stroke-miterlimit="10" stroke-width="0.71"/>
              <path id="Trazado_145513" data-name="Trazado 145513" d="M263.763,227.415a3.954,3.954,0,1,1-2.069,5.2A3.953,3.953,0,0,1,263.763,227.415Z" transform="translate(-183.079 -166.109)" fill="none" stroke="#0d2a34" stroke-miterlimit="10" stroke-width="0.71"/>
              <path id="Trazado_145514" data-name="Trazado 145514" d="M266.141,230.44a2.713,2.713,0,1,1-1.42,3.567A2.712,2.712,0,0,1,266.141,230.44Z" transform="translate(-184.966 -167.995)" fill="none" stroke="#0d2a34" stroke-miterlimit="10" stroke-width="0.71"/>
              <rect id="Rectángulo_34310" data-name="Rectángulo 34310" width="1.124" height="24.657" transform="translate(69.181 53.999) rotate(-23.319)" fill="none" stroke="#0d2a34" stroke-miterlimit="10" stroke-width="0.71"/>
              <path id="Trazado_145515" data-name="Trazado 145515" d="M221.352,221.721a1.125,1.125,0,1,1-.587,1.479A1.124,1.124,0,0,1,221.352,221.721Z" transform="translate(-158.53 -162.814)" fill="none" stroke="#0d2a34" stroke-miterlimit="10" stroke-width="0.71"/>
              <path id="Trazado_145516" data-name="Trazado 145516" d="M267.826,200.872l-.054.021a3.088,3.088,0,0,0-1.968,3.856l.926,2.147a3.087,3.087,0,0,0,4.154,1.217l.054-.023Z" transform="translate(-185.638 -150.294)" fill="none" stroke="#0d2a34" stroke-miterlimit="10" stroke-width="0.71"/>
              <rect id="Rectángulo_34311" data-name="Rectángulo 34311" width="1.511" height="67.168" transform="matrix(0.918, -0.396, 0.396, 0.918, 0, 39.173)" fill="none" stroke="#0d2a34" stroke-miterlimit="10" stroke-width="0.71"/>
              <rect id="Rectángulo_34312" data-name="Rectángulo 34312" width="46.49" height="1.511" transform="translate(0.001 39.168) rotate(-23.308)" fill="none" stroke="#0d2a34" stroke-miterlimit="10" stroke-width="0.71"/>
              <rect id="Rectángulo_34313" data-name="Rectángulo 34313" width="3.922" height="1.51" transform="translate(39.669 93.572) rotate(-23.325)" fill="none" stroke="#0d2a34" stroke-miterlimit="10" stroke-width="0.71"/>
              <g id="Grupo_126211" data-name="Grupo 126211" transform="translate(29.376 30.332)">
                <path id="Trazado_145517" data-name="Trazado 145517" d="M148.188,155.844a6.232,6.232,0,1,1-3.256,8.19A6.233,6.233,0,0,1,148.188,155.844Z" transform="translate(-141.913 -153.158)" fill="none" stroke="#0d2a34" stroke-miterlimit="10" stroke-width="0.71"/>
                <path id="Trazado_145518" data-name="Trazado 145518" d="M138.622,174.182c.546-.236,1.29.277,1.665,1.146s.237,1.763-.309,2-1.292-.278-1.667-1.147S138.075,174.418,138.622,174.182Z" transform="translate(-138.101 -164.492)" fill="none" stroke="#0d2a34" stroke-miterlimit="10" stroke-width="0.71"/>
                <path id="Trazado_145519" data-name="Trazado 145519" d="M174.933,158.53c.544-.235,1.29.277,1.665,1.146s.234,1.764-.309,2-1.293-.277-1.668-1.146S174.386,158.765,174.933,158.53Z" transform="translate(-160.002 -155.051)" fill="none" stroke="#0d2a34" stroke-miterlimit="10" stroke-width="0.71"/>
                <path id="Trazado_145520" data-name="Trazado 145520" d="M167.33,187.338c.234.545-.278,1.291-1.148,1.666s-1.763.235-2-.31.277-1.291,1.146-1.666S167.095,186.792,167.33,187.338Z" transform="translate(-153.799 -172.149)" fill="none" stroke="#0d2a34" stroke-miterlimit="10" stroke-width="0.71"/>
                <path id="Trazado_145521" data-name="Trazado 145521" d="M151.395,150.371c.235.546-.277,1.291-1.148,1.666s-1.763.236-2-.31.277-1.29,1.146-1.665S151.16,149.826,151.395,150.371Z" transform="translate(-144.188 -149.851)" fill="none" stroke="#0d2a34" stroke-miterlimit="10" stroke-width="0.71"/>
              </g>
              <g id="Grupo_126212" data-name="Grupo 126212" transform="translate(4.237 38.207)">
                <path id="Trazado_145522" data-name="Trazado 145522" d="M83.634,169.985a3.513,3.513,0,0,1,4.616,1.835l4.416,10.244a3.513,3.513,0,0,1-1.835,4.615h0a3.512,3.512,0,0,1-4.616-1.834L81.8,174.6a3.513,3.513,0,0,1,1.836-4.616Z" transform="translate(-78.827 -169.697)" fill="none" stroke="#0d2a34" stroke-miterlimit="10" stroke-width="0.71"/>
                <path id="Trazado_145523" data-name="Trazado 145523" d="M75.362,174.857a1.107,1.107,0,0,1,1.424.642l6.457,14.979a1.108,1.108,0,0,1-.511,1.477h0a1.107,1.107,0,0,1-1.423-.643l-6.457-14.979a1.106,1.106,0,0,1,.511-1.475Z" transform="translate(-74.749 -172.762)" fill="none" stroke="#0d2a34" stroke-miterlimit="10" stroke-width="0.71"/>
              </g>
              <path id="Trazado_145524" data-name="Trazado 145524" d="M112.132,177.6a3.51,3.51,0,0,1-4.616-1.833L103.1,165.519a3.512,3.512,0,0,1,1.835-4.616h0a3.514,3.514,0,0,1,4.617,1.835l4.416,10.244a3.512,3.512,0,0,1-1.836,4.615Z" transform="translate(-87.439 -126.012)" fill="none" stroke="#0d2a34" stroke-miterlimit="10" stroke-width="0.71"/>
              <path id="Trazado_145525" data-name="Trazado 145525" d="M124.731,172.748a1.106,1.106,0,0,1-1.422-.643l-6.456-14.976a1.107,1.107,0,0,1,.509-1.477h0a1.106,1.106,0,0,1,1.424.644l6.456,14.976a1.107,1.107,0,0,1-.511,1.476Z" transform="translate(-95.846 -122.97)" fill="none" stroke="#0d2a34" stroke-miterlimit="10" stroke-width="0.71"/>
              <path id="Trazado_145526" data-name="Trazado 145526" d="M140.579,303.258s-3.764-8.88-16.23-4.605" transform="translate(-100.43 -208.572)" fill="none" stroke="#0d2a34" stroke-miterlimit="10" stroke-width="0.71"/>
            </g>
            <rect id="Rectángulo_34314" data-name="Rectángulo 34314" width="130.478" height="87.472" transform="matrix(0.918, -0.396, 0.396, 0.918, 5.442, 57.101)" fill="none" stroke="#0d2a34" stroke-miterlimit="10" stroke-width="0.71"/>
            <rect id="Rectángulo_34315" data-name="Rectángulo 34315" width="123.441" height="82.754" transform="translate(9.606 57.875) rotate(-23.319)" fill="none" stroke="#0d2a34" stroke-miterlimit="10" stroke-width="0.62"/>
          </g>
        </g>
        <g id="Grupo_126229" data-name="Grupo 126229" transform="translate(0.969 59.343)">
          <path id="Trazado_145527" data-name="Trazado 145527" d="M72.543,134.185h0l-.246-.032h0l-.412-.053h0l-.3-.039h0L71.1,134l-.187-.025h0l-.567-.073-.131-.017h0l-.4-.051h0l-.253-.032-.421-.054h0l-.3-.039h0l-1.285-.165-.077-.01h0l-.4-.051h0l-.235-.03-.479-.062h0l-.3-.039h0L65.7,133.3h0l-.3-.038-1.093-.14h0l-.3-.039-.37-.047h0l-.081-.01-.584-.075h0l-.266-.034-.432-.056h0l-.3-.039h0l-.394-.051h0l-.3-.039-.412-.053h0l-.3-.039h0l-.369-.048h0l-.3-.038-1.093-.14h0l-.3-.039h0L58,132.316l-.194-.025h0l-1.212-.156-.149-.019h0l-.4-.052-.3-.039h0l-.411-.053h0l-.3-.039h0l-.371-.048-.3-.04h0l-1.092-.14h0l-.193-.024-.48-.062-.13-.017-.535-.069h0l-.11-.014-1.286-.165-.3-.039h0l-.412-.053h0l-.3-.038h0l-.37-.048-.3-.039h0l-.525-.067-.173-.023h0l-.429-.055-.269-.035h0l-.37-.048-.3-.039h0l-.361-.046h0l-.1-.012-.777-.1-.129-.017h0l-1.11-.143h0l-.162-.021-.511-.066h0l-.3-.039-.519-.067-.18-.023h0l-.507-.065-.191-.025h0l-.369-.048h0l-.3-.039h0l-.362-.046h0l-.3-.039h0l-.4-.051h0l-.3-.039h0l-.423-.054L39.2,129.9h0l-.439-.056-.274-.036h0l-.639-.083-.033,0-1.094-.141-.3-.039h0l-.371-.048h0l-.3-.038h0l-.361-.046h0l-.3-.039h0l-.395-.051h0l-.3-.039h0l-.558-.072-.14-.018-.636-.082-.079-.01-.371-.048-.3-.039h0l-.395-.051h0l-.3-.039h0l-.4-.051-.169-.021-.5-.065-.048-.006-.806-.1-.112-.015h0l-1.094-.141h0l-.3-.039h0l-.632-.081-.083-.011h0l-.524-.067-.148-.019h0l-.4-.051h0l-.3-.039h0l-.395-.051h0l-.3-.038h0l-.369-.048h0l-.3-.039h0l-1.1-.141-.265-.035h0l-.4-.051-.3-.039h0l-.41-.053h0l-.3-.038-.37-.048h0l-.3-.038h0l-.4-.051h0l-.277-.035-.421-.054h0l-.3-.039h0l-1.128-.145-.21-.027h0l-.4-.051h0l-.3-.039-.607-.078-.091-.012h0l-.678-.087h0l-.537-.069-.135-.017h0l-.492-.063-.206-.027h0l-.395-.051h0l-.2-.026-.471-.06h0l-.3-.038L4.453,198.589l73.18-63.749ZM19.361,169.491l3.875-30.14,26.773,3.442Z" transform="translate(-3.07 -123.377)" fill="#8c8b8b" style="mix-blend-mode: multiply;isolation: isolate"/>
          <g id="Grupo_126228" data-name="Grupo 126228" transform="translate(0 0)">
            <path id="Trazado_145528" data-name="Trazado 145528" d="M74.149,126.669l-63.925-8.22L.969,190.418Zm-27.624,7.952-30.648,26.7,3.875-30.14Z" transform="translate(-0.969 -118.449)" fill="#00a4b7"/>
            <path id="Trazado_145529" data-name="Trazado 145529" d="M74.149,126.669l-63.925-8.22L.969,190.418Zm-13.972,3.353L8.8,174.777l6.5-50.526Z" transform="translate(-0.969 -118.449)" fill="#d2d1d1" style="mix-blend-mode: multiply;isolation: isolate"/>
            <g id="Grupo_126227" data-name="Grupo 126227" transform="translate(9.007)" style="mix-blend-mode: multiply;isolation: isolate">
              <rect id="Rectángulo_34316" data-name="Rectángulo 34316" width="1.952" height="0.305" transform="translate(5.483 2.642) rotate(-82.708)" fill="#828282"/>
              <rect id="Rectángulo_34317" data-name="Rectángulo 34317" width="2.995" height="0.306" transform="matrix(0.126, -0.992, 0.992, 0.126, 2.609, 3.324)" fill="#828282"/>
              <rect id="Rectángulo_34318" data-name="Rectángulo 34318" width="2.995" height="0.306" transform="translate(8.091 4.028) rotate(-82.673)" fill="#828282"/>
              <rect id="Rectángulo_34319" data-name="Rectángulo 34319" width="1.647" height="0.306" transform="translate(3.461 2.074) rotate(-82.692)" fill="#828282"/>
              <rect id="Rectángulo_34320" data-name="Rectángulo 34320" width="1.647" height="0.305" transform="translate(4.158 2.163) rotate(-82.597)" fill="#828282"/>
              <rect id="Rectángulo_34321" data-name="Rectángulo 34321" width="1.648" height="0.306" transform="matrix(0.128, -0.992, 0.992, 0.128, 4.856, 2.254)" fill="#828282"/>
              <rect id="Rectángulo_34322" data-name="Rectángulo 34322" width="1.648" height="0.305" transform="translate(6.194 2.426) rotate(-82.671)" fill="#828282"/>
              <path id="Trazado_145530" data-name="Trazado 145530" d="M41.337,122.343l-.3-.04.21-1.633.3.038Z" transform="translate(-34.143 -119.789)" fill="#828282"/>
              <rect id="Rectángulo_34323" data-name="Rectángulo 34323" width="1.648" height="0.306" transform="translate(7.59 2.605) rotate(-82.692)" fill="#828282"/>
              <rect id="Rectángulo_34324" data-name="Rectángulo 34324" width="1.953" height="0.305" transform="translate(0 1.937) rotate(-82.7)" fill="#828282"/>
              <rect id="Rectángulo_34325" data-name="Rectángulo 34325" width="2.995" height="0.306" transform="matrix(0.126, -0.992, 0.992, 0.126, 2.609, 3.324)" fill="#828282"/>
              <rect id="Rectángulo_34326" data-name="Rectángulo 34326" width="1.647" height="0.305" transform="translate(0.711 1.72) rotate(-82.633)" fill="#828282"/>
              <path id="Trazado_145531" data-name="Trazado 145531" d="M27.519,120.565l-.3-.038.21-1.635.3.039Z" transform="translate(-25.808 -118.716)" fill="#828282"/>
              <rect id="Rectángulo_34327" data-name="Rectángulo 34327" width="1.647" height="0.305" transform="translate(2.108 1.9) rotate(-82.691)" fill="#828282"/>
              <rect id="Rectángulo_34328" data-name="Rectángulo 34328" width="1.953" height="0.306" transform="translate(11 3.351) rotate(-82.727)" fill="#828282"/>
              <rect id="Rectángulo_34329" data-name="Rectángulo 34329" width="2.995" height="0.306" transform="translate(13.606 4.737) rotate(-82.627)" fill="#828282"/>
              <rect id="Rectángulo_34330" data-name="Rectángulo 34330" width="1.647" height="0.305" transform="translate(8.977 2.783) rotate(-82.663)" fill="#828282"/>
              <rect id="Rectángulo_34331" data-name="Rectángulo 34331" width="1.647" height="0.306" transform="translate(9.675 2.873) rotate(-82.652)" fill="#828282"/>
              <rect id="Rectángulo_34332" data-name="Rectángulo 34332" width="1.647" height="0.305" transform="translate(10.373 2.963) rotate(-82.616)" fill="#828282"/>
              <rect id="Rectángulo_34333" data-name="Rectángulo 34333" width="1.648" height="0.306" transform="matrix(0.126, -0.992, 0.992, 0.126, 11.711, 3.135)" fill="#828282"/>
              <rect id="Rectángulo_34334" data-name="Rectángulo 34334" width="1.648" height="0.305" transform="translate(12.409 3.225) rotate(-82.663)" fill="#828282"/>
              <rect id="Rectángulo_34335" data-name="Rectángulo 34335" width="1.647" height="0.306" transform="translate(13.107 3.314) rotate(-82.663)" fill="#828282"/>
              <rect id="Rectángulo_34336" data-name="Rectángulo 34336" width="1.953" height="0.306" transform="translate(16.514 4.06) rotate(-82.605)" fill="#828282"/>
              <path id="Trazado_145532" data-name="Trazado 145532" d="M72.162,127.7l-.3-.038.382-2.971.3.039Z" transform="translate(-52.735 -122.213)" fill="#828282"/>
              <rect id="Rectángulo_34337" data-name="Rectángulo 34337" width="1.647" height="0.306" transform="translate(14.493 3.493) rotate(-82.636)" fill="#828282"/>
              <rect id="Rectángulo_34338" data-name="Rectángulo 34338" width="1.647" height="0.304" transform="translate(15.192 3.583) rotate(-82.652)" fill="#828282"/>
              <rect id="Rectángulo_34339" data-name="Rectángulo 34339" width="1.647" height="0.305" transform="translate(15.89 3.672) rotate(-82.587)" fill="#828282"/>
              <rect id="Rectángulo_34340" data-name="Rectángulo 34340" width="1.648" height="0.305" transform="translate(17.226 3.844) rotate(-82.597)" fill="#828282"/>
              <rect id="Rectángulo_34341" data-name="Rectángulo 34341" width="1.648" height="0.306" transform="translate(17.926 3.934) rotate(-82.747)" fill="#828282"/>
              <rect id="Rectángulo_34342" data-name="Rectángulo 34342" width="1.648" height="0.304" transform="translate(18.624 4.024) rotate(-82.698)" fill="#828282"/>
              <rect id="Rectángulo_34343" data-name="Rectángulo 34343" width="1.953" height="0.306" transform="translate(22.031 4.769) rotate(-82.681)" fill="#828282"/>
              <rect id="Rectángulo_34344" data-name="Rectángulo 34344" width="2.996" height="0.306" transform="matrix(0.128, -0.992, 0.992, 0.128, 24.64, 6.157)" fill="#828282"/>
              <rect id="Rectángulo_34345" data-name="Rectángulo 34345" width="1.647" height="0.305" transform="translate(20.01 4.202) rotate(-82.617)" fill="#828282"/>
              <rect id="Rectángulo_34346" data-name="Rectángulo 34346" width="1.648" height="0.305" transform="translate(20.709 4.292) rotate(-82.708)" fill="#828282"/>
              <path id="Trazado_145533" data-name="Trazado 145533" d="M77.916,127.046l-.3-.039.209-1.634.3.039Z" transform="translate(-56.206 -122.625)" fill="#828282"/>
              <rect id="Rectángulo_34347" data-name="Rectángulo 34347" width="1.647" height="0.304" transform="translate(22.747 4.554) rotate(-82.888)" fill="#828282"/>
              <rect id="Rectángulo_34348" data-name="Rectángulo 34348" width="1.647" height="0.305" transform="translate(23.443 4.643) rotate(-82.709)" fill="#828282"/>
              <rect id="Rectángulo_34349" data-name="Rectángulo 34349" width="1.647" height="0.305" transform="translate(24.14 4.733) rotate(-82.698)" fill="#828282"/>
              <rect id="Rectángulo_34350" data-name="Rectángulo 34350" width="1.953" height="0.306" transform="matrix(0.126, -0.992, 0.992, 0.126, 27.55, 5.48)" fill="#828282"/>
              <rect id="Rectángulo_34351" data-name="Rectángulo 34351" width="2.995" height="0.306" transform="translate(30.158 6.866) rotate(-82.692)" fill="#828282"/>
              <rect id="Rectángulo_34352" data-name="Rectángulo 34352" width="1.647" height="0.306" transform="translate(25.527 4.911) rotate(-82.682)" fill="#828282"/>
              <path id="Trazado_145534" data-name="Trazado 145534" d="M90.059,128.607l-.3-.04.21-1.634.3.039Z" transform="translate(-63.53 -123.567)" fill="#828282"/>
              <rect id="Rectángulo_34353" data-name="Rectángulo 34353" width="1.647" height="0.305" transform="translate(26.924 5.091) rotate(-82.663)" fill="#828282"/>
              <path id="Trazado_145535" data-name="Trazado 145535" d="M95.186,129.266l-.3-.038.211-1.634.3.04Z" transform="translate(-66.623 -123.965)" fill="#828282"/>
              <path id="Trazado_145536" data-name="Trazado 145536" d="M96.945,129.492l-.3-.038.21-1.635.3.04Z" transform="translate(-67.684 -124.101)" fill="#828282"/>
              <rect id="Rectángulo_34354" data-name="Rectángulo 34354" width="1.648" height="0.305" transform="translate(29.655 5.442) rotate(-82.606)" fill="#828282"/>
              <rect id="Rectángulo_34355" data-name="Rectángulo 34355" width="1.952" height="0.305" transform="matrix(0.128, -0.992, 0.992, 0.128, 33.065, 6.188)" fill="#828282"/>
              <rect id="Rectángulo_34356" data-name="Rectángulo 34356" width="2.996" height="0.305" transform="translate(35.675 7.576) rotate(-82.698)" fill="#828282"/>
              <rect id="Rectángulo_34357" data-name="Rectángulo 34357" width="1.647" height="0.305" transform="translate(31.043 5.621) rotate(-82.606)" fill="#828282"/>
              <path id="Trazado_145537" data-name="Trazado 145537" d="M103.959,130.4l-.3-.039.21-1.634.3.039Z" transform="translate(-71.915 -124.645)" fill="#828282"/>
              <rect id="Rectángulo_34358" data-name="Rectángulo 34358" width="1.647" height="0.305" transform="matrix(0.127, -0.992, 0.992, 0.127, 32.441, 5.801)" fill="#828282"/>
              <path id="Trazado_145538" data-name="Trazado 145538" d="M109.089,131.055l-.3-.04.21-1.634.3.039Z" transform="translate(-75.009 -125.043)" fill="#828282"/>
              <rect id="Rectángulo_34359" data-name="Rectángulo 34359" width="1.647" height="0.305" transform="translate(34.475 6.062) rotate(-82.7)" fill="#828282"/>
              <rect id="Rectángulo_34360" data-name="Rectángulo 34360" width="1.648" height="0.305" transform="translate(35.173 6.152) rotate(-82.642)" fill="#828282"/>
              <rect id="Rectángulo_34361" data-name="Rectángulo 34361" width="1.952" height="0.305" transform="translate(38.582 6.898) rotate(-82.67)" fill="#828282"/>
              <rect id="Rectángulo_34362" data-name="Rectángulo 34362" width="2.995" height="0.305" transform="translate(41.188 8.284) rotate(-82.56)" fill="#828282"/>
              <rect id="Rectángulo_34363" data-name="Rectángulo 34363" width="1.647" height="0.306" transform="translate(36.56 6.33) rotate(-82.692)" fill="#828282"/>
              <rect id="Rectángulo_34364" data-name="Rectángulo 34364" width="1.647" height="0.306" transform="translate(37.259 6.421) rotate(-82.71)" fill="#828282"/>
              <rect id="Rectángulo_34365" data-name="Rectángulo 34365" width="1.647" height="0.306" transform="matrix(0.129, -0.992, 0.992, 0.129, 37.956, 6.509)" fill="#828282"/>
              <rect id="Rectángulo_34366" data-name="Rectángulo 34366" width="1.647" height="0.305" transform="translate(39.294 6.682) rotate(-82.71)" fill="#828282"/>
              <rect id="Rectángulo_34367" data-name="Rectángulo 34367" width="1.647" height="0.306" transform="translate(39.991 6.771) rotate(-82.673)" fill="#828282"/>
              <rect id="Rectángulo_34368" data-name="Rectángulo 34368" width="1.648" height="0.306" transform="translate(40.689 6.862) rotate(-82.69)" fill="#828282"/>
              <rect id="Rectángulo_34369" data-name="Rectángulo 34369" width="1.952" height="0.305" transform="matrix(0.126, -0.992, 0.992, 0.126, 44.1, 7.607)" fill="#828282"/>
              <rect id="Rectángulo_34370" data-name="Rectángulo 34370" width="2.996" height="0.306" transform="translate(46.705 8.994) rotate(-82.625)" fill="#828282"/>
              <path id="Trazado_145539" data-name="Trazado 145539" d="M130.005,133.744l-.3-.039.209-1.634.3.039Z" transform="translate(-87.626 -126.665)" fill="#828282"/>
              <rect id="Rectángulo_34371" data-name="Rectángulo 34371" width="1.647" height="0.305" transform="matrix(0.126, -0.992, 0.992, 0.126, 42.777, 7.13)" fill="#828282"/>
              <rect id="Rectángulo_34372" data-name="Rectángulo 34372" width="1.647" height="0.304" transform="translate(43.473 7.219) rotate(-82.645)" fill="#828282"/>
              <rect id="Rectángulo_34373" data-name="Rectángulo 34373" width="1.648" height="0.305" transform="translate(44.811 7.391) rotate(-82.709)" fill="#828282"/>
              <rect id="Rectángulo_34374" data-name="Rectángulo 34374" width="1.647" height="0.306" transform="translate(45.509 7.481) rotate(-82.728)" fill="#828282"/>
              <rect id="Rectángulo_34375" data-name="Rectángulo 34375" width="1.648" height="0.306" transform="matrix(0.127, -0.992, 0.992, 0.127, 46.206, 7.571)" fill="#828282"/>
              <path id="Trazado_145540" data-name="Trazado 145540" d="M149,136.5l-.3-.039.25-1.936.3.038Z" transform="translate(-99.083 -128.148)" fill="#828282"/>
              <rect id="Rectángulo_34376" data-name="Rectángulo 34376" width="2.996" height="0.306" transform="translate(52.224 9.704) rotate(-82.717)" fill="#828282"/>
              <rect id="Rectángulo_34377" data-name="Rectángulo 34377" width="1.647" height="0.306" transform="matrix(0.127, -0.992, 0.992, 0.127, 47.594, 7.749)" fill="#828282"/>
              <rect id="Rectángulo_34378" data-name="Rectángulo 34378" width="1.648" height="0.306" transform="matrix(0.128, -0.992, 0.992, 0.128, 48.291, 7.839)" fill="#828282"/>
              <rect id="Rectángulo_34379" data-name="Rectángulo 34379" width="1.648" height="0.305" transform="translate(48.989 7.929) rotate(-82.673)" fill="#828282"/>
              <rect id="Rectángulo_34380" data-name="Rectángulo 34380" width="1.648" height="0.305" transform="translate(50.327 8.101) rotate(-82.673)" fill="#828282"/>
              <rect id="Rectángulo_34381" data-name="Rectángulo 34381" width="1.647" height="0.305" transform="translate(51.026 8.191) rotate(-82.792)" fill="#828282"/>
              <path id="Trazado_145541" data-name="Trazado 145541" d="M154.312,136.87l-.3-.04.21-1.633.3.039Z" transform="translate(-102.286 -128.551)" fill="#828282"/>
              <rect id="Rectángulo_34382" data-name="Rectángulo 34382" width="1.953" height="0.305" transform="translate(55.131 9.026) rotate(-82.691)" fill="#828282"/>
              <rect id="Rectángulo_34383" data-name="Rectángulo 34383" width="2.996" height="0.305" transform="matrix(0.127, -0.992, 0.992, 0.127, 57.741, 10.413)" fill="#828282"/>
              <rect id="Rectángulo_34384" data-name="Rectángulo 34384" width="1.647" height="0.305" transform="translate(53.11 8.458) rotate(-82.663)" fill="#828282"/>
              <rect id="Rectángulo_34385" data-name="Rectángulo 34385" width="1.647" height="0.304" transform="matrix(0.127, -0.992, 0.992, 0.127, 53.809, 8.548)" fill="#828282"/>
              <rect id="Rectángulo_34386" data-name="Rectángulo 34386" width="1.647" height="0.306" transform="matrix(0.128, -0.992, 0.992, 0.128, 54.505, 8.638)" fill="#828282"/>
              <rect id="Rectángulo_34387" data-name="Rectángulo 34387" width="1.648" height="0.305" transform="translate(55.845 8.81) rotate(-82.737)" fill="#828282"/>
              <path id="Trazado_145542" data-name="Trazado 145542" d="M166.455,138.431l-.3-.038.211-1.635.3.04Z" transform="translate(-109.611 -129.493)" fill="#828282"/>
              <path id="Trazado_145543" data-name="Trazado 145543" d="M168.214,138.657l-.3-.039.21-1.634.3.04Z" transform="translate(-110.673 -129.629)" fill="#828282"/>
              <rect id="Rectángulo_34388" data-name="Rectángulo 34388" width="1.647" height="0.249" transform="translate(58.625 9.167) rotate(-82.606)" fill="#828282"/>
              <g id="Grupo_126216" data-name="Grupo 126216" transform="translate(2.32 3.991)">
                <path id="Trazado_145544" data-name="Trazado 145544" d="M29.555,129.936l.142-1.107-.185-.024.02-.152a.321.321,0,0,0,.156-.04.285.285,0,0,0,.117-.108l.151.02-.185,1.438Z" transform="translate(-29.513 -128.506)" fill="#828282"/>
              </g>
              <g id="Grupo_126217" data-name="Grupo 126217" transform="translate(7.676 4.708)">
                <path id="Trazado_145545" data-name="Trazado 145545" d="M43.147,130.677a.419.419,0,0,1,.15-.3.338.338,0,0,1,.263-.063.322.322,0,0,1,.229.137.356.356,0,0,1,.069.262.662.662,0,0,1-.1.275,2.12,2.12,0,0,1-.2.239c-.028.031-.07.079-.125.144l-.047.053-.069.083a.087.087,0,0,0-.012.019l.425.055-.027.212-.689-.089.025-.2a.46.46,0,0,1,.058-.073l.059-.067.067-.075.183-.2a1.419,1.419,0,0,0,.181-.234.432.432,0,0,0,.063-.167.174.174,0,0,0-.023-.116.13.13,0,0,0-.1-.062.135.135,0,0,0-.141.088.238.238,0,0,0-.023.081l-.007.055-.213-.027Z" transform="translate(-43.011 -130.313)" fill="#828282"/>
              </g>
              <g id="Grupo_126218" data-name="Grupo 126218" transform="translate(13.082 5.381)">
                <path id="Trazado_145546" data-name="Trazado 145546" d="M56.957,133.259q.149.019.167-.119l.011-.085a.2.2,0,0,0-.2-.251l.024-.185a.233.233,0,0,0,.194-.046.265.265,0,0,0,.077-.169l0-.033c.012-.094-.024-.146-.106-.157a.111.111,0,0,0-.108.039.2.2,0,0,0-.038.1l0,.038-.212-.027,0-.033a.389.389,0,0,1,.11-.24.3.3,0,0,1,.263-.078.314.314,0,0,1,.231.135.338.338,0,0,1,.053.242l-.008.061a.354.354,0,0,1-.11.221.328.328,0,0,1-.089.06.367.367,0,0,1,.129.183.314.314,0,0,1,.01.14l-.014.113a.343.343,0,0,1-.143.247.351.351,0,0,1-.263.067.346.346,0,0,1-.3-.387l0-.036.209.011,0,.051a.135.135,0,0,0,.027.093A.119.119,0,0,0,56.957,133.259Z" transform="translate(-56.633 -132.008)" fill="#828282"/>
              </g>
              <g id="Grupo_126219" data-name="Grupo 126219" transform="translate(18.768 6.135)">
                <path id="Trazado_145547" data-name="Trazado 145547" d="M70.989,134.771l.5-.861.217.028-.117.911.139.018-.029.218-.138-.018-.04.31-.217-.028.04-.31-.383-.049Zm.383.049.058-.449-.237.426Z" transform="translate(-70.961 -133.91)" fill="#828282"/>
              </g>
              <g id="Grupo_126220" data-name="Grupo 126220" transform="translate(24.114 6.777)">
                <path id="Trazado_145548" data-name="Trazado 145548" d="M84.793,135.772l-.04.308a.207.207,0,0,1,.1-.06.187.187,0,0,1,.074,0,.24.24,0,0,1,.2.127.436.436,0,0,1,.027.251l-.04.309a.361.361,0,0,1-.134.249.329.329,0,0,1-.256.067.306.306,0,0,1-.223-.134.345.345,0,0,1-.06-.252l0-.035.21.011,0,.05a.129.129,0,0,0,.055.124.093.093,0,0,0,.038.014.121.121,0,0,0,.151-.122l.045-.352a.135.135,0,0,0-.033-.11.09.09,0,0,0-.059-.027.093.093,0,0,0-.091.034.165.165,0,0,0-.033.08l-.005.039-.217-.028.1-.786.635.082-.028.218Z" transform="translate(-84.435 -135.526)" fill="#828282"/>
              </g>
              <g id="Grupo_126221" data-name="Grupo 126221" transform="translate(29.74 7.519)">
                <path id="Trazado_145549" data-name="Trazado 145549" d="M99.141,137.788l0-.036a.145.145,0,0,0-.017-.092.107.107,0,0,0-.16-.021.138.138,0,0,0-.039.085l-.037.287a.243.243,0,0,1,.173-.046.248.248,0,0,1,.2.127.408.408,0,0,1,.032.25l-.031.247h0a.345.345,0,0,1-.129.218.314.314,0,0,1-.239.064.308.308,0,0,1-.223-.133.345.345,0,0,1-.06-.252l.1-.785a.369.369,0,0,1,.075-.183.314.314,0,0,1,.162-.108.325.325,0,0,1,.357.123.342.342,0,0,1,.06.252l0,.031Zm-.312.723a.141.141,0,0,0,.015.09.1.1,0,0,0,.076.048.1.1,0,0,0,.086-.027.137.137,0,0,0,.038-.083l.034-.266a.133.133,0,0,0-.033-.109.088.088,0,0,0-.059-.027.1.1,0,0,0-.091.033.153.153,0,0,0-.033.079Z" transform="translate(-98.613 -137.398)" fill="#828282"/>
              </g>
              <g id="Grupo_126222" data-name="Grupo 126222" transform="translate(35.353 8.206)">
                <path id="Trazado_145550" data-name="Trazado 145550" d="M113.459,139.213l-.028.218-.461,1.181-.213-.028.461-1.181-.438-.056.028-.218Z" transform="translate(-112.757 -139.129)" fill="#828282"/>
              </g>
              <g id="Grupo_126223" data-name="Grupo 126223" transform="translate(40.808 8.944)">
                <path id="Trazado_145551" data-name="Trazado 145551" d="M127.211,142.165a.345.345,0,0,1-.388.3l-.017,0a.347.347,0,0,1-.3-.387l.017-.131a.337.337,0,0,1,.118-.219.325.325,0,0,1,.1-.058.3.3,0,0,1-.116-.167.338.338,0,0,1-.007-.138l.01-.078a.334.334,0,0,1,.112-.221.311.311,0,0,1,.256-.072l.017,0a.314.314,0,0,1,.231.135.338.338,0,0,1,.053.242l-.01.078a.324.324,0,0,1-.109.212.28.28,0,0,1-.087.052.368.368,0,0,1,.129.183.312.312,0,0,1,.01.14Zm-.2-.13a.207.207,0,0,0-.036-.179.128.128,0,0,0-.075-.031.116.116,0,0,0-.126.058.319.319,0,0,0-.034.117l-.009.069a.158.158,0,0,0,.029.12.138.138,0,0,0,.087.051.133.133,0,0,0,.134-.072A.155.155,0,0,0,127,142.1Zm.088-.632c.011-.1-.012-.164-.069-.2a.116.116,0,0,0-.048-.015.136.136,0,0,0-.1.019.134.134,0,0,0-.049.06.3.3,0,0,0-.023.1.28.28,0,0,0,.013.138.142.142,0,0,0,.226.026A.246.246,0,0,0,127.1,141.4Z" transform="translate(-126.504 -140.987)" fill="#828282"/>
              </g>
              <g id="Grupo_126224" data-name="Grupo 126224" transform="translate(46.308 9.65)">
                <path id="Trazado_145552" data-name="Trazado 145552" d="M140.839,142.769a.307.307,0,0,1,.223.133.343.343,0,0,1,.06.252l-.1.785a.346.346,0,0,1-.125.231.325.325,0,0,1-.469-.063.345.345,0,0,1-.06-.252l0-.031.225.029,0,.036a.141.141,0,0,0,.016.092.108.108,0,0,0,.16.02.139.139,0,0,0,.04-.085l.037-.287a.259.259,0,0,1-.373-.081.415.415,0,0,1-.032-.252l.032-.246h0a.348.348,0,0,1,.08-.172.311.311,0,0,1,.156-.1A.319.319,0,0,1,140.839,142.769Zm.069.361a.144.144,0,0,0-.017-.092.1.1,0,0,0-.075-.047.1.1,0,0,0-.084.026.14.14,0,0,0-.04.085l-.035.266a.135.135,0,0,0,.033.11.085.085,0,0,0,.058.027.1.1,0,0,0,.115-.074.165.165,0,0,0,.011-.039Z" transform="translate(-140.363 -142.766)" fill="#828282"/>
              </g>
              <g id="Grupo_126225" data-name="Grupo 126225" transform="translate(51.583 10.326)">
                <path id="Trazado_145553" data-name="Trazado 145553" d="M153.7,145.9l.142-1.107-.185-.024.02-.152a.321.321,0,0,0,.156-.04.292.292,0,0,0,.117-.108l.151.02-.185,1.438Z" transform="translate(-153.657 -144.47)" fill="#828282"/>
                <path id="Trazado_145554" data-name="Trazado 145554" d="M155.579,145.814a.346.346,0,1,1-.687-.088l.1-.784a.346.346,0,0,1,.388-.3.331.331,0,0,1,.231.132.335.335,0,0,1,.068.256Zm-.123-.818a.126.126,0,0,0-.109-.141.125.125,0,0,0-.139.109l-.1.786a.121.121,0,0,0,.025.092.119.119,0,0,0,.083.048.125.125,0,0,0,.141-.109Z" transform="translate(-154.4 -144.572)" fill="#828282"/>
              </g>
              <g id="Grupo_126226" data-name="Grupo 126226" transform="translate(57.167 11.044)">
                <path id="Trazado_145555" data-name="Trazado 145555" d="M167.771,147.71l.142-1.107-.184-.023.019-.152a.321.321,0,0,0,.156-.04.284.284,0,0,0,.117-.108l.152.019-.185,1.438Z" transform="translate(-167.729 -146.28)" fill="#828282"/>
                <path id="Trazado_145556" data-name="Trazado 145556" d="M169.23,147.9l.142-1.107-.184-.024.019-.152a.321.321,0,0,0,.156-.04.29.29,0,0,0,.117-.108l.152.02-.185,1.438Z" transform="translate(-168.609 -146.393)" fill="#828282"/>
              </g>
            </g>
          </g>
        </g>
        <g id="Grupo_126247" data-name="Grupo 126247" transform="translate(153.633 40.767)">
          <path id="Trazado_145557" data-name="Trazado 145557" d="M396.409,80.1H385.691v91.735h13.216V80.1Z" transform="translate(-385.691 -76.742)" fill="#8c8b8b" style="mix-blend-mode: multiply;isolation: isolate"/>
          <g id="Grupo_126246" data-name="Grupo 126246" transform="translate(3.304)">
            <rect id="Rectángulo_34389" data-name="Rectángulo 34389" width="13.216" height="91.735" fill="#e99231"/>
            <rect id="Rectángulo_34390" data-name="Rectángulo 34390" width="6.609" height="91.735" fill="#d2d1d1" style="mix-blend-mode: multiply;isolation: isolate"/>
            <g id="Grupo_126245" data-name="Grupo 126245" style="mix-blend-mode: multiply;isolation: isolate">
              <rect id="Rectángulo_34391" data-name="Rectángulo 34391" width="2.141" height="0.334" transform="translate(0 85.342)" fill="#828282"/>
              <rect id="Rectángulo_34392" data-name="Rectángulo 34392" width="3.284" height="0.334" transform="translate(0 88.372)" fill="#828282"/>
              <rect id="Rectángulo_34393" data-name="Rectángulo 34393" width="3.284" height="0.335" transform="translate(0 82.313)" fill="#828282"/>
              <rect id="Rectángulo_34394" data-name="Rectángulo 34394" width="1.805" height="0.335" transform="translate(0 87.619)" fill="#828282"/>
              <rect id="Rectángulo_34395" data-name="Rectángulo 34395" width="1.805" height="0.335" transform="translate(0 86.847)" fill="#828282"/>
              <rect id="Rectángulo_34396" data-name="Rectángulo 34396" width="1.805" height="0.334" transform="translate(0 86.077)" fill="#828282"/>
              <rect id="Rectángulo_34397" data-name="Rectángulo 34397" width="1.805" height="0.335" transform="translate(0 84.599)" fill="#828282"/>
              <rect id="Rectángulo_34398" data-name="Rectángulo 34398" width="1.805" height="0.335" transform="translate(0 83.827)" fill="#828282"/>
              <rect id="Rectángulo_34399" data-name="Rectángulo 34399" width="1.805" height="0.334" transform="translate(0 83.057)" fill="#828282"/>
              <rect id="Rectángulo_34400" data-name="Rectángulo 34400" width="2.141" height="0.334" transform="translate(0 91.401)" fill="#828282"/>
              <rect id="Rectángulo_34401" data-name="Rectángulo 34401" width="3.284" height="0.334" transform="translate(0 88.372)" fill="#828282"/>
              <rect id="Rectángulo_34402" data-name="Rectángulo 34402" width="1.805" height="0.334" transform="translate(0 90.658)" fill="#828282"/>
              <rect id="Rectángulo_34403" data-name="Rectángulo 34403" width="1.805" height="0.334" transform="translate(0 89.887)" fill="#828282"/>
              <rect id="Rectángulo_34404" data-name="Rectángulo 34404" width="1.805" height="0.335" transform="translate(0 89.115)" fill="#828282"/>
              <rect id="Rectángulo_34405" data-name="Rectángulo 34405" width="2.141" height="0.334" transform="translate(0 79.247)" fill="#828282"/>
              <rect id="Rectángulo_34406" data-name="Rectángulo 34406" width="3.284" height="0.334" transform="translate(0 76.217)" fill="#828282"/>
              <rect id="Rectángulo_34407" data-name="Rectángulo 34407" width="1.805" height="0.334" transform="translate(0 81.523)" fill="#828282"/>
              <rect id="Rectángulo_34408" data-name="Rectángulo 34408" width="1.805" height="0.335" transform="translate(0 80.752)" fill="#828282"/>
              <rect id="Rectángulo_34409" data-name="Rectángulo 34409" width="1.805" height="0.335" transform="translate(0 79.981)" fill="#828282"/>
              <rect id="Rectángulo_34410" data-name="Rectángulo 34410" width="1.805" height="0.334" transform="translate(0 78.503)" fill="#828282"/>
              <rect id="Rectángulo_34411" data-name="Rectángulo 34411" width="1.805" height="0.334" transform="translate(0 77.732)" fill="#828282"/>
              <rect id="Rectángulo_34412" data-name="Rectángulo 34412" width="1.805" height="0.334" transform="translate(0 76.961)" fill="#828282"/>
              <rect id="Rectángulo_34413" data-name="Rectángulo 34413" width="2.141" height="0.335" transform="translate(0 73.15)" fill="#828282"/>
              <rect id="Rectángulo_34414" data-name="Rectángulo 34414" width="3.284" height="0.333" transform="translate(0 70.122)" fill="#828282"/>
              <rect id="Rectángulo_34415" data-name="Rectángulo 34415" width="1.805" height="0.334" transform="translate(0 75.427)" fill="#828282"/>
              <rect id="Rectángulo_34416" data-name="Rectángulo 34416" width="1.805" height="0.334" transform="translate(0 74.656)" fill="#828282"/>
              <rect id="Rectángulo_34417" data-name="Rectángulo 34417" width="1.805" height="0.334" transform="translate(0 73.885)" fill="#828282"/>
              <rect id="Rectángulo_34418" data-name="Rectángulo 34418" width="1.805" height="0.334" transform="translate(0 72.408)" fill="#828282"/>
              <rect id="Rectángulo_34419" data-name="Rectángulo 34419" width="1.805" height="0.334" transform="translate(0 71.636)" fill="#828282"/>
              <rect id="Rectángulo_34420" data-name="Rectángulo 34420" width="1.805" height="0.334" transform="translate(0 70.865)" fill="#828282"/>
              <rect id="Rectángulo_34421" data-name="Rectángulo 34421" width="2.141" height="0.335" transform="translate(0 67.055)" fill="#828282"/>
              <rect id="Rectángulo_34422" data-name="Rectángulo 34422" width="3.284" height="0.335" transform="translate(0 64.025)" fill="#828282"/>
              <rect id="Rectángulo_34423" data-name="Rectángulo 34423" width="1.805" height="0.334" transform="translate(0 69.332)" fill="#828282"/>
              <rect id="Rectángulo_34424" data-name="Rectángulo 34424" width="1.805" height="0.335" transform="translate(0 68.56)" fill="#828282"/>
              <rect id="Rectángulo_34425" data-name="Rectángulo 34425" width="1.805" height="0.334" transform="translate(0 67.789)" fill="#828282"/>
              <rect id="Rectángulo_34426" data-name="Rectángulo 34426" width="1.805" height="0.335" transform="translate(0 66.311)" fill="#828282"/>
              <rect id="Rectángulo_34427" data-name="Rectángulo 34427" width="1.805" height="0.335" transform="translate(0 65.54)" fill="#828282"/>
              <rect id="Rectángulo_34428" data-name="Rectángulo 34428" width="1.805" height="0.335" transform="translate(0 64.769)" fill="#828282"/>
              <rect id="Rectángulo_34429" data-name="Rectángulo 34429" width="2.141" height="0.335" transform="translate(0 60.959)" fill="#828282"/>
              <rect id="Rectángulo_34430" data-name="Rectángulo 34430" width="3.284" height="0.334" transform="translate(0 57.93)" fill="#828282"/>
              <rect id="Rectángulo_34431" data-name="Rectángulo 34431" width="1.805" height="0.334" transform="translate(0 63.236)" fill="#828282"/>
              <rect id="Rectángulo_34432" data-name="Rectángulo 34432" width="1.805" height="0.335" transform="translate(0 62.465)" fill="#828282"/>
              <rect id="Rectángulo_34433" data-name="Rectángulo 34433" width="1.805" height="0.334" transform="translate(0 61.693)" fill="#828282"/>
              <rect id="Rectángulo_34434" data-name="Rectángulo 34434" width="1.805" height="0.335" transform="translate(0 60.215)" fill="#828282"/>
              <rect id="Rectángulo_34435" data-name="Rectángulo 34435" width="1.805" height="0.335" transform="translate(0 59.444)" fill="#828282"/>
              <rect id="Rectángulo_34436" data-name="Rectángulo 34436" width="1.805" height="0.334" transform="translate(0 58.673)" fill="#828282"/>
              <rect id="Rectángulo_34437" data-name="Rectángulo 34437" width="2.141" height="0.335" transform="translate(0 54.863)" fill="#828282"/>
              <rect id="Rectángulo_34438" data-name="Rectángulo 34438" width="3.284" height="0.334" transform="translate(0 51.834)" fill="#828282"/>
              <rect id="Rectángulo_34439" data-name="Rectángulo 34439" width="1.805" height="0.334" transform="translate(0 57.14)" fill="#828282"/>
              <rect id="Rectángulo_34440" data-name="Rectángulo 34440" width="1.805" height="0.335" transform="translate(0 56.368)" fill="#828282"/>
              <rect id="Rectángulo_34441" data-name="Rectángulo 34441" width="1.805" height="0.335" transform="translate(0 55.597)" fill="#828282"/>
              <rect id="Rectángulo_34442" data-name="Rectángulo 34442" width="1.805" height="0.335" transform="translate(0 54.119)" fill="#828282"/>
              <rect id="Rectángulo_34443" data-name="Rectángulo 34443" width="1.805" height="0.334" transform="translate(0 53.349)" fill="#828282"/>
              <rect id="Rectángulo_34444" data-name="Rectángulo 34444" width="1.805" height="0.334" transform="translate(0 52.577)" fill="#828282"/>
              <rect id="Rectángulo_34445" data-name="Rectángulo 34445" width="2.141" height="0.334" transform="translate(0 48.768)" fill="#828282"/>
              <rect id="Rectángulo_34446" data-name="Rectángulo 34446" width="3.284" height="0.335" transform="translate(0 45.738)" fill="#828282"/>
              <rect id="Rectángulo_34447" data-name="Rectángulo 34447" width="1.805" height="0.335" transform="translate(0 51.043)" fill="#828282"/>
              <rect id="Rectángulo_34448" data-name="Rectángulo 34448" width="1.805" height="0.335" transform="translate(0 50.272)" fill="#828282"/>
              <rect id="Rectángulo_34449" data-name="Rectángulo 34449" width="1.805" height="0.335" transform="translate(0 49.501)" fill="#828282"/>
              <rect id="Rectángulo_34450" data-name="Rectángulo 34450" width="1.805" height="0.334" transform="translate(0 48.024)" fill="#828282"/>
              <rect id="Rectángulo_34451" data-name="Rectángulo 34451" width="1.805" height="0.335" transform="translate(0 47.252)" fill="#828282"/>
              <rect id="Rectángulo_34452" data-name="Rectángulo 34452" width="1.805" height="0.334" transform="translate(0 46.481)" fill="#828282"/>
              <rect id="Rectángulo_34453" data-name="Rectángulo 34453" width="2.141" height="0.334" transform="translate(0 42.672)" fill="#828282"/>
              <rect id="Rectángulo_34454" data-name="Rectángulo 34454" width="3.284" height="0.335" transform="translate(0 39.642)" fill="#828282"/>
              <rect id="Rectángulo_34455" data-name="Rectángulo 34455" width="1.805" height="0.335" transform="translate(0 44.948)" fill="#828282"/>
              <rect id="Rectángulo_34456" data-name="Rectángulo 34456" width="1.805" height="0.335" transform="translate(0 44.176)" fill="#828282"/>
              <rect id="Rectángulo_34457" data-name="Rectángulo 34457" width="1.805" height="0.335" transform="translate(0 43.405)" fill="#828282"/>
              <rect id="Rectángulo_34458" data-name="Rectángulo 34458" width="1.805" height="0.334" transform="translate(0 41.928)" fill="#828282"/>
              <rect id="Rectángulo_34459" data-name="Rectángulo 34459" width="1.805" height="0.335" transform="translate(0 41.156)" fill="#828282"/>
              <rect id="Rectángulo_34460" data-name="Rectángulo 34460" width="1.805" height="0.335" transform="translate(0 40.386)" fill="#828282"/>
              <rect id="Rectángulo_34461" data-name="Rectángulo 34461" width="2.141" height="0.334" transform="translate(0 36.575)" fill="#828282"/>
              <rect id="Rectángulo_34462" data-name="Rectángulo 34462" width="3.284" height="0.334" transform="translate(0 33.546)" fill="#828282"/>
              <rect id="Rectángulo_34463" data-name="Rectángulo 34463" width="1.805" height="0.335" transform="translate(0 38.852)" fill="#828282"/>
              <rect id="Rectángulo_34464" data-name="Rectángulo 34464" width="1.805" height="0.334" transform="translate(0 38.08)" fill="#828282"/>
              <rect id="Rectángulo_34465" data-name="Rectángulo 34465" width="1.805" height="0.334" transform="translate(0 37.309)" fill="#828282"/>
              <rect id="Rectángulo_34466" data-name="Rectángulo 34466" width="1.805" height="0.334" transform="translate(0 35.831)" fill="#828282"/>
              <rect id="Rectángulo_34467" data-name="Rectángulo 34467" width="1.805" height="0.335" transform="translate(0 35.06)" fill="#828282"/>
              <rect id="Rectángulo_34468" data-name="Rectángulo 34468" width="1.805" height="0.334" transform="translate(0 34.29)" fill="#828282"/>
              <rect id="Rectángulo_34469" data-name="Rectángulo 34469" width="2.141" height="0.334" transform="translate(0 30.48)" fill="#828282"/>
              <rect id="Rectángulo_34470" data-name="Rectángulo 34470" width="3.284" height="0.334" transform="translate(0 27.45)" fill="#828282"/>
              <rect id="Rectángulo_34471" data-name="Rectángulo 34471" width="1.805" height="0.334" transform="translate(0 32.756)" fill="#828282"/>
              <rect id="Rectángulo_34472" data-name="Rectángulo 34472" width="1.805" height="0.334" transform="translate(0 31.985)" fill="#828282"/>
              <rect id="Rectángulo_34473" data-name="Rectángulo 34473" width="1.805" height="0.334" transform="translate(0 31.214)" fill="#828282"/>
              <rect id="Rectángulo_34474" data-name="Rectángulo 34474" width="1.805" height="0.334" transform="translate(0 29.736)" fill="#828282"/>
              <rect id="Rectángulo_34475" data-name="Rectángulo 34475" width="1.805" height="0.334" transform="translate(0 28.965)" fill="#828282"/>
              <rect id="Rectángulo_34476" data-name="Rectángulo 34476" width="1.805" height="0.334" transform="translate(0 28.193)" fill="#828282"/>
              <rect id="Rectángulo_34477" data-name="Rectángulo 34477" width="2.141" height="0.334" transform="translate(0 24.384)" fill="#828282"/>
              <rect id="Rectángulo_34478" data-name="Rectángulo 34478" width="3.284" height="0.336" transform="translate(0 21.354)" fill="#828282"/>
              <rect id="Rectángulo_34479" data-name="Rectángulo 34479" width="1.805" height="0.335" transform="translate(0 26.66)" fill="#828282"/>
              <rect id="Rectángulo_34480" data-name="Rectángulo 34480" width="1.805" height="0.335" transform="translate(0 25.888)" fill="#828282"/>
              <rect id="Rectángulo_34481" data-name="Rectángulo 34481" width="1.805" height="0.335" transform="translate(0 25.118)" fill="#828282"/>
              <rect id="Rectángulo_34482" data-name="Rectángulo 34482" width="1.805" height="0.334" transform="translate(0 23.64)" fill="#828282"/>
              <rect id="Rectángulo_34483" data-name="Rectángulo 34483" width="1.805" height="0.336" transform="translate(0 22.868)" fill="#828282"/>
              <rect id="Rectángulo_34484" data-name="Rectángulo 34484" width="1.805" height="0.334" transform="translate(0 22.097)" fill="#828282"/>
              <rect id="Rectángulo_34485" data-name="Rectángulo 34485" width="2.141" height="0.335" transform="translate(0 18.288)" fill="#828282"/>
              <rect id="Rectángulo_34486" data-name="Rectángulo 34486" width="3.284" height="0.335" transform="translate(0 15.258)" fill="#828282"/>
              <rect id="Rectángulo_34487" data-name="Rectángulo 34487" width="1.805" height="0.334" transform="translate(0 20.565)" fill="#828282"/>
              <rect id="Rectángulo_34488" data-name="Rectángulo 34488" width="1.805" height="0.334" transform="translate(0 19.793)" fill="#828282"/>
              <rect id="Rectángulo_34489" data-name="Rectángulo 34489" width="1.805" height="0.335" transform="translate(0 19.021)" fill="#828282"/>
              <rect id="Rectángulo_34490" data-name="Rectángulo 34490" width="1.805" height="0.335" transform="translate(0 17.545)" fill="#828282"/>
              <rect id="Rectángulo_34491" data-name="Rectángulo 34491" width="1.805" height="0.334" transform="translate(0 16.773)" fill="#828282"/>
              <rect id="Rectángulo_34492" data-name="Rectángulo 34492" width="1.805" height="0.335" transform="translate(0 16.002)" fill="#828282"/>
              <rect id="Rectángulo_34493" data-name="Rectángulo 34493" width="2.141" height="0.335" transform="translate(0 12.192)" fill="#828282"/>
              <rect id="Rectángulo_34494" data-name="Rectángulo 34494" width="3.284" height="0.335" transform="translate(0 9.162)" fill="#828282"/>
              <rect id="Rectángulo_34495" data-name="Rectángulo 34495" width="1.805" height="0.336" transform="translate(0 14.468)" fill="#828282"/>
              <rect id="Rectángulo_34496" data-name="Rectángulo 34496" width="1.805" height="0.334" transform="translate(0 13.697)" fill="#828282"/>
              <rect id="Rectángulo_34497" data-name="Rectángulo 34497" width="1.805" height="0.335" transform="translate(0 12.925)" fill="#828282"/>
              <rect id="Rectángulo_34498" data-name="Rectángulo 34498" width="1.805" height="0.335" transform="translate(0 11.448)" fill="#828282"/>
              <rect id="Rectángulo_34499" data-name="Rectángulo 34499" width="1.805" height="0.335" transform="translate(0 10.677)" fill="#828282"/>
              <rect id="Rectángulo_34500" data-name="Rectángulo 34500" width="1.805" height="0.334" transform="translate(0 9.906)" fill="#828282"/>
              <rect id="Rectángulo_34501" data-name="Rectángulo 34501" width="2.141" height="0.333" transform="translate(0 6.096)" fill="#828282"/>
              <rect id="Rectángulo_34502" data-name="Rectángulo 34502" width="3.284" height="0.335" transform="translate(0 3.066)" fill="#828282"/>
              <rect id="Rectángulo_34503" data-name="Rectángulo 34503" width="1.805" height="0.335" transform="translate(0 8.372)" fill="#828282"/>
              <rect id="Rectángulo_34504" data-name="Rectángulo 34504" width="1.805" height="0.335" transform="translate(0 7.602)" fill="#828282"/>
              <rect id="Rectángulo_34505" data-name="Rectángulo 34505" width="1.805" height="0.335" transform="translate(0 6.83)" fill="#828282"/>
              <rect id="Rectángulo_34506" data-name="Rectángulo 34506" width="1.805" height="0.335" transform="translate(0 5.352)" fill="#828282"/>
              <rect id="Rectángulo_34507" data-name="Rectángulo 34507" width="1.805" height="0.336" transform="translate(0 4.58)" fill="#828282"/>
              <rect id="Rectángulo_34508" data-name="Rectángulo 34508" width="1.805" height="0.335" transform="translate(0 3.81)" fill="#828282"/>
              <rect id="Rectángulo_34509" data-name="Rectángulo 34509" width="2.141" height="0.334" fill="#828282"/>
              <rect id="Rectángulo_34510" data-name="Rectángulo 34510" width="1.805" height="0.334" transform="translate(0 2.276)" fill="#828282"/>
              <rect id="Rectángulo_34511" data-name="Rectángulo 34511" width="1.805" height="0.334" transform="translate(0 1.505)" fill="#828282"/>
              <rect id="Rectángulo_34512" data-name="Rectángulo 34512" width="1.805" height="0.335" transform="translate(0 0.734)" fill="#828282"/>
              <g id="Grupo_126230" data-name="Grupo 126230" transform="translate(4.007 88.441)">
                <path id="Trazado_145558" data-name="Trazado 145558" d="M405.7,294.749h-1.223v.2h-.167a.352.352,0,0,0-.065-.164.317.317,0,0,0-.134-.112v-.167H405.7Z" transform="translate(-404.114 -294.51)" fill="#828282"/>
              </g>
              <g id="Grupo_126231" data-name="Grupo 126231" transform="translate(4.006 82.029)">
                <path id="Trazado_145559" data-name="Trazado 145559" d="M404.561,279.129a.461.461,0,0,1-.344-.121.374.374,0,0,1-.106-.276.356.356,0,0,1,.118-.268.389.389,0,0,1,.275-.111.72.72,0,0,1,.313.072,2.327,2.327,0,0,1,.287.184q.056.039.174.117l.065.043c.042.028.075.049.1.063a.09.09,0,0,0,.023.01v-.47h.235v.761h-.219a.524.524,0,0,1-.088-.052l-.081-.054-.09-.063c-.05-.037-.129-.093-.239-.171a1.56,1.56,0,0,0-.28-.165.481.481,0,0,0-.192-.044.19.19,0,0,0-.123.04.143.143,0,0,0-.053.114.147.147,0,0,0,.115.142.257.257,0,0,0,.091.014h.061v.235Z" transform="translate(-404.111 -278.352)" fill="#828282"/>
              </g>
              <g id="Grupo_126232" data-name="Grupo 126232" transform="translate(3.987 76.101)">
                <path id="Trazado_145560" data-name="Trazado 145560" d="M405.445,263.817c0-.11-.051-.165-.153-.165H405.2q-.244,0-.244.256h-.205a.253.253,0,0,0-.077-.2.287.287,0,0,0-.195-.061h-.037c-.1,0-.156.046-.156.137a.12.12,0,0,0,.058.111.218.218,0,0,0,.114.027h.042v.234h-.037a.425.425,0,0,1-.276-.086.333.333,0,0,1-.121-.275.342.342,0,0,1,.114-.27.37.37,0,0,1,.256-.091h.067a.391.391,0,0,1,.256.089.377.377,0,0,1,.077.089.4.4,0,0,1,.181-.165.339.339,0,0,1,.151-.031h.125a.378.378,0,0,1,.289.121.389.389,0,0,1,.109.277.364.364,0,0,1-.112.269.368.368,0,0,1-.267.11h-.039l-.017-.228.056-.005a.149.149,0,0,0,.1-.042A.128.128,0,0,0,405.445,263.817Z" transform="translate(-404.064 -263.413)" fill="#828282"/>
              </g>
              <g id="Grupo_126233" data-name="Grupo 126233" transform="translate(4.006 69.78)">
                <path id="Trazado_145561" data-name="Trazado 145561" d="M405.118,248.3l-1.007-.423v-.239h1.007v-.154h.24v.154h.342v.239h-.342v.423Zm0-.423h-.5l.5.2Z" transform="translate(-404.111 -247.484)" fill="#828282"/>
              </g>
              <g id="Grupo_126234" data-name="Grupo 126234" transform="translate(4.006 63.945)">
                <path id="Trazado_145562" data-name="Trazado 145562" d="M404.352,233.258h.34a.231.231,0,0,1-.079-.1.214.214,0,0,1-.014-.08.26.26,0,0,1,.11-.232.472.472,0,0,1,.269-.065h.342a.4.4,0,0,1,.289.112.362.362,0,0,1,.109.269.338.338,0,0,1-.114.261.379.379,0,0,1-.266.1H405.3l-.017-.229.054-.005a.141.141,0,0,0,.127-.077.1.1,0,0,0,.01-.043q0-.147-.154-.147h-.389a.147.147,0,0,0-.115.051.1.1,0,0,0-.022.067.1.1,0,0,0,.05.094.174.174,0,0,0,.091.025h.043v.24h-.868v-.7h.241Z" transform="translate(-404.111 -232.78)" fill="#828282"/>
              </g>
              <g id="Grupo_126235" data-name="Grupo 126235" transform="translate(3.987 57.748)">
                <path id="Trazado_145563" data-name="Trazado 145563" d="M404.478,217.413h-.039a.154.154,0,0,0-.1.031.117.117,0,0,0,0,.176.154.154,0,0,0,.1.031h.317a.265.265,0,0,1-.074-.181.271.271,0,0,1,.11-.237.446.446,0,0,1,.267-.07h.273a.376.376,0,0,1,.255.11.357.357,0,0,1-.01.511.379.379,0,0,1-.266.1h-.867a.4.4,0,0,1-.211-.056.341.341,0,0,1-.139-.16.356.356,0,0,1,.083-.406.38.38,0,0,1,.266-.1h.034Zm.829.238a.156.156,0,0,0,.1-.029.117.117,0,0,0,0-.179.152.152,0,0,0-.1-.031h-.294a.147.147,0,0,0-.114.051.1.1,0,0,0-.022.067.1.1,0,0,0,.05.094.166.166,0,0,0,.09.025Z" transform="translate(-404.064 -217.163)" fill="#828282"/>
              </g>
              <g id="Grupo_126236" data-name="Grupo 126236" transform="translate(4.006 51.655)">
                <path id="Trazado_145564" data-name="Trazado 145564" d="M404.111,201.807h.241l1.348.336v.235l-1.348-.336v.485h-.241Z" transform="translate(-404.111 -201.807)" fill="#828282"/>
              </g>
              <g id="Grupo_126237" data-name="Grupo 126237" transform="translate(3.987 45.462)">
                <path id="Trazado_145565" data-name="Trazado 145565" d="M405.311,186.2a.365.365,0,0,1,.269.112.369.369,0,0,1,.11.269v.019a.364.364,0,0,1-.112.269.368.368,0,0,1-.267.11h-.144a.378.378,0,0,1-.332-.2.334.334,0,0,1-.165.15.372.372,0,0,1-.15.027h-.086a.369.369,0,0,1-.256-.091.341.341,0,0,1-.114-.269v-.019a.342.342,0,0,1,.114-.27.37.37,0,0,1,.256-.091h.086a.352.352,0,0,1,.246.088.318.318,0,0,1,.068.088.4.4,0,0,1,.181-.165.339.339,0,0,1,.151-.031Zm-.812.232q-.163,0-.2.1a.132.132,0,0,0-.01.054.142.142,0,0,0,.106.146.331.331,0,0,0,.109.011.306.306,0,0,0,.149-.033.155.155,0,0,0,0-.25A.27.27,0,0,0,404.5,186.434Zm.7.008a.229.229,0,0,0-.19.065.141.141,0,0,0-.023.085.127.127,0,0,0,.081.129.353.353,0,0,0,.132.02h.076a.172.172,0,0,0,.127-.048.147.147,0,0,0,.043-.1.145.145,0,0,0-.1-.135.174.174,0,0,0-.074-.014Z" transform="translate(-404.064 -186.202)" fill="#828282"/>
              </g>
              <g id="Grupo_126238" data-name="Grupo 126238" transform="translate(3.987 39.442)">
                <path id="Trazado_145566" data-name="Trazado 145566" d="M404.064,171.392a.338.338,0,0,1,.114-.261.379.379,0,0,1,.266-.1h.867a.38.38,0,0,1,.269.1.357.357,0,0,1,0,.519.379.379,0,0,1-.266.1h-.034V171.5h.039a.154.154,0,0,0,.1-.031.118.118,0,0,0,0-.176.154.154,0,0,0-.1-.031H405a.266.266,0,0,1,.075.181.27.27,0,0,1-.11.235.449.449,0,0,1-.269.07h-.272a.384.384,0,0,1-.2-.063.347.347,0,0,1-.131-.156A.351.351,0,0,1,404.064,171.392Zm.383-.125a.157.157,0,0,0-.1.031.118.118,0,0,0,0,.176.157.157,0,0,0,.1.031h.294a.148.148,0,0,0,.115-.051.094.094,0,0,0,.021-.067.109.109,0,0,0-.1-.114.25.25,0,0,0-.044-.006Z" transform="translate(-404.064 -171.031)" fill="#828282"/>
              </g>
              <g id="Grupo_126239" data-name="Grupo 126239" transform="translate(3.987 33.036)">
                <path id="Trazado_145567" data-name="Trazado 145567" d="M405.7,157.569h-1.223v.2h-.167a.352.352,0,0,0-.065-.164.316.316,0,0,0-.134-.112v-.167H405.7Z" transform="translate(-404.094 -156.36)" fill="#828282"/>
                <path id="Trazado_145568" data-name="Trazado 145568" d="M405.311,154.887a.363.363,0,0,1,.269.112.38.38,0,0,1-.269.648h-.867a.38.38,0,1,1,0-.759Zm-.872.248a.139.139,0,0,0-.138.139.131.131,0,0,0,.04.1.134.134,0,0,0,.1.04h.868a.134.134,0,0,0,.1-.04.13.13,0,0,0,.04-.1.132.132,0,0,0-.04-.1.133.133,0,0,0-.1-.041Z" transform="translate(-404.064 -154.887)" fill="#828282"/>
              </g>
              <g id="Grupo_126240" data-name="Grupo 126240" transform="translate(4.007 27.195)">
                <path id="Trazado_145569" data-name="Trazado 145569" d="M405.7,142.02h-1.223v.2h-.167a.349.349,0,0,0-.065-.164.314.314,0,0,0-.134-.112v-.167H405.7Z" transform="translate(-404.114 -141.14)" fill="#828282"/>
                <path id="Trazado_145570" data-name="Trazado 145570" d="M405.7,140.408h-1.223v.2h-.167a.352.352,0,0,0-.065-.164.313.313,0,0,0-.134-.112v-.167H405.7Z" transform="translate(-404.114 -140.168)" fill="#828282"/>
              </g>
              <g id="Grupo_126241" data-name="Grupo 126241" transform="translate(4.006 20.595)">
                <path id="Trazado_145571" data-name="Trazado 145571" d="M405.7,126.238h-1.223v.2h-.167a.352.352,0,0,0-.065-.164.313.313,0,0,0-.134-.112V126H405.7Z" transform="translate(-404.113 -125.021)" fill="#828282"/>
                <path id="Trazado_145572" data-name="Trazado 145572" d="M404.561,124.313a.459.459,0,0,1-.344-.122.372.372,0,0,1-.106-.276.356.356,0,0,1,.118-.268.391.391,0,0,1,.275-.111.72.72,0,0,1,.313.072,2.379,2.379,0,0,1,.287.184c.037.027.1.065.174.117l.065.043q.063.042.1.063a.09.09,0,0,0,.023.01v-.47h.235v.762h-.219a.527.527,0,0,1-.088-.052l-.081-.055-.09-.062-.239-.171a1.557,1.557,0,0,0-.28-.165.481.481,0,0,0-.192-.044.19.19,0,0,0-.123.04.142.142,0,0,0-.053.114.148.148,0,0,0,.115.142.267.267,0,0,0,.091.014h.061v.236Z" transform="translate(-404.111 -123.536)" fill="#828282"/>
              </g>
              <g id="Grupo_126242" data-name="Grupo 126242" transform="translate(3.987 14.676)">
                <path id="Trazado_145573" data-name="Trazado 145573" d="M405.7,111.3h-1.223v.2h-.167a.352.352,0,0,0-.065-.164.317.317,0,0,0-.134-.112v-.167H405.7Z" transform="translate(-404.094 -110.089)" fill="#828282"/>
                <path id="Trazado_145574" data-name="Trazado 145574" d="M405.445,109.023c0-.11-.051-.165-.153-.165H405.2q-.244,0-.244.256h-.205a.253.253,0,0,0-.077-.2.287.287,0,0,0-.195-.061h-.037c-.1,0-.156.046-.156.137a.12.12,0,0,0,.058.111.218.218,0,0,0,.114.027h.042v.235h-.037a.425.425,0,0,1-.276-.086.333.333,0,0,1-.121-.275.342.342,0,0,1,.114-.27.37.37,0,0,1,.256-.091h.067a.391.391,0,0,1,.256.088.377.377,0,0,1,.077.089.4.4,0,0,1,.181-.165.339.339,0,0,1,.151-.031h.125a.378.378,0,0,1,.289.121.389.389,0,0,1,.109.277.364.364,0,0,1-.112.269.368.368,0,0,1-.267.11h-.039l-.017-.228.056-.005a.15.15,0,0,0,.1-.042A.128.128,0,0,0,405.445,109.023Z" transform="translate(-404.064 -108.619)" fill="#828282"/>
              </g>
              <g id="Grupo_126243" data-name="Grupo 126243" transform="translate(4.006 8.54)">
                <path id="Trazado_145575" data-name="Trazado 145575" d="M405.7,95.933h-1.223v.2h-.167a.35.35,0,0,0-.065-.164.317.317,0,0,0-.134-.112v-.167H405.7Z" transform="translate(-404.113 -94.686)" fill="#828282"/>
                <path id="Trazado_145576" data-name="Trazado 145576" d="M405.118,93.971l-1.007-.423v-.239h1.007v-.154h.24v.154h.342v.239h-.342v.423Zm0-.423h-.5l.5.2Z" transform="translate(-404.111 -93.155)" fill="#828282"/>
              </g>
              <g id="Grupo_126244" data-name="Grupo 126244" transform="translate(4.006 2.507)">
                <path id="Trazado_145577" data-name="Trazado 145577" d="M405.7,80.572h-1.223v.2h-.167a.352.352,0,0,0-.065-.164.313.313,0,0,0-.134-.112v-.167H405.7Z" transform="translate(-404.113 -79.388)" fill="#828282"/>
                <path id="Trazado_145578" data-name="Trazado 145578" d="M404.352,78.431h.34a.232.232,0,0,1-.079-.1.216.216,0,0,1-.014-.081.261.261,0,0,1,.11-.232.472.472,0,0,1,.269-.065h.342a.394.394,0,0,1,.289.112.36.36,0,0,1,.109.268.338.338,0,0,1-.114.261.377.377,0,0,1-.266.1H405.3l-.017-.229.054,0a.142.142,0,0,0,.127-.077.1.1,0,0,0,.01-.043q0-.147-.154-.147h-.389a.148.148,0,0,0-.115.051.1.1,0,0,0-.022.068.1.1,0,0,0,.05.094.174.174,0,0,0,.091.025h.043v.24h-.868v-.7h.241Z" transform="translate(-404.111 -77.953)" fill="#828282"/>
              </g>
            </g>
            <rect id="Rectángulo_34513" data-name="Rectángulo 34513" width="1.611" height="91.735" transform="translate(9.107)" fill="#d2d1d1" opacity="0.5" style="mix-blend-mode: soft-light;isolation: isolate"/>
          </g>
        </g>
      </g>
    </g>
    <rect id="Rectángulo_34640" data-name="Rectángulo 34640" width="190" height="8" transform="translate(600 6619.001)" fill="#023055"/>
  </g>
</svg>
