<svg xmlns="http://www.w3.org/2000/svg" width="190" height="155" viewBox="0 0 190 155">
  <g id="Grupo_130300" data-name="Grupo 130300" transform="translate(-495 -5913.001)">
    <g id="Grupo_123388" data-name="Grupo 123388" transform="translate(0 -3.999)">
      <rect id="Rect치ngulo_33957" data-name="Rect치ngulo 33957" width="190" height="155" transform="translate(495 5917)" fill="#f6f6f6"/>
      <rect id="Rect치ngulo_34159" data-name="Rect치ngulo 34159" width="190" height="89" transform="translate(495 5983)" fill="#9dc163"/>
      <g id="Grupo_123387" data-name="Grupo 123387">
        <g id="Grupo_123386" data-name="Grupo 123386" transform="translate(333.657 5595.666)">
          <g id="Grupo_123137" data-name="Grupo 123137" transform="translate(188.674 397.035)">
            <path id="Trazado_144509" data-name="Trazado 144509" d="M250.982,442.3A68.656,68.656,0,0,0,319.591,376H182.376A68.653,68.653,0,0,0,250.982,442.3Z" transform="translate(-182.376 -376)" fill="#9dc163"/>
          </g>
          <g id="Grupo_123139" data-name="Grupo 123139" transform="translate(192.142 435.022)">
            <path id="Trazado_144511" data-name="Trazado 144511" d="M193.421,402.906c27.877.068,123.5.216,139.533-.168l-16.388,4.018a1.611,1.611,0,0,1-1.385-.087c-.375-.3-.158-1.114.3-.982l-5.421.749c.548-.158-.151-.909-.72-.939a66.06,66.06,0,0,0-26.785,4.21q.656-1.317,1.316-2.635l-5.88.918-6.312.5q.71-.731,1.421-1.461l-5.7,1.355c.391.229.754-.493.45-.827a1.461,1.461,0,0,0-1.276-.26l-21.666,2.451a3.8,3.8,0,0,1,.32-1.965l-2.733-.016q.635-.492,1.267-.987l-14.886.97c.482-.655-.662-1.274-1.475-1.3l-17.671-.511c-8.344-.242-16.739-.487-24.919-2.152l12.624-.256Z" transform="translate(-184.817 -402.738)" fill="#a88585"/>
          </g>
          <g id="Grupo_123142" data-name="Grupo 123142" transform="translate(167.406 352.814)">
            <g id="Grupo_123140" data-name="Grupo 123140">
              <path id="Trazado_144512" data-name="Trazado 144512" d="M201.83,380.643c-.033-19.765-7.724-35.769-17.212-35.769s-17.179,16-17.212,35.769Z" transform="translate(-167.406 -344.874)" fill="#eeb926" fill-rule="evenodd"/>
            </g>
            <g id="Grupo_123141" data-name="Grupo 123141">
              <path id="Trazado_144513" data-name="Trazado 144513" d="M187.289,354.376c5.37,0,10.162,5.133,13.319,13.168-2.526-13.272-8.725-22.67-15.99-22.67-9.487,0-17.179,16-17.212,35.769h3.317C172.742,365.5,179.384,354.376,187.289,354.376Z" transform="translate(-167.406 -344.874)" fill="#ede329" fill-rule="evenodd"/>
            </g>
          </g>
          <g id="Grupo_123145" data-name="Grupo 123145" transform="translate(179.597 360.141)">
            <g id="Grupo_123143" data-name="Grupo 123143">
              <path id="Trazado_144514" data-name="Trazado 144514" d="M228.975,405.091c-.05-30.424-11.89-55.06-26.493-55.06s-26.445,24.635-26.495,55.06Z" transform="translate(-175.987 -350.031)" fill="#eeb926" fill-rule="evenodd"/>
            </g>
            <g id="Grupo_123144" data-name="Grupo 123144">
              <path id="Trazado_144515" data-name="Trazado 144515" d="M206.593,364.657c8.266,0,15.642,7.9,20.5,20.271-3.888-20.43-13.43-34.9-24.612-34.9-14.6,0-26.445,24.635-26.495,55.06h5.106C184.2,381.784,194.425,364.657,206.593,364.657Z" transform="translate(-175.987 -350.031)" fill="#ede329" fill-rule="evenodd"/>
            </g>
          </g>
          <g id="Grupo_123375" data-name="Grupo 123375" transform="translate(212.523 333.096)">
            <g id="Grupo_123151" data-name="Grupo 123151" transform="translate(43.067 17.326)">
              <g id="Grupo_123146" data-name="Grupo 123146" transform="translate(0.038)">
                <path id="Trazado_144516" data-name="Trazado 144516" d="M257.536,343.19l-27.93,22.437q-.066,1.626-.1,3.232l31.952-25.669Z" transform="translate(-229.504 -343.19)" fill="#2b646f"/>
              </g>
              <g id="Grupo_123147" data-name="Grupo 123147" transform="translate(0.705)">
                <path id="Trazado_144517" data-name="Trazado 144517" d="M231.473,343.19q-.946,6.811-1.5,13.379l16.654-13.379Z" transform="translate(-229.973 -343.19)" fill="#2b646f"/>
              </g>
              <g id="Grupo_123148" data-name="Grupo 123148" transform="translate(4.748 2.442)">
                <path id="Trazado_144518" data-name="Trazado 144518" d="M263.931,344.909,232.819,369.9h32.995A216.936,216.936,0,0,0,263.931,344.909Z" transform="translate(-232.819 -344.909)" fill="#2b646f"/>
              </g>
              <g id="Grupo_123149" data-name="Grupo 123149" transform="translate(0.141)">
                <path id="Trazado_144519" data-name="Trazado 144519" d="M246.794,343.19,230.14,356.569q-.386,4.592-.564,9.058l27.93-22.437Z" transform="translate(-229.576 -343.19)" fill="#4eaaa7"/>
              </g>
              <g id="Grupo_123150" data-name="Grupo 123150">
                <path id="Trazado_144520" data-name="Trazado 144520" d="M265.015,343.19h-3.547l-31.952,25.669c-.013.59-.031,1.182-.038,1.767h4.748l31.112-24.995C265.232,344.82,265.128,344.008,265.015,343.19Z" transform="translate(-229.477 -343.19)" fill="#4eaaa7"/>
              </g>
            </g>
            <g id="Grupo_123152" data-name="Grupo 123152" transform="translate(41.594 15.854)">
              <path id="Trazado_144521" data-name="Trazado 144521" d="M267.656,372.534H229.913a1.475,1.475,0,0,1-1.473-1.492,224.475,224.475,0,0,1,2.219-27.619,1.473,1.473,0,0,1,1.458-1.27h33.334a1.474,1.474,0,0,1,1.459,1.27,223.81,223.81,0,0,1,2.218,27.619,1.475,1.475,0,0,1-1.472,1.492Zm-36.246-2.944h34.749a222.1,222.1,0,0,0-1.992-24.492H233.4A222.155,222.155,0,0,0,231.409,369.591Z" transform="translate(-228.44 -342.154)" fill="#404041"/>
            </g>
            <g id="Grupo_123374" data-name="Grupo 123374">
              <g id="Grupo_123153" data-name="Grupo 123153" transform="translate(64.48 49.171)">
                <path id="Trazado_144522" data-name="Trazado 144522" d="M276.495,365.6h-30.17a1.781,1.781,0,0,0-1.776,1.777v30.64a1.782,1.782,0,0,0,1.776,1.776h24.138c.976,0,4.022-.806,4.138-1.776l3.67-30.64a1.715,1.715,0,0,0-1.776-1.777Z" transform="translate(-244.549 -365.605)" fill="#404041" fill-rule="evenodd"/>
              </g>
              <g id="Grupo_123154" data-name="Grupo 123154" transform="translate(96.388 40.947)">
                <path id="Trazado_144523" data-name="Trazado 144523" d="M287.685,361.856a1.044,1.044,0,1,0-.628-1.99,64,64,0,0,0-10.579,4.367,47.129,47.129,0,0,0-9.114,6.226,1.04,1.04,0,1,0,1.37,1.566,45.015,45.015,0,0,1,8.716-5.947,61.949,61.949,0,0,1,10.235-4.221Z" transform="translate(-267.008 -359.817)" fill="#6d6e70"/>
              </g>
              <g id="Grupo_123155" data-name="Grupo 123155" transform="translate(75.522 40.279)">
                <path id="Trazado_144524" data-name="Trazado 144524" d="M272.046,359.8l-12.282-.452a2.179,2.179,0,0,0-2.1,2.283v1.747c0,.372-4.722-.386-5.137.452-.985,1.988,1.885,6.085,2.7,6.085l20.295-.007c1.715,0-.457-6.372-1.367-7.825-.668-1.064-.948-2.24-2.1-2.283Z" transform="translate(-252.321 -359.346)" fill="#00a551" fill-rule="evenodd"/>
              </g>
              <g id="Grupo_123156" data-name="Grupo 123156" transform="translate(85.399 24.995)">
                <path id="Trazado_144525" data-name="Trazado 144525" d="M259.4,371.866q-.021-2.212-.051-4.42c-.035-2.9-.072-5.792-.075-8.689a8.754,8.754,0,0,1,.7-3.4l1.845-4.413c.931-2.221,1.905-2.436,2.8-2.331.058.006.111.013.158.013h2.364v1.03h-2.364a2.447,2.447,0,0,1-.271-.02c-.415-.051-.982-.108-1.739,1.7l-1.846,4.413a7.75,7.75,0,0,0-.618,3.008c0,2.891.038,5.784.077,8.676q.026,2.212.05,4.421Z" transform="translate(-259.273 -348.588)" fill="#6d6e70"/>
              </g>
              <g id="Grupo_123157" data-name="Grupo 123157" transform="translate(83.6 36.458)">
                <path id="Trazado_144526" data-name="Trazado 144526" d="M258.038,369.389l-.031-9.621a2.835,2.835,0,0,1,.851-2.047,3.824,3.824,0,0,1,2.665-1.064h2.364v2.061h-2.364a1.765,1.765,0,0,0-1.2.457.79.79,0,0,0-.25.585l.031,9.622Z" transform="translate(-258.007 -356.657)" fill="#808184"/>
              </g>
              <g id="Grupo_123158" data-name="Grupo 123158" transform="translate(25.564 49.171)">
                <path id="Trazado_144527" data-name="Trazado 144527" d="M218.943,365.6h30.17a1.781,1.781,0,0,1,1.776,1.777v30.64a1.781,1.781,0,0,1-1.776,1.776H224.975c-.976,0-4.022-.806-4.139-1.776l-3.67-30.64a1.716,1.716,0,0,1,1.776-1.777Z" transform="translate(-217.157 -365.605)" fill="#404041" fill-rule="evenodd"/>
              </g>
              <g id="Grupo_123159" data-name="Grupo 123159" transform="translate(5.849 40.947)">
                <path id="Trazado_144528" data-name="Trazado 144528" d="M204.009,361.856a1.044,1.044,0,0,1,.628-1.99,64,64,0,0,1,10.579,4.367,47.1,47.1,0,0,1,9.115,6.226,1.04,1.04,0,1,1-1.371,1.566,45.049,45.049,0,0,0-8.715-5.947,62.016,62.016,0,0,0-10.236-4.221Z" transform="translate(-203.28 -359.817)" fill="#6d6e70"/>
              </g>
              <g id="Grupo_123160" data-name="Grupo 123160" transform="translate(5.849 40.947)">
                <path id="Trazado_144529" data-name="Trazado 144529" d="M204.009,361.856a1.044,1.044,0,0,1,.628-1.99q2.105.669,4.124,1.445l-.743,1.949q-1.958-.754-4.009-1.4Z" transform="translate(-203.28 -359.817)" fill="#f48120"/>
              </g>
              <g id="Grupo_123161" data-name="Grupo 123161" transform="translate(112.313 40.947)">
                <path id="Trazado_144530" data-name="Trazado 144530" d="M282.969,361.856a1.044,1.044,0,1,0-.628-1.99q-2.105.669-4.124,1.445l.744,1.949q1.958-.754,4.008-1.4Z" transform="translate(-278.217 -359.817)" fill="#f48120"/>
              </g>
              <g id="Grupo_123162" data-name="Grupo 123162" transform="translate(24.418 40.279)">
                <path id="Trazado_144531" data-name="Trazado 144531" d="M220.461,359.8l12.282-.452a2.178,2.178,0,0,1,2.1,2.283v1.747c0,.372,4.722-.386,5.137.452.985,1.988-1.885,6.085-2.7,6.085l-20.295-.007c-1.715,0,.457-6.372,1.368-7.825.666-1.064.946-2.24,2.1-2.283Z" transform="translate(-216.35 -359.346)" fill="#00a551" fill-rule="evenodd"/>
              </g>
              <g id="Grupo_123163" data-name="Grupo 123163" transform="translate(37.609 17.531)">
                <path id="Trazado_144532" data-name="Trazado 144532" d="M225.635,343.335h7.653v4.15h-7.653v-4.15Z" transform="translate(-225.635 -343.335)" fill="#404041" fill-rule="evenodd"/>
              </g>
              <g id="Grupo_123164" data-name="Grupo 123164" transform="translate(78.84 17.531)">
                <path id="Trazado_144533" data-name="Trazado 144533" d="M262.309,343.335h-7.653v4.15h7.653v-4.15Z" transform="translate(-254.656 -343.335)" fill="#404041" fill-rule="evenodd"/>
              </g>
              <g id="Grupo_123165" data-name="Grupo 123165" transform="translate(38.162 44.763)">
                <path id="Trazado_144534" data-name="Trazado 144534" d="M226.024,362.5h14.42v5.183h-14.42V362.5Z" transform="translate(-226.024 -362.502)" fill="#404041" fill-rule="evenodd"/>
              </g>
              <g id="Grupo_123166" data-name="Grupo 123166" transform="translate(10.324 74.913)">
                <path id="Trazado_144535" data-name="Trazado 144535" d="M206.43,383.725h18.92v7.453H206.43v-7.453Z" transform="translate(-206.43 -383.725)" fill="#eeb926" fill-rule="evenodd"/>
              </g>
              <g id="Grupo_123167" data-name="Grupo 123167" transform="translate(93.423 74.913)">
                <path id="Trazado_144536" data-name="Trazado 144536" d="M264.921,383.725h18.92v7.453h-18.92v-7.453Z" transform="translate(-264.921 -383.725)" fill="#eeb926" fill-rule="evenodd"/>
              </g>
              <g id="Grupo_123168" data-name="Grupo 123168" transform="translate(30.632 17.532)">
                <path id="Trazado_144537" data-name="Trazado 144537" d="M221.342,343.335h8.482a.618.618,0,0,1,.617.617v1.08a.618.618,0,0,1-.617.617h-8.482a.619.619,0,0,1-.618-.617v-1.08a.619.619,0,0,1,.618-.617Z" transform="translate(-220.724 -343.335)" fill="#404041" fill-rule="evenodd"/>
              </g>
              <g id="Grupo_123169" data-name="Grupo 123169" transform="translate(83.753 17.532)">
                <path id="Trazado_144538" data-name="Trazado 144538" d="M267.213,343.335h-8.482a.618.618,0,0,0-.617.617v1.08a.618.618,0,0,0,.617.617h8.482a.619.619,0,0,0,.618-.617v-1.08a.619.619,0,0,0-.618-.617Z" transform="translate(-258.115 -343.335)" fill="#404041" fill-rule="evenodd"/>
              </g>
              <g id="Grupo_123170" data-name="Grupo 123170" transform="translate(40.138 12.477)">
                <path id="Trazado_144539" data-name="Trazado 144539" d="M228.694,342.333h41.023a1.281,1.281,0,0,0,1.277-1.279h0a1.281,1.281,0,0,0-1.277-1.277H228.694a1.282,1.282,0,0,0-1.279,1.277h0a1.282,1.282,0,0,0,1.279,1.279Z" transform="translate(-227.415 -339.777)" fill="#00a551" fill-rule="evenodd"/>
              </g>
              <g id="Grupo_123171" data-name="Grupo 123171" transform="translate(0 54.608)">
                <path id="Trazado_144540" data-name="Trazado 144540" d="M203.327,369.432h11.846a4.205,4.205,0,0,1,4.164,4.221v39.623a4.205,4.205,0,0,1-4.164,4.221H203.327a4.205,4.205,0,0,1-4.164-4.221V373.653a4.205,4.205,0,0,1,4.164-4.221Z" transform="translate(-199.163 -369.432)" fill="#58595b" fill-rule="evenodd"/>
              </g>
              <g id="Grupo_123172" data-name="Grupo 123172" transform="translate(81.077 54.608)">
                <path id="Trazado_144541" data-name="Trazado 144541" d="M260.4,369.432h11.846a4.205,4.205,0,0,1,4.164,4.221v39.623a4.205,4.205,0,0,1-4.164,4.221H260.4a4.205,4.205,0,0,1-4.164-4.221V373.653a4.205,4.205,0,0,1,4.164-4.221Z" transform="translate(-256.231 -369.432)" fill="#58595b" fill-rule="evenodd"/>
              </g>
              <g id="Grupo_123173" data-name="Grupo 123173" transform="translate(23.028 54.608)">
                <path id="Trazado_144542" data-name="Trazado 144542" d="M219.536,369.432h11.844a4.205,4.205,0,0,1,4.164,4.221v39.623a4.205,4.205,0,0,1-4.164,4.221H219.536a4.205,4.205,0,0,1-4.164-4.221V373.653a4.205,4.205,0,0,1,4.164-4.221Z" transform="translate(-215.372 -369.432)" fill="#58595b" fill-rule="evenodd"/>
              </g>
              <g id="Grupo_123174" data-name="Grupo 123174" transform="translate(104.105 54.608)">
                <path id="Trazado_144543" data-name="Trazado 144543" d="M276.6,369.432h11.844a4.205,4.205,0,0,1,4.164,4.221v39.623a4.205,4.205,0,0,1-4.164,4.221H276.6a4.205,4.205,0,0,1-4.164-4.221V373.653a4.205,4.205,0,0,1,4.164-4.221Z" transform="translate(-272.44 -369.432)" fill="#58595b" fill-rule="evenodd"/>
              </g>
              <g id="Grupo_123175" data-name="Grupo 123175" transform="translate(1.31 54.608)">
                <path id="Trazado_144544" data-name="Trazado 144544" d="M204,369.432l4.066,1.2a1.1,1.1,0,0,1,.749,1.368h0a1.122,1.122,0,0,1-1.391.736l-7.339-2.171a4.146,4.146,0,0,1,2.854-1.137Z" transform="translate(-200.085 -369.432)" fill="#a6a8ab" fill-rule="evenodd"/>
              </g>
              <g id="Grupo_123176" data-name="Grupo 123176" transform="translate(0 58.955)">
                <path id="Trazado_144545" data-name="Trazado 144545" d="M199.163,372.492l9.291,2.749a1.1,1.1,0,0,1,.749,1.37h0a1.123,1.123,0,0,1-1.391.736l-8.649-2.56v-2.294Z" transform="translate(-199.163 -372.492)" fill="#a6a8ab" fill-rule="evenodd"/>
              </g>
              <g id="Grupo_123177" data-name="Grupo 123177" transform="translate(0 64.848)">
                <path id="Trazado_144546" data-name="Trazado 144546" d="M199.163,376.64l9.291,2.75a1.1,1.1,0,0,1,.749,1.368h0a1.122,1.122,0,0,1-1.391.736l-8.649-2.559v-2.3Z" transform="translate(-199.163 -376.64)" fill="#a6a8ab" fill-rule="evenodd"/>
              </g>
              <g id="Grupo_123178" data-name="Grupo 123178" transform="translate(0 70.743)">
                <path id="Trazado_144547" data-name="Trazado 144547" d="M199.163,380.789l9.291,2.749a1.1,1.1,0,0,1,.749,1.37h0a1.123,1.123,0,0,1-1.391.736l-8.649-2.559v-2.3Z" transform="translate(-199.163 -380.789)" fill="#a6a8ab" fill-rule="evenodd"/>
              </g>
              <g id="Grupo_123179" data-name="Grupo 123179" transform="translate(0 76.636)">
                <path id="Trazado_144548" data-name="Trazado 144548" d="M199.163,384.937l9.291,2.75a1.1,1.1,0,0,1,.749,1.368h0a1.122,1.122,0,0,1-1.391.736l-8.649-2.559v-2.3Z" transform="translate(-199.163 -384.937)" fill="#a6a8ab" fill-rule="evenodd"/>
              </g>
              <g id="Grupo_123180" data-name="Grupo 123180" transform="translate(0 82.53)">
                <path id="Trazado_144549" data-name="Trazado 144549" d="M199.163,389.086l9.291,2.749a1.1,1.1,0,0,1,.749,1.37h0a1.123,1.123,0,0,1-1.391.736l-8.649-2.559v-2.3Z" transform="translate(-199.163 -389.086)" fill="#a6a8ab" fill-rule="evenodd"/>
              </g>
              <g id="Grupo_123181" data-name="Grupo 123181" transform="translate(0 88.423)">
                <path id="Trazado_144550" data-name="Trazado 144550" d="M199.163,393.234l9.291,2.75a1.1,1.1,0,0,1,.749,1.368h0a1.122,1.122,0,0,1-1.391.736l-8.649-2.559v-2.3Z" transform="translate(-199.163 -393.234)" fill="#a6a8ab" fill-rule="evenodd"/>
              </g>
              <g id="Grupo_123182" data-name="Grupo 123182" transform="translate(0 94.318)">
                <path id="Trazado_144551" data-name="Trazado 144551" d="M199.163,397.383l9.291,2.749a1.1,1.1,0,0,1,.749,1.37h0a1.123,1.123,0,0,1-1.391.736l-8.649-2.559v-2.3Z" transform="translate(-199.163 -397.383)" fill="#a6a8ab" fill-rule="evenodd"/>
              </g>
              <g id="Grupo_123183" data-name="Grupo 123183" transform="translate(1.051 100.522)">
                <path id="Trazado_144552" data-name="Trazado 144552" d="M199.9,401.75l4.741,1.4h-1.628a4.161,4.161,0,0,1-3.113-1.4Z" transform="translate(-199.903 -401.75)" fill="#a6a8ab" fill-rule="evenodd"/>
              </g>
              <g id="Grupo_123184" data-name="Grupo 123184" transform="translate(10.192 54.608)">
                <path id="Trazado_144553" data-name="Trazado 144553" d="M206.337,369.432a1.125,1.125,0,0,0,1.333.585l1.982-.585Z" transform="translate(-206.337 -369.432)" fill="#a6a8ab" fill-rule="evenodd"/>
              </g>
              <g id="Grupo_123185" data-name="Grupo 123185" transform="translate(10.086 56.443)">
                <path id="Trazado_144554" data-name="Trazado 144554" d="M215.637,370.724l-8.58,2.539a1.1,1.1,0,0,0-.747,1.37h0a1.124,1.124,0,0,0,1.391.736l8.642-2.557a4.133,4.133,0,0,0-.706-2.087Z" transform="translate(-206.263 -370.724)" fill="#a6a8ab" fill-rule="evenodd"/>
              </g>
              <g id="Grupo_123186" data-name="Grupo 123186" transform="translate(10.086 62.126)">
                <path id="Trazado_144555" data-name="Trazado 144555" d="M216.35,374.724l-9.293,2.75a1.1,1.1,0,0,0-.747,1.368h0a1.121,1.121,0,0,0,1.391.736l8.649-2.559v-2.3Z" transform="translate(-206.263 -374.724)" fill="#a6a8ab" fill-rule="evenodd"/>
              </g>
              <g id="Grupo_123187" data-name="Grupo 123187" transform="translate(10.086 68.021)">
                <path id="Trazado_144556" data-name="Trazado 144556" d="M216.35,378.873l-9.293,2.749a1.1,1.1,0,0,0-.747,1.37h0a1.123,1.123,0,0,0,1.391.736l8.649-2.559v-2.3Z" transform="translate(-206.263 -378.873)" fill="#a6a8ab" fill-rule="evenodd"/>
              </g>
              <g id="Grupo_123188" data-name="Grupo 123188" transform="translate(10.086 73.914)">
                <path id="Trazado_144557" data-name="Trazado 144557" d="M216.35,383.021l-9.293,2.75a1.1,1.1,0,0,0-.747,1.368h0a1.123,1.123,0,0,0,1.391.737l8.649-2.56v-2.3Z" transform="translate(-206.263 -383.021)" fill="#a6a8ab" fill-rule="evenodd"/>
              </g>
              <g id="Grupo_123189" data-name="Grupo 123189" transform="translate(10.086 79.808)">
                <path id="Trazado_144558" data-name="Trazado 144558" d="M216.35,387.17l-9.293,2.749a1.1,1.1,0,0,0-.747,1.37h0a1.121,1.121,0,0,0,1.391.736l8.649-2.559v-2.3Z" transform="translate(-206.263 -387.17)" fill="#a6a8ab" fill-rule="evenodd"/>
              </g>
              <g id="Grupo_123190" data-name="Grupo 123190" transform="translate(10.086 85.701)">
                <path id="Trazado_144559" data-name="Trazado 144559" d="M216.35,391.318l-9.293,2.75a1.1,1.1,0,0,0-.747,1.368h0a1.123,1.123,0,0,0,1.391.737l8.649-2.56v-2.3Z" transform="translate(-206.263 -391.318)" fill="#a6a8ab" fill-rule="evenodd"/>
              </g>
              <g id="Grupo_123191" data-name="Grupo 123191" transform="translate(10.086 91.596)">
                <path id="Trazado_144560" data-name="Trazado 144560" d="M216.35,395.467l-9.293,2.749a1.1,1.1,0,0,0-.747,1.37h0a1.123,1.123,0,0,0,1.391.736l8.649-2.559v-2.3Z" transform="translate(-206.263 -395.467)" fill="#a6a8ab" fill-rule="evenodd"/>
              </g>
              <g id="Grupo_123192" data-name="Grupo 123192" transform="translate(10.086 97.489)">
                <path id="Trazado_144561" data-name="Trazado 144561" d="M216.35,399.615l-9.293,2.75a1.1,1.1,0,0,0-.747,1.368h0a1.093,1.093,0,0,0,.158.318h2.65l6.594-1.952a4.106,4.106,0,0,0,.639-2.2v-.281Z" transform="translate(-206.263 -399.615)" fill="#a6a8ab" fill-rule="evenodd"/>
              </g>
              <g id="Grupo_123193" data-name="Grupo 123193" transform="translate(82.387 54.608)">
                <path id="Trazado_144562" data-name="Trazado 144562" d="M261.068,369.432l4.068,1.2a1.1,1.1,0,0,1,.747,1.37h0a1.121,1.121,0,0,1-1.389.737l-7.341-2.174a4.151,4.151,0,0,1,2.854-1.137Z" transform="translate(-257.153 -369.432)" fill="#a6a8ab" fill-rule="evenodd"/>
              </g>
              <g id="Grupo_123194" data-name="Grupo 123194" transform="translate(81.077 58.958)">
                <path id="Trazado_144563" data-name="Trazado 144563" d="M256.231,372.494l9.293,2.75a1.1,1.1,0,0,1,.747,1.37h0a1.121,1.121,0,0,1-1.389.737l-8.651-2.56v-2.3Z" transform="translate(-256.231 -372.494)" fill="#a6a8ab" fill-rule="evenodd"/>
              </g>
              <g id="Grupo_123195" data-name="Grupo 123195" transform="translate(81.077 64.855)">
                <path id="Trazado_144564" data-name="Trazado 144564" d="M256.231,376.645l9.293,2.752a1.1,1.1,0,0,1,.747,1.37h0a1.122,1.122,0,0,1-1.389.736l-8.651-2.56v-2.3Z" transform="translate(-256.231 -376.645)" fill="#a6a8ab" fill-rule="evenodd"/>
              </g>
              <g id="Grupo_123196" data-name="Grupo 123196" transform="translate(81.077 70.753)">
                <path id="Trazado_144565" data-name="Trazado 144565" d="M256.231,380.8l9.293,2.752a1.1,1.1,0,0,1,.747,1.37h0a1.12,1.12,0,0,1-1.389.736l-8.651-2.56v-2.3Z" transform="translate(-256.231 -380.796)" fill="#a6a8ab" fill-rule="evenodd"/>
              </g>
              <g id="Grupo_123197" data-name="Grupo 123197" transform="translate(81.077 76.65)">
                <path id="Trazado_144566" data-name="Trazado 144566" d="M256.231,384.947l9.293,2.752a1.1,1.1,0,0,1,.747,1.37h0a1.12,1.12,0,0,1-1.389.736l-8.651-2.56v-2.3Z" transform="translate(-256.231 -384.947)" fill="#a6a8ab" fill-rule="evenodd"/>
              </g>
              <g id="Grupo_123198" data-name="Grupo 123198" transform="translate(81.077 82.547)">
                <path id="Trazado_144567" data-name="Trazado 144567" d="M256.231,389.1l9.293,2.752a1.1,1.1,0,0,1,.747,1.37h0a1.12,1.12,0,0,1-1.389.736l-8.651-2.56v-2.3Z" transform="translate(-256.231 -389.098)" fill="#a6a8ab" fill-rule="evenodd"/>
              </g>
              <g id="Grupo_123199" data-name="Grupo 123199" transform="translate(81.077 88.445)">
                <path id="Trazado_144568" data-name="Trazado 144568" d="M256.231,393.249,265.524,396a1.1,1.1,0,0,1,.747,1.37h0a1.119,1.119,0,0,1-1.389.736l-8.651-2.56v-2.3Z" transform="translate(-256.231 -393.249)" fill="#a6a8ab" fill-rule="evenodd"/>
              </g>
              <g id="Grupo_123200" data-name="Grupo 123200" transform="translate(81.077 94.342)">
                <path id="Trazado_144569" data-name="Trazado 144569" d="M256.231,397.4l9.293,2.752a1.1,1.1,0,0,1,.747,1.37h0a1.121,1.121,0,0,1-1.389.737l-8.651-2.562v-2.3Z" transform="translate(-256.231 -397.4)" fill="#a6a8ab" fill-rule="evenodd"/>
              </g>
              <g id="Grupo_123201" data-name="Grupo 123201" transform="translate(82.13 100.552)">
                <path id="Trazado_144570" data-name="Trazado 144570" d="M256.972,401.771l4.74,1.4h-1.628a4.158,4.158,0,0,1-3.111-1.4Z" transform="translate(-256.972 -401.771)" fill="#a6a8ab" fill-rule="evenodd"/>
              </g>
              <g id="Grupo_123202" data-name="Grupo 123202" transform="translate(91.269 54.608)">
                <path id="Trazado_144571" data-name="Trazado 144571" d="M263.4,369.432a1.128,1.128,0,0,0,1.333.587l1.983-.587Z" transform="translate(-263.405 -369.432)" fill="#a6a8ab" fill-rule="evenodd"/>
              </g>
              <g id="Grupo_123203" data-name="Grupo 123203" transform="translate(91.164 56.445)">
                <path id="Trazado_144572" data-name="Trazado 144572" d="M272.7,370.725l-8.58,2.54a1.1,1.1,0,0,0-.747,1.37h0a1.123,1.123,0,0,0,1.391.737l8.642-2.559a4.119,4.119,0,0,0-.706-2.088Z" transform="translate(-263.331 -370.725)" fill="#a6a8ab" fill-rule="evenodd"/>
              </g>
              <g id="Grupo_123204" data-name="Grupo 123204" transform="translate(91.164 62.132)">
                <path id="Trazado_144573" data-name="Trazado 144573" d="M273.418,374.728l-9.293,2.75a1.1,1.1,0,0,0-.747,1.371h0a1.123,1.123,0,0,0,1.391.736l8.649-2.562v-2.3Z" transform="translate(-263.331 -374.728)" fill="#a6a8ab" fill-rule="evenodd"/>
              </g>
              <g id="Grupo_123205" data-name="Grupo 123205" transform="translate(91.164 68.029)">
                <path id="Trazado_144574" data-name="Trazado 144574" d="M273.418,378.879l-9.293,2.75a1.1,1.1,0,0,0-.747,1.371h0a1.121,1.121,0,0,0,1.391.736l8.649-2.56v-2.3Z" transform="translate(-263.331 -378.879)" fill="#a6a8ab" fill-rule="evenodd"/>
              </g>
              <g id="Grupo_123206" data-name="Grupo 123206" transform="translate(91.164 73.926)">
                <path id="Trazado_144575" data-name="Trazado 144575" d="M273.418,383.03l-9.293,2.752a1.1,1.1,0,0,0-.747,1.37h0a1.121,1.121,0,0,0,1.391.736l8.649-2.56v-2.3Z" transform="translate(-263.331 -383.03)" fill="#a6a8ab" fill-rule="evenodd"/>
              </g>
              <g id="Grupo_123207" data-name="Grupo 123207" transform="translate(91.164 79.824)">
                <path id="Trazado_144576" data-name="Trazado 144576" d="M273.418,387.181l-9.293,2.752a1.1,1.1,0,0,0-.747,1.37h0a1.123,1.123,0,0,0,1.391.737l8.649-2.562v-2.3Z" transform="translate(-263.331 -387.181)" fill="#a6a8ab" fill-rule="evenodd"/>
              </g>
              <g id="Grupo_123208" data-name="Grupo 123208" transform="translate(91.164 85.721)">
                <path id="Trazado_144577" data-name="Trazado 144577" d="M273.418,391.332l-9.293,2.752a1.1,1.1,0,0,0-.747,1.37h0a1.123,1.123,0,0,0,1.391.737l8.649-2.562v-2.3Z" transform="translate(-263.331 -391.332)" fill="#a6a8ab" fill-rule="evenodd"/>
              </g>
              <g id="Grupo_123209" data-name="Grupo 123209" transform="translate(91.164 91.619)">
                <path id="Trazado_144578" data-name="Trazado 144578" d="M273.418,395.483l-9.293,2.752a1.1,1.1,0,0,0-.747,1.37h0a1.123,1.123,0,0,0,1.391.737l8.649-2.562v-2.3Z" transform="translate(-263.331 -395.483)" fill="#a6a8ab" fill-rule="evenodd"/>
              </g>
              <g id="Grupo_123210" data-name="Grupo 123210" transform="translate(91.164 97.517)">
                <path id="Trazado_144579" data-name="Trazado 144579" d="M273.418,399.635l-9.293,2.75a1.1,1.1,0,0,0-.747,1.37h0a1.076,1.076,0,0,0,.158.318h2.65l6.593-1.952a4.119,4.119,0,0,0,.639-2.206v-.28Z" transform="translate(-263.331 -399.635)" fill="#a6a8ab" fill-rule="evenodd"/>
              </g>
              <g id="Grupo_123211" data-name="Grupo 123211" transform="translate(24.337 54.608)">
                <path id="Trazado_144580" data-name="Trazado 144580" d="M220.208,369.432l4.068,1.21a1.108,1.108,0,0,1,.747,1.378h0a1.119,1.119,0,0,1-1.389.742l-7.341-2.186a4.139,4.139,0,0,1,2.856-1.144Z" transform="translate(-216.293 -369.432)" fill="#a6a8ab" fill-rule="evenodd"/>
              </g>
              <g id="Grupo_123212" data-name="Grupo 123212" transform="translate(23.028 58.983)">
                <path id="Trazado_144581" data-name="Trazado 144581" d="M215.372,372.512l9.291,2.769a1.106,1.106,0,0,1,.747,1.378h0a1.119,1.119,0,0,1-1.389.74l-8.649-2.576v-2.312Z" transform="translate(-215.372 -372.512)" fill="#a6a8ab" fill-rule="evenodd"/>
              </g>
              <g id="Grupo_123213" data-name="Grupo 123213" transform="translate(23.028 64.918)">
                <path id="Trazado_144582" data-name="Trazado 144582" d="M215.372,376.689l9.291,2.768a1.108,1.108,0,0,1,.747,1.378h0a1.118,1.118,0,0,1-1.389.742L215.372,379v-2.312Z" transform="translate(-215.372 -376.689)" fill="#a6a8ab" fill-rule="evenodd"/>
              </g>
              <g id="Grupo_123214" data-name="Grupo 123214" transform="translate(23.028 70.851)">
                <path id="Trazado_144583" data-name="Trazado 144583" d="M215.372,380.865l9.291,2.769a1.106,1.106,0,0,1,.747,1.378h0a1.119,1.119,0,0,1-1.389.74l-8.649-2.576v-2.312Z" transform="translate(-215.372 -380.865)" fill="#a6a8ab" fill-rule="evenodd"/>
              </g>
              <g id="Grupo_123215" data-name="Grupo 123215" transform="translate(23.028 76.785)">
                <path id="Trazado_144584" data-name="Trazado 144584" d="M215.372,385.042l9.291,2.768a1.108,1.108,0,0,1,.747,1.378h0a1.119,1.119,0,0,1-1.389.742l-8.649-2.576v-2.312Z" transform="translate(-215.372 -385.042)" fill="#a6a8ab" fill-rule="evenodd"/>
              </g>
              <g id="Grupo_123216" data-name="Grupo 123216" transform="translate(23.028 82.718)">
                <path id="Trazado_144585" data-name="Trazado 144585" d="M215.372,389.218l9.291,2.769a1.107,1.107,0,0,1,.747,1.378h0a1.119,1.119,0,0,1-1.389.74l-8.649-2.576v-2.312Z" transform="translate(-215.372 -389.218)" fill="#a6a8ab" fill-rule="evenodd"/>
              </g>
              <g id="Grupo_123217" data-name="Grupo 123217" transform="translate(23.028 88.652)">
                <path id="Trazado_144586" data-name="Trazado 144586" d="M215.372,393.4l9.291,2.769a1.106,1.106,0,0,1,.747,1.378h0a1.119,1.119,0,0,1-1.389.74l-8.649-2.576V393.4Z" transform="translate(-215.372 -393.395)" fill="#a6a8ab" fill-rule="evenodd"/>
              </g>
              <g id="Grupo_123218" data-name="Grupo 123218" transform="translate(23.028 94.585)">
                <path id="Trazado_144587" data-name="Trazado 144587" d="M215.372,397.571l9.291,2.769a1.107,1.107,0,0,1,.747,1.378h0a1.121,1.121,0,0,1-1.389.742l-8.649-2.577v-2.311Z" transform="translate(-215.372 -397.571)" fill="#a6a8ab" fill-rule="evenodd"/>
              </g>
              <g id="Grupo_123219" data-name="Grupo 123219" transform="translate(24.08 100.832)">
                <path id="Trazado_144588" data-name="Trazado 144588" d="M216.112,401.968l4.739,1.412h-1.627a4.148,4.148,0,0,1-3.113-1.412Z" transform="translate(-216.112 -401.968)" fill="#a6a8ab" fill-rule="evenodd"/>
              </g>
              <g id="Grupo_123220" data-name="Grupo 123220" transform="translate(33.22 54.608)">
                <path id="Trazado_144589" data-name="Trazado 144589" d="M222.546,369.432a1.121,1.121,0,0,0,1.331.59l1.983-.59Z" transform="translate(-222.546 -369.432)" fill="#a6a8ab" fill-rule="evenodd"/>
              </g>
              <g id="Grupo_123221" data-name="Grupo 123221" transform="translate(33.114 56.456)">
                <path id="Trazado_144590" data-name="Trazado 144590" d="M231.845,370.733l-8.578,2.556a1.109,1.109,0,0,0-.749,1.378h0a1.123,1.123,0,0,0,1.391.742l8.644-2.574a4.176,4.176,0,0,0-.708-2.1Z" transform="translate(-222.471 -370.733)" fill="#a6a8ab" fill-rule="evenodd"/>
              </g>
              <g id="Grupo_123222" data-name="Grupo 123222" transform="translate(33.114 62.177)">
                <path id="Trazado_144591" data-name="Trazado 144591" d="M232.558,374.76l-9.291,2.768a1.11,1.11,0,0,0-.749,1.38h0a1.121,1.121,0,0,0,1.391.74l8.649-2.576V374.76Z" transform="translate(-222.471 -374.76)" fill="#a6a8ab" fill-rule="evenodd"/>
              </g>
              <g id="Grupo_123223" data-name="Grupo 123223" transform="translate(33.114 68.11)">
                <path id="Trazado_144592" data-name="Trazado 144592" d="M232.558,378.936l-9.291,2.769a1.109,1.109,0,0,0-.749,1.378h0a1.123,1.123,0,0,0,1.391.742l8.649-2.577v-2.311Z" transform="translate(-222.471 -378.936)" fill="#a6a8ab" fill-rule="evenodd"/>
              </g>
              <g id="Grupo_123224" data-name="Grupo 123224" transform="translate(33.114 74.044)">
                <path id="Trazado_144593" data-name="Trazado 144593" d="M232.558,383.113l-9.291,2.768a1.11,1.11,0,0,0-.749,1.38h0a1.121,1.121,0,0,0,1.391.74l8.649-2.576v-2.311Z" transform="translate(-222.471 -383.113)" fill="#a6a8ab" fill-rule="evenodd"/>
              </g>
              <g id="Grupo_123225" data-name="Grupo 123225" transform="translate(33.114 79.979)">
                <path id="Trazado_144594" data-name="Trazado 144594" d="M232.558,387.29l-9.291,2.768a1.109,1.109,0,0,0-.749,1.378h0a1.123,1.123,0,0,0,1.391.742l8.649-2.577v-2.31Z" transform="translate(-222.471 -387.29)" fill="#a6a8ab" fill-rule="evenodd"/>
              </g>
              <g id="Grupo_123226" data-name="Grupo 123226" transform="translate(33.114 85.912)">
                <path id="Trazado_144595" data-name="Trazado 144595" d="M232.558,391.466l-9.291,2.769a1.108,1.108,0,0,0-.749,1.378h0a1.121,1.121,0,0,0,1.391.74l8.649-2.576v-2.311Z" transform="translate(-222.471 -391.466)" fill="#a6a8ab" fill-rule="evenodd"/>
              </g>
              <g id="Grupo_123227" data-name="Grupo 123227" transform="translate(33.114 91.846)">
                <path id="Trazado_144596" data-name="Trazado 144596" d="M232.558,395.643l-9.291,2.768a1.109,1.109,0,0,0-.749,1.378h0a1.123,1.123,0,0,0,1.391.742l8.649-2.577v-2.31Z" transform="translate(-222.471 -395.643)" fill="#a6a8ab" fill-rule="evenodd"/>
              </g>
              <g id="Grupo_123228" data-name="Grupo 123228" transform="translate(33.114 97.779)">
                <path id="Trazado_144597" data-name="Trazado 144597" d="M232.558,399.819l-9.291,2.768a1.11,1.11,0,0,0-.749,1.38h0a1.114,1.114,0,0,0,.159.318h2.65l6.592-1.963a4.159,4.159,0,0,0,.639-2.219v-.283Z" transform="translate(-222.471 -399.819)" fill="#a6a8ab" fill-rule="evenodd"/>
              </g>
              <g id="Grupo_123229" data-name="Grupo 123229" transform="translate(105.415 54.608)">
                <path id="Trazado_144598" data-name="Trazado 144598" d="M277.277,369.432l4.066,1.2a1.1,1.1,0,0,1,.749,1.37h0a1.123,1.123,0,0,1-1.391.737l-7.339-2.174a4.146,4.146,0,0,1,2.854-1.137Z" transform="translate(-273.362 -369.432)" fill="#a6a8ab" fill-rule="evenodd"/>
              </g>
              <g id="Grupo_123230" data-name="Grupo 123230" transform="translate(104.105 58.958)">
                <path id="Trazado_144599" data-name="Trazado 144599" d="M272.44,372.494l9.291,2.75a1.1,1.1,0,0,1,.749,1.37h0a1.123,1.123,0,0,1-1.391.737l-8.649-2.56v-2.3Z" transform="translate(-272.44 -372.494)" fill="#a6a8ab" fill-rule="evenodd"/>
              </g>
              <g id="Grupo_123231" data-name="Grupo 123231" transform="translate(104.105 64.855)">
                <path id="Trazado_144600" data-name="Trazado 144600" d="M272.44,376.645l9.291,2.752a1.1,1.1,0,0,1,.749,1.37h0a1.123,1.123,0,0,1-1.391.736l-8.649-2.56v-2.3Z" transform="translate(-272.44 -376.645)" fill="#a6a8ab" fill-rule="evenodd"/>
              </g>
              <g id="Grupo_123232" data-name="Grupo 123232" transform="translate(104.105 70.753)">
                <path id="Trazado_144601" data-name="Trazado 144601" d="M272.44,380.8l9.291,2.752a1.1,1.1,0,0,1,.749,1.37h0a1.122,1.122,0,0,1-1.391.736l-8.649-2.56v-2.3Z" transform="translate(-272.44 -380.796)" fill="#a6a8ab" fill-rule="evenodd"/>
              </g>
              <g id="Grupo_123233" data-name="Grupo 123233" transform="translate(104.105 76.65)">
                <path id="Trazado_144602" data-name="Trazado 144602" d="M272.44,384.947l9.291,2.752a1.1,1.1,0,0,1,.749,1.37h0a1.122,1.122,0,0,1-1.391.736l-8.649-2.56v-2.3Z" transform="translate(-272.44 -384.947)" fill="#a6a8ab" fill-rule="evenodd"/>
              </g>
              <g id="Grupo_123234" data-name="Grupo 123234" transform="translate(104.105 82.547)">
                <path id="Trazado_144603" data-name="Trazado 144603" d="M272.44,389.1l9.291,2.752a1.1,1.1,0,0,1,.749,1.37h0a1.122,1.122,0,0,1-1.391.736l-8.649-2.56v-2.3Z" transform="translate(-272.44 -389.098)" fill="#a6a8ab" fill-rule="evenodd"/>
              </g>
              <g id="Grupo_123235" data-name="Grupo 123235" transform="translate(104.105 88.445)">
                <path id="Trazado_144604" data-name="Trazado 144604" d="M272.44,393.249,281.731,396a1.1,1.1,0,0,1,.749,1.37h0a1.121,1.121,0,0,1-1.391.736l-8.649-2.56v-2.3Z" transform="translate(-272.44 -393.249)" fill="#a6a8ab" fill-rule="evenodd"/>
              </g>
              <g id="Grupo_123236" data-name="Grupo 123236" transform="translate(104.105 94.342)">
                <path id="Trazado_144605" data-name="Trazado 144605" d="M272.44,397.4l9.291,2.752a1.1,1.1,0,0,1,.749,1.37h0a1.123,1.123,0,0,1-1.391.737L272.44,399.7v-2.3Z" transform="translate(-272.44 -397.4)" fill="#a6a8ab" fill-rule="evenodd"/>
              </g>
              <g id="Grupo_123237" data-name="Grupo 123237" transform="translate(105.156 100.552)">
                <path id="Trazado_144606" data-name="Trazado 144606" d="M273.18,401.771l4.739,1.4h-1.627a4.161,4.161,0,0,1-3.113-1.4Z" transform="translate(-273.18 -401.771)" fill="#a6a8ab" fill-rule="evenodd"/>
              </g>
              <g id="Grupo_123238" data-name="Grupo 123238" transform="translate(114.297 54.608)">
                <path id="Trazado_144607" data-name="Trazado 144607" d="M279.614,369.432a1.127,1.127,0,0,0,1.333.587l1.982-.587Z" transform="translate(-279.614 -369.432)" fill="#a6a8ab" fill-rule="evenodd"/>
              </g>
              <g id="Grupo_123239" data-name="Grupo 123239" transform="translate(114.192 56.445)">
                <path id="Trazado_144608" data-name="Trazado 144608" d="M288.913,370.725l-8.578,2.54a1.1,1.1,0,0,0-.747,1.37h0a1.123,1.123,0,0,0,1.391.737l8.642-2.559a4.121,4.121,0,0,0-.708-2.088Z" transform="translate(-279.54 -370.725)" fill="#a6a8ab" fill-rule="evenodd"/>
              </g>
              <g id="Grupo_123240" data-name="Grupo 123240" transform="translate(114.192 62.132)">
                <path id="Trazado_144609" data-name="Trazado 144609" d="M289.626,374.728l-9.291,2.75a1.1,1.1,0,0,0-.747,1.371h0a1.122,1.122,0,0,0,1.391.736l8.648-2.562v-2.3Z" transform="translate(-279.54 -374.728)" fill="#a6a8ab" fill-rule="evenodd"/>
              </g>
              <g id="Grupo_123241" data-name="Grupo 123241" transform="translate(114.192 68.029)">
                <path id="Trazado_144610" data-name="Trazado 144610" d="M289.626,378.879l-9.291,2.75a1.1,1.1,0,0,0-.747,1.371h0a1.121,1.121,0,0,0,1.391.736l8.648-2.56v-2.3Z" transform="translate(-279.54 -378.879)" fill="#a6a8ab" fill-rule="evenodd"/>
              </g>
              <g id="Grupo_123242" data-name="Grupo 123242" transform="translate(114.192 73.926)">
                <path id="Trazado_144611" data-name="Trazado 144611" d="M289.626,383.03l-9.291,2.752a1.1,1.1,0,0,0-.747,1.37h0a1.121,1.121,0,0,0,1.391.736l8.648-2.56v-2.3Z" transform="translate(-279.54 -383.03)" fill="#a6a8ab" fill-rule="evenodd"/>
              </g>
              <g id="Grupo_123243" data-name="Grupo 123243" transform="translate(114.192 79.824)">
                <path id="Trazado_144612" data-name="Trazado 144612" d="M289.626,387.181l-9.291,2.752a1.1,1.1,0,0,0-.747,1.37h0a1.123,1.123,0,0,0,1.391.737l8.648-2.562v-2.3Z" transform="translate(-279.54 -387.181)" fill="#a6a8ab" fill-rule="evenodd"/>
              </g>
              <g id="Grupo_123244" data-name="Grupo 123244" transform="translate(114.192 85.721)">
                <path id="Trazado_144613" data-name="Trazado 144613" d="M289.626,391.332l-9.291,2.752a1.1,1.1,0,0,0-.747,1.37h0a1.123,1.123,0,0,0,1.391.737l8.648-2.562v-2.3Z" transform="translate(-279.54 -391.332)" fill="#a6a8ab" fill-rule="evenodd"/>
              </g>
              <g id="Grupo_123245" data-name="Grupo 123245" transform="translate(114.192 91.619)">
                <path id="Trazado_144614" data-name="Trazado 144614" d="M289.626,395.483l-9.291,2.752a1.1,1.1,0,0,0-.747,1.37h0a1.123,1.123,0,0,0,1.391.737l8.648-2.562v-2.3Z" transform="translate(-279.54 -395.483)" fill="#a6a8ab" fill-rule="evenodd"/>
              </g>
              <g id="Grupo_123246" data-name="Grupo 123246" transform="translate(114.192 97.517)">
                <path id="Trazado_144615" data-name="Trazado 144615" d="M289.626,399.635l-9.291,2.75a1.1,1.1,0,0,0-.747,1.37h0a1.075,1.075,0,0,0,.158.318h2.65l6.594-1.952a4.13,4.13,0,0,0,.638-2.206v-.28Z" transform="translate(-279.54 -399.635)" fill="#a6a8ab" fill-rule="evenodd"/>
              </g>
              <g id="Grupo_123247" data-name="Grupo 123247" transform="translate(1.31 55.032)">
                <path id="Trazado_144616" data-name="Trazado 144616" d="M204,369.731l4.066,1.2a1.1,1.1,0,0,1,.749,1.37h0a1.123,1.123,0,0,1-1.391.736l-7.339-2.172a4.152,4.152,0,0,1,2.854-1.137Z" transform="translate(-200.085 -369.731)" fill="#6d6e70" fill-rule="evenodd"/>
              </g>
              <g id="Grupo_123248" data-name="Grupo 123248" transform="translate(0 59.38)">
                <path id="Trazado_144617" data-name="Trazado 144617" d="M199.163,372.791l9.291,2.75a1.1,1.1,0,0,1,.749,1.368h0a1.122,1.122,0,0,1-1.391.736l-8.649-2.559v-2.3Z" transform="translate(-199.163 -372.791)" fill="#6d6e70" fill-rule="evenodd"/>
              </g>
              <g id="Grupo_123249" data-name="Grupo 123249" transform="translate(0 65.274)">
                <path id="Trazado_144618" data-name="Trazado 144618" d="M199.163,376.94l9.291,2.749a1.1,1.1,0,0,1,.749,1.37h0a1.123,1.123,0,0,1-1.391.736l-8.649-2.559v-2.3Z" transform="translate(-199.163 -376.94)" fill="#6d6e70" fill-rule="evenodd"/>
              </g>
              <g id="Grupo_123250" data-name="Grupo 123250" transform="translate(0 71.167)">
                <path id="Trazado_144619" data-name="Trazado 144619" d="M199.163,381.088l9.291,2.75a1.1,1.1,0,0,1,.749,1.368h0a1.122,1.122,0,0,1-1.391.736l-8.649-2.559v-2.3Z" transform="translate(-199.163 -381.088)" fill="#6d6e70" fill-rule="evenodd"/>
              </g>
              <g id="Grupo_123251" data-name="Grupo 123251" transform="translate(0 77.062)">
                <path id="Trazado_144620" data-name="Trazado 144620" d="M199.163,385.237l9.291,2.749a1.1,1.1,0,0,1,.749,1.37h0a1.123,1.123,0,0,1-1.391.736l-8.649-2.559v-2.3Z" transform="translate(-199.163 -385.237)" fill="#6d6e70" fill-rule="evenodd"/>
              </g>
              <g id="Grupo_123252" data-name="Grupo 123252" transform="translate(0 82.955)">
                <path id="Trazado_144621" data-name="Trazado 144621" d="M199.163,389.385l9.291,2.75a1.1,1.1,0,0,1,.749,1.368h0a1.122,1.122,0,0,1-1.391.736l-8.649-2.559v-2.3Z" transform="translate(-199.163 -389.385)" fill="#6d6e70" fill-rule="evenodd"/>
              </g>
              <g id="Grupo_123253" data-name="Grupo 123253" transform="translate(0 88.85)">
                <path id="Trazado_144622" data-name="Trazado 144622" d="M199.163,393.534l9.291,2.749a1.1,1.1,0,0,1,.749,1.37h0a1.123,1.123,0,0,1-1.391.736l-8.649-2.559v-2.3Z" transform="translate(-199.163 -393.534)" fill="#6d6e70" fill-rule="evenodd"/>
              </g>
              <g id="Grupo_123254" data-name="Grupo 123254" transform="translate(0 94.743)">
                <path id="Trazado_144623" data-name="Trazado 144623" d="M199.163,397.682l9.291,2.75a1.1,1.1,0,0,1,.749,1.37h0a1.122,1.122,0,0,1-1.391.734l-8.649-2.559v-2.3Z" transform="translate(-199.163 -397.682)" fill="#6d6e70" fill-rule="evenodd"/>
              </g>
              <g id="Grupo_123255" data-name="Grupo 123255" transform="translate(1.051 100.948)">
                <path id="Trazado_144624" data-name="Trazado 144624" d="M199.9,402.05l4.741,1.4h-1.628a4.165,4.165,0,0,1-3.113-1.4Z" transform="translate(-199.903 -402.05)" fill="#6d6e70" fill-rule="evenodd"/>
              </g>
              <g id="Grupo_123256" data-name="Grupo 123256" transform="translate(10.192 55.032)">
                <path id="Trazado_144625" data-name="Trazado 144625" d="M206.337,369.731a1.127,1.127,0,0,0,1.333.587l1.982-.587Z" transform="translate(-206.337 -369.731)" fill="#6d6e70" fill-rule="evenodd"/>
              </g>
              <g id="Grupo_123257" data-name="Grupo 123257" transform="translate(10.086 56.869)">
                <path id="Trazado_144626" data-name="Trazado 144626" d="M215.637,371.024l-8.58,2.537a1.1,1.1,0,0,0-.747,1.37h0a1.121,1.121,0,0,0,1.391.736l8.642-2.556a4.123,4.123,0,0,0-.706-2.087Z" transform="translate(-206.263 -371.024)" fill="#6d6e70" fill-rule="evenodd"/>
              </g>
              <g id="Grupo_123258" data-name="Grupo 123258" transform="translate(10.086 62.552)">
                <path id="Trazado_144627" data-name="Trazado 144627" d="M216.35,375.024l-9.293,2.749a1.1,1.1,0,0,0-.747,1.37h0a1.123,1.123,0,0,0,1.391.736l8.649-2.559v-2.3Z" transform="translate(-206.263 -375.024)" fill="#6d6e70" fill-rule="evenodd"/>
              </g>
              <g id="Grupo_123259" data-name="Grupo 123259" transform="translate(10.086 68.445)">
                <path id="Trazado_144628" data-name="Trazado 144628" d="M216.35,379.172l-9.293,2.75a1.1,1.1,0,0,0-.747,1.368h0a1.123,1.123,0,0,0,1.391.737l8.649-2.56v-2.3Z" transform="translate(-206.263 -379.172)" fill="#6d6e70" fill-rule="evenodd"/>
              </g>
              <g id="Grupo_123260" data-name="Grupo 123260" transform="translate(10.086 74.34)">
                <path id="Trazado_144629" data-name="Trazado 144629" d="M216.35,383.321l-9.293,2.749a1.1,1.1,0,0,0-.747,1.37h0a1.121,1.121,0,0,0,1.391.736l8.649-2.559v-2.3Z" transform="translate(-206.263 -383.321)" fill="#6d6e70" fill-rule="evenodd"/>
              </g>
              <g id="Grupo_123261" data-name="Grupo 123261" transform="translate(10.086 80.233)">
                <path id="Trazado_144630" data-name="Trazado 144630" d="M216.35,387.469l-9.293,2.75a1.1,1.1,0,0,0-.747,1.37h0a1.124,1.124,0,0,0,1.391.736l8.649-2.56v-2.3Z" transform="translate(-206.263 -387.469)" fill="#6d6e70" fill-rule="evenodd"/>
              </g>
              <g id="Grupo_123262" data-name="Grupo 123262" transform="translate(10.086 86.128)">
                <path id="Trazado_144631" data-name="Trazado 144631" d="M216.35,391.618l-9.293,2.749a1.1,1.1,0,0,0-.747,1.37h0a1.123,1.123,0,0,0,1.391.736l8.649-2.559v-2.3Z" transform="translate(-206.263 -391.618)" fill="#6d6e70" fill-rule="evenodd"/>
              </g>
              <g id="Grupo_123263" data-name="Grupo 123263" transform="translate(10.086 92.021)">
                <path id="Trazado_144632" data-name="Trazado 144632" d="M216.35,395.766l-9.293,2.75a1.1,1.1,0,0,0-.747,1.368h0a1.123,1.123,0,0,0,1.391.737l8.649-2.56v-2.3Z" transform="translate(-206.263 -395.766)" fill="#6d6e70" fill-rule="evenodd"/>
              </g>
              <g id="Grupo_123264" data-name="Grupo 123264" transform="translate(10.086 97.915)">
                <path id="Trazado_144633" data-name="Trazado 144633" d="M216.35,399.915l-9.293,2.749a1.1,1.1,0,0,0-.747,1.37h0a1.068,1.068,0,0,0,.158.317h2.65l6.594-1.951a4.114,4.114,0,0,0,.639-2.2v-.28Z" transform="translate(-206.263 -399.915)" fill="#6d6e70" fill-rule="evenodd"/>
              </g>
              <g id="Grupo_123265" data-name="Grupo 123265" transform="translate(82.387 55.032)">
                <path id="Trazado_144634" data-name="Trazado 144634" d="M261.068,369.731l4.068,1.2a1.1,1.1,0,0,1,.747,1.37h0a1.121,1.121,0,0,1-1.389.736l-7.341-2.172a4.152,4.152,0,0,1,2.854-1.138Z" transform="translate(-257.153 -369.731)" fill="#6d6e70" fill-rule="evenodd"/>
              </g>
              <g id="Grupo_123266" data-name="Grupo 123266" transform="translate(81.077 59.383)">
                <path id="Trazado_144635" data-name="Trazado 144635" d="M256.231,372.793l9.293,2.752a1.1,1.1,0,0,1,.747,1.37h0a1.121,1.121,0,0,1-1.389.737l-8.651-2.562v-2.3Z" transform="translate(-256.231 -372.793)" fill="#6d6e70" fill-rule="evenodd"/>
              </g>
              <g id="Grupo_123267" data-name="Grupo 123267" transform="translate(81.077 65.28)">
                <path id="Trazado_144636" data-name="Trazado 144636" d="M256.231,376.944l9.293,2.752a1.1,1.1,0,0,1,.747,1.37h0a1.121,1.121,0,0,1-1.389.737l-8.651-2.562v-2.3Z" transform="translate(-256.231 -376.944)" fill="#6d6e70" fill-rule="evenodd"/>
              </g>
              <g id="Grupo_123268" data-name="Grupo 123268" transform="translate(81.077 71.177)">
                <path id="Trazado_144637" data-name="Trazado 144637" d="M256.231,381.1l9.293,2.752a1.1,1.1,0,0,1,.747,1.37h0a1.121,1.121,0,0,1-1.389.737l-8.651-2.56v-2.3Z" transform="translate(-256.231 -381.095)" fill="#6d6e70" fill-rule="evenodd"/>
              </g>
              <g id="Grupo_123269" data-name="Grupo 123269" transform="translate(81.077 77.076)">
                <path id="Trazado_144638" data-name="Trazado 144638" d="M256.231,385.247,265.524,388a1.1,1.1,0,0,1,.747,1.37h0a1.122,1.122,0,0,1-1.389.736l-8.651-2.56v-2.3Z" transform="translate(-256.231 -385.247)" fill="#6d6e70" fill-rule="evenodd"/>
              </g>
              <g id="Grupo_123270" data-name="Grupo 123270" transform="translate(81.077 82.974)">
                <path id="Trazado_144639" data-name="Trazado 144639" d="M256.231,389.4l9.293,2.752a1.1,1.1,0,0,1,.747,1.37h0a1.12,1.12,0,0,1-1.389.736l-8.651-2.56v-2.3Z" transform="translate(-256.231 -389.398)" fill="#6d6e70" fill-rule="evenodd"/>
              </g>
              <g id="Grupo_123271" data-name="Grupo 123271" transform="translate(81.077 88.871)">
                <path id="Trazado_144640" data-name="Trazado 144640" d="M256.231,393.549l9.293,2.752a1.1,1.1,0,0,1,.747,1.37h0a1.119,1.119,0,0,1-1.389.736l-8.651-2.56v-2.3Z" transform="translate(-256.231 -393.549)" fill="#6d6e70" fill-rule="evenodd"/>
              </g>
              <g id="Grupo_123272" data-name="Grupo 123272" transform="translate(81.077 94.768)">
                <path id="Trazado_144641" data-name="Trazado 144641" d="M256.231,397.7l9.293,2.752a1.1,1.1,0,0,1,.747,1.37h0a1.119,1.119,0,0,1-1.389.736L256.231,400v-2.3Z" transform="translate(-256.231 -397.7)" fill="#6d6e70" fill-rule="evenodd"/>
              </g>
              <g id="Grupo_123273" data-name="Grupo 123273" transform="translate(82.13 100.978)">
                <path id="Trazado_144642" data-name="Trazado 144642" d="M256.972,402.071l4.74,1.4h-1.628a4.162,4.162,0,0,1-3.111-1.4Z" transform="translate(-256.972 -402.071)" fill="#6d6e70" fill-rule="evenodd"/>
              </g>
              <g id="Grupo_123274" data-name="Grupo 123274" transform="translate(91.269 55.032)">
                <path id="Trazado_144643" data-name="Trazado 144643" d="M263.4,369.731a1.127,1.127,0,0,0,1.333.588l1.983-.588Z" transform="translate(-263.405 -369.731)" fill="#6d6e70" fill-rule="evenodd"/>
              </g>
              <g id="Grupo_123275" data-name="Grupo 123275" transform="translate(91.164 56.871)">
                <path id="Trazado_144644" data-name="Trazado 144644" d="M272.7,371.025l-8.58,2.54a1.1,1.1,0,0,0-.747,1.37h0a1.123,1.123,0,0,0,1.391.737l8.642-2.559a4.119,4.119,0,0,0-.706-2.088Z" transform="translate(-263.331 -371.025)" fill="#6d6e70" fill-rule="evenodd"/>
              </g>
              <g id="Grupo_123276" data-name="Grupo 123276" transform="translate(91.164 62.557)">
                <path id="Trazado_144645" data-name="Trazado 144645" d="M273.418,375.027l-9.293,2.752a1.1,1.1,0,0,0-.747,1.37h0a1.123,1.123,0,0,0,1.391.737l8.649-2.561v-2.3Z" transform="translate(-263.331 -375.027)" fill="#6d6e70" fill-rule="evenodd"/>
              </g>
              <g id="Grupo_123277" data-name="Grupo 123277" transform="translate(91.164 68.455)">
                <path id="Trazado_144646" data-name="Trazado 144646" d="M273.418,379.179l-9.293,2.75a1.1,1.1,0,0,0-.747,1.37h0a1.123,1.123,0,0,0,1.391.737l8.649-2.562v-2.3Z" transform="translate(-263.331 -379.179)" fill="#6d6e70" fill-rule="evenodd"/>
              </g>
              <g id="Grupo_123278" data-name="Grupo 123278" transform="translate(91.164 74.353)">
                <path id="Trazado_144647" data-name="Trazado 144647" d="M273.418,383.33l-9.293,2.75a1.1,1.1,0,0,0-.747,1.37h0a1.122,1.122,0,0,0,1.391.737l8.649-2.562v-2.3Z" transform="translate(-263.331 -383.33)" fill="#6d6e70" fill-rule="evenodd"/>
              </g>
              <g id="Grupo_123279" data-name="Grupo 123279" transform="translate(91.164 80.25)">
                <path id="Trazado_144648" data-name="Trazado 144648" d="M273.418,387.481l-9.293,2.751a1.1,1.1,0,0,0-.747,1.371h0a1.121,1.121,0,0,0,1.391.736l8.649-2.56v-2.3Z" transform="translate(-263.331 -387.481)" fill="#6d6e70" fill-rule="evenodd"/>
              </g>
              <g id="Grupo_123280" data-name="Grupo 123280" transform="translate(91.164 86.147)">
                <path id="Trazado_144649" data-name="Trazado 144649" d="M273.418,391.632l-9.293,2.75a1.1,1.1,0,0,0-.747,1.371h0a1.121,1.121,0,0,0,1.391.736l8.649-2.56v-2.3Z" transform="translate(-263.331 -391.632)" fill="#6d6e70" fill-rule="evenodd"/>
              </g>
              <g id="Grupo_123281" data-name="Grupo 123281" transform="translate(91.164 92.045)">
                <path id="Trazado_144650" data-name="Trazado 144650" d="M273.418,395.783l-9.293,2.752a1.1,1.1,0,0,0-.747,1.37h0a1.123,1.123,0,0,0,1.391.737l8.649-2.562v-2.3Z" transform="translate(-263.331 -395.783)" fill="#6d6e70" fill-rule="evenodd"/>
              </g>
              <g id="Grupo_123282" data-name="Grupo 123282" transform="translate(91.164 97.942)">
                <path id="Trazado_144651" data-name="Trazado 144651" d="M273.418,399.934l-9.293,2.752a1.1,1.1,0,0,0-.747,1.37h0a1.069,1.069,0,0,0,.158.317h2.65l6.593-1.952a4.114,4.114,0,0,0,.639-2.2v-.281Z" transform="translate(-263.331 -399.934)" fill="#6d6e70" fill-rule="evenodd"/>
              </g>
              <g id="Grupo_123283" data-name="Grupo 123283" transform="translate(24.337 55.035)">
                <path id="Trazado_144652" data-name="Trazado 144652" d="M220.208,369.733l4.068,1.212a1.106,1.106,0,0,1,.747,1.378h0a1.119,1.119,0,0,1-1.389.74l-7.341-2.185a4.14,4.14,0,0,1,2.856-1.145Z" transform="translate(-216.293 -369.733)" fill="#6d6e70" fill-rule="evenodd"/>
              </g>
              <g id="Grupo_123284" data-name="Grupo 123284" transform="translate(23.028 59.413)">
                <path id="Trazado_144653" data-name="Trazado 144653" d="M215.372,372.814l9.291,2.768a1.108,1.108,0,0,1,.747,1.378h0a1.118,1.118,0,0,1-1.389.742l-8.649-2.576v-2.312Z" transform="translate(-215.372 -372.814)" fill="#6d6e70" fill-rule="evenodd"/>
              </g>
              <g id="Grupo_123285" data-name="Grupo 123285" transform="translate(23.028 65.345)">
                <path id="Trazado_144654" data-name="Trazado 144654" d="M215.372,376.99l9.291,2.769a1.106,1.106,0,0,1,.747,1.378h0a1.119,1.119,0,0,1-1.389.74l-8.649-2.576V376.99Z" transform="translate(-215.372 -376.99)" fill="#6d6e70" fill-rule="evenodd"/>
              </g>
              <g id="Grupo_123286" data-name="Grupo 123286" transform="translate(23.028 71.28)">
                <path id="Trazado_144655" data-name="Trazado 144655" d="M215.372,381.167l9.291,2.768a1.108,1.108,0,0,1,.747,1.378h0a1.119,1.119,0,0,1-1.389.742l-8.649-2.576v-2.312Z" transform="translate(-215.372 -381.167)" fill="#6d6e70" fill-rule="evenodd"/>
              </g>
              <g id="Grupo_123287" data-name="Grupo 123287" transform="translate(23.028 77.213)">
                <path id="Trazado_144656" data-name="Trazado 144656" d="M215.372,385.343l9.291,2.769a1.107,1.107,0,0,1,.747,1.378h0a1.119,1.119,0,0,1-1.389.74l-8.649-2.576v-2.311Z" transform="translate(-215.372 -385.343)" fill="#6d6e70" fill-rule="evenodd"/>
              </g>
              <g id="Grupo_123288" data-name="Grupo 123288" transform="translate(23.028 83.147)">
                <path id="Trazado_144657" data-name="Trazado 144657" d="M215.372,389.52l9.291,2.769a1.106,1.106,0,0,1,.747,1.378h0a1.119,1.119,0,0,1-1.389.74l-8.649-2.576V389.52Z" transform="translate(-215.372 -389.52)" fill="#6d6e70" fill-rule="evenodd"/>
              </g>
              <g id="Grupo_123289" data-name="Grupo 123289" transform="translate(23.028 89.08)">
                <path id="Trazado_144658" data-name="Trazado 144658" d="M215.372,393.7l9.291,2.769a1.107,1.107,0,0,1,.747,1.378h0a1.121,1.121,0,0,1-1.389.742l-8.649-2.577V393.7Z" transform="translate(-215.372 -393.696)" fill="#6d6e70" fill-rule="evenodd"/>
              </g>
              <g id="Grupo_123290" data-name="Grupo 123290" transform="translate(23.028 95.014)">
                <path id="Trazado_144659" data-name="Trazado 144659" d="M215.372,397.873l9.291,2.769a1.106,1.106,0,0,1,.747,1.378h0a1.119,1.119,0,0,1-1.389.74l-8.649-2.576v-2.311Z" transform="translate(-215.372 -397.873)" fill="#6d6e70" fill-rule="evenodd"/>
              </g>
              <g id="Grupo_123291" data-name="Grupo 123291" transform="translate(24.08 101.261)">
                <path id="Trazado_144660" data-name="Trazado 144660" d="M216.112,402.27l4.739,1.412h-1.627a4.148,4.148,0,0,1-3.113-1.412Z" transform="translate(-216.112 -402.27)" fill="#6d6e70" fill-rule="evenodd"/>
              </g>
              <g id="Grupo_123292" data-name="Grupo 123292" transform="translate(33.22 55.035)">
                <path id="Trazado_144661" data-name="Trazado 144661" d="M222.546,369.733a1.123,1.123,0,0,0,1.331.591l1.983-.591Z" transform="translate(-222.546 -369.733)" fill="#6d6e70" fill-rule="evenodd"/>
              </g>
              <g id="Grupo_123293" data-name="Grupo 123293" transform="translate(33.114 56.885)">
                <path id="Trazado_144662" data-name="Trazado 144662" d="M231.845,371.035l-8.578,2.554a1.11,1.11,0,0,0-.749,1.38h0a1.121,1.121,0,0,0,1.391.74l8.644-2.574a4.171,4.171,0,0,0-.708-2.1Z" transform="translate(-222.471 -371.035)" fill="#6d6e70" fill-rule="evenodd"/>
              </g>
              <g id="Grupo_123294" data-name="Grupo 123294" transform="translate(33.114 62.605)">
                <path id="Trazado_144663" data-name="Trazado 144663" d="M232.558,375.061l-9.291,2.769a1.109,1.109,0,0,0-.749,1.378h0a1.123,1.123,0,0,0,1.391.742l8.649-2.577v-2.311Z" transform="translate(-222.471 -375.061)" fill="#6d6e70" fill-rule="evenodd"/>
              </g>
              <g id="Grupo_123295" data-name="Grupo 123295" transform="translate(33.114 68.539)">
                <path id="Trazado_144664" data-name="Trazado 144664" d="M232.558,379.238l-9.291,2.768a1.11,1.11,0,0,0-.749,1.38h0a1.121,1.121,0,0,0,1.391.74l8.649-2.576v-2.311Z" transform="translate(-222.471 -379.238)" fill="#6d6e70" fill-rule="evenodd"/>
              </g>
              <g id="Grupo_123296" data-name="Grupo 123296" transform="translate(33.114 74.473)">
                <path id="Trazado_144665" data-name="Trazado 144665" d="M232.558,383.415l-9.291,2.768a1.109,1.109,0,0,0-.749,1.378h0a1.122,1.122,0,0,0,1.391.742l8.649-2.577v-2.31Z" transform="translate(-222.471 -383.415)" fill="#6d6e70" fill-rule="evenodd"/>
              </g>
              <g id="Grupo_123297" data-name="Grupo 123297" transform="translate(33.114 80.406)">
                <path id="Trazado_144666" data-name="Trazado 144666" d="M232.558,387.591l-9.291,2.769a1.108,1.108,0,0,0-.749,1.378h0a1.121,1.121,0,0,0,1.391.74l8.649-2.576v-2.311Z" transform="translate(-222.471 -387.591)" fill="#6d6e70" fill-rule="evenodd"/>
              </g>
              <g id="Grupo_123298" data-name="Grupo 123298" transform="translate(33.114 86.341)">
                <path id="Trazado_144667" data-name="Trazado 144667" d="M232.558,391.768l-9.291,2.768a1.109,1.109,0,0,0-.749,1.378h0a1.122,1.122,0,0,0,1.391.742l8.649-2.577v-2.31Z" transform="translate(-222.471 -391.768)" fill="#6d6e70" fill-rule="evenodd"/>
              </g>
              <g id="Grupo_123299" data-name="Grupo 123299" transform="translate(33.114 92.273)">
                <path id="Trazado_144668" data-name="Trazado 144668" d="M232.558,395.944l-9.291,2.768a1.11,1.11,0,0,0-.749,1.38h0a1.123,1.123,0,0,0,1.391.742l8.649-2.577v-2.312Z" transform="translate(-222.471 -395.944)" fill="#6d6e70" fill-rule="evenodd"/>
              </g>
              <g id="Grupo_123300" data-name="Grupo 123300" transform="translate(33.114 98.208)">
                <path id="Trazado_144669" data-name="Trazado 144669" d="M232.558,400.121l-9.291,2.768a1.109,1.109,0,0,0-.749,1.378h0a1.122,1.122,0,0,0,.159.32h2.65l6.592-1.965a4.156,4.156,0,0,0,.639-2.219v-.281Z" transform="translate(-222.471 -400.121)" fill="#6d6e70" fill-rule="evenodd"/>
              </g>
              <g id="Grupo_123301" data-name="Grupo 123301" transform="translate(105.415 55.032)">
                <path id="Trazado_144670" data-name="Trazado 144670" d="M277.277,369.731l4.066,1.2a1.1,1.1,0,0,1,.749,1.37h0a1.122,1.122,0,0,1-1.391.736l-7.339-2.172a4.147,4.147,0,0,1,2.854-1.138Z" transform="translate(-273.362 -369.731)" fill="#6d6e70" fill-rule="evenodd"/>
              </g>
              <g id="Grupo_123302" data-name="Grupo 123302" transform="translate(104.105 59.383)">
                <path id="Trazado_144671" data-name="Trazado 144671" d="M272.44,372.793l9.291,2.752a1.1,1.1,0,0,1,.749,1.37h0a1.123,1.123,0,0,1-1.391.737l-8.649-2.562v-2.3Z" transform="translate(-272.44 -372.793)" fill="#6d6e70" fill-rule="evenodd"/>
              </g>
              <g id="Grupo_123303" data-name="Grupo 123303" transform="translate(104.105 65.28)">
                <path id="Trazado_144672" data-name="Trazado 144672" d="M272.44,376.944l9.291,2.752a1.1,1.1,0,0,1,.749,1.37h0a1.123,1.123,0,0,1-1.391.737l-8.649-2.562v-2.3Z" transform="translate(-272.44 -376.944)" fill="#6d6e70" fill-rule="evenodd"/>
              </g>
              <g id="Grupo_123304" data-name="Grupo 123304" transform="translate(104.105 71.177)">
                <path id="Trazado_144673" data-name="Trazado 144673" d="M272.44,381.1l9.291,2.752a1.1,1.1,0,0,1,.749,1.37h0a1.123,1.123,0,0,1-1.391.737l-8.649-2.56v-2.3Z" transform="translate(-272.44 -381.095)" fill="#6d6e70" fill-rule="evenodd"/>
              </g>
              <g id="Grupo_123305" data-name="Grupo 123305" transform="translate(104.105 77.076)">
                <path id="Trazado_144674" data-name="Trazado 144674" d="M272.44,385.247,281.731,388a1.1,1.1,0,0,1,.749,1.37h0a1.123,1.123,0,0,1-1.391.736l-8.649-2.56v-2.3Z" transform="translate(-272.44 -385.247)" fill="#6d6e70" fill-rule="evenodd"/>
              </g>
              <g id="Grupo_123306" data-name="Grupo 123306" transform="translate(104.105 82.974)">
                <path id="Trazado_144675" data-name="Trazado 144675" d="M272.44,389.4l9.291,2.752a1.1,1.1,0,0,1,.749,1.37h0a1.122,1.122,0,0,1-1.391.736l-8.649-2.56v-2.3Z" transform="translate(-272.44 -389.398)" fill="#6d6e70" fill-rule="evenodd"/>
              </g>
              <g id="Grupo_123307" data-name="Grupo 123307" transform="translate(104.105 88.871)">
                <path id="Trazado_144676" data-name="Trazado 144676" d="M272.44,393.549l9.291,2.752a1.1,1.1,0,0,1,.749,1.37h0a1.121,1.121,0,0,1-1.391.736l-8.649-2.56v-2.3Z" transform="translate(-272.44 -393.549)" fill="#6d6e70" fill-rule="evenodd"/>
              </g>
              <g id="Grupo_123308" data-name="Grupo 123308" transform="translate(104.105 94.768)">
                <path id="Trazado_144677" data-name="Trazado 144677" d="M272.44,397.7l9.291,2.752a1.1,1.1,0,0,1,.749,1.37h0a1.121,1.121,0,0,1-1.391.736L272.44,400v-2.3Z" transform="translate(-272.44 -397.7)" fill="#6d6e70" fill-rule="evenodd"/>
              </g>
              <g id="Grupo_123309" data-name="Grupo 123309" transform="translate(105.156 100.978)">
                <path id="Trazado_144678" data-name="Trazado 144678" d="M273.18,402.071l4.739,1.4h-1.627a4.165,4.165,0,0,1-3.113-1.4Z" transform="translate(-273.18 -402.071)" fill="#6d6e70" fill-rule="evenodd"/>
              </g>
              <g id="Grupo_123310" data-name="Grupo 123310" transform="translate(114.297 55.032)">
                <path id="Trazado_144679" data-name="Trazado 144679" d="M279.614,369.731a1.127,1.127,0,0,0,1.333.588l1.982-.588Z" transform="translate(-279.614 -369.731)" fill="#6d6e70" fill-rule="evenodd"/>
              </g>
              <g id="Grupo_123311" data-name="Grupo 123311" transform="translate(114.192 56.871)">
                <path id="Trazado_144680" data-name="Trazado 144680" d="M288.913,371.025l-8.578,2.54a1.1,1.1,0,0,0-.747,1.37h0a1.123,1.123,0,0,0,1.391.737l8.642-2.559a4.122,4.122,0,0,0-.708-2.088Z" transform="translate(-279.54 -371.025)" fill="#6d6e70" fill-rule="evenodd"/>
              </g>
              <g id="Grupo_123312" data-name="Grupo 123312" transform="translate(114.192 62.557)">
                <path id="Trazado_144681" data-name="Trazado 144681" d="M289.626,375.027l-9.291,2.752a1.1,1.1,0,0,0-.747,1.37h0a1.123,1.123,0,0,0,1.391.737l8.648-2.561v-2.3Z" transform="translate(-279.54 -375.027)" fill="#6d6e70" fill-rule="evenodd"/>
              </g>
              <g id="Grupo_123313" data-name="Grupo 123313" transform="translate(114.192 68.455)">
                <path id="Trazado_144682" data-name="Trazado 144682" d="M289.626,379.179l-9.291,2.75a1.1,1.1,0,0,0-.747,1.37h0a1.123,1.123,0,0,0,1.391.737l8.648-2.562v-2.3Z" transform="translate(-279.54 -379.179)" fill="#6d6e70" fill-rule="evenodd"/>
              </g>
              <g id="Grupo_123314" data-name="Grupo 123314" transform="translate(114.192 74.353)">
                <path id="Trazado_144683" data-name="Trazado 144683" d="M289.626,383.33l-9.291,2.75a1.1,1.1,0,0,0-.747,1.37h0a1.122,1.122,0,0,0,1.391.737l8.648-2.562v-2.3Z" transform="translate(-279.54 -383.33)" fill="#6d6e70" fill-rule="evenodd"/>
              </g>
              <g id="Grupo_123315" data-name="Grupo 123315" transform="translate(114.192 80.25)">
                <path id="Trazado_144684" data-name="Trazado 144684" d="M289.626,387.481l-9.291,2.751a1.1,1.1,0,0,0-.747,1.371h0a1.121,1.121,0,0,0,1.391.736l8.648-2.56v-2.3Z" transform="translate(-279.54 -387.481)" fill="#6d6e70" fill-rule="evenodd"/>
              </g>
              <g id="Grupo_123316" data-name="Grupo 123316" transform="translate(114.192 86.147)">
                <path id="Trazado_144685" data-name="Trazado 144685" d="M289.626,391.632l-9.291,2.75a1.1,1.1,0,0,0-.747,1.371h0a1.121,1.121,0,0,0,1.391.736l8.648-2.56v-2.3Z" transform="translate(-279.54 -391.632)" fill="#6d6e70" fill-rule="evenodd"/>
              </g>
              <g id="Grupo_123317" data-name="Grupo 123317" transform="translate(114.192 92.045)">
                <path id="Trazado_144686" data-name="Trazado 144686" d="M289.626,395.783l-9.291,2.752a1.1,1.1,0,0,0-.747,1.37h0a1.123,1.123,0,0,0,1.391.737l8.648-2.562v-2.3Z" transform="translate(-279.54 -395.783)" fill="#6d6e70" fill-rule="evenodd"/>
              </g>
              <g id="Grupo_123318" data-name="Grupo 123318" transform="translate(114.192 97.942)">
                <path id="Trazado_144687" data-name="Trazado 144687" d="M289.626,399.934l-9.291,2.752a1.1,1.1,0,0,0-.747,1.37h0a1.067,1.067,0,0,0,.158.317h2.65l6.594-1.952a4.125,4.125,0,0,0,.638-2.2v-.281Z" transform="translate(-279.54 -399.934)" fill="#6d6e70" fill-rule="evenodd"/>
              </g>
              <g id="Grupo_123319" data-name="Grupo 123319" transform="translate(43.821 41.817)">
                <path id="Trazado_144688" data-name="Trazado 144688" d="M231.692,361.155h32.2a110.592,110.592,0,0,1,0,29.967h-32.2a117.207,117.207,0,0,1,0-29.967Z" transform="translate(-229.704 -360.124)" fill="#58595b" fill-rule="evenodd"/>
                <path id="Trazado_144689" data-name="Trazado 144689" d="M264.195,392.459H232a1.034,1.034,0,0,1-1.023-.9,118.774,118.774,0,0,1,0-30.234,1.029,1.029,0,0,1,1.021-.9h32.2a1.031,1.031,0,0,1,1.021.889,111.649,111.649,0,0,1,0,30.251A1.032,1.032,0,0,1,264.195,392.459ZM232.906,390.4h30.386a109.591,109.591,0,0,0,0-27.906H232.9A116.863,116.863,0,0,0,232.906,390.4Z" transform="translate(-230.008 -360.429)" fill="#00a551"/>
              </g>
              <g id="Grupo_123320" data-name="Grupo 123320" transform="translate(45.372 35.638)">
                <path id="Trazado_144690" data-name="Trazado 144690" d="M264.371,363.863c.009-.168.014-.338.014-.51h0c0-4-4.751-7.273-7.821-7.273H238.7c-3.072,0-7.6,3.272-7.6,7.273h0c0,.172.006.342.014.51Z" transform="translate(-231.099 -356.08)" fill="#00a551" fill-rule="evenodd"/>
              </g>
              <g id="Grupo_123321" data-name="Grupo 123321" transform="translate(41.122 79.467)">
                <path id="Trazado_144691" data-name="Trazado 144691" d="M269.741,386.93H228.108v3.9h41.633v-3.9Z" transform="translate(-228.108 -386.93)" fill="#00a551" fill-rule="evenodd"/>
              </g>
              <g id="Grupo_123322" data-name="Grupo 123322" transform="translate(50.818 83.365)">
                <path id="Trazado_144692" data-name="Trazado 144692" d="M257.173,389.673H234.932v3.018h22.241v-3.018Z" transform="translate(-234.932 -389.673)" fill="#156b40" fill-rule="evenodd"/>
              </g>
              <g id="Grupo_123323" data-name="Grupo 123323" transform="translate(73.058 83.365)">
                <path id="Trazado_144693" data-name="Trazado 144693" d="M253.242,389.673h-2.656v4.652h2.656v-4.652Z" transform="translate(-250.587 -389.673)" fill="#17854a" fill-rule="evenodd"/>
              </g>
              <g id="Grupo_123324" data-name="Grupo 123324" transform="translate(48.107 83.365)">
                <path id="Trazado_144694" data-name="Trazado 144694" d="M235.68,389.673h-2.655v4.652h2.655v-4.652Z" transform="translate(-233.025 -389.673)" fill="#17854a" fill-rule="evenodd"/>
              </g>
              <g id="Grupo_123325" data-name="Grupo 123325" transform="translate(30.323 21.125)">
                <path id="Trazado_144695" data-name="Trazado 144695" d="M220.507,345.865h10.562v28.919H220.507V345.865Z" transform="translate(-220.507 -345.865)" fill="#6d6e70" fill-rule="evenodd"/>
              </g>
              <g id="Grupo_123326" data-name="Grupo 123326" transform="translate(30.323 18.357)">
                <path id="Trazado_144696" data-name="Trazado 144696" d="M223.257,343.916h4.875l2.937,2.768H220.507l2.75-2.768Z" transform="translate(-220.507 -343.916)" fill="#929497" fill-rule="evenodd"/>
              </g>
              <g id="Grupo_123327" data-name="Grupo 123327" transform="translate(33.13 14.245)">
                <path id="Trazado_144697" data-name="Trazado 144697" d="M223.108,341.022h3.577l.745,1.384h-4.947l.626-1.384Z" transform="translate(-222.483 -341.022)" fill="#929497" fill-rule="evenodd"/>
              </g>
              <g id="Grupo_123328" data-name="Grupo 123328" transform="translate(33.13 15.674)">
                <path id="Trazado_144698" data-name="Trazado 144698" d="M222.483,342.028H227.3v2.683h-4.817v-2.683Z" transform="translate(-222.483 -342.028)" fill="#6d6e70" fill-rule="evenodd"/>
              </g>
              <g id="Grupo_123329" data-name="Grupo 123329" transform="translate(33.798 1.705)">
                <path id="Trazado_144699" data-name="Trazado 144699" d="M222.953,332.2h3.534v12.54h-3.534V332.2Z" transform="translate(-222.953 -332.195)" fill="#6d6e70" fill-rule="evenodd"/>
              </g>
              <g id="Grupo_123330" data-name="Grupo 123330" transform="translate(33.799)">
                <path id="Trazado_144700" data-name="Trazado 144700" d="M224.719,330.995a2.189,2.189,0,1,1-1.766,2.148,1.986,1.986,0,0,1,1.766-2.148Z" transform="translate(-222.953 -330.995)" fill="#404041" fill-rule="evenodd"/>
              </g>
              <g id="Grupo_123331" data-name="Grupo 123331" transform="translate(40.138 13.416)">
                <path id="Trazado_144701" data-name="Trazado 144701" d="M271.011,340.438c0,.057,0,.114,0,.172v1.461c0,1-.507,1.826-1.127,1.826H228.543c-.621,0-1.128-.823-1.128-1.826V340.61c0-.058,0-.115.006-.172h12.474v.827h18.643v-.827Z" transform="translate(-227.415 -340.438)" fill="#58595b" fill-rule="evenodd"/>
              </g>
              <g id="Grupo_123332" data-name="Grupo 123332" transform="translate(47.253 14.632)">
                <path id="Trazado_144702" data-name="Trazado 144702" d="M234.531,341.294c1.164,0,2.107.422,2.107.942s-.943.943-2.107.943-2.108-.422-2.108-.943.943-.942,2.108-.942Z" transform="translate(-232.423 -341.294)" fill="#e6e7e8" fill-rule="evenodd"/>
              </g>
              <g id="Grupo_123333" data-name="Grupo 123333" transform="translate(78.15 14.632)">
                <path id="Trazado_144703" data-name="Trazado 144703" d="M256.279,341.294c1.164,0,2.108.422,2.108.942s-.945.943-2.108.943-2.108-.422-2.108-.943.945-.942,2.108-.942Z" transform="translate(-254.171 -341.294)" fill="#e6e7e8" fill-rule="evenodd"/>
              </g>
              <g id="Grupo_123334" data-name="Grupo 123334" transform="translate(42.14 14.632)">
                <path id="Trazado_144704" data-name="Trazado 144704" d="M230.932,341.294c1.164,0,2.108.422,2.108.942s-.945.943-2.108.943-2.108-.422-2.108-.943.945-.942,2.108-.942Z" transform="translate(-228.824 -341.294)" fill="#e6e7e8" fill-rule="evenodd"/>
              </g>
              <g id="Grupo_123335" data-name="Grupo 123335" transform="translate(73.039 14.632)">
                <path id="Trazado_144705" data-name="Trazado 144705" d="M252.681,341.294c1.164,0,2.107.422,2.107.942s-.943.943-2.107.943-2.108-.422-2.108-.943.943-.942,2.108-.942Z" transform="translate(-250.573 -341.294)" fill="#e6e7e8" fill-rule="evenodd"/>
              </g>
              <g id="Grupo_123336" data-name="Grupo 123336" transform="translate(23.186 20.454)">
                <path id="Trazado_144706" data-name="Trazado 144706" d="M216.507,345.392h3.162c.563,0,1.023.283,1.023.628v6.565c0,.345-.46.628-1.023.628h-3.162c-.564,0-1.024-.283-1.024-.628V346.02c0-.345.46-.628,1.024-.628Z" transform="translate(-215.483 -345.392)" fill="#404041" fill-rule="evenodd"/>
              </g>
              <g id="Grupo_123337" data-name="Grupo 123337" transform="translate(95.706 20.454)">
                <path id="Trazado_144707" data-name="Trazado 144707" d="M270.713,345.392h-3.163c-.563,0-1.023.283-1.023.628v6.565c0,.345.46.628,1.023.628h3.163c.563,0,1.024-.283,1.024-.628V346.02c0-.345-.462-.628-1.024-.628Z" transform="translate(-266.528 -345.392)" fill="#404041" fill-rule="evenodd"/>
              </g>
              <g id="Grupo_123338" data-name="Grupo 123338" transform="translate(25.01 17.867)">
                <path id="Trazado_144708" data-name="Trazado 144708" d="M218.239,348.518h-1.472v-2.327a2.746,2.746,0,0,1,2.849-2.6l3.387-.017.007,1.47-3.387.017a1.284,1.284,0,0,0-1.384,1.132Z" transform="translate(-216.767 -343.571)" fill="#404041"/>
              </g>
              <g id="Grupo_123339" data-name="Grupo 123339" transform="translate(92.849 17.867)">
                <path id="Trazado_144709" data-name="Trazado 144709" d="M270.76,348.518h-1.472v-2.327a1.286,1.286,0,0,0-1.385-1.132l-3.386-.017.007-1.47,3.387.017a2.746,2.746,0,0,1,2.849,2.6Z" transform="translate(-264.517 -343.571)" fill="#404041"/>
              </g>
              <g id="Grupo_123340" data-name="Grupo 123340" transform="translate(90.398 17.513)">
                <path id="Trazado_144710" data-name="Trazado 144710" d="M262.792,343.322h4.19v12.54h-4.19v-12.54Z" transform="translate(-262.792 -343.322)" fill="#6d6e70" fill-rule="evenodd"/>
              </g>
              <g id="Grupo_123341" data-name="Grupo 123341" transform="translate(88.97 33.267)">
                <path id="Trazado_144711" data-name="Trazado 144711" d="M261.786,354.411h6.886v5.145h-6.886v-5.145Z" transform="translate(-261.786 -354.411)" fill="#6d6e70" fill-rule="evenodd"/>
              </g>
              <g id="Grupo_123342" data-name="Grupo 123342" transform="translate(87.427 38.412)">
                <path id="Trazado_144712" data-name="Trazado 144712" d="M262.213,358.032h6.947c.831,0,1.512.226,1.512.5v9.8c0,.277-.681.5-1.512.5h-6.947c-.833,0-1.512-.226-1.512-.5v-9.8c0-.277.679-.5,1.512-.5Z" transform="translate(-260.701 -358.032)" fill="#6d6e70" fill-rule="evenodd"/>
              </g>
              <g id="Grupo_123343" data-name="Grupo 123343" transform="translate(89.576 12.751)">
                <path id="Trazado_144713" data-name="Trazado 144713" d="M262.213,339.97h5.835v4.763h-5.835V339.97Z" transform="translate(-262.213 -339.97)" fill="#929497" fill-rule="evenodd"/>
              </g>
              <g id="Grupo_123344" data-name="Grupo 123344" transform="translate(88.795 11.208)">
                <path id="Trazado_144714" data-name="Trazado 144714" d="M262.444,338.884h5.835l.755,1.543h-7.371l.78-1.543Z" transform="translate(-261.664 -338.884)" fill="#a6a8ab" fill-rule="evenodd"/>
              </g>
              <g id="Grupo_123345" data-name="Grupo 123345" transform="translate(88.954 28.136)">
                <path id="Trazado_144715" data-name="Trazado 144715" d="M262.977,350.8h4.533l1.193,5.131h-6.927l1.2-5.131Z" transform="translate(-261.775 -350.799)" fill="#929497" fill-rule="evenodd"/>
              </g>
              <g id="Grupo_123346" data-name="Grupo 123346" transform="translate(38.77 11.234)">
                <path id="Trazado_144716" data-name="Trazado 144716" d="M226.452,338.9h.9v7.642h-.9V338.9Z" transform="translate(-226.452 -338.902)" fill="#404041" fill-rule="evenodd"/>
              </g>
              <g id="Grupo_123347" data-name="Grupo 123347" transform="translate(84.434 11.234)">
                <path id="Trazado_144717" data-name="Trazado 144717" d="M259.492,338.9h-.9v7.642h.9V338.9Z" transform="translate(-258.594 -338.902)" fill="#404041" fill-rule="evenodd"/>
              </g>
              <g id="Grupo_123348" data-name="Grupo 123348" transform="translate(37.691 7.368)">
                <path id="Trazado_144718" data-name="Trazado 144718" d="M227.22,336.181h0a1.531,1.531,0,0,1,1.527,1.526v1.037a1.531,1.531,0,0,1-1.527,1.527h0a1.531,1.531,0,0,1-1.527-1.527v-1.037a1.531,1.531,0,0,1,1.527-1.526Z" transform="translate(-225.693 -336.181)" fill="#f48120" fill-rule="evenodd"/>
              </g>
              <g id="Grupo_123349" data-name="Grupo 123349" transform="translate(83.356 7.368)">
                <path id="Trazado_144719" data-name="Trazado 144719" d="M259.362,336.181h0a1.531,1.531,0,0,0-1.527,1.526v1.037a1.531,1.531,0,0,0,1.527,1.527h0a1.531,1.531,0,0,0,1.527-1.527v-1.037a1.531,1.531,0,0,0-1.527-1.526Z" transform="translate(-257.835 -336.181)" fill="#f48120" fill-rule="evenodd"/>
              </g>
              <g id="Grupo_123350" data-name="Grupo 123350" transform="translate(37.691 9.885)">
                <path id="Trazado_144720" data-name="Trazado 144720" d="M228.748,337.953V338a1.531,1.531,0,0,1-1.527,1.527h0A1.531,1.531,0,0,1,225.693,338v-.045Z" transform="translate(-225.693 -337.953)" fill="#404041" fill-rule="evenodd"/>
              </g>
              <g id="Grupo_123351" data-name="Grupo 123351" transform="translate(59.718 8.105)">
                <path id="Trazado_144721" data-name="Trazado 144721" d="M243.658,336.7h0c1.354,0,2.461.688,2.461,1.527v1.037c0,.84-1.107,1.527-2.461,1.527h0c-1.354,0-2.461-.688-2.461-1.527v-1.037c0-.84,1.107-1.527,2.461-1.527Z" transform="translate(-241.197 -336.7)" fill="#f48120" fill-rule="evenodd"/>
              </g>
              <g id="Grupo_123352" data-name="Grupo 123352" transform="translate(59.719 10.151)">
                <path id="Trazado_144722" data-name="Trazado 144722" d="M241.2,338.14h4.921v2.326H241.2V338.14Z" transform="translate(-241.197 -338.14)" fill="#00a551" fill-rule="evenodd"/>
              </g>
              <g id="Grupo_123353" data-name="Grupo 123353" transform="translate(80.2 40.764)">
                <path id="Trazado_144723" data-name="Trazado 144723" d="M256.63,364.876l.011.02a2.13,2.13,0,0,0,1.989,3.759l.013.024,10.061-2.908h0c4.107-1.149,2.063-7.827-2.533-5.649l-9.542,4.755Z" transform="translate(-255.614 -359.688)" fill="#a6a8ab" fill-rule="evenodd"/>
              </g>
              <g id="Grupo_123354" data-name="Grupo 123354" transform="translate(45.963 45.135)">
                <path id="Trazado_144724" data-name="Trazado 144724" d="M244.27,388.163a.736.736,0,0,1-.726-.625,78.966,78.966,0,0,1,0-24.156.75.75,0,0,1,.842-.611.735.735,0,0,1,.612.841,77.442,77.442,0,0,0,0,23.7.736.736,0,0,1-.615.84A.769.769,0,0,1,244.27,388.163Zm-3.7,0a.736.736,0,0,1-.726-.625,78.964,78.964,0,0,1,0-24.156.749.749,0,0,1,.842-.611.734.734,0,0,1,.611.841,77.532,77.532,0,0,0,0,23.7.735.735,0,0,1-.614.84A.785.785,0,0,1,240.571,388.163Zm-3.7,0a.736.736,0,0,1-.726-.625,78.964,78.964,0,0,1,0-24.156.749.749,0,0,1,.842-.611.735.735,0,0,1,.612.841,77.442,77.442,0,0,0,0,23.7.736.736,0,0,1-.615.84A.768.768,0,0,1,236.87,388.163Zm5.551,0a.735.735,0,0,1-.725-.625,78.876,78.876,0,0,1,0-24.156.748.748,0,0,1,.841-.611.734.734,0,0,1,.612.841,77.444,77.444,0,0,0,0,23.7.735.735,0,0,1-.615.84A.752.752,0,0,1,242.42,388.163Zm-3.7,0a.736.736,0,0,1-.726-.625,78.874,78.874,0,0,1,0-24.156.749.749,0,0,1,.842-.611.736.736,0,0,1,.612.841,77.352,77.352,0,0,0,0,23.7.736.736,0,0,1-.615.84A.768.768,0,0,1,238.721,388.163Zm-3.7,0a.735.735,0,0,1-.725-.625,78.874,78.874,0,0,1,0-24.156.747.747,0,0,1,.841-.611.734.734,0,0,1,.612.841,77.444,77.444,0,0,0,0,23.7.735.735,0,0,1-.615.84A.752.752,0,0,1,235.02,388.163Zm-1.85,0a.736.736,0,0,1-.726-.625,78.963,78.963,0,0,1,0-24.156.748.748,0,0,1,.842-.611.734.734,0,0,1,.611.841,77.533,77.533,0,0,0,0,23.7.735.735,0,0,1-.614.84A.785.785,0,0,1,233.17,388.163Z" transform="translate(-231.515 -362.764)" fill="#404041"/>
              </g>
              <g id="Grupo_123355" data-name="Grupo 123355" transform="translate(64.529 45.135)">
                <path id="Trazado_144725" data-name="Trazado 144725" d="M252.721,388.163a.785.785,0,0,1-.114-.01.735.735,0,0,1-.614-.84,77.53,77.53,0,0,0,0-23.7.734.734,0,0,1,.611-.841.748.748,0,0,1,.842.611,78.964,78.964,0,0,1,0,24.156A.736.736,0,0,1,252.721,388.163Zm-7.4,0a.785.785,0,0,1-.114-.01.735.735,0,0,1-.614-.84,77.53,77.53,0,0,0,0-23.7.734.734,0,0,1,.611-.841.744.744,0,0,1,.842.611,78.966,78.966,0,0,1,0,24.156A.736.736,0,0,1,245.32,388.163Zm11.1,0a.768.768,0,0,1-.114-.01.736.736,0,0,1-.615-.84,77.353,77.353,0,0,0,0-23.7.735.735,0,0,1,.612-.841.749.749,0,0,1,.842.611,78.874,78.874,0,0,1,0,24.156A.736.736,0,0,1,256.422,388.163Zm-1.851,0a.785.785,0,0,1-.114-.01.735.735,0,0,1-.614-.84,77.442,77.442,0,0,0,0-23.7.734.734,0,0,1,.611-.841.748.748,0,0,1,.842.611,78.875,78.875,0,0,1,0,24.156A.736.736,0,0,1,254.57,388.163Zm-3.7,0a.752.752,0,0,1-.114-.01.735.735,0,0,1-.615-.84,77.442,77.442,0,0,0,0-23.7.735.735,0,0,1,.612-.841.747.747,0,0,1,.841.611,78.784,78.784,0,0,1,0,24.156A.735.735,0,0,1,250.871,388.163Zm-1.85,0a.768.768,0,0,1-.114-.01.736.736,0,0,1-.615-.84,77.442,77.442,0,0,0,0-23.7.735.735,0,0,1,.612-.841.75.75,0,0,1,.842.611,78.965,78.965,0,0,1,0,24.156A.736.736,0,0,1,249.021,388.163Zm-1.851,0a.785.785,0,0,1-.114-.01.735.735,0,0,1-.614-.84,77.442,77.442,0,0,0,0-23.7.734.734,0,0,1,.611-.841.749.749,0,0,1,.842.611,78.874,78.874,0,0,1,0,24.156A.736.736,0,0,1,247.17,388.163Z" transform="translate(-244.583 -362.764)" fill="#404041"/>
              </g>
              <g id="Grupo_123356" data-name="Grupo 123356" transform="translate(41.122 69.785)">
                <path id="Trazado_144726" data-name="Trazado 144726" d="M269.741,380.115H228.108V389.8h41.633v-9.682Z" transform="translate(-228.108 -380.115)" fill="#17854a" fill-rule="evenodd"/>
              </g>
              <g id="Grupo_123357" data-name="Grupo 123357" transform="translate(41.122 69.785)">
                <path id="Trazado_144727" data-name="Trazado 144727" d="M269.741,380.115H228.108V381.5h41.633v-1.383Z" transform="translate(-228.108 -380.115)" fill="#00a551" fill-rule="evenodd"/>
              </g>
              <g id="Grupo_123358" data-name="Grupo 123358" transform="translate(45.769 43.421)">
                <path id="Trazado_144728" data-name="Trazado 144728" d="M231.849,361.558h13.569a45.168,45.168,0,0,0-.806,5.413,104.556,104.556,0,0,1-13.234-1.105q.192-2.137.47-4.308Zm17.794,0h13.544q.292,2.157.5,4.313a104.931,104.931,0,0,1-13.235,1.1,45.258,45.258,0,0,0-.806-5.414Z" transform="translate(-231.379 -361.558)" fill="#e6e7e8" fill-rule="evenodd"/>
              </g>
              <g id="Grupo_123359" data-name="Grupo 123359" transform="translate(47.352 44.691)">
                <path id="Trazado_144729" data-name="Trazado 144729" d="M233.695,362.452a1.2,1.2,0,1,1-1.2,1.2,1.2,1.2,0,0,1,1.2-1.2Z" transform="translate(-232.493 -362.452)" fill="#bbbdbf" fill-rule="evenodd"/>
              </g>
              <g id="Grupo_123360" data-name="Grupo 123360" transform="translate(74.373 44.691)">
                <path id="Trazado_144730" data-name="Trazado 144730" d="M252.715,362.452a1.2,1.2,0,1,0,1.2,1.2,1.2,1.2,0,0,0-1.2-1.2Z" transform="translate(-251.512 -362.452)" fill="#bbbdbf" fill-rule="evenodd"/>
              </g>
              <g id="Grupo_123361" data-name="Grupo 123361" transform="translate(51.005 44.762)">
                <path id="Trazado_144731" data-name="Trazado 144731" d="M236.405,362.5a1.341,1.341,0,1,1-1.341,1.341,1.342,1.342,0,0,1,1.341-1.341Z" transform="translate(-235.064 -362.502)" fill="#bbbdbf" fill-rule="evenodd"/>
              </g>
              <g id="Grupo_123362" data-name="Grupo 123362" transform="translate(70.443 44.762)">
                <path id="Trazado_144732" data-name="Trazado 144732" d="M250.087,362.5a1.341,1.341,0,1,0,1.341,1.341,1.342,1.342,0,0,0-1.341-1.341Z" transform="translate(-248.746 -362.502)" fill="#bbbdbf" fill-rule="evenodd"/>
              </g>
              <g id="Grupo_123363" data-name="Grupo 123363" transform="translate(54.966 44.626)">
                <path id="Trazado_144733" data-name="Trazado 144733" d="M239.527,362.406a1.675,1.675,0,1,1-1.675,1.675,1.676,1.676,0,0,1,1.675-1.675Z" transform="translate(-237.852 -362.406)" fill="#bbbdbf" fill-rule="evenodd"/>
              </g>
              <g id="Grupo_123364" data-name="Grupo 123364" transform="translate(65.813 44.626)">
                <path id="Trazado_144734" data-name="Trazado 144734" d="M247.163,362.406a1.675,1.675,0,1,0,1.675,1.675,1.676,1.676,0,0,0-1.675-1.675Z" transform="translate(-245.487 -362.406)" fill="#bbbdbf" fill-rule="evenodd"/>
              </g>
              <g id="Grupo_123365" data-name="Grupo 123365" transform="translate(60.22 51.064)">
                <path id="Trazado_144735" data-name="Trazado 144735" d="M242.161,366.938h2.215a.612.612,0,0,1,.611.611v2.213a.612.612,0,0,1-.611.611h-2.215a.613.613,0,0,1-.611-.611v-2.213a.613.613,0,0,1,.611-.611Z" transform="translate(-241.55 -366.938)" fill="#00a551" fill-rule="evenodd"/>
              </g>
              <g id="Grupo_123366" data-name="Grupo 123366" transform="translate(88.581 33.267)">
                <path id="Trazado_144736" data-name="Trazado 144736" d="M261.951,354.411h6.787a.407.407,0,0,1,.439.361v.138a.407.407,0,0,1-.439.361h-6.787a.405.405,0,0,1-.438-.361v-.138a.405.405,0,0,1,.438-.361Z" transform="translate(-261.513 -354.411)" fill="#a6a8ab" fill-rule="evenodd"/>
              </g>
              <g id="Grupo_123367" data-name="Grupo 123367" transform="translate(87.427 38.358)">
                <path id="Trazado_144737" data-name="Trazado 144737" d="M261.271,357.994h8.83c.314,0,.57.162.57.361v.139c0,.2-.256.361-.57.361h-8.83c-.314,0-.57-.163-.57-.361v-.139c0-.2.256-.361.57-.361Z" transform="translate(-260.701 -357.994)" fill="#a6a8ab" fill-rule="evenodd"/>
              </g>
              <g id="Grupo_123368" data-name="Grupo 123368" transform="translate(89.833 27.707)">
                <path id="Trazado_144738" data-name="Trazado 144738" d="M262.688,350.5h4.57a.333.333,0,0,1,.3.359V351a.333.333,0,0,1-.3.361h-4.57a.333.333,0,0,1-.294-.361v-.139a.333.333,0,0,1,.294-.359Z" transform="translate(-262.394 -350.497)" fill="#a6a8ab" fill-rule="evenodd"/>
              </g>
              <g id="Grupo_123369" data-name="Grupo 123369" transform="translate(29.902 20.991)">
                <path id="Trazado_144739" data-name="Trazado 144739" d="M220.862,345.77h10.113c.358,0,.652.162.652.359v.139c0,.2-.294.361-.652.361H220.862c-.358,0-.652-.162-.652-.361v-.139c0-.2.294-.359.652-.359Z" transform="translate(-220.21 -345.77)" fill="#a6a8ab" fill-rule="evenodd"/>
              </g>
              <g id="Grupo_123370" data-name="Grupo 123370" transform="translate(32.827 15.244)">
                <path id="Trazado_144740" data-name="Trazado 144740" d="M222.579,341.725h4.8a.314.314,0,0,1,.31.317v.121a.314.314,0,0,1-.31.317h-4.8a.314.314,0,0,1-.31-.317v-.121a.314.314,0,0,1,.31-.317Z" transform="translate(-222.269 -341.725)" fill="#a6a8ab" fill-rule="evenodd"/>
              </g>
              <g id="Grupo_123371" data-name="Grupo 123371" transform="translate(32.827 17.823)">
                <path id="Trazado_144741" data-name="Trazado 144741" d="M222.579,343.54h4.8a.314.314,0,0,1,.31.315v.122a.313.313,0,0,1-.31.315h-4.8a.313.313,0,0,1-.31-.315v-.122a.314.314,0,0,1,.31-.315Z" transform="translate(-222.269 -343.54)" fill="#a6a8ab" fill-rule="evenodd"/>
              </g>
              <g id="Grupo_123372" data-name="Grupo 123372" transform="translate(33.428 13.659)">
                <path id="Trazado_144742" data-name="Trazado 144742" d="M222.934,340.609h3.739a.286.286,0,0,1,.24.315v.122a.287.287,0,0,1-.24.315h-3.739a.287.287,0,0,1-.242-.315v-.122a.287.287,0,0,1,.242-.315Z" transform="translate(-222.692 -340.609)" fill="#a6a8ab" fill-rule="evenodd"/>
              </g>
              <g id="Grupo_123373" data-name="Grupo 123373" transform="translate(62.171 16.878)">
                <path id="Trazado_144743" data-name="Trazado 144743" d="M242.979,342.973h0a.261.261,0,0,1,.367-.041l13.775,10.952a.261.261,0,0,1,.041.367h0a.262.262,0,0,1-.367.043l-13.774-10.955a.261.261,0,0,1-.043-.365Z" transform="translate(-242.924 -342.875)" fill="#404041" fill-rule="evenodd"/>
              </g>
            </g>
          </g>
          <g id="Grupo_123376" data-name="Grupo 123376" transform="translate(235.15 443.602)">
            <path id="Trazado_144744" data-name="Trazado 144744" d="M222.319,411.118c1.7-.291,3.673.168,5.223-.325.541-.45-.081-1.12-.969-1.31a7.192,7.192,0,0,0-2.776.126,9.982,9.982,0,0,1-2.766.29c.117-.125-.08-.267-.259-.362l-1.428-.76a14.158,14.158,0,0,0-4.255.9c.3.124.611.236.923.348l3.219,1.154a4.079,4.079,0,0,0,.9.243A7.738,7.738,0,0,0,222.319,411.118Z" transform="translate(-215.089 -408.777)" fill="#a88585"/>
          </g>
          <g id="Grupo_123377" data-name="Grupo 123377" transform="translate(228.825 443.963)">
            <path id="Trazado_144745" data-name="Trazado 144745" d="M213.389,410.99a3.33,3.33,0,0,0,1.5-.078,1.482,1.482,0,0,0,.547-.419l1.063-1.149a25.023,25.023,0,0,0-5.858-.239,1.091,1.091,0,0,1,.756.8,1.668,1.668,0,0,0,.026.357C211.57,410.731,212.566,410.908,213.389,410.99Z" transform="translate(-210.637 -409.031)" fill="#a88585"/>
          </g>
          <g id="Grupo_123378" data-name="Grupo 123378" transform="translate(294.293 440.943)">
            <path id="Trazado_144746" data-name="Trazado 144746" d="M256.8,408.277a1.793,1.793,0,0,0,.936.543,6.51,6.51,0,0,0,4.3-.226,6.877,6.877,0,0,1,2.336-.99c.47-.047.955.024,1.429-.011s.983-.242.925-.517l-6.447-.158a8.57,8.57,0,0,0-2.464.175C257.063,407.3,256.5,407.825,256.8,408.277Z" transform="translate(-256.718 -406.906)" fill="#a88585"/>
          </g>
          <g id="Grupo_123379" data-name="Grupo 123379" transform="translate(217.501 441.788)">
            <ellipse id="Elipse_4864" data-name="Elipse 4864" cx="3.374" cy="1.243" rx="3.374" ry="1.243" fill="#a88585"/>
          </g>
          <g id="Grupo_123380" data-name="Grupo 123380" transform="translate(223.894 437.289)">
            <ellipse id="Elipse_4865" data-name="Elipse 4865" cx="3.374" cy="1.243" rx="3.374" ry="1.243" fill="#a88585"/>
          </g>
          <g id="Grupo_123381" data-name="Grupo 123381" transform="translate(300.849 443.919)">
            <ellipse id="Elipse_4866" data-name="Elipse 4866" cx="3.374" cy="1.243" rx="3.374" ry="1.243" transform="translate(0)" fill="#a88585"/>
          </g>
          <g id="Grupo_123382" data-name="Grupo 123382" transform="translate(268.292 441.314)">
            <path id="Trazado_144747" data-name="Trazado 144747" d="M241.952,407.818c0,.359-.791.651-1.767.651s-1.767-.291-1.767-.651.791-.651,1.767-.651S241.952,407.458,241.952,407.818Z" transform="translate(-238.417 -407.167)" fill="#a88585" fill-rule="evenodd"/>
          </g>
          <g id="Grupo_123383" data-name="Grupo 123383" transform="translate(236.799 438.494)">
            <path id="Trazado_144748" data-name="Trazado 144748" d="M222.878,406.4c0,.673-1.483,1.22-3.313,1.22s-3.314-.547-3.314-1.22,1.483-1.222,3.314-1.222S222.878,405.729,222.878,406.4Z" transform="translate(-216.25 -405.182)" fill="#7c5757" fill-rule="evenodd"/>
          </g>
          <g id="Grupo_123384" data-name="Grupo 123384" transform="translate(210.753 436.956)">
            <ellipse id="Elipse_4867" data-name="Elipse 4867" cx="2.671" cy="0.984" rx="2.671" ry="0.984" fill="#7c5757"/>
          </g>
          <g id="Grupo_123385" data-name="Grupo 123385" transform="translate(308.426 439.324)">
            <ellipse id="Elipse_4868" data-name="Elipse 4868" cx="2.671" cy="0.984" rx="2.671" ry="0.984" transform="translate(0)" fill="#7c5757"/>
          </g>
        </g>
      </g>
    </g>
    <rect id="Rect치ngulo_34631" data-name="Rect치ngulo 34631" width="190" height="8" transform="translate(495 6060.001)" fill="#023055"/>
  </g>
</svg>
