<svg xmlns="http://www.w3.org/2000/svg" width="191" height="155" viewBox="0 0 191 155">
  <g id="Grupo_130307" data-name="Grupo 130307" transform="translate(-1125 -6252.001)">
    <g id="Grupo_126332" data-name="Grupo 126332" transform="translate(0 -3.999)">
      <rect id="Rectángulo_33964" data-name="Rectángulo 33964" width="190" height="155" transform="translate(1125 6256)" fill="#f6f6f6"/>
      <g id="Grupo_126331" data-name="Grupo 126331" transform="translate(744.139 6097.688)">
        <g id="Grupo_126294" data-name="Grupo 126294" transform="translate(444.833 165.312)">
          <g id="Grupo_126287" data-name="Grupo 126287" transform="translate(0 17.044)">
            <g id="Grupo_126285" data-name="Grupo 126285">
              <path id="Trazado_145650" data-name="Trazado 145650" d="M7.288,0A7.288,7.288,0,1,1,0,7.288,7.288,7.288,0,0,1,7.288,0Z" transform="matrix(0.53, -0.848, 0.848, 0.53, 0, 12.357)" fill="#ad1457"/>
            </g>
            <g id="Grupo_126286" data-name="Grupo 126286" transform="translate(7.425 6.268)" opacity="0.99">
              <path id="Trazado_145604" data-name="Trazado 145604" d="M485.94,201.647a3.422,3.422,0,0,1-.413.811,1.991,1.991,0,0,1-.5.5,1.267,1.267,0,0,1-.534.212,1.107,1.107,0,0,1-.969-.359,1.261,1.261,0,0,1-.267-.509,2.051,2.051,0,0,1-.055-.7,3.3,3.3,0,0,1,.211-.885,3.349,3.349,0,0,1,.419-.814,2.133,2.133,0,0,1,.5-.505,1.244,1.244,0,0,1,.536-.215,1.11,1.11,0,0,1,.969.359,1.235,1.235,0,0,1,.266.512,2.038,2.038,0,0,1,.048.71A3.493,3.493,0,0,1,485.94,201.647Zm3.189-.757a.141.141,0,0,1-.039.056.76.76,0,0,0-.06.058l-4.882,4.363a.384.384,0,0,1-.123.077.214.214,0,0,1-.136-.013l-.19-.07a.137.137,0,0,1-.1-.2.131.131,0,0,1,.039-.056.747.747,0,0,0,.06-.058l4.874-4.366a.237.237,0,0,1,.267-.061l.19.07A.138.138,0,0,1,489.128,200.891Zm-3.841.487a2.98,2.98,0,0,0,.256-1.208c-.029-.271-.128-.438-.3-.5a.528.528,0,0,0-.553.185,2.96,2.96,0,0,0-.595,1.082,4.739,4.739,0,0,0-.209.7,2.072,2.072,0,0,0-.045.505.633.633,0,0,0,.1.327.43.43,0,0,0,.205.166.435.435,0,0,0,.266.009.637.637,0,0,0,.285-.186,2.074,2.074,0,0,0,.295-.413A4.665,4.665,0,0,0,485.287,201.378Zm4.022,3.975a3.373,3.373,0,0,1-.419.814,2.058,2.058,0,0,1-.5.5,1.262,1.262,0,0,1-.534.211,1.1,1.1,0,0,1-.529-.06,1.076,1.076,0,0,1-.438-.3,1.252,1.252,0,0,1-.269-.508,1.989,1.989,0,0,1-.049-.705,3.968,3.968,0,0,1,.631-1.7,1.986,1.986,0,0,1,.5-.5,1.259,1.259,0,0,1,.536-.211,1.084,1.084,0,0,1,.527.059,1.1,1.1,0,0,1,.44.3,1.24,1.24,0,0,1,.267.509,2.033,2.033,0,0,1,.054.706A3.331,3.331,0,0,1,489.309,205.352Zm-.664-.265a2.958,2.958,0,0,0,.255-1.208q-.041-.406-.3-.5a.534.534,0,0,0-.554.185,2.982,2.982,0,0,0-.594,1.083,4.637,4.637,0,0,0-.209.7,2.039,2.039,0,0,0-.046.5.65.65,0,0,0,.1.327.42.42,0,0,0,.472.175.641.641,0,0,0,.285-.186,2.034,2.034,0,0,0,.294-.413A4.632,4.632,0,0,0,488.645,205.087Z" transform="translate(-483.198 -199.168)" fill="#fff"/>
            </g>
          </g>
          <g id="Grupo_126290" data-name="Grupo 126290" transform="translate(28.386 6.869)">
            <g id="Grupo_126288" data-name="Grupo 126288">
              <path id="Trazado_145605" data-name="Trazado 145605" d="M532.168,180.643a9.8,9.8,0,1,1-13.175-4.285A9.8,9.8,0,0,1,532.168,180.643Z" transform="translate(-513.639 -175.289)" fill="#ad1457"/>
            </g>
            <g id="Grupo_126289" data-name="Grupo 126289" transform="translate(5.102 6.085)" opacity="0.99">
              <path id="Trazado_145606" data-name="Trazado 145606" d="M528.613,187.246a2.187,2.187,0,0,1,.564.727,2.271,2.271,0,0,1,.218.867,2.568,2.568,0,0,1-.14.936,3.3,3.3,0,0,1-.506.934l.765.658a.21.21,0,0,1,.008.335.2.2,0,0,1-.325.033l-.765-.658a3.3,3.3,0,0,1-.911.687,3.069,3.069,0,0,1-.912.3,2.188,2.188,0,0,1-.8-.02,1.3,1.3,0,0,1-.567-.26.606.606,0,0,1-.231-.4.537.537,0,0,1,.152-.423.588.588,0,0,1,.358-.216.888.888,0,0,1,.4.041,2.891,2.891,0,0,0,.46.129,1.865,1.865,0,0,0,.465.032,1.456,1.456,0,0,0,.94-.42l-2.356-2.026q-.413.224-.842.434a3.486,3.486,0,0,1-.869.293,2.236,2.236,0,0,1-.884-.01,2.022,2.022,0,0,1-.894-.479,2.314,2.314,0,0,1-.542-.67,1.876,1.876,0,0,1-.221-.808,2.447,2.447,0,0,1,.138-.9,3.37,3.37,0,0,1,.526-.947l-.71-.611a.2.2,0,0,1-.016-.326.21.21,0,0,1,.333-.042l.71.61a3.024,3.024,0,0,1,.864-.649,2.773,2.773,0,0,1,.8-.254,1.717,1.717,0,0,1,.658.026,1.079,1.079,0,0,1,.423.191.518.518,0,0,1,.209.384.57.57,0,0,1-.151.386.533.533,0,0,1-.322.192.814.814,0,0,1-.38-.03,2.591,2.591,0,0,0-.771-.114,1.263,1.263,0,0,0-.768.356l2.231,1.918q.412-.224.859-.443a3.486,3.486,0,0,1,.9-.3,2.334,2.334,0,0,1,.931.018A2.223,2.223,0,0,1,528.613,187.246Zm-6.225-1.364a1.626,1.626,0,0,0-.354,1,1.252,1.252,0,0,0,.5.921,1.1,1.1,0,0,0,.47.255,1.313,1.313,0,0,0,.485.019,2.107,2.107,0,0,0,.5-.139c.169-.069.342-.146.521-.233ZM528,188.235a1.359,1.359,0,0,0-.51-.29,1.435,1.435,0,0,0-.521-.049,2.036,2.036,0,0,0-.529.124c-.178.066-.361.143-.551.231l2.248,1.933a1.585,1.585,0,0,0,.354-1.056A1.3,1.3,0,0,0,528,188.235Z" transform="translate(-521.049 -184.126)" fill="#fff"/>
            </g>
          </g>
          <g id="Grupo_126293" data-name="Grupo 126293" transform="translate(6.311)">
            <g id="Grupo_126291" data-name="Grupo 126291">
              <path id="Trazado_145607" data-name="Trazado 145607" d="M488.114,173.448a4.359,4.359,0,1,1,1.6-5.952A4.359,4.359,0,0,1,488.114,173.448Z" transform="translate(-481.579 -165.312)" fill="#ad1457"/>
            </g>
            <g id="Grupo_126292" data-name="Grupo 126292" transform="translate(2.492 2.175)" opacity="0.99">
              <path id="Trazado_145608" data-name="Trazado 145608" d="M487.406,171.892a.987.987,0,0,1-.311.268,1.014,1.014,0,0,1-.379.116,1.148,1.148,0,0,1-.419-.04,1.465,1.465,0,0,1-.426-.2l-.275.355a.093.093,0,0,1-.149.012.092.092,0,0,1-.023-.145l.275-.355a1.461,1.461,0,0,1-.327-.389,1.381,1.381,0,0,1-.153-.4.969.969,0,0,1-.008-.355.579.579,0,0,1,.1-.258.275.275,0,0,1,.17-.112.247.247,0,0,1,.192.058.268.268,0,0,1,.1.154.385.385,0,0,1-.01.18,1.26,1.26,0,0,0-.047.207.812.812,0,0,0,0,.208.662.662,0,0,0,.058.205.693.693,0,0,0,.15.2l.846-1.093c-.072-.118-.143-.24-.211-.364a1.522,1.522,0,0,1-.15-.379,1.016,1.016,0,0,1-.017-.392.9.9,0,0,1,.193-.409,1.032,1.032,0,0,1,.285-.255.825.825,0,0,1,.354-.116,1.041,1.041,0,0,1,.4.041,1.456,1.456,0,0,1,.432.211l.256-.329a.09.09,0,0,1,.145-.015c.058.045.067.094.026.147l-.255.33a1.31,1.31,0,0,1,.309.369,1.242,1.242,0,0,1,.132.35.794.794,0,0,1,0,.293.472.472,0,0,1-.075.193.232.232,0,0,1-.166.1.251.251,0,0,1-.175-.058.241.241,0,0,1-.092-.139.346.346,0,0,1,0-.169,1.163,1.163,0,0,0,.032-.345.559.559,0,0,0-.176-.334l-.8,1.035c.073.119.145.243.217.372a1.594,1.594,0,0,1,.156.394,1.056,1.056,0,0,1,.012.414A.988.988,0,0,1,487.406,171.892Zm-.453-.251a.608.608,0,0,0,.117-.233.662.662,0,0,0,.01-.233.923.923,0,0,0-.067-.232c-.034-.077-.072-.158-.115-.24l-.808,1.044a.7.7,0,0,0,.478.133A.578.578,0,0,0,486.953,171.641Zm.916-2.547a.72.72,0,0,0-.453-.134.564.564,0,0,0-.4.243.5.5,0,0,0-.1.214.6.6,0,0,0,0,.216.938.938,0,0,0,.074.221c.034.072.072.148.116.224Z" transform="translate(-485.199 -168.471)" fill="#fff"/>
            </g>
          </g>
        </g>
        <g id="Grupo_126317" data-name="Grupo 126317" transform="translate(383.861 204.791)">
          <g id="Grupo_126301" data-name="Grupo 126301" transform="translate(0 0)">
            <g id="Grupo_126295" data-name="Grupo 126295" transform="translate(21.512)">
              <rect id="Rectángulo_34520" data-name="Rectángulo 34520" width="144.801" height="90.476" rx="11.865" fill="#023055"/>
            </g>
            <g id="Grupo_126299" data-name="Grupo 126299" transform="translate(25.116 3.467)">
              <g id="Grupo_126296" data-name="Grupo 126296" opacity="0.95">
                <path id="Trazado_145609" data-name="Trazado 145609" d="M427.545,227.684a7.207,7.207,0,0,0-7.207,7.207V274.1l55.889-46.413Z" transform="translate(-420.338 -227.684)" fill="#fff"/>
              </g>
              <g id="Grupo_126297" data-name="Grupo 126297" transform="translate(0 41.36)" opacity="0.95">
                <path id="Trazado_145610" data-name="Trazado 145610" d="M420.338,317.882v7.276a7.207,7.207,0,0,0,7.207,7.207H550.724a7.207,7.207,0,0,0,7.208-7.207V287.753Z" transform="translate(-420.338 -287.753)" fill="#fff"/>
              </g>
              <g id="Grupo_126298" data-name="Grupo 126298" opacity="0.99">
                <path id="Trazado_145611" data-name="Trazado 145611" d="M557.931,234.891a7.207,7.207,0,0,0-7.208-7.207h-74.5L420.338,274.1v25.076l137.593-30.129Z" transform="translate(-420.338 -227.684)" fill="#fff"/>
              </g>
            </g>
            <g id="Grupo_126300" data-name="Grupo 126300" transform="translate(0 84.412)">
              <path id="Trazado_145612" data-name="Trazado 145612" d="M557.053,357.039h-161.4a11.793,11.793,0,0,1-11.793-11.794H568.847A11.794,11.794,0,0,1,557.053,357.039Z" transform="translate(-383.861 -345.245)" fill="#023055"/>
            </g>
          </g>
          <g id="Grupo_126311" data-name="Grupo 126311" transform="translate(34.271 8.159)">
            <g id="Grupo_126302" data-name="Grupo 126302" opacity="0.43">
              <rect id="Rectángulo_34521" data-name="Rectángulo 34521" width="64.886" height="7.404" fill="#b0c0f9"/>
            </g>
            <g id="Grupo_126303" data-name="Grupo 126303" transform="translate(79.034)" opacity="0.43">
              <rect id="Rectángulo_34522" data-name="Rectángulo 34522" width="41.105" height="7.404" fill="#b0c0f9"/>
            </g>
            <g id="Grupo_126304" data-name="Grupo 126304" transform="translate(2.457 14.838)" opacity="0.43">
              <rect id="Rectángulo_34523" data-name="Rectángulo 34523" width="40.816" height="31.607" fill="#b0c0f9"/>
            </g>
            <g id="Grupo_126305" data-name="Grupo 126305" transform="translate(79.306 14.838)" opacity="0.43">
              <rect id="Rectángulo_34524" data-name="Rectángulo 34524" width="40.816" height="31.607" fill="#b0c0f9"/>
            </g>
            <g id="Grupo_126306" data-name="Grupo 126306" transform="translate(0.991 52.77)" opacity="0.43">
              <circle id="Elipse_4878" data-name="Elipse 4878" cx="7.248" cy="7.248" r="7.248" transform="matrix(0.229, -0.973, 0.973, 0.229, 0, 14.111)" fill="#b0c0f9"/>
            </g>
            <g id="Grupo_126307" data-name="Grupo 126307" transform="translate(22.193 51.233)" opacity="0.43">
              <circle id="Elipse_4879" data-name="Elipse 4879" cx="7.248" cy="7.248" r="7.248" transform="translate(0 10.25) rotate(-45)" fill="#b0c0f9"/>
            </g>
            <g id="Grupo_126310" data-name="Grupo 126310" transform="translate(34.254 13.825)">
              <g id="Grupo_126308" data-name="Grupo 126308" transform="translate(-24.746 27.864)">
                <path id="Rectángulo_34525" data-name="Rectángulo 34525" d="M4,0H20.7a4.1,4.1,0,0,1,4.1,4.1v0a4.1,4.1,0,0,1-4.1,4.1H4.1A4.1,4.1,0,0,1,0,4.1V4A4,4,0,0,1,4,0Z" fill="#b0c0f9"/>
              </g>
            </g>
          </g>
          <g id="Grupo_126316" data-name="Grupo 126316" transform="translate(23.145 0.241)">
            <g id="Grupo_126312" data-name="Grupo 126312" transform="translate(0 15.928)">
              <path id="Trazado_145623" data-name="Trazado 145623" d="M438.721,246.133l-21.246,8.335,7.765,26.271,26.226-10.491Zm-9.985,6.759a.865.865,0,1,1,.865-.865A.864.864,0,0,1,428.737,252.892Z" transform="translate(-417.475 -246.133)" fill="#db6464"/>
            </g>
            <g id="Grupo_126314" data-name="Grupo 126314" transform="translate(9.911)">
              <g id="Grupo_126313" data-name="Grupo 126313">
                <path id="Trazado_145624" data-name="Trazado 145624" d="M433.72,244.4a16.505,16.505,0,0,1-.908-8.864,17.915,17.915,0,0,1,1.38-4.3,8.376,8.376,0,0,0,.941-4.088,7.091,7.091,0,0,0-1.614-4.036c-.288-.349-.782.151-.5.5a6.3,6.3,0,0,1,1.419,3.745,9.454,9.454,0,0,1-1.154,4.189,17.072,17.072,0,0,0-.246,13.038c.164.416.843.235.678-.187Z" transform="translate(-431.869 -223)" fill="#3e0793"/>
              </g>
            </g>
            <g id="Grupo_126315" data-name="Grupo 126315" transform="translate(5.719 27.31)">
              <path id="Trazado_145625" data-name="Trazado 145625" d="M430.373,273.983a1.584,1.584,0,0,1,.125.643,1.443,1.443,0,0,1-.154.615,1.766,1.766,0,0,1-.43.539,2.519,2.519,0,0,1-.7.419,2.166,2.166,0,0,1-.79.173,2.079,2.079,0,0,1-.682-.1,1.541,1.541,0,0,1-.508-.27.9.9,0,0,1-.276-.341.427.427,0,0,1-.008-.361.471.471,0,0,1,.262-.233.477.477,0,0,1,.322-.028.584.584,0,0,1,.257.157,2.8,2.8,0,0,0,.217.2,1.08,1.08,0,0,0,.285.171,1.042,1.042,0,0,0,.339.08.948.948,0,0,0,.883-.542.862.862,0,0,0-.023-.643.849.849,0,0,0-.4-.463,1.806,1.806,0,0,0-.609-.175,6.888,6.888,0,0,0-.719-.046,3.776,3.776,0,0,1-.733-.084,1.927,1.927,0,0,1-.649-.272,1.314,1.314,0,0,1-.47-.622,1.485,1.485,0,0,1-.118-.66,1.44,1.44,0,0,1,.169-.6,1.734,1.734,0,0,1,.416-.5,2.348,2.348,0,0,1,.625-.371,2.127,2.127,0,0,1,.759-.176,1.932,1.932,0,0,1,.612.076,1.222,1.222,0,0,1,.434.228.77.77,0,0,1,.221.273.417.417,0,0,1,.008.347.462.462,0,0,1-.253.226.4.4,0,0,1-.28.019.68.68,0,0,1-.244-.145,1.7,1.7,0,0,0-.2-.167,1.164,1.164,0,0,0-.242-.132.836.836,0,0,0-.281-.054.8.8,0,0,0-.322.066.847.847,0,0,0-.481.437.822.822,0,0,0,.022.66.7.7,0,0,0,.384.4,1.94,1.94,0,0,0,.6.137c.226.019.467.028.721.032a3.312,3.312,0,0,1,.746.092,1.908,1.908,0,0,1,.673.305A1.516,1.516,0,0,1,430.373,273.983Z" transform="translate(-425.781 -265.104)" fill="#f2f3f7"/>
              <path id="Trazado_145626" data-name="Trazado 145626" d="M438.405,272.362a.121.121,0,0,1-.074.179l-.673.277a.18.18,0,0,1-.217-.06l-1.1-1.235-1.8.742.085,1.652a.271.271,0,0,1-.018.116.161.161,0,0,1-.1.079l-.546.224a.121.121,0,0,1-.179-.074.215.215,0,0,1-.016-.06.444.444,0,0,1,0-.072l-.22-5.646a.3.3,0,0,1,.018-.116.175.175,0,0,1,.1-.081l.629-.258a.184.184,0,0,1,.223.056l3.812,4.171A.339.339,0,0,1,438.405,272.362Zm-3.579-2.649a2.907,2.907,0,0,1-.236-.288q-.113-.155-.2-.284c-.065-.1-.129-.2-.192-.3l-.014.006c.023.114.047.229.072.346s.039.218.058.343.034.249.042.368l.109,1.756,1.511-.62Z" transform="translate(-428.199 -264.329)" fill="#f2f3f7"/>
              <path id="Trazado_145627" data-name="Trazado 145627" d="M443.4,270.31a.121.121,0,0,1-.075.179l-2.5,1.027a.122.122,0,0,1-.18-.075l-2.065-5.028a.122.122,0,0,1,.075-.18l.673-.276a.121.121,0,0,1,.18.074l1.865,4.542,1.7-.7a.123.123,0,0,1,.18.075Z" transform="translate(-429.762 -263.685)" fill="#f2f3f7"/>
              <path id="Trazado_145628" data-name="Trazado 145628" d="M448.681,267.78a.124.124,0,0,1-.083.182l-2.6,1.07a.122.122,0,0,1-.18-.075l-2.065-5.028a.122.122,0,0,1,.075-.18l2.6-1.069a.125.125,0,0,1,.187.071l.14.339a.128.128,0,0,1-.08.189l-1.8.74.675,1.646,1.526-.627a.123.123,0,0,1,.18.076l.136.333a.126.126,0,0,1-.072.189l-1.525.627.749,1.825,1.8-.741a.125.125,0,0,1,.186.072Z" transform="translate(-431.373 -262.664)" fill="#f2f3f7"/>
            </g>
          </g>
        </g>
        <g id="Grupo_126330" data-name="Grupo 126330" transform="translate(458.547 219.518)">
          <path id="Trazado_145629" data-name="Trazado 145629" d="M593.041,361.425a5.192,5.192,0,0,1,.488,1.5.808.808,0,0,1-.084.633.883.883,0,0,1-.479.25c-2.094.588-6.533,1.55-6.056,2.395a1.067,1.067,0,0,0,.91.357,43.29,43.29,0,0,0,8.061-.366,1.556,1.556,0,0,0,1.14-.514c.306-.457.062-1.065-.16-1.568a15,15,0,0,1-1.119-3.934" transform="translate(-521.777 -280.21)" fill="#231f20"/>
          <path id="Trazado_145630" data-name="Trazado 145630" d="M569.678,360.9a5.2,5.2,0,0,1,.474,1.5.808.808,0,0,1-.09.631.88.88,0,0,1-.482.245c-2.1.568-6.548,1.484-6.08,2.334a1.07,1.07,0,0,0,.906.367,43.306,43.306,0,0,0,8.064-.285,1.559,1.559,0,0,0,1.146-.5c.31-.454.072-1.064-.144-1.569-.538-1.257-.129-3.1-.306-4.456" transform="translate(-514.487 -279.897)" fill="#231f20"/>
          <path id="Trazado_145631" data-name="Trazado 145631" d="M591.533,342.379q-.808-5.041-1.616-10.082c-.432-2.7-.865-5.4-1.06-8.123-.163-2.277-.159-4.563-.155-6.846q.009-5.273.019-10.545a12.528,12.528,0,0,0-.627-4.83l-6.111.648h-6.759c-.516,4.149-1.7,8.184-2.5,12.287a68.333,68.333,0,0,0-1.261,14.288c.026,1.46.1,2.919.169,4.378l.5,10.154a.559.559,0,0,0,.68.646l3.268.1c.691-6.934-.419-14.091,1.476-20.8a44.125,44.125,0,0,1,2.146-5.643c.284-.648.683-1.522,1.151-2.523,1.311,6.989,3.023,13.907,4.783,20.8.595,2.332,1.2,4.666,2,6.934a2.269,2.269,0,0,0,.491.9c.693.673,1.838.263,2.7-.18a1.159,1.159,0,0,0,.7-1.571Z" transform="translate(-516.974 -262.076)" fill="#101e29"/>
          <g id="Grupo_126322" data-name="Grupo 126322" transform="translate(57.478 0)">
            <path id="Trazado_145632" data-name="Trazado 145632" d="M581.276,262.306a14.053,14.053,0,0,1-.535,4.759,2.107,2.107,0,0,0-.132,1.067,1.449,1.449,0,0,0,.724.85,2.748,2.748,0,0,0,4.067-1.756,8.292,8.292,0,0,0-.337-3.218,10.287,10.287,0,0,1,.34-3.525" transform="translate(-577.295 -249.16)" fill="#e28171"/>
            <g id="Grupo_126321" data-name="Grupo 126321">
              <path id="Trazado_145633" data-name="Trazado 145633" d="M579.532,251.529a7.588,7.588,0,0,0-1.969,3.666c-.063.53-.013,1.073-.114,1.6-.054.282-.152.556-.2.84a4.682,4.682,0,0,0,.935,2.983,1.568,1.568,0,0,0,.633.7,1.392,1.392,0,0,0,.737.063,6.452,6.452,0,0,0,5.711-6.72" transform="translate(-576.249 -246.371)" fill="#f49987"/>
              <path id="Trazado_145634" data-name="Trazado 145634" d="M583.726,255.168a1.886,1.886,0,0,0-.409-1.832,4.049,4.049,0,0,0-1.535-.462q-1.059-.182-2.1-.463a5.786,5.786,0,0,1-1.343-.5,6.677,6.677,0,0,1-2.219-2.566,3.6,3.6,0,0,0,2.154.253,1.6,1.6,0,0,1-.879-.62,6.839,6.839,0,0,1-1.564-4.94,7.3,7.3,0,0,0,4.44,3,5.316,5.316,0,0,1-.778-1.919c.324.017.557.3.826.486a2.626,2.626,0,0,0,.761.317,19.814,19.814,0,0,1,4.224,1.394c1.3.724,2.107,1.6,1.989,3.085-.048.6.118,1.3.045,1.9a8.411,8.411,0,0,1-.176,1.207,6.035,6.035,0,0,1-1.173,2.249,9.769,9.769,0,0,1-2.464,2.08" transform="translate(-575.808 -244.038)" fill="#231f20"/>
              <g id="Grupo_126320" data-name="Grupo 126320" transform="translate(1.274 8.27)">
                <path id="Trazado_145635" data-name="Trazado 145635" d="M586.917,259.871a1.079,1.079,0,0,1,.523-.776.972.972,0,0,1,.425-.173.464.464,0,0,1,.538.56,1,1,0,0,1-.181.41,1.983,1.983,0,0,1-.965.739.556.556,0,0,1-.618-.076" transform="translate(-580.456 -256.942)" fill="#f49987"/>
                <g id="Grupo_126319" data-name="Grupo 126319">
                  <g id="Grupo_126318" data-name="Grupo 126318" transform="translate(1.019 0.628)">
                    <path id="Trazado_145636" data-name="Trazado 145636" d="M580.106,257.09a3.242,3.242,0,0,1-.917,1.887.177.177,0,0,0,0,.248,1.836,1.836,0,0,0,1.086.472.176.176,0,0,0,.176-.176.18.18,0,0,0-.176-.176,1.658,1.658,0,0,1-.643-.222.73.73,0,0,1-.195-.147v.248a3.133,3.133,0,0,0,.8-1.286,4.1,4.1,0,0,0,.2-.757.182.182,0,0,0-.123-.216.177.177,0,0,0-.216.123Z" transform="translate(-579.138 -256.961)" fill="#e28171"/>
                  </g>
                  <path id="Trazado_145637" data-name="Trazado 145637" d="M578.565,257.824c-.041.2-.169.34-.289.316s-.183-.205-.143-.4.169-.34.289-.316S578.605,257.625,578.565,257.824Z" transform="translate(-577.803 -256.475)" fill="#231f20"/>
                  <path id="Trazado_145638" data-name="Trazado 145638" d="M583.182,258.574c-.04.2-.169.34-.289.316s-.183-.2-.143-.4.169-.34.289-.315S583.223,258.375,583.182,258.574Z" transform="translate(-579.241 -256.708)" fill="#231f20"/>
                  <path id="Trazado_145639" data-name="Trazado 145639" d="M582.555,256.726s1.759.15,1.887.658a8.539,8.539,0,0,0-1.76-.215C582.063,257.2,582.286,256.718,582.555,256.726Z" transform="translate(-579.1 -256.259)" fill="#231f20"/>
                  <path id="Trazado_145640" data-name="Trazado 145640" d="M579.389,256.213s-1.446-.4-1.73.04a6.193,6.193,0,0,1,1.47.335C579.61,256.8,579.606,256.288,579.389,256.213Z" transform="translate(-577.659 -256.048)" fill="#231f20"/>
                  <path id="Trazado_145641" data-name="Trazado 145641" d="M578.842,261.87l2.294.273S579.606,263.747,578.842,261.87Z" transform="translate(-578.027 -257.861)" fill="#fff"/>
                </g>
              </g>
            </g>
          </g>
          <path id="Trazado_145642" data-name="Trazado 145642" d="M561.619,276.781c-.781.848-1.816,1.4-2.673,2.172-.635.571-.585.687-.965.717-.651.051-1.332-.66-1.869-1.033a38.733,38.733,0,0,0-6.806-3.608c-.532-.242-1.668-1-2.539-1.447a10.365,10.365,0,0,0-1-1.284,5.374,5.374,0,0,0-.837-.646l-2.333-1.566a1.84,1.84,0,0,0-1.257-.445,20.669,20.669,0,0,0,1.963,1.865,6.54,6.54,0,0,1-.8-.134c-.268-.021-.6.143-.581.412a1.051,1.051,0,0,0,.152.359c.207.444-.034,1.04.273,1.421a1.215,1.215,0,0,0,.587.33c.825.275,2.307.912,3.136,1.176.662.666,1.6,1.46,2.362,2.088,3.017,2.5,5.047,4.612,8.688,6.054a4.131,4.131,0,0,0,1.279.459,3.441,3.441,0,0,0,1.2-.8l5.884-5.307Z" transform="translate(-507.594 -252.008)" fill="#f49987"/>
          <path id="Trazado_145643" data-name="Trazado 145643" d="M586.781,280.946a36.641,36.641,0,0,0,3.569-4.121,1.287,1.287,0,0,0,.31-.651c.027-.412-.32-.739-.616-1.028a21.72,21.72,0,0,1-2.515-3.437,7.219,7.219,0,0,0-3.1-2.834,8.634,8.634,0,0,0-2.588-.446,1.554,1.554,0,0,0-.459.014,1.723,1.723,0,0,0-.5.247,7.117,7.117,0,0,1-2.475.947c-.668.121-1.533.032-1.765-.6a10.226,10.226,0,0,0-4.275,2.634c-1.066,1.16-1.975,2.458-3.046,3.613a17.183,17.183,0,0,1-1.931,1.787.45.45,0,0,0-.079.636,13.736,13.736,0,0,0,4.906,3.8c.1.047.305-.118.54-.377.186,1.6.457,3.188.529,4.793.1,2.287-.2,4.61.282,6.848a.6.6,0,0,0,.107.266c.146.172.415.134.635.087,4.1-.874,8.457.272,12.5-.815a.709.709,0,0,0,.457-.266.741.741,0,0,0-.008-.575c-1.073-3.748-1.06-8.576-1.562-11.616C586.015,280.3,586.412,281.212,586.781,280.946Z" transform="translate(-515.653 -251.632)" fill="#fbc50a"/>
          <g id="Grupo_126329" data-name="Grupo 126329" transform="translate(0 36.893)">
            <path id="Trazado_145644" data-name="Trazado 145644" d="M492.354,309.468l5.893,23.948a1.262,1.262,0,0,0,1.224.959h43.51l-.4,2.95H499.462V338.6h44.228l.576-4.224h0l.072-.543v-.008h0l3.865-29.218,1.553-5.305,2.613-.28a1.273,1.273,0,0,0,1.131-1.4h0l-4.727.506-1.683,5.751-54.059,4.643A.768.768,0,0,0,492.354,309.468Zm9.887,5.771L508,314.9l.287,4.449-5.423.127Zm-.66,4.265-5.415.127-.978-3.975,5.776-.342Zm28.251,6.613h-6.126l.211-5.863,6.449-.151Zm1.816-6.044,5.936-.14-.567,6.184H531.11Zm-7.5-6.13,6.806-.4-.47,5.286-6.517.153Zm-1.457,5.066-6.041.142-.09-4.759,6.31-.373Zm-.255,7.108h-5.654l-.107-5.693,5.972-.14Zm-6.929,0H510l-.357-5.528,5.753-.135Zm-5.942-6.8-.29-4.493,6.012-.356.089,4.713Zm-7.506-5.342-.719-4.89,6.254-.537.328,5.08Zm6.8-5.536,6.3-.541.1,5.295-6.072.359Zm7.573-.651,6.68-.574-.2,5.525-6.381.378Zm7.958-.683,7.187-.618-.513,5.77-6.874.407Zm8.475-.728,6.008-.516-.547,5.966-5.977.354Zm5.344,6.733-.509,5.546-5.939.139.474-5.332Zm1.286-.076,6.362-.377-.771,5.826-6.1.143Zm5.422,6.727-.841,6.356H538.3l.57-6.213Zm-1.009,7.63-.756,5.711h-5.5l.523-5.711Zm-7.533,5.711h-5.887L531,327.39h5.9Zm-7.165,0h-5.756l.206-5.711h6.058Zm-7.031,0h-5.271l-.108-5.711h5.585Zm-6.545,0h-5.185l-.369-5.711h5.446Zm-6.461,0h-4.306l-.84-5.711h4.778Zm-5.333-6.985-.79-5.373,5.318-.125.355,5.5Zm-1.288,0h-4.791l-1.284-5.218,5.289-.125Zm-8.821-16.378,6.332-.544.715,4.856-5.9.349Zm53.115-4.562-.819,6.195-6.415.38.551-6ZM499.482,333.1l-1.405-5.711h4.664l.84,5.711Z" transform="translate(-492.331 -297.62)" fill="#141515"/>
            <g id="Grupo_126325" data-name="Grupo 126325" transform="translate(6.014 39.898)">
              <g id="Grupo_126323" data-name="Grupo 126323">
                <path id="Trazado_145645" data-name="Trazado 145645" d="M501.066,360.809a5.244,5.244,0,1,1,5.244,5.244A5.25,5.25,0,0,1,501.066,360.809Zm1.274,0a3.97,3.97,0,1,0,3.97-3.971A3.976,3.976,0,0,0,502.34,360.809Z" transform="translate(-501.066 -355.565)" fill="#141515"/>
              </g>
              <g id="Grupo_126324" data-name="Grupo 126324" transform="translate(2.588 2.588)">
                <path id="Trazado_145646" data-name="Trazado 145646" d="M510.136,361.98a2.656,2.656,0,1,1-2.656-2.656A2.656,2.656,0,0,1,510.136,361.98Z" transform="translate(-504.825 -359.324)" fill="#141515"/>
              </g>
            </g>
            <g id="Grupo_126328" data-name="Grupo 126328" transform="translate(42.002 39.898)">
              <g id="Grupo_126326" data-name="Grupo 126326">
                <path id="Trazado_145647" data-name="Trazado 145647" d="M553.333,360.809a5.244,5.244,0,1,1,5.244,5.244A5.25,5.25,0,0,1,553.333,360.809Zm1.274,0a3.97,3.97,0,1,0,3.97-3.971A3.976,3.976,0,0,0,554.607,360.809Z" transform="translate(-553.333 -355.565)" fill="#141515"/>
              </g>
              <g id="Grupo_126327" data-name="Grupo 126327" transform="translate(2.588 2.588)">
                <path id="Trazado_145648" data-name="Trazado 145648" d="M562.4,361.98a2.656,2.656,0,1,1-2.656-2.656A2.656,2.656,0,0,1,562.4,361.98Z" transform="translate(-557.092 -359.324)" fill="#141515"/>
              </g>
            </g>
          </g>
          <path id="Trazado_145649" data-name="Trazado 145649" d="M590.042,284.059a6.129,6.129,0,0,1,.977,2.039.511.511,0,0,1,.014.443.552.552,0,0,1-.366.182,9.472,9.472,0,0,0-2.4,1.031L584.4,289.86a7.331,7.331,0,0,1-1.135.536,11.128,11.128,0,0,1-2.928.3,10.545,10.545,0,0,0-4.072,1.089c-.327.164-.687.41-.694.775-.01.532.73.744,1.233.571a5.826,5.826,0,0,1,1.477-.583c.817-.043,1.434.742,2.22.967,1.076.307,2.117-.471,3.133-.939a10.7,10.7,0,0,1,1.963-.627c3.008-.731,6.115-1.21,8.915-2.53a1.764,1.764,0,0,0,1.061-.969,1.813,1.813,0,0,0-.114-1.02,27.773,27.773,0,0,0-2.658-6.513" transform="translate(-518.256 -255.523)" fill="#f49987"/>
        </g>
      </g>
    </g>
    <rect id="Rectángulo_34638" data-name="Rectángulo 34638" width="190" height="8" transform="translate(1126 6399.001)" fill="#023055"/>
  </g>
</svg>
