<svg xmlns="http://www.w3.org/2000/svg" xmlns:xlink="http://www.w3.org/1999/xlink" width="295" height="432" viewBox="0 0 295 432">
  <defs>
    <linearGradient id="linear-gradient" x1="0.423" y1="0.5" x2="-0.207" y2="0.477" gradientUnits="objectBoundingBox">
      <stop offset="0" stop-color="#db6464"/>
      <stop offset="1" stop-color="#ad1457"/>
    </linearGradient>
    <clipPath id="clip-path">
      <rect id="Rect치ngulo_33984" data-name="Rect치ngulo 33984" width="284" height="432" transform="translate(-8389.736 -11260.216)" fill="#fff" stroke="#707070" stroke-width="1"/>
    </clipPath>
  </defs>
  <g id="Grupo_121078" data-name="Grupo 121078" transform="translate(-180 -400)">
    <path id="Rect치ngulo_33930" data-name="Rect치ngulo 33930" d="M0,0H284.5A147.5,147.5,0,0,1,432,147.5v0A147.5,147.5,0,0,1,284.5,295H0a0,0,0,0,1,0,0V0A0,0,0,0,1,0,0Z" transform="translate(180 832) rotate(-90)" fill="url(#linear-gradient)"/>
    <g id="Enmascarar_grupo_54" data-name="Enmascarar grupo 54" transform="translate(8580.736 11660.216)" clip-path="url(#clip-path)">
      <g id="Grupo_121077" data-name="Grupo 121077" transform="translate(-8390 -11250.305)">
        <g id="Grupo_121071" data-name="Grupo 121071" transform="translate(0 0)">
          <path id="Trazado_143883" data-name="Trazado 143883" d="M500.833,350.977c1.772-.387,16.255,67.62,14.366,94.067s-14.366,118.384-14.366,118.384H352.106s-18.6-89.418-15.281-116.5,20.979-98.3,20.979-98.3Z" transform="translate(-306.48 41.212)" fill="#263238"/>
          <g id="Grupo_120941" data-name="Grupo 120941" transform="translate(212.807 108.238)">
            <g id="Grupo_120940" data-name="Grupo 120940" transform="translate(0)">
              <g id="Grupo_120899" data-name="Grupo 120899">
                <g id="Grupo_120898" data-name="Grupo 120898">
                  <g id="Grupo_120897" data-name="Grupo 120897">
                    <g id="Grupo_120896" data-name="Grupo 120896">
                      <path id="Trazado_143884" data-name="Trazado 143884" d="M298.128,346.989l21.25-95.687,1.23-15.84s4.866-35.517,4.9-38.99c.038-4.01,1.98-4.957,3.458-4.843,2.3.179,3.9,3.035,3.978,6.478.025,1.191-.33,19.984-.33,19.984a44.492,44.492,0,0,1,3.695-5.033c2.82-3.488,9.368-5.427,16.065-5.138s8.544.961,8.553,3.567A3.317,3.317,0,0,1,359.585,214a6.563,6.563,0,0,1-4.434,1.474c-10.729-.314-13.681,5.388-13.681,5.388l-.161,2.073s6.575-4.586,11.746-2.563a6.28,6.28,0,0,1,2.059,1.3,8.4,8.4,0,0,1,7.138,12.6c-.71,1.229-2.009,2.364-3.4,2.068a4.475,4.475,0,0,1-1.887-1.175,6.807,6.807,0,0,0-.947-.717l-1.264,5.743s-3.528,12.748-4.435,18.47l-5.684,94.837A23.557,23.557,0,0,1,319.3,375.582h0A23.557,23.557,0,0,1,298.128,346.989Z" transform="translate(-297.561 -191.621)" fill="#ffbe9d"/>
                    </g>
                  </g>
                </g>
              </g>
              <g id="Grupo_120909" data-name="Grupo 120909" transform="translate(24.608 33.674)">
                <g id="Grupo_120903" data-name="Grupo 120903" transform="translate(0.002 0.545)">
                  <g id="Grupo_120902" data-name="Grupo 120902">
                    <g id="Grupo_120901" data-name="Grupo 120901">
                      <g id="Grupo_120900" data-name="Grupo 120900">
                        <path id="Trazado_143885" data-name="Trazado 143885" d="M309.421,234.9c1.964.561,4-.859,5.081-2.592s1.546-3.779,2.5-5.585c2.855-5.4,9.644-7.915,12.237-13.444.362-.771.567-1.835-.109-2.353-.628-.479-1.523-.115-2.217.26l-17.8,9.6" transform="translate(-309.111 -210.7)" fill="#ffbe9d"/>
                      </g>
                    </g>
                  </g>
                </g>
                <g id="Grupo_120908" data-name="Grupo 120908">
                  <g id="Grupo_120907" data-name="Grupo 120907">
                    <g id="Grupo_120906" data-name="Grupo 120906">
                      <g id="Grupo_120905" data-name="Grupo 120905">
                        <g id="Grupo_120904" data-name="Grupo 120904">
                          <path id="Trazado_143886" data-name="Trazado 143886" d="M308.8,221.033a8.068,8.068,0,0,1,1.819-1.236c1.207-.73,2.972-1.752,5.164-2.993,2.289-1.277,4.889-2.726,7.728-4.308l2.242-1.232c.739-.335,1.557-1.1,2.925-.8a1.709,1.709,0,0,1,1.15,1.53,3.511,3.511,0,0,1-.312,1.627,13.263,13.263,0,0,1-1.555,2.545c-2.484,3.157-5.668,5.122-7.979,7.422a15.228,15.228,0,0,0-2.843,3.564c-.685,1.247-1.121,2.559-1.648,3.727a7.118,7.118,0,0,1-4.156,4.369,2.561,2.561,0,0,1-2.224-.106,5.891,5.891,0,0,0,2.073-.317,6.9,6.9,0,0,0,3.555-4.263c.463-1.144.85-2.482,1.555-3.86a15.691,15.691,0,0,1,2.94-3.87c2.375-2.427,5.526-4.439,7.813-7.368a12.312,12.312,0,0,0,1.413-2.294c.344-.766.309-1.548-.136-1.63-.47-.165-1.29.274-2.048.692s-1.521.807-2.26,1.2l-7.845,4.091c-2.242,1.15-4.066,2.063-5.338,2.671A8.138,8.138,0,0,1,308.8,221.033Z" transform="translate(-308.794 -210.396)" fill="#eb996e"/>
                        </g>
                      </g>
                    </g>
                  </g>
                </g>
              </g>
              <g id="Grupo_120914" data-name="Grupo 120914" transform="translate(43.384 18.663)">
                <g id="Grupo_120913" data-name="Grupo 120913" transform="translate(0)">
                  <g id="Grupo_120912" data-name="Grupo 120912">
                    <g id="Grupo_120911" data-name="Grupo 120911">
                      <g id="Grupo_120910" data-name="Grupo 120910">
                        <path id="Trazado_143887" data-name="Trazado 143887" d="M298.929,214.776a8.366,8.366,0,0,1,1.272-3.6,6.433,6.433,0,0,1,3.295-2.333,16.462,16.462,0,0,1,5.083-.678,26.269,26.269,0,0,0,5.311-.405,8.481,8.481,0,0,0,3.969-1.926,3.314,3.314,0,0,0,1.089-2.766,1.976,1.976,0,0,0-.343-1.037c-.07.02.048.391.054,1.051a3.122,3.122,0,0,1-1.159,2.364,8.378,8.378,0,0,1-3.752,1.643,29.062,29.062,0,0,1-5.181.332,16.05,16.05,0,0,0-5.3.775,6.753,6.753,0,0,0-3.5,2.687,5.979,5.979,0,0,0-.938,2.818A2.061,2.061,0,0,0,298.929,214.776Z" transform="translate(-298.818 -202.027)" fill="#eb996e"/>
                      </g>
                    </g>
                  </g>
                </g>
              </g>
              <g id="Grupo_120919" data-name="Grupo 120919" transform="translate(35.064 5.16)">
                <g id="Grupo_120918" data-name="Grupo 120918" transform="translate(0)">
                  <g id="Grupo_120917" data-name="Grupo 120917">
                    <g id="Grupo_120916" data-name="Grupo 120916">
                      <g id="Grupo_120915" data-name="Grupo 120915">
                        <path id="Trazado_143888" data-name="Trazado 143888" d="M314.449,194.5a21.038,21.038,0,0,0-.1,3.736c0,2.563,0,5.617,0,8.995-.05,3.377-.1,6.432-.136,8.995a20.8,20.8,0,0,0,.039,3.736,16.815,16.815,0,0,0,.488-3.711c.183-2.3.326-5.49.353-9.014s-.068-6.711-.217-9.018A16.831,16.831,0,0,0,314.449,194.5Z" transform="translate(-314.178 -194.498)" fill="#eb996e"/>
                      </g>
                    </g>
                  </g>
                </g>
              </g>
              <g id="Grupo_120924" data-name="Grupo 120924" transform="translate(47.69 30.962)">
                <g id="Grupo_120923" data-name="Grupo 120923">
                  <g id="Grupo_120922" data-name="Grupo 120922">
                    <g id="Grupo_120921" data-name="Grupo 120921">
                      <g id="Grupo_120920" data-name="Grupo 120920">
                        <path id="Trazado_143889" data-name="Trazado 143889" d="M300.664,213.615a4.547,4.547,0,0,0,1.1-.411,3.464,3.464,0,0,1,2.888-.108,1.86,1.86,0,0,1,.956,1.573,9.885,9.885,0,0,1-.2,2.427,4.186,4.186,0,0,0,.414,2.945,3.562,3.562,0,0,0,2.845,1.519,4.055,4.055,0,0,0,2.956-1.241,5.081,5.081,0,0,0,1.417-2.6,16.383,16.383,0,0,0-.023-4.808,9.668,9.668,0,0,0-.92-3.1c-.378-.682-.734-.951-.755-.924-.05.045.213.368.493,1.046a11.493,11.493,0,0,1,.66,3.044,17.66,17.66,0,0,1-.127,4.613,4.01,4.01,0,0,1-3.673,3.228,2.869,2.869,0,0,1-2.263-1.175,3.578,3.578,0,0,1-.343-2.459,9.8,9.8,0,0,0,.134-2.6,2.4,2.4,0,0,0-1.331-1.96,3.632,3.632,0,0,0-3.248.314C300.967,213.314,300.643,213.576,300.664,213.615Z" transform="translate(-300.663 -208.884)" fill="#eb996e"/>
                      </g>
                    </g>
                  </g>
                </g>
              </g>
              <g id="Grupo_120929" data-name="Grupo 120929" transform="translate(57.889 30.229)">
                <g id="Grupo_120928" data-name="Grupo 120928" transform="translate(0)">
                  <g id="Grupo_120927" data-name="Grupo 120927">
                    <g id="Grupo_120926" data-name="Grupo 120926">
                      <g id="Grupo_120925" data-name="Grupo 120925">
                        <path id="Trazado_143890" data-name="Trazado 143890" d="M297.554,220.07c-.034-.007-.142.391.093,1.062a3.252,3.252,0,0,0,2.159,1.953,4.335,4.335,0,0,0,4.129-1.227,7.1,7.1,0,0,0,1.89-4.923,8.59,8.59,0,0,0-1.551-5.034,8.209,8.209,0,0,0-3.323-2.726,7.768,7.768,0,0,0-2.8-.692,2.219,2.219,0,0,0-1.049.091,13.546,13.546,0,0,1,3.618,1.076,8.1,8.1,0,0,1,2.988,2.64,8.2,8.2,0,0,1,1.372,4.634,6.6,6.6,0,0,1-1.636,4.453,3.847,3.847,0,0,1-3.51,1.2,3.08,3.08,0,0,1-2.023-1.559C297.62,220.448,297.619,220.064,297.554,220.07Z" transform="translate(-297.104 -208.476)" fill="#eb996e"/>
                      </g>
                    </g>
                  </g>
                </g>
              </g>
              <g id="Grupo_120934" data-name="Grupo 120934" transform="translate(35.974 46.365)">
                <g id="Grupo_120933" data-name="Grupo 120933" transform="translate(0)">
                  <g id="Grupo_120932" data-name="Grupo 120932">
                    <g id="Grupo_120931" data-name="Grupo 120931">
                      <g id="Grupo_120930" data-name="Grupo 120930">
                        <path id="Trazado_143891" data-name="Trazado 143891" d="M318.3,225.349a3.06,3.06,0,0,0-1.8.005,7.054,7.054,0,0,0-3.937,2.324l.629.192a20.845,20.845,0,0,0-.389-2.509c-1.037-4.85-3.664-8.028-3.786-7.884-.2.113,2.068,3.374,3.06,8.042.183.841.316,1.663.405,2.423l.1.843.529-.651a7.383,7.383,0,0,1,3.5-2.346C317.636,225.467,318.3,225.448,318.3,225.349Z" transform="translate(-309.006 -217.472)" fill="#eb996e"/>
                      </g>
                    </g>
                  </g>
                </g>
              </g>
              <g id="Grupo_120939" data-name="Grupo 120939" transform="translate(45.939 22.255)">
                <g id="Grupo_120938" data-name="Grupo 120938" transform="translate(0)">
                  <g id="Grupo_120937" data-name="Grupo 120937">
                    <g id="Grupo_120936" data-name="Grupo 120936">
                      <g id="Grupo_120935" data-name="Grupo 120935">
                        <path id="Trazado_143892" data-name="Trazado 143892" d="M305.718,204.041c-.178.084.533,1.44,2.177,2.165s3.119.362,3.065.174c-.02-.217-1.342-.2-2.762-.854C306.765,204.9,305.892,203.91,305.718,204.041Z" transform="translate(-305.691 -204.029)" fill="#eb996e"/>
                      </g>
                    </g>
                  </g>
                </g>
              </g>
            </g>
          </g>
          <path id="Trazado_143893" data-name="Trazado 143893" d="M407.113,232.942c-7.782,0-26.494,22.105-29.757,55.705-1.494,15.381-9.2,78.4-12.931,108.69a30.228,30.228,0,0,0,12.3,28.155c20.14,14.625,60.446,37.628,114.062,36.99l32.49-27.251L417.827,390.789l-.057-2.4-4.6-5.036,13.161-80.7S438.625,232.944,407.113,232.942Z" transform="translate(-364.199 -50.594)" fill="#023055"/>
          <g id="Grupo_121048" data-name="Grupo 121048" transform="translate(23.682 9.896)">
            <g id="Grupo_120942" data-name="Grupo 120942" transform="translate(30.912 30.492)">
              <path id="Trazado_143894" data-name="Trazado 143894" d="M408.218,153.791c-.4,10.915-14.947,17.53-14.761,28.449.081,4.686,2.988,8.894,3.558,13.547.766,6.254-2.728,12.158-4.019,18.325-2.66,12.705,4.73,26.108,15.69,33.064s24.718,8.283,37.58,6.523" transform="translate(-392.452 -153.791)" fill="#263238"/>
            </g>
            <g id="Grupo_121036" data-name="Grupo 121036" transform="translate(42.723)">
              <g id="Grupo_120943" data-name="Grupo 120943" transform="translate(47.724 27.816)">
                <path id="Trazado_143895" data-name="Trazado 143895" d="M399.534,152.3c-.432,5.859,3.436,11.093,7.336,15.489s8.238,8.977,9.079,14.789c1.494,10.306-8.595,19.872-6.514,30.074,1.116,5.468,5.592,9.861,6.39,15.383.771,5.341-2.091,10.571-5.641,14.637s-7.658,3.472-10.8,7.863a44.145,44.145,0,0,1-13.616,12.1c-11.306,6.191-24.876-2.766-30.33-4.374" transform="translate(-355.44 -152.299)" fill="#263238"/>
              </g>
              <g id="Grupo_120944" data-name="Grupo 120944" transform="translate(0)">
                <path id="Trazado_143896" data-name="Trazado 143896" d="M366.337,173.567c-.152-5.314,4.762-9.42,9.708-11.366s10.446-2.681,14.854-5.648c3.9-2.629,6.528-6.728,9.834-10.078a32.722,32.722,0,0,1,55.033,15.012c1.9,7.569.6,16.515-5.363,21.544-6.923,5.836-17.187,4.541-26.058,2.724s-18.913-3.605-26.318,1.6c-4.468,3.142-7.027,8.252-9.757,12.982s-6.159,9.56-11.323,11.337-12.174-1.293-12.375-6.749" transform="translate(-364.573 -136.79)" fill="#263238"/>
              </g>
              <g id="Grupo_121034" data-name="Grupo 121034" transform="translate(14.782 25.736)">
                <g id="Grupo_121033" data-name="Grupo 121033">
                  <g id="Grupo_121032" data-name="Grupo 121032">
                    <g id="Grupo_121031" data-name="Grupo 121031">
                      <g id="Grupo_121016" data-name="Grupo 121016">
                        <g id="Grupo_121015" data-name="Grupo 121015">
                          <g id="Grupo_121014" data-name="Grupo 121014">
                            <g id="Grupo_120951" data-name="Grupo 120951">
                              <g id="Grupo_120950" data-name="Grupo 120950">
                                <g id="Grupo_120949" data-name="Grupo 120949">
                                  <g id="Grupo_120948" data-name="Grupo 120948">
                                    <g id="Grupo_120947" data-name="Grupo 120947">
                                      <g id="Grupo_120946" data-name="Grupo 120946">
                                        <g id="Grupo_120945" data-name="Grupo 120945">
                                          <path id="Trazado_143897" data-name="Trazado 143897" d="M419.334,285.955c.072-12.192.143-24.075.149-24.012,0,0,19.368-3.259,23.327-28.549,1.969-12.576,1.291-33.188.194-50.036-.99-15.164-11.079-33.751-26.187-32.119L369.653,163.27a8.892,8.892,0,0,0-7.935,9.038h0l4.317,114.5A26.659,26.659,0,0,0,393.2,312.451h0A26.66,26.66,0,0,0,419.334,285.955Z" transform="translate(-361.716 -151.139)" fill="#ffbe9d"/>
                                        </g>
                                      </g>
                                    </g>
                                  </g>
                                </g>
                              </g>
                            </g>
                            <g id="Grupo_120967" data-name="Grupo 120967" transform="translate(64.024 39.558)">
                              <g id="Grupo_120958" data-name="Grupo 120958" transform="translate(2.766 4.186)">
                                <g id="Grupo_120957" data-name="Grupo 120957">
                                  <g id="Grupo_120956" data-name="Grupo 120956">
                                    <g id="Grupo_120955" data-name="Grupo 120955">
                                      <g id="Grupo_120954" data-name="Grupo 120954">
                                        <g id="Grupo_120953" data-name="Grupo 120953">
                                          <g id="Grupo_120952" data-name="Grupo 120952">
                                            <path id="Trazado_143898" data-name="Trazado 143898" d="M373.251,178.451a3.242,3.242,0,0,1-3.119,3.279,3.1,3.1,0,0,1-3.349-2.916,3.242,3.242,0,0,1,3.115-3.279A3.1,3.1,0,0,1,373.251,178.451Z" transform="translate(-366.782 -175.529)" fill="#263238"/>
                                          </g>
                                        </g>
                                      </g>
                                    </g>
                                  </g>
                                </g>
                              </g>
                              <g id="Grupo_120966" data-name="Grupo 120966" transform="translate(0)">
                                <g id="Grupo_120965" data-name="Grupo 120965">
                                  <g id="Grupo_120964" data-name="Grupo 120964">
                                    <g id="Grupo_120963" data-name="Grupo 120963">
                                      <g id="Grupo_120962" data-name="Grupo 120962">
                                        <g id="Grupo_120961" data-name="Grupo 120961">
                                          <g id="Grupo_120960" data-name="Grupo 120960">
                                            <g id="Grupo_120959" data-name="Grupo 120959">
                                              <path id="Trazado_143899" data-name="Trazado 143899" d="M377.574,176.588c-.4.425-2.862-1.388-6.351-1.37-3.485-.034-6.042,1.767-6.421,1.34-.187-.188.221-.952,1.334-1.767a8.9,8.9,0,0,1,5.138-1.6,8.547,8.547,0,0,1,5.056,1.62C377.405,175.636,377.771,176.4,377.574,176.588Z" transform="translate(-364.759 -173.195)" fill="#263238"/>
                                            </g>
                                          </g>
                                        </g>
                                      </g>
                                    </g>
                                  </g>
                                </g>
                              </g>
                            </g>
                            <g id="Grupo_120983" data-name="Grupo 120983" transform="translate(29.73 40.285)">
                              <g id="Grupo_120974" data-name="Grupo 120974" transform="translate(3.185 4.335)">
                                <g id="Grupo_120973" data-name="Grupo 120973">
                                  <g id="Grupo_120972" data-name="Grupo 120972">
                                    <g id="Grupo_120971" data-name="Grupo 120971">
                                      <g id="Grupo_120970" data-name="Grupo 120970">
                                        <g id="Grupo_120969" data-name="Grupo 120969">
                                          <g id="Grupo_120968" data-name="Grupo 120968">
                                            <path id="Trazado_143900" data-name="Trazado 143900" d="M392.138,178.939a3.242,3.242,0,0,1-3.119,3.279,3.1,3.1,0,0,1-3.349-2.916,3.243,3.243,0,0,1,3.117-3.279A3.1,3.1,0,0,1,392.138,178.939Z" transform="translate(-385.669 -176.017)" fill="#263238"/>
                                          </g>
                                        </g>
                                      </g>
                                    </g>
                                  </g>
                                </g>
                              </g>
                              <g id="Grupo_120982" data-name="Grupo 120982">
                                <g id="Grupo_120981" data-name="Grupo 120981">
                                  <g id="Grupo_120980" data-name="Grupo 120980">
                                    <g id="Grupo_120979" data-name="Grupo 120979">
                                      <g id="Grupo_120978" data-name="Grupo 120978">
                                        <g id="Grupo_120977" data-name="Grupo 120977">
                                          <g id="Grupo_120976" data-name="Grupo 120976">
                                            <g id="Grupo_120975" data-name="Grupo 120975">
                                              <path id="Trazado_143901" data-name="Trazado 143901" d="M396.7,177c-.4.423-2.866-1.388-6.353-1.372-3.485-.034-6.041,1.767-6.421,1.342-.185-.19.217-.952,1.336-1.767a8.881,8.881,0,0,1,5.138-1.6,8.556,8.556,0,0,1,5.056,1.62C396.524,176.041,396.891,176.805,396.7,177Z" transform="translate(-383.879 -173.6)" fill="#263238"/>
                                            </g>
                                          </g>
                                        </g>
                                      </g>
                                    </g>
                                  </g>
                                </g>
                              </g>
                            </g>
                            <g id="Grupo_120991" data-name="Grupo 120991" transform="translate(53.567 40.458)">
                              <g id="Grupo_120990" data-name="Grupo 120990" transform="translate(0)">
                                <g id="Grupo_120989" data-name="Grupo 120989">
                                  <g id="Grupo_120988" data-name="Grupo 120988">
                                    <g id="Grupo_120987" data-name="Grupo 120987">
                                      <g id="Grupo_120986" data-name="Grupo 120986">
                                        <g id="Grupo_120985" data-name="Grupo 120985">
                                          <g id="Grupo_120984" data-name="Grupo 120984">
                                            <path id="Trazado_143902" data-name="Trazado 143902" d="M373.56,202.763c-.016-.2,2.15-.578,5.664-1.035.891-.093,1.734-.273,1.883-.881a4.544,4.544,0,0,0-.6-2.64q-1.264-3.231-2.651-6.778c-3.679-9.649-6.346-17.586-5.955-17.731s3.689,7.56,7.368,17.211c.886,2.38,1.734,4.647,2.54,6.819.339,1.012.922,2.158.47,3.5a2.241,2.241,0,0,1-1.462,1.306,6.1,6.1,0,0,1-1.514.213C375.768,202.941,373.574,202.962,373.56,202.763Z" transform="translate(-371.863 -173.697)" fill="#263238"/>
                                          </g>
                                        </g>
                                      </g>
                                    </g>
                                  </g>
                                </g>
                              </g>
                            </g>
                            <g id="Grupo_120998" data-name="Grupo 120998" transform="translate(23.888 101.849)">
                              <g id="Grupo_120997" data-name="Grupo 120997">
                                <g id="Grupo_120996" data-name="Grupo 120996">
                                  <g id="Grupo_120995" data-name="Grupo 120995">
                                    <g id="Grupo_120994" data-name="Grupo 120994">
                                      <g id="Grupo_120993" data-name="Grupo 120993">
                                        <g id="Grupo_120992" data-name="Grupo 120992">
                                          <path id="Trazado_143903" data-name="Trazado 143903" d="M409.3,216.881a64.311,64.311,0,0,1-33.878-8.955c.285.059,9.323,17.573,33.55,14.926Z" transform="translate(-375.421 -207.926)" fill="#eb996e"/>
                                        </g>
                                      </g>
                                    </g>
                                  </g>
                                </g>
                              </g>
                            </g>
                            <g id="Grupo_121005" data-name="Grupo 121005" transform="translate(43.405 75.576)">
                              <g id="Grupo_121004" data-name="Grupo 121004" transform="translate(0)">
                                <g id="Grupo_121003" data-name="Grupo 121003">
                                  <g id="Grupo_121002" data-name="Grupo 121002">
                                    <g id="Grupo_121001" data-name="Grupo 121001">
                                      <g id="Grupo_121000" data-name="Grupo 121000">
                                        <g id="Grupo_120999" data-name="Grupo 120999">
                                          <path id="Trazado_143904" data-name="Trazado 143904" d="M387.836,195.637a6.293,6.293,0,0,0-5.641-2.323,5.745,5.745,0,0,0-3.96,2.136,3.637,3.637,0,0,0-.267,4.157c.945,1.322,2.913,1.625,4.577,1.148A13.208,13.208,0,0,0,387,198.084a3.855,3.855,0,0,0,.994-1.033,1.166,1.166,0,0,0-.007-1.3" transform="translate(-377.433 -193.277)" fill="#e8505b"/>
                                        </g>
                                      </g>
                                    </g>
                                  </g>
                                </g>
                              </g>
                            </g>
                            <g id="Grupo_121013" data-name="Grupo 121013" transform="translate(44.44 71.96)">
                              <g id="Grupo_121012" data-name="Grupo 121012" transform="translate(0)">
                                <g id="Grupo_121011" data-name="Grupo 121011">
                                  <g id="Grupo_121010" data-name="Grupo 121010">
                                    <g id="Grupo_121009" data-name="Grupo 121009">
                                      <g id="Grupo_121008" data-name="Grupo 121008">
                                        <g id="Grupo_121007" data-name="Grupo 121007">
                                          <g id="Grupo_121006" data-name="Grupo 121006">
                                            <path id="Trazado_143905" data-name="Trazado 143905" d="M376.888,191.261c.569-.034.583,3.754,3.831,6.433s7.278,2.256,7.309,2.785c.054.238-.9.737-2.6.787a9.435,9.435,0,0,1-6.1-2.109,8.219,8.219,0,0,1-2.968-5.395C376.208,192.179,376.629,191.24,376.888,191.261Z" transform="translate(-376.326 -191.261)" fill="#263238"/>
                                          </g>
                                        </g>
                                      </g>
                                    </g>
                                  </g>
                                </g>
                              </g>
                            </g>
                          </g>
                        </g>
                      </g>
                      <g id="Grupo_121023" data-name="Grupo 121023" transform="translate(28.183 34.966)">
                        <g id="Grupo_121022" data-name="Grupo 121022" transform="translate(0)">
                          <g id="Grupo_121021" data-name="Grupo 121021">
                            <g id="Grupo_121020" data-name="Grupo 121020">
                              <g id="Grupo_121019" data-name="Grupo 121019">
                                <g id="Grupo_121018" data-name="Grupo 121018">
                                  <g id="Grupo_121017" data-name="Grupo 121017">
                                    <path id="Trazado_143906" data-name="Trazado 143906" d="M398.949,173.236c-.343.949-3.827.508-7.918,1.01-4.1.42-7.4,1.627-7.945.777-.244-.407.33-1.3,1.663-2.222a13.88,13.88,0,0,1,12.087-1.361C398.337,172.041,399.1,172.786,398.949,173.236Z" transform="translate(-383.03 -170.635)" fill="#263238"/>
                                  </g>
                                </g>
                              </g>
                            </g>
                          </g>
                        </g>
                      </g>
                      <g id="Grupo_121030" data-name="Grupo 121030" transform="translate(63.652 29.258)">
                        <g id="Grupo_121029" data-name="Grupo 121029">
                          <g id="Grupo_121028" data-name="Grupo 121028">
                            <g id="Grupo_121027" data-name="Grupo 121027">
                              <g id="Grupo_121026" data-name="Grupo 121026">
                                <g id="Grupo_121025" data-name="Grupo 121025">
                                  <g id="Grupo_121024" data-name="Grupo 121024">
                                    <path id="Trazado_143907" data-name="Trazado 143907" d="M377.346,171.052c-.612.795-3.017-.023-5.908-.056-2.888-.133-5.336.543-5.9-.283-.247-.4.136-1.2,1.2-1.948a8.554,8.554,0,0,1,9.515.273C377.278,169.85,377.616,170.664,377.346,171.052Z" transform="translate(-365.466 -167.452)" fill="#263238"/>
                                  </g>
                                </g>
                              </g>
                            </g>
                          </g>
                        </g>
                      </g>
                    </g>
                  </g>
                </g>
              </g>
              <g id="Grupo_121035" data-name="Grupo 121035" transform="translate(6.298 20.345)">
                <path id="Trazado_143908" data-name="Trazado 143908" d="M379.371,250.232c6.954,1.4,7.572-2.136,12.768-6.966A22.829,22.829,0,0,0,399.125,224c-.786-6.209-4.132-12.526-1.98-18.4,2.846-7.771,13.737-10.16,16.628-17.914,1.679-4.507.172-9.778,2.075-14.194,1.79-4.152,6.159-6.545,10.413-8.082s8.812-2.6,12.383-5.375,5.8-8.013,3.494-11.905a239.645,239.645,0,0,0-55.243,13.423c-4.125,1.541-8.46,3.393-10.9,7.059-2.581,3.881-2.457,8.894-2.24,13.55q1.59,34.048,3.178,68.1" transform="translate(-373.651 -148.133)" fill="#263238"/>
              </g>
            </g>
            <g id="Grupo_121037" data-name="Grupo 121037" transform="translate(0 53.348)">
              <path id="Trazado_143909" data-name="Trazado 143909" d="M453.643,184.057a19.4,19.4,0,0,0-36.717-6.717c-3.515,7.14-2.3,15.828.981,23.079,3.9,8.616,11.884,16.488,21.331,16.059,8.887-.4,16.043-8.209,18.6-16.73s1.528-17.654.47-26.487" transform="translate(-414.803 -166.534)" fill="#263238"/>
            </g>
            <g id="Grupo_121039" data-name="Grupo 121039" transform="translate(30.447 57.663)">
              <g id="Grupo_121038" data-name="Grupo 121038" transform="translate(0)">
                <path id="Trazado_143910" data-name="Trazado 143910" d="M423.6,216.772a4.46,4.46,0,0,1-1.325-1.467,12.429,12.429,0,0,1-1.885-5.06,24.229,24.229,0,0,1,.228-7.987c.515-2.975,1.517-6.091,2.247-9.4a23.49,23.49,0,0,0,.552-9.353c-.518-2.816-1.842-5.207-2.425-7.431a9.6,9.6,0,0,1-.151-5.406c.4-1.248.945-1.761.983-1.725.084.05-.319.637-.565,1.831a10,10,0,0,0,.484,5.072c.64,2.1,2.046,4.426,2.678,7.465a23.471,23.471,0,0,1-.472,9.787c-.746,3.375-1.776,6.48-2.324,9.348a25.144,25.144,0,0,0-.457,7.692C421.636,214.575,423.814,216.659,423.6,216.772Z" transform="translate(-420.153 -168.94)" fill="#455a64"/>
              </g>
            </g>
            <g id="Grupo_121041" data-name="Grupo 121041" transform="translate(0.648 75.127)">
              <g id="Grupo_121040" data-name="Grupo 121040">
                <path id="Trazado_143911" data-name="Trazado 143911" d="M453.873,178.686c.09.065-1.112,1.824-3.876,3.8a22.18,22.18,0,0,1-24.988.438c-2.832-1.874-4.093-3.589-4.007-3.657.135-.142,1.58,1.351,4.418,2.986a23.1,23.1,0,0,0,24.143-.423C452.341,180.09,453.735,178.548,453.873,178.686Z" transform="translate(-420.998 -178.677)" fill="#455a64"/>
              </g>
            </g>
            <g id="Grupo_121043" data-name="Grupo 121043" transform="translate(7.299 79.093)">
              <g id="Grupo_121042" data-name="Grupo 121042">
                <path id="Trazado_143912" data-name="Trazado 143912" d="M446.663,180.893c.108.05-.513,1.684-2.141,3.971A27.665,27.665,0,0,1,426.2,195.879c-2.784.366-4.516.149-4.511.031,0-.188,1.709-.253,4.376-.805A31.46,31.46,0,0,0,443.9,184.381C445.639,182.285,446.5,180.8,446.663,180.893Z" transform="translate(-421.693 -180.889)" fill="#455a64"/>
              </g>
            </g>
            <g id="Grupo_121045" data-name="Grupo 121045" transform="translate(35.716 11.81)">
              <g id="Grupo_121044" data-name="Grupo 121044">
                <path id="Trazado_143913" data-name="Trazado 143913" d="M376.777,245.523c-.014.013-.108-.093-.276-.314a9.013,9.013,0,0,1-.7-1.012,13.4,13.4,0,0,1-1.664-4.421,15.536,15.536,0,0,1,.405-7.465,14.281,14.281,0,0,1,5.883-7.913c3-2.115,6.905-3.587,9.387-6.952a7.593,7.593,0,0,0,1.372-5.937,33.754,33.754,0,0,0-2.2-6.561,18.868,18.868,0,0,1,.325-15.094,16.542,16.542,0,0,1,5.131-6.372,20.018,20.018,0,0,1,7.753-3.214c2.739-.624,5.468-.986,8-1.752a15.6,15.6,0,0,0,6.7-3.666,11.131,11.131,0,0,0,2.907-6.632,56.736,56.736,0,0,1,1.191-7.35,25.343,25.343,0,0,1,6.823-11.961,19.989,19.989,0,0,1,10.74-5.329,15.971,15.971,0,0,1,9.773,1.48,15.459,15.459,0,0,1,5.653,4.895,13.091,13.091,0,0,1,1.978,4.29,6.744,6.744,0,0,1,.246,1.627,16.075,16.075,0,0,0-2.576-5.664,15.23,15.23,0,0,0-14.951-5.85,19.276,19.276,0,0,0-10.225,5.216,24.536,24.536,0,0,0-6.471,11.554,56.922,56.922,0,0,0-1.132,7.249,12.183,12.183,0,0,1-3.18,7.24,16.612,16.612,0,0,1-7.162,3.96c-2.656.8-5.4,1.164-8.076,1.777a19.016,19.016,0,0,0-7.346,3.022,15.471,15.471,0,0,0-4.8,5.942,17.85,17.85,0,0,0-.355,14.271,34.158,34.158,0,0,1,2.208,6.776,8.549,8.549,0,0,1-1.594,6.625c-2.758,3.627-6.778,5.038-9.689,7.059a13.666,13.666,0,0,0-5.732,7.45,15.405,15.405,0,0,0-.574,7.2A16.946,16.946,0,0,0,376.777,245.523Z" transform="translate(-373.861 -143.374)" fill="#455a64"/>
              </g>
            </g>
            <g id="Grupo_121047" data-name="Grupo 121047" transform="translate(39.99 3.418)">
              <g id="Grupo_121046" data-name="Grupo 121046">
                <path id="Trazado_143914" data-name="Trazado 143914" d="M372.777,178.653a2.785,2.785,0,0,1-.312-1.166,5.446,5.446,0,0,1,.839-3.358,8.589,8.589,0,0,1,4.227-3.5,13.309,13.309,0,0,1,7.26-.24c2.651.5,5.4,1.56,8.4,2.143,2.954.569,6.478.651,9.143-1.438,2.688-2.043,4.035-5.581,5.415-9.1a37.75,37.75,0,0,1,5.842-10.411,34.977,34.977,0,0,1,19.132-12.375,20.056,20.056,0,0,1,10.1.265,15.713,15.713,0,0,1,7.4,4.782,11.676,11.676,0,0,1,2.8,6.7,11.494,11.494,0,0,1-.836,5.42,8.733,8.733,0,0,1-1.9,2.888,3.583,3.583,0,0,1-.933.759,12.258,12.258,0,0,0,2.434-3.808,11.322,11.322,0,0,0,.619-5.2,11.1,11.1,0,0,0-2.778-6.249,15.022,15.022,0,0,0-7.065-4.41,19.27,19.27,0,0,0-9.617-.147,34.315,34.315,0,0,0-18.482,12.067,37.02,37.02,0,0,0-5.7,10.119c-1.4,3.488-2.784,7.226-5.811,9.515a9.585,9.585,0,0,1-4.99,1.874,17.075,17.075,0,0,1-4.948-.348c-3.119-.649-5.822-1.745-8.387-2.278a12.856,12.856,0,0,0-6.884.054,8.27,8.27,0,0,0-4.078,3.144,5.49,5.49,0,0,0-.981,3.115C372.688,178.242,372.844,178.637,372.777,178.653Z" transform="translate(-372.442 -138.695)" fill="#455a64"/>
              </g>
            </g>
          </g>
          <path id="Trazado_143915" data-name="Trazado 143915" d="M302.866,238.192l44.815-11.412h53.447s27.7,1.593,43.127,15.209c.42.371,5.212,4.721,8.4,13.749l23.752,54.369,12.194-68.176,42.652,6.059-6.884,117.318a57.6,57.6,0,0,1-45.414,50.61l-24.267-27.285c-2.8,22.254-5.284,41.344-5.535,41.093-.6-.6-132.856-8.618-132.856-8.618l13.389-45.262Z" transform="translate(-262.174 -55.484)" fill="#023055"/>
          <g id="Grupo_121056" data-name="Grupo 121056" transform="translate(210.177)">
            <g id="Grupo_121050" data-name="Grupo 121050" transform="translate(0)">
              <path id="Trazado_143916" data-name="Trazado 143916" d="M301.613,162.171a30.579,30.579,0,1,1,43.9,27.21c.038,3.623.081,7.714.081,7.714l-26.8.28s-.208-4.328-.308-8.193A30.566,30.566,0,0,1,301.613,162.171Z" transform="translate(-301.611 -131.272)" fill="#ad1457"/>
              <g id="Grupo_121049" data-name="Grupo 121049" transform="translate(13.326 30.641)">
                <path id="Trazado_143917" data-name="Trazado 143917" d="M323.01,183.588s-.005-.127-.034-.377l-.136-1.1c-.127-.967-.316-2.394-.6-4.226s-.674-4.07-1.286-6.634a45.35,45.35,0,0,0-2.862-8.48,29.221,29.221,0,0,0-2.563-4.55,5.629,5.629,0,0,0-2.109-1.854,3.159,3.159,0,0,0-2.9.124,2.085,2.085,0,0,0-.954,1.221,2.133,2.133,0,0,0,.143,1.568,4.347,4.347,0,0,0,2.384,2.011,8.366,8.366,0,0,0,6.351-.517,8.479,8.479,0,0,0,4.265-5.147,6.4,6.4,0,0,0,.143-3.53,2.748,2.748,0,0,0-2.8-2.095,1.977,1.977,0,0,0-1.546,1.094,2.776,2.776,0,0,0-.226,1.889A5.979,5.979,0,0,0,320.453,156a9.125,9.125,0,0,0,7.149,1.994,7.947,7.947,0,0,0,5.867-4.469,4.615,4.615,0,0,0,.169-3.705,2.338,2.338,0,0,0-1.356-1.34,2.3,2.3,0,0,0-1.88.194,3.031,3.031,0,0,0-1.277,1.356,4.767,4.767,0,0,0-.448,1.765,8.8,8.8,0,0,0,.5,3.49,9.1,9.1,0,0,0,4.364,5.083,9.26,9.26,0,0,0,6.337.8,4.843,4.843,0,0,0,2.737-1.489,2.366,2.366,0,0,0,.138-2.947,1.994,1.994,0,0,0-1.381-.656,2.883,2.883,0,0,0-1.455.3,4.425,4.425,0,0,0-1.851,2.118c-.751,1.666-1.351,3.284-1.96,4.83-2.38,6.188-4.062,11.285-5.187,14.815-.561,1.767-.977,3.144-1.255,4.078q-.2.686-.307,1.067c-.066.24-.091.368-.091.368s.048-.12.129-.357.2-.6.343-1.055c.307-.943.752-2.306,1.32-4.057,1.168-3.515,2.888-8.595,5.3-14.764.612-1.532,1.229-3.169,1.971-4.8a4.156,4.156,0,0,1,1.724-1.975,1.832,1.832,0,0,1,2.316,2.832,4.533,4.533,0,0,1-2.563,1.37,8.949,8.949,0,0,1-6.1-.789,8.754,8.754,0,0,1-4.186-4.895,8.471,8.471,0,0,1-.475-3.343,3.323,3.323,0,0,1,1.537-2.827,1.921,1.921,0,0,1,1.582-.167,1.968,1.968,0,0,1,1.137,1.137,4.254,4.254,0,0,1-.169,3.406,7.578,7.578,0,0,1-5.589,4.251,8.752,8.752,0,0,1-6.849-1.912,5.642,5.642,0,0,1-2.055-2.809,2.4,2.4,0,0,1,.192-1.634,1.6,1.6,0,0,1,1.257-.9,2.146,2.146,0,0,1,1.526.475,2.645,2.645,0,0,1,.886,1.36,6.056,6.056,0,0,1-.14,3.322,8.065,8.065,0,0,1-10.155,5.458,4.038,4.038,0,0,1-2.21-1.84,1.8,1.8,0,0,1,.683-2.384,2.851,2.851,0,0,1,2.615-.118,5.353,5.353,0,0,1,2,1.756,28.948,28.948,0,0,1,2.554,4.487,45.61,45.61,0,0,1,2.9,8.419c.628,2.552,1.031,4.783,1.345,6.607.291,1.817.517,3.234.673,4.213.075.47.133.834.174,1.1S323.01,183.588,323.01,183.588Z" transform="translate(-309.469 -148.356)" fill="#263238"/>
              </g>
              <path id="Trazado_143918" data-name="Trazado 143918" d="M312.916,172.517l23.009-.24a1.726,1.726,0,0,0,1.709-1.745h0a1.728,1.728,0,0,0-1.745-1.709l-23.011.24a1.728,1.728,0,0,0-1.707,1.745h0A1.726,1.726,0,0,0,312.916,172.517Z" transform="translate(-293.623 -101.475)" fill="#263238"/>
              <path id="Trazado_143919" data-name="Trazado 143919" d="M312.851,171.829l23.011-.24a1.727,1.727,0,1,1,.036,3.454l-2.525.025-3.284,6.414a2.221,2.221,0,0,1-1.951,1.207l-8.223.086a2.219,2.219,0,0,1-1.987-1.187l-3.322-6.322-1.718.018a1.727,1.727,0,1,1-.036-3.454Z" transform="translate(-293.544 -99.279)" fill="#263238"/>
            </g>
            <g id="Grupo_121051" data-name="Grupo 121051" transform="translate(37.252 5.524)" opacity="0.2">
              <path id="Trazado_143920" data-name="Trazado 143920" d="M316.288,139.718a22.544,22.544,0,0,0-6.166-4.007,16.253,16.253,0,0,0-4.726-1.32c-1.159-.108-1.817.011-1.871.255-.126.558,2.2,1.356,5.345,3.409a25.144,25.144,0,0,1,11.721,24.573c-.384,3.736-1.227,6.046-.716,6.3.224.113.73-.323,1.376-1.291a16.257,16.257,0,0,0,1.948-4.5,22.442,22.442,0,0,0,.768-7.314A23.778,23.778,0,0,0,321.733,147" transform="translate(-303.52 -134.352)" fill="#fff"/>
            </g>
            <g id="Grupo_121052" data-name="Grupo 121052" transform="translate(26.023 3.457)" opacity="0.2">
              <path id="Trazado_143921" data-name="Trazado 143921" d="M320.782,136.956c1.939-.038,3.643-.585,3.831-1.614.079-.509-.285-1.047-.99-1.463a6.134,6.134,0,0,0-5.777.09c-.691.438-1.038.988-.943,1.494" transform="translate(-316.887 -133.2)" fill="#fff"/>
            </g>
            <g id="Grupo_121053" data-name="Grupo 121053" transform="translate(24.817 81.437)">
              <path id="Trazado_143922" data-name="Trazado 143922" d="M315.792,178.091c.029.056.6-.215,1.577-.5a12.807,12.807,0,0,1,7.775.143c.96.326,1.526.617,1.555.561a4.684,4.684,0,0,0-1.464-.811,11.213,11.213,0,0,0-7.949-.147A4.7,4.7,0,0,0,315.792,178.091Z" transform="translate(-315.792 -176.678)" fill="#455a64"/>
            </g>
            <g id="Grupo_121054" data-name="Grupo 121054" transform="translate(21.013 75.756)">
              <path id="Trazado_143923" data-name="Trazado 143923" d="M313.634,173.818c0,.1,4.161.145,9.292.091s9.29-.181,9.289-.285-4.161-.143-9.292-.09S313.632,173.716,313.634,173.818Z" transform="translate(-313.634 -173.511)" fill="#455a64"/>
            </g>
            <g id="Grupo_121055" data-name="Grupo 121055" transform="translate(22.482 78.719)">
              <path id="Trazado_143924" data-name="Trazado 143924" d="M314.523,175.223a13.1,13.1,0,0,0,2.267.206c1.4.074,3.345.135,5.49.142s4.087-.038,5.492-.1a12.847,12.847,0,0,0,2.269-.192,14.522,14.522,0,0,0-2.274-.074c-1.517,0-3.4-.007-5.485-.009l-5.485-.032A14.238,14.238,0,0,0,314.523,175.223Z" transform="translate(-314.523 -175.162)" fill="#455a64"/>
            </g>
          </g>
          <g id="Grupo_121057" data-name="Grupo 121057" transform="translate(180.121 235.41)">
            <path id="Trazado_143925" data-name="Trazado 143925" d="M353.158,313.569a7.19,7.19,0,0,0,1.345-1.657,18.473,18.473,0,0,0,2.393-5.321c1.422-4.765,1.243-11.864-1.134-19.01-2.4-7.122-5.547-13.111-7.3-17.648-.908-2.256-1.568-4.111-1.984-5.408a10.3,10.3,0,0,0-.716-2,8.533,8.533,0,0,0,.366,2.1,51.535,51.535,0,0,0,1.716,5.544c1.607,4.634,4.663,10.691,7.025,17.7,2.328,7.009,2.6,13.887,1.381,18.551C355.1,311.134,352.959,313.46,353.158,313.569Z" transform="translate(-345.753 -262.527)"/>
          </g>
          <g id="Grupo_121058" data-name="Grupo 121058" transform="translate(48.954 240.141)">
            <path id="Trazado_143926" data-name="Trazado 143926" d="M432.1,265.165a3.843,3.843,0,0,0-.253.924l-.543,2.68c-.456,2.468-1.071,5.811-1.822,9.882-1.49,8.354-3.474,19.908-5.555,32.687s-3.853,24.376-5.006,32.786c-.581,4.2-.994,7.615-1.248,9.976-.1,1.1-.176,2-.24,2.724a3.806,3.806,0,0,0-.022.956,3.613,3.613,0,0,0,.208-.934c.111-.721.247-1.614.414-2.7.386-2.479.906-5.838,1.541-9.927,1.37-8.5,3.225-20.009,5.275-32.73s3.912-24.227,5.286-32.727c.63-4.093,1.146-7.452,1.528-9.933.149-1.09.271-1.985.371-2.708A3.632,3.632,0,0,0,432.1,265.165Z" transform="translate(-417.393 -265.165)"/>
          </g>
          <g id="Grupo_121059" data-name="Grupo 121059" transform="translate(213.443 254.151)">
            <path id="Trazado_143927" data-name="Trazado 143927" d="M334.735,307.028a31.9,31.9,0,0,0-.307-5c-.262-3.072-.565-7.318-.69-12.013s-.041-8.955.059-12.036a31.814,31.814,0,0,0,.045-5.006,23.009,23.009,0,0,0-.7,4.966,112.452,112.452,0,0,0,.635,24.163A23.021,23.021,0,0,0,334.735,307.028Z" transform="translate(-332.765 -272.976)"/>
          </g>
          <g id="Grupo_121060" data-name="Grupo 121060" transform="translate(33.114 332.408)">
            <path id="Trazado_143928" data-name="Trazado 143928" d="M425.476,328.86c.149.03.414-1.178,1.266-2.931a15.372,15.372,0,0,1,11.66-8.63c1.924-.3,3.158-.2,3.173-.355a6.522,6.522,0,0,0-3.25-.3,14.273,14.273,0,0,0-12.187,9.02A6.532,6.532,0,0,0,425.476,328.86Z" transform="translate(-425.433 -316.609)"/>
          </g>
          <g id="Grupo_121061" data-name="Grupo 121061" transform="translate(42.976 339.9)">
            <path id="Trazado_143929" data-name="Trazado 143929" d="M422.9,330.84c.26.122,1.6-3.056,4.658-5.834,3.015-2.825,6.29-3.91,6.188-4.179-.014-.233-3.614.5-6.821,3.492C423.687,327.276,422.669,330.806,422.9,330.84Z" transform="translate(-422.869 -320.787)"/>
          </g>
          <g id="Grupo_121062" data-name="Grupo 121062" transform="translate(53.562 340.024)">
            <path id="Trazado_143930" data-name="Trazado 143930" d="M432.976,330.812c.091-.251-5-2.328-11.192-5.072s-11.161-5.106-11.283-4.868c-.118.219,4.674,2.972,10.9,5.721S432.892,331.045,432.976,330.812Z" transform="translate(-410.499 -320.856)"/>
          </g>
          <g id="Grupo_121069" data-name="Grupo 121069" transform="translate(29.948 274.365)">
            <g id="Grupo_121068" data-name="Grupo 121068">
              <g id="Grupo_121067" data-name="Grupo 121067">
                <path id="Trazado_143931" data-name="Trazado 143931" d="M533.758,284.247S508.013,406.91,508.013,405.3c0-1.463-129.969,5.574-153.231,6.6l-4.839-1.178-36.689-33.776,42.206-3.4,15.094-86.307Z" transform="translate(-313.255 -284.247)" fill="#e0e0e0"/>
                <g id="Grupo_121063" data-name="Grupo 121063" transform="translate(36.678 2.992)">
                  <path id="Trazado_143932" data-name="Trazado 143932" d="M424.866,285.915c-.255-.043-5.074,27.568-10.765,61.662s-10.1,61.78-9.846,61.823,5.074-27.563,10.767-61.669S425.121,285.956,424.866,285.915Z" transform="translate(-404.244 -285.915)" fill="#455a64"/>
                </g>
                <g id="Grupo_121064" data-name="Grupo 121064" transform="translate(41.517 3.051)">
                  <path id="Trazado_143933" data-name="Trazado 143933" d="M417.109,285.95a5.169,5.169,0,0,0,.931.918,24.583,24.583,0,0,1,2.681,2.55c.45.6,1.058,1.417.739,2.28-.253.987-.386,2.03-.6,3.167-.4,2.285-.857,4.866-1.358,7.709-1.959,11.525-4.638,27.276-7.6,44.677-2.855,17.426-5.438,33.193-7.328,44.731-.881,5.653-1.6,10.263-2.115,13.572-.219,1.533-.395,2.762-.529,3.7a6.821,6.821,0,0,0-.12,1.3,6.994,6.994,0,0,0,.307-1.27l.7-3.668c.586-3.3,1.4-7.892,2.407-13.523,1.96-11.527,4.638-27.278,7.6-44.686,2.854-17.419,5.436-33.184,7.325-44.722l1.221-7.732c.192-1.126.308-2.22.524-3.149a2.884,2.884,0,0,0-.895-2.617,20.151,20.151,0,0,0-2.841-2.462A10.076,10.076,0,0,0,417.109,285.95Z" transform="translate(-401.8 -285.948)" fill="#455a64"/>
                </g>
                <g id="Grupo_121065" data-name="Grupo 121065" transform="translate(61.579 4.748)">
                  <path id="Trazado_143934" data-name="Trazado 143934" d="M314.021,289.674a10.389,10.389,0,0,0,1.6.057l4.591-.022,16.884-.235,55.7-.983,55.7-.931,16.881-.253,4.591-.1a10.4,10.4,0,0,0,1.6-.1,10.182,10.182,0,0,0-1.6-.09q-1.695-.03-4.59-.075c-3.987-.054-9.757-.056-16.886-.043-14.259.043-33.957.267-55.716.658s-41.441.854-55.693,1.255l-16.879.531-4.586.2A10.428,10.428,0,0,0,314.021,289.674Z" transform="translate(-314.021 -286.894)" fill="#455a64"/>
                </g>
                <g id="Grupo_121066" data-name="Grupo 121066" transform="translate(9.118 92.737)">
                  <path id="Trazado_143935" data-name="Trazado 143935" d="M445.8,336.006a13.058,13.058,0,0,0-2.5-.023c-1.776.07-4.064.161-6.821.273-5.77.269-13.776.7-22.719,1.243l-1.157.07.882.751c.526.445,1.085.922,1.652,1.4,7.206,6.121,13.765,11.622,18.542,15.568l5.689,4.636a14.664,14.664,0,0,0,2.168,1.6,15.071,15.071,0,0,0-1.933-1.88l-5.5-4.862c-4.667-4.075-11.158-9.655-18.364-15.776l-1.652-1.4-.273.82c8.941-.556,16.94-1.1,22.7-1.535l6.8-.561A13.469,13.469,0,0,0,445.8,336.006Z" transform="translate(-412.607 -335.954)" fill="#455a64"/>
                </g>
              </g>
              <path id="Trazado_143936" data-name="Trazado 143936" d="M411.169,365.355h0l1.664-19.973s-6.658-.952-7.133,6.419V339.437s-7.61-1.664-9.274,8.324-4.044,15.383-4.044,15.383l-4.039,2.211,3.8-23.065s-8.085.714-9.511,8.322a74.689,74.689,0,0,1-3.594,12.955l-12.774,3.571s7.332-6.537,6.618-8.677-.238-2.007-1.664-2.312-4.629.629-6.815,1.794c-2.323,1.237-15.774,9.2-15.774,9.2V377s31.315,2.267,38.385.949l13.7-3.171A14.511,14.511,0,0,0,411.169,365.355Z" transform="translate(-255.781 -240.535)" fill="#ffbe9d"/>
            </g>
            <path id="Trazado_143937" data-name="Trazado 143937" d="M356.8,320.891c-.872,5.251,2.238,10.142,6.948,10.924s9.233-2.841,10.1-8.094-2.238-10.142-6.948-10.924S357.672,315.64,356.8,320.891Z" transform="translate(-231.336 -261.676)" fill="#fafafa"/>
          </g>
          <g id="Grupo_121070" data-name="Grupo 121070" transform="translate(22.773 331)" opacity="0.4">
            <path id="Trazado_143938" data-name="Trazado 143938" d="M451.6,317.062a23.228,23.228,0,0,0-16.31.49c-5.083,2.256-9.156,7.016-9.909,12.526a7.957,7.957,0,0,0,.273,3.809,4.245,4.245,0,0,0,2.606,2.658c1.987.606,4.113-.751,5.237-2.5s1.557-3.838,2.317-5.772a18.178,18.178,0,0,1,16.23-11.258l-.848.23" transform="translate(-425.273 -315.824)"/>
          </g>
        </g>
        <path id="Trazado_143939" data-name="Trazado 143939" d="M438.343,241.864c-1.067-3.372-.108-7,.486-10.487s.673-7.474-1.7-10.1c-2.358-2.606-6.267-2.934-9.778-3.087l-43.416-1.887c-2.961-.127-6.392-.056-8.247,2.256a6.366,6.366,0,0,0-1.526,5.334c2.231,8.268,1.533,15.231-1.711,21.054" transform="translate(-294.898 -63.825)" fill="#023055"/>
        <g id="Grupo_121072" data-name="Grupo 121072" transform="translate(84.623 173.888)">
          <path id="Trazado_143940" data-name="Trazado 143940" d="M373.7,228.232a12.664,12.664,0,0,0,1.9,1.6,50.632,50.632,0,0,0,5.718,3.614,56.03,56.03,0,0,0,21.268,6.491A50.169,50.169,0,0,0,414.9,239.7a29.09,29.09,0,0,0,9.581-3.1,17.6,17.6,0,0,0,5.278-4.27,10.272,10.272,0,0,0,1.065-1.508c.215-.362.316-.56.289-.578-.163-.179-1.874,3.2-6.941,5.772a29.815,29.815,0,0,1-9.4,2.83,51.974,51.974,0,0,1-12.1.158,59.393,59.393,0,0,1-21.051-6.145C376.574,230.3,373.808,228.082,373.7,228.232Z" transform="translate(-373.701 -228.225)"/>
        </g>
        <g id="Grupo_121073" data-name="Grupo 121073" transform="translate(114.222 154.146)">
          <path id="Trazado_143941" data-name="Trazado 143941" d="M386.743,248.811a25.633,25.633,0,0,0,1.128-4.782c.577-2.974,1.315-7.092,2.07-11.651.362-2.263.707-4.421,1.028-6.435a11.5,11.5,0,0,0-.179-5.438,5.3,5.3,0,0,0-2.278-2.9c-.786-.43-1.3-.409-1.3-.362-.022.077.448.185,1.1.667a5.326,5.326,0,0,1,1.847,2.8,11.546,11.546,0,0,1-.041,5.1c-.344,2.011-.712,4.161-1.1,6.417-.755,4.559-1.388,8.693-1.8,11.7A25.693,25.693,0,0,0,386.743,248.811Z" transform="translate(-386.704 -217.218)"/>
        </g>
        <g id="Grupo_121074" data-name="Grupo 121074" transform="translate(91.631 152.907)">
          <path id="Trazado_143942" data-name="Trazado 143942" d="M398.763,242.489a17.426,17.426,0,0,0,.814-3.942c.386-2.45.854-5.843,1.313-9.6.49-3.732.757-7.214,1.108-9.579a3.62,3.62,0,0,1,1.354-2.307c.531-.375.931-.405.92-.482.009-.047-.425-.158-1.108.17a3.767,3.767,0,0,0-1.806,2.457c-.549,2.507-.9,5.858-1.4,9.626-.459,3.754-.823,7.16-1.04,9.629A17.09,17.09,0,0,0,398.763,242.489Z" transform="translate(-398.698 -216.527)"/>
        </g>
        <g id="Grupo_121075" data-name="Grupo 121075" transform="translate(133 154.381)">
          <path id="Trazado_143943" data-name="Trazado 143943" d="M375.572,217.371a9.627,9.627,0,0,1,2.92,2.443,9.325,9.325,0,0,1,1.6,3.752,19.4,19.4,0,0,1,.151,5.108c-.335,3.687-.647,7.063-.8,9.495a16.82,16.82,0,0,0-.068,3.965,16.69,16.69,0,0,0,.725-3.9c.321-2.427.735-5.757,1.076-9.491a18.32,18.32,0,0,0-.242-5.354,9.293,9.293,0,0,0-1.919-3.985C377.319,217.414,375.538,217.274,375.572,217.371Z" transform="translate(-375.569 -217.349)"/>
        </g>
      </g>
    </g>
  </g>
</svg>
