<svg xmlns="http://www.w3.org/2000/svg" xmlns:xlink="http://www.w3.org/1999/xlink" width="295" height="412" viewBox="0 0 295 412">
  <defs>
    <clipPath id="clip-path">
      <rect id="Rectángulo_34016" data-name="Rectángulo 34016" width="284" height="412" transform="translate(1019 2433)" fill="#fff" stroke="#707070" stroke-width="1"/>
    </clipPath>
  </defs>
  <g id="Grupo_122216" data-name="Grupo 122216" transform="translate(-1012 -2426)">
    <g id="Grupo_122206" data-name="Grupo 122206" transform="translate(917.735 2329.449)">
      <g id="Grupo_122158" data-name="Grupo 122158" transform="translate(95.803 142.551)">
        <g id="Grupo_122151" data-name="Grupo 122151">
          <g id="Grupo_122147" data-name="Grupo 122147" transform="translate(0 0.654)">
            <path id="Trazado_144276" data-name="Trazado 144276" d="M96.252,168.183,149.925,143.4l-14.078,52.5-12.024-9.933-8.169,5.4-4.356-.826L106.777,173.6Z" transform="translate(-96.252 -143.396)" fill="#e8505b"/>
          </g>
          <g id="Grupo_122148" data-name="Grupo 122148" transform="translate(10.525 0.654)" opacity="0.5">
            <path id="Trazado_144277" data-name="Trazado 144277" d="M114.589,189.994,153,143.4l-43.148,30.2Z" transform="translate(-109.849 -143.396)"/>
          </g>
          <g id="Grupo_122150" data-name="Grupo 122150" transform="translate(28.935)">
            <g id="Grupo_122149" data-name="Grupo 122149">
              <path id="Trazado_144278" data-name="Trazado 144278" d="M158.53,142.551c.1.057-5.4,9.512-12.274,21.115s-12.526,20.969-12.622,20.912,5.4-9.509,12.275-21.117S158.435,142.494,158.53,142.551Z" transform="translate(-133.632 -142.551)" fill="#263238"/>
            </g>
          </g>
        </g>
        <g id="Grupo_122153" data-name="Grupo 122153" transform="translate(3.781 9.604)">
          <g id="Grupo_122152" data-name="Grupo 122152">
            <path id="Trazado_144279" data-name="Trazado 144279" d="M133.866,154.96c.047.1-7.242,3.62-16.279,7.86s-16.4,7.6-16.45,7.5,7.24-3.62,16.279-7.86S133.818,154.86,133.866,154.96Z" transform="translate(-101.137 -154.958)" fill="#fff"/>
          </g>
        </g>
        <g id="Grupo_122155" data-name="Grupo 122155" transform="translate(38.811 7.958)">
          <g id="Grupo_122154" data-name="Grupo 122154">
            <path id="Trazado_144280" data-name="Trazado 144280" d="M147.994,152.875c.046.1-.274.347-.715.549s-.837.284-.883.183.274-.348.715-.55S147.948,152.774,147.994,152.875Z" transform="translate(-146.391 -152.832)" fill="#fff"/>
          </g>
        </g>
        <g id="Grupo_122157" data-name="Grupo 122157" transform="translate(29.563 27.814)">
          <g id="Grupo_122156" data-name="Grupo 122156">
            <path id="Trazado_144281" data-name="Trazado 144281" d="M143.607,178.484a13.475,13.475,0,0,1-1.077,2.246c-.725,1.356-1.787,3.2-3.054,5.173s-2.5,3.706-3.436,4.929a13.592,13.592,0,0,1-1.594,1.913,17.291,17.291,0,0,1,1.363-2.08c.871-1.262,2.063-3.013,3.328-4.98s2.359-3.779,3.145-5.1A17.538,17.538,0,0,1,143.607,178.484Z" transform="translate(-134.443 -178.483)" fill="#fff"/>
          </g>
        </g>
      </g>
      <g id="Grupo_122205" data-name="Grupo 122205" transform="translate(94.265 192.564)">
        <g id="Grupo_122160" data-name="Grupo 122160" transform="translate(11.742)">
          <g id="Grupo_122159" data-name="Grupo 122159">
            <path id="Trazado_144282" data-name="Trazado 144282" d="M109.438,208.3c-.053-.1.445-.468,1.138-.775s1.3-.427,1.338-.324-.5.39-1.175.692S109.491,208.4,109.438,208.3Z" transform="translate(-109.434 -207.162)" fill="#263238"/>
          </g>
        </g>
        <g id="Grupo_122162" data-name="Grupo 122162" transform="translate(3.872 4.177)">
          <g id="Grupo_122161" data-name="Grupo 122161">
            <path id="Trazado_144283" data-name="Trazado 144283" d="M99.275,216.561a10.107,10.107,0,0,1,3.511-4,14.56,14.56,0,0,1-1.721,2.029A14.361,14.361,0,0,1,99.275,216.561Z" transform="translate(-99.266 -212.558)" fill="#263238"/>
          </g>
        </g>
        <g id="Grupo_122164" data-name="Grupo 122164" transform="translate(0 12.87)">
          <g id="Grupo_122163" data-name="Grupo 122163">
            <path id="Trazado_144284" data-name="Trazado 144284" d="M94.316,228.931a6.4,6.4,0,0,1,.31-2.662,6.477,6.477,0,0,1,1.016-2.48,14.634,14.634,0,0,1-.626,2.581A15.078,15.078,0,0,1,94.316,228.931Z" transform="translate(-94.265 -223.787)" fill="#263238"/>
          </g>
        </g>
        <g id="Grupo_122166" data-name="Grupo 122166" transform="translate(0.026 23.326)">
          <g id="Grupo_122165" data-name="Grupo 122165">
            <path id="Trazado_144285" data-name="Trazado 144285" d="M95.74,242.425a6.469,6.469,0,0,1-1.052-2.468,6.378,6.378,0,0,1-.341-2.661,15.333,15.333,0,0,1,.73,2.555A14.865,14.865,0,0,1,95.74,242.425Z" transform="translate(-94.299 -237.296)" fill="#263238"/>
          </g>
        </g>
        <g id="Grupo_122168" data-name="Grupo 122168" transform="translate(4.04 33.102)">
          <g id="Grupo_122167" data-name="Grupo 122167">
            <path id="Trazado_144286" data-name="Trazado 144286" d="M103.068,253.864a10.127,10.127,0,0,1-3.575-3.935,14.241,14.241,0,0,1,1.824,1.935A14.413,14.413,0,0,1,103.068,253.864Z" transform="translate(-99.484 -249.926)" fill="#263238"/>
          </g>
        </g>
        <g id="Grupo_122170" data-name="Grupo 122170" transform="translate(12.015 40.014)">
          <g id="Grupo_122169" data-name="Grupo 122169">
            <path id="Trazado_144287" data-name="Trazado 144287" d="M114.793,260.646c-.011.054-.311.033-.793-.046a9.593,9.593,0,0,1-1.838-.482,6.324,6.324,0,0,1-2.373-1.249,15.558,15.558,0,0,1,2.51.87c.684.249,1.313.447,1.771.585S114.8,260.591,114.793,260.646Z" transform="translate(-109.786 -258.855)" fill="#263238"/>
          </g>
        </g>
        <g id="Grupo_122172" data-name="Grupo 122172" transform="translate(22.322 40.226)">
          <g id="Grupo_122171" data-name="Grupo 122171">
            <path id="Trazado_144288" data-name="Trazado 144288" d="M128.082,259.139a5.019,5.019,0,0,1-2.325,1.352,5.5,5.5,0,0,1-2.656.413,25.357,25.357,0,0,1,2.524-.793C127,259.648,128.016,259.041,128.082,259.139Z" transform="translate(-123.102 -259.129)" fill="#263238"/>
          </g>
        </g>
        <g id="Grupo_122174" data-name="Grupo 122174" transform="translate(30.618 30.949)">
          <g id="Grupo_122173" data-name="Grupo 122173">
            <path id="Trazado_144289" data-name="Trazado 144289" d="M134.178,247.145a4.894,4.894,0,0,1,.413,2.659,4.526,4.526,0,0,1-.75,2.585c-.111-.043.278-1.166.348-2.608S134.058,247.17,134.178,247.145Z" transform="translate(-133.82 -247.144)" fill="#263238"/>
          </g>
        </g>
        <g id="Grupo_122176" data-name="Grupo 122176" transform="translate(24.529 22.959)">
          <g id="Grupo_122175" data-name="Grupo 122175">
            <path id="Trazado_144290" data-name="Trazado 144290" d="M125.955,236.839a4.815,4.815,0,0,1,2.422,1.17,5.1,5.1,0,0,1,1.764,2.031c-.094.075-.865-.831-2.01-1.712S125.911,236.949,125.955,236.839Z" transform="translate(-125.953 -236.822)" fill="#263238"/>
          </g>
        </g>
        <g id="Grupo_122178" data-name="Grupo 122178" transform="translate(14.166 22.067)">
          <g id="Grupo_122177" data-name="Grupo 122177">
            <path id="Trazado_144291" data-name="Trazado 144291" d="M112.568,237.017a5.832,5.832,0,0,1,2.467-1.06,5.606,5.606,0,0,1,2.677-.208,23.06,23.06,0,0,1-2.58.6A19.974,19.974,0,0,1,112.568,237.017Z" transform="translate(-112.566 -235.67)" fill="#263238"/>
          </g>
        </g>
        <g id="Grupo_122180" data-name="Grupo 122180" transform="translate(6.384 26.299)">
          <g id="Grupo_122179" data-name="Grupo 122179">
            <path id="Trazado_144292" data-name="Trazado 144292" d="M102.524,245.28a6.219,6.219,0,0,1,1.348-2.318,7.484,7.484,0,0,1,1.975-1.82,11.219,11.219,0,0,1-1.66,2.071A16.363,16.363,0,0,1,102.524,245.28Z" transform="translate(-102.513 -241.137)" fill="#263238"/>
          </g>
        </g>
        <g id="Grupo_122182" data-name="Grupo 122182" transform="translate(3.146 35.314)">
          <g id="Grupo_122181" data-name="Grupo 122181">
            <path id="Trazado_144293" data-name="Trazado 144293" d="M98.386,257.992a7.03,7.03,0,0,1,.217-2.668,6.816,6.816,0,0,1,.851-2.54A13.152,13.152,0,0,1,99,255.4,12.407,12.407,0,0,1,98.386,257.992Z" transform="translate(-98.329 -252.783)" fill="#263238"/>
          </g>
        </g>
        <g id="Grupo_122184" data-name="Grupo 122184" transform="translate(2.895 45.843)">
          <g id="Grupo_122183" data-name="Grupo 122183">
            <path id="Trazado_144294" data-name="Trazado 144294" d="M98.667,271.677a12.251,12.251,0,0,1-.553-5.292,31.955,31.955,0,0,1,.553,5.292Z" transform="translate(-98.005 -266.385)" fill="#263238"/>
          </g>
        </g>
        <g id="Grupo_122186" data-name="Grupo 122186" transform="translate(4.788 56.306)">
          <g id="Grupo_122185" data-name="Grupo 122185">
            <path id="Trazado_144295" data-name="Trazado 144295" d="M102.375,284.871a12.56,12.56,0,0,1-1.9-4.968,30.048,30.048,0,0,1,1.9,4.968Z" transform="translate(-100.451 -279.902)" fill="#263238"/>
          </g>
        </g>
        <g id="Grupo_122188" data-name="Grupo 122188" transform="translate(9.202 65.971)">
          <g id="Grupo_122187" data-name="Grupo 122187">
            <path id="Trazado_144296" data-name="Trazado 144296" d="M109.211,296.755a12.72,12.72,0,0,1-3.048-4.363,29.2,29.2,0,0,1,3.048,4.363Z" transform="translate(-106.152 -292.389)" fill="#263238"/>
          </g>
        </g>
        <g id="Grupo_122190" data-name="Grupo 122190" transform="translate(15.807 74.296)">
          <g id="Grupo_122189" data-name="Grupo 122189">
            <path id="Trazado_144297" data-name="Trazado 144297" d="M118.7,306.647a12.586,12.586,0,0,1-4.013-3.5,11.212,11.212,0,0,1,2.085,1.66A11.271,11.271,0,0,1,118.7,306.647Z" transform="translate(-114.686 -303.143)" fill="#263238"/>
          </g>
        </g>
        <g id="Grupo_122192" data-name="Grupo 122192" transform="translate(24.247 80.748)">
          <g id="Grupo_122191" data-name="Grupo 122191">
            <path id="Trazado_144298" data-name="Trazado 144298" d="M130.366,313.836a12.251,12.251,0,0,1-4.774-2.345,11.462,11.462,0,0,1,2.436,1.074A11.552,11.552,0,0,1,130.366,313.836Z" transform="translate(-125.589 -311.479)" fill="#263238"/>
          </g>
        </g>
        <g id="Grupo_122194" data-name="Grupo 122194" transform="translate(34.109 84.612)">
          <g id="Grupo_122193" data-name="Grupo 122193">
            <path id="Trazado_144299" data-name="Trazado 144299" d="M143.623,317.043a7.166,7.166,0,0,1-2.677.046,6.938,6.938,0,0,1-2.616-.58,12.823,12.823,0,0,1,2.655.179A11.978,11.978,0,0,1,143.623,317.043Z" transform="translate(-138.33 -316.47)" fill="#263238"/>
          </g>
        </g>
        <g id="Grupo_122196" data-name="Grupo 122196" transform="translate(44.718 84.063)">
          <g id="Grupo_122195" data-name="Grupo 122195">
            <path id="Trazado_144300" data-name="Trazado 144300" d="M157.29,315.8a7.817,7.817,0,0,1-2.585.682,7.672,7.672,0,0,1-2.669.156,10.769,10.769,0,0,1,2.605-.553A10.5,10.5,0,0,1,157.29,315.8Z" transform="translate(-152.036 -315.761)" fill="#263238"/>
          </g>
        </g>
        <g id="Grupo_122198" data-name="Grupo 122198" transform="translate(55.137 81.11)">
          <g id="Grupo_122197" data-name="Grupo 122197">
            <path id="Trazado_144301" data-name="Trazado 144301" d="M170.551,311.967a17.7,17.7,0,0,1-5.055,1.67,17.7,17.7,0,0,1,5.055-1.67Z" transform="translate(-165.495 -311.946)" fill="#263238"/>
          </g>
        </g>
        <g id="Grupo_122200" data-name="Grupo 122200" transform="translate(65.132 76.861)">
          <g id="Grupo_122199" data-name="Grupo 122199">
            <path id="Trazado_144302" data-name="Trazado 144302" d="M183.229,306.471a17.733,17.733,0,0,1-4.819,2.27,17.67,17.67,0,0,1,4.819-2.27Z" transform="translate(-178.408 -306.457)" fill="#263238"/>
          </g>
        </g>
        <g id="Grupo_122202" data-name="Grupo 122202" transform="translate(74.638 71.534)">
          <g id="Grupo_122201" data-name="Grupo 122201">
            <path id="Trazado_144303" data-name="Trazado 144303" d="M195.226,299.585a17.709,17.709,0,0,1-4.536,2.8,17.708,17.708,0,0,1,4.536-2.8Z" transform="translate(-190.688 -299.575)" fill="#263238"/>
          </g>
        </g>
        <g id="Grupo_122204" data-name="Grupo 122204" transform="translate(83.515 66.779)">
          <g id="Grupo_122203" data-name="Grupo 122203">
            <path id="Trazado_144304" data-name="Trazado 144304" d="M204.287,293.446c.071.086-.348.533-.937,1s-1.12.772-1.187.683.352-.536.937-1S204.216,293.361,204.287,293.446Z" transform="translate(-202.157 -293.432)" fill="#263238"/>
          </g>
        </g>
      </g>
    </g>
    <g id="Grupo_122215" data-name="Grupo 122215">
      <g id="Enmascarar_grupo_63" data-name="Enmascarar grupo 63" transform="translate(4 -7)" clip-path="url(#clip-path)">
        <g id="Grupo_121227" data-name="Grupo 121227" transform="translate(1026.697 2465.206)">
          <g id="Grupo_121226" data-name="Grupo 121226" transform="translate(0 0)">
            <g id="Grupo_121101" data-name="Grupo 121101" transform="translate(81.286 353.19)">
              <g id="Grupo_121099" data-name="Grupo 121099">
                <path id="Trazado_143951" data-name="Trazado 143951" d="M474.653,352.514c-1.7-.364-15.578,63.228-13.768,87.957s13.768,110.7,13.768,110.7H531.9l10.322-121.652L540.28,551.167H617.2s17.824-83.611,14.646-108.929-20.106-91.915-20.106-91.915Z" transform="translate(-460.723 -350.322)" fill="#263238"/>
                <g id="Grupo_121097" data-name="Grupo 121097" transform="translate(75.614 16.834)">
                  <path id="Trazado_143952" data-name="Trazado 143952" d="M514.119,360.215a12.256,12.256,0,0,0-.119,2.379c-.02,1.53,0,3.743.059,6.48.124,5.471.475,13.026,1.176,21.347s1.632,15.83,2.43,21.244c.4,2.706.752,4.892,1.031,6.4a12.129,12.129,0,0,0,.516,2.324,12.357,12.357,0,0,0-.175-2.374c-.2-1.688-.449-3.846-.75-6.429-.638-5.428-1.462-12.93-2.168-21.238s-1.149-15.838-1.433-21.3c-.136-2.6-.252-4.768-.34-6.464A12.55,12.55,0,0,0,514.119,360.215Z" transform="translate(-513.992 -360.215)" fill="#455a64"/>
                </g>
                <g id="Grupo_121098" data-name="Grupo 121098" transform="translate(59.902 21.888)">
                  <path id="Trazado_143953" data-name="Trazado 143953" d="M525.5,363.275a2.083,2.083,0,0,0-1.268-.02,5.245,5.245,0,0,0-2.976,1.79,5.44,5.44,0,0,0-1.132,2.2,4.8,4.8,0,0,0,.206,2.855,5.624,5.624,0,0,0,5.141,3.584,5.535,5.535,0,0,0,4.981-3.795,4.841,4.841,0,0,0,.107-2.86,4.979,4.979,0,0,0-1.254-2.136,4.68,4.68,0,0,0-3.155-1.46c-.841-.009-1.261.218-1.246.257.015.077.458-.026,1.215.087a4.632,4.632,0,0,1,2.728,1.543,4.183,4.183,0,0,1,.834,4.3,4.781,4.781,0,0,1-4.222,3.18,4.872,4.872,0,0,1-4.37-3,4.356,4.356,0,0,1,.655-4.354,5.325,5.325,0,0,1,2.573-1.85A11.392,11.392,0,0,0,525.5,363.275Z" transform="translate(-520.001 -363.185)" fill="#455a64"/>
                </g>
              </g>
              <g id="Grupo_121100" data-name="Grupo 121100" transform="translate(5.412 16.81)">
                <path id="Trazado_143954" data-name="Trazado 143954" d="M538.685,376.038a4.944,4.944,0,0,0,1.5.57,23.439,23.439,0,0,0,4.3.793,27.027,27.027,0,0,0,25-11.848,23.29,23.29,0,0,0,2.11-3.829,5.026,5.026,0,0,0,.509-1.521c-.15-.07-.985,2.061-3.131,4.989a28.1,28.1,0,0,1-24.442,11.583C540.906,376.581,538.726,375.878,538.685,376.038Z" transform="translate(-538.685 -360.201)" fill="#455a64"/>
              </g>
            </g>
            <path id="Trazado_143955" data-name="Trazado 143955" d="M462.221,190.312c4.339,15.793,10.906,28.456,17.307,34.806s13.257,13.791,13.027,22.8c-.09,3.539-1.271,7.3.276,10.482,2.008,4.138,7.363,5.033,11.373,7.288,5.93,3.333,9.236,10.393,9,17.191s-3.662,13.227-8.457,18.052c-4.982,5.015-12.874,8.522-19.063,5.106-3.738-2.062-5.867-6.1-7.751-9.932q-14.633-29.758-26.485-60.779" transform="translate(-244.641 -109.394)" fill="#263238"/>
            <path id="Trazado_143956" data-name="Trazado 143956" d="M601.97,156.058c-10.979-12.187-29.734-16.633-45.014-10.674s-26.072,21.932-25.9,38.332c.111,10.575,4.247,21.658.07,31.372-2.957,6.873-9.794,12.063-10.735,19.485-1.091,8.61,6.272,16.42,5.888,25.09-.252,5.661-3.8,10.66-7.885,14.59s-8.83,7.165-12.575,11.418c-10.407,11.821-11.072,30.493-3.206,44.138s23.053,22.2,38.694,24.055,31.58-2.457,45.422-9.97c9.018-4.9,17.489-11.348,22.849-20.1s7.2-20.079,2.962-29.426" transform="translate(-424.308 -142.758)" fill="#263238"/>
            <g id="Grupo_121108" data-name="Grupo 121108" transform="translate(15.417 144.501)">
              <path id="Trazado_143957" data-name="Trazado 143957" d="M524.768,228.283s-35.3,10.421-38.737,16.01-14.526,71.145-14.526,71.145l21.682,77.212s-17.921,28.851-18.815,43.43c40.057,25.844,85.267,18.6,132.571-2.1l3.356-75.5,4.506-120.6-29.143-10.2Z" transform="translate(-395.784 -227.679)" fill="#e0e0e0"/>
              <g id="Grupo_121102" data-name="Grupo 121102" transform="translate(89.742 169.057)">
                <path id="Trazado_143958" data-name="Trazado 143958" d="M472.838,338.5a7.1,7.1,0,0,0,1.3-.027l3.709-.252,13.621-1.087c11.578-1.009,27.414-2.392,44.91-3.919l44.895-4.179c5.672-.572,10.293-1.036,13.6-1.368l3.694-.417a7.15,7.15,0,0,0,1.283-.206,7.051,7.051,0,0,0-1.3.027l-3.706.25c-3.311.265-7.94.635-13.62,1.087L536.3,332.335c-17.491,1.627-33.321,3.1-44.895,4.179l-13.6,1.366q-2.3.26-3.692.417A7.089,7.089,0,0,0,472.838,338.5Z" transform="translate(-472.838 -327.031)" fill="#e8505b"/>
              </g>
              <g id="Grupo_121103" data-name="Grupo 121103" transform="translate(79.943 95.032)">
                <path id="Trazado_143959" data-name="Trazado 143959" d="M482.438,283.97c0,.245,26.97.442,60.233.442s60.242-.2,60.242-.442-26.967-.442-60.242-.442S482.438,283.725,482.438,283.97Z" transform="translate(-482.438 -283.528)" fill="#e8505b"/>
              </g>
              <g id="Grupo_121104" data-name="Grupo 121104" transform="translate(84.549 43.587)">
                <path id="Trazado_143960" data-name="Trazado 143960" d="M509.444,253.379a16.462,16.462,0,0,0,2.75.262l7.5.429c6.335.351,15.083.873,24.733,1.611s18.379,1.559,24.694,2.178l7.48.72a16.711,16.711,0,0,0,2.757.16,16.466,16.466,0,0,0-2.716-.5c-1.756-.267-4.3-.611-7.453-1-6.3-.779-15.029-1.7-24.694-2.44s-18.427-1.162-24.774-1.353c-3.173-.1-5.741-.145-7.518-.148A16.377,16.377,0,0,0,509.444,253.379Z" transform="translate(-509.444 -253.295)" fill="#e8505b"/>
              </g>
              <g id="Grupo_121107" data-name="Grupo 121107" transform="translate(0 16.614)">
                <path id="Trazado_143961" data-name="Trazado 143961" d="M637.431,237.443l-35.407,96.089-23.775-47.344-31.066,6.366,17.889,74.62a31.645,31.645,0,0,0,24.95,26.6h0a31.645,31.645,0,0,0,29.771-9.675l11.125-12.2Z" transform="translate(-547.183 -237.443)" fill="#e0e0e0"/>
                <g id="Grupo_121105" data-name="Grupo 121105" transform="translate(53.729 95.364)">
                  <path id="Trazado_143962" data-name="Trazado 143962" d="M568.962,354.918a12.79,12.79,0,0,0,.255-2.409c.111-1.554.22-3.8.315-6.589.191-5.566.267-13.264.02-21.76s-.779-16.179-1.295-21.724c-.257-2.774-.5-5.013-.7-6.558a12.659,12.659,0,0,0-.4-2.391,12.653,12.653,0,0,0,.053,2.421c.109,1.722.25,3.929.419,6.575.356,5.551.783,13.221,1.033,21.7s.269,16.16.24,21.721c-.014,2.653-.024,4.865-.032,6.589A12.605,12.605,0,0,0,568.962,354.918Z" transform="translate(-567.128 -293.487)" fill="#e8505b"/>
                </g>
                <g id="Grupo_121106" data-name="Grupo 121106" transform="translate(9.79 83.496)">
                  <path id="Trazado_143963" data-name="Trazado 143963" d="M571.794,301.178c.087.23,8.794-2.866,19.446-6.912s19.22-7.514,19.133-7.742-8.794,2.865-19.448,6.914S571.707,300.95,571.794,301.178Z" transform="translate(-571.794 -286.512)" fill="#e8505b"/>
                </g>
              </g>
            </g>
            <path id="Trazado_143964" data-name="Trazado 143964" d="M586.122,263.373l14.9,10.988,16.551-4.063-3.969-4.4Z" transform="translate(-578.171 -58.134)" fill="#ffbe9d"/>
            <g id="Grupo_121149" data-name="Grupo 121149" transform="translate(0 154.699)">
              <g id="Grupo_121124" data-name="Grupo 121124" transform="translate(0 10.851)">
                <g id="Grupo_121111" data-name="Grupo 121111">
                  <g id="Grupo_121110" data-name="Grupo 121110">
                    <g id="Grupo_121109" data-name="Grupo 121109">
                      <path id="Trazado_143965" data-name="Trazado 143965" d="M606.972,240.049l-16.505,6.592-3.538,13.3,7.952,19.8,29.165,4.244L615.5,275.25l1.1-7.6s8.137-2.552,8.338-3.8-1.009-5.421-2.256-5.62-9.783,2.976-9.783,2.976,10.1-8,9.818-9.28-1.366-4.57-3.383-4.935-18.314,7.319-18.314,7.319l-2.648,6.034-2.307-9.65S610.551,246.634,606.972,240.049Z" transform="translate(-586.929 -240.049)" fill="#ffbe9d"/>
                    </g>
                  </g>
                </g>
                <g id="Grupo_121115" data-name="Grupo 121115" transform="translate(21.488 20.984)">
                  <g id="Grupo_121114" data-name="Grupo 121114">
                    <g id="Grupo_121113" data-name="Grupo 121113">
                      <g id="Grupo_121112" data-name="Grupo 121112">
                        <path id="Trazado_143966" data-name="Trazado 143966" d="M594.694,262.577c-.1.029-.407-.572-.56-1.644a8.961,8.961,0,0,1,2.831-7.65c.813-.715,1.44-.972,1.494-.887.163.2-1.986,1.744-3.03,4.666C594.317,259.96,594.944,262.533,594.694,262.577Z" transform="translate(-594.063 -252.381)" fill="#eb996e"/>
                      </g>
                    </g>
                  </g>
                </g>
                <g id="Grupo_121119" data-name="Grupo 121119" transform="translate(14.264 10.312)">
                  <g id="Grupo_121118" data-name="Grupo 121118">
                    <g id="Grupo_121117" data-name="Grupo 121117">
                      <g id="Grupo_121116" data-name="Grupo 121116">
                        <path id="Trazado_143967" data-name="Trazado 143967" d="M589.109,264.1a36.239,36.239,0,0,0,.653-4.325,18.915,18.915,0,0,1,.83-4.79,7.1,7.1,0,0,1,1.521-2.556,7.547,7.547,0,0,1,2.7-1.695c3.948-1.433,7.5-2.59,10.1-3.43a22.787,22.787,0,0,1,4.263-1.174,22.721,22.721,0,0,1-4.063,1.742c-2.534.98-6.11,2.248-9.982,3.652a6.937,6.937,0,0,0-2.418,1.487,6.467,6.467,0,0,0-1.382,2.248,20.827,20.827,0,0,0-.968,4.586C590.042,262.58,589.221,264.166,589.109,264.1Z" transform="translate(-589.098 -246.109)" fill="#eb996e"/>
                      </g>
                    </g>
                  </g>
                </g>
                <g id="Grupo_121123" data-name="Grupo 121123" transform="translate(10.341 18.946)">
                  <g id="Grupo_121122" data-name="Grupo 121122">
                    <g id="Grupo_121121" data-name="Grupo 121121">
                      <g id="Grupo_121120" data-name="Grupo 121120">
                        <path id="Trazado_143968" data-name="Trazado 143968" d="M602.56,257.553c-.233-.039-.185-1.5.105-3.253s.713-3.155.946-3.116.184,1.494-.105,3.253S602.791,257.591,602.56,257.553Z" transform="translate(-602.412 -251.184)" fill="#eb996e"/>
                      </g>
                    </g>
                  </g>
                </g>
              </g>
              <g id="Grupo_121140" data-name="Grupo 121140" transform="translate(84.833 98.689)">
                <g id="Grupo_121127" data-name="Grupo 121127">
                  <g id="Grupo_121126" data-name="Grupo 121126">
                    <g id="Grupo_121125" data-name="Grupo 121125">
                      <path id="Trazado_143969" data-name="Trazado 143969" d="M577.824,347.062s-26.468-9.09-27.088-9.383-18.69-8.709-17.152-13.553c0,0-5.156-4.07-3.565-6.355l7.247,3.048s-10.276-6.65-8.454-12.628c0,0-1.065-2.025.036-3.277s6.4,2.53,10.342,4.907l7.625,3.071a15.93,15.93,0,0,0,10.455.505h0a3.29,3.29,0,0,0,2.29-3.88,33.361,33.361,0,0,1,.556-17.848s1.88.664,3.175,4.741c1.666,5.232,6.9,9.262,8.811,12.7,1.1,1.974,2.84,5.118,4.128,7.443a8.093,8.093,0,0,0,5,3.9l-1.814,13.791Z" transform="translate(-528.35 -291.67)" fill="#ffbe9d"/>
                    </g>
                  </g>
                </g>
                <g id="Grupo_121131" data-name="Grupo 121131" transform="translate(0.54 17.273)">
                  <g id="Grupo_121130" data-name="Grupo 121130">
                    <g id="Grupo_121129" data-name="Grupo 121129">
                      <g id="Grupo_121128" data-name="Grupo 121128">
                        <path id="Trazado_143970" data-name="Trazado 143970" d="M567.454,314.971a4.115,4.115,0,0,1-.916-.286c-.58-.206-1.407-.541-2.414-.987a55.625,55.625,0,0,1-14.4-9.35c-.817-.74-1.46-1.358-1.885-1.8a3.937,3.937,0,0,1-.631-.721,4.011,4.011,0,0,1,.749.6c.459.407,1.131.989,1.972,1.693a68.363,68.363,0,0,0,14.322,9.3c.987.48,1.79.858,2.35,1.113A4.023,4.023,0,0,1,567.454,314.971Z" transform="translate(-547.211 -301.821)" fill="#eb996e"/>
                      </g>
                    </g>
                  </g>
                </g>
                <g id="Grupo_121135" data-name="Grupo 121135" transform="translate(8.335 28.672)">
                  <g id="Grupo_121134" data-name="Grupo 121134">
                    <g id="Grupo_121133" data-name="Grupo 121133">
                      <g id="Grupo_121132" data-name="Grupo 121132">
                        <path id="Trazado_143971" data-name="Trazado 143971" d="M559.471,315.541a7.71,7.71,0,0,1-1.948-.641,32.975,32.975,0,0,1-4.412-2.241,44.274,44.274,0,0,1-4.079-2.794,8.918,8.918,0,0,1-1.55-1.339c.085-.116,2.58,1.768,5.855,3.757,1.642.987,3.18,1.788,4.312,2.335A12.352,12.352,0,0,1,559.471,315.541Z" transform="translate(-547.48 -308.52)" fill="#eb996e"/>
                      </g>
                    </g>
                  </g>
                </g>
                <g id="Grupo_121139" data-name="Grupo 121139" transform="translate(5.235 32.45)">
                  <g id="Grupo_121138" data-name="Grupo 121138">
                    <g id="Grupo_121137" data-name="Grupo 121137">
                      <g id="Grupo_121136" data-name="Grupo 121136">
                        <path id="Trazado_143972" data-name="Trazado 143972" d="M562.665,320.318a12.933,12.933,0,0,1-2.488-.955,46.51,46.51,0,0,1-5.654-3.058,52.926,52.926,0,0,1-5.208-3.769,13.758,13.758,0,0,1-1.969-1.793,18.886,18.886,0,0,1,2.159,1.548c1.314.978,3.144,2.307,5.251,3.643s4.1,2.408,5.556,3.15A21.028,21.028,0,0,1,562.665,320.318Z" transform="translate(-547.345 -310.74)" fill="#eb996e"/>
                      </g>
                    </g>
                  </g>
                </g>
              </g>
              <g id="Grupo_121147" data-name="Grupo 121147" transform="translate(134.307)">
                <path id="Trazado_143973" data-name="Trazado 143973" d="M452.387,387.753,550.606,417.3a58.637,58.637,0,0,0,34.211-58.606c-3.085-34.711-7.181-80.371-8.387-91.833-2.008-19.111-23.913-33.185-23.913-33.185-30.135,1.96-23.448,61.528-23.448,61.528l12.119,68.522-85.4-3.422Z" transform="translate(-452.387 -233.672)" fill="#e0e0e0"/>
                <g id="Grupo_121141" data-name="Grupo 121141" transform="translate(76.67 61.528)">
                  <path id="Trazado_143974" data-name="Trazado 143974" d="M490.279,338.353a16.154,16.154,0,0,0-.119-2.738c-.112-1.761-.4-4.3-.761-7.429-.773-6.258-2.1-14.87-3.859-24.324s-3.533-17.982-4.916-24.132c-.691-3.073-1.274-5.556-1.7-7.266a15.787,15.787,0,0,0-.759-2.632,16.736,16.736,0,0,0,.422,2.707c.367,1.882.849,4.346,1.429,7.32,1.225,6.179,2.91,14.714,4.657,24.163s3.179,18.023,4.111,24.248c.422,3,.771,5.486,1.038,7.382A16.02,16.02,0,0,0,490.279,338.353Z" transform="translate(-478.147 -269.831)" fill="#263238"/>
                </g>
                <g id="Grupo_121142" data-name="Grupo 121142" transform="translate(3.403 126.589)">
                  <path id="Trazado_143975" data-name="Trazado 143975" d="M474.4,308.1a3.744,3.744,0,0,0,.927.141c.71.06,1.591.136,2.668.228,2.319.175,5.678.39,9.83.6,8.3.429,19.783.829,32.46,1.189l32.466.931,9.837.313,2.677.063a3.654,3.654,0,0,0,.936-.039,3.789,3.789,0,0,0-.926-.139c-.71-.06-1.591-.136-2.668-.228-2.319-.177-5.678-.39-9.83-.6-8.3-.429-19.784-.829-32.466-1.189l-32.46-.931c-4.058-.129-7.388-.237-9.837-.313l-2.677-.063A3.751,3.751,0,0,0,474.4,308.1Z" transform="translate(-474.4 -308.066)" fill="#263238"/>
                </g>
                <g id="Grupo_121143" data-name="Grupo 121143" transform="translate(85.083 101.605)">
                  <path id="Trazado_143976" data-name="Trazado 143976" d="M453.48,295.852a7.141,7.141,0,0,0,1.807-.031l4.892-.364c4.13-.318,9.834-.713,16.141-.98s12.029-.345,16.17-.374l4.906-.046a7.14,7.14,0,0,0,1.8-.121,7.092,7.092,0,0,0-1.793-.225c-1.157-.089-2.835-.17-4.907-.235-4.147-.131-9.885-.148-16.214.116s-12.042.764-16.164,1.24c-2.061.238-3.725.461-4.87.645A7.105,7.105,0,0,0,453.48,295.852Z" transform="translate(-453.48 -293.384)" fill="#e8505b"/>
                </g>
                <g id="Grupo_121144" data-name="Grupo 121144" transform="translate(76.682 54.617)">
                  <path id="Trazado_143977" data-name="Trazado 143977" d="M456.1,267.942c.01.245,11.137-.024,24.85-.6s24.826-1.239,24.816-1.482-11.135.022-24.852.6S456.087,267.7,456.1,267.942Z" transform="translate(-456.097 -265.77)" fill="#e8505b"/>
                </g>
                <g id="Grupo_121145" data-name="Grupo 121145" transform="translate(89.126 129.868)">
                  <path id="Trazado_143978" data-name="Trazado 143978" d="M492.032,341.115a7.3,7.3,0,0,0-.946-1.572c-.652-.985-1.659-2.364-2.959-4.026a101.174,101.174,0,0,0-24.27-22.141c-1.773-1.142-3.238-2.018-4.278-2.576a7.367,7.367,0,0,0-1.652-.8c-.073.122,2.141,1.492,5.581,3.9a124.414,124.414,0,0,1,24.134,22.017C490.351,339.119,491.916,341.2,492.032,341.115Z" transform="translate(-457.925 -309.993)" fill="#e8505b"/>
                </g>
                <g id="Grupo_121146" data-name="Grupo 121146" transform="translate(52.728 129)">
                  <path id="Trazado_143979" data-name="Trazado 143979" d="M495.527,350.815c.242.037,1.9-9.185,3.7-20.6s3.063-20.7,2.821-20.736-1.9,9.182-3.7,20.6S495.286,350.777,495.527,350.815Z" transform="translate(-495.498 -309.483)" fill="#e8505b"/>
                </g>
              </g>
              <g id="Grupo_121148" data-name="Grupo 121148" transform="translate(123.121 150.232)" opacity="0.3">
                <path id="Trazado_143980" data-name="Trazado 143980" d="M579.632,355.353l-110-33.392c8.248,10.848,24.3,20.967,36.414,27.21s25.068,10.652,37.969,15.037c7.012,2.384,14.19,4.8,21.595,4.73s14.63-2.19,18.522-8.491Z" transform="translate(-469.634 -321.961)"/>
              </g>
            </g>
            <g id="Grupo_121225" data-name="Grupo 121225" transform="translate(106.765 13.589)">
              <path id="Trazado_143981" data-name="Trazado 143981" d="M473.864,181.934a11.636,11.636,0,0,1,4.055-13.839,12.533,12.533,0,0,1,14.574.745,13.584,13.584,0,0,1,4.172,14.152,13.861,13.861,0,0,1-26.967-1.945" transform="translate(-366.474 -139.966)" fill="#263238"/>
              <g id="Grupo_121217" data-name="Grupo 121217" transform="translate(10.973 9.159)">
                <g id="Grupo_121216" data-name="Grupo 121216">
                  <g id="Grupo_121215" data-name="Grupo 121215">
                    <g id="Grupo_121214" data-name="Grupo 121214">
                      <g id="Grupo_121203" data-name="Grupo 121203">
                        <g id="Grupo_121202" data-name="Grupo 121202">
                          <g id="Grupo_121201" data-name="Grupo 121201">
                            <g id="Grupo_121154" data-name="Grupo 121154">
                              <g id="Grupo_121153" data-name="Grupo 121153">
                                <g id="Grupo_121152" data-name="Grupo 121152">
                                  <g id="Grupo_121151" data-name="Grupo 121151">
                                    <g id="Grupo_121150" data-name="Grupo 121150">
                                      <path id="Trazado_143982" data-name="Trazado 143982" d="M572.023,160.21l.063,8.038,1.7,120.322c.2,13.968-11.656,25.262-26.613,25.361h0c-15.107.1-27.692-11.251-28.124-25.357-.454-14.807-1.2-30.387-1.2-30.387s-19.165-2.641-23.8-27.421c-2.306-12.325-2.244-32.637-1.657-49.254a26.294,26.294,0,0,1,28.315-25.3Z" transform="translate(-492.045 -156.126)" fill="#ffbe9d"/>
                                    </g>
                                  </g>
                                </g>
                              </g>
                            </g>
                            <g id="Grupo_121166" data-name="Grupo 121166" transform="translate(4.984 32.289)">
                              <g id="Grupo_121159" data-name="Grupo 121159" transform="translate(3.79 4.608)">
                                <g id="Grupo_121158" data-name="Grupo 121158">
                                  <g id="Grupo_121157" data-name="Grupo 121157">
                                    <g id="Grupo_121156" data-name="Grupo 121156">
                                      <g id="Grupo_121155" data-name="Grupo 121155">
                                        <path id="Trazado_143983" data-name="Trazado 143983" d="M531.183,180.781a3.193,3.193,0,0,0,3.167,3.136,3.054,3.054,0,0,0,3.211-2.968,3.193,3.193,0,0,0-3.163-3.138A3.056,3.056,0,0,0,531.183,180.781Z" transform="translate(-531.183 -177.81)" fill="#263238"/>
                                      </g>
                                    </g>
                                  </g>
                                </g>
                              </g>
                              <g id="Grupo_121165" data-name="Grupo 121165">
                                <g id="Grupo_121164" data-name="Grupo 121164">
                                  <g id="Grupo_121163" data-name="Grupo 121163">
                                    <g id="Grupo_121162" data-name="Grupo 121162">
                                      <g id="Grupo_121161" data-name="Grupo 121161">
                                        <g id="Grupo_121160" data-name="Grupo 121160">
                                          <path id="Trazado_143984" data-name="Trazado 143984" d="M529.77,178.633c.407.4,2.777-1.45,6.211-1.537,3.43-.134,6,1.564,6.361,1.132.179-.191-.245-.931-1.365-1.7a8.766,8.766,0,0,0-5.107-1.421,8.426,8.426,0,0,0-4.929,1.742C529.906,177.69,529.569,178.452,529.77,178.633Z" transform="translate(-529.715 -175.102)" fill="#263238"/>
                                        </g>
                                      </g>
                                    </g>
                                  </g>
                                </g>
                              </g>
                            </g>
                            <g id="Grupo_121178" data-name="Grupo 121178" transform="translate(38.766 31.999)">
                              <g id="Grupo_121171" data-name="Grupo 121171" transform="translate(3.622 4.568)">
                                <g id="Grupo_121170" data-name="Grupo 121170">
                                  <g id="Grupo_121169" data-name="Grupo 121169">
                                    <g id="Grupo_121168" data-name="Grupo 121168">
                                      <g id="Grupo_121167" data-name="Grupo 121167">
                                        <path id="Trazado_143985" data-name="Trazado 143985" d="M511.429,180.588a3.192,3.192,0,0,0,3.167,3.134,3.051,3.051,0,0,0,3.209-2.968,3.193,3.193,0,0,0-3.163-3.138A3.055,3.055,0,0,0,511.429,180.588Z" transform="translate(-511.429 -177.616)" fill="#263238"/>
                                      </g>
                                    </g>
                                  </g>
                                </g>
                              </g>
                              <g id="Grupo_121177" data-name="Grupo 121177">
                                <g id="Grupo_121176" data-name="Grupo 121176">
                                  <g id="Grupo_121175" data-name="Grupo 121175">
                                    <g id="Grupo_121174" data-name="Grupo 121174">
                                      <g id="Grupo_121173" data-name="Grupo 121173">
                                        <g id="Grupo_121172" data-name="Grupo 121172">
                                          <path id="Trazado_143986" data-name="Trazado 143986" d="M509.915,178.463c.407.4,2.779-1.451,6.211-1.537,3.43-.134,6,1.562,6.362,1.132.177-.191-.243-.931-1.366-1.7a8.766,8.766,0,0,0-5.106-1.423,8.416,8.416,0,0,0-4.93,1.744C510.055,177.519,509.716,178.281,509.915,178.463Z" transform="translate(-509.861 -174.932)" fill="#263238"/>
                                        </g>
                                      </g>
                                    </g>
                                  </g>
                                </g>
                              </g>
                            </g>
                            <g id="Grupo_121184" data-name="Grupo 121184" transform="translate(18.236 32.684)">
                              <g id="Grupo_121183" data-name="Grupo 121183">
                                <g id="Grupo_121182" data-name="Grupo 121182">
                                  <g id="Grupo_121181" data-name="Grupo 121181">
                                    <g id="Grupo_121180" data-name="Grupo 121180">
                                      <g id="Grupo_121179" data-name="Grupo 121179">
                                        <path id="Trazado_143987" data-name="Trazado 143987" d="M532.525,204c.01-.2-2.136-.505-5.609-.853-.878-.066-1.714-.218-1.879-.813a4.48,4.48,0,0,1,.514-2.615q1.149-3.219,2.411-6.75c3.339-9.609,5.731-17.5,5.343-17.63s-3.41,7.55-6.75,17.159q-1.2,3.553-2.3,6.788a5.08,5.08,0,0,0-.361,3.454,2.2,2.2,0,0,0,1.477,1.244,6,6,0,0,0,1.5.165C530.355,204.237,532.516,204.193,532.525,204Z" transform="translate(-523.703 -175.334)" fill="#263238"/>
                                      </g>
                                    </g>
                                  </g>
                                </g>
                              </g>
                            </g>
                            <g id="Grupo_121189" data-name="Grupo 121189" transform="translate(25.805 92.248)">
                              <g id="Grupo_121188" data-name="Grupo 121188">
                                <g id="Grupo_121187" data-name="Grupo 121187">
                                  <g id="Grupo_121186" data-name="Grupo 121186">
                                    <g id="Grupo_121185" data-name="Grupo 121185">
                                      <path id="Trazado_143988" data-name="Trazado 143988" d="M505.477,220.15a63.341,63.341,0,0,0,33.088-9.811s-7.615,17.321-32.589,15.679Z" transform="translate(-505.477 -210.339)" fill="#eb996e"/>
                                    </g>
                                  </g>
                                </g>
                              </g>
                            </g>
                            <g id="Grupo_121194" data-name="Grupo 121194" transform="translate(28.413 67.114)">
                              <g id="Grupo_121193" data-name="Grupo 121193">
                                <g id="Grupo_121192" data-name="Grupo 121192">
                                  <g id="Grupo_121191" data-name="Grupo 121191">
                                    <g id="Grupo_121190" data-name="Grupo 121190">
                                      <path id="Trazado_143989" data-name="Trazado 143989" d="M517.465,198.039a6.188,6.188,0,0,1,5.486-2.45,5.657,5.657,0,0,1,3.96,1.984,3.583,3.583,0,0,1,.385,4.087c-.89,1.329-2.82,1.683-4.472,1.263a13,13,0,0,1-4.462-2.5,3.828,3.828,0,0,1-1.009-.99,1.148,1.148,0,0,1-.031-1.278" transform="translate(-517.141 -195.568)" fill="#eb996e"/>
                                    </g>
                                  </g>
                                </g>
                              </g>
                            </g>
                            <g id="Grupo_121200" data-name="Grupo 121200" transform="translate(26.534 63.444)">
                              <g id="Grupo_121199" data-name="Grupo 121199">
                                <g id="Grupo_121198" data-name="Grupo 121198">
                                  <g id="Grupo_121197" data-name="Grupo 121197">
                                    <g id="Grupo_121196" data-name="Grupo 121196">
                                      <g id="Grupo_121195" data-name="Grupo 121195">
                                        <path id="Trazado_143990" data-name="Trazado 143990" d="M528.546,193.412c-.56-.019-.465,3.711-3.584,6.446s-7.1,2.433-7.113,2.956c-.046.235.905.7,2.585.7a9.282,9.282,0,0,0,5.944-2.255,8.1,8.1,0,0,0,2.763-5.4C529.242,194.3,528.8,193.383,528.546,193.412Z" transform="translate(-517.848 -193.412)" fill="#263238"/>
                                      </g>
                                    </g>
                                  </g>
                                </g>
                              </g>
                            </g>
                          </g>
                        </g>
                      </g>
                      <g id="Grupo_121208" data-name="Grupo 121208" transform="translate(37.541 19.33)">
                        <g id="Grupo_121207" data-name="Grupo 121207">
                          <g id="Grupo_121206" data-name="Grupo 121206">
                            <g id="Grupo_121205" data-name="Grupo 121205">
                              <g id="Grupo_121204" data-name="Grupo 121204">
                                <path id="Trazado_143991" data-name="Trazado 143991" d="M508.8,170.249c.364.926,3.783.388,7.826.762,4.05.294,7.332,1.383,7.844.531.228-.407-.362-1.269-1.7-2.137a13.655,13.655,0,0,0-11.938-.985C509.363,169.056,508.64,169.81,508.8,170.249Z" transform="translate(-508.776 -167.486)" fill="#263238"/>
                              </g>
                            </g>
                          </g>
                        </g>
                      </g>
                      <g id="Grupo_121213" data-name="Grupo 121213" transform="translate(5.93 22.117)">
                        <g id="Grupo_121212" data-name="Grupo 121212">
                          <g id="Grupo_121211" data-name="Grupo 121211">
                            <g id="Grupo_121210" data-name="Grupo 121210">
                              <g id="Grupo_121209" data-name="Grupo 121209">
                                <path id="Trazado_143992" data-name="Trazado 143992" d="M529.779,172.852c.626.762,2.969-.112,5.814-.228,2.84-.216,5.268.378,5.8-.453.231-.4-.168-1.174-1.242-1.884a8.422,8.422,0,0,0-9.359.548C529.81,171.666,529.5,172.478,529.779,172.852Z" transform="translate(-529.682 -169.124)" fill="#263238"/>
                              </g>
                            </g>
                          </g>
                        </g>
                      </g>
                    </g>
                  </g>
                </g>
              </g>
              <g id="Grupo_121219" data-name="Grupo 121219" transform="translate(54.976)">
                <g id="Grupo_121218" data-name="Grupo 121218">
                  <path id="Trazado_143993" data-name="Trazado 143993" d="M472.561,156.106c-6.648,8.843.274,21.364,7.935,29.346s17,17.252,14.909,28.117c-2.425,12.6-19.654,20.664-17.094,33.236.934,4.589,4.553,8.5,4.57,13.182.029,8.452-10.905,12.559-14.053,20.4-4.315,10.749,7.547,21.469,7.727,33.05.1,6.577-3.623,12.711-3.822,19.284-.407,13.468,15.522,23.326,28.582,20.012s22.008-16.058,24.854-29.228-1.468-31.685-3.577-44.994l22.628,5.246c4.217-4.017-1.548-8.292-2.5-14.036-2.382-14.4-11.848-26.6-16.354-40.484-3.939-12.137-3.965-25.138-5.687-37.782s-5.641-25.82-15.3-34.161-26.372-9.367-34.182.721" transform="translate(-467.883 -150.744)" fill="#263238"/>
                </g>
              </g>
              <g id="Grupo_121220" data-name="Grupo 121220" transform="translate(57.208 10.251)">
                <path id="Trazado_143994" data-name="Trazado 143994" d="M534.848,192.765c-.022-.231-3.812,1.006-9.975.3-6.117-.631-14.4-3.743-21.646-9.8-7.244-6.078-12.26-13.16-15.816-18.226-1.685-2.469-3.083-4.516-4.152-6.083a16.106,16.106,0,0,0-1.6-2.183,15.668,15.668,0,0,0,1.308,2.37c.9,1.494,2.216,3.641,3.924,6.248,3.434,5.166,8.406,12.374,15.769,18.556,7.382,6.17,15.889,9.258,22.148,9.74a27.8,27.8,0,0,0,7.407-.254,17.235,17.235,0,0,0,1.965-.439A2.2,2.2,0,0,0,534.848,192.765Z" transform="translate(-481.656 -156.768)" fill="#455a64"/>
              </g>
              <g id="Grupo_121221" data-name="Grupo 121221" transform="translate(80.896 49.567)">
                <path id="Trazado_143995" data-name="Trazado 143995" d="M482.13,179.885a13.56,13.56,0,0,0,3.633,2.537,30.852,30.852,0,0,0,20.86,3.051,13.58,13.58,0,0,0,4.206-1.389c-.048-.145-1.657.357-4.319.773a34.978,34.978,0,0,1-20.463-2.995C483.615,180.7,482.215,179.76,482.13,179.885Z" transform="translate(-482.128 -179.874)" fill="#455a64"/>
              </g>
              <g id="Grupo_121222" data-name="Grupo 121222" transform="translate(0 24.966)">
                <path id="Trazado_143996" data-name="Trazado 143996" d="M538.718,173.3c-.043.218,3.81.284,7.746-2.078,3.965-2.321,5.753-5.731,5.542-5.8-.218-.168-2.241,2.85-5.993,5.037C542.294,172.7,538.675,173.027,538.718,173.3Z" transform="translate(-538.717 -165.416)" fill="#455a64"/>
              </g>
              <g id="Grupo_121223" data-name="Grupo 121223" transform="translate(1.594 38.985)">
                <path id="Trazado_143997" data-name="Trazado 143997" d="M540.373,175.9c-.06.221,2.124.793,4.749.126,2.632-.647,4.29-2.175,4.135-2.343-.151-.214-1.914.892-4.349,1.482C542.482,175.787,540.4,175.641,540.373,175.9Z" transform="translate(-540.372 -173.655)" fill="#455a64"/>
              </g>
              <g id="Grupo_121224" data-name="Grupo 121224" transform="translate(107.051 35.412)">
                <path id="Trazado_143998" data-name="Trazado 143998" d="M483.747,187.805c.214.058,1.14-3.633.715-8.251-.393-4.623-1.952-8.093-2.152-8-.254.085.892,3.592,1.271,8.076C483.994,184.111,483.482,187.764,483.747,187.805Z" transform="translate(-482.273 -171.555)" fill="#e8505b"/>
              </g>
            </g>
            <path id="Trazado_143999" data-name="Trazado 143999" d="M560.028,253.344l-9.9,42.578,10.581,33.926" transform="translate(-460.062 -65.171)" fill="none" stroke="#263238" stroke-miterlimit="10" stroke-width="0.5"/>
          </g>
        </g>
      </g>
      <g id="Grupo_122214" data-name="Grupo 122214" transform="translate(804.357 2515.728)">
        <g id="Grupo_122208" data-name="Grupo 122208" transform="translate(301.611 131.272)">
          <path id="Trazado_144305" data-name="Trazado 144305" d="M355.922,158.712a27.156,27.156,0,1,0-38.982,24.164c-.033,3.217-.072,6.851-.072,6.851l23.8.248s.185-3.843.274-7.276A27.145,27.145,0,0,0,355.922,158.712Z" transform="translate(-301.611 -131.272)" fill="#e8505b"/>
          <g id="Grupo_122207" data-name="Grupo 122207" transform="translate(12.516 27.211)">
            <path id="Trazado_144306" data-name="Trazado 144306" d="M327.405,179.645s0-.113.03-.335l.121-.978c.113-.858.28-2.126.537-3.753s.6-3.614,1.142-5.892a40.264,40.264,0,0,1,2.542-7.531,25.953,25.953,0,0,1,2.276-4.041,5,5,0,0,1,1.873-1.647,2.805,2.805,0,0,1,2.579.11,1.852,1.852,0,0,1,.847,1.085,1.894,1.894,0,0,1-.127,1.392,3.861,3.861,0,0,1-2.117,1.786,7.43,7.43,0,0,1-5.64-.459,7.53,7.53,0,0,1-3.788-4.571,5.686,5.686,0,0,1-.127-3.135,2.44,2.44,0,0,1,2.486-1.86,1.756,1.756,0,0,1,1.373.972,2.465,2.465,0,0,1,.2,1.677,5.31,5.31,0,0,1-1.937,2.677,8.1,8.1,0,0,1-6.349,1.771,7.057,7.057,0,0,1-5.21-3.969,4.1,4.1,0,0,1-.15-3.291,2.076,2.076,0,0,1,1.2-1.19,2.038,2.038,0,0,1,1.669.172,2.691,2.691,0,0,1,1.134,1.2,4.233,4.233,0,0,1,.4,1.567,7.818,7.818,0,0,1-.446,3.1,8.079,8.079,0,0,1-3.875,4.514,8.224,8.224,0,0,1-5.627.714,4.3,4.3,0,0,1-2.431-1.322,2.1,2.1,0,0,1-.123-2.617,1.771,1.771,0,0,1,1.227-.583,2.56,2.56,0,0,1,1.292.264,3.929,3.929,0,0,1,1.644,1.881c.667,1.48,1.2,2.916,1.741,4.289,2.114,5.5,3.608,10.022,4.606,13.156.5,1.569.868,2.792,1.115,3.622q.174.609.272.948c.059.213.081.327.081.327s-.043-.107-.115-.317-.174-.535-.3-.937c-.272-.838-.667-2.048-1.172-3.6-1.037-3.122-2.564-7.633-4.705-13.112-.543-1.36-1.091-2.814-1.75-4.261a3.69,3.69,0,0,0-1.531-1.754,1.627,1.627,0,0,0-2.056,2.515,4.025,4.025,0,0,0,2.276,1.217,7.948,7.948,0,0,0,5.419-.7,7.775,7.775,0,0,0,3.718-4.347,7.524,7.524,0,0,0,.422-2.969,2.951,2.951,0,0,0-1.365-2.51,1.706,1.706,0,0,0-1.4-.148,1.748,1.748,0,0,0-1.01,1.01,3.778,3.778,0,0,0,.15,3.025,6.729,6.729,0,0,0,4.963,3.775,7.772,7.772,0,0,0,6.083-1.7,5.01,5.01,0,0,0,1.825-2.494,2.13,2.13,0,0,0-.17-1.451,1.422,1.422,0,0,0-1.117-.8,1.906,1.906,0,0,0-1.355.422,2.349,2.349,0,0,0-.787,1.207,5.379,5.379,0,0,0,.124,2.95,7.163,7.163,0,0,0,9.018,4.847,3.586,3.586,0,0,0,1.962-1.634,1.6,1.6,0,0,0-.607-2.117,2.532,2.532,0,0,0-2.322-.105,4.755,4.755,0,0,0-1.778,1.559,25.714,25.714,0,0,0-2.268,3.985,40.5,40.5,0,0,0-2.577,7.477c-.557,2.267-.916,4.248-1.195,5.868-.258,1.613-.459,2.872-.6,3.741-.067.417-.118.741-.155.973S327.405,179.645,327.405,179.645Z" transform="translate(-309.469 -148.356)" fill="#263238"/>
          </g>
          <path id="Trazado_144307" data-name="Trazado 144307" d="M333.123,172.1l-20.434-.213a1.533,1.533,0,0,1-1.518-1.55h0a1.535,1.535,0,0,1,1.55-1.518l20.435.213a1.534,1.534,0,0,1,1.516,1.55h0A1.533,1.533,0,0,1,333.123,172.1Z" transform="translate(-295.944 -109.013)" fill="#263238"/>
          <path id="Trazado_144308" data-name="Trazado 144308" d="M333.127,171.8l-20.435-.213a1.534,1.534,0,1,0-.032,3.068l2.243.022,2.916,5.7a1.973,1.973,0,0,0,1.733,1.072l7.3.076a1.971,1.971,0,0,0,1.765-1.054l2.95-5.615,1.526.016a1.534,1.534,0,1,0,.032-3.068Z" transform="translate(-295.961 -107.373)" fill="#263238"/>
        </g>
        <g id="Grupo_122209" data-name="Grupo 122209" transform="translate(304.651 136.177)" opacity="0.2">
          <path id="Trazado_144309" data-name="Trazado 144309" d="M310.371,139.118a20.021,20.021,0,0,1,5.476-3.558,14.434,14.434,0,0,1,4.2-1.172c1.029-.1,1.613.01,1.661.226.111.5-1.954,1.2-4.747,3.028a22.33,22.33,0,0,0-10.409,21.823c.341,3.318,1.089,5.369.635,5.592-.2.1-.648-.287-1.222-1.147a14.437,14.437,0,0,1-1.73-4,19.93,19.93,0,0,1-.682-6.5,21.116,21.116,0,0,1,1.983-7.83" transform="translate(-303.52 -134.352)" fill="#fff"/>
        </g>
        <g id="Grupo_122210" data-name="Grupo 122210" transform="translate(325.943 134.342)" opacity="0.2">
          <path id="Trazado_144310" data-name="Trazado 144310" d="M320.3,136.536c-1.722-.033-3.235-.519-3.4-1.434-.07-.452.253-.93.879-1.3a5.447,5.447,0,0,1,5.13.08c.613.389.922.878.838,1.327" transform="translate(-316.887 -133.2)" fill="#fff"/>
        </g>
        <g id="Grupo_122211" data-name="Grupo 122211" transform="translate(324.198 203.594)">
          <path id="Trazado_144311" data-name="Trazado 144311" d="M325.478,177.933c-.026.049-.537-.191-1.4-.448a11.373,11.373,0,0,0-6.9.127c-.852.29-1.355.548-1.381.5a4.159,4.159,0,0,1,1.3-.72,9.958,9.958,0,0,1,7.059-.131A4.172,4.172,0,0,1,325.478,177.933Z" transform="translate(-315.792 -176.678)" fill="#455a64"/>
        </g>
        <g id="Grupo_122212" data-name="Grupo 122212" transform="translate(320.761 198.549)">
          <path id="Trazado_144312" data-name="Trazado 144312" d="M330.135,173.784c0,.092-3.7.129-8.252.081s-8.251-.161-8.249-.253,3.7-.127,8.252-.08S330.137,173.693,330.135,173.784Z" transform="translate(-313.634 -173.511)" fill="#455a64"/>
        </g>
        <g id="Grupo_122213" data-name="Grupo 122213" transform="translate(322.177 201.18)">
          <path id="Trazado_144313" data-name="Trazado 144313" d="M328.3,175.216a11.635,11.635,0,0,1-2.013.183c-1.247.065-2.971.119-4.876.126s-3.63-.033-4.877-.089a11.417,11.417,0,0,1-2.015-.17,12.893,12.893,0,0,1,2.02-.065c1.348,0,3.02-.006,4.871-.008l4.871-.029A12.64,12.64,0,0,1,328.3,175.216Z" transform="translate(-314.523 -175.162)" fill="#455a64"/>
        </g>
      </g>
    </g>
  </g>
</svg>
