<svg xmlns="http://www.w3.org/2000/svg" width="361.785" height="354.899" viewBox="0 0 361.785 354.899">
  <g id="Grupo_121795" data-name="Grupo 121795" transform="translate(-50.449 -238.53)">
    <g id="Grupo_121449" data-name="Grupo 121449" transform="translate(268.481 323.228)">
      <path id="Trazado_144093" data-name="Trazado 144093" d="M256.92,290.954a3.485,3.485,0,0,0-2.645-3.885l-3.417.236-12.224-4.254a3.655,3.655,0,0,0-4.624,3.327c-.069,3.514-1.469,13.081-4.317,10.073-.067-.071-.136-.127-.2-.195-4.031-4.5-8.7-6.666-10.5-6.407a2.041,2.041,0,0,0-.875,3.614,2.166,2.166,0,0,0,.725.508c.124.052.274.152.408.219a30.313,30.313,0,0,1,4.671,4.173,16.076,16.076,0,0,1,3.075,4.65c.825,1.9,1.464,3.565,1.962,4.983l.192,11.238-4.883,52.542s-32.341-33.97-31.59-34.3l1.855,52.881,19.592,16.213a24.639,24.639,0,0,0,40.344-19.392l-1.13-67.939.8-8.909Z" transform="translate(-192.663 -282.931)" fill="#ffbe9d"/>
    </g>
    <g id="Grupo_121450" data-name="Grupo 121450" transform="translate(50.449 405.938)">
      <path id="Trazado_144094" data-name="Trazado 144094" d="M151.111,336.879,115.724,417.9l-28.01,58.437-20.8,7s-16.464,4.78-16.463,8.188,4.343,2.631,4.343,2.631c.8,5.088,7.843,2.2,12.777-.083s15.889-2.737,15.889-2.737a4.463,4.463,0,0,0-.307,7.144c1.743,1.223,4.785-.258,6.845-2.451s7.354-3.215,13.252-5.317,6.868-10.033,6.868-10.033L181,361.28Z" transform="translate(-50.449 -336.879)" fill="#ffbe9d"/>
    </g>
    <g id="Grupo_121466" data-name="Grupo 121466" transform="translate(130.495 357.124)">
      <g id="Grupo_121451" data-name="Grupo 121451" transform="translate(0)">
        <path id="Trazado_144095" data-name="Trazado 144095" d="M240.781,383.27l8.914,11.768,19.3-42.822s-18.732-22.861-25.583-32.449c-6.792-9.5-11.889-11.157-11.889-11.157s-12.441-3.7-18.663-3.568l-30.748,1.834-31.233,13.636a43.235,43.235,0,0,0-18.8,15.831L102.66,383.579l41.638,17.8,13.962,79.835c2.68,11.972,5.021,23.271,16.073,28.789l77.228-74.219-9.049-14.25Z" transform="translate(-102.66 -305.04)" fill="#db6464"/>
      </g>
      <g id="Grupo_121453" data-name="Grupo 121453" transform="translate(42.363 63.59)">
        <g id="Grupo_121452" data-name="Grupo 121452">
          <path id="Trazado_144096" data-name="Trazado 144096" d="M152.219,346.519c.182.123-4.576,7.522-10.629,16.523s-11.111,16.2-11.293,16.079,4.575-7.52,10.631-16.526S152.035,346.394,152.219,346.519Z" transform="translate(-130.292 -346.517)" fill="#263238"/>
        </g>
      </g>
      <g id="Grupo_121455" data-name="Grupo 121455" transform="translate(74.145 139.373)">
        <g id="Grupo_121454" data-name="Grupo 121454">
          <path id="Trazado_144097" data-name="Trazado 144097" d="M205.907,395.952a13.71,13.71,0,0,1-2.051,1.223c-1.345.745-3.307,1.788-5.746,3.052-4.875,2.53-11.667,5.919-19.248,9.493s-14.523,6.652-19.578,8.8c-2.527,1.076-4.581,1.926-6.011,2.49a13.693,13.693,0,0,1-2.249.8,13.6,13.6,0,0,1,2.126-1.089l5.906-2.718c4.993-2.281,11.888-5.44,19.466-9.009s14.4-6.878,19.336-9.275c2.375-1.145,4.345-2.1,5.858-2.824A13.736,13.736,0,0,1,205.907,395.952Z" transform="translate(-151.022 -395.947)" fill="#263238"/>
        </g>
      </g>
      <g id="Grupo_121457" data-name="Grupo 121457" transform="translate(39.193 28.854)">
        <g id="Grupo_121456" data-name="Grupo 121456">
          <path id="Trazado_144098" data-name="Trazado 144098" d="M150.845,341.3a26.406,26.406,0,0,1-2.708-3.411,54.956,54.956,0,0,0-6.861-7.822,24.19,24.19,0,0,0-8.842-5.207c-2.534-.783-4.221-.765-4.211-.911a3.017,3.017,0,0,1,1.177-.092,14.308,14.308,0,0,1,3.189.46,22.309,22.309,0,0,1,9.22,5.156,43.855,43.855,0,0,1,6.786,8.087A21.34,21.34,0,0,1,150.845,341.3Z" transform="translate(-128.224 -323.86)" fill="#263238"/>
        </g>
      </g>
      <g id="Grupo_121459" data-name="Grupo 121459" transform="translate(76.834 85.203)">
        <g id="Grupo_121458" data-name="Grupo 121458">
          <path id="Trazado_144099" data-name="Trazado 144099" d="M201.3,360.614a3.368,3.368,0,0,1,.037.848c-.014.555.009,1.377-.077,2.428a58.377,58.377,0,0,1-1.23,8.851,63.418,63.418,0,0,1-35.688,44.491,58.454,58.454,0,0,1-8.372,3.123c-1.009.31-1.815.466-2.353.6a3.32,3.32,0,0,1-.836.147c-.017-.064,1.1-.388,3.1-1.046a68.805,68.805,0,0,0,8.225-3.336,64.877,64.877,0,0,0,35.377-44.105,68.571,68.571,0,0,0,1.472-8.753C201.156,361.776,201.228,360.612,201.3,360.614Z" transform="translate(-152.776 -360.614)" fill="#263238"/>
        </g>
      </g>
      <g id="Grupo_121460" data-name="Grupo 121460" transform="translate(41.799 74.532)" opacity="0.3">
        <path id="Trazado_144100" data-name="Trazado 144100" d="M135.161,406.325c-.133-.76,9.9-52.671,9.9-52.671l-15.134,22.729" transform="translate(-129.924 -353.654)"/>
      </g>
      <g id="Grupo_121462" data-name="Grupo 121462" transform="translate(136.091 28.409)">
        <g id="Grupo_121461" data-name="Grupo 121461">
          <path id="Trazado_144101" data-name="Trazado 144101" d="M191.478,323.57a3.857,3.857,0,0,1,.11.894c.043.673.1,1.522.161,2.563.118,2.336.279,5.533.475,9.435.391,8.064.921,19.023,1.509,31.129.578,12.162,1.035,23.175,1.274,31.15.121,3.988.2,7.215.222,9.446,0,1.046.008,1.895.011,2.569a3.8,3.8,0,0,1-.051.9,3.85,3.85,0,0,1-.11-.892c-.041-.673-.1-1.522-.161-2.565-.118-2.335-.279-5.532-.475-9.433-.391-8.064-.921-19.023-1.509-31.135-.578-12.156-1.035-23.169-1.274-31.144-.12-3.988-.2-7.215-.222-9.447,0-1.044-.008-1.895-.011-2.569A3.8,3.8,0,0,1,191.478,323.57Z" transform="translate(-191.427 -323.57)" fill="#263238"/>
        </g>
      </g>
      <g id="Grupo_121464" data-name="Grupo 121464" transform="translate(72.883 122.732)" opacity="0.2">
        <g id="Grupo_121463" data-name="Grupo 121463">
          <path id="Trazado_144102" data-name="Trazado 144102" d="M151.82,427.555c-2.47-2.061-1.907-6.254.276-8.616s5.418-3.379,8.478-4.369c14.675-4.753,29.427-11.472,39.109-23.483a23.084,23.084,0,0,1,4.337-4.665c1.74-1.23,4.127-1.815,6.019-.833,2.965,1.541,3.077,5.838,1.832,8.941a17.173,17.173,0,0,1-8.092,8.832" transform="translate(-150.199 -385.093)"/>
        </g>
      </g>
      <g id="Grupo_121465" data-name="Grupo 121465" transform="translate(136.463 37.622)" opacity="0.2">
        <path id="Trazado_144103" data-name="Trazado 144103" d="M191.669,329.579l8.569,49.732-6.676-8.814Z" transform="translate(-191.669 -329.579)"/>
      </g>
    </g>
    <g id="Grupo_121561" data-name="Grupo 121561" transform="translate(203.912 435.305)">
      <g id="Grupo_121502" data-name="Grupo 121502" transform="translate(130.094 90.081)">
        <g id="Grupo_121501" data-name="Grupo 121501">
          <g id="Grupo_121469" data-name="Grupo 121469">
            <g id="Grupo_121468" data-name="Grupo 121468">
              <g id="Grupo_121467" data-name="Grupo 121467">
                <path id="Trazado_144104" data-name="Trazado 144104" d="M249.892,414.79l-14.49,49.7,61.739,18.345c1.391-6.005-27.031-27.337-27.031-27.337L280.7,424.035Z" transform="translate(-235.402 -414.79)" fill="#ad1457"/>
              </g>
            </g>
          </g>
          <g id="Grupo_121473" data-name="Grupo 121473" transform="translate(13.809 32.336)" opacity="0.6">
            <g id="Grupo_121472" data-name="Grupo 121472">
              <g id="Grupo_121471" data-name="Grupo 121471">
                <g id="Grupo_121470" data-name="Grupo 121470">
                  <path id="Trazado_144105" data-name="Trazado 144105" d="M247.012,435.9a2.631,2.631,0,0,0-2.6,2.36,2.528,2.528,0,0,0,2.317,2.6,2.774,2.774,0,0,0,2.738-2.513c-.064-1.291-1.443-2.694-2.709-2.433" transform="translate(-244.409 -435.881)" fill="#fff"/>
                </g>
              </g>
            </g>
          </g>
          <g id="Grupo_121476" data-name="Grupo 121476" transform="translate(0 44.746)" opacity="0.6">
            <g id="Grupo_121475" data-name="Grupo 121475">
              <g id="Grupo_121474" data-name="Grupo 121474">
                <path id="Trazado_144106" data-name="Trazado 144106" d="M235.4,448.928l1.656-4.952,58.575,19.44s2.395,2.013,1.509,3.857Z" transform="translate(-235.402 -443.976)" fill="#fff"/>
              </g>
            </g>
          </g>
          <g id="Grupo_121480" data-name="Grupo 121480" transform="translate(29.162 39.938)">
            <g id="Grupo_121479" data-name="Grupo 121479">
              <g id="Grupo_121478" data-name="Grupo 121478">
                <g id="Grupo_121477" data-name="Grupo 121477">
                  <path id="Trazado_144107" data-name="Trazado 144107" d="M261.063,441.591c-.1.3-1.647-.012-3.419.517-1.785.481-2.938,1.561-3.18,1.358-.261-.141.725-1.811,2.881-2.412C259.494,440.432,261.21,441.334,261.063,441.591Z" transform="translate(-254.423 -440.84)" fill="#263238"/>
                </g>
              </g>
            </g>
          </g>
          <g id="Grupo_121484" data-name="Grupo 121484" transform="translate(36.109 44.986)">
            <g id="Grupo_121483" data-name="Grupo 121483">
              <g id="Grupo_121482" data-name="Grupo 121482">
                <g id="Grupo_121481" data-name="Grupo 121481">
                  <path id="Trazado_144108" data-name="Trazado 144108" d="M264.327,444.438c-.018.313-1.476.437-2.879,1.409-1.43.929-2.1,2.231-2.395,2.128-.3-.037.018-1.864,1.786-3.037C262.595,443.748,264.405,444.148,264.327,444.438Z" transform="translate(-258.955 -444.133)" fill="#263238"/>
                </g>
              </g>
            </g>
          </g>
          <g id="Grupo_121488" data-name="Grupo 121488" transform="translate(42.704 49.586)">
            <g id="Grupo_121487" data-name="Grupo 121487">
              <g id="Grupo_121486" data-name="Grupo 121486">
                <g id="Grupo_121485" data-name="Grupo 121485">
                  <path id="Trazado_144109" data-name="Trazado 144109" d="M263.409,451.682c-.293-.017-.265-1.648,1-3.069s2.87-1.659,2.922-1.371c.1.3-1.082.914-2.1,2.1C264.182,450.5,263.717,451.742,263.409,451.682Z" transform="translate(-263.256 -447.133)" fill="#263238"/>
                </g>
              </g>
            </g>
          </g>
          <g id="Grupo_121492" data-name="Grupo 121492" transform="translate(30.903 31.041)">
            <g id="Grupo_121491" data-name="Grupo 121491">
              <g id="Grupo_121490" data-name="Grupo 121490">
                <g id="Grupo_121489" data-name="Grupo 121489">
                  <path id="Trazado_144110" data-name="Trazado 144110" d="M262.077,437.248c-.208.236-1.469-.59-3.206-.981-1.731-.426-3.227-.248-3.307-.552-.11-.271,1.516-1,3.557-.514S262.294,437.055,262.077,437.248Z" transform="translate(-255.559 -435.037)" fill="#263238"/>
                </g>
              </g>
            </g>
          </g>
          <g id="Grupo_121496" data-name="Grupo 121496" transform="translate(29.748 18.122)">
            <g id="Grupo_121495" data-name="Grupo 121495">
              <g id="Grupo_121494" data-name="Grupo 121494">
                <g id="Grupo_121493" data-name="Grupo 121493">
                  <path id="Trazado_144111" data-name="Trazado 144111" d="M263.183,433.978c-.034.126-1.28-.043-3.086-.935a14.486,14.486,0,0,1-2.941-1.955,15.285,15.285,0,0,1-1.495-1.47,3.932,3.932,0,0,1-.717-1,1.372,1.372,0,0,1,.337-1.645,1.73,1.73,0,0,1,1.525-.3,4.2,4.2,0,0,1,1.113.506,11.509,11.509,0,0,1,1.726,1.231,11.35,11.35,0,0,1,2.3,2.718c1.038,1.751,1.193,3.023,1.072,3.051-.166.058-.583-1.092-1.714-2.62a12.926,12.926,0,0,0-2.3-2.373,12.083,12.083,0,0,0-1.613-1.075c-.6-.366-1.158-.537-1.412-.294-.094.092-.115.133-.035.365a3.2,3.2,0,0,0,.529.736,16.94,16.94,0,0,0,1.357,1.418,17.792,17.792,0,0,0,2.648,2.034C262.1,433.388,263.237,433.816,263.183,433.978Z" transform="translate(-254.805 -426.61)" fill="#263238"/>
                </g>
              </g>
            </g>
          </g>
          <g id="Grupo_121500" data-name="Grupo 121500" transform="translate(37.414 16.657)">
            <g id="Grupo_121499" data-name="Grupo 121499">
              <g id="Grupo_121498" data-name="Grupo 121498">
                <g id="Grupo_121497" data-name="Grupo 121497">
                  <path id="Trazado_144112" data-name="Trazado 144112" d="M260,434.8c-.121.015-.4-1.243.071-3.229a10.464,10.464,0,0,1,2.773-4.9,2.669,2.669,0,0,1,2.436-.975,1.505,1.505,0,0,1,1.035,1.246,4.324,4.324,0,0,1-.018,1.228,7.184,7.184,0,0,1-.618,2.083,7.414,7.414,0,0,1-2.269,2.8c-1.682,1.242-3.046,1.228-3.042,1.119-.055-.182,1.168-.452,2.548-1.716a7.418,7.418,0,0,0,1.841-2.614,6.683,6.683,0,0,0,.474-1.8c.1-.685.011-1.288-.256-1.294-.305-.1-.974.242-1.381.691a10.715,10.715,0,0,0-1.265,1.449,11.548,11.548,0,0,0-1.516,2.907C260.188,433.581,260.174,434.8,260,434.8Z" transform="translate(-259.806 -425.655)" fill="#263238"/>
                </g>
              </g>
            </g>
          </g>
        </g>
      </g>
      <g id="Grupo_121503" data-name="Grupo 121503">
        <path id="Trazado_144113" data-name="Trazado 144113" d="M358.518,372.112c1.562,11.465-2.361,24.4-6.508,35.2l-27.078,63.663-29.967-4.6s-6.255,6.954-14.238,9.616c-3.572,1.191-15.328,3.5-25-3.462h0S242.035,491.6,220.493,497.37s-54.156,8.947-69.946-16.253l75.162-72.433c1.551.371,64.743-42.244,98.876-51.946C324.585,356.739,355.641,351.028,358.518,372.112Z" transform="translate(-150.547 -356.034)" fill="#263238"/>
      </g>
      <g id="Grupo_121505" data-name="Grupo 121505" transform="translate(56.764 45.873)">
        <g id="Grupo_121504" data-name="Grupo 121504">
          <path id="Trazado_144114" data-name="Trazado 144114" d="M272.99,450.17a2.07,2.07,0,0,1,.4-.245l1.228-.65c1.078-.57,2.681-1.389,4.707-2.51a77.437,77.437,0,0,0,7.166-4.418,37.362,37.362,0,0,0,8.115-7.523,26.066,26.066,0,0,0,5.262-12.167,40.847,40.847,0,0,0-.641-15.318c-1.167-5.254-3.611-10.741-8.271-14.395-4.621-3.646-10.7-5.544-16.924-6.022a52.336,52.336,0,0,0-9.278.077,69.572,69.572,0,0,0-8.9,1.562,105.46,105.46,0,0,0-16.173,5.594c-10.021,4.374-18.715,9.1-26.353,12.363a94.29,94.29,0,0,1-18.628,6.22c-1.133.255-2.153.414-3.036.552-.882.153-1.631.245-2.24.3l-1.384.133a2.048,2.048,0,0,1-.474.018,2.245,2.245,0,0,1,.466-.1l1.371-.212c.6-.078,1.348-.2,2.222-.374.875-.161,1.886-.343,3.01-.621A99.051,99.051,0,0,0,213.106,406c7.584-3.316,16.233-8.089,26.289-12.523a105.106,105.106,0,0,1,16.277-5.679,69.842,69.842,0,0,1,9.006-1.591,52.83,52.83,0,0,1,9.427-.083c6.33.489,12.561,2.421,17.343,6.208a21.867,21.867,0,0,1,5.637,6.85,31.6,31.6,0,0,1,2.864,7.994,41.311,41.311,0,0,1,.576,15.589,26.564,26.564,0,0,1-5.47,12.4,37.371,37.371,0,0,1-8.3,7.542,72.842,72.842,0,0,1-7.273,4.326c-2.053,1.081-3.68,1.855-4.783,2.379l-1.262.58A2.11,2.11,0,0,1,272.99,450.17Z" transform="translate(-187.572 -385.955)" fill="#455a64"/>
        </g>
      </g>
      <g id="Grupo_121507" data-name="Grupo 121507" transform="translate(147.747 26.551)">
        <g id="Grupo_121506" data-name="Grupo 121506">
          <path id="Trazado_144115" data-name="Trazado 144115" d="M260.151,373.355c.184.123-2.628,4.71-6.28,10.247s-6.763,9.93-6.947,9.809,2.626-4.71,6.28-10.249S259.967,373.234,260.151,373.355Z" transform="translate(-246.916 -373.352)" fill="#455a64"/>
        </g>
      </g>
      <g id="Grupo_121509" data-name="Grupo 121509" transform="translate(103.275 105.008)">
        <g id="Grupo_121508" data-name="Grupo 121508">
          <path id="Trazado_144116" data-name="Trazado 144116" d="M254,424.548a54.641,54.641,0,0,1-5.446,1.4c-3.365.834-7.981,2.111-12.97,3.854s-9.395,3.629-12.546,5.075a54.208,54.208,0,0,1-5.133,2.3,5.639,5.639,0,0,1,1.263-.842c.836-.5,2.073-1.174,3.624-1.964a104.679,104.679,0,0,1,25.635-8.972c1.7-.351,3.094-.595,4.06-.725A5.57,5.57,0,0,1,254,424.548Z" transform="translate(-217.909 -424.527)" fill="#455a64"/>
        </g>
      </g>
      <g id="Grupo_121511" data-name="Grupo 121511" transform="translate(153.321 100.96)">
        <g id="Grupo_121510" data-name="Grupo 121510">
          <path id="Trazado_144117" data-name="Trazado 144117" d="M271.082,431.695c-.138.047-.5-1.358-1.769-3.232a12.966,12.966,0,0,0-15.428-5.006c-2.128.77-3.246,1.7-3.33,1.578-.031-.038.213-.308.727-.713a10.833,10.833,0,0,1,2.4-1.391,12.775,12.775,0,0,1,16.112,5.228,10.89,10.89,0,0,1,1.124,2.533C271.091,431.322,271.129,431.683,271.082,431.695Z" transform="translate(-250.552 -421.886)" fill="#455a64"/>
        </g>
      </g>
      <g id="Grupo_121513" data-name="Grupo 121513" transform="translate(25.64 87.013)">
        <g id="Grupo_121512" data-name="Grupo 121512">
          <path id="Trazado_144118" data-name="Trazado 144118" d="M185.813,412.789a4.806,4.806,0,0,1,.389,1.433,22.325,22.325,0,0,1,.345,4.034,24.851,24.851,0,0,1-3.534,12.8,19.539,19.539,0,0,1-10.267,8.345,14.467,14.467,0,0,1-3.989.765,4.293,4.293,0,0,1-1.486-.069,29.129,29.129,0,0,0,5.286-1.228,19.97,19.97,0,0,0,9.775-8.231,26.085,26.085,0,0,0,3.65-12.4C186.119,414.882,185.667,412.811,185.813,412.789Z" transform="translate(-167.271 -412.789)" fill="#455a64"/>
        </g>
      </g>
      <g id="Grupo_121560" data-name="Grupo 121560" transform="translate(7.652 94.514)">
        <g id="Grupo_121515" data-name="Grupo 121515" transform="translate(0 23.137)">
          <g id="Grupo_121514" data-name="Grupo 121514">
            <path id="Trazado_144119" data-name="Trazado 144119" d="M158.25,436.524c-.17.136-.963-.558-1.709-1.6s-1.148-2.027-.954-2.142.868.656,1.6,1.676S158.423,436.385,158.25,436.524Z" transform="translate(-155.538 -432.773)" fill="#455a64"/>
          </g>
        </g>
        <g id="Grupo_121517" data-name="Grupo 121517" transform="translate(5.699 30.337)">
          <g id="Grupo_121516" data-name="Grupo 121516">
            <path id="Trazado_144120" data-name="Trazado 144120" d="M162.582,440.685c-.144.167-1.009-.42-1.929-1.309s-1.535-1.732-1.372-1.883,1.024.435,1.927,1.309S162.726,440.52,162.582,440.685Z" transform="translate(-159.255 -437.47)" fill="#455a64"/>
          </g>
        </g>
        <g id="Grupo_121519" data-name="Grupo 121519" transform="translate(12.596 36.389)">
          <g id="Grupo_121518" data-name="Grupo 121518">
            <path id="Trazado_144121" data-name="Trazado 144121" d="M167.625,443.963c-.109.192-1.07-.219-2.146-.917s-1.841-1.411-1.711-1.588,1.092.233,2.146.917S167.733,443.772,167.625,443.963Z" transform="translate(-163.754 -441.417)" fill="#455a64"/>
          </g>
        </g>
        <g id="Grupo_121521" data-name="Grupo 121521" transform="translate(20.566 40.918)">
          <g id="Grupo_121520" data-name="Grupo 121520">
            <path id="Trazado_144122" data-name="Trazado 144122" d="M173.282,446.015c-.058.213-1.087.032-2.3-.4s-2.116-.955-2.027-1.156,1.119-.021,2.3.4S173.341,445.8,173.282,446.015Z" transform="translate(-168.952 -444.371)" fill="#455a64"/>
          </g>
        </g>
        <g id="Grupo_121523" data-name="Grupo 121523" transform="translate(29.381 43.327)">
          <g id="Grupo_121522" data-name="Grupo 121522">
            <path id="Trazado_144123" data-name="Trazado 144123" d="M179.278,446.6c0,.221-1.043.307-2.323.19s-2.289-.389-2.252-.607,1.078-.3,2.324-.189S179.283,446.379,179.278,446.6Z" transform="translate(-174.702 -445.942)" fill="#455a64"/>
          </g>
        </g>
        <g id="Grupo_121525" data-name="Grupo 121525" transform="translate(38.552 43.212)">
          <g id="Grupo_121524" data-name="Grupo 121524">
            <path id="Trazado_144124" data-name="Trazado 144124" d="M185.264,446.14c.028.219-.99.468-2.274.555a9.5,9.5,0,0,1-1.72-.018h.031c-.377-.031-.606-.1-.616-.2s.2-.218.557-.327l.032,0a9.414,9.414,0,0,1,1.683-.248C184.2,445.812,185.237,445.922,185.264,446.14Z" transform="translate(-180.684 -445.868)" fill="#455a64"/>
          </g>
        </g>
        <g id="Grupo_121527" data-name="Grupo 121527" transform="translate(47.676 41.716)">
          <g id="Grupo_121526" data-name="Grupo 121526">
            <path id="Trazado_144125" data-name="Trazado 144125" d="M191.127,445.029c.054.213-.915.6-2.162.871s-2.29.307-2.329.09.929-.607,2.162-.871S191.073,444.814,191.127,445.029Z" transform="translate(-186.635 -444.891)" fill="#455a64"/>
          </g>
        </g>
        <g id="Grupo_121529" data-name="Grupo 121529" transform="translate(56.592 39.085)">
          <g id="Grupo_121528" data-name="Grupo 121528">
            <path id="Trazado_144126" data-name="Trazado 144126" d="M196.813,443.267c.077.207-.843.7-2.053,1.108s-2.243.561-2.306.35.855-.707,2.053-1.107S196.736,443.06,196.813,443.267Z" transform="translate(-192.451 -443.175)" fill="#455a64"/>
          </g>
        </g>
        <g id="Grupo_121531" data-name="Grupo 121531" transform="translate(65.221 35.521)">
          <g id="Grupo_121530" data-name="Grupo 121530">
            <path id="Trazado_144127" data-name="Trazado 144127" d="M202.269,440.917c.1.2-.765.786-1.927,1.315s-2.172.791-2.257.587.777-.791,1.927-1.314S202.171,440.719,202.269,440.917Z" transform="translate(-198.079 -440.851)" fill="#455a64"/>
          </g>
        </g>
        <g id="Grupo_121533" data-name="Grupo 121533" transform="translate(73.486 31.116)">
          <g id="Grupo_121532" data-name="Grupo 121532">
            <path id="Trazado_144128" data-name="Trazado 144128" d="M207.45,438.027c.117.187-.682.859-1.785,1.5s-2.082,1-2.186.81.693-.865,1.785-1.5S207.335,437.84,207.45,438.027Z" transform="translate(-203.47 -437.978)" fill="#455a64"/>
          </g>
        </g>
        <g id="Grupo_121535" data-name="Grupo 121535" transform="translate(81.311 25.948)">
          <g id="Grupo_121534" data-name="Grupo 121534">
            <path id="Trazado_144129" data-name="Trazado 144129" d="M212.324,434.644c.133.176-.6.921-1.636,1.665s-1.978,1.2-2.1,1.016.609-.929,1.636-1.665S212.191,434.469,212.324,434.644Z" transform="translate(-208.574 -434.607)" fill="#455a64"/>
          </g>
        </g>
        <g id="Grupo_121537" data-name="Grupo 121537" transform="translate(88.647 20.102)">
          <g id="Grupo_121536" data-name="Grupo 121536">
            <path id="Trazado_144130" data-name="Trazado 144130" d="M216.853,430.823c.149.163-.512.97-1.476,1.806s-1.86,1.372-2,1.2.521-.978,1.476-1.806S216.7,430.659,216.853,430.823Z" transform="translate(-213.359 -430.794)" fill="#455a64"/>
          </g>
        </g>
        <g id="Grupo_121539" data-name="Grupo 121539" transform="translate(95.456 13.79)">
          <g id="Grupo_121538" data-name="Grupo 121538">
            <path id="Trazado_144131" data-name="Trazado 144131" d="M221.177,426.7c.146.166-.483,1-1.4,1.866s-1.8,1.44-1.947,1.289.469-.993,1.4-1.87S221.032,426.539,221.177,426.7Z" transform="translate(-217.8 -426.676)" fill="#455a64"/>
          </g>
        </g>
        <g id="Grupo_121541" data-name="Grupo 121541" transform="translate(102.354 8.125)">
          <g id="Grupo_121540" data-name="Grupo 121540">
            <path id="Trazado_144132" data-name="Trazado 144132" d="M226.046,423.022c.121.184-.609.934-1.631,1.674s-1.962,1.2-2.1,1.027.593-.923,1.631-1.674S225.925,422.838,226.046,423.022Z" transform="translate(-222.299 -422.982)" fill="#455a64"/>
          </g>
        </g>
        <g id="Grupo_121543" data-name="Grupo 121543" transform="translate(110.022 3.656)">
          <g id="Grupo_121542" data-name="Grupo 121542">
            <path id="Trazado_144133" data-name="Trazado 144133" d="M231.439,420.13c.086.2-.759.82-1.889,1.38s-2.133.856-2.24.664.736-.81,1.887-1.38S231.352,419.928,231.439,420.13Z" transform="translate(-227.301 -420.066)" fill="#455a64"/>
          </g>
        </g>
        <g id="Grupo_121545" data-name="Grupo 121545" transform="translate(118.463 0.866)">
          <g id="Grupo_121544" data-name="Grupo 121544">
            <path id="Trazado_144134" data-name="Trazado 144134" d="M237.273,418.37c.038.218-.918.641-2.136.946s-2.258.38-2.327.17.888-.633,2.136-.944S237.235,418.154,237.273,418.37Z" transform="translate(-232.807 -418.247)" fill="#455a64"/>
          </g>
        </g>
        <g id="Grupo_121547" data-name="Grupo 121547" transform="translate(127.496)">
          <g id="Grupo_121546" data-name="Grupo 121546">
            <path id="Trazado_144135" data-name="Trazado 144135" d="M243.3,418.206c-.023.221-1.052.3-2.3.276s-2.28-.137-2.294-.359,1.016-.465,2.307-.44S243.318,417.989,243.3,418.206Z" transform="translate(-238.699 -417.682)" fill="#455a64"/>
          </g>
        </g>
        <g id="Grupo_121549" data-name="Grupo 121549" transform="translate(136.626 1.179)">
          <g id="Grupo_121548" data-name="Grupo 121548">
            <path id="Trazado_144136" data-name="Trazado 144136" d="M248.984,420.121c-.1.2-1.081-.1-2.258-.511s-2.123-.826-2.07-1.044,1.113-.143,2.337.291S249.087,419.926,248.984,420.121Z" transform="translate(-244.654 -418.451)" fill="#455a64"/>
          </g>
        </g>
        <g id="Grupo_121551" data-name="Grupo 121551" transform="translate(139 6.08)">
          <g id="Grupo_121550" data-name="Grupo 121550">
            <path id="Trazado_144137" data-name="Trazado 144137" d="M246.22,425.087c-.141-.178.549-.934,1.365-1.852s1.478-1.69,1.673-1.576-.2,1.124-1.078,2.106S246.351,425.257,246.22,425.087Z" transform="translate(-246.202 -421.648)" fill="#455a64"/>
          </g>
        </g>
        <g id="Grupo_121553" data-name="Grupo 121553" transform="translate(130.893 11.911)">
          <g id="Grupo_121552" data-name="Grupo 121552">
            <path id="Trazado_144138" data-name="Trazado 144138" d="M240.918,427.275c-.069-.21.814-.768,1.97-1.245s2.179-.705,2.28-.509-.78.753-1.97,1.245S240.987,427.485,240.918,427.275Z" transform="translate(-240.915 -425.451)" fill="#455a64"/>
          </g>
        </g>
        <g id="Grupo_121555" data-name="Grupo 121555" transform="translate(122.133 14.991)">
          <g id="Grupo_121554" data-name="Grupo 121554">
            <path id="Trazado_144139" data-name="Trazado 144139" d="M235.2,429.016c-.075-.207.845-.705,2.053-1.11s2.241-.564,2.306-.353-.854.707-2.053,1.11S235.278,429.225,235.2,429.016Z" transform="translate(-235.2 -427.46)" fill="#455a64"/>
          </g>
        </g>
        <g id="Grupo_121557" data-name="Grupo 121557" transform="translate(113.534 18.062)">
          <g id="Grupo_121556" data-name="Grupo 121556">
            <path id="Trazado_144140" data-name="Trazado 144140" d="M229.6,431.228c-.083-.2.811-.748,1.995-1.214s2.209-.678,2.287-.472-.814.751-1.995,1.216S229.68,431.433,229.6,431.228Z" transform="translate(-229.592 -429.463)" fill="#455a64"/>
          </g>
        </g>
        <g id="Grupo_121559" data-name="Grupo 121559" transform="translate(105.055 21.514)">
          <g id="Grupo_121558" data-name="Grupo 121558">
            <path id="Trazado_144141" data-name="Trazado 144141" d="M224.067,433.609c-.089-.2.787-.774,1.956-1.279s2.185-.747,2.271-.544-.79.776-1.955,1.277S224.156,433.81,224.067,433.609Z" transform="translate(-224.061 -431.714)" fill="#455a64"/>
          </g>
        </g>
      </g>
    </g>
    <g id="Grupo_121609" data-name="Grupo 121609" transform="translate(275.323 207.344)">
      <g id="Grupo_121601" data-name="Grupo 121601" transform="translate(0 31.186)">
        <g id="Grupo_121600" data-name="Grupo 121600">
          <g id="Grupo_121588" data-name="Grupo 121588">
            <g id="Grupo_121587" data-name="Grupo 121587">
              <g id="Grupo_121570" data-name="Grupo 121570" transform="translate(2.485)">
                <g id="Grupo_121563" data-name="Grupo 121563" transform="translate(21.684)">
                  <g id="Grupo_121562" data-name="Grupo 121562">
                    <path id="Trazado_144142" data-name="Trazado 144142" d="M212.89,279.488s10.027-3.013,23.347-17.873,18.7-33.681,20.46-33.721,9.165-4.172,26.1,26.463,11.744,38.428,8.839,38.584-23.017-3.868-35.219-1.555-27.543,9.9-27.543,9.9Z" transform="translate(-212.89 -227.686)" fill="#455a64"/>
                  </g>
                </g>
                <g id="Grupo_121565" data-name="Grupo 121565" transform="translate(0 45.547)">
                  <g id="Grupo_121564" data-name="Grupo 121564">
                    <path id="Trazado_144143" data-name="Trazado 144143" d="M200.061,282.55l3.969,6.353,1.778,2.845a8.652,8.652,0,0,0,11.532,2.985l21.283-9.237-14.884-28.1-20.964,13.255A8.655,8.655,0,0,0,200.061,282.55Z" transform="translate(-198.746 -257.394)" fill="#263238"/>
                  </g>
                </g>
                <g id="Grupo_121567" data-name="Grupo 121567" transform="translate(14.699 74.127)">
                  <g id="Grupo_121566" data-name="Grupo 121566">
                    <path id="Trazado_144144" data-name="Trazado 144144" d="M208.334,282.261l7.978,13.128,3.411-1.227,24.113,16.806,5.429-12.912s-13.867-4.789-16.71-9.4-.051-5.907-.051-5.907l-6.858-6.717Z" transform="translate(-208.334 -276.036)" fill="#263238"/>
                  </g>
                </g>
                <g id="Grupo_121569" data-name="Grupo 121569" transform="translate(66.201 0.648)">
                  <g id="Grupo_121568" data-name="Grupo 121568">
                    <path id="Trazado_144145" data-name="Trazado 144145" d="M266.186,254.8c9.038,16.605,13.406,31.677,9.758,33.663s-13.935-9.866-22.972-26.471-13.406-31.678-9.758-33.663S257.147,238.191,266.186,254.8Z" transform="translate(-241.926 -228.108)" fill="#263238"/>
                  </g>
                </g>
              </g>
              <g id="Grupo_121572" data-name="Grupo 121572" transform="translate(0 71.4)">
                <g id="Grupo_121571" data-name="Grupo 121571">
                  <path id="Trazado_144146" data-name="Trazado 144146" d="M199.761,283.253l5.784-2.3-4.183-6.7-4.236,3.091Z" transform="translate(-197.125 -274.257)" fill="#455a64"/>
                </g>
              </g>
              <g id="Grupo_121574" data-name="Grupo 121574" transform="translate(19.414 76.429)">
                <g id="Grupo_121573" data-name="Grupo 121573">
                  <path id="Trazado_144147" data-name="Trazado 144147" d="M227.223,277.537l-15.161,11.333-2.274-3.743Z" transform="translate(-209.788 -277.537)" fill="#455a64"/>
                </g>
              </g>
              <g id="Grupo_121576" data-name="Grupo 121576" transform="translate(3.729 71.4)">
                <g id="Grupo_121575" data-name="Grupo 121575">
                  <path id="Trazado_144148" data-name="Trazado 144148" d="M200.065,274.257l4.183,6.7-1.188.473-3.5-6.8Z" transform="translate(-199.558 -274.257)" fill="#455a64"/>
                </g>
              </g>
              <g id="Grupo_121578" data-name="Grupo 121578" transform="translate(8.434 65.904)">
                <g id="Grupo_121577" data-name="Grupo 121577">
                  <path id="Trazado_144149" data-name="Trazado 144149" d="M202.629,277.473c.1.184,2.971-1.184,6.41-3.057s6.146-3.543,6.045-3.727-2.97,1.184-6.41,3.057S202.528,277.287,202.629,277.473Z" transform="translate(-202.626 -270.672)" fill="#455a64"/>
                </g>
              </g>
              <g id="Grupo_121580" data-name="Grupo 121580" transform="translate(6.303 62.091)">
                <g id="Grupo_121579" data-name="Grupo 121579">
                  <path id="Trazado_144150" data-name="Trazado 144150" d="M201.24,274.784c.107.182,2.7-1.144,5.786-2.962s5.507-3.437,5.4-3.62-2.7,1.145-5.786,2.962S201.133,274.6,201.24,274.784Z" transform="translate(-201.237 -268.185)" fill="#455a64"/>
                </g>
              </g>
              <g id="Grupo_121582" data-name="Grupo 121582" transform="translate(11.055 70.772)">
                <g id="Grupo_121581" data-name="Grupo 121581">
                  <path id="Trazado_144151" data-name="Trazado 144151" d="M204.338,279.961c.04.1.731-.115,1.827-.546.547-.215,1.2-.483,1.912-.793s1.44-.759,2.225-1.187c3.128-1.745,5.492-3.4,5.4-3.569-.11-.2-2.668,1.173-5.766,2.9-.779.423-1.495.882-2.177,1.228s-1.3.652-1.812.926C204.92,279.472,204.3,279.863,204.338,279.961Z" transform="translate(-204.336 -273.847)" fill="#455a64"/>
                </g>
              </g>
              <g id="Grupo_121584" data-name="Grupo 121584" transform="translate(76.84 23.063)">
                <g id="Grupo_121583" data-name="Grupo 121583">
                  <path id="Trazado_144152" data-name="Trazado 144152" d="M247.245,244.357s8.451-6.152,14.189,5.456S258,264.086,258,264.086A79.954,79.954,0,0,1,247.245,244.357Z" transform="translate(-247.245 -242.729)" fill="#455a64"/>
                </g>
              </g>
              <g id="Grupo_121586" data-name="Grupo 121586" transform="translate(66.347 11.126)">
                <g id="Grupo_121585" data-name="Grupo 121585">
                  <path id="Trazado_144153" data-name="Trazado 144153" d="M240.409,234.943a13.615,13.615,0,0,0,.518,2.261c.388,1.441.943,3.535,1.7,6.1.471,1.256.984,2.628,1.535,4.1q.416,1.1.862,2.281.223.589.452,1.193c.163.4.365.788.55,1.19.76,1.6,1.558,3.276,2.386,5.015q.31.653.629,1.315c.205.445.481.857.722,1.292l1.518,2.617q.773,1.325,1.522,2.617c.259.423.481.868.765,1.268s.558.8.832,1.2l3.178,4.557c.258.36.5.728.76,1.067s.546.662.814.986q.8.97,1.559,1.883l2.8,3.365c1.846,1.927,3.388,3.44,4.448,4.492a13.378,13.378,0,0,0,1.709,1.57,13.612,13.612,0,0,0-1.495-1.775l-4.271-4.659-2.712-3.4q-.734-.915-1.515-1.889l-.793-.986c-.259-.339-.491-.708-.744-1.069-.995-1.452-2.038-2.974-3.12-4.552q-.407-.591-.82-1.193c-.281-.4-.5-.839-.756-1.262q-.743-1.283-1.509-2.6t-1.512-2.6c-.239-.431-.515-.839-.721-1.28l-.63-1.3c-.836-1.72-1.64-3.381-2.41-4.963-.187-.4-.392-.78-.56-1.174s-.311-.791-.465-1.179q-.46-1.161-.892-2.254c-.58-1.452-1.119-2.8-1.613-4.044-.806-2.507-1.463-4.549-1.929-6A13.4,13.4,0,0,0,240.409,234.943Z" transform="translate(-240.401 -234.943)" fill="#263238"/>
                </g>
              </g>
            </g>
          </g>
          <g id="Grupo_121599" data-name="Grupo 121599" transform="translate(37.651 80.771)">
            <g id="Grupo_121589" data-name="Grupo 121589">
              <path id="Trazado_144154" data-name="Trazado 144154" d="M227.6,280.476a2.61,2.61,0,0,1,1.8,3.144c-.659,2.606-1.737,6.7-2.6,9.2a6.617,6.617,0,0,1-1.148,2.271,2.139,2.139,0,0,1-3.9-1.107,6.8,6.8,0,0,1,.222-2.674c.54-2.43,1.527-6.082,2.389-9.059a2.61,2.61,0,0,1,3.246-1.778Z" transform="translate(-221.683 -280.369)" fill="#ffbe9d"/>
            </g>
            <g id="Grupo_121590" data-name="Grupo 121590" transform="translate(4.15 4.235)">
              <path id="Trazado_144155" data-name="Trazado 144155" d="M230.308,283.239a2.61,2.61,0,0,1,1.8,3.144c-.659,2.606-1.737,6.7-2.6,9.2a6.631,6.631,0,0,1-1.148,2.271,2.14,2.14,0,0,1-3.9-1.107,6.806,6.806,0,0,1,.222-2.675c.54-2.428,1.529-6.08,2.389-9.059a2.608,2.608,0,0,1,3.246-1.777Z" transform="translate(-224.39 -283.132)" fill="#ffbe9d"/>
            </g>
            <g id="Grupo_121591" data-name="Grupo 121591" transform="translate(8.952 6.791)">
              <path id="Trazado_144156" data-name="Trazado 144156" d="M232.646,284.891a2.259,2.259,0,0,1,1.555,2.723c-.57,2.257-1.5,5.8-2.254,7.969a5.754,5.754,0,0,1-.993,1.967,1.854,1.854,0,0,1-3.379-.958,5.913,5.913,0,0,1,.193-2.317c.468-2.1,1.323-5.266,2.068-7.845a2.261,2.261,0,0,1,2.81-1.539Z" transform="translate(-227.522 -284.799)" fill="#ffbe9d"/>
            </g>
            <g id="Grupo_121592" data-name="Grupo 121592" transform="translate(13.476 7.304)">
              <path id="Trazado_144157" data-name="Trazado 144157" d="M235.621,285.226a2.272,2.272,0,0,1,1.562,2.737c-.573,2.267-1.512,5.829-2.264,8.008a5.789,5.789,0,0,1-1,1.975,1.862,1.862,0,0,1-3.394-.963,5.971,5.971,0,0,1,.195-2.327c.469-2.113,1.329-5.289,2.079-7.882a2.271,2.271,0,0,1,2.822-1.547Z" transform="translate(-230.473 -285.134)" fill="#ffbe9d"/>
            </g>
            <g id="Grupo_121594" data-name="Grupo 121594" transform="translate(4.42 5.201)">
              <g id="Grupo_121593" data-name="Grupo 121593">
                <path id="Trazado_144158" data-name="Trazado 144158" d="M224.614,293.333c-.21-.066.3-2.263,1.13-4.9s1.682-4.733,1.892-4.665-.3,2.261-1.13,4.9S224.824,293.4,224.614,293.333Z" transform="translate(-224.566 -283.762)" fill="#eb996e"/>
              </g>
            </g>
            <g id="Grupo_121596" data-name="Grupo 121596" transform="translate(13.064 8.614)">
              <g id="Grupo_121595" data-name="Grupo 121595">
                <path id="Trazado_144159" data-name="Trazado 144159" d="M230.244,295.627c-.21-.083.454-2.231,1.237-4.877s1.407-4.806,1.628-4.762-.063,2.3-.863,4.989S230.443,295.707,230.244,295.627Z" transform="translate(-230.204 -285.988)" fill="#eb996e"/>
              </g>
            </g>
            <g id="Grupo_121598" data-name="Grupo 121598" transform="translate(8.788 8.055)">
              <g id="Grupo_121597" data-name="Grupo 121597">
                <path id="Trazado_144160" data-name="Trazado 144160" d="M227.455,295.261c-.21-.083.452-2.231,1.236-4.877s1.409-4.806,1.63-4.76-.063,2.3-.865,4.987S227.654,295.341,227.455,295.261Z" transform="translate(-227.415 -285.623)" fill="#eb996e"/>
              </g>
            </g>
          </g>
        </g>
      </g>
    </g>
    <g id="Grupo_121774" data-name="Grupo 121774" transform="translate(188.17 268.305)">
      <g id="Grupo_121746" data-name="Grupo 121746" transform="translate(4.251 9.827)">
        <g id="Grupo_121745" data-name="Grupo 121745">
          <g id="Grupo_121621" data-name="Grupo 121621">
            <g id="Grupo_121620" data-name="Grupo 121620">
              <g id="Grupo_121619" data-name="Grupo 121619">
                <g id="Grupo_121618" data-name="Grupo 121618">
                  <g id="Grupo_121617" data-name="Grupo 121617">
                    <g id="Grupo_121616" data-name="Grupo 121616">
                      <g id="Grupo_121615" data-name="Grupo 121615">
                        <g id="Grupo_121614" data-name="Grupo 121614">
                          <g id="Grupo_121613" data-name="Grupo 121613">
                            <g id="Grupo_121612" data-name="Grupo 121612">
                              <g id="Grupo_121611" data-name="Grupo 121611">
                                <g id="Grupo_121610" data-name="Grupo 121610">
                                  <path id="Trazado_144164" data-name="Trazado 144164" d="M143.61,286.089l10.41,59.183a19.484,19.484,0,0,0,21.936,15.759h0a19.273,19.273,0,0,0,16.559-22.146L190.823,328.7s14.562-3.949,13.042-18.571c-.731-7.049-3.436-21.432-6.041-34.437a27.9,27.9,0,0,0-31.9-21.813h0A27.23,27.23,0,0,0,143.61,286.089Z" transform="translate(-143.052 -253.517)" fill="#ffbe9d"/>
                                </g>
                              </g>
                            </g>
                          </g>
                        </g>
                      </g>
                    </g>
                  </g>
                </g>
              </g>
            </g>
          </g>
          <g id="Grupo_121744" data-name="Grupo 121744" transform="translate(19.362 21.543)">
            <g id="Grupo_121636" data-name="Grupo 121636" transform="translate(8.474 50.449)">
              <g id="Grupo_121635" data-name="Grupo 121635">
                <g id="Grupo_121634" data-name="Grupo 121634">
                  <g id="Grupo_121633" data-name="Grupo 121633">
                    <g id="Grupo_121632" data-name="Grupo 121632">
                      <g id="Grupo_121631" data-name="Grupo 121631">
                        <g id="Grupo_121630" data-name="Grupo 121630">
                          <g id="Grupo_121629" data-name="Grupo 121629">
                            <g id="Grupo_121628" data-name="Grupo 121628">
                              <g id="Grupo_121627" data-name="Grupo 121627">
                                <g id="Grupo_121626" data-name="Grupo 121626">
                                  <g id="Grupo_121625" data-name="Grupo 121625">
                                    <g id="Grupo_121624" data-name="Grupo 121624">
                                      <g id="Grupo_121623" data-name="Grupo 121623">
                                        <g id="Grupo_121622" data-name="Grupo 121622">
                                          <path id="Trazado_144165" data-name="Trazado 144165" d="M181.166,303.7a35.182,35.182,0,0,1-19.958-3.224s5.794,9.991,20.434,7Z" transform="translate(-161.208 -300.474)" fill="#eb996e"/>
                                        </g>
                                      </g>
                                    </g>
                                  </g>
                                </g>
                              </g>
                            </g>
                          </g>
                        </g>
                      </g>
                    </g>
                  </g>
                </g>
              </g>
            </g>
            <g id="Grupo_121743" data-name="Grupo 121743">
              <g id="Grupo_121742" data-name="Grupo 121742">
                <g id="Grupo_121717" data-name="Grupo 121717" transform="translate(2.337 5.203)">
                  <g id="Grupo_121716" data-name="Grupo 121716">
                    <g id="Grupo_121715" data-name="Grupo 121715">
                      <g id="Grupo_121662" data-name="Grupo 121662" transform="translate(22.011)">
                        <g id="Grupo_121648" data-name="Grupo 121648" transform="translate(3.679 3.634)">
                          <g id="Grupo_121647" data-name="Grupo 121647">
                            <g id="Grupo_121646" data-name="Grupo 121646">
                              <g id="Grupo_121645" data-name="Grupo 121645">
                                <g id="Grupo_121644" data-name="Grupo 121644">
                                  <g id="Grupo_121643" data-name="Grupo 121643">
                                    <g id="Grupo_121642" data-name="Grupo 121642">
                                      <g id="Grupo_121641" data-name="Grupo 121641">
                                        <g id="Grupo_121640" data-name="Grupo 121640">
                                          <g id="Grupo_121639" data-name="Grupo 121639">
                                            <g id="Grupo_121638" data-name="Grupo 121638">
                                              <g id="Grupo_121637" data-name="Grupo 121637">
                                                <path id="Trazado_144166" data-name="Trazado 144166" d="M178.182,275a2.1,2.1,0,0,1-1.8,2.335,2.035,2.035,0,0,1-2.4-1.633,2.106,2.106,0,0,1,1.794-2.336A2.039,2.039,0,0,1,178.182,275Z" transform="translate(-173.963 -273.332)" fill="#263238"/>
                                              </g>
                                            </g>
                                          </g>
                                        </g>
                                      </g>
                                    </g>
                                  </g>
                                </g>
                              </g>
                            </g>
                          </g>
                        </g>
                        <g id="Grupo_121661" data-name="Grupo 121661">
                          <g id="Grupo_121660" data-name="Grupo 121660">
                            <g id="Grupo_121659" data-name="Grupo 121659">
                              <g id="Grupo_121658" data-name="Grupo 121658">
                                <g id="Grupo_121657" data-name="Grupo 121657">
                                  <g id="Grupo_121656" data-name="Grupo 121656">
                                    <g id="Grupo_121655" data-name="Grupo 121655">
                                      <g id="Grupo_121654" data-name="Grupo 121654">
                                        <g id="Grupo_121653" data-name="Grupo 121653">
                                          <g id="Grupo_121652" data-name="Grupo 121652">
                                            <g id="Grupo_121651" data-name="Grupo 121651">
                                              <g id="Grupo_121650" data-name="Grupo 121650">
                                                <g id="Grupo_121649" data-name="Grupo 121649">
                                                  <path id="Trazado_144167" data-name="Trazado 144167" d="M179.945,272.724c-.23.3-1.97-.687-4.248-.423-2.278.232-3.816,1.576-4.1,1.328-.135-.107.075-.629.742-1.233a5.881,5.881,0,0,1,3.238-1.4,5.694,5.694,0,0,1,3.422.676C179.765,272.123,180.06,272.587,179.945,272.724Z" transform="translate(-171.563 -270.962)" fill="#263238"/>
                                                </g>
                                              </g>
                                            </g>
                                          </g>
                                        </g>
                                      </g>
                                    </g>
                                  </g>
                                </g>
                              </g>
                            </g>
                          </g>
                        </g>
                      </g>
                      <g id="Grupo_121688" data-name="Grupo 121688" transform="translate(0 2.951)">
                        <g id="Grupo_121674" data-name="Grupo 121674" transform="translate(4.26 3.266)">
                          <g id="Grupo_121673" data-name="Grupo 121673">
                            <g id="Grupo_121672" data-name="Grupo 121672">
                              <g id="Grupo_121671" data-name="Grupo 121671">
                                <g id="Grupo_121670" data-name="Grupo 121670">
                                  <g id="Grupo_121669" data-name="Grupo 121669">
                                    <g id="Grupo_121668" data-name="Grupo 121668">
                                      <g id="Grupo_121667" data-name="Grupo 121667">
                                        <g id="Grupo_121666" data-name="Grupo 121666">
                                          <g id="Grupo_121665" data-name="Grupo 121665">
                                            <g id="Grupo_121664" data-name="Grupo 121664">
                                              <g id="Grupo_121663" data-name="Grupo 121663">
                                                <path id="Trazado_144168" data-name="Trazado 144168" d="M164.2,276.682a2.1,2.1,0,0,1-1.8,2.335,2.035,2.035,0,0,1-2.4-1.633,2.106,2.106,0,0,1,1.794-2.337A2.037,2.037,0,0,1,164.2,276.682Z" transform="translate(-159.984 -275.017)" fill="#263238"/>
                                              </g>
                                            </g>
                                          </g>
                                        </g>
                                      </g>
                                    </g>
                                  </g>
                                </g>
                              </g>
                            </g>
                          </g>
                        </g>
                        <g id="Grupo_121687" data-name="Grupo 121687">
                          <g id="Grupo_121686" data-name="Grupo 121686">
                            <g id="Grupo_121685" data-name="Grupo 121685">
                              <g id="Grupo_121684" data-name="Grupo 121684">
                                <g id="Grupo_121683" data-name="Grupo 121683">
                                  <g id="Grupo_121682" data-name="Grupo 121682">
                                    <g id="Grupo_121681" data-name="Grupo 121681">
                                      <g id="Grupo_121680" data-name="Grupo 121680">
                                        <g id="Grupo_121679" data-name="Grupo 121679">
                                          <g id="Grupo_121678" data-name="Grupo 121678">
                                            <g id="Grupo_121677" data-name="Grupo 121677">
                                              <g id="Grupo_121676" data-name="Grupo 121676">
                                                <g id="Grupo_121675" data-name="Grupo 121675">
                                                  <path id="Trazado_144169" data-name="Trazado 144169" d="M165.589,274.649c-.232.3-1.973-.685-4.248-.422-2.278.232-3.816,1.575-4.1,1.328-.135-.109.074-.629.744-1.234a5.892,5.892,0,0,1,3.238-1.4,5.7,5.7,0,0,1,3.422.676C165.408,274.048,165.7,274.512,165.589,274.649Z" transform="translate(-157.206 -272.887)" fill="#263238"/>
                                                </g>
                                              </g>
                                            </g>
                                          </g>
                                        </g>
                                      </g>
                                    </g>
                                  </g>
                                </g>
                              </g>
                            </g>
                          </g>
                        </g>
                      </g>
                      <g id="Grupo_121701" data-name="Grupo 121701" transform="translate(15.353 3.187)">
                        <g id="Grupo_121700" data-name="Grupo 121700">
                          <g id="Grupo_121699" data-name="Grupo 121699">
                            <g id="Grupo_121698" data-name="Grupo 121698">
                              <g id="Grupo_121697" data-name="Grupo 121697">
                                <g id="Grupo_121696" data-name="Grupo 121696">
                                  <g id="Grupo_121695" data-name="Grupo 121695">
                                    <g id="Grupo_121694" data-name="Grupo 121694">
                                      <g id="Grupo_121693" data-name="Grupo 121693">
                                        <g id="Grupo_121692" data-name="Grupo 121692">
                                          <g id="Grupo_121691" data-name="Grupo 121691">
                                            <g id="Grupo_121690" data-name="Grupo 121690">
                                              <g id="Grupo_121689" data-name="Grupo 121689">
                                                <path id="Trazado_144170" data-name="Trazado 144170" d="M170.458,291.621a15.42,15.42,0,0,1,3.624-1.076c.575-.124,1.112-.3,1.164-.7a2.911,2.911,0,0,0-.586-1.654q-1.062-1.987-2.229-4.169c-3.114-5.941-5.438-10.853-5.194-10.976s2.965,4.6,6.079,10.539q1.129,2.2,2.16,4.2a3.3,3.3,0,0,1,.563,2.215,1.451,1.451,0,0,1-.859.946,4.019,4.019,0,0,1-.972.247A15.112,15.112,0,0,1,170.458,291.621Z" transform="translate(-167.22 -273.04)" fill="#263238"/>
                                              </g>
                                            </g>
                                          </g>
                                        </g>
                                      </g>
                                    </g>
                                  </g>
                                </g>
                              </g>
                            </g>
                          </g>
                        </g>
                      </g>
                      <g id="Grupo_121714" data-name="Grupo 121714" transform="translate(11.814 24.077)">
                        <g id="Grupo_121713" data-name="Grupo 121713">
                          <g id="Grupo_121712" data-name="Grupo 121712">
                            <g id="Grupo_121711" data-name="Grupo 121711">
                              <g id="Grupo_121710" data-name="Grupo 121710">
                                <g id="Grupo_121709" data-name="Grupo 121709">
                                  <g id="Grupo_121708" data-name="Grupo 121708">
                                    <g id="Grupo_121707" data-name="Grupo 121707">
                                      <g id="Grupo_121706" data-name="Grupo 121706">
                                        <g id="Grupo_121705" data-name="Grupo 121705">
                                          <g id="Grupo_121704" data-name="Grupo 121704">
                                            <g id="Grupo_121703" data-name="Grupo 121703">
                                              <g id="Grupo_121702" data-name="Grupo 121702">
                                                <path id="Trazado_144171" data-name="Trazado 144171" d="M165.165,286.667c.368-.063.658,2.372,2.976,3.862s4.918.923,4.978,1.262c.052.149-.532.54-1.642.695a6.272,6.272,0,0,1-4.139-.915A5.32,5.32,0,0,1,165,288.316C164.79,287.307,164.995,286.672,165.165,286.667Z" transform="translate(-164.912 -286.666)" fill="#263238"/>
                                              </g>
                                            </g>
                                          </g>
                                        </g>
                                      </g>
                                    </g>
                                  </g>
                                </g>
                              </g>
                            </g>
                          </g>
                        </g>
                      </g>
                    </g>
                  </g>
                </g>
                <g id="Grupo_121729" data-name="Grupo 121729" transform="translate(0 1.158)">
                  <g id="Grupo_121728" data-name="Grupo 121728">
                    <g id="Grupo_121727" data-name="Grupo 121727">
                      <g id="Grupo_121726" data-name="Grupo 121726">
                        <g id="Grupo_121725" data-name="Grupo 121725">
                          <g id="Grupo_121724" data-name="Grupo 121724">
                            <g id="Grupo_121723" data-name="Grupo 121723">
                              <g id="Grupo_121722" data-name="Grupo 121722">
                                <g id="Grupo_121721" data-name="Grupo 121721">
                                  <g id="Grupo_121720" data-name="Grupo 121720">
                                    <g id="Grupo_121719" data-name="Grupo 121719">
                                      <g id="Grupo_121718" data-name="Grupo 121718">
                                        <path id="Trazado_144172" data-name="Trazado 144172" d="M165.965,269.571c-.153.635-2.462.6-5.1,1.223-2.648.567-4.714,1.581-5.133,1.075-.189-.244.121-.862.923-1.55a9.225,9.225,0,0,1,7.794-1.751C165.479,268.846,166.028,269.27,165.965,269.571Z" transform="translate(-155.681 -268.323)" fill="#263238"/>
                                      </g>
                                    </g>
                                  </g>
                                </g>
                              </g>
                            </g>
                          </g>
                        </g>
                      </g>
                    </g>
                  </g>
                </g>
                <g id="Grupo_121741" data-name="Grupo 121741" transform="translate(23.662)">
                  <g id="Grupo_121740" data-name="Grupo 121740">
                    <g id="Grupo_121739" data-name="Grupo 121739">
                      <g id="Grupo_121738" data-name="Grupo 121738">
                        <g id="Grupo_121737" data-name="Grupo 121737">
                          <g id="Grupo_121736" data-name="Grupo 121736">
                            <g id="Grupo_121735" data-name="Grupo 121735">
                              <g id="Grupo_121734" data-name="Grupo 121734">
                                <g id="Grupo_121733" data-name="Grupo 121733">
                                  <g id="Grupo_121732" data-name="Grupo 121732">
                                    <g id="Grupo_121731" data-name="Grupo 121731">
                                      <g id="Grupo_121730" data-name="Grupo 121730">
                                        <path id="Trazado_144173" data-name="Trazado 144173" d="M178.923,269.483c-.342.553-1.972.2-3.862.391-1.9.124-3.445.737-3.876.245-.192-.241,0-.779.644-1.342a5.687,5.687,0,0,1,6.234-.512C178.791,268.713,179.072,269.213,178.923,269.483Z" transform="translate(-171.115 -267.568)" fill="#263238"/>
                                      </g>
                                    </g>
                                  </g>
                                </g>
                              </g>
                            </g>
                          </g>
                        </g>
                      </g>
                    </g>
                  </g>
                </g>
              </g>
            </g>
          </g>
        </g>
      </g>
      <g id="Grupo_121747" data-name="Grupo 121747" transform="translate(0)">
        <path id="Trazado_144174" data-name="Trazado 144174" d="M199.381,254.115a5.166,5.166,0,0,0-6.729.422c1.34-1.89.553-4.728-1.3-6.133a7.9,7.9,0,0,0-6.707-.974,23.225,23.225,0,0,0-6.26,3.077,2.351,2.351,0,0,0-1.038-2.379,5.416,5.416,0,0,0-2.631-.825,19.976,19.976,0,0,0-11.054,2.482,68.8,68.8,0,0,0-10.229,6.937l.011,0a48.585,48.585,0,0,0-9.348,10c-.038.035-.075.067-.115.1-2.168,1.935-3.991,7.753-3.663,10.615,1.208,10.517,4.694,16.61,6.657,26.577a3.563,3.563,0,0,0,.75,1.849c1.217,1.262,3.394.193,4.541-1.13,2.787-3.22,3.758-7.617,3.893-11.846s-.461-8.454-.368-12.684l.006-.3a22.338,22.338,0,0,1,.31-3.232c.186-.684,1.975-6.724,7.787-7.715,6.163-1.049,18.321,4.935,24.349,3.98s6.335-5.2,6.335-5.2l3.543,7.206a21.656,21.656,0,0,0,.57-9,10.176,10.176,0,0,0,2.99-5.256A6.75,6.75,0,0,0,199.381,254.115Z" transform="translate(-140.279 -247.107)" fill="#263238"/>
      </g>
      <g id="Grupo_121773" data-name="Grupo 121773" transform="translate(1.409 48.524)">
        <g id="Grupo_121759" data-name="Grupo 121759">
          <g id="Grupo_121758" data-name="Grupo 121758">
            <g id="Grupo_121757" data-name="Grupo 121757">
              <g id="Grupo_121756" data-name="Grupo 121756">
                <g id="Grupo_121755" data-name="Grupo 121755">
                  <g id="Grupo_121754" data-name="Grupo 121754">
                    <g id="Grupo_121753" data-name="Grupo 121753">
                      <g id="Grupo_121752" data-name="Grupo 121752">
                        <g id="Grupo_121751" data-name="Grupo 121751">
                          <g id="Grupo_121750" data-name="Grupo 121750">
                            <g id="Grupo_121749" data-name="Grupo 121749">
                              <g id="Grupo_121748" data-name="Grupo 121748">
                                <path id="Trazado_144175" data-name="Trazado 144175" d="M150.389,278.921c-.265-.08-10.533-1.815-9.044,8.13s11.318,6.424,11.293,6.136S150.389,278.921,150.389,278.921Z" transform="translate(-141.198 -278.757)" fill="#ffbe9d"/>
                              </g>
                            </g>
                          </g>
                        </g>
                      </g>
                    </g>
                  </g>
                </g>
              </g>
            </g>
          </g>
        </g>
        <g id="Grupo_121772" data-name="Grupo 121772" transform="translate(2.663 3.5)">
          <g id="Grupo_121771" data-name="Grupo 121771">
            <g id="Grupo_121770" data-name="Grupo 121770">
              <g id="Grupo_121769" data-name="Grupo 121769">
                <g id="Grupo_121768" data-name="Grupo 121768">
                  <g id="Grupo_121767" data-name="Grupo 121767">
                    <g id="Grupo_121766" data-name="Grupo 121766">
                      <g id="Grupo_121765" data-name="Grupo 121765">
                        <g id="Grupo_121764" data-name="Grupo 121764">
                          <g id="Grupo_121763" data-name="Grupo 121763">
                            <g id="Grupo_121762" data-name="Grupo 121762">
                              <g id="Grupo_121761" data-name="Grupo 121761">
                                <g id="Grupo_121760" data-name="Grupo 121760">
                                  <path id="Trazado_144176" data-name="Trazado 144176" d="M148.063,288.649c-.049-.025-.158.147-.434.325a1.813,1.813,0,0,1-1.311.218c-1.125-.232-2.274-1.769-2.589-3.555a5.67,5.67,0,0,1,.121-2.551,2.027,2.027,0,0,1,1.124-1.522.913.913,0,0,1,1.11.323c.176.259.143.468.2.477.032.02.192-.2.049-.6a1.126,1.126,0,0,0-.491-.566,1.368,1.368,0,0,0-1.01-.112,2.473,2.473,0,0,0-1.607,1.809,5.836,5.836,0,0,0-.195,2.861c.363,1.995,1.686,3.719,3.207,3.923a1.929,1.929,0,0,0,1.57-.5C148.082,288.893,148.1,288.663,148.063,288.649Z" transform="translate(-142.935 -281.04)" fill="#eb996e"/>
                                </g>
                              </g>
                            </g>
                          </g>
                        </g>
                      </g>
                    </g>
                  </g>
                </g>
              </g>
            </g>
          </g>
        </g>
      </g>
    </g>
    <g id="Grupo_121776" data-name="Grupo 121776" transform="translate(150.448 388.891)">
      <g id="Grupo_121775" data-name="Grupo 121775">
        <path id="Trazado_144177" data-name="Trazado 144177" d="M141.312,325.9a1.834,1.834,0,0,1,.875-.14,3.441,3.441,0,0,1,2.266,1.127,4.951,4.951,0,0,1,1.325,3.77,21.657,21.657,0,0,1-1.167,5.161c-.514,1.817-.874,4.028.346,5.9,1.092,1.895,3.316,3.356,4.227,6a7.089,7.089,0,0,1-2.225,7.7,7.231,7.231,0,0,1-4.141,1.608,15.513,15.513,0,0,1-4.435-.719,7.987,7.987,0,0,0-4.127-.265,6.026,6.026,0,0,0-3.054,2.487,21.548,21.548,0,0,1-2.616,3.269,5.192,5.192,0,0,1-3.871,1.421,7.717,7.717,0,0,1-6.119-4.061,14.815,14.815,0,0,1-1.559-6.254c-.117-1.961-.049-3.722-.089-5.259a25.022,25.022,0,0,0-.337-3.916,21.073,21.073,0,0,0-.931-3.218,2.887,2.887,0,0,1,.438.762,11.342,11.342,0,0,1,.8,2.395,22.982,22.982,0,0,1,.48,3.962c.083,1.55.057,3.313.205,5.234a14.4,14.4,0,0,0,1.575,5.971,7.068,7.068,0,0,0,5.574,3.649,4.445,4.445,0,0,0,3.325-1.251,21.489,21.489,0,0,0,2.5-3.17,6.759,6.759,0,0,1,3.459-2.783,8.674,8.674,0,0,1,4.543.251,15,15,0,0,0,4.2.7,6.474,6.474,0,0,0,3.689-1.424,6.349,6.349,0,0,0,2.018-6.868c-.753-2.343-2.9-3.831-4.1-5.892a6.086,6.086,0,0,1-.874-3.324,11.883,11.883,0,0,1,.553-3.072,22.222,22.222,0,0,0,1.263-5.024,4.652,4.652,0,0,0-1.107-3.54,3.384,3.384,0,0,0-2.053-1.177C141.619,325.853,141.32,325.944,141.312,325.9Z" transform="translate(-115.674 -325.76)" fill="#fafafa"/>
      </g>
    </g>
    <g id="Grupo_121778" data-name="Grupo 121778" transform="translate(180.311 454.334)">
      <g id="Grupo_121777" data-name="Grupo 121777" transform="translate(0)">
        <path id="Trazado_144178" data-name="Trazado 144178" d="M135.153,410.446c.046-.012.1.365.455.946a4.027,4.027,0,0,0,2.383,1.654,4.76,4.76,0,0,0,4.374-.923,9.131,9.131,0,0,0,2.933-5.355c.488-2.287.4-4.9.842-7.7a12.544,12.544,0,0,1,1.415-4.19,7,7,0,0,1,3.522-3.154,10.049,10.049,0,0,1,4.926-.451c1.66.182,3.3.555,4.97.77a11.822,11.822,0,0,0,5-.239,11.323,11.323,0,0,0,4.483-2.491,9.715,9.715,0,0,0,2.755-4.276,8.142,8.142,0,0,0-.09-4.889c-1-3.1-3.672-5.608-6.665-5.927-3.008-.342-5.832,1.145-8.725,1.2a8.363,8.363,0,0,1-4.046-.911,20.5,20.5,0,0,1-3.177-2.038,19.389,19.389,0,0,0-5.369-3.282,5.494,5.494,0,0,0-4.53.3,4.115,4.115,0,0,0-1.965,2.137c-.227.644-.2,1.024-.244,1.021a2.309,2.309,0,0,1,.092-1.072,4.159,4.159,0,0,1,1.964-2.356,5.652,5.652,0,0,1,2.139-.736,6.592,6.592,0,0,1,2.678.284,19.327,19.327,0,0,1,5.57,3.252c1.881,1.355,4.135,2.9,6.865,2.743a21.874,21.874,0,0,0,4.179-.77,13.1,13.1,0,0,1,4.655-.5c3.339.35,6.228,3.063,7.322,6.418a8.9,8.9,0,0,1,.107,5.358A10.489,10.489,0,0,1,171,389.9a12.082,12.082,0,0,1-4.808,2.665,12.566,12.566,0,0,1-5.317.251c-1.716-.227-3.351-.606-4.955-.788a9.369,9.369,0,0,0-4.569.377,6.29,6.29,0,0,0-3.186,2.822,11.96,11.96,0,0,0-1.371,3.948c-.454,2.706-.4,5.346-.941,7.709a9.524,9.524,0,0,1-3.21,5.59,5.088,5.088,0,0,1-4.736.869,4.08,4.08,0,0,1-2.433-1.87A2.322,2.322,0,0,1,135.153,410.446Z" transform="translate(-135.153 -368.446)" fill="#fafafa"/>
      </g>
    </g>
    <g id="Grupo_121780" data-name="Grupo 121780" transform="translate(202.592 399.61)">
      <g id="Grupo_121779" data-name="Grupo 121779">
        <path id="Trazado_144179" data-name="Trazado 144179" d="M179.481,336.588a5.427,5.427,0,0,1,1.062-1.432,8.173,8.173,0,0,1,4.537-2.3,7.918,7.918,0,0,1,7.331,2.918,8.459,8.459,0,0,1,1.847,4.743c.227,1.76.153,3.739,1.162,5.334a4.181,4.181,0,0,0,2.241,1.663,11.376,11.376,0,0,0,3.042.472c1.069.055,2.174.051,3.316.167a6.258,6.258,0,0,1,3.361,1.18,4.188,4.188,0,0,1,1.17,1.495,4.123,4.123,0,0,1,.305,1.913,6.391,6.391,0,0,1-1.594,3.465,9.719,9.719,0,0,1-3.049,2.409c-1.158.589-2.367,1.061-3.542,1.6a12.618,12.618,0,0,0-3.27,2.013,6.4,6.4,0,0,0-1.913,3.264c-.632,2.583-.049,5.366-.189,8.291a10.681,10.681,0,0,1-1.167,4.285,5.048,5.048,0,0,1-3.65,2.74,5.606,5.606,0,0,1-4.392-1.452,13.528,13.528,0,0,1-2.928-3.569,36.39,36.39,0,0,0-2.369-3.765,6.9,6.9,0,0,0-3.263-2.54,5.87,5.87,0,0,0-4.015.258,24.094,24.094,0,0,0-3.732,1.993,21.569,21.569,0,0,1-3.813,1.985,11.569,11.569,0,0,1-4.208.7,13.184,13.184,0,0,1-7.678-2.694,10.943,10.943,0,0,1-4.207-6.487,7.485,7.485,0,0,1,1.831-7,7.16,7.16,0,0,1,3.152-1.631,26.352,26.352,0,0,1,3.293-.572c2.122-.262,4.176-.668,5.647-1.912a11.2,11.2,0,0,0,3.006-4.547c.65-1.637,1.09-3.267,1.648-4.75a14.046,14.046,0,0,1,2.068-3.913,17.306,17.306,0,0,1,2.68-2.577,9.317,9.317,0,0,1,4.584-2.221,2.025,2.025,0,0,1,1.7.477,2.623,2.623,0,0,0-1.68-.317,9.482,9.482,0,0,0-4.406,2.306,17.347,17.347,0,0,0-2.573,2.566,13.754,13.754,0,0,0-1.95,3.833c-.53,1.467-.947,3.1-1.594,4.782a11.668,11.668,0,0,1-3.117,4.8c-1.6,1.372-3.807,1.811-5.926,2.088-2.1.311-4.448.538-6.076,2.077a6.823,6.823,0,0,0-1.6,6.375,10.245,10.245,0,0,0,3.966,6.042,12.464,12.464,0,0,0,7.246,2.516,10.843,10.843,0,0,0,3.926-.659,20.949,20.949,0,0,0,3.675-1.929A24.809,24.809,0,0,1,173.23,369a6.662,6.662,0,0,1,4.543-.276,7.666,7.666,0,0,1,3.65,2.81,36.571,36.571,0,0,1,2.425,3.848,12.793,12.793,0,0,0,2.747,3.356,4.821,4.821,0,0,0,3.768,1.283,4.258,4.258,0,0,0,3.076-2.335,9.931,9.931,0,0,0,1.078-3.963c.15-2.746-.452-5.613.228-8.417a7.179,7.179,0,0,1,2.148-3.633,13.249,13.249,0,0,1,3.469-2.128c1.2-.549,2.405-1.013,3.523-1.578a9.037,9.037,0,0,0,2.839-2.218,5.738,5.738,0,0,0,1.449-3.071,3.44,3.44,0,0,0-.241-1.584,3.518,3.518,0,0,0-.972-1.253,5.649,5.649,0,0,0-3.011-1.058c-1.092-.121-2.192-.124-3.281-.189a11.865,11.865,0,0,1-3.2-.529,4.762,4.762,0,0,1-2.522-1.913c-1.118-1.838-.977-3.863-1.193-5.587a8,8,0,0,0-1.689-4.518,7.6,7.6,0,0,0-6.94-2.892,8.213,8.213,0,0,0-4.468,2.113A16.32,16.32,0,0,0,179.481,336.588Z" transform="translate(-149.686 -332.751)" fill="#fafafa"/>
      </g>
    </g>
    <g id="Grupo_121782" data-name="Grupo 121782" transform="translate(193.759 365.17)">
      <g id="Grupo_121781" data-name="Grupo 121781">
        <path id="Trazado_144180" data-name="Trazado 144180" d="M156.748,322.682a5.4,5.4,0,0,1-3.181,1.562,10.234,10.234,0,0,1-3.9.028,6.76,6.76,0,0,1-4.185-2.4,9.132,9.132,0,0,1-1.509-4.566,12.378,12.378,0,0,1,.276-3.874c.491-2.2,1.587-3.217,1.63-3.14a14.105,14.105,0,0,0-1.076,3.253,13.36,13.36,0,0,0-.1,3.69,8.877,8.877,0,0,0,1.417,4.159,6.256,6.256,0,0,0,3.695,2.159,10.669,10.669,0,0,0,3.655.135A16.187,16.187,0,0,0,156.748,322.682Z" transform="translate(-143.925 -310.287)" fill="#fafafa"/>
      </g>
    </g>
    <g id="Grupo_121784" data-name="Grupo 121784" transform="translate(239.61 373.168)">
      <g id="Grupo_121783" data-name="Grupo 121783">
        <path id="Trazado_144181" data-name="Trazado 144181" d="M206.81,315.985c.026.011-.011.153-.109.425a4.27,4.27,0,0,1-.6,1.1,6.8,6.8,0,0,1-3.811,2.543,6.908,6.908,0,0,1-3.236.072,8.562,8.562,0,0,1-3.261-1.742,10.815,10.815,0,0,0-3.232-1.979,2.92,2.92,0,0,0-3.267,1.294,29.55,29.55,0,0,0-1.887,3.733,7.561,7.561,0,0,1-2.706,3.088,7.266,7.266,0,0,1-10.232-2.208,3.461,3.461,0,0,1-.63-1.556c.069-.029.264.54.888,1.381a7.473,7.473,0,0,0,3.463,2.585,6.8,6.8,0,0,0,6.106-.817,6.9,6.9,0,0,0,2.413-2.826,27.95,27.95,0,0,1,1.938-3.85,4.131,4.131,0,0,1,1.82-1.489,3.636,3.636,0,0,1,2.3-.089,11.071,11.071,0,0,1,3.469,2.148,8.044,8.044,0,0,0,2.97,1.682,6.47,6.47,0,0,0,2.947.023,6.838,6.838,0,0,0,3.7-2.186C206.528,316.52,206.74,315.953,206.81,315.985Z" transform="translate(-173.831 -315.504)" fill="#fafafa"/>
      </g>
    </g>
    <g id="Grupo_121786" data-name="Grupo 121786" transform="translate(273.592 395.162)">
      <g id="Grupo_121785" data-name="Grupo 121785">
        <path id="Trazado_144182" data-name="Trazado 144182" d="M205.918,368.531a8.241,8.241,0,0,1-1.7-1.108,35.433,35.433,0,0,1-4.182-3.637,19.666,19.666,0,0,1-2.432-3,10.256,10.256,0,0,1-1.527-4.218,8.313,8.313,0,0,1,.777-4.923,6.438,6.438,0,0,1,1.732-2.067,18.7,18.7,0,0,1,2.264-1.441,9.462,9.462,0,0,0,2.041-1.472,4.757,4.757,0,0,0,1.174-2.024,11.649,11.649,0,0,0,.152-4.635,24.1,24.1,0,0,1-.314-4.414,5.335,5.335,0,0,1,1.423-3.667,8.119,8.119,0,0,1,5.165-2.073c1.4-.009,1.952.714,1.9.711a3.348,3.348,0,0,0-1.887-.4,8.165,8.165,0,0,0-4.779,2.166,4.8,4.8,0,0,0-1.158,3.3,24.642,24.642,0,0,0,.383,4.285,12.146,12.146,0,0,1-.132,4.952,5.538,5.538,0,0,1-1.357,2.355,10.115,10.115,0,0,1-2.206,1.607c-1.559.868-2.993,1.748-3.709,3.186a7.654,7.654,0,0,0-.737,4.466c.3,3,2.116,5.231,3.64,6.922C203.611,366.766,206.02,368.411,205.918,368.531Z" transform="translate(-195.996 -329.85)" fill="#fafafa"/>
      </g>
    </g>
    <g id="Grupo_121788" data-name="Grupo 121788" transform="translate(236.054 464.212)">
      <g id="Grupo_121787" data-name="Grupo 121787">
        <path id="Trazado_144183" data-name="Trazado 144183" d="M186.911,374.937a2.455,2.455,0,0,1,.717-.047,20.266,20.266,0,0,1,2.051.118,19.976,19.976,0,0,1,7.261,2.116,13.237,13.237,0,0,1,6.873,8.7,9.234,9.234,0,0,1-.955,6.64,8.972,8.972,0,0,1-5.763,4.308,8.106,8.106,0,0,1-3.722-.2,5.019,5.019,0,0,0-3.193-.057,6.121,6.121,0,0,0-2.476,1.907,17.859,17.859,0,0,0-1.709,2.652c-.995,1.817-2.194,3.666-3.994,4.563a7.527,7.527,0,0,1-5.266.622,6.652,6.652,0,0,1-3.661-2.386,7.35,7.35,0,0,1-1.406-2.979,6.089,6.089,0,0,1-.113-2.07,1.927,1.927,0,0,1,.159-.7,10.31,10.31,0,0,0,.256,2.7,7.286,7.286,0,0,0,1.45,2.77,6.231,6.231,0,0,0,3.448,2.119,6.982,6.982,0,0,0,4.82-.658c1.6-.828,2.68-2.5,3.664-4.339.99-1.794,2.2-3.975,4.552-4.932a5.791,5.791,0,0,1,3.653.017,7.3,7.3,0,0,0,3.379.193,8.234,8.234,0,0,0,5.246-3.919,8.523,8.523,0,0,0,.911-6.1,12.766,12.766,0,0,0-6.424-8.356,21.162,21.162,0,0,0-7.029-2.3C187.894,375.041,186.908,375.005,186.911,374.937Z" transform="translate(-171.512 -374.889)" fill="#fafafa"/>
      </g>
    </g>
    <g id="Grupo_121790" data-name="Grupo 121790" transform="translate(208.647 507.97)">
      <g id="Grupo_121789" data-name="Grupo 121789">
        <path id="Trazado_144184" data-name="Trazado 144184" d="M167.738,410.359a10.639,10.639,0,0,0-1.44-3.16,7.64,7.64,0,0,0-2.865-2.315,6.051,6.051,0,0,0-7.9,2.122,7.628,7.628,0,0,0-1.32,3.439,10.574,10.574,0,0,0,.337,3.456c-.038.021-.255-.258-.5-.845a6.112,6.112,0,0,1-.4-2.662,7.74,7.74,0,0,1,1.274-3.8,6.616,6.616,0,0,1,8.835-2.372,7.736,7.736,0,0,1,3,2.652,6.152,6.152,0,0,1,.989,2.5C167.829,410.008,167.781,410.359,167.738,410.359Z" transform="translate(-153.635 -403.431)" fill="#fafafa"/>
      </g>
    </g>
    <g id="Grupo_121792" data-name="Grupo 121792" transform="translate(188.539 530.165)">
      <g id="Grupo_121791" data-name="Grupo 121791" transform="translate(0 0)">
        <path id="Trazado_144185" data-name="Trazado 144185" d="M179.646,424.95c-.077.015-.143-.721-.69-1.883a8.067,8.067,0,0,0-3.675-3.775,7.587,7.587,0,0,0-7.476.566,11.919,11.919,0,0,0-3.1,3.492,10.2,10.2,0,0,1-1.752,1.995,4.082,4.082,0,0,1-2.672.992c-2.048-.09-3.514-1.492-4.6-2.764a15.27,15.27,0,0,0-3.247-3.4,5.737,5.737,0,0,0-3.972-.713,7.877,7.877,0,0,0-3.356,1.4,13.552,13.552,0,0,0-3.537,4.064,15.936,15.936,0,0,1-1.047,1.732,7.255,7.255,0,0,1,.776-1.884,12.779,12.779,0,0,1,3.473-4.366,8.318,8.318,0,0,1,3.583-1.6,6.365,6.365,0,0,1,4.468.741,15.458,15.458,0,0,1,3.459,3.515c1.03,1.217,2.407,2.422,4.017,2.471,1.639.047,2.838-1.323,3.776-2.645a12.444,12.444,0,0,1,3.325-3.652,7.932,7.932,0,0,1,11.84,3.7,6.6,6.6,0,0,1,.394,1.473C179.669,424.764,179.673,424.945,179.646,424.95Z" transform="translate(-140.52 -417.907)" fill="#fafafa"/>
      </g>
    </g>
    <g id="Grupo_121794" data-name="Grupo 121794" transform="translate(219.076 478.544)">
      <g id="Grupo_121793" data-name="Grupo 121793">
        <path id="Trazado_144186" data-name="Trazado 144186" d="M180.786,387.277a17.958,17.958,0,0,0-4.409-1.942,13.778,13.778,0,0,0-5.159-.277,12.37,12.37,0,0,0-5.823,2.266,10.61,10.61,0,0,0-3.68,4.983,11.039,11.039,0,0,0-.557,5.085,14.366,14.366,0,0,0,1.628,4.509,3.305,3.305,0,0,1-.86-1.02,9.067,9.067,0,0,1-1.325-3.4,11.128,11.128,0,0,1,4.317-10.8,12.658,12.658,0,0,1,6.211-2.355,13.5,13.5,0,0,1,5.4.463,10.688,10.688,0,0,1,3.282,1.581C180.5,386.888,180.815,387.246,180.786,387.277Z" transform="translate(-160.438 -384.237)" fill="#fafafa"/>
      </g>
    </g>
  </g>
</svg>
