<svg xmlns="http://www.w3.org/2000/svg" xmlns:xlink="http://www.w3.org/1999/xlink" width="505" height="506.361" viewBox="0 0 505 506.361">
  <defs>
    <linearGradient id="linear-gradient" x1="0.5" x2="0.5" y2="1" gradientUnits="objectBoundingBox">
      <stop offset="0" stop-color="#db6464"/>
      <stop offset="1" stop-color="#ad1457"/>
    </linearGradient>
    <linearGradient id="linear-gradient-2" x1="0.5" y1="0.292" x2="0.459" y2="-0.435" gradientUnits="objectBoundingBox">
      <stop offset="0" stop-color="#ad1457" stop-opacity="0"/>
      <stop offset="1" stop-color="#023055"/>
    </linearGradient>
  </defs>
  <g id="Grupo_120620" data-name="Grupo 120620" transform="translate(-180 -4236.139)">
    <g id="Grupo_120598" data-name="Grupo 120598" transform="translate(180 4259)">
      <path id="Rect치ngulo_33925" data-name="Rect치ngulo 33925" d="M0,0H276.5A228.5,228.5,0,0,1,505,228.5v0A228.5,228.5,0,0,1,276.5,457H0a0,0,0,0,1,0,0V0A0,0,0,0,1,0,0Z" transform="translate(0 26)" fill="url(#linear-gradient)"/>
      <g id="Grupo_120606" data-name="Grupo 120606" transform="translate(22.254 -22.861)">
        <path id="Trazado_143447" data-name="Trazado 143447" d="M555.694,169.1s25.818,12.58,34.884,45.061,36.835,117.072,36.835,117.072,15.868,18.664,17.568,32.489-1.7,47.26-6.8,53.494a14.374,14.374,0,0,1-12.376,5.2l-66.785-6.334-26.3-176.1Z" transform="translate(-184.932 72.25)" fill="#023055"/>
        <path id="Trazado_143448" data-name="Trazado 143448" d="M630.215,181.425S582.46,196.4,570.561,209.437l39.1,181.907-.624,57.394h226.4c0-2.834,2.032-190.567,2.032-190.567l13.6-73.668L770.6,170.335l-15.869-12.466L665.2,162.4,651.6,176Z" transform="translate(-480.309 56.848)" fill="#023055"/>
        <g id="Grupo_78406" data-name="Grupo 78406" transform="translate(128.89 392.469)" opacity="0.3">
          <path id="Trazado_143449" data-name="Trazado 143449" d="M693.556,236.446c-.7-1.541-1.7-3.208-3.353-3.552-2.727-.562-4.55,2.661-5.48,5.288a239.1,239.1,0,0,1-29.741,58.07l-.581,27.929c13.2-11.1,26.214-23,34.628-38.061S700.661,252.166,693.556,236.446Z" transform="translate(-654.402 -232.83)" fill="#101010"/>
        </g>
        <path id="Trazado_143450" data-name="Trazado 143450" d="M765.865,179.616S750.13,201.067,743.6,215.069s-60.674,131.615-63.941,143.749-11.667,50.406,13.068,59.275H743.6L794.658,314.84,797.268,195Z" transform="translate(-675.613 86.669)" fill="#023055"/>
        <g id="Grupo_78407" data-name="Grupo 78407" transform="translate(9.283 421.95)">
          <path id="Trazado_143451" data-name="Trazado 143451" d="M758.83,253.487c-.066.076-1.133-1-3.476-2.333a39.011,39.011,0,0,0-10.678-3.868,51.23,51.23,0,0,0-7.782-1.093,30.92,30.92,0,0,0-8.923.581c-6.17,1.375-12.3,5.274-17.125,10.751a46.4,46.4,0,0,0-9.7,18.029,89.913,89.913,0,0,0-3.059,16.642c-.477,4.811-.654,8.729-.821,11.434-.08,1.264-.145,2.3-.2,3.116a4.708,4.708,0,0,1-.133,1.084,4.605,4.605,0,0,1-.064-1.091c0-.82.007-1.854.012-3.123.05-2.71.123-6.639.512-11.482a86.032,86.032,0,0,1,2.886-16.836,46.51,46.51,0,0,1,9.829-18.422c4.935-5.606,11.264-9.608,17.661-10.981a31.337,31.337,0,0,1,9.175-.512,50.491,50.491,0,0,1,7.884,1.228,36.7,36.7,0,0,1,10.715,4.216,18.447,18.447,0,0,1,2.525,1.871A4.487,4.487,0,0,1,758.83,253.487Z" transform="translate(-696.873 -245.263)"/>
        </g>
        <g id="Grupo_78408" data-name="Grupo 78408" transform="translate(47.117 409.217)">
          <path id="Trazado_143452" data-name="Trazado 143452" d="M691.125,240.292a5.974,5.974,0,0,1,1.71-.275,29.554,29.554,0,0,1,4.719-.064,39.221,39.221,0,0,1,6.941,1.024,41.35,41.35,0,0,1,15.435,7.363,39.215,39.215,0,0,1,5.165,4.747,29.521,29.521,0,0,1,2.919,3.709,5.854,5.854,0,0,1,.861,1.5c-.15.107-1.53-1.93-4.283-4.733a44.513,44.513,0,0,0-5.2-4.5,44.292,44.292,0,0,0-15.115-7.211,44.579,44.579,0,0,0-6.774-1.209C693.589,240.266,691.137,240.477,691.125,240.292Z" transform="translate(-691.125 -239.893)"/>
        </g>
        <g id="Grupo_78409" data-name="Grupo 78409" transform="translate(34.485 401.981)">
          <path id="Trazado_143453" data-name="Trazado 143453" d="M746.278,238.819a10.9,10.9,0,0,1-2.355-.18c-1.5-.192-3.678-.413-6.372-.612a108.536,108.536,0,0,0-41.609,4.98c-2.571.828-4.636,1.556-6.049,2.1a10.983,10.983,0,0,1-2.243.73,10.945,10.945,0,0,1,2.1-1.084c1.373-.652,3.412-1.482,5.971-2.4a96.2,96.2,0,0,1,41.893-5.01c2.7.289,4.88.614,6.369.925A10.921,10.921,0,0,1,746.278,238.819Z" transform="translate(-687.65 -236.841)"/>
        </g>
        <g id="Grupo_78410" data-name="Grupo 78410" transform="translate(171.286 232.847)">
          <path id="Trazado_143454" data-name="Trazado 143454" d="M693.268,236.141a3.248,3.248,0,0,1-.517-.612c-.363-.488-.823-1.1-1.387-1.861-1.247-1.726-2.969-4.109-5.115-7.083-4.392-6.2-10.517-14.839-17.721-25l.792-.111c-2.744,8.05-5.767,16.931-8.952,26.278l-.2.593-.512-.33-1.055-.681a54.284,54.284,0,0,1-11.078-9.352,66.015,66.015,0,0,1-7.908-10.936,91.289,91.289,0,0,1-8.7-21.043,142.693,142.693,0,0,1-3.3-14.986c-.3-1.707-.533-3.071-.711-4.1-.086-.467-.183-.813-.24-1.048a1.161,1.161,0,0,1-.119-.349c.209-.088.761,1.883,1.444,5.425.73,3.543,1.75,8.679,3.585,14.865a93.358,93.358,0,0,0,8.816,20.78,66.029,66.029,0,0,0,7.842,10.746,53.908,53.908,0,0,0,10.891,9.172l1.034.666-.714.261,9.027-26.252.289-.837.5.726c7.083,10.246,13.109,18.958,17.427,25.2,2.06,3.035,3.711,5.468,4.908,7.23l1.271,1.94A3.314,3.314,0,0,1,693.268,236.141Z" transform="translate(-626.543 -165.515)"/>
        </g>
        <g id="Grupo_78411" data-name="Grupo 78411" transform="translate(296.461 390.309)" opacity="0.3">
          <path id="Trazado_143455" data-name="Trazado 143455" d="M577.456,231.919a102.843,102.843,0,0,0,13.08,61.006c10.538,18.32,25.972,34.651,45.2,43.415.621-18.669-.275-40.66.346-59.329Z" transform="translate(-576.962 -231.919)" fill="#101010"/>
        </g>
        <g id="Grupo_78417" data-name="Grupo 78417" transform="translate(290.475 321.183)">
          <path id="Trazado_143456" data-name="Trazado 143456" d="M571.373,247.318s-8.223,2.281-2.056,19.129,8.224,15.831,12.335,31.593,8.909,30.143,16.1,39.052,33.923,27.07,33.923,27.07l23.985-22.615s-3.953-16.855-3-28.3,3.348-39.546,3-44.343-5.483-16.447-5.483-16.447v-7.97l-12.335-37.945s-6.853-3.085-9.25,7.88l-4.112-11.636s-6.511-1.041-8.226,12.321,1.371,31.868,1.371,31.868l-3.427,23.3-5.138,15.762-4.456.685s-6.7-1.831-10.377-14.451S580.624,244.577,571.373,247.318Z" transform="translate(-567.024 -202.767)" fill="#ffbe9d"/>
          <g id="Grupo_78412" data-name="Grupo 78412" transform="translate(53.888 56.377)">
            <path id="Trazado_143457" data-name="Trazado 143457" d="M597.128,274.316a3.91,3.91,0,0,1-.111-.863l-.173-2.511c-.123-2.3-.294-5.478-.505-9.438-.37-8.181-.884-19.568-1.482-32.859l.107.277a4.8,4.8,0,0,0-4.854-1.264,7.071,7.071,0,0,0-4.446,3.258c-2.1,3.372-2.21,7.764-2.867,12-1.3,9.6-2.537,18.75-3.666,27.085-.571,4.162-1.174,8.124-1.985,11.79a77.274,77.274,0,0,1-2.974,9.995,83.694,83.694,0,0,0-2.582,8.138,24.935,24.935,0,0,0-.773,6.346,19.759,19.759,0,0,0,.949,5.373,7.906,7.906,0,0,1-.577-1.314,14.929,14.929,0,0,1-.754-4.045,24.281,24.281,0,0,1,.624-6.483,78.722,78.722,0,0,1,2.459-8.24,78.866,78.866,0,0,0,2.833-9.941c.771-3.637,1.34-7.578,1.885-11.74,1.105-8.337,2.317-17.486,3.59-27.092.3-2.144.533-4.259.908-6.367a16.7,16.7,0,0,1,2.115-6.025,8.045,8.045,0,0,1,5.044-3.661,5.731,5.731,0,0,1,5.772,1.593l.1.123,0,.154c.458,13.3.849,24.687,1.129,32.873.1,3.962.185,7.147.244,9.447.012,1.029.019,1.861.026,2.516A3.719,3.719,0,0,1,597.128,274.316Z" transform="translate(-570.407 -226.542)" fill="#eb996e"/>
          </g>
          <g id="Grupo_78413" data-name="Grupo 78413" transform="translate(62.543 28.247)">
            <path id="Trazado_143458" data-name="Trazado 143458" d="M574.991,247.4a9.886,9.886,0,0,1-1.01-2.146,54.287,54.287,0,0,1-2.009-6.142,61.893,61.893,0,0,1-1.724-9.44,27.544,27.544,0,0,1-.1-5.724,12.232,12.232,0,0,1,2.07-5.874,8.369,8.369,0,0,1,4.384-3.291l.37-.109.187.332c3.474,6.13,6.49,11.539,8.612,15.43q1.462,2.732,2.457,4.6a7.716,7.716,0,0,1,.787,1.726,7.958,7.958,0,0,1-1.084-1.556q-1.1-1.811-2.71-4.456c-2.269-3.808-5.39-9.155-8.9-15.266l.555.223a7.486,7.486,0,0,0-3.86,2.933,11.426,11.426,0,0,0-1.916,5.416,27.723,27.723,0,0,0,.048,5.53,69.677,69.677,0,0,0,1.5,9.362c.6,2.635,1.247,4.733,1.7,6.18A12.531,12.531,0,0,1,574.991,247.4Z" transform="translate(-570.038 -214.679)" fill="#eb996e"/>
          </g>
          <g id="Grupo_78414" data-name="Grupo 78414" transform="translate(60.753 8.612)">
            <path id="Trazado_143459" data-name="Trazado 143459" d="M578.711,261.842a9.547,9.547,0,0,1-.221-2.184c-.066-1.617-.147-3.609-.244-5.964-.161-5.039-.315-12-.427-19.684-.057-7.678-.358-14.662.3-19.722a30.21,30.21,0,0,1,1.285-5.869,7.435,7.435,0,0,1,.88-2.02,55.842,55.842,0,0,0-1.477,7.963c-.477,4.977-.071,11.944-.012,19.634.109,7.688.157,14.647.14,19.686-.026,2.357-.05,4.351-.069,5.968A9.381,9.381,0,0,1,578.711,261.842Z" transform="translate(-577.701 -206.399)" fill="#eb996e"/>
          </g>
          <g id="Grupo_78415" data-name="Grupo 78415" transform="translate(41.475 88.433)">
            <path id="Trazado_143460" data-name="Trazado 143460" d="M582.834,278.867c-.14-.116,1.361-1.883,3.216-5.086a42.083,42.083,0,0,0,2.791-5.85,41.877,41.877,0,0,0,2.8-15.525,42.233,42.233,0,0,0-.567-6.457c-.619-3.649-1.409-5.831-1.238-5.888a5.156,5.156,0,0,1,.683,1.482,27.289,27.289,0,0,1,1.233,4.278,36.7,36.7,0,0,1,.792,6.568,39.038,39.038,0,0,1-2.867,15.873,36.69,36.69,0,0,1-3.038,5.876,27.129,27.129,0,0,1-2.651,3.576C583.292,278.5,582.884,278.91,582.834,278.867Z" transform="translate(-582.825 -240.061)" fill="#eb996e"/>
          </g>
          <path id="Trazado_143461" data-name="Trazado 143461" d="M555.653,251.454l20.815,7.225s19.874-10.279,33.582,0,25.61,37.371,21.842,48.336c0,0-9.459,11.679-16.656,13.393s-35.171-5.063-46.809-7.512c-11.669-2.459-31.706-15.5-31.706-15.5Z" transform="translate(-472.065 -136.004)" fill="#ffbe9d"/>
          <g id="Grupo_78416" data-name="Grupo 78416" transform="translate(85.009 99.164)">
            <path id="Trazado_143462" data-name="Trazado 143462" d="M569.031,291.54a6.729,6.729,0,0,1-.223-1.843c-.083-1.411-.182-3.083-.3-5.029-.22-4.247-.507-10.118-.593-16.618a164.824,164.824,0,0,1,.479-16.644c.183-2.125.417-3.839.628-5.013a6.793,6.793,0,0,1,.432-1.807c.154.024-.171,2.63-.37,6.867s-.289,10.1-.192,16.585c.118,6.353.225,12.1.308,16.608.024,2.127.019,3.851-.014,5.044A6.834,6.834,0,0,1,569.031,291.54Z" transform="translate(-567.893 -244.586)" fill="#eb996e"/>
          </g>
        </g>
        <g id="Grupo_78418" data-name="Grupo 78418" transform="translate(388.573 428.216)">
          <path id="Trazado_143463" data-name="Trazado 143463" d="M595.828,262.731c-.157.145-2.288-2.817-6.922-6.241a38.083,38.083,0,0,0-42.194-2.326c-4.982,2.9-7.427,5.6-7.567,5.442a10.556,10.556,0,0,1,1.717-1.857,33.9,33.9,0,0,1,5.494-4.181,37.416,37.416,0,0,1,42.967,2.369,34.133,34.133,0,0,1,5,4.757A10.512,10.512,0,0,1,595.828,262.731Z" transform="translate(-539.144 -247.905)"/>
        </g>
        <g id="Grupo_78419" data-name="Grupo 78419" transform="translate(382.281 417.792)">
          <path id="Trazado_143464" data-name="Trazado 143464" d="M600.574,251.4c-.135.2-2.914-2.606-8.66-4.776a38.308,38.308,0,0,0-23.435-.7,54.449,54.449,0,0,0-12.117,5.044,57.516,57.516,0,0,0-8.778,6.2c-2.338,1.992-4.124,3.732-5.349,4.944a15.537,15.537,0,0,1-1.959,1.835,13.12,13.12,0,0,1,1.684-2.1,65.332,65.332,0,0,1,5.169-5.2,53.689,53.689,0,0,1,8.781-6.462,52.794,52.794,0,0,1,12.307-5.2c9.227-2.6,18.233-1.435,23.95,1a27.646,27.646,0,0,1,6.407,3.616,17.857,17.857,0,0,1,1.522,1.295C600.432,251.2,600.6,251.377,600.574,251.4Z" transform="translate(-540.272 -243.509)"/>
        </g>
        <g id="Grupo_78420" data-name="Grupo 78420" transform="translate(378.32 407.328)">
          <path id="Trazado_143465" data-name="Trazado 143465" d="M604.634,242.411c-.052.194-3.69-.918-9.734-1.736A77.915,77.915,0,0,0,584.23,240a77.668,77.668,0,0,0-25.671,4.517,78.539,78.539,0,0,0-9.8,4.28c-5.4,2.831-8.442,5.12-8.558,4.956a14.066,14.066,0,0,1,2.084-1.667,29.5,29.5,0,0,1,2.585-1.767c1.038-.643,2.191-1.43,3.562-2.132a70.416,70.416,0,0,1,9.82-4.517A73.434,73.434,0,0,1,584.23,239.1a70.683,70.683,0,0,1,10.77.894c1.527.192,2.879.538,4.074.79a28.953,28.953,0,0,1,3.033.778A13.924,13.924,0,0,1,604.634,242.411Z" transform="translate(-540.201 -239.096)"/>
        </g>
        <g id="Grupo_78421" data-name="Grupo 78421" transform="translate(232.059 226.563)">
          <path id="Trazado_143466" data-name="Trazado 143466" d="M657.939,162.865a17.389,17.389,0,0,1,1.444,5.535,54.078,54.078,0,0,1-.792,16.146A95.59,95.59,0,0,1,655.9,195.8a85.251,85.251,0,0,1-5.466,12.5c-4.484,8.646-10.125,18.071-16.661,28.126l-.764,1.176,0-1.406c-.01-6.644-.019-13.618-.031-20.858l.73.349c-5.594,4.517-11.487,9.274-17.555,14.171l.154-.223a184.713,184.713,0,0,0-7.809,42.2c-1.719,22.878-.334,44.76.745,64.61.925,19.878,1.532,37.779,2.151,52.811.6,15.031,1.138,27.191,1.593,35.59.244,4.161.436,7.41.572,9.668.071,1.069.126,1.9.166,2.514.033.567.024.858.024.858s-.059-.287-.123-.851c-.064-.607-.152-1.437-.263-2.507-.209-2.205-.479-5.461-.756-9.66-.569-8.394-1.219-20.554-1.9-35.583s-1.47-32.932-2.359-52.794c-1.126-19.836-2.544-41.763-.82-64.728a184.562,184.562,0,0,1,7.885-42.415l.042-.133.112-.09c6.077-4.887,11.98-9.63,17.585-14.135l.733-.588,0,.939c-.012,7.239-.021,14.213-.031,20.858l-.766-.23c12.914-20.03,23.416-37.431,25.034-51.511a55.562,55.562,0,0,0,1.015-16.027,27.213,27.213,0,0,0-.773-4.166C658.062,163.351,657.939,162.865,657.939,162.865Z" transform="translate(-606.719 -162.865)" fill="#0a0a0a"/>
        </g>
        <path id="Trazado_143467" data-name="Trazado 143467" d="M625.48,265.14l-.671-.024a5.305,5.305,0,1,0,.671.024Z" transform="translate(-375.916 203.913)" fill="#fff"/>
        <g id="Grupo_78422" data-name="Grupo 78422" transform="translate(243.74 321.183)">
          <path id="Trazado_143468" data-name="Trazado 143468" d="M625.48,234.586l-.671-.024a5.306,5.306,0,1,0,.671.024Z" transform="translate(-619.656 -159.167)" fill="#fff"/>
          <path id="Trazado_143469" data-name="Trazado 143469" d="M624.775,213.367a5.3,5.3,0,0,0,.7-10.578l-.671-.021a5.3,5.3,0,0,0-.033,10.6Z" transform="translate(-619.656 -202.767)" fill="#fff"/>
        </g>
        <g id="Grupo_78423" data-name="Grupo 78423" transform="translate(143.139)">
          <path id="Trazado_143470" data-name="Trazado 143470" d="M620.721,208.989c-6.59-7.3-13.239-14.671-18.043-23.25s-7.669-18.593-6.077-28.294c.929-5.674,3.341-11.079,3.723-16.817.526-7.894-2.791-16.141.007-23.542,4.375-11.567,19.945-13.353,29.382-21.341,7.351-6.222,10.931-16.326,19.015-21.557,7.064-4.572,16.139-4.472,24.469-3.294s16.713,3.282,25.053,2.16c5.945-.8,11.543-3.2,17.365-4.645s12.319-1.821,17.5,1.19,8.1,10.377,4.695,15.316c9.665-4.456,21.939,3.078,24.583,13.383s-2.649,21.443-10.837,28.239-18.778,9.959-29.235,11.93c-29.6,5.58-61.715,2.431-87.227-13.59" transform="translate(-596.159 -67.32)" fill="#263238"/>
        </g>
        <g id="Grupo_78529" data-name="Grupo 78529" transform="translate(162.996 23.25)">
          <g id="Grupo_78528" data-name="Grupo 78528" transform="translate(0)">
            <g id="Grupo_78527" data-name="Grupo 78527">
              <g id="Grupo_78446" data-name="Grupo 78446">
                <g id="Grupo_78445" data-name="Grupo 78445">
                  <g id="Grupo_78444" data-name="Grupo 78444">
                    <g id="Grupo_78433" data-name="Grupo 78433">
                      <g id="Grupo_78432" data-name="Grupo 78432">
                        <g id="Grupo_78431" data-name="Grupo 78431">
                          <g id="Grupo_78430" data-name="Grupo 78430">
                            <g id="Grupo_78429" data-name="Grupo 78429">
                              <g id="Grupo_78428" data-name="Grupo 78428">
                                <g id="Grupo_78427" data-name="Grupo 78427">
                                  <g id="Grupo_78426" data-name="Grupo 78426">
                                    <g id="Grupo_78425" data-name="Grupo 78425">
                                      <g id="Grupo_78424" data-name="Grupo 78424">
                                        <path id="Trazado_143471" data-name="Trazado 143471" d="M707.265,295.071c-1.444-11.207-2.627-20.554-2.7-21.716,0,0,37.45-8.416,35.387-46.283-1-18.3-6.12-55.824-11.148-89.717a70.638,70.638,0,0,0-74.6-60.071l-3.652.244c-39.209,4.932-56.927,40.987-50.911,80.049l21.156,130.968s9.027,28.972,28.339,33.987L673.5,357.348l4.029-14.986L695.7,326.545a71.439,71.439,0,0,0,8.956-13.331C708.567,306.005,707.741,298.588,707.265,295.071Z" transform="translate(-598.487 -77.125)" fill="#ffbe9d"/>
                                      </g>
                                    </g>
                                  </g>
                                </g>
                              </g>
                            </g>
                          </g>
                        </g>
                      </g>
                    </g>
                    <g id="Grupo_78443" data-name="Grupo 78443" transform="translate(55.839 184.96)">
                      <g id="Grupo_78442" data-name="Grupo 78442">
                        <g id="Grupo_78441" data-name="Grupo 78441">
                          <g id="Grupo_78440" data-name="Grupo 78440">
                            <g id="Grupo_78439" data-name="Grupo 78439">
                              <g id="Grupo_78438" data-name="Grupo 78438">
                                <g id="Grupo_78437" data-name="Grupo 78437">
                                  <g id="Grupo_78436" data-name="Grupo 78436">
                                    <g id="Grupo_78435" data-name="Grupo 78435">
                                      <g id="Grupo_78434" data-name="Grupo 78434">
                                        <path id="Trazado_143472" data-name="Trazado 143472" d="M663.384,165.846s-23.782,3.545-50.264-10.72c0,0,13.481,26.452,51.008,20.519Z" transform="translate(-613.12 -155.125)" fill="#eb996e"/>
                                      </g>
                                    </g>
                                  </g>
                                </g>
                              </g>
                            </g>
                          </g>
                        </g>
                      </g>
                    </g>
                  </g>
                </g>
              </g>
              <g id="Grupo_78526" data-name="Grupo 78526" transform="translate(39.961 57.282)">
                <g id="Grupo_78525" data-name="Grupo 78525">
                  <g id="Grupo_78504" data-name="Grupo 78504" transform="translate(5.009 17.056)">
                    <g id="Grupo_78503" data-name="Grupo 78503">
                      <g id="Grupo_78502" data-name="Grupo 78502">
                        <g id="Grupo_78468" data-name="Grupo 78468" transform="translate(57.082)">
                          <g id="Grupo_78456" data-name="Grupo 78456" transform="translate(5.327 13.887)">
                            <g id="Grupo_78455" data-name="Grupo 78455">
                              <g id="Grupo_78454" data-name="Grupo 78454">
                                <g id="Grupo_78453" data-name="Grupo 78453">
                                  <g id="Grupo_78452" data-name="Grupo 78452">
                                    <g id="Grupo_78451" data-name="Grupo 78451">
                                      <g id="Grupo_78450" data-name="Grupo 78450">
                                        <g id="Grupo_78449" data-name="Grupo 78449">
                                          <g id="Grupo_78448" data-name="Grupo 78448">
                                            <g id="Grupo_78447" data-name="Grupo 78447">
                                              <path id="Trazado_143473" data-name="Trazado 143473" d="M619.112,118.875a5.413,5.413,0,0,1-4.847,5.8,5.177,5.177,0,0,1-5.895-4.5,5.417,5.417,0,0,1,4.84-5.8A5.184,5.184,0,0,1,619.112,118.875Z" transform="translate(-608.344 -114.33)" fill="#263238"/>
                                            </g>
                                          </g>
                                        </g>
                                      </g>
                                    </g>
                                  </g>
                                </g>
                              </g>
                            </g>
                          </g>
                          <g id="Grupo_78467" data-name="Grupo 78467">
                            <g id="Grupo_78466" data-name="Grupo 78466">
                              <g id="Grupo_78465" data-name="Grupo 78465">
                                <g id="Grupo_78464" data-name="Grupo 78464">
                                  <g id="Grupo_78463" data-name="Grupo 78463">
                                    <g id="Grupo_78462" data-name="Grupo 78462">
                                      <g id="Grupo_78461" data-name="Grupo 78461">
                                        <g id="Grupo_78460" data-name="Grupo 78460">
                                          <g id="Grupo_78459" data-name="Grupo 78459">
                                            <g id="Grupo_78458" data-name="Grupo 78458">
                                              <g id="Grupo_78457" data-name="Grupo 78457">
                                                <path id="Trazado_143474" data-name="Trazado 143474" d="M627.476,113.48c-.624.749-4.92-2.006-10.735-1.6-5.812.32-9.879,3.595-10.557,2.926-.33-.294.266-1.613,2.035-3.09a14.855,14.855,0,0,1,8.394-3.213,14.265,14.265,0,0,1,8.6,2.153C627.091,111.908,627.784,113.143,627.476,113.48Z" transform="translate(-606.097 -108.474)" fill="#263238"/>
                                              </g>
                                            </g>
                                          </g>
                                        </g>
                                      </g>
                                    </g>
                                  </g>
                                </g>
                              </g>
                            </g>
                          </g>
                        </g>
                        <g id="Grupo_78490" data-name="Grupo 78490" transform="translate(0 4.907)">
                          <g id="Grupo_78478" data-name="Grupo 78478" transform="translate(7.483 12.907)">
                            <g id="Grupo_78477" data-name="Grupo 78477">
                              <g id="Grupo_78476" data-name="Grupo 78476">
                                <g id="Grupo_78475" data-name="Grupo 78475">
                                  <g id="Grupo_78474" data-name="Grupo 78474">
                                    <g id="Grupo_78473" data-name="Grupo 78473">
                                      <g id="Grupo_78472" data-name="Grupo 78472">
                                        <g id="Grupo_78471" data-name="Grupo 78471">
                                          <g id="Grupo_78470" data-name="Grupo 78470">
                                            <g id="Grupo_78469" data-name="Grupo 78469">
                                              <path id="Trazado_143475" data-name="Trazado 143475" d="M642.273,120.531a5.411,5.411,0,0,1-4.845,5.8,5.176,5.176,0,0,1-5.895-4.5,5.417,5.417,0,0,1,4.84-5.8A5.18,5.18,0,0,1,642.273,120.531Z" transform="translate(-631.508 -115.986)" fill="#263238"/>
                                            </g>
                                          </g>
                                        </g>
                                      </g>
                                    </g>
                                  </g>
                                </g>
                              </g>
                            </g>
                          </g>
                          <g id="Grupo_78489" data-name="Grupo 78489" transform="translate(0)">
                            <g id="Grupo_78488" data-name="Grupo 78488">
                              <g id="Grupo_78487" data-name="Grupo 78487">
                                <g id="Grupo_78486" data-name="Grupo 78486">
                                  <g id="Grupo_78485" data-name="Grupo 78485">
                                    <g id="Grupo_78484" data-name="Grupo 78484">
                                      <g id="Grupo_78483" data-name="Grupo 78483">
                                        <g id="Grupo_78482" data-name="Grupo 78482">
                                          <g id="Grupo_78481" data-name="Grupo 78481">
                                            <g id="Grupo_78480" data-name="Grupo 78480">
                                              <g id="Grupo_78479" data-name="Grupo 78479">
                                                <path id="Trazado_143476" data-name="Trazado 143476" d="M651.548,115.551c-.624.749-4.925-2.006-10.735-1.6-5.812.323-9.879,3.6-10.557,2.929-.33-.294.261-1.61,2.035-3.09a14.856,14.856,0,0,1,8.392-3.215,14.289,14.289,0,0,1,8.6,2.155C651.159,113.979,651.854,115.214,651.548,115.551Z" transform="translate(-630.17 -110.543)" fill="#263238"/>
                                              </g>
                                            </g>
                                          </g>
                                        </g>
                                      </g>
                                    </g>
                                  </g>
                                </g>
                              </g>
                            </g>
                          </g>
                        </g>
                        <g id="Grupo_78501" data-name="Grupo 78501" transform="translate(39.413 3.351)">
                          <g id="Grupo_78500" data-name="Grupo 78500">
                            <g id="Grupo_78499" data-name="Grupo 78499">
                              <g id="Grupo_78498" data-name="Grupo 78498">
                                <g id="Grupo_78497" data-name="Grupo 78497">
                                  <g id="Grupo_78496" data-name="Grupo 78496">
                                    <g id="Grupo_78495" data-name="Grupo 78495">
                                      <g id="Grupo_78494" data-name="Grupo 78494">
                                        <g id="Grupo_78493" data-name="Grupo 78493">
                                          <g id="Grupo_78492" data-name="Grupo 78492">
                                            <g id="Grupo_78491" data-name="Grupo 78491">
                                              <path id="Trazado_143477" data-name="Trazado 143477" d="M619.9,158.159c-.05-.33,3.524-1.2,9.328-2.336,1.475-.254,2.862-.643,3.045-1.672.278-1.1-.45-2.656-1.288-4.335q-2.454-5.25-5.146-11.012c-7.176-15.688-12.473-28.628-11.84-28.913s6.964,12.2,14.138,27.893q2.6,5.8,4.968,11.09c.674,1.65,1.769,3.5,1.16,5.776a3.728,3.728,0,0,1-2.3,2.333,9.986,9.986,0,0,1-2.5.519C623.6,158.216,619.947,158.486,619.9,158.159Z" transform="translate(-613.951 -109.887)" fill="#263238"/>
                                            </g>
                                          </g>
                                        </g>
                                      </g>
                                    </g>
                                  </g>
                                </g>
                              </g>
                            </g>
                          </g>
                        </g>
                      </g>
                    </g>
                  </g>
                  <g id="Grupo_78514" data-name="Grupo 78514" transform="translate(0 0.42)">
                    <g id="Grupo_78513" data-name="Grupo 78513">
                      <g id="Grupo_78512" data-name="Grupo 78512">
                        <g id="Grupo_78511" data-name="Grupo 78511">
                          <g id="Grupo_78510" data-name="Grupo 78510">
                            <g id="Grupo_78509" data-name="Grupo 78509">
                              <g id="Grupo_78508" data-name="Grupo 78508">
                                <g id="Grupo_78507" data-name="Grupo 78507">
                                  <g id="Grupo_78506" data-name="Grupo 78506">
                                    <g id="Grupo_78505" data-name="Grupo 78505">
                                      <path id="Trazado_143478" data-name="Trazado 143478" d="M656.567,105.121c-.47,1.62-6.324,1.259-13.092,2.537-6.791,1.143-12.16,3.507-13.158,2.151-.451-.652.41-2.2,2.532-3.882a23.16,23.16,0,0,1,20-3.571C655.417,103.2,656.761,104.355,656.567,105.121Z" transform="translate(-630.2 -101.458)" fill="#263238"/>
                                    </g>
                                  </g>
                                </g>
                              </g>
                            </g>
                          </g>
                        </g>
                      </g>
                    </g>
                  </g>
                  <g id="Grupo_78524" data-name="Grupo 78524" transform="translate(60.333)">
                    <g id="Grupo_78523" data-name="Grupo 78523">
                      <g id="Grupo_78522" data-name="Grupo 78522">
                        <g id="Grupo_78521" data-name="Grupo 78521">
                          <g id="Grupo_78520" data-name="Grupo 78520">
                            <g id="Grupo_78519" data-name="Grupo 78519">
                              <g id="Grupo_78518" data-name="Grupo 78518">
                                <g id="Grupo_78517" data-name="Grupo 78517">
                                  <g id="Grupo_78516" data-name="Grupo 78516">
                                    <g id="Grupo_78515" data-name="Grupo 78515">
                                      <path id="Trazado_143479" data-name="Trazado 143479" d="M627.325,106.659c-.934,1.39-5.032.287-9.85.543-4.83.09-8.835,1.482-9.867.164-.458-.643.095-2.008,1.8-3.377a14.29,14.29,0,0,1,15.89-.569C627.083,104.662,627.735,105.985,627.325,106.659Z" transform="translate(-607.454 -101.281)" fill="#263238"/>
                                    </g>
                                  </g>
                                </g>
                              </g>
                            </g>
                          </g>
                        </g>
                      </g>
                    </g>
                  </g>
                </g>
              </g>
            </g>
          </g>
        </g>
        <g id="Grupo_78551" data-name="Grupo 78551" transform="translate(144.975 130.813)">
          <g id="Grupo_78539" data-name="Grupo 78539" transform="translate(0 0)">
            <g id="Grupo_78538" data-name="Grupo 78538">
              <g id="Grupo_78537" data-name="Grupo 78537">
                <g id="Grupo_78536" data-name="Grupo 78536">
                  <g id="Grupo_78535" data-name="Grupo 78535">
                    <g id="Grupo_78534" data-name="Grupo 78534">
                      <g id="Grupo_78533" data-name="Grupo 78533">
                        <g id="Grupo_78532" data-name="Grupo 78532">
                          <g id="Grupo_78531" data-name="Grupo 78531">
                            <g id="Grupo_78530" data-name="Grupo 78530">
                              <path id="Trazado_143480" data-name="Trazado 143480" d="M676.973,123.183c-.664-.237-26.511-5.949-23.955,19.862s30.53,17.4,30.5,16.653S676.973,123.183,676.973,123.183Z" transform="translate(-652.841 -122.486)" fill="#ffbe9d"/>
                            </g>
                          </g>
                        </g>
                      </g>
                    </g>
                  </g>
                </g>
              </g>
            </g>
          </g>
          <g id="Grupo_78550" data-name="Grupo 78550" transform="translate(6.686 8.778)">
            <g id="Grupo_78549" data-name="Grupo 78549">
              <g id="Grupo_78548" data-name="Grupo 78548">
                <g id="Grupo_78547" data-name="Grupo 78547">
                  <g id="Grupo_78546" data-name="Grupo 78546">
                    <g id="Grupo_78545" data-name="Grupo 78545">
                      <g id="Grupo_78544" data-name="Grupo 78544">
                        <g id="Grupo_78543" data-name="Grupo 78543">
                          <g id="Grupo_78542" data-name="Grupo 78542">
                            <g id="Grupo_78541" data-name="Grupo 78541">
                              <g id="Grupo_78540" data-name="Grupo 78540">
                                <path id="Trazado_143481" data-name="Trazado 143481" d="M670.206,146.148c-.121-.071-.42.358-1.145.783a4.506,4.506,0,0,1-3.353.4c-2.827-.73-5.551-4.83-6.137-9.471a14.91,14.91,0,0,1,.621-6.564c.6-1.966,1.691-3.405,3.04-3.787a2.3,2.3,0,0,1,2.775.97c.417.69.306,1.219.446,1.25.081.059.512-.486.2-1.532a2.9,2.9,0,0,0-1.176-1.518,3.423,3.423,0,0,0-2.552-.41c-1.978.334-3.588,2.343-4.3,4.467a15.374,15.374,0,0,0-.846,7.349c.681,5.186,3.827,9.789,7.664,10.5a4.834,4.834,0,0,0,4.045-1.091C670.221,146.776,670.3,146.186,670.206,146.148Z" transform="translate(-657.652 -126.187)" fill="#eb996e"/>
                              </g>
                            </g>
                          </g>
                        </g>
                      </g>
                    </g>
                  </g>
                </g>
              </g>
            </g>
          </g>
        </g>
        <g id="Grupo_78554" data-name="Grupo 78554" transform="translate(158.809 16.673)">
          <g id="Grupo_78553" data-name="Grupo 78553" transform="translate(0)">
            <g id="Grupo_78552" data-name="Grupo 78552">
              <path id="Trazado_143482" data-name="Trazado 143482" d="M736.626,105.894c-1.774,10.275-22.612,19.689-39.89,19.186-15.93-.465-23.8-8.368-35.37-13.986-7.325-3.555-7.325-3.555-17.265-1.94-8.039,1.307-12.209,10.789-16.722,17.569,8.6,18.738,5.122,40.53,1.48,60.823-.4,2.243-.9,4.664-2.613,6.17-2.9,2.559-7.607,1.024-10.46-1.586-4.569-4.183-6.649-10.386-8.148-16.4-3.41-13.692-4.721-28.031-2.556-41.974s7.934-27.488,17.462-37.9c11.906-13.009,29.311-20.507,46.923-21.413s35.3,4.546,50.05,14.209c6.841,4.482,13.241,10.026,17.109,17.237" transform="translate(-604.025 -74.351)" fill="#263238"/>
            </g>
          </g>
        </g>
        <path id="Trazado_143483" data-name="Trazado 143483" d="M639,139.667q-6.581-3.066-13.156-6.137a4.456,4.456,0,0,0-2.395-.6,3.823,3.823,0,0,0-2.276,1.546,12.239,12.239,0,0,0-1.459,13.445c2.364,4.169,7.92,6.372,12.347,4.539,4.664-1.93,6.931-7.346,7.294-12.38Z" transform="translate(-381.868 22.619)" fill="#eb996e"/>
        <g id="Grupo_78555" data-name="Grupo 78555" transform="translate(234.877 153.849)">
          <path id="Trazado_143484" data-name="Trazado 143484" d="M634.231,154.359c.036.111-.609.491-1.925.766a11.408,11.408,0,0,1-5.66-.417,11.807,11.807,0,0,1-6.533-5.428,12.129,12.129,0,0,1-.8-10.377,12.676,12.676,0,0,1,3.052-4.6,11.742,11.742,0,0,1,2.134-1.613,3.474,3.474,0,0,1,1.517-.484,3.406,3.406,0,0,1,1.527.3,18.847,18.847,0,0,1,2.051,1.162l1.793,1.1q1.7,1.063,3.2,2c3.9,2.476,6.248,4.126,6.111,4.358s-2.727-.991-6.808-3.163q-1.554-.839-3.322-1.8l-1.845-1.015a20.529,20.529,0,0,0-1.859-.979,1.391,1.391,0,0,0-1.44.138,10.242,10.242,0,0,0-1.728,1.371,11.132,11.132,0,0,0-2.559,3.922,10.624,10.624,0,0,0,.555,8.812,10.85,10.85,0,0,0,5.437,5,12.838,12.838,0,0,0,5.094.953C633.479,154.338,634.188,154.215,634.231,154.359Z" transform="translate(-618.502 -132.2)" fill="#263238"/>
        </g>
        <g id="Grupo_78556" data-name="Grupo 78556" transform="translate(192.053 89.319)">
          <path id="Trazado_143485" data-name="Trazado 143485" d="M677.372,132.335a46.425,46.425,0,0,0-1.027-6.535,26.861,26.861,0,0,0-9.829-14.617,26.525,26.525,0,0,0-25.128-3.742,26.592,26.592,0,0,0-12.293,9.243,26.374,26.374,0,0,0,0,31.3,26.6,26.6,0,0,0,12.3,9.246,26.731,26.731,0,0,0,34.957-18.358,46.425,46.425,0,0,0,1.027-6.535,1.361,1.361,0,0,1,.029.436l-.017,1.288a12.07,12.07,0,0,1-.163,2.087,18.946,18.946,0,0,1-.505,2.817,25.486,25.486,0,0,1-2.917,7.277,27.216,27.216,0,0,1-18.33,12.973,27.413,27.413,0,0,1-14.389-1.136,27.409,27.409,0,0,1-12.76-9.528,27.248,27.248,0,0,1,0-32.432,27.4,27.4,0,0,1,12.757-9.525,27.407,27.407,0,0,1,14.387-1.136A27.228,27.228,0,0,1,673.8,118.43a25.459,25.459,0,0,1,2.917,7.277,18.893,18.893,0,0,1,.505,2.817,12.071,12.071,0,0,1,.163,2.087c.007.515.012.937.017,1.288A1.362,1.362,0,0,1,677.372,132.335Z" transform="translate(-622.971 -104.987)" fill="#263238"/>
        </g>
        <g id="Grupo_78557" data-name="Grupo 78557" transform="translate(257.809 87.479)">
          <path id="Trazado_143486" data-name="Trazado 143486" d="M648.846,130.869a46.745,46.745,0,0,0-1.008-6.367,26.169,26.169,0,0,0-9.577-14.237,25.848,25.848,0,0,0-24.477-3.642,25.9,25.9,0,0,0-11.973,9,25.692,25.692,0,0,0,0,30.483,25.871,25.871,0,0,0,11.975,9.006,26.041,26.041,0,0,0,34.056-17.879,46.862,46.862,0,0,0,1.005-6.367,10.827,10.827,0,0,1,.014,1.681,12.426,12.426,0,0,1-.159,2.032,18.509,18.509,0,0,1-.493,2.746A26.436,26.436,0,0,1,627.5,157.07a26.693,26.693,0,0,1-14.024-1.105,26.716,26.716,0,0,1-12.442-9.286,26.567,26.567,0,0,1,0-31.619,26.709,26.709,0,0,1,12.439-9.284,26.687,26.687,0,0,1,14.021-1.107,26.442,26.442,0,0,1,20.708,19.741,18.183,18.183,0,0,1,.491,2.746,12.214,12.214,0,0,1,.161,2.035A10.8,10.8,0,0,1,648.846,130.869Z" transform="translate(-595.822 -104.211)" fill="#263238"/>
        </g>
        <g id="Grupo_78558" data-name="Grupo 78558" transform="translate(245.161 105.218)">
          <path id="Trazado_143487" data-name="Trazado 143487" d="M631.123,114.666c-.107.109-.728-.415-1.871-.956a10.76,10.76,0,0,0-4.736-1.039,10.653,10.653,0,0,0-4.693,1.2c-1.119.583-1.716,1.136-1.828,1.031-.09-.074.346-.825,1.468-1.622a9.121,9.121,0,0,1,5.037-1.591,9.228,9.228,0,0,1,5.091,1.413C630.738,113.858,631.208,114.588,631.123,114.666Z" transform="translate(-617.984 -111.691)" fill="#263238"/>
        </g>
        <g id="Grupo_78559" data-name="Grupo 78559" transform="translate(170.02 112.829)">
          <path id="Trazado_143488" data-name="Trazado 143488" d="M669.181,114.91c.161.216-5.115,4.427-11.781,9.4s-12.2,8.838-12.366,8.622,5.11-4.427,11.78-9.407S669.017,114.694,669.181,114.91Z" transform="translate(-645.03 -114.901)" fill="#263238"/>
        </g>
        <g id="Grupo_78560" data-name="Grupo 78560" transform="translate(171.508 235.186)" opacity="0.3">
          <path id="Trazado_143489" data-name="Trazado 143489" d="M636.866,166.5c-2.615,25.512,7.085,52.441,27.547,67.9,1.605,1.214,3.621,2.416,5.513,1.731a6.045,6.045,0,0,0,2.855-2.945,49.821,49.821,0,0,0,6.1-32.778c-3.241,8.532-6.023,16.907-9.293,25.833C651.76,215.413,640.648,192.4,636.866,166.5Z" transform="translate(-636.448 -166.501)" fill="#021321"/>
        </g>
        <path id="Trazado_143490" data-name="Trazado 143490" d="M606.413,225.858l15.013-5.482,2.487,25.394s16.2-29.529,22.907-43,3.256-37.25,3.256-37.25,2.4,20.711-13.836,47.129l-12.255,19.919V211.706Z" transform="translate(-365.215 67.334)" fill="#021321"/>
        <g id="Grupo_78561" data-name="Grupo 78561" transform="translate(13.576 419.142)" opacity="0.3">
          <path id="Trazado_143491" data-name="Trazado 143491" d="M746.435,247.194c-6.7-3.161-14.4-3.585-21.756-2.729-7.768.9-15.565,3.282-21.652,8.193s-10.215,12.651-9.456,20.436l.754.107c5.236-14.178,15.658-24.5,29.1-25.745s26.551,4.733,35.773,14.583C758.3,254.687,753.129,250.355,746.435,247.194Z" transform="translate(-693.48 -244.078)"/>
        </g>
        <g id="Grupo_78562" data-name="Grupo 78562" transform="translate(390.652 426.154)" opacity="0.3">
          <path id="Trazado_143492" data-name="Trazado 143492" d="M591.42,257.637c-5.032-5.43-12.1-8.719-19.395-9.99a43.578,43.578,0,0,0-36.181,10.474l2.867-2.326a45.639,45.639,0,0,1,24.092-6.547,34.89,34.89,0,0,1,22.968,9.175c5.613,5.35,8.987,12.57,12.205,19.622C599.231,270.75,596.449,263.067,591.42,257.637Z" transform="translate(-535.845 -247.035)"/>
        </g>
        <g id="Grupo_78563" data-name="Grupo 78563" transform="translate(349.427 267.518)">
          <path id="Trazado_143493" data-name="Trazado 143493" d="M571.511,231.434a9.143,9.143,0,0,1,.674-2.051l2.134-5.466c1.819-4.6,4.313-10.972,6.948-18.05s4.906-13.53,6.54-18.207q1.156-3.269,1.954-5.53a9.2,9.2,0,0,1,.832-1.994,9.1,9.1,0,0,1-.467,2.108c-.361,1.34-.927,3.265-1.662,5.634-1.468,4.735-3.642,11.235-6.279,18.33s-5.24,13.431-7.225,17.974c-.991,2.272-1.821,4.1-2.423,5.35A9.3,9.3,0,0,1,571.511,231.434Z" transform="translate(-571.502 -180.136)"/>
        </g>
        <g id="Grupo_78564" data-name="Grupo 78564" transform="translate(104.252 280.505)">
          <path id="Trazado_143494" data-name="Trazado 143494" d="M687.678,225.768c-.263.055-2.307-8.892-4.562-19.978s-3.868-20.123-3.6-20.177,2.307,8.89,4.562,19.98S687.943,225.714,687.678,225.768Z" transform="translate(-679.485 -185.613)"/>
        </g>
        <g id="Grupo_78571" data-name="Grupo 78571" transform="translate(20.749 310.036)">
          <g id="Grupo_78569" data-name="Grupo 78569" transform="translate(0)">
            <path id="Trazado_143495" data-name="Trazado 143495" d="M663.809,320.513c.593.3-6.886-58.578-6.886-58.578s4.721-44.684,7.374-46.75l.069-15.764s7.308-4.427,9.269,2.72c0,0,6.478-5.627,7.612,7.766s1.371,27.082,1.371,27.082l14.422,36.062,2.376,1.2s3.1-28.251,4.9-32.408,3.037-14.268,9.874-12.753,7.408,7.173,6.177,16.393-2.758,18.733-2.189,24.685,3.275,19.056,2.442,29.465-6.53,21.394-12.516,29.105-17.412,23.656-23.627,28.46C682.308,358.878,663.809,320.513,663.809,320.513Z" transform="translate(-575.658 -198.066)" fill="#ffbe9d"/>
            <g id="Grupo_78565" data-name="Grupo 78565" transform="translate(88.961 17.885)">
              <path id="Trazado_143496" data-name="Trazado 143496" d="M682.426,262.257a12.5,12.5,0,0,1,.04-2.521c.123-1.807.282-4.1.47-6.839.441-5.772,1.114-13.739,1.921-22.532.415-4.387.811-8.565,1.174-12.395a22.172,22.172,0,0,0,.066-5.316,7.538,7.538,0,0,0-1.8-4.062,8.1,8.1,0,0,0-5.888-2.585,15.383,15.383,0,0,0-2.454.313c-.014-.031.185-.135.584-.308a6.472,6.472,0,0,1,1.857-.387,8.277,8.277,0,0,1,6.407,2.495,8.168,8.168,0,0,1,2.094,4.408,22.229,22.229,0,0,1,.031,5.523c-.339,3.832-.709,8.015-1.1,12.4-.806,8.8-1.589,16.751-2.205,22.508l-.78,6.81A12.271,12.271,0,0,1,682.426,262.257Z" transform="translate(-675.957 -205.609)" fill="#eb996e"/>
            </g>
            <g id="Grupo_78566" data-name="Grupo 78566" transform="translate(94.895 50.45)">
              <path id="Trazado_143497" data-name="Trazado 143497" d="M682.938,219.345a20.262,20.262,0,0,0-2.554,4.648c-1.162,3.071-1.581,7.683-2.4,12.71-.778,5.034-1.534,9.582-2.132,12.867s-1.031,5.307-1.164,5.285.059-2.08.481-5.39,1.07-7.877,1.847-12.912c.815-5,1.34-9.653,2.72-12.812a12.175,12.175,0,0,1,2.084-3.434C682.455,219.594,682.905,219.309,682.938,219.345Z" transform="translate(-674.649 -219.342)" fill="#eb996e"/>
            </g>
            <g id="Grupo_78567" data-name="Grupo 78567" transform="translate(97.852 3.3)">
              <path id="Trazado_143498" data-name="Trazado 143498" d="M675.23,199.458a7.259,7.259,0,0,1,.5,1.852c.263,1.2.591,2.955.948,5.127.719,4.344,1.506,10.384,2,17.087s.6,12.8.529,17.2c-.036,2.2-.1,3.981-.185,5.21a7.167,7.167,0,0,1-.225,1.906c-.145,0-.176-2.725-.282-7.114s-.322-10.45-.813-17.13-1.169-12.7-1.712-17.059S675.088,199.482,675.23,199.458Z" transform="translate(-675.199 -199.458)" fill="#eb996e"/>
            </g>
            <g id="Grupo_78568" data-name="Grupo 78568" transform="translate(130.8 55.846)">
              <path id="Trazado_143499" data-name="Trazado 143499" d="M668.027,224.272c.142.223-2.108,1.269-4.856.413-2.76-.823-4.043-2.945-3.8-3.052.216-.187,1.66,1.409,4.086,2.118C665.862,224.514,667.951,224,668.027,224.272Z" transform="translate(-659.34 -221.618)" fill="#eb996e"/>
            </g>
            <path id="Trazado_143500" data-name="Trazado 143500" d="M759.372,246.616l-38.1,16.013h-22.7s-22.456,7.007-25.908,28.055-3.948,31.882,5.921,34.483,37.753,2.893,51.57-1.693,50.012-33.793,50.012-33.793l3.488-21.128Z" transform="translate(-670.41 -131.492)" fill="#ffbe9d"/>
          </g>
          <g id="Grupo_78570" data-name="Grupo 78570" transform="translate(86.424 103.802)">
            <path id="Trazado_143501" data-name="Trazado 143501" d="M688.344,276.426c-.05.045-.432-.308-1.084-.994a23.542,23.542,0,0,1-2.476-3.149,43.021,43.021,0,0,1-5.321-12.051,71.256,71.256,0,0,1-2.348-12.947c-.289-3.355-.273-5.437-.147-5.444a39.508,39.508,0,0,1,.835,5.364,96.414,96.414,0,0,0,2.6,12.76,50.291,50.291,0,0,0,4.965,11.949C687.083,274.759,688.479,276.3,688.344,276.426Z" transform="translate(-676.883 -241.841)" fill="#eb996e"/>
          </g>
        </g>
        <g id="Grupo_78572" data-name="Grupo 78572" transform="translate(117.98 402.907)">
          <path id="Trazado_143502" data-name="Trazado 143502" d="M685.8,289.426c-.2-.076,1.511-2.971,2.17-8.167a26.316,26.316,0,0,0-5.117-19.122c-2.315-3.244-4.918-6.068-7.112-8.8a40.873,40.873,0,0,1-5.15-7.787,20.447,20.447,0,0,1-1.909-6.009,6.865,6.865,0,0,1-.064-2.31,25.959,25.959,0,0,0,2.592,8.005,43.677,43.677,0,0,0,5.229,7.529c2.212,2.675,4.844,5.489,7.213,8.8A27.451,27.451,0,0,1,688.406,272a26.5,26.5,0,0,1,.251,9.357,24.085,24.085,0,0,1-1.745,6.054,13.042,13.042,0,0,1-.768,1.527C685.949,289.272,685.833,289.44,685.8,289.426Z" transform="translate(-668.561 -237.232)" fill="#eb996e"/>
        </g>
      </g>
    </g>
    <path id="Uni칩n_4" data-name="Uni칩n 4" d="M17.362.274C10.165,1.988.706,13.667.706,13.667-3.062,24.632,8.841,51.724,22.547,62S56.13,62,56.13,62l18.432,6.4c-.011,3.931-.092,7.444-.233,10.246-.2,4.234-.524,6.839-.37,6.867-1.056,12.923-2.324,29.451-2.068,33.027.342,4.8,5.483,16.448,5.483,16.448v7.969L89.709,180.9a5.787,5.787,0,0,0,4.243-.011c-.068,6.3-.108,9.95-.108,9.95l-13.6,73.667,80.469,14.169,15.869,12.466,89.536-4.533,13.6-13.6,21.382-5.423s47.755-14.98,59.655-28.012l-15.978-74.335c2.161-13.829,4.217-33.287,4.217-33.287s-3.128-24.617-5.178-41.933c-.029-.894-.1-2.061-.215-3.443-.173-1.827-.432-4.041-.865-6.483L379.4,64.687h22.7s22.456-7.007,25.909-28.055,3.948-31.882-5.921-34.483C417.642.976,409.545.274,400.725.274c-10.768,0-22.613,1.047-30.209,3.569-12.207,4.052-41.88,27.319-48.631,32.688L322.279.274H95.877c0,.6-.09,9.37-.232,22.858C93.384,21.68,75.1,10.09,64.171,7.786,53.814,5.606,30.521,0,20.445,0A13.882,13.882,0,0,0,17.362.274Z" transform="translate(653.262 4742) rotate(180)" stroke="rgba(0,0,0,0)" stroke-miterlimit="10" stroke-width="1" fill="url(#linear-gradient-2)"/>
  </g>
</svg>
