<svg xmlns="http://www.w3.org/2000/svg" width="190" height="155" viewBox="0 0 190 155">
  <g id="Grupo_130310" data-name="Grupo 130310" transform="translate(-810 -6472.001)">
    <g id="Grupo_126718" data-name="Grupo 126718" transform="translate(0 -3.999)">
      <rect id="Rectángulo_33967" data-name="Rectángulo 33967" width="190" height="155" transform="translate(810 6476)" fill="#f6f6f6"/>
      <g id="Grupo_126717" data-name="Grupo 126717" transform="translate(760.677 6409.697)">
        <g id="Grupo_126681" data-name="Grupo 126681" transform="translate(141.819 173.807)">
          <path id="Trazado_145745" data-name="Trazado 145745" d="M322.034,291.311s-17.985-18.484-72.867-19.376l.371,31.607,24.222-1.8Z" transform="translate(-249.167 -271.935)" fill="#a3863e"/>
        </g>
        <g id="Grupo_126695" data-name="Grupo 126695" transform="translate(55.466 95.363)">
          <path id="Trazado_145746" data-name="Trazado 145746" d="M133.2,299.841l-2.7,10.25s16.495-4.532,16.866-4.681c.173-.069-1.446-2.319-3-5.167Z" transform="translate(-97.049 -208.957)" fill="#7fa34f"/>
          <g id="Grupo_126694" data-name="Grupo 126694" transform="translate(0 0)">
            <g id="Grupo_126682" data-name="Grupo 126682" transform="translate(50.428 42.652)" opacity="0.54">
              <path id="Trazado_145747" data-name="Trazado 145747" d="M219.336,213.95c0-.106.03-.2.041-.307h0C219.366,213.747,219.341,213.844,219.336,213.95Z" transform="translate(-196.71 -203.839)" fill="#2ec4e8"/>
              <path id="Trazado_145748" data-name="Trazado 145748" d="M240,213.643h-.012c0,.137.023.266.016.407C240,214.067,240,213.643,240,213.643Z" transform="translate(-208.155 -203.839)" fill="#2ec4e8"/>
              <path id="Trazado_145749" data-name="Trazado 145749" d="M195.725,196.752h0c-.306-2.735-2.243-5.095-4.707-5.1a5.13,5.13,0,0,0-5.13,4.156c-.146-.024-3.813-.681-4.625,2.32a1.112,1.112,0,0,1-.065.318,4.1,4.1,0,0,0-1.055-.214,4.142,4.142,0,0,0-2.885.485c-.05-.113.044-.043,0,0a4.949,4.949,0,0,0-3.807-2.173c-2.546-.165-4.724,1.871-4.864,4.826,0,.064,0,.087-.006.1,0-.006,0-.012,0-.012h15.678c.013.033-.068-.019-.057.012l3.929.091h3.031c0-.007,0-.014,0-.021h8.9A4.643,4.643,0,0,0,195.725,196.752Z" transform="translate(-168.582 -191.651)" fill="#2ec4e8"/>
            </g>
            <g id="Grupo_126683" data-name="Grupo 126683" transform="translate(29.405 30.926)">
              <path id="Trazado_145750" data-name="Trazado 145750" d="M147.111,192" transform="translate(-135.66 -180.12)" fill="#afafaf"/>
              <path id="Trazado_145751" data-name="Trazado 145751" d="M132.955,192.108a50.562,50.562,0,0,0-7.359,3.076c-1.96,1.253-3.076,3.281-4.033,3.645S124.662,198.829,132.955,192.108Z" transform="translate(-121.425 -180.178)" fill="#afafaf"/>
              <path id="Trazado_145752" data-name="Trazado 145752" d="M139.9,177.3a50.571,50.571,0,0,0-2.589-7.544c-1.123-2.037-3.073-3.284-3.375-4.262S133.737,168.582,139.9,177.3Z" transform="translate(-128.31 -165.347)" fill="#afafaf"/>
              <path id="Trazado_145753" data-name="Trazado 145753" d="M147.322,190.217a50.594,50.594,0,0,0,7.972.268c2.3-.324,4.163-1.7,5.185-1.635S157.662,187.559,147.322,190.217Z" transform="translate(-135.777 -178.213)" fill="#afafaf"/>
              <path id="Trazado_145754" data-name="Trazado 145754" d="M146.745,191.972h-.4a.337.337,0,0,1-.336-.336h0a.337.337,0,0,1,.336-.336h.4a.336.336,0,0,1,.336.336h0A.336.336,0,0,1,146.745,191.972Z" transform="translate(-135.048 -179.73)" fill="#afafaf"/>
              <path id="Trazado_145755" data-name="Trazado 145755" d="M145.781,213.414h1.087l-.255-21.276h-.522Z" transform="translate(-134.923 -180.194)" fill="#afafaf"/>
            </g>
            <g id="Grupo_126684" data-name="Grupo 126684" transform="translate(43.392 47.631)">
              <path id="Trazado_145756" data-name="Trazado 145756" d="M172.092,219.914" transform="translate(-163.491 -212.292)" fill="#afafaf"/>
              <path id="Trazado_145757" data-name="Trazado 145757" d="M171.978,219.981a32.471,32.471,0,0,1,4.72,1.973c1.257.8,1.973,2.1,2.587,2.338S177.3,224.292,171.978,219.981Z" transform="translate(-163.428 -212.33)" fill="#afafaf"/>
              <path id="Trazado_145758" data-name="Trazado 145758" d="M171.888,210.482a32.427,32.427,0,0,1,1.661-4.839c.72-1.307,1.971-2.106,2.164-2.734S175.843,204.892,171.888,210.482Z" transform="translate(-163.378 -202.818)" fill="#afafaf"/>
              <path id="Trazado_145759" data-name="Trazado 145759" d="M161.34,218.768a32.436,32.436,0,0,1-5.113.172c-1.477-.208-2.67-1.092-3.325-1.049S154.709,217.064,161.34,218.768Z" transform="translate(-152.8 -211.069)" fill="#afafaf"/>
              <path id="Trazado_145760" data-name="Trazado 145760" d="M171.47,219.894h.258a.216.216,0,0,0,.215-.215h0a.216.216,0,0,0-.215-.215h-.258a.216.216,0,0,0-.215.215h0A.216.216,0,0,0,171.47,219.894Z" transform="translate(-163.028 -212.042)" fill="#afafaf"/>
              <path id="Trazado_145761" data-name="Trazado 145761" d="M172.079,233.646h-.7L171.545,220h.335Z" transform="translate(-163.098 -212.34)" fill="#afafaf"/>
            </g>
            <path id="Trazado_145762" data-name="Trazado 145762" d="M132.221,246.612c6.792-.374,6.738-4.2,6.544-5.419a17.869,17.869,0,0,1-3.414-3.328c-10.232-12.117-18.849-14.81-32.851,22.618l15.178.547,2.209-8.4A17.419,17.419,0,0,1,132.221,246.612Z" transform="translate(-81.532 -170.145)" fill="#7fa34f"/>
            <path id="Trazado_145763" data-name="Trazado 145763" d="M167.076,204.486c-5.275,2.378-8.842-.3-11.071,4.309-1.19,2.46.5,6.506,2.278,9.768l40.966,1.475-1.616-63.278s-9.694-14.271-18.31,9.155c-6.355,17.279-5.68,31.479-8.994,32.88C170.709,200.176,170.821,202.8,167.076,204.486Z" transform="translate(-110.964 -127.276)" fill="#7fa34f"/>
            <path id="Trazado_145764" data-name="Trazado 145764" d="M145.442,265.816c2.229-4.607,5.8-1.932,11.071-4.309,3.745-1.688,3.633-4.31,3.253-5.691a2.262,2.262,0,0,1-2.133-.472c.194,1.224.248,5.045-6.544,5.419a17.419,17.419,0,0,0-12.334,6.018l-2.209,8.4,11.173.4C145.941,272.322,144.252,268.275,145.442,265.816Z" transform="translate(-100.4 -184.297)" fill="#8bccca"/>
            <g id="Grupo_126693" data-name="Grupo 126693">
              <path id="Trazado_145765" data-name="Trazado 145765" d="M168.271,298.353l-1.486,2.823s-58.858-4.166-65.837-14.12,19.547-17.16,68.14-19.389Z" transform="translate(-80.061 -191.126)" fill="#8db75c"/>
              <path id="Trazado_145766" data-name="Trazado 145766" d="M163.974,305.558a.709.709,0,0,1-.074-.27.791.791,0,0,1,.765-.814h.01a.713.713,0,0,1-.084-.292.819.819,0,0,1,1.631-.109.714.714,0,0,1-.048.309.866.866,0,0,1,.228-.046.791.791,0,0,1,.867.705.72.72,0,0,1-.081.381c0,.023.007.045.008.069a.737.737,0,0,1-.244.59l-3.13-.072A.506.506,0,0,1,163.974,305.558Z" transform="translate(-115.512 -210.909)" fill="#7ea54a"/>
              <path id="Trazado_145767" data-name="Trazado 145767" d="M154.912,303.245a.716.716,0,0,1-.074-.27.791.791,0,0,1,.765-.815h.01a.715.715,0,0,1-.085-.292.819.819,0,0,1,1.631-.109.714.714,0,0,1-.049.309.869.869,0,0,1,.228-.047.791.791,0,0,1,.866.705.717.717,0,0,1-.081.381.687.687,0,0,1,.008.069.735.735,0,0,1-.244.59l-3.13-.072A.507.507,0,0,1,154.912,303.245Z" transform="translate(-110.489 -209.628)" fill="#7ea54a"/>
              <path id="Trazado_145768" data-name="Trazado 145768" d="M183.367,286.208a.467.467,0,0,1-.111-.243c-.042-.377.471-.7,1.147-.731h.015a.472.472,0,0,1-.127-.263c-.042-.377.472-.7,1.147-.731s1.257.256,1.3.633a.417.417,0,0,1-.073.278,2.1,2.1,0,0,1,.342-.042c.676-.027,1.258.256,1.3.633a.442.442,0,0,1-.121.342.359.359,0,0,1,.012.062.577.577,0,0,1-.366.53l-4.695-.064C183.094,286.468,183.18,286.316,183.367,286.208Z" transform="translate(-126.214 -200.31)" fill="#7ea54a"/>
              <path id="Trazado_145769" data-name="Trazado 145769" d="M209.492,307.833a.466.466,0,0,1-.111-.243c-.042-.377.471-.7,1.147-.731h.015a.472.472,0,0,1-.127-.263c-.042-.377.472-.7,1.147-.731s1.257.256,1.3.633a.417.417,0,0,1-.073.278,2.108,2.108,0,0,1,.342-.042c.676-.027,1.258.256,1.3.633a.442.442,0,0,1-.121.342.36.36,0,0,1,.012.062.577.577,0,0,1-.366.53l-4.695-.064C209.219,308.093,209.3,307.941,209.492,307.833Z" transform="translate(-140.693 -212.295)" fill="#7ea54a"/>
              <g id="Grupo_126685" data-name="Grupo 126685" transform="translate(56.968 67.567)">
                <path id="Trazado_145770" data-name="Trazado 145770" d="M196.2,278.056h0a.147.147,0,0,1-.206,0l-3.121-3.121a.147.147,0,0,1,0-.206h0a.146.146,0,0,1,.206,0l3.121,3.121A.147.147,0,0,1,196.2,278.056Z" transform="translate(-188.56 -262.583)" fill="#966c57"/>
                <path id="Trazado_145771" data-name="Trazado 145771" d="M200.278,279.086h0a.146.146,0,0,0,.206,0l3.121-3.121a.145.145,0,0,0,0-.206h0a.145.145,0,0,0-.206,0l-3.121,3.121A.146.146,0,0,0,200.278,279.086Z" transform="translate(-192.664 -263.154)" fill="#966c57"/>
                <path id="Trazado_145772" data-name="Trazado 145772" d="M197.609,256.593a3.076,3.076,0,0,0,.24-1.186,3.42,3.42,0,0,0-3.533-3.293l-.044,0a3.089,3.089,0,0,0,.28-1.286,3.543,3.543,0,0,0-7.067,0,3.089,3.089,0,0,0,.3,1.32,3.77,3.77,0,0,0-1-.135,3.419,3.419,0,0,0-3.534,3.293,3.105,3.105,0,0,0,.459,1.619c-.009.1-.016.2-.016.3a3.42,3.42,0,0,0,3.533,3.293,3.748,3.748,0,0,0,1.36-.253,2.4,2.4,0,0,0,.51.355,2.284,2.284,0,0,0,2,.062,2.4,2.4,0,0,0,.366.233,2.312,2.312,0,0,0,1.693.18,1.8,1.8,0,0,0,1.753,1.255,1.765,1.765,0,0,0,1.824-1.7,1.584,1.584,0,0,0-.064-.423,2.029,2.029,0,0,0,1.529-1.059A2.119,2.119,0,0,0,197.609,256.593Z" transform="translate(-183.252 -247.537)" fill="#a7d165"/>
                <path id="Trazado_145773" data-name="Trazado 145773" d="M199.766,277.776h0a.419.419,0,0,1-.418-.418v-10.04a.42.42,0,0,1,.418-.419h0a.42.42,0,0,1,.418.419v10.04A.419.419,0,0,1,199.766,277.776Z" transform="translate(-192.172 -258.268)" fill="#966c57"/>
                <rect id="Rectángulo_34526" data-name="Rectángulo 34526" width="0.266" height="2.861" rx="0.133" transform="translate(7.635 11.77) rotate(-134.996)" fill="#966c57"/>
                <rect id="Rectángulo_34527" data-name="Rectángulo 34527" width="0.266" height="2.861" rx="0.133" transform="translate(7.777 12.369) rotate(125.419)" fill="#966c57"/>
              </g>
              <g id="Grupo_126686" data-name="Grupo 126686" transform="translate(65.876 76.873)">
                <path id="Trazado_145774" data-name="Trazado 145774" d="M216.181,298.931h0a.147.147,0,0,1-.206,0l-3.121-3.121a.146.146,0,0,1,0-.206h0a.146.146,0,0,1,.206,0l3.121,3.121A.146.146,0,0,1,216.181,298.931Z" transform="translate(-208.542 -283.458)" fill="#966c57"/>
                <path id="Trazado_145775" data-name="Trazado 145775" d="M220.259,299.961h0a.146.146,0,0,0,.206,0l3.121-3.121a.145.145,0,0,0,0-.206h0a.146.146,0,0,0-.206,0l-3.121,3.121A.147.147,0,0,0,220.259,299.961Z" transform="translate(-212.645 -284.029)" fill="#966c57"/>
                <path id="Trazado_145776" data-name="Trazado 145776" d="M217.59,277.467a3.077,3.077,0,0,0,.24-1.186,3.42,3.42,0,0,0-3.533-3.293l-.044,0a3.09,3.09,0,0,0,.28-1.286,3.542,3.542,0,0,0-7.067,0,3.09,3.09,0,0,0,.3,1.321,3.771,3.771,0,0,0-1-.135,3.42,3.42,0,0,0-3.534,3.293,3.106,3.106,0,0,0,.459,1.62c-.009.1-.016.2-.016.3a3.42,3.42,0,0,0,3.533,3.293,3.747,3.747,0,0,0,1.36-.253,2.406,2.406,0,0,0,.51.356,2.282,2.282,0,0,0,2,.062,2.4,2.4,0,0,0,.366.234,2.314,2.314,0,0,0,1.693.18,1.8,1.8,0,0,0,1.753,1.254,1.765,1.765,0,0,0,1.824-1.7,1.584,1.584,0,0,0-.064-.423,2.028,2.028,0,0,0,1.529-1.059A2.118,2.118,0,0,0,217.59,277.467Z" transform="translate(-203.233 -268.411)" fill="#a7d165"/>
                <path id="Trazado_145777" data-name="Trazado 145777" d="M219.747,298.651h0a.42.42,0,0,1-.418-.419v-10.04a.419.419,0,0,1,.418-.418h0a.419.419,0,0,1,.418.418v10.04A.42.42,0,0,1,219.747,298.651Z" transform="translate(-212.153 -279.142)" fill="#966c57"/>
                <rect id="Rectángulo_34528" data-name="Rectángulo 34528" width="0.266" height="2.861" rx="0.133" transform="translate(7.635 11.77) rotate(-134.996)" fill="#966c57"/>
                <rect id="Rectángulo_34529" data-name="Rectángulo 34529" width="0.266" height="2.861" rx="0.133" transform="translate(7.778 12.368) rotate(125.367)" fill="#966c57"/>
              </g>
              <path id="Trazado_145778" data-name="Trazado 145778" d="M237.515,261.445a1.987,1.987,0,0,0-.173-.763,2.21,2.21,0,0,0-2.956-1l-.025.013a1.993,1.993,0,0,0-.176-.832,2.29,2.29,0,0,0-4.165,1.875,2,2,0,0,0,.526.7,2.423,2.423,0,0,0-.623.185,2.21,2.21,0,0,0-1.209,2.878,2.007,2.007,0,0,0,.7.833c.021.061.043.121.07.181a2.21,2.21,0,0,0,2.956,1,2.43,2.43,0,0,0,.734-.51,1.571,1.571,0,0,0,.395.074,1.475,1.475,0,0,0,1.193-.493,1.574,1.574,0,0,0,.278.04,1.5,1.5,0,0,0,1.045-.343,1.165,1.165,0,0,0,1.366.274,1.141,1.141,0,0,0,.624-1.486,1.015,1.015,0,0,0-.15-.232,1.311,1.311,0,0,0,.621-1.03A1.37,1.37,0,0,0,237.515,261.445Z" transform="translate(-151.38 -185.57)" fill="#8db75c"/>
              <path id="Trazado_145779" data-name="Trazado 145779" d="M177.78,304.547s-70.122-5.108-56.6-15.213-.743-8.47-.743-8.47,9.51-3.418,17.238-3.864c0,0,7.728,4.161-2.823,10.848s44.06,8.916,44.06,8.916" transform="translate(-90.925 -196.298)" fill="#9be0e0"/>
              <path id="Trazado_145780" data-name="Trazado 145780" d="M208.618,191.217c0,9.894,8.68,17.938,19.488,18.184V173.033C217.3,173.28,208.618,181.323,208.618,191.217Z" transform="translate(-140.342 -138.68)" fill="#c9e573"/>
              <circle id="Elipse_4880" data-name="Elipse 4880" cx="8.315" cy="8.315" r="8.315" transform="translate(66.212 62.407)" fill="#c9e573"/>
              <rect id="Rectángulo_34530" data-name="Rectángulo 34530" width="3.418" height="43.606" rx="1.709" transform="translate(85.684 55.736)" fill="#bc7742"/>
              <rect id="Rectángulo_34531" data-name="Rectángulo 34531" width="15.43" height="1.48" rx="0.74" transform="translate(75.261 70.289) rotate(41.41)" fill="#bc7742"/>
              <path id="Rectángulo_34532" data-name="Rectángulo 34532" d="M.74,0H14.69a.74.74,0,0,1,.74.74v0a.74.74,0,0,1-.74.74H.74A.74.74,0,0,1,0,.74v0A.74.74,0,0,1,.74,0Z" transform="translate(76.375 50.896) rotate(41.41)" fill="#bc7742"/>
              <g id="Grupo_126687" data-name="Grupo 126687" transform="translate(43.068 73.13)">
                <path id="Trazado_145781" data-name="Trazado 145781" d="M171.117,294.574h0a.166.166,0,0,0,.234,0l3.533-3.534a.166.166,0,0,0,0-.234h0a.165.165,0,0,0-.233,0l-3.534,3.534A.165.165,0,0,0,171.117,294.574Z" transform="translate(-162.6 -277.054)" fill="#966c57"/>
                <path id="Trazado_145782" data-name="Trazado 145782" d="M166.5,295.741h0a.165.165,0,0,1-.233,0l-3.533-3.533a.166.166,0,0,1,0-.234h0a.165.165,0,0,1,.233,0l3.533,3.533A.166.166,0,0,1,166.5,295.741Z" transform="translate(-157.954 -277.7)" fill="#966c57"/>
                <path id="Trazado_145783" data-name="Trazado 145783" d="M152.983,270.27a3.5,3.5,0,0,1-.272-1.343,3.873,3.873,0,0,1,4-3.729l.049,0a3.5,3.5,0,0,1-.317-1.456,4.011,4.011,0,0,1,8,0,3.5,3.5,0,0,1-.337,1.5,4.271,4.271,0,0,1,1.129-.153,3.872,3.872,0,0,1,4,3.729,3.515,3.515,0,0,1-.52,1.834c.011.112.018.225.018.339a3.872,3.872,0,0,1-4,3.728,4.245,4.245,0,0,1-1.539-.287,2.7,2.7,0,0,1-.578.4,2.585,2.585,0,0,1-2.26.07,2.676,2.676,0,0,1-.415.264,2.618,2.618,0,0,1-1.916.2,2.041,2.041,0,0,1-1.985,1.421,2,2,0,0,1-2.065-1.925,1.777,1.777,0,0,1,.072-.479,2.3,2.3,0,0,1-1.732-1.2A2.4,2.4,0,0,1,152.983,270.27Z" transform="translate(-152.073 -260.016)" fill="#a7d165"/>
                <path id="Trazado_145784" data-name="Trazado 145784" d="M170.7,294.257h0a.475.475,0,0,0,.474-.473V282.416a.475.475,0,0,0-.474-.474h0a.475.475,0,0,0-.473.474v11.368A.475.475,0,0,0,170.7,294.257Z" transform="translate(-162.136 -272.167)" fill="#966c57"/>
                <rect id="Rectángulo_34533" data-name="Rectángulo 34533" width="0.302" height="3.239" rx="0.151" transform="translate(6.231 11.038) rotate(-45.04)" fill="#966c57"/>
                <path id="Rectángulo_34534" data-name="Rectángulo 34534" d="M.151,0h0A.151.151,0,0,1,.3.151V3.089a.151.151,0,0,1-.151.151h0A.151.151,0,0,1,0,3.088V.151A.151.151,0,0,1,.151,0Z" transform="translate(11.001 12.129) rotate(54.58)" fill="#966c57"/>
              </g>
              <path id="Trazado_145785" data-name="Trazado 145785" d="M116.265,282.945a1.987,1.987,0,0,0-.173-.763,2.21,2.21,0,0,0-2.956-1l-.025.013a1.993,1.993,0,0,0-.176-.832,2.29,2.29,0,0,0-4.165,1.875,2,2,0,0,0,.526.7,2.425,2.425,0,0,0-.623.185A2.21,2.21,0,0,0,107.463,286a2.007,2.007,0,0,0,.7.833c.021.061.043.121.07.181a2.21,2.21,0,0,0,2.956,1,2.43,2.43,0,0,0,.734-.51,1.571,1.571,0,0,0,.395.074,1.476,1.476,0,0,0,1.193-.493,1.576,1.576,0,0,0,.278.04,1.5,1.5,0,0,0,1.045-.343,1.165,1.165,0,0,0,1.366.274,1.141,1.141,0,0,0,.624-1.486,1.017,1.017,0,0,0-.15-.232,1.311,1.311,0,0,0,.621-1.03A1.37,1.37,0,0,0,116.265,282.945Z" transform="translate(-84.184 -197.485)" fill="#8db75c"/>
              <path id="Trazado_145786" data-name="Trazado 145786" d="M104.273,291.415a1.986,1.986,0,0,0,.519-.585,2.21,2.21,0,0,0-.908-2.987l-.025-.013a1.993,1.993,0,0,0,.574-.628,2.29,2.29,0,0,0-3.951-2.292,1.994,1.994,0,0,0-.262.835,2.443,2.443,0,0,0-.514-.4,2.21,2.21,0,0,0-3.044.695A2,2,0,0,0,96.4,287.1c-.037.052-.074.106-.107.162a2.21,2.21,0,0,0,.908,2.987,2.422,2.422,0,0,0,.842.3,1.516,1.516,0,0,0,.17.364,1.474,1.474,0,0,0,1.1.682,1.553,1.553,0,0,0,.129.249,1.5,1.5,0,0,0,.888.65,1.165,1.165,0,0,0,.573,1.27,1.141,1.141,0,0,0,1.571-.359,1.037,1.037,0,0,0,.1-.257,1.312,1.312,0,0,0,1.2-.1A1.37,1.37,0,0,0,104.273,291.415Z" transform="translate(-77.94 -200.115)" fill="#8db75c"/>
              <path id="Trazado_145787" data-name="Trazado 145787" d="M94.754,296.235a1.99,1.99,0,0,0-.164-.765,2.21,2.21,0,0,0-2.944-1.038l-.025.012a1.988,1.988,0,0,0-.166-.834,2.289,2.289,0,0,0-4.187,1.825,1.99,1.99,0,0,0,.518.706,2.423,2.423,0,0,0-.625.177,2.21,2.21,0,0,0-1.243,2.863,2,2,0,0,0,.691.841,1.906,1.906,0,0,0,.068.182,2.21,2.21,0,0,0,2.944,1.038,2.43,2.43,0,0,0,.74-.5,1.521,1.521,0,0,0,.394.079,1.476,1.476,0,0,0,1.2-.479,1.572,1.572,0,0,0,.277.044,1.5,1.5,0,0,0,1.049-.331,1.164,1.164,0,0,0,1.363.291,1.14,1.14,0,0,0,.642-1.478,1.018,1.018,0,0,0-.147-.234,1.311,1.311,0,0,0,.633-1.023A1.369,1.369,0,0,0,94.754,296.235Z" transform="translate(-72.249 -204.815)" fill="#8db75c"/>
              <path id="Trazado_145788" data-name="Trazado 145788" d="M95.26,302.814a1.994,1.994,0,0,0-.164-.765,2.21,2.21,0,0,0-2.944-1.038l-.025.013a2,2,0,0,0-.166-.835,2.29,2.29,0,0,0-4.187,1.826,2,2,0,0,0,.518.705,2.468,2.468,0,0,0-.625.177,2.21,2.21,0,0,0-1.243,2.864,2,2,0,0,0,.69.841c.02.061.042.122.068.182a2.21,2.21,0,0,0,2.944,1.038,2.414,2.414,0,0,0,.74-.5,1.563,1.563,0,0,0,.395.079,1.475,1.475,0,0,0,1.2-.479,1.559,1.559,0,0,0,.277.044,1.5,1.5,0,0,0,1.049-.33,1.165,1.165,0,0,0,1.362.291,1.141,1.141,0,0,0,.642-1.478,1.017,1.017,0,0,0-.147-.234,1.311,1.311,0,0,0,.633-1.023A1.37,1.37,0,0,0,95.26,302.814Z" transform="translate(-72.529 -208.462)" fill="#8db75c"/>
              <path id="Trazado_145789" data-name="Trazado 145789" d="M106.76,306.564a2,2,0,0,0-.164-.765,2.21,2.21,0,0,0-2.944-1.038l-.025.012a2,2,0,0,0-.166-.835,2.29,2.29,0,0,0-4.187,1.826,2,2,0,0,0,.518.705,2.469,2.469,0,0,0-.625.177,2.21,2.21,0,0,0-1.243,2.864,2,2,0,0,0,.69.841c.02.061.042.122.068.182a2.21,2.21,0,0,0,2.944,1.038,2.415,2.415,0,0,0,.74-.5,1.566,1.566,0,0,0,.395.079,1.475,1.475,0,0,0,1.2-.479,1.559,1.559,0,0,0,.277.044,1.5,1.5,0,0,0,1.049-.33,1.165,1.165,0,0,0,1.362.291,1.141,1.141,0,0,0,.642-1.478,1.017,1.017,0,0,0-.147-.234,1.311,1.311,0,0,0,.633-1.023A1.37,1.37,0,0,0,106.76,306.564Z" transform="translate(-78.902 -210.54)" fill="#8db75c"/>
              <path id="Trazado_145790" data-name="Trazado 145790" d="M117.414,310.388a1.09,1.09,0,0,0,.113-.414,1.213,1.213,0,0,0-1.172-1.249h-.016a1.094,1.094,0,0,0,.129-.448,1.256,1.256,0,0,0-2.5-.168,1.1,1.1,0,0,0,.074.475,1.341,1.341,0,0,0-.35-.072,1.213,1.213,0,0,0-1.329,1.082,1.1,1.1,0,0,0,.124.584,1.036,1.036,0,0,0-.013.106,1.213,1.213,0,0,0,1.172,1.249,1.325,1.325,0,0,0,.487-.058.864.864,0,0,0,.172.138.811.811,0,0,0,.705.069.835.835,0,0,0,.124.091.819.819,0,0,0,.595.1.639.639,0,0,0,.591.486.626.626,0,0,0,.686-.559.55.55,0,0,0-.012-.151.72.72,0,0,0,.567-.338A.752.752,0,0,0,117.414,310.388Z" transform="translate(-86.997 -212.937)" fill="#8db75c"/>
              <path id="Trazado_145791" data-name="Trazado 145791" d="M115.524,316.749a1.094,1.094,0,0,0,.113-.414,1.213,1.213,0,0,0-1.172-1.25h-.016a1.094,1.094,0,0,0,.129-.449,1.256,1.256,0,0,0-2.5-.168,1.094,1.094,0,0,0,.074.475,1.322,1.322,0,0,0-.35-.071,1.213,1.213,0,0,0-1.329,1.082,1.1,1.1,0,0,0,.124.584,1.035,1.035,0,0,0-.013.106,1.213,1.213,0,0,0,1.172,1.249,1.323,1.323,0,0,0,.487-.057.847.847,0,0,0,.172.138.809.809,0,0,0,.705.069.838.838,0,0,0,.124.091.822.822,0,0,0,.595.1.639.639,0,0,0,.591.485.626.626,0,0,0,.686-.558.548.548,0,0,0-.012-.151.72.72,0,0,0,.567-.339A.751.751,0,0,0,115.524,316.749Z" transform="translate(-85.949 -216.462)" fill="#8db75c"/>
              <path id="Trazado_145792" data-name="Trazado 145792" d="M125.392,312.786a1.091,1.091,0,0,0-.116-.413,1.213,1.213,0,0,0-1.648-.469l-.014.008a1.087,1.087,0,0,0-.119-.451,1.257,1.257,0,0,0-2.231,1.143,1.088,1.088,0,0,0,.308.369,1.32,1.32,0,0,0-.337.119,1.213,1.213,0,0,0-.584,1.611,1.1,1.1,0,0,0,.407.437c.013.033.027.065.043.1a1.213,1.213,0,0,0,1.648.469,1.323,1.323,0,0,0,.388-.3.838.838,0,0,0,.219.029.809.809,0,0,0,.64-.3.862.862,0,0,0,.153.015.82.82,0,0,0,.563-.217.639.639,0,0,0,.756.113.626.626,0,0,0,.3-.831.558.558,0,0,0-.089-.123.719.719,0,0,0,.312-.582A.751.751,0,0,0,125.392,312.786Z" transform="translate(-91.524 -215.055)" fill="#8db75c"/>
              <path id="Trazado_145793" data-name="Trazado 145793" d="M134.142,317.536a1.092,1.092,0,0,0-.116-.413,1.213,1.213,0,0,0-1.648-.469l-.014.008a1.087,1.087,0,0,0-.119-.451,1.257,1.257,0,0,0-2.231,1.143,1.088,1.088,0,0,0,.308.369,1.319,1.319,0,0,0-.337.119,1.213,1.213,0,0,0-.584,1.611,1.1,1.1,0,0,0,.407.437c.013.033.027.065.043.1a1.213,1.213,0,0,0,1.648.469,1.323,1.323,0,0,0,.388-.3.838.838,0,0,0,.219.029.809.809,0,0,0,.64-.3.862.862,0,0,0,.153.015.82.82,0,0,0,.563-.217.639.639,0,0,0,.756.113.626.626,0,0,0,.3-.831.559.559,0,0,0-.089-.123.719.719,0,0,0,.312-.582A.752.752,0,0,0,134.142,317.536Z" transform="translate(-96.373 -217.687)" fill="#8db75c"/>
              <path id="Trazado_145794" data-name="Trazado 145794" d="M139.266,322.317a1.089,1.089,0,0,0,.353-.245,1.213,1.213,0,0,0-.1-1.711l-.012-.01a1.091,1.091,0,0,0,.387-.26,1.257,1.257,0,0,0-1.81-1.735,1.091,1.091,0,0,0-.248.411,1.338,1.338,0,0,0-.222-.28,1.213,1.213,0,0,0-1.713-.025,1.1,1.1,0,0,0-.28.527,1,1,0,0,0-.078.073,1.213,1.213,0,0,0,.1,1.711,1.333,1.333,0,0,0,.41.269.846.846,0,0,0,.043.216.828.828,0,0,1,.533.655.821.821,0,0,0,.389.462.639.639,0,0,0,.14.752.627.627,0,0,0,.884.012.549.549,0,0,0,.087-.124.72.72,0,0,0,.652.1A.752.752,0,0,0,139.266,322.317Z" transform="translate(-99.676 -219.028)" fill="#8db75c"/>
              <path id="Trazado_145795" data-name="Trazado 145795" d="M143.467,321.089a1.186,1.186,0,0,0,.16.438,1.319,1.319,0,0,0,1.827.368l.014-.009a1.188,1.188,0,0,0,.168.479,1.367,1.367,0,0,0,2.323-1.428,1.194,1.194,0,0,0-.365-.374,1.436,1.436,0,0,0,.355-.157,1.319,1.319,0,0,0,.5-1.8,1.2,1.2,0,0,0-.478-.44c-.017-.034-.035-.069-.055-.1a1.319,1.319,0,0,0-1.827-.368,1.45,1.45,0,0,0-.4.358.944.944,0,0,0-.239-.014.882.882,0,0,0-.669.383.91.91,0,0,0-.167,0,.893.893,0,0,0-.593.283.7.7,0,0,0-.83-.058.681.681,0,0,0-.256.927.606.606,0,0,0,.106.126.782.782,0,0,0-.288.657A.818.818,0,0,0,143.467,321.089Z" transform="translate(-103.839 -218.736)" fill="#8db75c"/>
              <path id="Trazado_145796" data-name="Trazado 145796" d="M152.106,324.976a.813.813,0,0,0,.11.3.9.9,0,0,0,1.25.252l.009-.006a.814.814,0,0,0,.115.328.935.935,0,0,0,1.589-.977.815.815,0,0,0-.25-.256,1.013,1.013,0,0,0,.243-.107.9.9,0,0,0,.34-1.229.821.821,0,0,0-.327-.3c-.012-.024-.024-.047-.038-.07a.9.9,0,0,0-1.25-.252.987.987,0,0,0-.271.245.625.625,0,0,0-.164-.009.6.6,0,0,0-.457.262.653.653,0,0,0-.115,0,.611.611,0,0,0-.406.194.476.476,0,0,0-.568-.04.466.466,0,0,0-.175.634.4.4,0,0,0,.073.086.535.535,0,0,0-.2.45A.56.56,0,0,0,152.106,324.976Z" transform="translate(-108.752 -221.52)" fill="#8db75c"/>
              <path id="Trazado_145797" data-name="Trazado 145797" d="M158.723,326.075a.815.815,0,0,0,.11.3.9.9,0,0,0,1.25.252l.01-.007a.815.815,0,0,0,.115.328.935.935,0,0,0,1.59-.977.821.821,0,0,0-.25-.256.975.975,0,0,0,.243-.107.9.9,0,0,0,.34-1.229.82.82,0,0,0-.327-.3c-.012-.024-.024-.047-.038-.07a.9.9,0,0,0-1.25-.252,1,1,0,0,0-.271.245.643.643,0,0,0-.164-.009.6.6,0,0,0-.457.262.623.623,0,0,0-.52.192.476.476,0,0,0-.568-.04.466.466,0,0,0-.175.634.427.427,0,0,0,.073.087.537.537,0,0,0-.2.449A.56.56,0,0,0,158.723,326.075Z" transform="translate(-112.419 -222.129)" fill="#8db75c"/>
              <path id="Trazado_145798" data-name="Trazado 145798" d="M167.223,329.165a.8.8,0,0,0,.3-.112.9.9,0,0,0,.244-1.251l-.007-.009a.813.813,0,0,0,.327-.117.935.935,0,0,0-.987-1.584.813.813,0,0,0-.254.251.994.994,0,0,0-.109-.242.9.9,0,0,0-1.231-.332.82.82,0,0,0-.3.329c-.024.012-.047.024-.07.038a.9.9,0,0,0-.244,1.251.983.983,0,0,0,.247.269.614.614,0,0,0,.256.62.653.653,0,0,0,0,.115.611.611,0,0,0,.2.4.477.477,0,0,0-.036.568.466.466,0,0,0,.636.171.411.411,0,0,0,.086-.073.537.537,0,0,0,.451.195A.56.56,0,0,0,167.223,329.165Z" transform="translate(-116.027 -223.258)" fill="#8db75c"/>
              <path id="Trazado_145799" data-name="Trazado 145799" d="M173.13,328.728a.583.583,0,0,0-.008-.229.647.647,0,0,0-.794-.45l-.008,0a.578.578,0,0,0,0-.248.669.669,0,0,0-1.3.309.583.583,0,0,0,.112.23.723.723,0,0,0-.189.019.646.646,0,0,0-.505.76.588.588,0,0,0,.155.277c0,.019.006.037.01.056a.645.645,0,0,0,.793.45.707.707,0,0,0,.239-.106.443.443,0,0,0,.109.043.431.431,0,0,0,.37-.076.442.442,0,0,0,.4-.014.341.341,0,0,0,.377.154.334.334,0,0,0,.261-.392.291.291,0,0,0-.03-.075.383.383,0,0,0,.235-.261A.4.4,0,0,0,173.13,328.728Z" transform="translate(-119.173 -224.193)" fill="#8db75c"/>
              <path id="Trazado_145800" data-name="Trazado 145800" d="M177.3,329.361a.489.489,0,0,0-.006-.19.537.537,0,0,0-.659-.374l-.007,0a.475.475,0,0,0,0-.206.556.556,0,0,0-1.079.257.49.49,0,0,0,.094.191.592.592,0,0,0-.157.016.536.536,0,0,0-.42.631.487.487,0,0,0,.129.231.436.436,0,0,0,.008.046.537.537,0,0,0,.659.374.584.584,0,0,0,.2-.088.374.374,0,0,0,.091.036.359.359,0,0,0,.307-.063.384.384,0,0,0,.065.022.366.366,0,0,0,.265-.034.283.283,0,0,0,.313.127.277.277,0,0,0,.217-.325.241.241,0,0,0-.025-.062.317.317,0,0,0,.195-.217A.332.332,0,0,0,177.3,329.361Z" transform="translate(-121.738 -224.674)" fill="#8db75c"/>
              <path id="Trazado_145801" data-name="Trazado 145801" d="M180.924,331.36a.373.373,0,0,0,.141-.025.406.406,0,0,0,.209-.534l0,0a.371.371,0,0,0,.154-.025.42.42,0,0,0-.309-.779.374.374,0,0,0-.133.091.433.433,0,0,0-.029-.115.4.4,0,0,0-.517-.246.365.365,0,0,0-.159.121l-.034.011a.405.405,0,0,0-.208.534.446.446,0,0,0,.087.139.275.275,0,0,0-.017.072.269.269,0,0,0,.08.223.266.266,0,0,0-.01.05.275.275,0,0,0,.054.194.214.214,0,0,0-.062.248.209.209,0,0,0,.267.127.17.17,0,0,0,.044-.025.241.241,0,0,0,.184.122A.251.251,0,0,0,180.924,331.36Z" transform="translate(-124.485 -225.502)" fill="#8db75c"/>
              <path id="Trazado_145802" data-name="Trazado 145802" d="M183.931,331.662a.321.321,0,0,0,.121-.022.349.349,0,0,0,.179-.458l0,0a.319.319,0,0,0,.132-.022.361.361,0,0,0-.266-.669.317.317,0,0,0-.114.078.385.385,0,0,0-.025-.1.349.349,0,0,0-.444-.211.318.318,0,0,0-.136.1l-.029.01a.348.348,0,0,0-.179.458.372.372,0,0,0,.075.119.254.254,0,0,0-.015.062.241.241,0,0,1,.061.235.235.235,0,0,0,.046.167.183.183,0,0,0-.053.213.17.17,0,0,0,.267.087.207.207,0,0,0,.158.1A.216.216,0,0,0,183.931,331.662Z" transform="translate(-126.224 -225.799)" fill="#8db75c"/>
              <path id="Trazado_145803" data-name="Trazado 145803" d="M186.59,331.554a.252.252,0,0,0,.044-.087.276.276,0,0,0-.206-.332h0a.245.245,0,0,0,.049-.094.286.286,0,0,0-.551-.15.246.246,0,0,0,0,.109.292.292,0,0,0-.075-.032.276.276,0,0,0-.345.181.252.252,0,0,0,0,.136.149.149,0,0,0-.008.023.276.276,0,0,0,.205.332.307.307,0,0,0,.111.009.171.171,0,0,0,.032.038.185.185,0,0,0,.154.047.162.162,0,0,0,.024.026.186.186,0,0,0,.128.05.145.145,0,0,0,.11.135.143.143,0,0,0,.178-.094.126.126,0,0,0,0-.034.164.164,0,0,0,.142-.05A.171.171,0,0,0,186.59,331.554Z" transform="translate(-127.521 -226.057)" fill="#8db75c"/>
              <path id="Trazado_145804" data-name="Trazado 145804" d="M175.543,303.779a1.09,1.09,0,0,0,.131-.409,1.213,1.213,0,0,0-1.118-1.3h-.016a1.1,1.1,0,0,0,.149-.443,1.257,1.257,0,0,0-2.492-.275,1.1,1.1,0,0,0,.054.477,1.328,1.328,0,0,0-.346-.086,1.213,1.213,0,0,0-1.374,1.023,1.1,1.1,0,0,0,.1.589c-.007.035-.013.07-.017.105a1.129,1.129,0,0,0,.336.92l4.8.1A.778.778,0,0,0,175.543,303.779Z" transform="translate(-119.231 -209.223)" fill="#7ea54a"/>
              <path id="Trazado_145805" data-name="Trazado 145805" d="M86.741,244.206s2.394-.7,3.3.908A2.671,2.671,0,0,1,92.4,244" transform="translate(-72.798 -178.01)" fill="none" stroke="#4c4c4c" stroke-miterlimit="10" stroke-width="0.139"/>
              <path id="Trazado_145806" data-name="Trazado 145806" d="M176.074,197.373s2.394-.7,3.3.908a2.671,2.671,0,0,1,2.353-1.115" transform="translate(-122.306 -152.055)" fill="none" stroke="#4c4c4c" stroke-miterlimit="10" stroke-width="0.139"/>
              <path id="Trazado_145807" data-name="Trazado 145807" d="M184.37,201.163s1.346-.395,1.856.51a1.5,1.5,0,0,1,1.322-.627" transform="translate(-126.904 -154.206)" fill="none" stroke="#4c4c4c" stroke-miterlimit="10" stroke-width="0.078"/>
              <path id="Trazado_145808" data-name="Trazado 145808" d="M163,251.878s1.346-.395,1.856.51a1.5,1.5,0,0,1,1.322-.626" transform="translate(-115.062 -182.312)" fill="none" stroke="#4c4c4c" stroke-miterlimit="10" stroke-width="0.078"/>
              <g id="Grupo_126688" data-name="Grupo 126688" transform="translate(8.597 12.04)" opacity="0.54">
                <path id="Trazado_145809" data-name="Trazado 145809" d="M125.5,145.283c0-.106.03-.2.041-.307h0C125.533,145.08,125.508,145.177,125.5,145.283Z" transform="translate(-102.877 -135.172)" fill="#2ec4e8"/>
                <path id="Trazado_145810" data-name="Trazado 145810" d="M146.166,144.976h-.012c0,.137.023.267.016.408C146.17,145.4,146.167,144.976,146.166,144.976Z" transform="translate(-114.321 -135.172)" fill="#2ec4e8"/>
                <path id="Trazado_145811" data-name="Trazado 145811" d="M101.892,128.085h0c-.306-2.735-2.243-5.095-4.707-5.1a5.13,5.13,0,0,0-5.13,4.156c-.146-.024-3.813-.681-4.625,2.32a1.107,1.107,0,0,1-.065.318,4.1,4.1,0,0,0-1.055-.214,4.142,4.142,0,0,0-2.885.485c-.051-.113.044-.043,0,0a4.951,4.951,0,0,0-3.807-2.174c-2.547-.165-4.725,1.871-4.864,4.826,0,.064,0,.087-.005.1,0-.006,0-.012,0-.012H90.43c.013.033-.068-.019-.056.012l3.928.091h3.031c0-.007,0-.013,0-.021h8.9A4.644,4.644,0,0,0,101.892,128.085Z" transform="translate(-74.749 -122.984)" fill="#2ec4e8"/>
              </g>
              <g id="Grupo_126689" data-name="Grupo 126689" transform="translate(20.41 15.83)" opacity="0.54">
                <path id="Trazado_145812" data-name="Trazado 145812" d="M152,153.783c0-.106.03-.2.041-.307h0C152.033,153.58,152.008,153.678,152,153.783Z" transform="translate(-129.377 -143.672)" fill="#2ec4e8"/>
                <path id="Trazado_145813" data-name="Trazado 145813" d="M172.666,153.476h-.012c0,.137.023.267.016.408C172.67,153.9,172.667,153.476,172.666,153.476Z" transform="translate(-140.821 -143.672)" fill="#2ec4e8"/>
                <path id="Trazado_145814" data-name="Trazado 145814" d="M128.392,136.585h0c-.306-2.735-2.243-5.095-4.707-5.1a5.13,5.13,0,0,0-5.13,4.156c-.146-.024-3.813-.681-4.625,2.32a1.105,1.105,0,0,1-.065.318,5.506,5.506,0,0,0-3.94.271c-.051-.113.044-.043,0,0a4.951,4.951,0,0,0-3.807-2.174c-2.547-.165-4.725,1.871-4.864,4.826,0,.064,0,.087-.005.1,0-.006,0-.012,0-.012H116.93c.013.033-.068-.019-.056.012l3.928.091h3.031c0-.007,0-.013,0-.021h8.9A4.644,4.644,0,0,0,128.392,136.585Z" transform="translate(-101.249 -131.484)" fill="#2ec4e8"/>
              </g>
              <g id="Grupo_126690" data-name="Grupo 126690" transform="translate(44.101)" opacity="0.54">
                <path id="Trazado_145815" data-name="Trazado 145815" d="M175.03,96.283c0-.106-.03-.2-.04-.307h0C175,96.08,175.025,96.178,175.03,96.283Z" transform="translate(-165.806 -95.976)" fill="#f4f4f4"/>
                <path id="Trazado_145816" data-name="Trazado 145816" d="M154.395,95.976h.012c0,.137-.023.267-.016.408C154.391,96.4,154.394,95.976,154.395,95.976Z" transform="translate(-154.389 -95.976)" fill="#f4f4f4"/>
              </g>
              <g id="Grupo_126691" data-name="Grupo 126691" transform="translate(61.859 26.681)" opacity="0.54">
                <path id="Trazado_145817" data-name="Trazado 145817" d="M198.3,160.23c0-.021-.006-.04-.008-.061h0C198.293,160.189,198.3,160.209,198.3,160.23Z" transform="translate(-196.477 -158.232)" fill="#2ec4e8"/>
                <path id="Trazado_145818" data-name="Trazado 145818" d="M194.224,160.169h0c0,.027,0,.053,0,.081C194.223,160.253,194.224,160.169,194.224,160.169Z" transform="translate(-194.222 -158.232)" fill="#2ec4e8"/>
                <path id="Trazado_145819" data-name="Trazado 145819" d="M195.242,156.833h0a1.048,1.048,0,0,1,.93-1.008,1.014,1.014,0,0,1,1.013.821c.029,0,.753-.135.913.458a.22.22,0,0,0,.012.063,1.1,1.1,0,0,1,.778.053c.01-.022-.008-.008,0,0a.979.979,0,0,1,.752-.429.934.934,0,0,1,.961.954v.017h-3.1c0,.007.013,0,.011,0l-.776.018h-.6v0h-1.757A.918.918,0,0,1,195.242,156.833Z" transform="translate(-194.312 -155.825)" fill="#2ec4e8"/>
              </g>
              <g id="Grupo_126692" data-name="Grupo 126692" transform="translate(0 39.012)" opacity="0.54">
                <path id="Trazado_145820" data-name="Trazado 145820" d="M71.151,200.429c0-.08-.023-.154-.031-.233h0C71.128,200.275,71.147,200.349,71.151,200.429Z" transform="translate(-64.141 -192.746)" fill="#2ec4e8"/>
                <path id="Trazado_145821" data-name="Trazado 145821" d="M55.47,200.2h.009c0,.1-.017.2-.012.31C55.468,200.518,55.469,200.2,55.47,200.2Z" transform="translate(-55.466 -192.746)" fill="#2ec4e8"/>
                <path id="Trazado_145822" data-name="Trazado 145822" d="M59.389,187.361h0c.233-2.078,1.7-3.871,3.577-3.877a3.9,3.9,0,0,1,3.9,3.159c.111-.018,2.9-.518,3.515,1.763a.833.833,0,0,0,.049.242,4.183,4.183,0,0,1,2.994.206c.038-.086-.033-.033,0,0a3.759,3.759,0,0,1,2.893-1.652,3.592,3.592,0,0,1,3.7,3.667c0,.048,0,.066,0,.075s0-.009,0-.009H68.1c-.01.025.051-.015.043.009l-2.986.069h-2.3c0-.005,0-.01,0-.016H56.089A3.528,3.528,0,0,1,59.389,187.361Z" transform="translate(-55.811 -183.484)" fill="#2ec4e8"/>
              </g>
            </g>
          </g>
        </g>
        <g id="Grupo_126716" data-name="Grupo 126716" transform="translate(141.596 94.87)">
          <path id="Trazado_145823" data-name="Trazado 145823" d="M249.521,336.236l-.854,1.189.594.929s41.794,1.133,51.658-3.6l-50.432.706Z" transform="translate(-248.667 -227.81)" fill="#8db75c"/>
          <path id="Trazado_145824" data-name="Trazado 145824" d="M280,194.7V129.17h10.7V116.241h4.9V110h7.579v6.241h4.012V129.17H317V142.1h7.579V194.7Z" transform="translate(-266.032 -103.255)" fill="#8170aa" opacity="0.32" style="mix-blend-mode: multiply;isolation: isolate"/>
          <path id="Trazado_145825" data-name="Trazado 145825" d="M261.532,211.2c.353.391.6-78.2.6-78.2h8.071v17.386h8.025v-3.121h8.916v-5.8h4.9v64.787S261.058,210.671,261.532,211.2Z" transform="translate(-255.794 -116.001)" fill="#8170aa" opacity="0.32" style="mix-blend-mode: multiply;isolation: isolate"/>
          <path id="Trazado_145826" data-name="Trazado 145826" d="M336,211.679V153.855h5.8v5.8h9.362V143.28L362.3,154.224v54.719Z" transform="translate(-297.066 -121.699)" fill="#aea6cf" opacity="0.32" style="mix-blend-mode: multiply;isolation: isolate"/>
          <path id="Trazado_145827" data-name="Trazado 145827" d="M396.6,242.187V192.732h-3.121v-3.169l-9.362-3.482v6.578L381,192.53v50.431Z" transform="translate(-322.005 -145.418)" fill="#8170aa" opacity="0.32" style="mix-blend-mode: multiply;isolation: isolate"/>
          <g id="Grupo_126696" data-name="Grupo 126696" transform="translate(5.944 73.616)">
            <path id="Trazado_145828" data-name="Trazado 145828" d="M293.636,260l-18.954,2.364L273,260.985v12.389h32.361L305.568,260ZM277.9,268.916h-1.783v-1.783H277.9Zm0-3.566h-1.783v-2.675H277.9Zm4.012,3.566h-1.783v-1.783h1.783Zm0-3.566h-1.783v-2.675h1.783Zm3.566,3.566h-2.229v-1.783h2.229Zm0-3.566h-2.229v-2.675h2.229Zm3.566,3.566h-1.783v-1.783h1.783Zm0-3.566h-1.783v-2.675h1.783Zm4.012,3.566h-3.121v-1.783h3.121Zm0-3.566h-3.121v-2.675h3.121Zm3.566,3.566h-2.675v-1.783h2.675Zm0-3.566h-2.675v-2.675h2.675Zm2.675,3.566h-1.783v-1.783H299.3Zm0-3.566h-1.783v-2.675H299.3Zm4.012,3.566h-2.229v-1.783h2.229Zm0-3.566h-2.229v-2.675h2.229Z" transform="translate(-268.096 -260)" fill="#dad9d9"/>
            <path id="Trazado_145829" data-name="Trazado 145829" d="M273,260.985l1.682,1.379L293.636,260H273Z" transform="translate(-268.096 -260)" fill="#dad9d9"/>
            <rect id="Rectángulo_34535" data-name="Rectángulo 34535" width="1.783" height="2.675" transform="translate(8.025 2.675)" fill="#bebdbc"/>
            <rect id="Rectángulo_34536" data-name="Rectángulo 34536" width="1.783" height="2.675" transform="translate(12.037 2.675)" fill="#bebdbc"/>
            <rect id="Rectángulo_34537" data-name="Rectángulo 34537" width="2.229" height="2.675" transform="translate(15.157 2.675)" fill="#bebdbc"/>
            <rect id="Rectángulo_34538" data-name="Rectángulo 34538" width="1.783" height="2.675" transform="translate(19.17 2.675)" fill="#bebdbc"/>
            <rect id="Rectángulo_34539" data-name="Rectángulo 34539" width="3.121" height="2.675" transform="translate(21.845 2.675)" fill="#bebdbc"/>
            <rect id="Rectángulo_34540" data-name="Rectángulo 34540" width="2.675" height="2.675" transform="translate(25.857 2.675)" fill="#bebdbc"/>
            <rect id="Rectángulo_34541" data-name="Rectángulo 34541" width="1.783" height="2.675" transform="translate(29.423 2.675)" fill="#bebdbc"/>
            <rect id="Rectángulo_34542" data-name="Rectángulo 34542" width="2.229" height="2.675" transform="translate(32.99 2.675)" fill="#bebdbc"/>
            <rect id="Rectángulo_34543" data-name="Rectángulo 34543" width="1.783" height="1.783" transform="translate(8.025 7.133)" fill="#bebdbc"/>
            <rect id="Rectángulo_34544" data-name="Rectángulo 34544" width="1.783" height="1.783" transform="translate(12.037 7.133)" fill="#bebdbc"/>
            <rect id="Rectángulo_34545" data-name="Rectángulo 34545" width="2.229" height="1.783" transform="translate(15.157 7.133)" fill="#bebdbc"/>
            <rect id="Rectángulo_34546" data-name="Rectángulo 34546" width="1.783" height="1.783" transform="translate(19.17 7.133)" fill="#bebdbc"/>
            <rect id="Rectángulo_34547" data-name="Rectángulo 34547" width="3.121" height="1.783" transform="translate(21.845 7.133)" fill="#bebdbc"/>
            <rect id="Rectángulo_34548" data-name="Rectángulo 34548" width="2.675" height="1.783" transform="translate(25.857 7.133)" fill="#bebdbc"/>
            <rect id="Rectángulo_34549" data-name="Rectángulo 34549" width="1.783" height="1.783" transform="translate(29.423 7.133)" fill="#bebdbc"/>
            <rect id="Rectángulo_34550" data-name="Rectángulo 34550" width="2.229" height="1.783" transform="translate(32.99 7.133)" fill="#bebdbc"/>
            <path id="Trazado_145830" data-name="Trazado 145830" d="M265.57,260H262v13.374h4.9V260.985Z" transform="translate(-262 -260)" fill="#bebdbc"/>
            <path id="Trazado_145831" data-name="Trazado 145831" d="M270.009,260l1.333.985V260Z" transform="translate(-266.438 -260)" fill="#bebdbc"/>
          </g>
          <rect id="Rectángulo_34551" data-name="Rectángulo 34551" width="2.229" height="4.458" transform="translate(11.739 81.641)" fill="#dfdede"/>
          <rect id="Rectángulo_34552" data-name="Rectángulo 34552" width="2.229" height="4.904" transform="translate(11.739 70.495)" fill="#dfdede"/>
          <path id="Trazado_145832" data-name="Trazado 145832" d="M261.145,299.024H250v3.566h13.374V291h-2.229Z" transform="translate(-249.406 -203.564)" fill="#dfdede"/>
          <rect id="Rectángulo_34553" data-name="Rectángulo 34553" width="2.229" height="4.458" transform="translate(11.739 76.291)" fill="#dfdede"/>
          <rect id="Rectángulo_34554" data-name="Rectángulo 34554" width="2.229" height="4.458" transform="translate(11.739 64.7)" fill="#dfdede"/>
          <rect id="Rectángulo_34555" data-name="Rectángulo 34555" width="2.229" height="4.904" transform="translate(11.739 48.205)" fill="#dfdede"/>
          <path id="Trazado_145833" data-name="Trazado 145833" d="M250,180v1.783h11.145v2.229h2.229V180Z" transform="translate(-249.406 -142.049)" fill="#dfdede"/>
          <rect id="Rectángulo_34556" data-name="Rectángulo 34556" width="2.229" height="4.012" transform="translate(11.739 43.301)" fill="#dfdede"/>
          <rect id="Rectángulo_34557" data-name="Rectángulo 34557" width="2.229" height="4.458" transform="translate(11.739 59.35)" fill="#dfdede"/>
          <rect id="Rectángulo_34558" data-name="Rectángulo 34558" width="2.229" height="4.458" transform="translate(11.739 54.001)" fill="#dfdede"/>
          <rect id="Rectángulo_34559" data-name="Rectángulo 34559" width="11.145" height="4.012" transform="translate(0.594 43.301)" fill="#8ab1b8"/>
          <rect id="Rectángulo_34560" data-name="Rectángulo 34560" width="11.145" height="2.229" transform="translate(0.594 39.735)" fill="#8ab1b8"/>
          <rect id="Rectángulo_34561" data-name="Rectángulo 34561" width="11.145" height="4.904" transform="translate(0.594 48.205)" fill="#8ab1b8"/>
          <rect id="Rectángulo_34562" data-name="Rectángulo 34562" width="11.145" height="8.025" transform="translate(0.594 87.436)" fill="#8ab1b8"/>
          <rect id="Rectángulo_34563" data-name="Rectángulo 34563" width="11.145" height="4.458" transform="translate(0.594 81.641)" fill="#8ab1b8"/>
          <rect id="Rectángulo_34564" data-name="Rectángulo 34564" width="11.145" height="4.458" transform="translate(0.594 54.001)" fill="#8ab1b8"/>
          <rect id="Rectángulo_34565" data-name="Rectángulo 34565" width="11.145" height="4.458" transform="translate(0.594 76.291)" fill="#8ab1b8"/>
          <rect id="Rectángulo_34566" data-name="Rectángulo 34566" width="11.145" height="4.458" transform="translate(0.594 59.35)" fill="#8ab1b8"/>
          <rect id="Rectángulo_34567" data-name="Rectángulo 34567" width="11.145" height="4.458" transform="translate(0.594 64.7)" fill="#8ab1b8"/>
          <rect id="Rectángulo_34568" data-name="Rectángulo 34568" width="11.145" height="4.904" transform="translate(0.594 70.495)" fill="#8ab1b8"/>
          <path id="Trazado_145834" data-name="Trazado 145834" d="M263.374,175.337v1.337h1.337V174H250v1.337Z" transform="translate(-249.406 -138.723)" fill="#928a88"/>
          <rect id="Rectángulo_34569" data-name="Rectángulo 34569" width="13.374" height="1.337" transform="translate(0.594 36.614)" fill="#928a88"/>
          <rect id="Rectángulo_34570" data-name="Rectángulo 34570" width="0.892" height="1.337" transform="translate(13.968 41.964)" fill="#928a88"/>
          <rect id="Rectángulo_34571" data-name="Rectángulo 34571" width="2.229" height="1.337" transform="translate(11.739 41.964)" fill="#928a88"/>
          <rect id="Rectángulo_34572" data-name="Rectángulo 34572" width="11.145" height="1.337" transform="translate(0.594 41.964)" fill="#928a88"/>
          <rect id="Rectángulo_34573" data-name="Rectángulo 34573" width="0.892" height="0.892" transform="translate(14.152 47.313)" fill="#928a88"/>
          <rect id="Rectángulo_34574" data-name="Rectángulo 34574" width="2.229" height="0.892" transform="translate(11.739 47.313)" fill="#928a88"/>
          <rect id="Rectángulo_34575" data-name="Rectángulo 34575" width="11.145" height="0.892" transform="translate(0.594 47.313)" fill="#928a88"/>
          <rect id="Rectángulo_34576" data-name="Rectángulo 34576" width="0.892" height="0.892" transform="translate(14.152 53.109)" fill="#928a88"/>
          <rect id="Rectángulo_34577" data-name="Rectángulo 34577" width="2.229" height="0.892" transform="translate(11.739 53.109)" fill="#928a88"/>
          <rect id="Rectángulo_34578" data-name="Rectángulo 34578" width="11.145" height="0.892" transform="translate(0.594 53.109)" fill="#928a88"/>
          <rect id="Rectángulo_34579" data-name="Rectángulo 34579" width="0.892" height="0.892" transform="translate(14.152 58.459)" fill="#928a88"/>
          <rect id="Rectángulo_34580" data-name="Rectángulo 34580" width="2.229" height="0.892" transform="translate(11.739 58.459)" fill="#928a88"/>
          <rect id="Rectángulo_34581" data-name="Rectángulo 34581" width="11.145" height="0.892" transform="translate(0.594 58.459)" fill="#928a88"/>
          <rect id="Rectángulo_34582" data-name="Rectángulo 34582" width="0.892" height="0.892" transform="translate(14.152 63.808)" fill="#928a88"/>
          <rect id="Rectángulo_34583" data-name="Rectángulo 34583" width="2.229" height="0.892" transform="translate(11.739 63.808)" fill="#928a88"/>
          <rect id="Rectángulo_34584" data-name="Rectángulo 34584" width="11.145" height="0.892" transform="translate(0.594 63.808)" fill="#928a88"/>
          <rect id="Rectángulo_34585" data-name="Rectángulo 34585" width="0.892" height="1.337" transform="translate(13.968 69.158)" fill="#928a88"/>
          <rect id="Rectángulo_34586" data-name="Rectángulo 34586" width="2.229" height="1.337" transform="translate(11.739 69.158)" fill="#928a88"/>
          <rect id="Rectángulo_34587" data-name="Rectángulo 34587" width="11.145" height="1.337" transform="translate(0.594 69.158)" fill="#928a88"/>
          <rect id="Rectángulo_34588" data-name="Rectángulo 34588" width="0.892" height="0.892" transform="translate(14.152 75.399)" fill="#928a88"/>
          <rect id="Rectángulo_34589" data-name="Rectángulo 34589" width="2.229" height="0.892" transform="translate(11.739 75.399)" fill="#928a88"/>
          <rect id="Rectángulo_34590" data-name="Rectángulo 34590" width="11.145" height="0.892" transform="translate(0.594 75.399)" fill="#928a88"/>
          <rect id="Rectángulo_34591" data-name="Rectángulo 34591" width="0.892" height="0.892" transform="translate(14.152 80.749)" fill="#928a88"/>
          <rect id="Rectángulo_34592" data-name="Rectángulo 34592" width="2.229" height="0.892" transform="translate(11.739 80.749)" fill="#928a88"/>
          <rect id="Rectángulo_34593" data-name="Rectángulo 34593" width="11.145" height="0.892" transform="translate(0.594 80.749)" fill="#928a88"/>
          <rect id="Rectángulo_34594" data-name="Rectángulo 34594" width="0.892" height="1.337" transform="translate(13.968 86.099)" fill="#928a88"/>
          <rect id="Rectángulo_34595" data-name="Rectángulo 34595" width="2.229" height="1.337" transform="translate(11.739 86.099)" fill="#928a88"/>
          <rect id="Rectángulo_34596" data-name="Rectángulo 34596" width="11.145" height="1.337" transform="translate(0.594 86.099)" fill="#928a88"/>
          <g id="Grupo_126697" data-name="Grupo 126697" transform="translate(14.68 19.38)" opacity="0.73" style="mix-blend-mode: multiply;isolation: isolate">
            <path id="Trazado_145835" data-name="Trazado 145835" d="M304.188,195.4a5.87,5.87,0,0,0-5.8-5.936c-.154,0-.3.011-.456.023a5.4,5.4,0,0,0-1.283-2.778c.034,0,.066.008.1.008,2.593,0,4.7-1.706,4.7-3.81a3.931,3.931,0,0,0-3.052-3.557,3.3,3.3,0,0,0,.394-1.538,3.728,3.728,0,0,0-7.442,0,3.439,3.439,0,0,0,1.6,2.873,3.331,3.331,0,0,0-.895,2.221,3.2,3.2,0,0,0,.486,1.657,7.038,7.038,0,0,0-.884-.062,6.24,6.24,0,0,0-6.145,4.348,4.585,4.585,0,0,0,.564,9.119c.056,0,.108-.015.163-.017a3.79,3.79,0,0,0,3.425,2.32,3.556,3.556,0,0,0,1.22-.233,4.231,4.231,0,0,0,2.457,1.71,4.228,4.228,0,0,0-.045.472,3.97,3.97,0,0,0,3.854,4.076,3.886,3.886,0,0,0,3.7-3,5.284,5.284,0,0,0,3.786-4.886,4.738,4.738,0,0,0-.513-2.135A6.133,6.133,0,0,0,304.188,195.4Z" transform="translate(-281.596 -158.277)" fill="#8d86ad"/>
            <path id="Trazado_145836" data-name="Trazado 145836" d="M319.687,156.365a3.25,3.25,0,0,0-1.095.2,3.24,3.24,0,0,0-2.759-1.526,3.146,3.146,0,1,0,0,6.29,3.281,3.281,0,0,0,1.368-.3,3.151,3.151,0,0,0,2.486,1.191,2.929,2.929,0,1,0,0-5.847Z" transform="translate(-298.778 -147.594)" fill="#8d86ad"/>
            <path id="Trazado_145837" data-name="Trazado 145837" d="M306.908,142.683a2.172,2.172,0,1,0-2.259-2.171A2.216,2.216,0,0,0,306.908,142.683Z" transform="translate(-294.372 -138.342)" fill="#8d86ad"/>
            <path id="Trazado_145838" data-name="Trazado 145838" d="M351.049,155.234a2.173,2.173,0,1,0,2.082,2.171A2.128,2.128,0,0,0,351.049,155.234Z" transform="translate(-318.933 -147.703)" fill="#8d86ad"/>
          </g>
          <path id="Trazado_145839" data-name="Trazado 145839" d="M306.027,242l-1.653,30.761h3.43L308.844,242Z" transform="translate(-279.539 -176.409)" fill="#b8acaa"/>
          <path id="Trazado_145840" data-name="Trazado 145840" d="M317.452,242h-4.344l-1.041,30.761h7.589Z" transform="translate(-283.803 -176.409)" fill="#cec2c2"/>
          <g id="Grupo_126698" data-name="Grupo 126698" transform="translate(20.813)" opacity="0.73" style="mix-blend-mode: multiply;isolation: isolate">
            <path id="Trazado_145841" data-name="Trazado 145841" d="M327.676,167.24a7.446,7.446,0,0,1,7.36-7.529c.2,0,.387.015.579.03a6.849,6.849,0,0,1,1.628-3.524c-.043,0-.084.01-.127.01-3.29,0-5.956-2.163-5.956-4.832,0-2.071,1.614-3.824,3.87-4.511a4.185,4.185,0,0,1-.5-1.95,4.729,4.729,0,0,1,9.439,0,4.362,4.362,0,0,1-2.034,3.644,4.224,4.224,0,0,1,1.135,2.817,4.07,4.07,0,0,1-.615,2.1,8.919,8.919,0,0,1,1.121-.079,7.915,7.915,0,0,1,7.794,5.515,5.815,5.815,0,0,1-.715,11.566c-.071,0-.137-.019-.207-.021a4.807,4.807,0,0,1-4.344,2.943,4.5,4.5,0,0,1-1.547-.3,5.364,5.364,0,0,1-3.117,2.17,5.392,5.392,0,0,1,.057.6,5.035,5.035,0,0,1-4.888,5.169,4.928,4.928,0,0,1-4.694-3.8,6.7,6.7,0,0,1-4.8-6.2,6.013,6.013,0,0,1,.651-2.708A7.692,7.692,0,0,1,327.676,167.24Z" transform="translate(-312.955 -120.155)" fill="#8d86ad"/>
            <path id="Trazado_145842" data-name="Trazado 145842" d="M328.274,117.73a4.115,4.115,0,0,1,1.389.25,4.108,4.108,0,0,1,3.5-1.935,3.991,3.991,0,1,1,0,7.979,4.159,4.159,0,0,1-1.736-.387,4,4,0,0,1-3.153,1.511,3.715,3.715,0,1,1,0-7.417Z" transform="translate(-311.418 -106.604)" fill="#8d86ad"/>
            <path id="Trazado_145843" data-name="Trazado 145843" d="M353.423,100.376a2.755,2.755,0,1,1,2.866-2.753A2.811,2.811,0,0,1,353.423,100.376Z" transform="translate(-325.947 -94.87)" fill="#8d86ad"/>
            <path id="Trazado_145844" data-name="Trazado 145844" d="M297.993,116.3a2.755,2.755,0,1,1-2.64,2.753A2.7,2.7,0,0,1,297.993,116.3Z" transform="translate(-295.353 -106.744)" fill="#8d86ad"/>
          </g>
          <path id="Trazado_145845" data-name="Trazado 145845" d="M350.777,224l2.1,38.339h-4.35L347.2,224Z" transform="translate(-303.275 -166.433)" fill="#b8acaa"/>
          <path id="Trazado_145846" data-name="Trazado 145846" d="M331.369,224h5.51l1.32,38.339h-9.625Z" transform="translate(-292.951 -166.433)" fill="#cec2c2"/>
          <g id="Grupo_126699" data-name="Grupo 126699" transform="translate(0.111 66.891)">
            <path id="Trazado_145847" data-name="Trazado 145847" d="M248.917,286.728c47.279,2.814,75.5-3.776,76.422-17.448.609-9.02-12.623-18.163-32.964-24.366l-.034,3.4c9.03,4.407,14.361,9.654,14.011,14.849-.731,10.818-26.244,18.15-56.952,15.778" transform="translate(-248.917 -244.914)" fill="#b2b2b2"/>
            <path id="Trazado_145848" data-name="Trazado 145848" d="M251,290.964c5.557.46,15.409,1,21.828.9,41.991-.627,54.74-12.977,44.714-23.164a45.946,45.946,0,0,0-14-9.81" transform="translate(-250.071 -252.661)" fill="none" stroke="#f1f1f1" stroke-miterlimit="10" stroke-width="0.728"/>
            <path id="Trazado_145849" data-name="Trazado 145849" d="M253.3,328.688l.192-2.848,1.2.109-.192,2.848Z" transform="translate(-251.348 -289.763)" fill="#b2b2b2"/>
            <path id="Trazado_145850" data-name="Trazado 145850" d="M260.553,329.223l.192-2.848,1.2.109-.192,2.848Z" transform="translate(-255.365 -290.059)" fill="#b2b2b2"/>
            <path id="Trazado_145851" data-name="Trazado 145851" d="M268.677,329.591l.192-2.848,1.2.109-.192,2.848Z" transform="translate(-259.868 -290.263)" fill="#b2b2b2"/>
            <path id="Trazado_145852" data-name="Trazado 145852" d="M287.934,331.031l.192-2.848,1.2.109-.192,2.848Z" transform="translate(-270.54 -291.061)" fill="#b2b2b2"/>
            <path id="Trazado_145853" data-name="Trazado 145853" d="M280.1,331.364l.192-2.848,1.2.109-.192,2.848Z" transform="translate(-266.199 -291.246)" fill="#b2b2b2"/>
            <path id="Trazado_145854" data-name="Trazado 145854" d="M274.434,331.531l.192-2.848,1.2.109-.192,2.848Z" transform="translate(-263.059 -291.338)" fill="#b2b2b2"/>
            <path id="Trazado_145855" data-name="Trazado 145855" d="M294.856,331.853l.192-2.763,1.2.106-.192,2.763Z" transform="translate(-274.376 -291.563)" fill="#b2b2b2"/>
            <path id="Trazado_145856" data-name="Trazado 145856" d="M304.034,332.021l-.751-2.693,1.164-.283.751,2.693Z" transform="translate(-279.046 -291.539)" fill="#b2b2b2"/>
            <path id="Trazado_145857" data-name="Trazado 145857" d="M312.077,331.771l-.751-2.693,1.164-.283.751,2.693Z" transform="translate(-283.504 -291.4)" fill="#b2b2b2"/>
            <path id="Trazado_145858" data-name="Trazado 145858" d="M320.081,330.318l-.751-2.693,1.164-.283.751,2.693Z" transform="translate(-287.94 -290.595)" fill="#b2b2b2"/>
            <path id="Trazado_145859" data-name="Trazado 145859" d="M328.853,330.252l-.751-2.693,1.164-.283.751,2.693Z" transform="translate(-292.801 -290.559)" fill="#b2b2b2"/>
            <path id="Trazado_145860" data-name="Trazado 145860" d="M337.764,329.959l-.751-2.693,1.164-.283.751,2.693Z" transform="translate(-297.739 -290.396)" fill="#b2b2b2"/>
            <path id="Trazado_145861" data-name="Trazado 145861" d="M345.556,328.008l-.751-2.693,1.164-.283.751,2.693Z" transform="translate(-302.057 -289.315)" fill="#b2b2b2"/>
            <path id="Trazado_145862" data-name="Trazado 145862" d="M353.534,326.913l-.751-2.693,1.164-.283.751,2.693Z" transform="translate(-306.479 -288.708)" fill="#b2b2b2"/>
            <path id="Trazado_145863" data-name="Trazado 145863" d="M360.819,325.156l-.751-2.693,1.164-.283.751,2.693Z" transform="translate(-310.516 -287.735)" fill="#b2b2b2"/>
            <path id="Trazado_145864" data-name="Trazado 145864" d="M368.471,323.433l-.751-2.693,1.164-.283.751,2.693Z" transform="translate(-314.757 -286.779)" fill="#b2b2b2"/>
            <path id="Trazado_145865" data-name="Trazado 145865" d="M376.043,321.351l-2.189-1.827.773-.884,2.189,1.827Z" transform="translate(-318.156 -285.773)" fill="#b2b2b2"/>
            <path id="Trazado_145866" data-name="Trazado 145866" d="M383.762,318.674l-2.19-1.827.773-.884,2.189,1.827Z" transform="translate(-322.434 -284.289)" fill="#b2b2b2"/>
            <path id="Trazado_145867" data-name="Trazado 145867" d="M390.409,315.422l-2.19-1.826.773-.884,2.189,1.827Z" transform="translate(-326.118 -282.487)" fill="#b2b2b2"/>
            <path id="Trazado_145868" data-name="Trazado 145868" d="M396.861,311.433l-2.19-1.826.773-.884,2.19,1.826Z" transform="translate(-329.693 -280.277)" fill="#b2b2b2"/>
            <path id="Trazado_145869" data-name="Trazado 145869" d="M402.459,306.363l-2.8-.57.22-1.149,2.8.57Z" transform="translate(-332.455 -278.016)" fill="#b2b2b2"/>
            <path id="Trazado_145870" data-name="Trazado 145870" d="M406.04,301.041l-2.8-.57.22-1.149,2.8.57Z" transform="translate(-334.44 -275.067)" fill="#b2b2b2"/>
            <path id="Trazado_145871" data-name="Trazado 145871" d="M407.2,293.337l-2.673.906-.42-1.11,2.673-.906Z" transform="translate(-334.924 -271.134)" fill="#b2b2b2"/>
            <path id="Trazado_145872" data-name="Trazado 145872" d="M405.574,286.6l-2.673.906-.42-1.11,2.673-.906Z" transform="translate(-334.021 -267.399)" fill="#b2b2b2"/>
            <path id="Trazado_145873" data-name="Trazado 145873" d="M401.89,280.28l-2.148,1.777-.794-.9,2.148-1.777Z" transform="translate(-332.064 -264.014)" fill="#b2b2b2"/>
            <path id="Trazado_145874" data-name="Trazado 145874" d="M397.378,275.924,395.23,277.7l-.794-.9,2.148-1.777Z" transform="translate(-329.563 -261.6)" fill="#b2b2b2"/>
            <path id="Trazado_145875" data-name="Trazado 145875" d="M393.571,272.241l-2.148,1.777-.794-.9,2.148-1.777Z" transform="translate(-327.454 -259.559)" fill="#b2b2b2"/>
            <path id="Trazado_145876" data-name="Trazado 145876" d="M389.074,269.445l-2.148,1.777-.794-.9,2.148-1.777Z" transform="translate(-324.961 -258.009)" fill="#b2b2b2"/>
            <path id="Trazado_145877" data-name="Trazado 145877" d="M385.1,266.216l-2.148,1.777-.794-.9,2.148-1.777Z" transform="translate(-322.759 -256.22)" fill="#b2b2b2"/>
            <path id="Trazado_145878" data-name="Trazado 145878" d="M380.329,262.564l-1.039,2.56-1.124-.453,1.039-2.56Z" transform="translate(-320.546 -254.445)" fill="#b2b2b2"/>
            <path id="Trazado_145879" data-name="Trazado 145879" d="M379.846,262.4l-1.039,2.56-1.124-.453,1.039-2.56Z" transform="translate(-320.279 -254.355)" fill="#b2b2b2"/>
            <path id="Trazado_145880" data-name="Trazado 145880" d="M375.619,259.27l-1.039,2.56-1.123-.453,1.039-2.56Z" transform="translate(-317.936 -252.619)" fill="#b2b2b2"/>
            <path id="Trazado_145881" data-name="Trazado 145881" d="M371.35,256.735l-1.039,2.56-1.124-.453,1.039-2.56Z" transform="translate(-315.57 -251.214)" fill="#b2b2b2"/>
            <path id="Trazado_145882" data-name="Trazado 145882" d="M366.467,254.145l-1.039,2.56-1.124-.453,1.039-2.56Z" transform="translate(-312.864 -249.779)" fill="#b2b2b2"/>
          </g>
          <g id="Grupo_126700" data-name="Grupo 126700" transform="translate(58.752 69.131)">
            <rect id="Rectángulo_34597" data-name="Rectángulo 34597" width="9.37" height="26.549" rx="4.685" fill="#928a88"/>
            <path id="Trazado_145883" data-name="Trazado 145883" d="M397.256,259.6h-4.1a.489.489,0,0,1-.488-.488h0a.489.489,0,0,1,.488-.488h4.1a.49.49,0,0,1,.488.488h0A.49.49,0,0,1,397.256,259.6Z" transform="translate(-387.225 -254.753)" fill="#bec1a9"/>
            <path id="Trazado_145884" data-name="Trazado 145884" d="M397.256,265.44h-4.1a.489.489,0,0,1-.488-.488h0a.489.489,0,0,1,.488-.488h4.1a.489.489,0,0,1,.488.488h0A.49.49,0,0,1,397.256,265.44Z" transform="translate(-387.225 -257.989)" fill="#bec1a9"/>
            <path id="Trazado_145885" data-name="Trazado 145885" d="M397.256,270.743h-4.1a.489.489,0,0,1-.488-.488h0a.489.489,0,0,1,.488-.488h4.1a.49.49,0,0,1,.488.488h0A.49.49,0,0,1,397.256,270.743Z" transform="translate(-387.225 -260.928)" fill="#bec1a9"/>
            <path id="Trazado_145886" data-name="Trazado 145886" d="M397.256,276.582h-4.1a.489.489,0,0,1-.488-.488h0a.489.489,0,0,1,.488-.488h4.1a.489.489,0,0,1,.488.488h0A.49.49,0,0,1,397.256,276.582Z" transform="translate(-387.225 -264.164)" fill="#bec1a9"/>
            <path id="Trazado_145887" data-name="Trazado 145887" d="M397.256,280.814h-4.1a.489.489,0,0,1-.488-.488h0a.489.489,0,0,1,.488-.488h4.1a.49.49,0,0,1,.488.488h0A.49.49,0,0,1,397.256,280.814Z" transform="translate(-387.225 -266.509)" fill="#bec1a9"/>
            <path id="Trazado_145888" data-name="Trazado 145888" d="M397.256,286.653h-4.1a.489.489,0,0,1-.488-.488h0a.489.489,0,0,1,.488-.488h4.1a.49.49,0,0,1,.488.488h0A.49.49,0,0,1,397.256,286.653Z" transform="translate(-387.225 -269.745)" fill="#bec1a9"/>
            <path id="Trazado_145889" data-name="Trazado 145889" d="M397.256,291.956h-4.1a.489.489,0,0,1-.488-.488h0a.489.489,0,0,1,.488-.488h4.1a.49.49,0,0,1,.488.488h0A.49.49,0,0,1,397.256,291.956Z" transform="translate(-387.225 -272.684)" fill="#bec1a9"/>
            <path id="Trazado_145890" data-name="Trazado 145890" d="M397.256,297.795h-4.1a.489.489,0,0,1-.488-.488h0a.489.489,0,0,1,.488-.488h4.1a.489.489,0,0,1,.488.488h0A.489.489,0,0,1,397.256,297.795Z" transform="translate(-387.225 -275.92)" fill="#bec1a9"/>
          </g>
          <g id="Grupo_126701" data-name="Grupo 126701" transform="translate(44.729 64.254)">
            <path id="Trazado_145891" data-name="Trazado 145891" d="M373.774,242.215v30.666h6.687V242.215A3.244,3.244,0,0,0,376.931,239h-5.836c-.1,0-.622.011-.719.019C372.215,239.168,373.774,240.336,373.774,242.215Z" transform="translate(-360.846 -239)" fill="#969696"/>
            <path id="Trazado_145892" data-name="Trazado 145892" d="M350.337,243.1c0-.387.727-.7,1.115-.7s1.115.317,1.115.7v29.784H354.8V243.1c0-.387-.008-.7.379-.7.145,0,.066.045.066.12v-.3c0-1.879,1.689-3.011,3.529-3.159-.1-.008-.008-.056-.107-.056h-5.836c-1.978,0-3.828,1.238-3.828,3.215v30.666h1.337Z" transform="translate(-349 -239)" fill="#dad9d9"/>
            <path id="Trazado_145893" data-name="Trazado 145893" d="M363,242.215v.3c.446.127.446.342.446.585v29.784h3.121V243.567a.67.67,0,1,1,1.337,0v29.314h1.783V242.215A3.245,3.245,0,0,0,366.423,239C364.582,239.149,363,240.336,363,242.215Z" transform="translate(-356.759 -239)" fill="#dad9d9"/>
            <path id="Trazado_145894" data-name="Trazado 145894" d="M353.115,246.61c-.387,0-1.115.317-1.115.7V277.1h2.229V247.315C354.229,246.927,353.5,246.61,353.115,246.61Z" transform="translate(-350.663 -243.217)" fill="#b2b2b2"/>
            <path id="Trazado_145895" data-name="Trazado 145895" d="M362.379,246.61c-.387,0-.379.317-.379.7V277.1h.446V246.73C362.446,246.655,362.524,246.61,362.379,246.61Z" transform="translate(-356.205 -243.217)" fill="#b2b2b2"/>
            <path id="Trazado_145896" data-name="Trazado 145896" d="M363.446,247.464c0-.243,0-.458-.446-.585v30.369h.446Z" transform="translate(-356.759 -243.367)" fill="#b2b2b2"/>
            <path id="Trazado_145897" data-name="Trazado 145897" d="M372.337,248.369a.67.67,0,1,0-1.337,0v29.314h1.337Z" transform="translate(-361.192 -243.802)" fill="#b2b2b2"/>
          </g>
          <g id="Grupo_126702" data-name="Grupo 126702" transform="translate(12.185 81.177)">
            <path id="Trazado_145898" data-name="Trazado 145898" d="M283.057,286.784l-6.739-5.368s4.8-4.34,5.14-4.112,32.667-.342,32.667-.342l-1.713,6.168Z" transform="translate(-276.176 -276.961)" fill="#928a88"/>
            <path id="Trazado_145899" data-name="Trazado 145899" d="M320.256,297.535H288v-16.07l4.9-4.083v5l5.709-5.083-.043,5.083,5.925-5.14v5.14l4.9-5.254v5.254l6.241-5.254v4.8l4.935-4.872Z" transform="translate(-282.65 -277.01)" fill="#dad9d9"/>
            <rect id="Rectángulo_34598" data-name="Rectángulo 34598" width="2.287" height="2.287" transform="translate(8.631 10.316)" fill="#bebdbc"/>
            <rect id="Rectángulo_34599" data-name="Rectángulo 34599" width="2.287" height="2.287" transform="translate(12.286 10.316)" fill="#bebdbc"/>
            <rect id="Rectángulo_34600" data-name="Rectángulo 34600" width="2.287" height="2.287" transform="translate(15.712 10.316)" fill="#bebdbc"/>
            <rect id="Rectángulo_34601" data-name="Rectángulo 34601" width="2.287" height="2.287" transform="translate(19.367 10.316)" fill="#bebdbc"/>
            <rect id="Rectángulo_34602" data-name="Rectángulo 34602" width="2.287" height="2.287" transform="translate(22.87 10.316)" fill="#bebdbc"/>
            <rect id="Rectángulo_34603" data-name="Rectángulo 34603" width="2.287" height="2.287" transform="translate(26.525 10.316)" fill="#bebdbc"/>
            <rect id="Rectángulo_34604" data-name="Rectángulo 34604" width="2.287" height="2.287" transform="translate(29.951 10.316)" fill="#bebdbc"/>
            <rect id="Rectángulo_34605" data-name="Rectángulo 34605" width="2.287" height="2.287" transform="translate(33.606 10.316)" fill="#bebdbc"/>
            <rect id="Rectángulo_34606" data-name="Rectángulo 34606" width="2.287" height="2.287" transform="translate(8.631 14.352)" fill="#bebdbc"/>
            <rect id="Rectángulo_34607" data-name="Rectángulo 34607" width="2.287" height="2.287" transform="translate(12.286 14.352)" fill="#bebdbc"/>
            <rect id="Rectángulo_34608" data-name="Rectángulo 34608" width="2.287" height="2.287" transform="translate(15.712 14.352)" fill="#bebdbc"/>
            <rect id="Rectángulo_34609" data-name="Rectángulo 34609" width="2.287" height="2.287" transform="translate(19.367 14.352)" fill="#bebdbc"/>
            <rect id="Rectángulo_34610" data-name="Rectángulo 34610" width="2.287" height="2.287" transform="translate(22.87 14.352)" fill="#bebdbc"/>
            <rect id="Rectángulo_34611" data-name="Rectángulo 34611" width="2.287" height="2.287" transform="translate(26.525 14.352)" fill="#bebdbc"/>
            <rect id="Rectángulo_34612" data-name="Rectángulo 34612" width="2.287" height="2.287" transform="translate(29.951 14.352)" fill="#bebdbc"/>
            <rect id="Rectángulo_34613" data-name="Rectángulo 34613" width="2.287" height="2.287" transform="translate(33.606 14.352)" fill="#bebdbc"/>
            <rect id="Rectángulo_34614" data-name="Rectángulo 34614" width="5.35" height="16.049" transform="translate(0 4.475)" fill="#bebdbc"/>
          </g>
          <g id="Grupo_126703" data-name="Grupo 126703" transform="translate(7.3 88.447)">
            <path id="Trazado_145900" data-name="Trazado 145900" d="M272.123,305h0a.19.19,0,0,1-.189-.189V293.847a.19.19,0,0,1,.189-.189h0a.19.19,0,0,1,.19.189v10.958A.19.19,0,0,1,272.123,305Z" transform="translate(-268.861 -293.484)" fill="#7b5e5d"/>
            <rect id="Rectángulo_34615" data-name="Rectángulo 34615" width="0.417" height="4.309" rx="0.209" transform="matrix(0.723, 0.69, -0.69, 0.723, 6.071, 2.4)" fill="#7b5e5d"/>
            <rect id="Rectángulo_34616" data-name="Rectángulo 34616" width="0.417" height="4.309" rx="0.209" transform="matrix(0.723, 0.69, -0.69, 0.723, 6.071, 0)" fill="#7b5e5d"/>
            <rect id="Rectángulo_34617" data-name="Rectángulo 34617" width="0.417" height="4.309" rx="0.209" transform="matrix(0.707, -0.707, 0.707, 0.707, 0.094, 1.59)" fill="#7b5e5d"/>
            <rect id="Rectángulo_34618" data-name="Rectángulo 34618" width="0.417" height="4.309" rx="0.209" transform="matrix(0.707, -0.707, 0.707, 0.707, 0, 4.937)" fill="#7b5e5d"/>
          </g>
          <g id="Grupo_126704" data-name="Grupo 126704" transform="translate(16.214 90.465)">
            <path id="Trazado_145901" data-name="Trazado 145901" d="M292.12,309.52h0a.19.19,0,0,1-.189-.189V298.372a.19.19,0,0,1,.189-.189h0a.19.19,0,0,1,.189.189v10.958A.19.19,0,0,1,292.12,309.52Z" transform="translate(-288.858 -298.009)" fill="#7b5e5d"/>
            <rect id="Rectángulo_34619" data-name="Rectángulo 34619" width="0.417" height="4.309" rx="0.209" transform="translate(6.072 2.401) rotate(43.698)" fill="#7b5e5d"/>
            <rect id="Rectángulo_34620" data-name="Rectángulo 34620" width="0.417" height="4.309" rx="0.209" transform="matrix(0.723, 0.691, -0.691, 0.723, 6.071, 0)" fill="#7b5e5d"/>
            <rect id="Rectángulo_34621" data-name="Rectángulo 34621" width="0.417" height="4.309" rx="0.209" transform="matrix(0.707, -0.707, 0.707, 0.707, 0.095, 1.589)" fill="#7b5e5d"/>
            <rect id="Rectángulo_34622" data-name="Rectángulo 34622" width="0.417" height="4.309" rx="0.209" transform="translate(0 4.937) rotate(-45)" fill="#7b5e5d"/>
          </g>
          <g id="Grupo_126705" data-name="Grupo 126705" transform="translate(15.361 90.547)" opacity="0.68" style="mix-blend-mode: multiply;isolation: isolate">
            <path id="Trazado_145902" data-name="Trazado 145902" d="M301.461,316.57a2.139,2.139,0,0,0-3.022.156c-.037.042-.07.086-.1.13a1.969,1.969,0,0,0-1.069-.319c.008-.009.018-.016.027-.025a1.576,1.576,0,0,0,.09-2.2,1.433,1.433,0,0,0-1.708-.023,1.207,1.207,0,0,0-.326-.478,1.359,1.359,0,0,0-1.794,2.035,1.252,1.252,0,0,0,1.172.254,1.214,1.214,0,0,0,.391.78,1.168,1.168,0,0,0,.57.267,2.5,2.5,0,0,0-.23.226,2.275,2.275,0,0,0-.293,2.728,1.671,1.671,0,0,0,2.629,2.044c.013-.015.022-.033.035-.049a1.381,1.381,0,0,0,1.46-.377,1.29,1.29,0,0,0,.23-.39,1.542,1.542,0,0,0,1.06-.259,1.572,1.572,0,0,0,.118.126,1.446,1.446,0,0,0,2.043-.071,1.416,1.416,0,0,0,.073-1.735,1.927,1.927,0,0,0-.424-2.213,1.731,1.731,0,0,0-.707-.374A2.168,2.168,0,0,0,301.461,316.57Z" transform="translate(-288.676 -306.582)" fill="#8d86ad"/>
            <path id="Trazado_145903" data-name="Trazado 145903" d="M291.525,305.588a1.177,1.177,0,0,1-1.292.733,1.147,1.147,0,1,0,1.72,1.516,1.2,1.2,0,0,0,.246-.448,1.148,1.148,0,0,0,.925-.392,1.068,1.068,0,1,0-1.6-1.41Z" transform="translate(-286.897 -301.975)" fill="#8d86ad"/>
            <path id="Trazado_145904" data-name="Trazado 145904" d="M284.523,307.165a.792.792,0,1,0-1.138.094A.809.809,0,0,0,284.523,307.165Z" transform="translate(-283.124 -302.331)" fill="#8d86ad"/>
            <path id="Trazado_145905" data-name="Trazado 145905" d="M298.577,298.228a.792.792,0,1,0,1.1-.046A.775.775,0,0,0,298.577,298.228Z" transform="translate(-291.586 -297.979)" fill="#8d86ad"/>
          </g>
          <g id="Grupo_126706" data-name="Grupo 126706" transform="translate(74.184 27.047)" opacity="0.55">
            <path id="Trazado_145906" data-name="Trazado 145906" d="M447.826,175.871c-.006-.017-.011-.035-.016-.052h.045C447.844,175.835,447.837,175.855,447.826,175.871Z" transform="translate(-433.215 -166.778)" fill="#8d86ad"/>
            <path id="Trazado_145907" data-name="Trazado 145907" d="M415.072,165.106h20.567c.112,0,.186-.934.186-1.3a3.41,3.41,0,0,0-3.172-3.438,3.123,3.123,0,0,0-.985.168,3.174,3.174,0,1,0-5.532-.675,3.139,3.139,0,0,0-2.2,2.3l-.008-.009c0,.017-.005.038-.009.055a3.167,3.167,0,0,0-2.209-.916,3.134,3.134,0,0,0-2.81,1.7c-.005,0-.01.012-.015.008-.012.024-.021.094-.033.118a2.018,2.018,0,0,0-.48-.221,2.456,2.456,0,0,0-3.144,1.387C415.15,164.475,415.1,165.106,415.072,165.106Z" transform="translate(-415.072 -155.539)" fill="#8d86ad"/>
          </g>
          <g id="Grupo_126707" data-name="Grupo 126707" transform="translate(72.028 0.051)" opacity="0.55">
            <path id="Trazado_145908" data-name="Trazado 145908" d="M410.248,95.029c-.005-.015-.009-.03-.014-.045h.038C410.263,95,410.257,95.015,410.248,95.029Z" transform="translate(-410.234 -94.984)" fill="#8d86ad"/>
          </g>
          <g id="Grupo_126708" data-name="Grupo 126708" transform="translate(65.404 28.83)" opacity="0.55">
            <path id="Trazado_145909" data-name="Trazado 145909" d="M409.118,179.871c.006-.017.011-.035.017-.052h-.045C409.1,179.836,409.107,179.855,409.118,179.871Z" transform="translate(-402.976 -170.778)" fill="#8d86ad"/>
            <path id="Trazado_145910" data-name="Trazado 145910" d="M415.974,168.3a2.456,2.456,0,0,0-3.144-1.387,2.018,2.018,0,0,0-.48.221c-.012-.025-.02-.094-.033-.118-.005,0-.01-.012-.015-.008a3.135,3.135,0,0,0-2.811-1.7,3.167,3.167,0,0,0-2.209.916c0-.017-.005-.038-.009-.055l-.008.009a3.139,3.139,0,0,0-2.2-2.3,3.171,3.171,0,1,0-5.532.675,3.125,3.125,0,0,0-.986-.168,3.41,3.41,0,0,0-3.172,3.438c0,.363.074,1.3.186,1.3h20.567C416.1,169.106,416.052,168.475,415.974,168.3Z" transform="translate(-395.376 -159.539)" fill="#8d86ad"/>
          </g>
          <g id="Grupo_126709" data-name="Grupo 126709" transform="translate(54.322 10.379)" opacity="0.35" style="mix-blend-mode: multiply;isolation: isolate">
            <path id="Trazado_145911" data-name="Trazado 145911" d="M391.159,140.452c0-.106-.03-.2-.041-.307h0C391.128,140.248,391.154,140.346,391.159,140.452Z" transform="translate(-381.934 -130.34)" fill="#8d86ad"/>
            <path id="Trazado_145912" data-name="Trazado 145912" d="M370.524,140.145h.012c0,.137-.023.266-.016.407C370.52,140.569,370.523,140.145,370.524,140.145Z" transform="translate(-370.518 -130.34)" fill="#8d86ad"/>
            <path id="Trazado_145913" data-name="Trazado 145913" d="M375.68,123.254h0c.306-2.735,2.243-5.095,4.707-5.1a5.13,5.13,0,0,1,5.13,4.157c.146-.024,3.813-.681,4.625,2.32a1.107,1.107,0,0,0,.065.318,4.079,4.079,0,0,1,1.055-.214,4.139,4.139,0,0,1,2.885.485c.05-.113-.044-.043,0,0a4.949,4.949,0,0,1,3.807-2.173c2.546-.165,4.724,1.871,4.864,4.825,0,.064,0,.087.006.1,0-.006,0-.012,0-.012H387.141c-.013.033.068-.02.057.012l-3.929.09h-3.031c0-.007,0-.013,0-.02h-8.9A4.643,4.643,0,0,1,375.68,123.254Z" transform="translate(-370.972 -118.152)" fill="#8d86ad"/>
          </g>
          <g id="Grupo_126710" data-name="Grupo 126710" transform="translate(24.721 1.843)" opacity="0.35" style="mix-blend-mode: multiply;isolation: isolate">
            <path id="Trazado_145914" data-name="Trazado 145914" d="M304.12,99.217c0-.074.022-.141.029-.213h0C304.142,99.076,304.124,99.143,304.12,99.217Z" transform="translate(-304.12 -99.004)" fill="#8d86ad"/>
            <path id="Trazado_145915" data-name="Trazado 145915" d="M318.472,99.111h-.008c0,.1.014.185.009.283C318.473,99.406,318.473,99.111,318.472,99.111Z" transform="translate(-312.069 -99.063)" fill="#8d86ad"/>
          </g>
          <g id="Grupo_126711" data-name="Grupo 126711" transform="translate(72.064 74.106)" opacity="0.35" style="mix-blend-mode: multiply;isolation: isolate">
            <path id="Trazado_145916" data-name="Trazado 145916" d="M445.556,276.587c0-.074.022-.141.03-.213h0C445.578,276.446,445.56,276.513,445.556,276.587Z" transform="translate(-429.845 -269.564)" fill="#8d86ad"/>
            <path id="Trazado_145917" data-name="Trazado 145917" d="M459.908,276.481H459.9c0,.1.015.185.009.283C459.908,276.776,459.909,276.481,459.908,276.481Z" transform="translate(-437.795 -269.623)" fill="#8d86ad"/>
            <path id="Trazado_145918" data-name="Trazado 145918" d="M429.188,264.666h0c-.2-1.9-1.531-3.55-3.242-3.567a3.562,3.562,0,0,0-3.584,2.859c-.1-.017-2.645-.493-3.224,1.587a.775.775,0,0,1-.047.221,2.84,2.84,0,0,0-.732-.154,2.877,2.877,0,0,0-2.006.321c-.034-.078.031-.029,0,0a3.437,3.437,0,0,0-2.632-1.529,3.283,3.283,0,0,0-3.4,3.326c0,.044,0,.06,0,.068s0-.008,0-.008l4.727.036,1.679.013,2.122.016,2.359.017c.009.023-.047-.013-.039.008l2.727.083,1.134.008.948.007H426s0-.009,0-.014l1.334.01,4.844.036A3.224,3.224,0,0,0,429.188,264.666Z" transform="translate(-410.315 -261.098)" fill="#8d86ad"/>
          </g>
          <g id="Grupo_126713" data-name="Grupo 126713" transform="translate(50.109 83.689)">
            <ellipse id="Elipse_4881" data-name="Elipse 4881" cx="1.616" cy="0.557" rx="1.616" ry="0.557" transform="translate(2.812 15.412)" fill="#513434"/>
            <g id="Grupo_126712" data-name="Grupo 126712" transform="translate(0 0)">
              <path id="Trazado_145919" data-name="Trazado 145919" d="M370.984,299.014h0a.266.266,0,0,1-.265-.265V283.406a.266.266,0,0,1,.265-.265h0a.266.266,0,0,1,.266.265v15.342A.266.266,0,0,1,370.984,299.014Z" transform="translate(-366.416 -282.898)" fill="#7b5e5d"/>
              <rect id="Rectángulo_34623" data-name="Rectángulo 34623" width="0.584" height="6.033" rx="0.292" transform="matrix(0.723, 0.69, -0.69, 0.723, 8.499, 3.36)" fill="#7b5e5d"/>
              <rect id="Rectángulo_34624" data-name="Rectángulo 34624" width="0.584" height="6.033" rx="0.292" transform="matrix(0.723, 0.69, -0.69, 0.723, 8.499, 0)" fill="#7b5e5d"/>
              <rect id="Rectángulo_34625" data-name="Rectángulo 34625" width="0.584" height="6.033" rx="0.292" transform="translate(0.133 2.226) rotate(-45)" fill="#7b5e5d"/>
              <rect id="Rectángulo_34626" data-name="Rectángulo 34626" width="0.584" height="6.033" rx="0.292" transform="translate(0 6.913) rotate(-45.002)" fill="#7b5e5d"/>
            </g>
          </g>
          <g id="Grupo_126715" data-name="Grupo 126715" transform="translate(55.732 87.201)">
            <ellipse id="Elipse_4882" data-name="Elipse 4882" cx="1.208" cy="0.416" rx="1.208" ry="0.416" transform="translate(2.101 11.517)" fill="#513434"/>
            <g id="Grupo_126714" data-name="Grupo 126714" transform="translate(0 0)">
              <path id="Trazado_145920" data-name="Trazado 145920" d="M381.091,302.742h0a.2.2,0,0,1-.2-.2V291.078a.2.2,0,0,1,.2-.2h0a.2.2,0,0,1,.2.2v11.465A.2.2,0,0,1,381.091,302.742Z" transform="translate(-377.678 -290.698)" fill="#7b5e5d"/>
              <rect id="Rectángulo_34627" data-name="Rectángulo 34627" width="0.437" height="4.508" rx="0.218" transform="matrix(0.723, 0.69, -0.69, 0.723, 6.351, 2.511)" fill="#7b5e5d"/>
              <rect id="Rectángulo_34628" data-name="Rectángulo 34628" width="0.437" height="4.508" rx="0.218" transform="translate(6.352 0) rotate(43.674)" fill="#7b5e5d"/>
              <rect id="Rectángulo_34629" data-name="Rectángulo 34629" width="0.437" height="4.508" rx="0.218" transform="translate(0.099 1.663) rotate(-45.002)" fill="#7b5e5d"/>
              <rect id="Rectángulo_34630" data-name="Rectángulo 34630" width="0.437" height="4.508" rx="0.218" transform="translate(0 5.165) rotate(-45)" fill="#7b5e5d"/>
            </g>
          </g>
        </g>
      </g>
    </g>
    <rect id="Rectángulo_34641" data-name="Rectángulo 34641" width="190" height="8" transform="translate(810 6619.001)" fill="#023055"/>
  </g>
</svg>
