<svg xmlns="http://www.w3.org/2000/svg" width="190" height="155" viewBox="0 0 190 155">
  <g id="Grupo_130303" data-name="Grupo 130303" transform="translate(-285 -6252.001)">
    <g id="Grupo_124954" data-name="Grupo 124954" transform="translate(-420 335.001)">
      <rect id="Rectángulo_33958" data-name="Rectángulo 33958" width="190" height="155" transform="translate(705 5917)" fill="#b2e4f7"/>
      <g id="Grupo_123389" data-name="Grupo 123389" transform="translate(1.302 4.428)">
        <rect id="Rectángulo_34160" data-name="Rectángulo 34160" width="190" height="29" transform="translate(703.698 6038.572)" fill="#b5c148"/>
        <g id="Grupo_80273" data-name="Grupo 80273" transform="translate(707.207 5930.814)">
          <path id="Trazado_115621" data-name="Trazado 115621" d="M1355.877,568.39l-42.312-.095-39.16-.087-14.4-.032-56.236-.124s-14.565-12.669-19.313-32.641a53.3,53.3,0,0,1-1.273-17.1c.9-10.3,5.106-22.376,12.546-29.713,9.955-9.819,24.505-12.764,31.882-11.111a10.008,10.008,0,0,1,2.488.873c9.821,5.2,22.847-8.843,51-18.482,10.062-3.445,26.17-1.913,38.622,5.529a43.348,43.348,0,0,1,3.832,2.571,39,39,0,0,1,4.24,3.691q.668.675,1.3,1.384c7.851,8.8,11.488,21.68,5.687,39.144q-.094.28-.19.561c-.008.029-.019.058-.029.086a31.356,31.356,0,0,0-1.225,4.592,16.953,16.953,0,0,0,.381,8.48c2.308,7.02,9.611,10.628,15.328,16.608l.125.133a30.316,30.316,0,0,1,2.451,2.917q.244.334.482.678.174.254.343.513a24.405,24.405,0,0,1,2.151,4.482A33.111,33.111,0,0,1,1355.877,568.39Z" transform="translate(-1173.574 -458.131)" fill="#e2f0f5"/>
          <path id="Trazado_115622" data-name="Trazado 115622" d="M2373.344,1532.865l-49.127-.094-45.467-.087-16.72-.032c1.022-2.859,9.537-24.651,20.684-22.769,11.693,1.974,7.812,2.419,35.321,13.375,18.219,7.256,39.934-10.147,51.33-12.013C2374.115,1517.529,2375.008,1525.842,2373.344,1532.865Z" transform="translate(-2191.134 -1422.606)" fill="#b2e4f7"/>
          <path id="Trazado_115623" data-name="Trazado 115623" d="M1334.354,662.054l-150.015,22.695a53.5,53.5,0,0,1-1.281-14.735q.049-.916.131-1.846l144.2-46.641q.667.675,1.3,1.384C1336.513,631.708,1340.139,644.59,1334.354,662.054Z" transform="translate(-1173.581 -607.984)" fill="#fff"/>
          <path id="Trazado_115624" data-name="Trazado 115624" d="M1289.134,1134.58l-82.013-.156a70.831,70.831,0,0,1-19.735-25.182,52.894,52.894,0,0,1-2.688-7.459q-.071-.257-.139-.515a47.557,47.557,0,0,1-1.2-6.112,45.4,45.4,0,0,1-.29-8.623c.039-.611.088-1.227.153-1.847a47.715,47.715,0,0,1,1.82-9c5.233.555,12.5,2.448,17.579,8.292,8.79,10.117,38.664,10.857,45.688,7.9s29.962-6.4,35.4,4.078C1288.77,1105.727,1289.111,1131.192,1289.134,1134.58Z" transform="translate(-1173.578 -1024.502)" fill="#b2e4f7"/>
          <path id="Trazado_115625" data-name="Trazado 115625" d="M1212.858,588.483l127.7-42.514-125.034,35.965A50.419,50.419,0,0,0,1212.858,588.483Z" transform="translate(-1200.979 -538.689)" fill="#fff"/>
          <path id="Trazado_115626" data-name="Trazado 115626" d="M1209.9,1239.606c-3.123-2.663-10.955,1.851-14.213-2.588l-.017-.023c2.356-.908,5.892-2.476,4.92-3.4s-3.7,1.266-5.41,2.794c-.073-.082-.148-.16-.223-.236,2.3-2.944,5.88-8.08,3.523-8.884-2.246-.765-3.83,4.461-4.626,7.96a8.6,8.6,0,0,0-6.338-1.124,47.559,47.559,0,0,0,1.2,6.113c.045.172.091.344.139.515a52.863,52.863,0,0,0,2.689,7.459c8.5-.605,18.354-1.4,18.354-1.4S1213.026,1242.27,1209.9,1239.606Z" transform="translate(-1177.74 -1163.456)" fill="#8d6e61"/>
          <g id="Grupo_80275" data-name="Grupo 80275" transform="translate(3.765 78.787)">
            <path id="Trazado_115627" data-name="Trazado 115627" d="M1309.872,1418.024c-.014-3.443-5.224-7.057-5.224-7.057a10.356,10.356,0,0,1,3.2,1.09,17.358,17.358,0,0,0-3.484-1.446,15.962,15.962,0,0,0-3.982-1c-.166-.047,2.963-.427,2.963-.427l-3.757.252s-3.377-.417-5.842-.666-9.22.77-9.22.77a16.409,16.409,0,0,1,2.8-.77c-3.162.32-7.807,1.185-7.814,1.186-2.7.18-4.487.336-4.487.336l-1.635,29.373s27.162-.142,31,0,5.831-5.4,6.684-11.946A21,21,0,0,0,1309.872,1418.024Z" transform="translate(-1260.255 -1408.736)" fill="#d4e157"/>
            <g id="Grupo_80273-2" data-name="Grupo 80273" transform="translate(0 1.372)">
              <path id="Trazado_115628" data-name="Trazado 115628" d="M1132.868,1425.306s-8.745-.665-14.291,6.374a9.326,9.326,0,0,0-.574.818,6.749,6.749,0,0,1,.75-2.011c-1.138.948-1.534,3.531-1.534,3.531h0a14.436,14.436,0,0,0-.983,3.815c-.691.845-1.276,1.518-1.276,1.518l1.232-1.128a21.923,21.923,0,0,0,.637,7.614,2.376,2.376,0,0,0-1.513.126,2.463,2.463,0,0,1,1.578.119,21.159,21.159,0,0,0,.755,2.264,29.948,29.948,0,0,0,.968,3.539,16.329,16.329,0,0,1-.389-2.232c1.557,3.167,3.856,5.4,6.534,5.428,7.252.062,16.185-1.052,18.118-10.52S1140.76,1425.544,1132.868,1425.306Z" transform="translate(-1114.96 -1425.289)" fill="#c3d04b"/>
              <path id="Trazado_115629" data-name="Trazado 115629" d="M1159.081,1746.18a3.69,3.69,0,0,0,.135.406C1159.228,1746.613,1159.173,1746.457,1159.081,1746.18Z" transform="translate(-1155.424 -1719.584)" fill="#c3d04b"/>
            </g>
            <g id="Grupo_80274" data-name="Grupo 80274" transform="translate(3.062 4.758)">
              <path id="Trazado_115630" data-name="Trazado 115630" d="M1163.286,1492.3a12.507,12.507,0,0,1-6.5-1.606,9.683,9.683,0,0,1-4.336-6.551c-1.1-5.073-.558-9.235,1.6-12.37,2.018-2.932,5.424-4.84,9.852-5.52a7.759,7.759,0,0,1,7.482,2.793c2.755,3.3,3.546,8.884,1.925,13.571-1.146,3.312-4.206,5.357-8.186,5.472q-.17,0-.34,0c-4.009,0-7.623-2.049-8.864-5.061a9.43,9.43,0,0,1,.185-8.457c1.405-2.42,4.059-3.994,7.473-4.432a5.434,5.434,0,0,1,5.611,2.318,9.177,9.177,0,0,1,.539,8.4c-1.064,1.861-4.009,3.3-6.566,3.208a4.317,4.317,0,0,1-3.966-2.4,5.369,5.369,0,0,1,.165-5.41,4.024,4.024,0,0,1,3.383-1.916,2.278,2.278,0,0,1,2.105,2.248c.076.871-.221,1.84-.936,2.007-1.331.31-1.8-.416-1.822-.447,0,0-.719-1.186.175-1.357,1.024-.2.755.6.755.6.015.022-.253,1.1.809.848.438-.1.725-.813.655-1.619a1.906,1.906,0,0,0-1.761-1.915,3.646,3.646,0,0,0-3.059,1.754,5.013,5.013,0,0,0-.139,5.049,3.962,3.962,0,0,0,3.65,2.2c2.434.083,5.232-1.27,6.235-3.024a8.765,8.765,0,0,0-.526-8.011,5.125,5.125,0,0,0-5.261-2.159c-3.3.423-5.856,1.934-7.2,4.253a9.075,9.075,0,0,0-.163,8.134c1.219,2.959,4.863,4.946,8.855,4.83,3.822-.11,6.757-2.064,7.851-5.227,1.582-4.572.817-10.007-1.86-13.218a7.415,7.415,0,0,0-7.146-2.666c-4.326.664-7.647,2.52-9.607,5.366-2.1,3.049-2.618,7.115-1.544,12.086a9.332,9.332,0,0,0,4.17,6.316c4.334,2.652,11.17,1.047,11.23,1.031l-.774.418A18.162,18.162,0,0,1,1163.286,1492.3Z" transform="translate(-1151.9 -1466.139)" fill="#8d6e61"/>
            </g>
          </g>
          <g id="Grupo_80278" data-name="Grupo 80278" transform="translate(78.017 71.925)">
            <path id="Trazado_115631" data-name="Trazado 115631" d="M2212.519,1337.019c-.017-4.107-6.231-8.417-6.231-8.417,1.074-.085,3.816,1.3,3.816,1.3a20.723,20.723,0,0,0-4.156-1.725c-1.1-.707-4.551-1.131-4.749-1.187s3.534-.509,3.534-.509l-4.481.3s-4.029-.5-6.969-.795-11,.919-11,.919a19.6,19.6,0,0,1,3.336-.919c-3.772.381-9.314,1.413-9.321,1.415-3.217.214-5.353.4-5.353.4l-1.95,35.035s32.4-.17,36.979,0,6.955-6.446,7.972-14.249A25.051,25.051,0,0,0,2212.519,1337.019Z" transform="translate(-2153.336 -1325.94)" fill="#8d6e61"/>
            <g id="Grupo_80276" data-name="Grupo 80276" transform="translate(0 1.636)">
              <path id="Trazado_115632" data-name="Trazado 115632" d="M2001.388,1345.7s-10.432-.793-17.047,7.6a11.1,11.1,0,0,0-.684.975,8.046,8.046,0,0,1,.894-2.4c-1.357,1.131-1.83,4.211-1.83,4.211h0a17.229,17.229,0,0,0-1.172,4.551c-.824,1.008-1.521,1.811-1.521,1.811l1.469-1.345a26.149,26.149,0,0,0,.76,9.082,2.833,2.833,0,0,0-1.8.151,2.937,2.937,0,0,1,1.882.142,25.212,25.212,0,0,0,.9,2.7,35.7,35.7,0,0,0,1.155,4.221,19.487,19.487,0,0,1-.464-2.662c1.857,3.778,4.6,6.447,7.794,6.474,8.651.074,19.306-1.255,21.611-12.548S2010.8,1345.989,2001.388,1345.7Z" transform="translate(-1980.027 -1345.684)" fill="#6c5146"/>
              <path id="Trazado_115633" data-name="Trazado 115633" d="M2032.654,1728.441a4.442,4.442,0,0,0,.162.485C2032.829,1728.958,2032.763,1728.771,2032.654,1728.441Z" transform="translate(-2028.292 -1696.718)" fill="#6c5146"/>
            </g>
            <g id="Grupo_80277" data-name="Grupo 80277" transform="translate(3.652 5.675)">
              <path id="Trazado_115634" data-name="Trazado 115634" d="M2037.67,1425.612a14.918,14.918,0,0,1-7.75-1.915,11.549,11.549,0,0,1-5.172-7.814c-1.307-6.051-.665-11.015,1.909-14.755,2.406-3.5,6.47-5.774,11.752-6.585a9.256,9.256,0,0,1,8.925,3.331c3.286,3.941,4.23,10.6,2.3,16.188-1.366,3.95-5.016,6.39-9.764,6.527-.135,0-.271.006-.405.006-4.782,0-9.092-2.444-10.573-6.037-1.509-3.662-1.43-7.245.22-10.087,1.677-2.887,4.842-4.764,8.914-5.287a6.482,6.482,0,0,1,6.693,2.765c1.965,2.938,1.961,7.71.643,10.015-1.269,2.219-4.782,3.933-7.832,3.827a5.15,5.15,0,0,1-4.731-2.869,6.4,6.4,0,0,1,.2-6.453,4.8,4.8,0,0,1,4.035-2.285,2.718,2.718,0,0,1,2.511,2.681c.091,1.039-.263,2.2-1.116,2.394-1.587.37-2.15-.5-2.173-.533,0,0-.857-1.415.209-1.618,1.221-.233.9.715.9.715.018.026-.3,1.307.965,1.011.522-.122.865-.97.781-1.931a2.272,2.272,0,0,0-2.1-2.284,4.35,4.35,0,0,0-3.649,2.092,5.98,5.98,0,0,0-.166,6.022,4.725,4.725,0,0,0,4.354,2.622c2.9.1,6.24-1.514,7.437-3.607a10.456,10.456,0,0,0-.627-9.555,6.112,6.112,0,0,0-6.275-2.575c-3.934.505-6.985,2.307-8.592,5.073-1.581,2.723-1.65,6.168-.194,9.7s5.8,5.9,10.562,5.761c4.559-.131,8.059-2.462,9.364-6.234,1.886-5.454.974-11.937-2.219-15.766a8.845,8.845,0,0,0-8.524-3.18c-5.159.792-9.121,3.006-11.459,6.4-2.5,3.637-3.123,8.487-1.841,14.416a11.129,11.129,0,0,0,4.974,7.534c5.169,3.164,13.324,1.249,13.4,1.23l-.923.5A21.679,21.679,0,0,1,2037.67,1425.612Z" transform="translate(-2024.089 -1394.409)" fill="#8d6e61"/>
            </g>
          </g>
          <path id="Trazado_115635" data-name="Trazado 115635" d="M2797.033,574.727a3.275,3.275,0,1,0,3.274,3.274A3.275,3.275,0,0,0,2797.033,574.727Z" transform="translate(-2647.537 -565.063)" fill="#fff"/>
          <path id="Trazado_115636" data-name="Trazado 115636" d="M3235.971,1699.936h-6.83c-.366-.31.253-1.016.9-1.063a4,4,0,0,1,1.043.123c.094-1.248.631-6.86,2.654-6.635,2.274.252,0,2.471-.643,3.785a31.151,31.151,0,0,0-1.208,3.027c.185.04.375.079.571.115.3-.926,1.424-4.039,2.85-3.858,1.675.212,1,1.461-.186,2.2-.871.545-1.94,1.319-2.449,1.694a7.235,7.235,0,0,0,1.336.107A2.88,2.88,0,0,1,3235.971,1699.936Z" transform="translate(-3058.658 -1590.06)" fill="#8d6e61"/>
          <path id="Trazado_115637" data-name="Trazado 115637" d="M1069.534,1672.157s11.582-10.605,21.931-6.933c24.4,8.656,26.843-12.39,43.1-.947a43.621,43.621,0,0,0,10.983,5.942c8.86,2.993,14.821-.435,25.759-3.159,14.8-3.686,32.819.526,47.683,5.109Z" transform="translate(-1069.534 -1561.102)" fill="#b5c148"/>
          <g id="Grupo_80279" data-name="Grupo 80279" transform="translate(138.866 101.95)">
            <path id="Trazado_115638" data-name="Trazado 115638" d="M2707.334,1693.95s2.57-6.239,4.617-5.718S2707.334,1693.95,2707.334,1693.95Z" transform="translate(-2707.334 -1688.2)" fill="#8d6e61"/>
            <path id="Trazado_115639" data-name="Trazado 115639" d="M2713.231,1738.288s2.959-2.543,4.4-1.841S2713.231,1738.288,2713.231,1738.288Z" transform="translate(-2712.742 -1732.336)" fill="#8d6e61"/>
          </g>
          <path id="Trazado_115640" data-name="Trazado 115640" d="M1744.926,1615.7s.051-4.906-2.913-5.129S1744.926,1615.7,1744.926,1615.7Z" transform="translate(-1684.239 -1515.047)" fill="#8d6e61"/>
          <path id="Trazado_115641" data-name="Trazado 115641" d="M1180.807,1741.9s7.752-4.819,13.239-3.782,13.514-.058,13.788,3.782Z" transform="translate(-1171.585 -1631.899)" fill="#8d6e61"/>
          <path id="Trazado_115642" data-name="Trazado 115642" d="M1363.926,1716.352s5.145-4.605,7.666-4.18S1363.926,1716.352,1363.926,1716.352Z" transform="translate(-1339.527 -1608.209)" fill="#8d6e61"/>
          <path id="Trazado_115643" data-name="Trazado 115643" d="M1367.007,1692.9c-.057-.341-.022-6.09,1.573-5.772S1367.007,1692.9,1367.007,1692.9Z" transform="translate(-1342.339 -1585.257)" fill="#8d6e61"/>
          <g id="Grupo_80280" data-name="Grupo 80280" transform="translate(70.908 103.945)">
            <path id="Trazado_115645" data-name="Trazado 115645" d="M1920.467,1718.2s-7.673-.007-8.751.04-7.5-2.221-7.5-2.221h0a63.9,63.9,0,0,1,7.684-3.646c2.885-.985,8.481,5.729,8.563,5.827Z" transform="translate(-1904.216 -1712.278)" fill="#8d6e61"/>
            <path id="Trazado_115646" data-name="Trazado 115646" d="M1920.467,1750.1s-7.673-.007-8.751.04-7.5-2.221-7.5-2.221h0c.163-.031,6.356-1.208,8.669-.761s7.5,2.905,7.578,2.943Z" transform="translate(-1904.216 -1744.172)" fill="#8d6e61"/>
            <path id="Trazado_115647" data-name="Trazado 115647" d="M2089.777,1774.623s2.462-.147,3.114-.78c0,0,.354.1.4.258A7.426,7.426,0,0,1,2089.777,1774.623Z" transform="translate(-2074.398 -1768.741)" fill="#8d6e61"/>
          </g>
          <path id="Trazado_115648" data-name="Trazado 115648" d="M2940.725,623.17c-.083.195-.168.39-.253.586-.011.03-.025.061-.039.09a27.316,27.316,0,0,0-1.633,4.8,14.041,14.041,0,0,0,.508,8.856c-7.071-.808-7.478-5.592-7.478-5.592s1.133-5.224-14.545-6.913c-4.8-.517-8.274-1.671-10.69-3.184a8.782,8.782,0,0,1,2.19-3.244,9.129,9.129,0,0,0-4,1.872c-3.637-3.361-3.428-7.827-1.479-11.249,1.65-2.9,5.444-4.322,8.515-6.559a7.173,7.173,0,0,1,3.385,2.494,8.056,8.056,0,0,0-1.906-3.707c2.136-2,3.543-4.733,2.873-9.263-1.469-9.919,7.349-14.239,9.58-15.165a50.455,50.455,0,0,1,5.653,3.855q.891.7,1.735,1.445C2943.612,591.478,2948.461,604.931,2940.725,623.17Z" transform="translate(-2777.995 -569.708)" fill="#b2e4f7"/>
          <g id="Grupo_80282" data-name="Grupo 80282" transform="translate(40.25 26.205)">
            <path id="Trazado_115649" data-name="Trazado 115649" d="M2816.521,981.234s11.508,44.4,10.476,47.913-6.812,15.435-6.812,15.435h5.561a4.193,4.193,0,0,0,2.156-3.853c-.092-2.753,7.706-13.487,7.706-13.487s-3.059-17.047,0-23.762C2848.783,974.563,2826.717,974.837,2816.521,981.234Z" transform="translate(-2707.978 -960.869)" fill="#e8e8e8"/>
            <path id="Trazado_115650" data-name="Trazado 115650" d="M2090.128,1205.406s3.3,23.854,3.486,25.322,1.743,3.3,1.651,5.688-.918,10.459-3.486,12.477a7.308,7.308,0,0,0-2.844,4.5h6.972a9.315,9.315,0,0,0,1.009-4.037c-.183-1.652,1.927-3.395,2.019-6.789s0-9.725.917-11.927.643-17.34,3.67-20.734S2090.128,1205.406,2090.128,1205.406Z" transform="translate(-2040.696 -1169.676)" fill="#e8e8e8"/>
            <path id="Trazado_115651" data-name="Trazado 115651" d="M1971.24,802.06c.076,1.1.114,2.124.114,3.148-.189,25.823-25.748,18.088-26.659,17.4a5.472,5.472,0,0,0-2.768-.607c-12.779,5.082-30.678.417-34.394-1.1s-13.613,2.238-18.2,1.9c-1.858-.152-3.412-2.086-4.589-4.512a34.185,34.185,0,0,1-2.768-9.443,59.751,59.751,0,0,0-2.844-8.3c-.645-1.593-1.365-3.337-2.124-5.12-.151-.3-.265-.644-.417-.948.38-.418.721-.872,1.062-1.327a55.738,55.738,0,0,0,4.968-8.873,44.51,44.51,0,0,1,5.84-9.594c3.754-1.176,8.229.948,10.087.834a51.6,51.6,0,0,0,6.219-.759c.8-.151,1.517-.265,2.2-.379,3.792-.569,26.772,2.389,43,2.844,3.337.114,6.371.076,8.911-.076.19,0,.379-.038.569-.038,6.788-.379,10.39.038,12.287.644,2.085.645,2.123,1.442,2.123,1.442C1980.341,785.526,1971.24,802.06,1971.24,802.06Z" transform="translate(-1845.949 -774.305)" fill="#fff"/>
            <path id="Trazado_115652" data-name="Trazado 115652" d="M1989.315,1205.406s3.3,23.854,3.486,25.322,1.743,3.3,1.651,5.688-.917,10.459-3.486,12.477a7.309,7.309,0,0,0-2.844,4.5h6.973a9.32,9.32,0,0,0,1.009-4.037c-.183-1.652,1.927-3.395,2.019-6.789s0-9.725.917-11.927.642-17.34,3.67-20.734S1989.315,1205.406,1989.315,1205.406Z" transform="translate(-1948.238 -1169.676)" fill="#fff"/>
            <path id="Trazado_115653" data-name="Trazado 115653" d="M2729.922,1118.984s9.289,34.471,8.256,37.98-6.811,15.435-6.811,15.435h5.562a4.193,4.193,0,0,0,2.156-3.853c-.092-2.752,7.707-13.486,7.707-13.486s.63-19.459,5.218-25.238S2740.118,1112.588,2729.922,1118.984Z" transform="translate(-2628.557 -1088.687)" fill="#fff"/>
            <g id="Grupo_80281" data-name="Grupo 80281" transform="translate(0.017 0.376)">
              <path id="Trazado_115654" data-name="Trazado 115654" d="M1525.5,1211.962c-.376.505-.707.865-.707.865a14.672,14.672,0,0,1-1.652.082,4.487,4.487,0,0,1-2.223-.606,2.794,2.794,0,0,1-1.088-1.3s.316-.814,1.968-1.028c1.218-.158,2.413-1,3.432-1.11h0a1.466,1.466,0,0,1,1.025.243C1527.02,1209.65,1526.184,1211.044,1525.5,1211.962Z" transform="translate(-1518.773 -1173.218)" fill="#fff"/>
              <path id="Trazado_115655" data-name="Trazado 115655" d="M1512.083,1241.212c-.047-.022-.628.088-1.385.085a3.592,3.592,0,0,1-3.583-1.9s.315-.814,1.968-1.028a1.665,1.665,0,0,0,.173-.028c1.063-.189,2.11-.858,3.025-1.044a1.564,1.564,0,0,1,1.262.2.685.685,0,0,1,.3.5C1513.991,1239.133,1512.083,1241.212,1512.083,1241.212Z" transform="translate(-1507.115 -1199.252)" fill="#fff"/>
              <path id="Trazado_115656" data-name="Trazado 115656" d="M1579.5,785.973c-.455,11.832-2.655,34.47-4.02,36.48a52.988,52.988,0,0,0-8.229.91c-6.825,1.4-8.722,3.981-9.366,5.194-1.214,2.428-6.9,7.964-7.888,8.154-1.024.189-1.631,1.516-2.693,3.678-1.024,2.123-3.072,2.313-4.778,2.427-1.707.076-3.11-1.972-3.148-2.465-.038-.531.873-2.124.721-4.248-.114-2.124,1.251-8.456.114-10.163-.72-1.1-.3-3.451.076-5.044.227-.948.455-1.592.455-1.592a4.278,4.278,0,0,1,.341-.758c.228-.493.493-1.062.8-1.668.341-.721.8-1.517,1.289-2.389a98.552,98.552,0,0,1,9.139-13.348,90.466,90.466,0,0,1,14.789-14.713,65.69,65.69,0,0,1,12.1-7.584C1579.573,778.995,1579.648,781.839,1579.5,785.973Z" transform="translate(-1536.701 -778.844)" fill="#fff"/>
            </g>
            <path id="Trazado_115657" data-name="Trazado 115657" d="M2084.732,908.245c.24-.611.116-10.991,7.609-13.124s11.594,1.148,20.944-2.625,19.193-6.89,20.177-2.789-.821,15.584,0,20.834-16.932,7.109-24.214,3.883S2082.1,914.971,2084.732,908.245Z" transform="translate(-2036.622 -878.366)" fill="#12263f"/>
            <path id="Trazado_115658" data-name="Trazado 115658" d="M3050.244,833.471A18.82,18.82,0,0,1,3055.917,845c.82,7.382-1.477,39.815-1.477,39.815l-1.872-.1-2.01-35.883Z" transform="translate(-2922.33 -828.567)" fill="#12263f"/>
            <path id="Trazado_115659" data-name="Trazado 115659" d="M3072.384,1441.447s4.046-4.355,1.531-5.339-1.531,1.969-1.531,3.117Z" transform="translate(-2942.461 -1381.076)" fill="#8d6e61"/>
            <path id="Trazado_115660" data-name="Trazado 115660" d="M1704.443,777.752c-4.7,2.314-9.9,4.437-12.969,4.513-6.712.114-23.018-3.754-29.654-4.172s-33.522,5.8-39.855,3.792a1.039,1.039,0,0,0-.493-.076c-1.4-.114-3.527.872-6.143,2.465-1.479.948-3.11,2.085-4.816,3.375-11.035,8.342-25.369,22.677-25.369,22.677a98.574,98.574,0,0,1,9.139-13.348,90.463,90.463,0,0,1,14.789-14.713,65.692,65.692,0,0,1,12.1-7.584c3.754-1.176,8.229.948,10.087.834a51.6,51.6,0,0,0,6.219-.759c.8-.151,1.517-.265,2.2-.379,3.792-.569,26.772,2.389,43,2.844,3.337.114,6.371.076,8.911-.076.19,0,.379-.038.569-.038C1698.944,776.728,1702.546,777.146,1704.443,777.752Z" transform="translate(-1578.659 -774.305)" fill="#fff"/>
            <path id="Trazado_115661" data-name="Trazado 115661" d="M2261.813,777.378c-2.935,2.393-8.565,3.348-16.521,1.865-9.679-1.8-11.975,2.46-20.013,2.789-7.091.289-8.437-5.705-8.655-7.123.781-.129,1.522-.256,2.208-.359C2222.6,773.979,2245.6,776.914,2261.813,777.378Z" transform="translate(-2157.801 -774.462)" fill="#12263f"/>
            <path id="Trazado_115662" data-name="Trazado 115662" d="M1538.606,881.231a17.023,17.023,0,0,1-.645,2.275,18.819,18.819,0,0,1-1.252,2.465c-4.285,6.826-.228,15.017.758,21.312-6.825,1.4-8.722,3.981-9.366,5.195-1.213,2.428-6.9,7.964-7.888,8.154-1.024.189-1.631,1.516-2.693,3.678-1.024,2.123-3.071,2.313-4.778,2.427-1.707.076-3.11-1.972-3.148-2.464-.038-.531.872-2.124.721-4.248-.114-2.124,1.251-8.456.113-10.163-.72-1.1-.3-3.451.076-5.044-1.214,0-2.92-.3-3.6-1.9,0,0,.341-.834,1.972-1.062h.19a2.97,2.97,0,0,1-1.1-1.327s.341-.8,1.972-1.024c1.214-.152,2.427-.986,3.451-1.1a98.552,98.552,0,0,1,9.139-13.348,90.463,90.463,0,0,1,14.789-14.713,22.7,22.7,0,0,1,1.441,5.385A16.827,16.827,0,0,1,1538.606,881.231Z" transform="translate(-1506.905 -862.388)" fill="#12263f"/>
            <path id="Trazado_115663" data-name="Trazado 115663" d="M2752.782,831.39c.072,1.1.1,2.147.095,3.145-8.327,6.176-22.931,3.059-24.029-4.37-1.263-8.558,10.24-9.767,9.4-16.819a8.246,8.246,0,0,1,2.737-6.9c14.281-.846,14.416,2.1,14.416,2.1C2761.864,814.876,2752.782,831.39,2752.782,831.39Z" transform="translate(-2627.483 -803.642)" fill="#12263f"/>
          </g>
        </g>
      </g>
    </g>
    <rect id="Rectángulo_34634" data-name="Rectángulo 34634" width="190" height="8" transform="translate(285 6399.001)" fill="#023055"/>
  </g>
</svg>
