<svg xmlns="http://www.w3.org/2000/svg" width="190" height="155" viewBox="0 0 190 155">
  <g id="Grupo_130304" data-name="Grupo 130304" transform="translate(-495 -6252.001)">
    <g id="Grupo_124996" data-name="Grupo 124996" transform="translate(0 -3.999)">
      <rect id="Rectángulo_33961" data-name="Rectángulo 33961" width="190" height="155" transform="translate(495 6256)" fill="#f6f6f6"/>
      <g id="OBJECTS" transform="translate(499.458 6282)">
        <path id="Trazado_145085" data-name="Trazado 145085" d="M46.936,142.428l10.019,12.865a18.153,18.153,0,0,0,14.323,7H195.6a18.152,18.152,0,0,0,12.535-5.023l2.14-2.043a34.818,34.818,0,0,0,5.573-43.493h0a18.154,18.154,0,0,1-2.621-11.368h0A29.374,29.374,0,0,0,190.29,68.724l-27.756-6.082a75.957,75.957,0,0,0-61.354,13.09c-3.216,2.373-5.5,3.961-5.858,3.951-.713-.019-11.414,1.676-21.677,3.334a23.147,23.147,0,0,0-19.453,22.452h0a18.154,18.154,0,0,1-5.541,12.746h0A18.154,18.154,0,0,0,46.936,142.428Z" transform="translate(-41.371 -60.883)" fill="#a2d4f9" opacity="0.35"/>
        <g id="Grupo_124955" data-name="Grupo 124955" transform="translate(9.444 11.078)">
          <path id="Trazado_145086" data-name="Trazado 145086" d="M588.707,143.1a5.268,5.268,0,0,0-3.446-3.067,6.679,6.679,0,0,0-13.176-1.251,5.251,5.251,0,0,0-5.361,2.98,6.675,6.675,0,0,0-9.592,1.338Z" transform="translate(-419.869 -124.187)" fill="#fff"/>
          <path id="Trazado_145087" data-name="Trazado 145087" d="M91.645,211.81a3.539,3.539,0,0,0-2.314-2.059,4.485,4.485,0,0,0-8.848-.84,3.577,3.577,0,0,0-.406-.024,3.531,3.531,0,0,0-3.194,2.025,4.482,4.482,0,0,0-6.441.9Z" transform="translate(-70.442 -175.754)" fill="#fff"/>
          <path id="Trazado_145088" data-name="Trazado 145088" d="M240.686,104.775a2.565,2.565,0,0,1,1.678-1.493,3.252,3.252,0,0,1,6.415-.609,2.554,2.554,0,0,1,2.61,1.451,3.25,3.25,0,0,1,4.67.651Z" transform="translate(-192.671 -100.163)" fill="#fff"/>
        </g>
        <g id="Grupo_124956" data-name="Grupo 124956" transform="translate(21.71 7.863)">
          <path id="Trazado_145089" data-name="Trazado 145089" d="M148.71,107.54v-2.776a1.032,1.032,0,0,0-1.032-1.032h-2.643a13.236,13.236,0,0,0-2.378-5.493L144.6,96.3a1.032,1.032,0,0,0,0-1.459l-1.964-1.963a1.032,1.032,0,0,0-1.459,0l-2.046,2.046a13.267,13.267,0,0,0-5.39-1.995v-3.13a1.032,1.032,0,0,0-1.032-1.032h-2.776a1.032,1.032,0,0,0-1.032,1.032v3.341a13.3,13.3,0,0,0-4.916,2.254l-2.52-2.517a1.032,1.032,0,0,0-1.459,0l-1.964,1.964a1.032,1.032,0,0,0,0,1.459l2.624,2.624a13.339,13.339,0,0,0-1.9,4.812h-3.8a1.032,1.032,0,0,0-1.032,1.032v2.776a1.032,1.032,0,0,0,1.032,1.032h3.8a13.325,13.325,0,0,0,1.9,4.809L118.043,116a1.031,1.031,0,0,0,0,1.459l1.964,1.964a1.032,1.032,0,0,0,1.459,0l2.52-2.517a13.257,13.257,0,0,0,4.916,2.257v3.341a1.032,1.032,0,0,0,1.032,1.032h2.776a1.032,1.032,0,0,0,1.032-1.032v-3.13a13.28,13.28,0,0,0,5.39-2l2.046,2.046a1.032,1.032,0,0,0,1.459,0l1.964-1.964a1.032,1.032,0,0,0,0-1.459l-1.943-1.943a13.284,13.284,0,0,0,2.378-5.49h2.643A1.032,1.032,0,0,0,148.71,107.54ZM137.918,110a7.135,7.135,0,0,1-2.73,2.493,6.922,6.922,0,0,1-1.883.665,7.136,7.136,0,0,1-3.694-.237,6.928,6.928,0,0,1-1.562-.749,7.121,7.121,0,0,1-2.5-2.728,6.977,6.977,0,0,1-.559-1.443,7.142,7.142,0,0,1,0-3.693,6.9,6.9,0,0,1,.562-1.446,7.15,7.15,0,0,1,2.493-2.728,6.94,6.94,0,0,1,1.562-.749,7.127,7.127,0,0,1,3.694-.237,6.93,6.93,0,0,1,1.883.665,7.153,7.153,0,0,1,2.73,2.493,7.147,7.147,0,0,1,0,7.7Z" transform="translate(-113.932 -88.763)" fill="#ea5854"/>
          <path id="Trazado_145090" data-name="Trazado 145090" d="M157.373,103.732H154.73a13.239,13.239,0,0,0-2.379-5.493l1.943-1.943a1.032,1.032,0,0,0,0-1.459l-1.964-1.963a1.032,1.032,0,0,0-1.459,0l-2.046,2.046a13.267,13.267,0,0,0-5.39-1.995v-3.13a1.032,1.032,0,0,0-1.032-1.032h-2.776a1.032,1.032,0,0,0-1.032,1.032v3.341a13.3,13.3,0,0,0-4.916,2.254l-2.52-2.517a1.032,1.032,0,0,0-1.459,0l-1.964,1.964a1.032,1.032,0,0,0,0,1.459l2.624,2.624a13.334,13.334,0,0,0-1.9,4.812H128.1a20.24,20.24,0,0,0,7.537,6.368,7.141,7.141,0,0,1-.392-.658,6.978,6.978,0,0,1-.559-1.443,7.143,7.143,0,0,1,0-3.693,6.906,6.906,0,0,1,.562-1.446,7.15,7.15,0,0,1,2.493-2.728,6.94,6.94,0,0,1,1.562-.749A7.127,7.127,0,0,1,143,99.145a6.93,6.93,0,0,1,1.883.665,7.154,7.154,0,0,1,2.73,2.493,7.147,7.147,0,0,1,0,7.7,7.138,7.138,0,0,1-2.088,2.112,20.037,20.037,0,0,0,9.01-2.665c.073-.288.14-.578.195-.873h1.189a20.252,20.252,0,0,0,2.485-2.028v-1.78A1.032,1.032,0,0,0,157.373,103.732Z" transform="translate(-123.627 -88.763)" fill="#f97068"/>
        </g>
        <g id="Grupo_124977" data-name="Grupo 124977" transform="translate(35.313 9.401)">
          <g id="Grupo_124966" data-name="Grupo 124966" transform="translate(0 15.851)">
            <rect id="Rectángulo_34189" data-name="Rectángulo 34189" width="22.688" height="14.81" transform="translate(42.962 66.705)" fill="#023055"/>
            <rect id="Rectángulo_34190" data-name="Rectángulo 34190" width="22.688" height="6.573" transform="translate(42.962 66.705)" fill="#071521"/>
            <rect id="Rectángulo_34191" data-name="Rectángulo 34191" width="108.612" height="61.631" rx="4" fill="#023055"/>
            <path id="Trazado_145180" data-name="Trazado 145180" d="M0,0H101.039V52.337H0Z" transform="translate(3.786 6.41)" fill="#afafaf"/>
            <path id="Rectángulo_34193" data-name="Rectángulo 34193" d="M0,0H108.612a0,0,0,0,1,0,0V0A10.921,10.921,0,0,1,97.692,10.921H10.921A10.921,10.921,0,0,1,0,0V0A0,0,0,0,1,0,0Z" transform="translate(0 58.747)" fill="#023055"/>
            <circle id="Elipse_4869" data-name="Elipse 4869" cx="2.055" cy="2.055" r="2.055" transform="translate(52.251 62.595)" fill="#0058c6"/>
            <path id="Trazado_145091" data-name="Trazado 145091" d="M287.99,435.3H206.151a1.365,1.365,0,0,1-1.365-1.365h0a3.992,3.992,0,0,1,3.992-3.992h76.585a3.992,3.992,0,0,1,3.992,3.992h0A1.365,1.365,0,0,1,287.99,435.3Z" transform="translate(-192.765 -351.11)" fill="#023055"/>
            <g id="Grupo_124965" data-name="Grupo 124965" transform="translate(8.215 11.018)">
              <g id="Grupo_124958" data-name="Grupo 124958" transform="translate(69.784 3.256)">
                <rect id="Rectángulo_34194" data-name="Rectángulo 34194" width="22.399" height="5.602" rx="2.192" fill="#afd9ff"/>
                <g id="Grupo_124957" data-name="Grupo 124957" transform="translate(1.768 1.482)">
                  <path id="Trazado_145092" data-name="Trazado 145092" d="M446.377,208.533l-.857.392.108-.937-.638-.694.924-.187.463-.821.463.821.924.187-.638.694.108.937Z" transform="translate(-444.99 -206.287)" fill="#ff777a"/>
                  <path id="Trazado_145093" data-name="Trazado 145093" d="M460.637,208.533l-.857.392.108-.937-.638-.694.924-.187.463-.821.463.821.924.187-.638.694.108.937Z" transform="translate(-455.228 -206.287)" fill="#ff777a"/>
                  <path id="Trazado_145094" data-name="Trazado 145094" d="M474.9,208.533l-.857.392.108-.937-.638-.694.924-.187.463-.821.463.821.924.187-.638.694.108.937Z" transform="translate(-465.466 -206.287)" fill="#ff777a"/>
                  <path id="Trazado_145095" data-name="Trazado 145095" d="M489.157,208.533l-.857.392.108-.937-.638-.694.924-.187.463-.821.463.821.924.187-.638.694.108.937Z" transform="translate(-475.704 -206.287)" fill="#ff777a"/>
                  <path id="Trazado_145096" data-name="Trazado 145096" d="M503.417,208.533l-.857.392.108-.937-.638-.694.924-.187.463-.821.463.821.924.187-.638.694.108.937Z" transform="translate(-485.943 -206.287)" fill="#f7f7f7"/>
                </g>
              </g>
              <g id="Grupo_124962" data-name="Grupo 124962">
                <rect id="Rectángulo_34195" data-name="Rectángulo 34195" width="25.035" height="7.786" rx="3.893" fill="#afd9ff"/>
                <g id="Grupo_124961" data-name="Grupo 124961" transform="translate(1.312 1.039)">
                  <g id="Grupo_124959" data-name="Grupo 124959" transform="translate(0 0)">
                    <circle id="Elipse_4870" data-name="Elipse 4870" cx="2.183" cy="2.183" r="2.183" transform="matrix(0.384, -0.923, 0.923, 0.384, 0, 4.03)" fill="#ff777a"/>
                    <path id="Trazado_145097" data-name="Trazado 145097" d="M200.865,201.691a2.174,2.174,0,0,0,2.931,0,1.471,1.471,0,0,0-.917-1.249.908.908,0,1,0-1.1,0A1.471,1.471,0,0,0,200.865,201.691Z" transform="translate(-199.476 -197.223)" fill="#f7f7f7"/>
                  </g>
                  <g id="Grupo_124960" data-name="Grupo 124960" transform="translate(6.621 1.715)">
                    <rect id="Rectángulo_34196" data-name="Rectángulo 34196" width="11.635" height="0.417" fill="#dcf1ff"/>
                    <rect id="Rectángulo_34197" data-name="Rectángulo 34197" width="15.119" height="0.417" transform="translate(0 0.931)" fill="#dcf1ff"/>
                    <rect id="Rectángulo_34198" data-name="Rectángulo 34198" width="15.119" height="0.417" transform="translate(0 1.862)" fill="#dcf1ff"/>
                  </g>
                </g>
              </g>
              <g id="Grupo_124963" data-name="Grupo 124963" transform="translate(0 10.863)">
                <rect id="Rectángulo_34199" data-name="Rectángulo 34199" width="14.278" height="3.571" rx="1.786" fill="#afd9ff"/>
                <rect id="Rectángulo_34200" data-name="Rectángulo 34200" width="14.278" height="3.571" rx="1.786" transform="translate(0 5.046)" fill="#afd9ff"/>
                <rect id="Rectángulo_34201" data-name="Rectángulo 34201" width="14.278" height="3.571" rx="1.786" transform="translate(0 10.092)" fill="#dcf1ff"/>
                <rect id="Rectángulo_34202" data-name="Rectángulo 34202" width="14.278" height="3.571" rx="1.786" transform="translate(16.449 5.046)" fill="#ff777a"/>
                <rect id="Rectángulo_34203" data-name="Rectángulo 34203" width="14.278" height="3.571" rx="1.786" transform="translate(16.449 10.092)" fill="#afd9ff"/>
              </g>
              <g id="Grupo_124964" data-name="Grupo 124964" transform="translate(77.905 17.695)">
                <rect id="Rectángulo_34204" data-name="Rectángulo 34204" width="14.278" height="3.571" rx="1.786" fill="#ff777a"/>
                <rect id="Rectángulo_34205" data-name="Rectángulo 34205" width="14.278" height="3.571" rx="1.786" transform="translate(0 5.046)" fill="#afd9ff"/>
                <rect id="Rectángulo_34206" data-name="Rectángulo 34206" width="14.278" height="3.571" rx="1.786" transform="translate(0 10.092)" fill="#dcf1ff"/>
              </g>
            </g>
          </g>
          <g id="Grupo_124976" data-name="Grupo 124976" transform="translate(22.283)">
            <g id="Grupo_124967" data-name="Grupo 124967" transform="translate(11.098 22.898)">
              <path id="Trazado_145098" data-name="Trazado 145098" d="M284.319,178.274c-.644,16.281-8.216,17.93,0,29.675s36.513,7.584,36.994-1.308-5.495-14.249-1.579-25.376S284.319,178.274,284.319,178.274Z" transform="translate(-280.521 -175.404)" fill="#272727"/>
              <path id="Trazado_145099" data-name="Trazado 145099" d="M294.962,185.968c-.954,7.4-3.493,14.7-2.189,18.709,0,0,.143-4.513.988-5.6,0,0-.844,6.334,1.74,11.472s30.476,4.159,30.476,4.159a49.667,49.667,0,0,0,0-9.705c-.571-4.078-1.658-5.662-1.971-7.846,0,0,1.72,3.551,2.389,4.911a10.1,10.1,0,0,1,.76,3.352,14.64,14.64,0,0,0-1.232-6.4c-1.414-2.773-.566-10.419-.147-13.392s-19.674-6.5-21.861-5.307S294.962,185.968,294.962,185.968Z" transform="translate(-289.056 -178.765)" fill="#101010"/>
            </g>
            <g id="Grupo_124968" data-name="Grupo 124968" transform="translate(0 37.876)">
              <path id="Trazado_145100" data-name="Trazado 145100" d="M264.655,270.732c-9.695,3.284-16.649,4.52-18.658,10.856s-4.825,13.541-4.825,13.541h65.559s-3.245-14.932-6.8-17.4-17.463-6.616-21.713-7.326S264.655,270.732,264.655,270.732Z" transform="translate(-241.172 -258.408)" fill="#fff"/>
              <path id="Trazado_145101" data-name="Trazado 145101" d="M417.606,323.1a49.891,49.891,0,0,1-.621,10.045h2.222Z" transform="translate(-367.4 -296.422)" fill="#dcedff"/>
              <path id="Trazado_145102" data-name="Trazado 145102" d="M293.753,331.4a38.259,38.259,0,0,0,.477,7.7h-1.7Z" transform="translate(-278.042 -302.385)" fill="#dcedff"/>
              <path id="Trazado_145103" data-name="Trazado 145103" d="M249.088,291.885a17.5,17.5,0,0,1,3.594-4.872c-3.327,1.53-5.656,3.436-6.685,6.681-2.009,6.336-4.825,13.541-4.825,13.541h5.289A42.77,42.77,0,0,1,249.088,291.885Z" transform="translate(-241.172 -270.514)" fill="#dcedff"/>
              <path id="Trazado_145104" data-name="Trazado 145104" d="M333.075,277.315s-4.714-.309-7.573-2.473-2.473-4.327-2.473-4.327a16.937,16.937,0,0,1-2.859,0c-.773-.155.337-8.206,4.843-8.352s13.946,1.722,15.1,1.785,4.982,3.489,4.018,7.831c-.155.7-2.021-1.263-2.871-.258S339.72,276.774,333.075,277.315Z" transform="translate(-297.728 -252.666)" fill="#e8e8e8"/>
              <path id="Trazado_145105" data-name="Trazado 145105" d="M339.758,277.471a23.766,23.766,0,0,1-8.211-11.255c-.4-1.18.278-1.839,1.53-2.04Z" transform="translate(-305.975 -254.118)" fill="#afafaf"/>
              <path id="Trazado_145106" data-name="Trazado 145106" d="M367.348,282.892c3.315-2.122,6.367-7.337,7.295-9.076s.964-3.375-1.875-3.677S367.348,282.892,367.348,282.892Z" transform="translate(-331.762 -258.395)" fill="#afafaf"/>
              <path id="Trazado_145107" data-name="Trazado 145107" d="M349.764,229.678c-.854,6.893-1.343,10.579.962,13.438,0,0-4.108,8.345-7.044,10.045,0,0-7.032-5.022-8.963-13.058a9.8,9.8,0,0,0,1.313-4.4,66.736,66.736,0,0,0-.232-7.186Z" transform="translate(-308.335 -228.512)" fill="#ffd0c5"/>
              <path id="Trazado_145108" data-name="Trazado 145108" d="M355.345,294.188c-4.288,5.192-8.707.81-10.348-1.416a26.9,26.9,0,0,0,6.065,6.525C352.413,298.515,354.012,296.325,355.345,294.188Z" transform="translate(-315.715 -274.648)" fill="#fe8a8b" opacity="0.476"/>
              <path id="Trazado_145109" data-name="Trazado 145109" d="M336.2,235.956a9.982,9.982,0,0,1-1.246,4.293,105.232,105.232,0,0,0,14.283-3.4c.067-1.89.351-4.142.695-6.915l-8.518-.711-5.437-.353A64.754,64.754,0,0,1,336.2,235.956Z" transform="translate(-308.508 -228.77)" fill="#fe8a8b" opacity="0.505"/>
            </g>
            <g id="Grupo_124975" data-name="Grupo 124975" transform="translate(12.839)">
              <g id="Grupo_124969" data-name="Grupo 124969" transform="translate(32.772 6.959)">
                <path id="Trazado_145110" data-name="Trazado 145110" d="M412.761,133.411c.273-4.347.345-8.3-3.048-13.373s-2.676,8.309-2.62,8.462,3.007,5.794,3.007,5.794Z" transform="translate(-405.836 -118.892)" fill="#ffa6a4"/>
                <path id="Trazado_145111" data-name="Trazado 145111" d="M420.175,183.829c-.431,2.5-.139,4.564,1.06,4.771s2.519-1.653,2.95-4.153-.192-4.694-1.39-4.9S420.606,181.329,420.175,183.829Z" transform="translate(-415.166 -162.429)" fill="#f97068"/>
                <path id="Trazado_145112" data-name="Trazado 145112" d="M424.446,200.048l-.755.307-.74,2.049s-.125.254-.279.581a1.049,1.049,0,0,0,.49.23c1.062.183,2.219-1.258,2.769-3.327A1.545,1.545,0,0,1,424.446,200.048Z" transform="translate(-417.094 -177.044)" fill="#cb3034"/>
                <path id="Trazado_145113" data-name="Trazado 145113" d="M406.793,167.425c.93-.172,3.567.527,3.867,1.889.681,3.1-.45,10.284-2.525,12.058-.756.646-2.862.515-3.61.285-1.9-.582-1.9-3.615-1.21-7.638S405.5,167.665,406.793,167.425Z" transform="translate(-402.893 -153.719)" fill="#f97068"/>
                <path id="Trazado_145114" data-name="Trazado 145114" d="M410.367,200.457c-.965.7-1.466,0-1.466,0-.654,1.391-1.857,1.39-3.375,1.6l-.851-.45s-.832.612-1.612,1.165c.14,1.385.614,2.327,1.584,2.625.747.23,2.853.361,3.61-.285C409.165,204.33,409.893,202.513,410.367,200.457Z" transform="translate(-403.014 -177.453)" fill="#cb3034"/>
                <path id="Trazado_145115" data-name="Trazado 145115" d="M416.421,169.315c-.3-1.363-2.937-2.062-3.867-1.889a1.421,1.421,0,0,0-.233.066,2.556,2.556,0,0,1,2.792,2.433c.2,1.366,0,7.551-2.006,10.278a2.912,2.912,0,0,1-2.19,1.58,4.561,4.561,0,0,0,2.978-.411C415.97,179.6,417.1,172.413,416.421,169.315Z" transform="translate(-408.654 -153.719)" fill="#ffa6a4"/>
                <path id="Trazado_145116" data-name="Trazado 145116" d="M416.006,200.457c-.965.7-1.466,0-1.466,0h0a9.888,9.888,0,0,1-1.432,3.479,2.912,2.912,0,0,1-2.19,1.58,4.561,4.561,0,0,0,2.978-.411C414.8,204.33,415.532,202.513,416.006,200.457Z" transform="translate(-408.654 -177.453)" fill="#f97068"/>
                <path id="Trazado_145117" data-name="Trazado 145117" d="M411.323,182.34c-.376,2.183-1.155,3.87-1.739,3.77s-.753-1.952-.377-4.134,1.155-3.87,1.739-3.77S411.7,180.158,411.323,182.34Z" transform="translate(-407.282 -161.474)" fill="#cb3034"/>
              </g>
              <path id="Trazado_145118" data-name="Trazado 145118" d="M309.144,153.893q.039.1.081.19a22,22,0,0,0,4.342,6.182,17.055,17.055,0,0,0,9.41,5.2c3.833.514,7.35-1.619,9.914-4.354a9.861,9.861,0,0,0,2.479-4.5c.4-1.8.185-3.724.479-5.561a16.531,16.531,0,0,1,.888-2.86,21.018,21.018,0,0,0,1.185-9.235,11.245,11.245,0,0,0-1.057-4.266c-.8-1.288-2.664-2.3-3.92-3.087a16.461,16.461,0,0,0-24.385,7.616,10.437,10.437,0,0,0-1.027,6.458C308.1,148.507,308.015,151.164,309.144,153.893Z" transform="translate(-301.539 -119.128)" fill="#ffd0c5"/>
              <path id="Trazado_145119" data-name="Trazado 145119" d="M310.336,147.687s7.263,2,13.676,0,8.59-6.014,9.124-8.1c0,0,5.238,4.107,6.286,10.167,0,0,.36-10.759-2.983-12.1s-10.341-3.091-11.114-2.4-13.754,8.113-13.754,8.113Z" transform="translate(-303.668 -123.571)" fill="#fe8a8b" opacity="0.133"/>
              <g id="Grupo_124971" data-name="Grupo 124971" transform="translate(14.06 23.1)">
                <path id="Trazado_145120" data-name="Trazado 145120" d="M336.547,177.289a14.413,14.413,0,0,1,1.638-.674,9.01,9.01,0,0,1,1.755-.4,4.9,4.9,0,0,1,1.829,0,3.246,3.246,0,0,1,1.643.814l-.029.08a8.234,8.234,0,0,1-.9-.011l-.845-.046c-.552-.021-1.095-.155-1.66-.156a11.192,11.192,0,0,0-1.7.137c-.571.079-1.138.212-1.709.343Z" transform="translate(-336.547 -176.122)" fill="#0c0835"/>
                <path id="Trazado_145121" data-name="Trazado 145121" d="M386.092,177.636a6.535,6.535,0,0,0-1.674-.469,8.935,8.935,0,0,0-1.712-.086c-.572.027-1.122.181-1.686.215a16.547,16.547,0,0,1-1.767.075l-.029-.08a4.042,4.042,0,0,1,1.654-.829,5.309,5.309,0,0,1,1.842-.057,7.655,7.655,0,0,1,1.8.351,6.012,6.012,0,0,1,1.618.807Z" transform="translate(-367.188 -176.288)" fill="#0c0835"/>
                <ellipse id="Elipse_4871" data-name="Elipse 4871" cx="0.552" cy="1.128" rx="0.552" ry="1.128" transform="translate(2.98 3.29)" fill="#0c0835"/>
                <ellipse id="Elipse_4872" data-name="Elipse 4872" cx="0.53" cy="1.128" rx="0.53" ry="1.128" transform="translate(14.614 3.345)" fill="#0c0835"/>
                <path id="Trazado_145122" data-name="Trazado 145122" d="M368.812,211.028a2.111,2.111,0,0,1-.819,1.046,1.437,1.437,0,0,1-1.293.137c-.671-.283-.856-1.066.057-.889a3.142,3.142,0,0,0,1.058.061C368,211.356,368.732,211.237,368.812,211.028Z" transform="translate(-357.789 -201.183)" fill="#fe8a8b"/>
                <g id="Grupo_124970" data-name="Grupo 124970" transform="translate(4.376 12.911)">
                  <path id="Trazado_145123" data-name="Trazado 145123" d="M352.062,221.9a83.89,83.89,0,0,0,9.642.342c-.74,2.454-2.56,4.859-5.054,4.77C354.091,226.923,352.6,224.459,352.062,221.9Z" transform="translate(-352.062 -221.901)" fill="#c31f2a"/>
                  <path id="Trazado_145124" data-name="Trazado 145124" d="M363.678,233.51c-1.926-1.622-3.316-.234-3.316-.234a2.519,2.519,0,0,0-2.719-.081,4.171,4.171,0,0,0,2.224,1.474c.279.038.569.076.86.113A4.121,4.121,0,0,0,363.678,233.51Z" transform="translate(-356.069 -229.671)" fill="#fb8384"/>
                  <path id="Trazado_145125" data-name="Trazado 145125" d="M354.181,222.137a5.934,5.934,0,0,0,.243,1.212,13.345,13.345,0,0,0,7.83.4,13.225,13.225,0,0,0,.213-1.318C360.392,222.466,356.411,222.356,354.181,222.137Z" transform="translate(-353.583 -222.07)" fill="#fff"/>
                </g>
              </g>
              <g id="Grupo_124972" data-name="Grupo 124972" transform="translate(27.727 34.309)">
                <path id="Trazado_145126" data-name="Trazado 145126" d="M396.534,222.341a2.549,2.549,0,0,1-.548-.014c-1.755-.238-2.7-.369-2.7-.369l.107-.769s.939.131,2.692.368c1.616.221,3.689-2.348,4.236-5.367a.391.391,0,0,1,.436-.324h0a.386.386,0,0,1,.332.446C400.526,219.5,398.435,222.189,396.534,222.341Z" transform="translate(-390.954 -215.863)" fill="#ffa6a4"/>
                <path id="Trazado_145127" data-name="Trazado 145127" d="M401,216.339a.385.385,0,0,1,0,.084c-.568,3.186-2.659,5.876-4.56,6.028a2.549,2.549,0,0,1-.548-.014c-1.385-.188-2.261-.309-2.569-.351l-.03.214s.94.131,2.7.369a2.567,2.567,0,0,0,.548.014c1.9-.152,3.992-2.842,4.56-6.028A.375.375,0,0,0,401,216.339Z" transform="translate(-390.954 -216.205)" fill="#f97068"/>
                <path id="Trazado_145128" data-name="Trazado 145128" d="M387.385,233.572l-1.54-.211a.971.971,0,0,1-.831-1.094h0a.972.972,0,0,1,1.094-.831l1.54.211a.971.971,0,0,1,.831,1.094h0A.971.971,0,0,1,387.385,233.572Z" transform="translate(-385.006 -227.038)" fill="#ad1457"/>
                <path id="Trazado_145129" data-name="Trazado 145129" d="M388.254,233.4a.951.951,0,0,1-.007.192h0a.971.971,0,0,1-1.094.831l-1.347-.184a.967.967,0,0,1-.774-.624c-.005.024-.014.046-.017.07h0a.971.971,0,0,0,.831,1.094l1.54.211a.971.971,0,0,0,1.094-.83h0A.965.965,0,0,0,388.254,233.4Z" transform="translate(-385.006 -228.453)" fill="#950c48"/>
              </g>
              <g id="Grupo_124973" data-name="Grupo 124973" transform="translate(1.491 0.072)">
                <path id="Trazado_145130" data-name="Trazado 145130" d="M376.313,111.219s7.727,3.245,7.8,13.831a17.279,17.279,0,0,0,2.55-17c-3.632-10.2-14.14-9.813-14.14-9.813Z" transform="translate(-349.81 -97.175)" fill="#272727"/>
                <path id="Trazado_145131" data-name="Trazado 145131" d="M385.108,139.835s7.537,3.172,7.793,13.456c0-.06,0-.116,0-.177-.126-10.376-3.723-13.132-7.278-15.021l-.846.606Z" transform="translate(-358.605 -125.791)" fill="#101010"/>
                <path id="Trazado_145132" data-name="Trazado 145132" d="M296.72,117.944s21.3,1.236,23-9.581-3.76-13.443-6.439-13.7-7.9-.879-12.363,3.451-9.449,6.954-8.895,20.966Z" transform="translate(-291.981 -94.473)" fill="#272727"/>
                <path id="Trazado_145133" data-name="Trazado 145133" d="M307.216,148.126c.929-.517,1.856-1.047,2.752-1.632s1.788-1.181,2.654-1.816a55.954,55.954,0,0,0,5-4.086,56.217,56.217,0,0,1-4.615,4.568q-1.217,1.083-2.505,2.091c-.853.68-1.745,1.311-2.649,1.933Z" transform="translate(-302.919 -127.585)" fill="#101010"/>
                <path id="Trazado_145134" data-name="Trazado 145134" d="M319.492,110.638c-5.047,2.73-10.6,9.3-10.7,14.735a4.5,4.5,0,0,1-1.012-4.821c1.122-2.84,4.427-5.986,6.258-7.339A25.494,25.494,0,0,1,319.492,110.638Z" transform="translate(-303.086 -106.079)" fill="#101010"/>
                <path id="Trazado_145135" data-name="Trazado 145135" d="M297.989,115.619c-.676-1.752-.213-7.733,0-9.432a15.929,15.929,0,0,1,.908-3.313c.068-.319-.079-.415-.079-.415,3.514-5.409,8.5-6.182,13.558-7.764l-.291-.144c-2.858-.226-7.3-.194-11.166,3.561-4.465,4.331-9.449,6.954-8.895,20.966l4.7-1.133a47.79,47.79,0,0,0,13.674-1.391C303.289,117.95,298.664,117.371,297.989,115.619Z" transform="translate(-291.981 -93.769)" fill="#101010"/>
                <path id="Trazado_145136" data-name="Trazado 145136" d="M324.616,143.6c-2.088,3.259-4.671,6.3-14.534,7.716-6.57.944-7.609-.4-7.609-.4s11.467-.764,16.1-3.115S324.616,143.6,324.616,143.6Z" transform="translate(-299.515 -129.745)" fill="#101010"/>
              </g>
              <g id="Grupo_124974" data-name="Grupo 124974">
                <path id="Trazado_145137" data-name="Trazado 145137" d="M306.494,102.531c1.276-3.735,7.676-7.952,15.093-8.055a15.4,15.4,0,0,0-8.242.721,17.687,17.687,0,0,0-9.373,7.371C302.219,105.6,306.494,102.531,306.494,102.531Z" transform="translate(-298.796 -94.216)" fill="#ffa6a4"/>
                <path id="Trazado_145138" data-name="Trazado 145138" d="M313.615,96.86a14.892,14.892,0,0,0-6.31,5.061c-.2.026-2.055.37-2.084.376-.211.3-.41.612-.591.924-.063.109-.116.208-.164.3a6.206,6.206,0,0,1,1.656.021,1.043,1.043,0,0,0,.565-.043c.278-.184.465-.318.465-.318,1.276-3.735,7.676-7.952,15.093-8.055A19.4,19.4,0,0,0,313.615,96.86Z" transform="translate(-299.454 -94.869)" fill="#f97068"/>
                <path id="Trazado_145139" data-name="Trazado 145139" d="M301.5,135.481c-.349-6.938.631-11.671,1.507-12.958s-2.718-.728-3.439.283c-.467.655-2.048,6.174-1.468,12.723S301.5,135.481,301.5,135.481Z" transform="translate(-294.789 -114.002)" fill="#ffa6a4"/>
                <path id="Trazado_145140" data-name="Trazado 145140" d="M302.48,121.776c.309.117.4.272.18.606a22.666,22.666,0,0,0-1.352,5.86c-.232,2.589-.116,5.306-.167,5.615s-2.317.88-3,.569c.02.365.045.733.078,1.105.043.484.1.894.163,1.242.688.078,1.643.112,2.516.125a13.939,13.939,0,0,0,.721-1.415c-.349-6.938.631-11.671,1.507-12.958C303.479,122,303.1,121.785,302.48,121.776Z" transform="translate(-294.912 -114.003)" fill="#f97068"/>
                <path id="Trazado_145141" data-name="Trazado 145141" d="M296.706,168.987c-.907-.267-3.6.157-4.041,1.481-1,3.012-.611,10.276,1.271,12.254.686.721,2.794.807,3.561.655,1.947-.384,2.265-3.4,1.99-7.473S297.965,169.357,296.706,168.987Z" transform="translate(-290.598 -147.844)" fill="#f97068"/>
                <path id="Trazado_145142" data-name="Trazado 145142" d="M295.152,197.577c.686.721,2.794.807,3.561.655,1.119-.221,1.7-1.314,1.937-2.974-.936.8-3.33.546-4.54,0a20.767,20.767,0,0,0-.442-5.656,44.649,44.649,0,0,0-1.843,4.875A6.84,6.84,0,0,0,295.152,197.577Z" transform="translate(-291.815 -162.699)" fill="#cb3034"/>
                <path id="Trazado_145143" data-name="Trazado 145143" d="M295.041,178.085c.246,3.638-.613,6.659-1.919,6.747s-2.563-2.79-2.809-6.428.613-6.659,1.919-6.747S294.8,174.447,295.041,178.085Z" transform="translate(-289.262 -149.815)" fill="#ffa6a4"/>
                <path id="Trazado_145144" data-name="Trazado 145144" d="M295.4,199.881s-1.668.208-2.312,2.733c.539,1.555,1.289,2.536,2.058,2.484.664-.045,1.212-.851,1.558-2.109a5.6,5.6,0,0,1-1.122-.351A8.977,8.977,0,0,0,295.4,199.881Z" transform="translate(-291.282 -170.08)" fill="#f97068"/>
                <path id="Trazado_145145" data-name="Trazado 145145" d="M290.773,183.516c.184,2.725-.309,4.9-1.522,4.982s-2.346-2.061-2.53-4.786.65-5,1.863-5.082S290.588,180.791,290.773,183.516Z" transform="translate(-286.694 -154.821)" fill="#f97068"/>
                <path id="Trazado_145146" data-name="Trazado 145146" d="M290.68,202.814a1.944,1.944,0,0,1-1.571-.88c.481,1.151,1.163,1.871,1.875,1.823,1.044-.07,1.553-1.691,1.558-3.876C292.283,201.6,291.668,202.747,290.68,202.814Z" transform="translate(-288.428 -170.08)" fill="#cb3034"/>
              </g>
            </g>
          </g>
        </g>
        <g id="Grupo_124991" data-name="Grupo 124991" transform="translate(28.095 71.566)">
          <g id="Grupo_124983" data-name="Grupo 124983" transform="translate(128.504)">
            <g id="Grupo_124979" data-name="Grupo 124979" transform="translate(0 5.068)">
              <path id="Trazado_145147" data-name="Trazado 145147" d="M597.774,355.509a2.836,2.836,0,0,0,2.5-3.083,12.082,12.082,0,0,0-.48-3.182c-.685-2.321-2.1-4.564-1.588-7.015a16.2,16.2,0,0,0,.756-2.974,5.024,5.024,0,0,0-1.054-2.788,47.265,47.265,0,0,0-2.833-3.866c-.244,2.305-1.351,4.358-2.121,6.51s-1.169,4.8-.074,6.622c.782,1.3,2.261,2.088,2.433,3.716a12.772,12.772,0,0,1-.142,2.011c-.106,1.917,1.073,3.747,2.608,4.049Z" transform="translate(-592.202 -332.601)" fill="#f97068"/>
              <g id="Grupo_124978" data-name="Grupo 124978" transform="translate(1.078 3.862)">
                <path id="Trazado_145148" data-name="Trazado 145148" d="M607.3,368.433l-.592-2.755c-.145-.925-.3-1.849-.474-2.769-.342-1.841-.737-3.672-1.232-5.474-.126-.45-.255-.9-.4-1.341-.069-.223-.148-.441-.223-.661s-.162-.432-.232-.677a6.643,6.643,0,0,1-.2-1.431c-.026-.476-.019-.949-.012-1.421.025-.943.086-1.88.121-2.814a12.294,12.294,0,0,0,.057-2.8,11.145,11.145,0,0,1,.314,2.81c-.036.941-.1,1.877-.121,2.809-.008.466-.015.932.011,1.393a6.273,6.273,0,0,0,.186,1.35c.058.206.14.429.225.653s.157.447.226.672c.147.449.277.9.4,1.356.5,1.817.9,3.657,1.239,5.505.175.924.327,1.851.478,2.778C607.166,366.557,607.252,367.494,607.3,368.433Z" transform="translate(-601.703 -346.293)" fill="#ffa6a4"/>
                <path id="Trazado_145149" data-name="Trazado 145149" d="M599.431,355.567c.269.188.512.38.765.569.124.1.237.209.362.31a1.669,1.669,0,0,0,.4.254l-.045.005c.152-.142.289-.3.439-.448s.3-.284.461-.421a6.14,6.14,0,0,1,1.035-.707l.016.019a6.12,6.12,0,0,1-.881.891c-.162.13-.329.255-.5.379s-.352.227-.519.351l-.024.018-.021-.012a4.811,4.811,0,0,0-.431-.225,2.659,2.659,0,0,1-.429-.237,2.228,2.228,0,0,1-.651-.729Z" transform="translate(-598.457 -352.638)" fill="#ffa6a4"/>
                <path id="Trazado_145150" data-name="Trazado 145150" d="M596.038,369.314a6,6,0,0,1,.661.265,4.438,4.438,0,0,1,.622.333,3.861,3.861,0,0,0,.616.349c.215.1.446.159.668.236l-.111.025a11.037,11.037,0,0,1,.711-.851,7.706,7.706,0,0,1,.819-.756l.019.016a7.711,7.711,0,0,1-.648.908,10.994,10.994,0,0,1-.755.813l-.055.055-.057-.029c-.212-.11-.411-.241-.624-.345a5.346,5.346,0,0,0-.661-.263,3.279,3.279,0,0,1-.639-.311,3.766,3.766,0,0,1-.579-.421Z" transform="translate(-596.026 -362.534)" fill="#ffa6a4"/>
                <path id="Trazado_145151" data-name="Trazado 145151" d="M605.528,386.911a1.8,1.8,0,0,1,.539.146c.081.039.156.1.239.141a.475.475,0,0,0,.259.058l-.036.017c.056-.1.1-.208.16-.3s.121-.191.191-.28a1.974,1.974,0,0,1,.513-.457l.019.015a1.985,1.985,0,0,1-.325.606c-.07.088-.151.168-.228.251s-.175.149-.258.227l-.021.02-.015,0a2.541,2.541,0,0,0-.288-.047,1.269,1.269,0,0,1-.289-.04,1.055,1.055,0,0,1-.471-.329Z" transform="translate(-602.839 -374.967)" fill="#ffa6a4"/>
                <path id="Trazado_145152" data-name="Trazado 145152" d="M607.082,402.289a2.92,2.92,0,0,1,.4,0,1.906,1.906,0,0,1,.387.046,1.941,1.941,0,0,0,.39.08,1.441,1.441,0,0,0,.393-.044l-.044.016a2.658,2.658,0,0,1,.265-.249,2.738,2.738,0,0,1,.283-.225,2.868,2.868,0,0,1,.649-.341l.015.02a2.866,2.866,0,0,1-.508.529,2.711,2.711,0,0,1-.3.209,2.683,2.683,0,0,1-.313.186l-.036.017h-.009a2.745,2.745,0,0,0-.4-.041c-.133,0-.268.028-.4.038a1.366,1.366,0,0,1-.778-.214Z" transform="translate(-603.96 -385.98)" fill="#ffa6a4"/>
              </g>
            </g>
            <g id="Grupo_124981" data-name="Grupo 124981" transform="translate(4.523)">
              <path id="Trazado_145153" data-name="Trazado 145153" d="M610.555,343.5c.946.975,2.438-.215,3.422-1.343,1.237-1.419,2.567-3.058,2.711-5.063.054-.753-.069-1.5.043-2.252.258-1.72,1.636-2.916,2.29-4.507.947-2.307.213-4.94-.7-7.071a9.749,9.749,0,0,1-1.178-4.5,9.931,9.931,0,0,1,1.59-4.137c-1.706.1-3.627.327-4.826,1.955-1.137,1.544-1.2,3.787-1.087,5.77s.286,4.114-.549,5.915c-1.133,2.447-3.952,3.892-4.03,6.613a8.681,8.681,0,0,0,1.188,3.654,4.984,4.984,0,0,1,.393,2.586,2.565,2.565,0,0,0,.644,2.3Z" transform="translate(-608.24 -314.631)" fill="#ffa6a4"/>
              <g id="Grupo_124980" data-name="Grupo 124980" transform="translate(2.14 2.388)">
                <path id="Trazado_145154" data-name="Trazado 145154" d="M615.883,353.575c.105-.656.226-1.308.337-1.96s.212-1.306.29-1.961a26.75,26.75,0,0,0,.514-3.9c.035-.654.022-1.3.026-1.976a8.221,8.221,0,0,1,.249-2.027,14.209,14.209,0,0,1,.663-1.914,14.507,14.507,0,0,1,.936-1.791,12.576,12.576,0,0,0,1.839-3.4,5.236,5.236,0,0,0,.053-1.877c-.1-.626-.265-1.274-.4-1.925a21.714,21.714,0,0,1-.564-3.977,7.614,7.614,0,0,1,.339-2.008,5.293,5.293,0,0,1,.957-1.761,5.725,5.725,0,0,0-.692,1.83,7.223,7.223,0,0,0-.08,1.93,21.287,21.287,0,0,0,.553,3.876c.136.644.3,1.28.41,1.962a5.757,5.757,0,0,1-.061,2.069,6.228,6.228,0,0,1-.83,1.886c-.355.573-.732,1.113-1.073,1.671a14.007,14.007,0,0,0-.9,1.726,13.737,13.737,0,0,0-.636,1.835,7.685,7.685,0,0,0-.233,1.9c0,.652.01,1.326-.026,1.995a28.211,28.211,0,0,1-.519,3.972C616.7,351.046,616.313,352.318,615.883,353.575Z" transform="translate(-615.867 -323.099)" fill="#f97068"/>
                <path id="Trazado_145155" data-name="Trazado 145155" d="M629.4,334.872a2.119,2.119,0,0,1-.221.585,1.646,1.646,0,0,1-.362.49,1.81,1.81,0,0,0-.4.463c-.1.175-.168.377-.257.561l-.082.17-.177-.15c-.118-.1-.231-.205-.343-.311a2.871,2.871,0,0,1-.312-.339,3.5,3.5,0,0,1-.489-.8l.03-.027a3.488,3.488,0,0,1,.762.551,2.861,2.861,0,0,1,.313.338c.1.12.192.241.283.367l-.259.02c.138-.151.3-.286.425-.448a1.823,1.823,0,0,0,.279-.546,1.636,1.636,0,0,1,.32-.519,2.134,2.134,0,0,1,.46-.424Z" transform="translate(-623.674 -331.535)" fill="#f97068"/>
                <path id="Trazado_145156" data-name="Trazado 145156" d="M631.97,355.153a2.285,2.285,0,0,1-.273.865,2.433,2.433,0,0,1-.554.71c-.233.195-.473.37-.679.581s-.4.436-.632.641l-.121.107-.109-.162-.382-.568c-.129-.188-.254-.377-.373-.571l-.36-.576a6.117,6.117,0,0,0-.391-.564l.023-.032a2.034,2.034,0,0,1,.593.408,4.085,4.085,0,0,1,.474.531,4.309,4.309,0,0,1,.382.592c.112.207.221.412.313.631l-.23-.056a4.113,4.113,0,0,0,.727-.472,2.651,2.651,0,0,0,.547-.677c.152-.247.325-.468.5-.7s.327-.463.511-.7Z" transform="translate(-624.635 -346.103)" fill="#f97068"/>
                <path id="Trazado_145157" data-name="Trazado 145157" d="M623.234,375.8a2.844,2.844,0,0,1-.768.7,3.4,3.4,0,0,1-.938.424c-.334.087-.673.139-.994.245s-.637.227-.97.332l-.068.021-.073-.072a5.4,5.4,0,0,1-.55-.671,4.369,4.369,0,0,1-.441-.748,3.872,3.872,0,0,1-.281-.83,2.34,2.34,0,0,1-.022-.875h.04a4.912,4.912,0,0,0,.27.786c.105.252.239.49.366.732l.407.716c.138.238.294.471.44.7l-.141-.051a5.144,5.144,0,0,0,.989-.158,4.164,4.164,0,0,0,.918-.407c.291-.164.595-.287.893-.426s.588-.289.9-.443Z" transform="translate(-617.456 -359.877)" fill="#f97068"/>
                <path id="Trazado_145158" data-name="Trazado 145158" d="M619.309,397.622a1.265,1.265,0,0,1-.435.37,1.506,1.506,0,0,1-.538.177,3.631,3.631,0,0,1-.564-.028,3.969,3.969,0,0,0-.553.013H617.2l-.041-.039a4.669,4.669,0,0,1-.421-.417c-.127-.148-.259-.294-.372-.453a4.268,4.268,0,0,1-.3-.5,3.241,3.241,0,0,1-.233-.556l.032-.024a3.273,3.273,0,0,1,.461.388,4.285,4.285,0,0,1,.39.44c.118.155.218.324.322.49a4.727,4.727,0,0,1,.273.526l-.064-.037a1.168,1.168,0,0,0,.523.025,4.028,4.028,0,0,0,.5-.167c.164-.049.329-.082.5-.123s.332-.087.524-.118Z" transform="translate(-615.826 -375.557)" fill="#f97068"/>
              </g>
            </g>
            <g id="Grupo_124982" data-name="Grupo 124982" transform="translate(1.272 26.964)">
              <path id="Trazado_145159" data-name="Trazado 145159" d="M607.554,421.154h-8.479a1,1,0,0,1-.992-.853l-1.357-8.908a1,1,0,0,1,.993-1.155h11.193a1,1,0,0,1,.993,1.155l-1.357,8.908A1,1,0,0,1,607.554,421.154Z" transform="translate(-596.714 -410.238)" fill="#afafaf"/>
              <path id="Trazado_145160" data-name="Trazado 145160" d="M632.1,410.238h-1.731a1,1,0,0,1,.993,1.155L630,420.3a1,1,0,0,1-.992.853h1.731a1,1,0,0,0,.992-.853l1.357-8.908A1,1,0,0,0,632.1,410.238Z" transform="translate(-619.903 -410.238)" fill="#636363"/>
            </g>
          </g>
          <g id="Grupo_124990" data-name="Grupo 124990" transform="translate(0 5.406)">
            <g id="Grupo_124985" data-name="Grupo 124985" transform="translate(6.722 5.707)">
              <path id="Trazado_145161" data-name="Trazado 145161" d="M168.136,355.544a1.737,1.737,0,0,1-.207,1.049,7.537,7.537,0,0,0-.926,3.846,8.64,8.64,0,0,1-.031,2.624c-.413,1.46-1.953,2.362-2.449,3.8-.439,1.271-.031,2.869-.944,3.856a.853.853,0,0,1-.887.308,1.081,1.081,0,0,1-.382-.318c-1.047-1.189-2.168-2.635-1.845-4.186.3-1.457,1.805-2.442,2.09-3.9.233-1.194-.378-2.571.306-3.577.189-.278.459-.49.665-.754.813-1.045.512-2.709,1.449-3.644a2.16,2.16,0,0,1,1.1-.567,1.717,1.717,0,0,1,2.057,1.472Z" transform="translate(-160.407 -354.034)" fill="#f97068"/>
              <g id="Grupo_124984" data-name="Grupo 124984" transform="translate(1.655 1.949)">
                <path id="Trazado_145162" data-name="Trazado 145162" d="M166.394,379.024c-.063-.777-.09-1.555-.118-2.335.035-.777.077-1.555.143-2.332s.154-1.554.291-2.326a9.89,9.89,0,0,1,.647-2.273c.564-1.426,1.02-2.917,1.48-4.394l.668-2.228q.412-1.091.8-2.191c-.113.772-.29,1.531-.445,2.3l-.67,2.232c-.463,1.485-.915,2.967-1.493,4.428a9.51,9.51,0,0,0-.624,2.195c-.135.756-.221,1.523-.287,2.293s-.11,1.542-.14,2.316Z" transform="translate(-166.276 -360.946)" fill="#ffa6a4"/>
                <path id="Trazado_145163" data-name="Trazado 145163" d="M176.682,367.444a1.821,1.821,0,0,1-.471.468,2.744,2.744,0,0,1-.3.151,1.132,1.132,0,0,0-.27.187l-.036.032-.031-.048c-.074-.113-.164-.219-.236-.333s-.14-.231-.2-.351a2.742,2.742,0,0,1-.252-.776l.022-.011a2.737,2.737,0,0,1,.466.67c.059.121.106.248.157.372s.078.262.124.389l-.067-.016a1.135,1.135,0,0,0,.258-.2,2.728,2.728,0,0,1,.232-.239,1.828,1.828,0,0,1,.587-.312Z" transform="translate(-172.46 -365.122)" fill="#ffa6a4"/>
                <path id="Trazado_145164" data-name="Trazado 145164" d="M173.308,376.7c-.134.11-.271.229-.415.328a3.447,3.447,0,0,1-.449.279c-.16.077-.33.137-.483.224a2.968,2.968,0,0,0-.434.305l-.049.039-.049-.064a7.75,7.75,0,0,1-.567-.879,5.537,5.537,0,0,1-.41-.968l.021-.012a5.553,5.553,0,0,1,.617.85,7.739,7.739,0,0,1,.46.939l-.1-.025a3.177,3.177,0,0,0,.466-.255c.146-.1.277-.224.418-.332a3.061,3.061,0,0,1,.457-.27,2.039,2.039,0,0,1,.509-.188Z" transform="translate(-169.274 -371.724)" fill="#ffa6a4"/>
                <path id="Trazado_145165" data-name="Trazado 145165" d="M170.172,390.587a2.239,2.239,0,0,1-.478.354,1.814,1.814,0,0,1-.543.216,1.4,1.4,0,0,0-.526.252c-.156.118-.309.249-.465.351l-.118.077-.088-.131a3.723,3.723,0,0,1-.338-.608,3.239,3.239,0,0,1-.218-.674l.027-.015a3.236,3.236,0,0,1,.452.545,3.689,3.689,0,0,1,.333.611l-.205-.054a3.5,3.5,0,0,1,.555-.221,1.6,1.6,0,0,0,.512-.286,1.666,1.666,0,0,1,.506-.3,2.053,2.053,0,0,1,.579-.146Z" transform="translate(-167.082 -382.1)" fill="#ffa6a4"/>
              </g>
            </g>
            <g id="Grupo_124987" data-name="Grupo 124987">
              <path id="Trazado_145166" data-name="Trazado 145166" d="M143.831,359.687c-.607-.1-2.885-.829-2.726-1.423.683-2.553,1.366-5.449-1-6.7-1.138-.6-2.566-.906-3.214-2.018-.667-1.145-.176-2.6.423-3.783s1.32-2.448,1.063-3.748c-.269-1.362-1.557-2.366-1.762-3.739-.281-1.874,1.538-3.384,3.287-4.116a3.081,3.081,0,0,1,1.875-.31,2.3,2.3,0,0,1,1.143.738c1.228,1.373,1.178,3.445.9,5.266s-.709,3.743-.023,5.453c.487,1.214,1.53,2.357,1.251,3.635-.112.512-.431.959-.553,1.468-.328,1.374.813,2.612,1.337,3.925a4.816,4.816,0,0,1-1.068,5.047,1.067,1.067,0,0,1-.929.3Z" transform="translate(-136.572 -333.8)" fill="#ffa6a4"/>
              <g id="Grupo_124986" data-name="Grupo 124986" transform="translate(1.558 2.959)">
                <path id="Trazado_145167" data-name="Trazado 145167" d="M151.947,367.248c-.14-1.011-.281-2.018-.461-3.017-.043-.25-.1-.5-.136-.749s-.06-.5-.1-.752q-.113-.751-.255-1.495a19.647,19.647,0,0,0-.762-2.914,6.065,6.065,0,0,0-.637-1.318,1.805,1.805,0,0,0-.461-.488,2.422,2.422,0,0,1-.615-.571,2.526,2.526,0,0,1-.443-1.586,7.785,7.785,0,0,1,.228-1.555c.234-1,.529-1.971.693-2.957a6.779,6.779,0,0,0-.06-2.927c-.08-.23-.142-.463-.218-.7a4.918,4.918,0,0,0-.29-.681,6.8,6.8,0,0,0-.851-1.248,5.745,5.745,0,0,1,1.086,1.1,5.175,5.175,0,0,1,.427.664,2.729,2.729,0,0,1,.294.739,7.241,7.241,0,0,1,.071,3.127c-.171,1.023-.47,2.006-.7,2.984a7.371,7.371,0,0,0-.216,1.459,2.062,2.062,0,0,0,.353,1.3,1.946,1.946,0,0,0,.5.461,2.247,2.247,0,0,1,.586.611,6.5,6.5,0,0,1,.691,1.421,20.093,20.093,0,0,1,.782,2.985c.1.5.182,1.008.258,1.514.035.253.082.5.113.759s.037.511.053.766C151.928,365.207,151.966,366.228,151.947,367.248Z" transform="translate(-146.031 -344.293)" fill="#f97068"/>
                <path id="Trazado_145168" data-name="Trazado 145168" d="M148.718,355.019a1.56,1.56,0,0,1,.457.272,1.642,1.642,0,0,1,.358.376,2.458,2.458,0,0,0,.3.424,3.8,3.8,0,0,0,.4.337l-.18.011c.061-.131.136-.253.2-.379a3.815,3.815,0,0,1,.226-.364c.079-.118.169-.23.255-.343s.184-.219.262-.339l.03.005a1.2,1.2,0,0,1-.09.446,2.944,2.944,0,0,1-.185.4,2.706,2.706,0,0,1-.238.364,4.074,4.074,0,0,1-.275.339l-.113.118-.067-.107a3.055,3.055,0,0,0-.3-.426,2.074,2.074,0,0,0-.4-.328,1.971,1.971,0,0,1-.365-.359,3.179,3.179,0,0,1-.3-.425Z" transform="translate(-146.837 -351.99)" fill="#f97068"/>
                <path id="Trazado_145169" data-name="Trazado 145169" d="M148.738,367.954a2.479,2.479,0,0,1-.272.481,3.464,3.464,0,0,1-.348.418c-.131.125-.282.232-.423.347a2.533,2.533,0,0,0-.371.395l-.035.046-.05-.04a4.178,4.178,0,0,1-.475-.436c-.137-.157-.283-.305-.411-.469s-.249-.331-.364-.5-.219-.353-.339-.521l.017-.026a2.177,2.177,0,0,1,.515.384,4.859,4.859,0,0,1,.427.459c.133.16.246.336.37.5s.223.365.337.508l-.085.007a2.23,2.23,0,0,0,.374-.389c.106-.148.2-.3.312-.446a4.709,4.709,0,0,1,.373-.389,4.079,4.079,0,0,1,.423-.347Z" transform="translate(-144.649 -361.06)" fill="#f97068"/>
                <path id="Trazado_145170" data-name="Trazado 145170" d="M142.125,377.89c.192.225.391.433.594.631s.423.372.636.563a2.065,2.065,0,0,0,.742.432,2.736,2.736,0,0,0,.853.1l-.127.089a5.709,5.709,0,0,1,.2-.691,3.877,3.877,0,0,1,.294-.658,3.234,3.234,0,0,1,.421-.595,1.577,1.577,0,0,1,.591-.426l.016.027a2.312,2.312,0,0,0-.426.536,6.622,6.622,0,0,0-.319.6l-.284.628c-.093.21-.175.429-.257.642l-.039.1-.087-.014a4.9,4.9,0,0,1-.867-.248,8.79,8.79,0,0,1-.832-.342,2.178,2.178,0,0,1-.7-.574,2.237,2.237,0,0,1-.438-.787Z" transform="translate(-142.097 -368.012)" fill="#f97068"/>
                <path id="Trazado_145171" data-name="Trazado 145171" d="M151.546,387.414a1.727,1.727,0,0,1,.119.709,2.329,2.329,0,0,1-.133.711,2.544,2.544,0,0,1-.365.621l-.425.565-.03.04-.049-.035a6.275,6.275,0,0,0-.741-.417c-.249-.134-.507-.248-.765-.358s-.516-.224-.781-.323-.533-.194-.808-.3l0-.031a4.069,4.069,0,0,1,1.716.349,5.371,5.371,0,0,1,.77.429,5.189,5.189,0,0,1,.678.563l-.079.005a1.977,1.977,0,0,0,.392-.56,4.872,4.872,0,0,0,.222-.639,5.043,5.043,0,0,0,.243-1.325Z" transform="translate(-146.025 -375.252)" fill="#f97068"/>
              </g>
            </g>
            <g id="Grupo_124989" data-name="Grupo 124989" transform="translate(2.636 21.584)">
              <g id="Grupo_124988" data-name="Grupo 124988">
                <path id="Trazado_145172" data-name="Trazado 145172" d="M154.672,421.219h-6.5a1.306,1.306,0,0,1-1.207-1.228l-1.029-8a1.386,1.386,0,0,1,1.207-1.663H155.7a1.386,1.386,0,0,1,1.207,1.663l-1.029,8A1.306,1.306,0,0,1,154.672,421.219Z" transform="translate(-145.919 -410.329)" fill="#afafaf"/>
              </g>
              <path id="Trazado_145173" data-name="Trazado 145173" d="M174.381,410.329h-1.416a1.386,1.386,0,0,1,1.207,1.663l-1.029,8a1.307,1.307,0,0,1-1.208,1.228h1.416a1.306,1.306,0,0,0,1.207-1.228l1.029-8A1.386,1.386,0,0,0,174.381,410.329Z" transform="translate(-164.597 -410.329)" fill="#636363"/>
            </g>
          </g>
        </g>
        <g id="Grupo_124995" data-name="Grupo 124995" transform="translate(0 2.196)">
          <g id="Grupo_124992" data-name="Grupo 124992" transform="translate(0 51.062)">
            <rect id="Rectángulo_34207" data-name="Rectángulo 34207" width="23.507" height="14.079" rx="2" transform="translate(0 0)" fill="#db6464"/>
            <path id="Trazado_145174" data-name="Trazado 145174" d="M59.194,276.553H38.223a1.268,1.268,0,0,1-1.268-1.268l11.754-7.8,11.754,7.8A1.268,1.268,0,0,1,59.194,276.553Z" transform="translate(-36.955 -262.473)" fill="#db6464"/>
            <path id="Trazado_145175" data-name="Trazado 145175" d="M59.194,249.721H38.223a1.268,1.268,0,0,0-1.268,1.268l11.754,7.8,11.754-7.8A1.268,1.268,0,0,0,59.194,249.721Z" transform="translate(-36.955 -249.721)" fill="#bf5d5d"/>
          </g>
          <g id="Grupo_124993" data-name="Grupo 124993" transform="translate(112.457)">
            <path id="Trazado_145176" data-name="Trazado 145176" d="M485.245,68.671H438.334a2.646,2.646,0,0,0-2.646,2.646V82.289a2.646,2.646,0,0,0,2.646,2.646h4.712L441.44,88.9l5.339-3.964h38.466a2.646,2.646,0,0,0,2.646-2.646V71.317A2.646,2.646,0,0,0,485.245,68.671Z" transform="translate(-435.688 -68.671)" fill="#023055"/>
            <path id="Trazado_145177" data-name="Trazado 145177" d="M495.194,86.7H459.442a.618.618,0,0,1,0-1.236h35.752a.618.618,0,1,1,0,1.236Zm.618,2.158a.618.618,0,0,0-.618-.618H454.477a.618.618,0,1,0,0,1.236h40.717A.618.618,0,0,0,495.813,88.862Zm-17.876,2.777a.618.618,0,0,0-.618-.618H454.477a.618.618,0,1,0,0,1.236h22.841A.618.618,0,0,0,477.937,91.639Z" transform="translate(-448.734 -80.73)" fill="#fff"/>
          </g>
          <path id="Trazado_145178" data-name="Trazado 145178" d="M619.49,237.913a5.518,5.518,0,0,0-.838,6.72l-9.277,9.276a.487.487,0,0,0,0,.688l1.237,1.237a.486.486,0,0,0,.688,0l.659-.659,1.714,1.714a.487.487,0,0,0,.688,0l1.013-1.013a.487.487,0,0,0,0-.688l-1.714-1.714.888-.888,1.464,1.464a.486.486,0,0,0,.688,0l1.013-1.013a.486.486,0,0,0,0-.688l-1.464-1.465,4.328-4.327a5.518,5.518,0,1,0-1.087-8.645Zm6.079,6.079a3.077,3.077,0,1,1,0-4.351A3.077,3.077,0,0,1,625.569,243.992Z" transform="translate(-447.831 -189.02)" fill="#023055"/>
          <g id="Grupo_124994" data-name="Grupo 124994" transform="translate(12.389 70.257)">
            <path id="Trazado_145179" data-name="Trazado 145179" d="M84.9,329.764a7.585,7.585,0,0,1-.332-1.276,2.807,2.807,0,0,1,.1-1.289,3.637,3.637,0,0,1,.873-1.383q.2-.222.593-.613a8.678,8.678,0,0,0,.758-.874,3.888,3.888,0,0,0,.561-1,1.4,1.4,0,0,0,.028-.985,1.022,1.022,0,0,0-.4-.528,1.323,1.323,0,0,0-.641-.219,1.771,1.771,0,0,0-.722.1,1.565,1.565,0,0,0-.809.58,2.453,2.453,0,0,0-.362.795c-.067.272-.136.505-.2.7l-3.454-.993a4.689,4.689,0,0,1,.539-1.973,5.279,5.279,0,0,1,1.3-1.586,6.145,6.145,0,0,1,1.92-1.073,6.777,6.777,0,0,1,1.835-.365,5.239,5.239,0,0,1,1.89.226,4.191,4.191,0,0,1,1.676,1.014,5.016,5.016,0,0,1,1.2,1.994,6.06,6.06,0,0,1,.275,1.074,3.811,3.811,0,0,1,.022,1.048,3.939,3.939,0,0,1-.276,1.038,4.9,4.9,0,0,1-.6,1.037,9.543,9.543,0,0,1-1.088,1.247,8.418,8.418,0,0,0-.95,1.058,1.035,1.035,0,0,0-.189,1Zm1.526,4.121-.072-.2a1.877,1.877,0,0,1,1.148-2.393h0a1.877,1.877,0,0,1,2.393,1.148l.072.2a1.876,1.876,0,0,1-1.148,2.393h0A1.877,1.877,0,0,1,86.425,333.886Z" transform="translate(-80.882 -317.777)" fill="#fff"/>
          </g>
        </g>
      </g>
    </g>
    <rect id="Rectángulo_34635" data-name="Rectángulo 34635" width="190" height="8" transform="translate(495 6399.001)" fill="#023055"/>
  </g>
</svg>
