<svg xmlns="http://www.w3.org/2000/svg" xmlns:xlink="http://www.w3.org/1999/xlink" width="295.325" height="350.612" viewBox="0 0 295.325 350.612">
  <defs>
    <linearGradient id="linear-gradient" x1="0.5" y1="1" x2="0.5" gradientUnits="objectBoundingBox">
      <stop offset="0" stop-color="#db6464"/>
      <stop offset="1" stop-color="#ad1457"/>
    </linearGradient>
    <linearGradient id="linear-gradient-2" x1="0.485" y1="1.184" x2="0.5" y2="0.546" gradientUnits="objectBoundingBox">
      <stop offset="0" stop-color="#ad1457" stop-opacity="0.788"/>
      <stop offset="0.462" stop-color="#652056" stop-opacity="0.584"/>
      <stop offset="0.67" stop-color="#452556" stop-opacity="0.275"/>
      <stop offset="1" stop-color="#023055" stop-opacity="0"/>
    </linearGradient>
  </defs>
  <g id="Grupo_120678" data-name="Grupo 120678" transform="translate(8210.324 4998.556)">
    <path id="Rect치ngulo_33983" data-name="Rect치ngulo 33983" d="M0,0H160.9A145.606,145.606,0,0,1,306.505,145.606v0A145.606,145.606,0,0,1,160.9,291.212H0a0,0,0,0,1,0,0V0A0,0,0,0,1,0,0Z" transform="translate(-8210.324 -4670.247) rotate(-90)" fill="url(#linear-gradient)"/>
    <g id="Grupo_120678-2" data-name="Grupo 120678" transform="translate(-8202.133 -4998.556)">
      <g id="Grupo_120785" data-name="Grupo 120785" transform="translate(83.77 0)">
        <g id="Grupo_120679" data-name="Grupo 120679" transform="translate(34.654)">
          <g id="Grupo_120678-3" data-name="Grupo 120678">
            <path id="Trazado_143832" data-name="Trazado 143832" d="M564.464,215.968A10.489,10.489,0,0,1,575.08,210.1a14.337,14.337,0,0,1,17.65-.542,12.752,12.752,0,0,1,19.735,9.461,10.655,10.655,0,0,1,10.188,17.472,10.243,10.243,0,0,1-3.321,20.111l-52.366-28.767A10.491,10.491,0,0,1,564.464,215.968Z" transform="translate(-563.593 -206.784)" fill="#263238"/>
          </g>
        </g>
        <g id="Grupo_120772" data-name="Grupo 120772" transform="translate(0 4.939)">
          <g id="Grupo_120768" data-name="Grupo 120768" transform="translate(1.662 5.433)">
            <g id="Grupo_120683" data-name="Grupo 120683" transform="translate(10.08 2.988)">
              <g id="Grupo_120682" data-name="Grupo 120682">
                <g id="Grupo_120681" data-name="Grupo 120681">
                  <g id="Grupo_120680" data-name="Grupo 120680">
                    <path id="Trazado_143833" data-name="Trazado 143833" d="M646,253.284a43.456,43.456,0,0,0-45.252-37.764l-2.247.111c-24.167,2.621-35.442,24.607-32.155,48.693l7.52,80.532.4,3.909,56.485,8.434-1.1-20.568s23.119-4.781,22.25-28.089C651.489,297.283,648.738,274.172,646,253.284Z" transform="translate(-565.792 -215.466)" fill="#ffbf9d"/>
                  </g>
                </g>
              </g>
            </g>
            <g id="Grupo_120689" data-name="Grupo 120689" transform="translate(43.17 116.693)">
              <g id="Grupo_120688" data-name="Grupo 120688" transform="translate(0)">
                <g id="Grupo_120687" data-name="Grupo 120687">
                  <g id="Grupo_120686" data-name="Grupo 120686">
                    <g id="Grupo_120685" data-name="Grupo 120685">
                      <g id="Grupo_120684" data-name="Grupo 120684">
                        <path id="Trazado_143834" data-name="Trazado 143834" d="M610.99,296.774s-14.831,1.634-30.967-7.417c0,0,8.011,16.408,31.152,13.155Z" transform="translate(-580.023 -289.357)" fill="#ff9a6c"/>
                      </g>
                    </g>
                  </g>
                </g>
              </g>
            </g>
            <g id="Grupo_120698" data-name="Grupo 120698" transform="translate(78.61 60.609)">
              <g id="Grupo_120697" data-name="Grupo 120697" transform="translate(0)">
                <g id="Grupo_120696" data-name="Grupo 120696">
                  <g id="Grupo_120695" data-name="Grupo 120695">
                    <g id="Grupo_120694" data-name="Grupo 120694">
                      <g id="Grupo_120693" data-name="Grupo 120693">
                        <g id="Grupo_120692" data-name="Grupo 120692">
                          <g id="Grupo_120691" data-name="Grupo 120691">
                            <g id="Grupo_120690" data-name="Grupo 120690">
                              <path id="Trazado_143835" data-name="Trazado 143835" d="M579.55,255.76a3.331,3.331,0,0,1-3.041,3.516,3.184,3.184,0,0,1-3.578-2.828,3.331,3.331,0,0,1,3.036-3.518A3.187,3.187,0,0,1,579.55,255.76Z" transform="translate(-572.921 -252.911)" fill="#263238"/>
                            </g>
                          </g>
                        </g>
                      </g>
                    </g>
                  </g>
                </g>
              </g>
            </g>
            <g id="Grupo_120708" data-name="Grupo 120708" transform="translate(72.692 49.267)">
              <g id="Grupo_120707" data-name="Grupo 120707" transform="translate(0)">
                <g id="Grupo_120706" data-name="Grupo 120706">
                  <g id="Grupo_120705" data-name="Grupo 120705">
                    <g id="Grupo_120704" data-name="Grupo 120704">
                      <g id="Grupo_120703" data-name="Grupo 120703">
                        <g id="Grupo_120702" data-name="Grupo 120702">
                          <g id="Grupo_120701" data-name="Grupo 120701">
                            <g id="Grupo_120700" data-name="Grupo 120700">
                              <g id="Grupo_120699" data-name="Grupo 120699">
                                <path id="Trazado_143836" data-name="Trazado 143836" d="M585.659,248.727c-.389.454-3-1.286-6.581-1.1-3.579.135-6.114,2.108-6.525,1.69-.2-.186.182-.989,1.283-1.879a9.144,9.144,0,0,1,5.2-1.89,8.783,8.783,0,0,1,5.267,1.417C585.442,247.756,585.854,248.522,585.659,248.727Z" transform="translate(-572.502 -245.54)" fill="#263238"/>
                              </g>
                            </g>
                          </g>
                        </g>
                      </g>
                    </g>
                  </g>
                </g>
              </g>
            </g>
            <g id="Grupo_120717" data-name="Grupo 120717" transform="translate(47.016 62.754)">
              <g id="Grupo_120716" data-name="Grupo 120716" transform="translate(0)">
                <g id="Grupo_120715" data-name="Grupo 120715">
                  <g id="Grupo_120714" data-name="Grupo 120714">
                    <g id="Grupo_120713" data-name="Grupo 120713">
                      <g id="Grupo_120712" data-name="Grupo 120712">
                        <g id="Grupo_120711" data-name="Grupo 120711">
                          <g id="Grupo_120710" data-name="Grupo 120710">
                            <g id="Grupo_120709" data-name="Grupo 120709">
                              <path id="Trazado_143837" data-name="Trazado 143837" d="M600.083,257.155a3.33,3.33,0,0,1-3.041,3.515,3.185,3.185,0,0,1-3.579-2.828,3.334,3.334,0,0,1,3.037-3.518A3.187,3.187,0,0,1,600.083,257.155Z" transform="translate(-593.452 -254.305)" fill="#263238"/>
                            </g>
                          </g>
                        </g>
                      </g>
                    </g>
                  </g>
                </g>
              </g>
            </g>
            <g id="Grupo_120727" data-name="Grupo 120727" transform="translate(37.536 51.685)">
              <g id="Grupo_120726" data-name="Grupo 120726">
                <g id="Grupo_120725" data-name="Grupo 120725">
                  <g id="Grupo_120724" data-name="Grupo 120724">
                    <g id="Grupo_120723" data-name="Grupo 120723">
                      <g id="Grupo_120722" data-name="Grupo 120722">
                        <g id="Grupo_120721" data-name="Grupo 120721">
                          <g id="Grupo_120720" data-name="Grupo 120720">
                            <g id="Grupo_120719" data-name="Grupo 120719">
                              <g id="Grupo_120718" data-name="Grupo 120718">
                                <path id="Trazado_143838" data-name="Trazado 143838" d="M608.506,250.3c-.391.454-3.007-1.285-6.585-1.1-3.576.137-6.112,2.108-6.523,1.69-.2-.185.177-.989,1.285-1.879a9.139,9.139,0,0,1,5.2-1.888,8.784,8.784,0,0,1,5.267,1.416C608.285,249.325,608.7,250.092,608.506,250.3Z" transform="translate(-595.348 -247.111)" fill="#263238"/>
                              </g>
                            </g>
                          </g>
                        </g>
                      </g>
                    </g>
                  </g>
                </g>
              </g>
            </g>
            <g id="Grupo_120736" data-name="Grupo 120736" transform="translate(61.854 51.025)">
              <g id="Grupo_120735" data-name="Grupo 120735" transform="translate(0)">
                <g id="Grupo_120734" data-name="Grupo 120734">
                  <g id="Grupo_120733" data-name="Grupo 120733">
                    <g id="Grupo_120732" data-name="Grupo 120732">
                      <g id="Grupo_120731" data-name="Grupo 120731">
                        <g id="Grupo_120730" data-name="Grupo 120730">
                          <g id="Grupo_120729" data-name="Grupo 120729">
                            <g id="Grupo_120728" data-name="Grupo 120728">
                              <path id="Trazado_143839" data-name="Trazado 143839" d="M583.384,276.43c-.026-.2,2.179-.7,5.763-1.339.909-.139,1.765-.363,1.888-1a4.659,4.659,0,0,0-.745-2.679q-1.454-3.255-3.048-6.826c-4.247-9.724-7.369-17.738-6.977-17.906s4.155,7.579,8.4,17.3q1.537,3.6,2.938,6.874c.4,1.022,1.051,2.17.652,3.564a2.3,2.3,0,0,1-1.436,1.411,6.2,6.2,0,0,1-1.542.292C585.658,276.5,583.408,276.632,583.384,276.43Z" transform="translate(-580.231 -246.682)" fill="#263238"/>
                            </g>
                          </g>
                        </g>
                      </g>
                    </g>
                  </g>
                </g>
              </g>
            </g>
            <g id="Grupo_120745" data-name="Grupo 120745" transform="translate(54.101 83.771)">
              <g id="Grupo_120744" data-name="Grupo 120744" transform="translate(0)">
                <g id="Grupo_120743" data-name="Grupo 120743">
                  <g id="Grupo_120742" data-name="Grupo 120742">
                    <g id="Grupo_120741" data-name="Grupo 120741">
                      <g id="Grupo_120740" data-name="Grupo 120740">
                        <g id="Grupo_120739" data-name="Grupo 120739">
                          <g id="Grupo_120738" data-name="Grupo 120738">
                            <g id="Grupo_120737" data-name="Grupo 120737">
                              <path id="Trazado_143840" data-name="Trazado 143840" d="M585.615,267.963c.58-.063.78,3.822,4.244,6.415s7.577,1.96,7.636,2.5c.066.242-.886.8-2.631.936a9.68,9.68,0,0,1-6.363-1.868,8.444,8.444,0,0,1-3.31-5.39C584.962,268.937,585.347,267.954,585.615,267.963Z" transform="translate(-585.121 -267.962)" fill="#263238"/>
                            </g>
                          </g>
                        </g>
                      </g>
                    </g>
                  </g>
                </g>
              </g>
            </g>
            <g id="Grupo_120750" data-name="Grupo 120750" transform="translate(34.664 38.435)">
              <g id="Grupo_120749" data-name="Grupo 120749">
                <g id="Grupo_120748" data-name="Grupo 120748">
                  <g id="Grupo_120747" data-name="Grupo 120747">
                    <g id="Grupo_120746" data-name="Grupo 120746">
                      <path id="Trazado_143841" data-name="Trazado 143841" d="M611.479,240.86c-.3.991-3.9.708-8.076,1.422-4.19.631-7.516,2.03-8.117,1.183-.268-.4.277-1.35,1.6-2.361a14.252,14.252,0,0,1,12.337-1.984C610.795,239.664,611.609,240.391,611.479,240.86Z" transform="translate(-595.22 -238.501)" fill="#263238"/>
                    </g>
                  </g>
                </g>
              </g>
            </g>
            <g id="Grupo_120755" data-name="Grupo 120755" transform="translate(73.596 38.749)">
              <g id="Grupo_120754" data-name="Grupo 120754" transform="translate(0)">
                <g id="Grupo_120753" data-name="Grupo 120753">
                  <g id="Grupo_120752" data-name="Grupo 120752">
                    <g id="Grupo_120751" data-name="Grupo 120751">
                      <path id="Trazado_143842" data-name="Trazado 143842" d="M584.724,242.113c-.589.845-3.1.123-6.064.231-2.97,0-5.449.819-6.069,0-.274-.4.08-1.234,1.14-2.059a8.8,8.8,0,0,1,9.778-.183C584.6,240.884,584.983,241.7,584.724,242.113Z" transform="translate(-572.502 -238.705)" fill="#263238"/>
                    </g>
                  </g>
                </g>
              </g>
            </g>
            <g id="Grupo_120759" data-name="Grupo 120759" transform="translate(4.371)">
              <g id="Grupo_120758" data-name="Grupo 120758">
                <g id="Grupo_120757" data-name="Grupo 120757">
                  <g id="Grupo_120756" data-name="Grupo 120756">
                    <path id="Trazado_143843" data-name="Trazado 143843" d="M654.6,243.759s-6.869-14.283-14.072-17.338c-8.72-3.7-11.923,5.832-20.151,3.966s-16.554-5.415-24.538,1.27c-8.736,7.319-4.244,11.924-4.29,22.29-.192,42.017-7.256,54.249-10.415,34.619-.345-2.151-6.432-3.573-7.776-12.664-1.742-11.79-2.911-26.154-.686-34.692,1.877-7.2,5.675-12.3,12.652-18.053,11.015-9.088,26.715-10.053,37.438-9.508S654.66,225.444,654.6,243.759Z" transform="translate(-571.446 -213.524)" fill="#263238"/>
                  </g>
                </g>
              </g>
            </g>
            <g id="Grupo_120763" data-name="Grupo 120763" transform="translate(0 68.513)">
              <g id="Grupo_120762" data-name="Grupo 120762">
                <g id="Grupo_120761" data-name="Grupo 120761">
                  <g id="Grupo_120760" data-name="Grupo 120760">
                    <path id="Trazado_143844" data-name="Trazado 143844" d="M632.743,263.867a6.332,6.332,0,0,0-7.131-5.755c-4.322.629-9.036,3.336-8.3,12.3,1.3,15.9,16.995,11.316,16.985,10.858C634.289,280.958,633.346,270.516,632.743,263.867Z" transform="translate(-617.234 -258.047)" fill="#ffbf9d"/>
                  </g>
                </g>
              </g>
            </g>
            <g id="Grupo_120767" data-name="Grupo 120767" transform="translate(5.497 73.692)">
              <g id="Grupo_120766" data-name="Grupo 120766">
                <g id="Grupo_120765" data-name="Grupo 120765">
                  <g id="Grupo_120764" data-name="Grupo 120764">
                    <path id="Trazado_143845" data-name="Trazado 143845" d="M627.4,273.756c-.074-.045-.262.217-.712.469a2.782,2.782,0,0,1-2.067.212c-1.73-.48-3.362-3.03-3.675-5.891a9.171,9.171,0,0,1,.452-4.029,3.205,3.205,0,0,1,1.908-2.3,1.412,1.412,0,0,1,1.7.625c.249.426.175.752.262.772.048.037.319-.294.137-.94a1.766,1.766,0,0,0-.706-.945,2.107,2.107,0,0,0-1.565-.28,3.905,3.905,0,0,0-2.691,2.7,9.417,9.417,0,0,0-.6,4.51c.363,3.2,2.248,6.06,4.6,6.537a2.982,2.982,0,0,0,2.5-.628C627.407,274.142,627.461,273.781,627.4,273.756Z" transform="translate(-619.788 -261.413)" fill="#ff9a6c"/>
                  </g>
                </g>
              </g>
            </g>
          </g>
          <g id="Grupo_120771" data-name="Grupo 120771">
            <g id="Grupo_120770" data-name="Grupo 120770">
              <g id="Grupo_120769" data-name="Grupo 120769">
                <path id="Trazado_143846" data-name="Trazado 143846" d="M595.075,258.887c2.139,1.308,4.4,2.656,6.9,2.779s5.284-1.451,5.581-3.941c.134-1.117-.2-2.39.485-3.284.819-1.065,2.44-.825,3.781-.749a10.178,10.178,0,0,0,10.19-7.813c1.268,1.71,4.021,1.5,5.751.255s2.787-3.184,4.106-4.855,3.211-3.2,5.332-3.007c1.185.109,2.322.756,3.5.591,2.084-.289,2.982-2.79,3.195-4.881s.34-4.526,2.054-5.741c1.59-1.128,3.749-.629,5.687-.44s4.4-.388,4.8-2.294a3.788,3.788,0,0,0-.857-2.854,10.327,10.327,0,0,0-12.369-3.3,14,14,0,0,0-25.821-1.434,14.205,14.205,0,0,0-22.424,6.3,10.3,10.3,0,0,0-10.852,15.534c-2.782,1.777-5.092,4.744-4.987,8.043s3.479,6.424,6.617,5.4a5.7,5.7,0,0,0,10.133,5.19" transform="translate(-579.126 -209.993)" fill="#263238"/>
              </g>
            </g>
          </g>
        </g>
        <g id="Grupo_120775" data-name="Grupo 120775" transform="translate(5.413 48.165)">
          <g id="Grupo_120774" data-name="Grupo 120774">
            <g id="Grupo_120773" data-name="Grupo 120773">
              <path id="Trazado_143847" data-name="Trazado 143847" d="M610.624,238.085c-.057-.04-.226,1.353,1.145,3.011a5.124,5.124,0,0,0,3.285,1.745,5.527,5.527,0,0,0,4.475-1.545l-.679-.068a15.942,15.942,0,0,0,3.376,3.813,9.168,9.168,0,0,0,2.993,1.66,7.082,7.082,0,0,0,7.685-2.725,9.22,9.22,0,0,0,1.125-3.379,3.129,3.129,0,0,0,.058-1.293c-.069-.011-.183.434-.408,1.217a10.753,10.753,0,0,1-1.32,3.1c-1.4,2.357-6.257,3.769-9.559.7a16.023,16.023,0,0,1-3.218-3.572l-.3-.456-.375.388a4.843,4.843,0,0,1-3.779,1.414,4.694,4.694,0,0,1-2.958-1.376A7.729,7.729,0,0,1,610.624,238.085Z" transform="translate(-610.586 -238.084)" fill="#455a64"/>
            </g>
          </g>
        </g>
        <g id="Grupo_120778" data-name="Grupo 120778" transform="translate(33.737 3.405)">
          <g id="Grupo_120777" data-name="Grupo 120777">
            <g id="Grupo_120776" data-name="Grupo 120776">
              <path id="Trazado_143848" data-name="Trazado 143848" d="M579.439,215.888c-.006.057.42.092,1.148.357a5.5,5.5,0,0,1,2.577,1.98l.2.294.206-.306a19.84,19.84,0,0,1,7.391-6.617,15.5,15.5,0,0,1,6.2-1.688,12.937,12.937,0,0,1,6.84,1.593,13.151,13.151,0,0,1,4.206,3.605,10.806,10.806,0,0,1,1.99,4.715l.075.5.475-.157a8.962,8.962,0,0,1,6.66.477,8.735,8.735,0,0,1,3.813,3.7,11.962,11.962,0,0,1,1.228,4.669,3.3,3.3,0,0,0,.128-1.313,8.858,8.858,0,0,0-.9-3.59,9.072,9.072,0,0,0-3.952-4.1,9.572,9.572,0,0,0-7.243-.648l.551.345a11.489,11.489,0,0,0-2.105-5.133,13.831,13.831,0,0,0-4.49-3.879,13.647,13.647,0,0,0-7.325-1.673,15.972,15.972,0,0,0-6.523,1.86,19.388,19.388,0,0,0-7.443,7.065l.411-.012a5.415,5.415,0,0,0-2.9-1.94A2.417,2.417,0,0,0,579.439,215.888Z" transform="translate(-579.439 -208.997)" fill="#455a64"/>
            </g>
          </g>
        </g>
        <g id="Grupo_120781" data-name="Grupo 120781" transform="translate(50.639 91.406)">
          <g id="Grupo_120780" data-name="Grupo 120780" transform="translate(0)">
            <g id="Grupo_120779" data-name="Grupo 120779">
              <path id="Trazado_143849" data-name="Trazado 143849" d="M593.706,271.513c.259-.012.274-1.694,1.56-3.148,1.234-1.5,2.895-1.779,2.865-2.036,0-.112-.457-.223-1.174-.065a4.735,4.735,0,0,0-3.5,4.1C593.414,271.1,593.594,271.525,593.706,271.513Z" transform="translate(-593.452 -266.185)" fill="#ff9a6c"/>
            </g>
          </g>
        </g>
        <g id="Grupo_120784" data-name="Grupo 120784" transform="translate(49.193 90.391)">
          <g id="Grupo_120783" data-name="Grupo 120783" transform="translate(0)">
            <g id="Grupo_120782" data-name="Grupo 120782">
              <path id="Trazado_143850" data-name="Trazado 143850" d="M595.35,267.538c.228.125.78-.459,1.607-.877.816-.443,1.608-.566,1.636-.825.054-.243-.971-.563-2.062.012S595.119,267.442,595.35,267.538Z" transform="translate(-595.279 -265.525)" fill="#ff9a6c"/>
            </g>
          </g>
        </g>
      </g>
      <g id="Grupo_120855" data-name="Grupo 120855" transform="translate(0 128.27)">
        <g id="Grupo_120788" data-name="Grupo 120788" transform="translate(0 98.289)">
          <g id="Grupo_120787" data-name="Grupo 120787">
            <g id="Grupo_120786" data-name="Grupo 120786">
              <path id="Trazado_143851" data-name="Trazado 143851" d="M692.958,386.184l-21.143,20.377,6.831-38.972-42.913-13.575s-11.4,53.484-13.378,66.133c-3.558,22.7.809,54.963,21.962,57.235,22.882,2.456,40.16-20.112,51.156-34.923,8.453-11.386,22.1-31.293,22.1-31.293l-24.61-24.981" transform="translate(-621.241 -354.014)" fill="#023055"/>
            </g>
          </g>
        </g>
        <g id="Grupo_120791" data-name="Grupo 120791" transform="translate(203.729 95.799)">
          <g id="Grupo_120790" data-name="Grupo 120790" transform="translate(0)">
            <g id="Grupo_120789" data-name="Grupo 120789">
              <path id="Trazado_143852" data-name="Trazado 143852" d="M549.187,352.4c6.886,21.685,16.513,24.961,20.315,87.074.742,12.114-1.871,28.276-13.361,32.18-12.763,4.338-31.917-3.562-38.044-14.037l-.38-42.776Z" transform="translate(-517.716 -352.396)" fill="#023055"/>
            </g>
          </g>
        </g>
        <g id="Grupo_120795" data-name="Grupo 120795" transform="translate(206.731 169.196)">
          <g id="Grupo_120794" data-name="Grupo 120794" transform="translate(0)">
            <g id="Grupo_120793" data-name="Grupo 120793">
              <g id="Grupo_120792" data-name="Grupo 120792">
                <path id="Trazado_143853" data-name="Trazado 143853" d="M542.962,417.42c.232.071,1.416-4.333,4.226-9.127,2.771-4.818,6.009-8.031,5.832-8.2a9.233,9.233,0,0,0-2.219,2,33.534,33.534,0,0,0-7.2,12.4A9.3,9.3,0,0,0,542.962,417.42Z" transform="translate(-542.94 -400.093)"/>
              </g>
            </g>
          </g>
        </g>
        <g id="Grupo_120798" data-name="Grupo 120798" transform="translate(5.723 26.788)">
          <g id="Grupo_120797" data-name="Grupo 120797">
            <g id="Grupo_120796" data-name="Grupo 120796">
              <path id="Trazado_143854" data-name="Trazado 143854" d="M764.1,401.558c-.362-1.283-21.542-58.933-28.3-71.553-8.083-15.1-25.077-21.773-35.625-22.422s-123.431,8.345-123.431,8.345-31.619,7.943-38.016,36.553c-8.022,35.876-14.477,71.256-14.477,71.256l56.576,12.217,6.657-16.762,106.3,23.718,25.958-38.4Z" transform="translate(-524.254 -307.549)" fill="#023055"/>
            </g>
          </g>
        </g>
        <g id="Grupo_120813" data-name="Grupo 120813" transform="translate(50.758)">
          <g id="Grupo_120801" data-name="Grupo 120801">
            <g id="Grupo_120800" data-name="Grupo 120800">
              <g id="Grupo_120799" data-name="Grupo 120799">
                <path id="Trazado_143855" data-name="Trazado 143855" d="M551.2,328.6l44.4-19.439,4.976-19.016,51.829,24.332,10.856-11.911,4.545,13.424,11.358,3.687,22.345,43.76,4.118,101.389-.384,26.334-153.181,1.013,1.243-43.119Z" transform="translate(-551.198 -290.141)" fill="#023055"/>
              </g>
            </g>
          </g>
          <g id="Grupo_120805" data-name="Grupo 120805" transform="translate(44.97 0)">
            <g id="Grupo_120804" data-name="Grupo 120804">
              <g id="Grupo_120803" data-name="Grupo 120803">
                <g id="Grupo_120802" data-name="Grupo 120802">
                  <path id="Trazado_143856" data-name="Trazado 143856" d="M590.1,290.141s5.754,1.665,20.534,9.55c14.479,7.726,30.933,14.782,30.933,14.782l-1.251,23.241-54.772-27.5" transform="translate(-585.543 -290.141)" fill="#023055"/>
                </g>
              </g>
            </g>
          </g>
          <g id="Grupo_120809" data-name="Grupo 120809" transform="translate(101.286 12.421)">
            <g id="Grupo_120808" data-name="Grupo 120808" transform="translate(0)">
              <g id="Grupo_120807" data-name="Grupo 120807">
                <g id="Grupo_120806" data-name="Grupo 120806">
                  <path id="Trazado_143857" data-name="Trazado 143857" d="M586.34,298.213l-10.781,11.911,5.762,24.912,9.6-22.516" transform="translate(-575.559 -298.213)" fill="#023055"/>
                </g>
              </g>
            </g>
          </g>
          <g id="Grupo_120812" data-name="Grupo 120812" transform="translate(49.809 22.481)" opacity="0.3">
            <g id="Grupo_120811" data-name="Grupo 120811">
              <g id="Grupo_120810" data-name="Grupo 120810">
                <path id="Trazado_143858" data-name="Trazado 143858" d="M634.59,309.173c.477.355,3.47,28.75,3.47,28.75l-54.9-33.172,49.98,25.092Z" transform="translate(-583.158 -304.75)"/>
              </g>
            </g>
          </g>
        </g>
        <path id="Trazado_143859" data-name="Trazado 143859" d="M566.2,403.9c-.825-21.717,2.6-77.122,2.6-77.122l7.157-1.153a808.646,808.646,0,0,1,18.361,119.858l2.02,26.709-30.265.2S567.2,430.286,566.2,403.9Z" transform="translate(-415.111 -271.024)" fill="#455a64"/>
        <g id="Grupo_120817" data-name="Grupo 120817" transform="translate(54.215 89.656)">
          <g id="Grupo_120816" data-name="Grupo 120816" transform="translate(0)">
            <g id="Grupo_120815" data-name="Grupo 120815">
              <g id="Grupo_120814" data-name="Grupo 120814">
                <path id="Trazado_143860" data-name="Trazado 143860" d="M651.951,348.4a13.442,13.442,0,0,0-.509,2.244l-1.116,6.164c-.919,5.34-2.145,12.474-3.5,20.358-1.385,7.95-2.567,15.163-3.342,20.4-.391,2.616-.691,4.735-.879,6.2a13.156,13.156,0,0,0-.219,2.291,13.308,13.308,0,0,0,.511-2.244c.289-1.59.665-3.662,1.119-6.163.934-5.338,2.182-12.469,3.561-20.352,1.373-7.953,2.5-15.171,3.281-20.4.355-2.516.649-4.6.876-6.2A13.238,13.238,0,0,0,651.951,348.4Z" transform="translate(-642.372 -348.404)"/>
              </g>
            </g>
          </g>
        </g>
        <g id="Grupo_120821" data-name="Grupo 120821" transform="translate(47.472 41.81)">
          <g id="Grupo_120820" data-name="Grupo 120820" transform="translate(0)">
            <g id="Grupo_120819" data-name="Grupo 120819">
              <g id="Grupo_120818" data-name="Grupo 120818">
                <path id="Trazado_143861" data-name="Trazado 143861" d="M642.358,317.315c-.085.106,1.487,1.331,3.71,3.621A44.94,44.94,0,0,1,657.7,342.583c.683,3.118.837,5.1.972,5.092a4.849,4.849,0,0,0,.012-1.4,28.953,28.953,0,0,0-.457-3.793,40.477,40.477,0,0,0-11.784-21.925,28.711,28.711,0,0,0-2.913-2.473A4.94,4.94,0,0,0,642.358,317.315Z" transform="translate(-642.354 -317.311)"/>
              </g>
            </g>
          </g>
        </g>
        <g id="Grupo_120824" data-name="Grupo 120824" transform="translate(150.008 33.532)">
          <g id="Grupo_120823" data-name="Grupo 120823" transform="translate(0)">
            <g id="Grupo_120822" data-name="Grupo 120822">
              <path id="Trazado_143862" data-name="Trazado 143862" d="M579.983,313.845l4.9-1.913,4.647,7.971.84,13.095-6.547,1.054-4.922-8.08Z" transform="translate(-578.903 -311.932)" fill="#455a64"/>
            </g>
          </g>
        </g>
        <g id="Grupo_120828" data-name="Grupo 120828" transform="translate(203.729 74.4)">
          <g id="Grupo_120827" data-name="Grupo 120827" transform="translate(0)">
            <g id="Grupo_120826" data-name="Grupo 120826">
              <g id="Grupo_120825" data-name="Grupo 120825">
                <path id="Trazado_143863" data-name="Trazado 143863" d="M551.33,338.49c-.209,0-.38,28.345-.38,63.3s.171,63.311.38,63.311.382-28.34.382-63.311S551.541,338.49,551.33,338.49Z" transform="translate(-550.95 -338.49)"/>
              </g>
            </g>
          </g>
        </g>
        <g id="Grupo_120832" data-name="Grupo 120832" transform="translate(150.737 24.129)">
          <g id="Grupo_120831" data-name="Grupo 120831" transform="translate(0)">
            <g id="Grupo_120830" data-name="Grupo 120830">
              <g id="Grupo_120829" data-name="Grupo 120829">
                <path id="Trazado_143864" data-name="Trazado 143864" d="M575.418,305.823c-.094.065,1.056,1.825,2.8,4.736s4.038,6.992,6.232,11.672c.179.385.356.766.52,1.123l.343.737.348-.733a91.156,91.156,0,0,0,4.582-11.606c.476-1.511.816-2.741,1.025-3.6a4.771,4.771,0,0,0,.246-1.346c-.1-.031-.692,1.813-1.765,4.775s-2.667,7.039-4.776,11.446l.689.006c-.166-.359-.343-.743-.522-1.131a96.973,96.973,0,0,0-6.466-11.633c-.931-1.426-1.727-2.551-2.3-3.316A5.486,5.486,0,0,0,575.418,305.823Z" transform="translate(-575.413 -305.821)"/>
              </g>
            </g>
          </g>
        </g>
        <g id="Grupo_120836" data-name="Grupo 120836" transform="translate(94.851 19.013)">
          <g id="Grupo_120835" data-name="Grupo 120835" transform="translate(0)">
            <g id="Grupo_120834" data-name="Grupo 120834">
              <g id="Grupo_120833" data-name="Grupo 120833">
                <path id="Trazado_143865" data-name="Trazado 143865" d="M585.6,302.5a3.732,3.732,0,0,0,.751.452l2.222,1.162,8.182,4.238c6.9,3.592,16.358,8.707,26.834,14.3,6.38,3.4,12.423,6.549,17.679,9.179l.485.243.006-.539c.066-6.818.122-12.563.163-16.718,0-1.951-.008-3.527-.009-4.712a10.18,10.18,0,0,0-.075-1.674,9.924,9.924,0,0,0-.137,1.671c-.045,1.183-.1,2.758-.179,4.709-.109,4.153-.26,9.9-.438,16.711l.489-.294c-5.226-2.678-11.249-5.852-17.626-9.25-10.473-5.6-19.974-10.639-26.946-14.111-3.482-1.74-6.323-3.107-8.3-4.024l-2.285-1.034A3.943,3.943,0,0,0,585.6,302.5Z" transform="translate(-585.599 -302.496)"/>
              </g>
            </g>
          </g>
        </g>
        <g id="Grupo_120840" data-name="Grupo 120840" transform="translate(197.478 36.924)">
          <g id="Grupo_120839" data-name="Grupo 120839" transform="translate(0)">
            <g id="Grupo_120838" data-name="Grupo 120838">
              <g id="Grupo_120837" data-name="Grupo 120837">
                <path id="Trazado_143866" data-name="Trazado 143866" d="M551.359,314.138c-.111.066.751,1.526,1.86,4.01a44.3,44.3,0,0,1,3.8,20.662c-.152,2.716-.439,4.387-.312,4.41a3.643,3.643,0,0,0,.343-1.148,26.454,26.454,0,0,0,.506-3.219,38.362,38.362,0,0,0-3.849-20.936,26.255,26.255,0,0,0-1.62-2.828C551.661,314.448,551.4,314.11,551.359,314.138Z" transform="translate(-551.349 -314.136)"/>
              </g>
            </g>
          </g>
        </g>
        <g id="Grupo_120844" data-name="Grupo 120844" transform="translate(156.118 53.214)">
          <g id="Grupo_120843" data-name="Grupo 120843" transform="translate(0)">
            <g id="Grupo_120842" data-name="Grupo 120842">
              <g id="Grupo_120841" data-name="Grupo 120841">
                <path id="Trazado_143867" data-name="Trazado 143867" d="M579.034,328.007c.112.178,1.357-.406,2.781-1.3s2.485-1.773,2.373-1.95-1.357.4-2.781,1.3S578.922,327.83,579.034,328.007Z" transform="translate(-579.026 -324.722)"/>
              </g>
            </g>
          </g>
        </g>
        <g id="Grupo_120848" data-name="Grupo 120848" transform="translate(153.751 39.734)">
          <g id="Grupo_120847" data-name="Grupo 120847" transform="translate(0)">
            <g id="Grupo_120846" data-name="Grupo 120846">
              <g id="Grupo_120845" data-name="Grupo 120845">
                <path id="Trazado_143868" data-name="Trazado 143868" d="M580.044,329.53c.192.085,1.683-2.884,3.328-6.629s2.824-6.852,2.631-6.937-1.683,2.884-3.33,6.629S579.852,329.445,580.044,329.53Z" transform="translate(-580.024 -315.962)"/>
              </g>
            </g>
          </g>
        </g>
        <g id="Grupo_120852" data-name="Grupo 120852" transform="translate(135.964 121.608)" opacity="0.3">
          <g id="Grupo_120851" data-name="Grupo 120851">
            <g id="Grupo_120850" data-name="Grupo 120850">
              <g id="Grupo_120849" data-name="Grupo 120849">
                <path id="Trazado_143869" data-name="Trazado 143869" d="M517.715,401.008a4.967,4.967,0,0,1,1.7-3.2c1.822-1.185,4.1.374,5.963,1.485,4.9,2.922,10.972,2.818,16.676,2.57,17.2-.749,34.4-2.027,51.378-4.876,8.316-1.4,16.7-3.213,24.133-7.188s13.911-10.382,16.3-18.467l3.972-2.159c-3.079,6.571-2.762,25.173-3.867,32.344s-4.279,12.281-11.184,14.511c-2.775.9-5.761.76-8.671.615-28.311-1.4-56.876-.128-85.186-1.531-4.045-.2-8.722-.748-10.9-4.162C516.192,408.071,516.921,404.325,517.715,401.008Z" transform="translate(-516.879 -369.168)"/>
              </g>
            </g>
          </g>
        </g>
        <g id="Grupo_120854" data-name="Grupo 120854" transform="translate(61.976 163.481)" opacity="0.3">
          <g id="Grupo_120853" data-name="Grupo 120853">
            <path id="Trazado_143870" data-name="Trazado 143870" d="M653.821,396.379h0c-2.073,11.906-6.2,28-12.1,38.547H624.528C631.04,426.78,653.821,396.379,653.821,396.379Z" transform="translate(-624.528 -396.379)"/>
          </g>
        </g>
      </g>
      <g id="Grupo_120887" data-name="Grupo 120887" transform="translate(65.774 185.568)">
        <g id="Grupo_120873" data-name="Grupo 120873" transform="translate(0 38.372)">
          <g id="Grupo_120860" data-name="Grupo 120860">
            <g id="Grupo_120859" data-name="Grupo 120859">
              <g id="Grupo_120858" data-name="Grupo 120858">
                <g id="Grupo_120857" data-name="Grupo 120857">
                  <g id="Grupo_120856" data-name="Grupo 120856">
                    <path id="Trazado_143871" data-name="Trazado 143871" d="M585.121,398.107l32.05-40.375,20.542-5.42,23.838,1.328a5.086,5.086,0,0,1-2.588,5.948l8.765-.117s2.062,4.367-2.785,6.714l6.314.656s-2.294,6.582-9.365,5.828-18.547.054-18.547.054l-11.747,7.6,18.156-2.033,13.4,1.562s1.985,3.258-.951,4.273-14.468,1.02-14.468,1.02l-16.133,6.4s-5.8,9.61-7.873,12.261-12.466,8.034-12.466,8.034l-4.95,5.1Z" transform="translate(-585.121 -352.312)" fill="#ffbf9d"/>
                  </g>
                </g>
              </g>
            </g>
          </g>
          <g id="Grupo_120866" data-name="Grupo 120866" transform="translate(35.37 4.536)">
            <g id="Grupo_120865" data-name="Grupo 120865">
              <g id="Grupo_120864" data-name="Grupo 120864">
                <g id="Grupo_120863" data-name="Grupo 120863">
                  <g id="Grupo_120862" data-name="Grupo 120862">
                    <g id="Grupo_120861" data-name="Grupo 120861">
                      <path id="Trazado_143872" data-name="Trazado 143872" d="M633.965,357c-.008.186-2.607.26-6.8.226s-9.987-.171-16.382-.408l-6.138-.252.249-.04c-4.629,1.665-8.653,3.059-11.533,4s-4.618,1.43-4.672,1.283,1.585-.9,4.386-2.057,6.766-2.708,11.369-4.449l.117-.045.132,0c1.948.065,4.007.134,6.141.2,6.394.237,12.181.528,16.367.8S633.971,356.816,633.965,357Z" transform="translate(-588.686 -355.26)" fill="#ff9a6c"/>
                    </g>
                  </g>
                </g>
              </g>
            </g>
          </g>
          <g id="Grupo_120872" data-name="Grupo 120872" transform="translate(42.218 10.822)">
            <g id="Grupo_120871" data-name="Grupo 120871">
              <g id="Grupo_120870" data-name="Grupo 120870">
                <g id="Grupo_120869" data-name="Grupo 120869">
                  <g id="Grupo_120868" data-name="Grupo 120868">
                    <g id="Grupo_120867" data-name="Grupo 120867">
                      <path id="Trazado_143873" data-name="Trazado 143873" d="M627.824,362.015c-.014.186-2.374.179-6.177.015s-9.051-.482-14.84-.917l-5.764-.46.332-.063c-7.973,3.776-13.865,6.345-14,6.068s5.53-3.315,13.432-7.237l.154-.075.179.012,5.769.406c5.789.436,11.026.9,14.81,1.313S627.838,361.829,627.824,362.015Z" transform="translate(-587.373 -359.345)" fill="#ff9a6c"/>
                    </g>
                  </g>
                </g>
              </g>
            </g>
          </g>
        </g>
        <g id="Grupo_120880" data-name="Grupo 120880" transform="translate(62.987)">
          <path id="Trazado_143874" data-name="Trazado 143874" d="M514.239,342.616l79.315.511h0l14.185-13.971a6.184,6.184,0,0,1,4.341-1.78h32.792a3.472,3.472,0,0,1,3.465,3.687l-4.6,74.531-130.87,23.245-2.124-82.662A3.474,3.474,0,0,1,514.239,342.616Z" transform="translate(-510.744 -327.376)" fill="#ff725e"/>
          <g id="Grupo_120876" data-name="Grupo 120876" transform="translate(2.858 7.103)">
            <g id="Grupo_120875" data-name="Grupo 120875">
              <g id="Grupo_120874" data-name="Grupo 120874">
                <path id="Trazado_143875" data-name="Trazado 143875" d="M512.139,421.36l132.6-8.373v-81H514.364Z" transform="translate(-512.139 -331.992)" fill="#fafafa"/>
              </g>
            </g>
          </g>
          <g id="Grupo_120879" data-name="Grupo 120879" transform="translate(2.141 11.013)">
            <g id="Grupo_120878" data-name="Grupo 120878">
              <g id="Grupo_120877" data-name="Grupo 120877">
                <path id="Trazado_143876" data-name="Trazado 143876" d="M650.392,341.2l-13.344,79.013a5.717,5.717,0,0,1-5.637,4.766H502.924a.1.1,0,0,1-.1-.119l12.557-85.445a5.719,5.719,0,0,1,5.657-4.886h123.72A5.72,5.72,0,0,1,650.392,341.2Z" transform="translate(-502.819 -334.533)" fill="#ff725e"/>
              </g>
            </g>
          </g>
        </g>
        <g id="Grupo_120886" data-name="Grupo 120886" transform="translate(190.624 35.592)">
          <g id="Grupo_120881" data-name="Grupo 120881" transform="translate(0)">
            <path id="Trazado_143877" data-name="Trazado 143877" d="M526.688,361.146a5.959,5.959,0,0,0,.037-7.342,9.078,9.078,0,0,0-6.96-3.29,19.88,19.88,0,0,0-7.74,1.607,50.3,50.3,0,0,0-8.779,4.381c-1.96,1.229-3.989,2.831-4.373,5.113s2.1,4.886,4.107,3.741c-2.613,1.1-5.247,3.862-5.666,6.751s1.123,4.438,3.919,5.27c-2.128.828-3.487,3.5-2.513,5.564,1.023,2.17,4.016,2.765,6.258,1.908s3.9-2.751,5.453-4.575a13.345,13.345,0,0,0-1.554,9.167,17.927,17.927,0,0,0,11.724-14.4,8.291,8.291,0,0,0,2.253-10.193c2.49-.777,5.31-4.573,5.117-7.175" transform="translate(-497.245 -350.505)" fill="#ffbf9d"/>
          </g>
          <g id="Grupo_120883" data-name="Grupo 120883" transform="translate(4.04 20.356)">
            <g id="Grupo_120882" data-name="Grupo 120882">
              <path id="Trazado_143878" data-name="Trazado 143878" d="M502.143,370.279a24.175,24.175,0,0,0,2.671-2.044,17.988,17.988,0,0,1,7.035-3.6,9.628,9.628,0,0,1,4.282,0,7.979,7.979,0,0,1,3.124,1.56,9.9,9.9,0,0,1,2.034,2.567,1.824,1.824,0,0,0-.237-.891,6.25,6.25,0,0,0-1.482-2.036,7.975,7.975,0,0,0-3.282-1.8,9.773,9.773,0,0,0-4.579-.065,16.555,16.555,0,0,0-7.2,3.893A12.7,12.7,0,0,0,502.143,370.279Z" transform="translate(-502.141 -363.734)" fill="#ff9a6c"/>
            </g>
          </g>
          <g id="Grupo_120885" data-name="Grupo 120885" transform="translate(4.724 10.232)">
            <g id="Grupo_120884" data-name="Grupo 120884">
              <path id="Trazado_143879" data-name="Trazado 143879" d="M500.387,362.052a14.205,14.205,0,0,0,3.244-1.351,37.046,37.046,0,0,1,3.45-1.508,29.229,29.229,0,0,1,4.441-1.151,12.791,12.791,0,0,1,4.509-.045,8.238,8.238,0,0,1,3.341,1.453,8.546,8.546,0,0,1,2.182,2.6,1.947,1.947,0,0,0-.258-.923,5.991,5.991,0,0,0-1.627-2.054,8.2,8.2,0,0,0-3.51-1.686,12.581,12.581,0,0,0-4.749-.014,26,26,0,0,0-4.547,1.234,29.065,29.065,0,0,0-3.452,1.667A24.866,24.866,0,0,0,500.387,362.052Z" transform="translate(-500.386 -357.155)" fill="#ff9a6c"/>
            </g>
          </g>
        </g>
      </g>
      <g id="Grupo_120888" data-name="Grupo 120888" transform="translate(19.221 267.908)">
        <path id="Trazado_143880" data-name="Trazado 143880" d="M624.192,416.655a7.207,7.207,0,0,0,.945-.637q.979-.718,2.643-1.94l9.749-7.322L670.454,381.7l-.5-.021,9.822,8.964c5.392,4.906,10.593,9.64,15.39,14.006l-.044-.509-21.982,28.743c-2.662,3.53-4.8,6.358-6.309,8.362-.7.944-1.246,1.691-1.658,2.254a5.253,5.253,0,0,0-.539.8,5.605,5.605,0,0,0,.642-.726l1.757-2.178,6.484-8.229,22.206-28.57.213-.274-.257-.235c-4.791-4.373-9.985-9.115-15.367-14.032l-9.833-8.953-.242-.22-.257.2-32.761,25.271-9.606,7.506q-1.613,1.291-2.562,2.048A6.688,6.688,0,0,0,624.192,416.655Z" transform="translate(-624.191 -379.917)"/>
      </g>
    </g>
    <path id="Uni칩n_9" data-name="Uni칩n 9" d="M26.516,221.841a32.347,32.347,0,0,1-3.441-.184c-21.153-2.271-25.52-34.534-21.962-57.235C3.1,151.773,14.491,98.289,14.491,98.289l37.522,11.87-1.255-71.7,44.4-19.439L100.137,0l.134.063L100.285,0s5.754,1.665,20.534,9.55q1.385.74,2.79,1.469l28.357,13.313,10.857-11.912v0l0,0,.032.1,4.512,13.325,11.358,3.687L196.53,64.4h23.822l5.4-5.323A6.182,6.182,0,0,1,230.1,57.3h32.792a3.472,3.472,0,0,1,3.465,3.687l-.452,7.326h6.934a5.72,5.72,0,0,1,5.638,6.671L265.13,154a5.717,5.717,0,0,1-5.637,4.766h-6.038c.8,6.9,1.494,14.853,2.06,24.111.742,12.114-1.872,28.276-13.361,32.18a24.622,24.622,0,0,1-7.91,1.213c-11.718,0-25.177-6.781-30.133-15.246l-142.07.94c-9.449,10.451-21.347,19.881-35.522,19.882Zm24.057-71,2.116-2.04-.16-9.123Z" transform="translate(-8202.133 -4870.285)" stroke="rgba(0,0,0,0)" stroke-miterlimit="10" stroke-width="1" fill="url(#linear-gradient-2)"/>
  </g>
</svg>
